<svg xmlns="http://www.w3.org/2000/svg" viewBox="0 0 120 90"><polygon points="63.81,0.75 39.33,4.61 60.78,13.73" fill="rgb(148,130,219)" stroke="rgb(148,130,219)" stroke-width="0.35"/><polygon points="86.00,6.67 63.81,0.75 60.78,13.73" fill="rgb(148,130,219)" stroke="rgb(148,130,219)" stroke-width="0.35"/><polygon points="39.33,4.61 31.00,15.34 60.78,13.73" fill="rgb(148,130,219)" stroke="rgb(148,130,219)" stroke-width="0.35"/><polygon points="71.00,80.03 89.20,71.94 89.20,17.91" fill="rgb(110,97,163)" stroke="rgb(110,97,163)" stroke-width="0.35"/><polygon points="89.20,17.91 86.00,6.67 60.78,13.73" fill="rgb(148,130,219)" stroke="rgb(148,130,219)" stroke-width="0.35"/><polygon points="31.00,69.36 45.10,78.89 45.10,24.86" fill="rgb(129,114,192)" stroke="rgb(129,114,192)" stroke-width="0.35"/><polygon points="31.00,15.34 31.00,69.36 45.10,24.86" fill="rgb(129,114,192)" stroke="rgb(129,114,192)" stroke-width="0.35"/><polygon points="45.10,78.89 71.00,80.03 71.00,26.00" fill="rgb(128,112,189)" stroke="rgb(128,112,189)" stroke-width="0.35"/><polygon points="31.00,15.34 45.10,24.86 60.78,13.73" fill="rgb(148,130,219)" stroke="rgb(148,130,219)" stroke-width="0.35"/><polygon points="71.00,26.00 71.00,80.03 89.20,17.91" fill="rgb(110,97,163)" stroke="rgb(110,97,163)" stroke-width="0.35"/><polygon points="71.00,26.00 89.20,17.91 60.78,13.73" fill="rgb(148,130,219)" stroke="rgb(148,130,219)" stroke-width="0.35"/><polygon points="45.10,24.86 45.10,78.89 71.00,26.00" fill="rgb(128,112,189)" stroke="rgb(128,112,189)" stroke-width="0.35"/><polygon points="45.10,24.86 71.00,26.00 60.78,13.73" fill="rgb(148,130,219)" stroke="rgb(148,130,219)" stroke-width="0.35"/></svg>