<svg xmlns="http://www.w3.org/2000/svg" viewBox="0 0 120 90"><polygon points="85.58,75.13 89.17,65.27 74.59,23.57" fill="rgb(107,94,159)" stroke="rgb(107,94,159)" stroke-width="0.35"/><polygon points="67.84,19.53 56.50,18.75 60.00,25.09" fill="rgb(148,130,219)" stroke="rgb(148,130,219)" stroke-width="0.35"/><polygon points="56.50,18.75 47.21,21.68 60.00,25.09" fill="rgb(148,130,219)" stroke="rgb(148,130,219)" stroke-width="0.35"/><polygon points="74.59,23.57 67.84,19.53 60.00,25.09" fill="rgb(148,130,219)" stroke="rgb(148,130,219)" stroke-width="0.35"/><polygon points="47.21,21.68 45.41,26.61 60.00,25.09" fill="rgb(148,130,219)" stroke="rgb(148,130,219)" stroke-width="0.35"/><polygon points="72.79,28.50 85.58,75.13 74.59,23.57" fill="rgb(107,94,159)" stroke="rgb(107,94,159)" stroke-width="0.35"/><polygon points="30.83,71.36 44.32,79.44 52.16,30.65" fill="rgb(140,124,208)" stroke="rgb(140,124,208)" stroke-width="0.35"/><polygon points="45.41,26.61 30.83,71.36 52.16,30.65" fill="rgb(140,124,208)" stroke="rgb(140,124,208)" stroke-width="0.35"/><polygon points="72.79,28.50 74.59,23.57 60.00,25.09" fill="rgb(148,130,219)" stroke="rgb(148,130,219)" stroke-width="0.35"/><polygon points="67.00,81.00 85.58,75.13 72.79,28.50" fill="rgb(125,110,186)" stroke="rgb(125,110,186)" stroke-width="0.35"/><polygon points="45.41,26.61 52.16,30.65 60.00,25.09" fill="rgb(148,130,219)" stroke="rgb(148,130,219)" stroke-width="0.35"/><polygon points="63.50,31.44 72.79,28.50 60.00,25.09" fill="rgb(148,130,219)" stroke="rgb(148,130,219)" stroke-width="0.35"/><polygon points="44.32,79.44 67.00,81.00 63.50,31.44" fill="rgb(139,122,206)" stroke="rgb(139,122,206)" stroke-width="0.35"/><polygon points="52.16,30.65 63.50,31.44 60.00,25.09" fill="rgb(148,130,219)" stroke="rgb(148,130,219)" stroke-width="0.35"/><polygon points="63.50,31.44 67.00,81.00 72.79,28.50" fill="rgb(125,110,186)" stroke="rgb(125,110,186)" stroke-width="0.35"/><polygon points="52.16,30.65 44.32,79.44 63.50,31.44" fill="rgb(139,122,206)" stroke="rgb(139,122,206)" stroke-width="0.35"/></svg>