<svg xmlns="http://www.w3.org/2000/svg" viewBox="0 0 120 90"><polygon points="88.15,73.31 90.22,65.93 75.27,23.34" fill="rgb(107,94,159)" stroke="rgb(107,94,159)" stroke-width="0.35"/><polygon points="30.24,66.49 33.02,73.81 46.67,27.28" fill="rgb(135,119,200)" stroke="rgb(135,119,200)" stroke-width="0.35"/><polygon points="64.28,18.06 55.74,18.13 60.32,24.42" fill="rgb(148,130,219)" stroke="rgb(148,130,219)" stroke-width="0.35"/><polygon points="71.56,20.00 64.28,18.06 60.32,24.42" fill="rgb(148,130,219)" stroke="rgb(148,130,219)" stroke-width="0.35"/><polygon points="55.74,18.13 48.66,20.21 60.32,24.42" fill="rgb(148,130,219)" stroke="rgb(148,130,219)" stroke-width="0.35"/><polygon points="45.28,23.62 30.24,66.49 46.67,27.28" fill="rgb(135,119,200)" stroke="rgb(135,119,200)" stroke-width="0.35"/><polygon points="75.27,23.34 71.56,20.00 60.32,24.42" fill="rgb(148,130,219)" stroke="rgb(148,130,219)" stroke-width="0.35"/><polygon points="48.66,20.21 45.28,23.62 60.32,24.42" fill="rgb(148,130,219)" stroke="rgb(148,130,219)" stroke-width="0.35"/><polygon points="74.24,27.03 88.15,73.31 75.27,23.34" fill="rgb(107,94,159)" stroke="rgb(107,94,159)" stroke-width="0.35"/><polygon points="77.24,79.02 88.15,73.31 74.24,27.03" fill="rgb(120,106,178)" stroke="rgb(120,106,178)" stroke-width="0.35"/><polygon points="74.24,27.03 75.27,23.34 60.32,24.42" fill="rgb(148,130,219)" stroke="rgb(148,130,219)" stroke-width="0.35"/><polygon points="45.28,23.62 46.67,27.28 60.32,24.42" fill="rgb(148,130,219)" stroke="rgb(148,130,219)" stroke-width="0.35"/><polygon points="33.02,73.81 44.48,79.32 52.40,30.04" fill="rgb(141,125,210)" stroke="rgb(141,125,210)" stroke-width="0.35"/><polygon points="46.67,27.28 33.02,73.81 52.40,30.04" fill="rgb(141,125,210)" stroke="rgb(141,125,210)" stroke-width="0.35"/><polygon points="68.78,29.89 74.24,27.03 60.32,24.42" fill="rgb(148,130,219)" stroke="rgb(148,130,219)" stroke-width="0.35"/><polygon points="46.67,27.28 52.40,30.04 60.32,24.42" fill="rgb(148,130,219)" stroke="rgb(148,130,219)" stroke-width="0.35"/><polygon points="68.78,29.89 77.24,79.02 74.24,27.03" fill="rgb(120,106,178)" stroke="rgb(120,106,178)" stroke-width="0.35"/><polygon points="60.96,81.26 77.24,79.02 68.78,29.89" fill="rgb(132,117,196)" stroke="rgb(132,117,196)" stroke-width="0.35"/><polygon points="44.48,79.32 60.96,81.26 60.64,31.01" fill="rgb(140,124,208)" stroke="rgb(140,124,208)" stroke-width="0.35"/><polygon points="60.64,31.01 68.78,29.89 60.32,24.42" fill="rgb(148,130,219)" stroke="rgb(148,130,219)" stroke-width="0.35"/><polygon points="52.40,30.04 60.64,31.01 60.32,24.42" fill="rgb(148,130,219)" stroke="rgb(148,130,219)" stroke-width="0.35"/><polygon points="52.40,30.04 44.48,79.32 60.64,31.01" fill="rgb(140,124,208)" stroke="rgb(140,124,208)" stroke-width="0.35"/><polygon points="60.64,31.01 60.96,81.26 68.78,29.89" fill="rgb(132,117,196)" stroke="rgb(132,117,196)" stroke-width="0.35"/></svg>