<svg xmlns="http://www.w3.org/2000/svg" viewBox="0 0 120 90"><polygon points="75.68,51.78 53.00,50.22 60.00,62.91" fill="rgb(148,130,219)" stroke="rgb(148,130,219)" stroke-width="0.35"/><polygon points="53.00,50.22 34.42,56.09 60.00,62.91" fill="rgb(148,130,219)" stroke="rgb(148,130,219)" stroke-width="0.35"/><polygon points="89.17,59.87 75.68,51.78 60.00,62.91" fill="rgb(148,130,219)" stroke="rgb(148,130,219)" stroke-width="0.35"/><polygon points="34.42,56.09 30.83,65.95 60.00,62.91" fill="rgb(148,130,219)" stroke="rgb(148,130,219)" stroke-width="0.35"/><polygon points="85.58,75.13 89.17,65.27 89.17,59.87" fill="rgb(106,94,158)" stroke="rgb(106,94,158)" stroke-width="0.35"/><polygon points="85.58,69.73 89.17,59.87 60.00,62.91" fill="rgb(148,130,219)" stroke="rgb(148,130,219)" stroke-width="0.35"/><polygon points="85.58,69.73 85.58,75.13 89.17,59.87" fill="rgb(106,94,158)" stroke="rgb(106,94,158)" stroke-width="0.35"/><polygon points="30.83,65.95 44.32,74.03 60.00,62.91" fill="rgb(148,130,219)" stroke="rgb(148,130,219)" stroke-width="0.35"/><polygon points="30.83,65.95 30.83,71.36 44.32,74.03" fill="rgb(130,114,192)" stroke="rgb(130,114,192)" stroke-width="0.35"/><polygon points="67.00,75.60 85.58,69.73 60.00,62.91" fill="rgb(148,130,219)" stroke="rgb(148,130,219)" stroke-width="0.35"/><polygon points="30.83,71.36 44.32,79.44 44.32,74.03" fill="rgb(130,114,192)" stroke="rgb(130,114,192)" stroke-width="0.35"/><polygon points="67.00,81.00 85.58,75.13 85.58,69.73" fill="rgb(114,100,169)" stroke="rgb(114,100,169)" stroke-width="0.35"/><polygon points="44.32,74.03 67.00,75.60 60.00,62.91" fill="rgb(148,130,219)" stroke="rgb(148,130,219)" stroke-width="0.35"/><polygon points="67.00,75.60 67.00,81.00 85.58,69.73" fill="rgb(114,100,169)" stroke="rgb(114,100,169)" stroke-width="0.35"/><polygon points="44.32,74.03 44.32,79.44 67.00,75.60" fill="rgb(128,113,190)" stroke="rgb(128,113,190)" stroke-width="0.35"/><polygon points="44.32,79.44 67.00,81.00 67.00,75.60" fill="rgb(128,113,190)" stroke="rgb(128,113,190)" stroke-width="0.35"/></svg>