<svg xmlns="http://www.w3.org/2000/svg" viewBox="0 0 120 90"><polygon points="60.79,49.86 45.69,51.44 60.00,62.91" fill="rgb(148,130,219)" stroke="rgb(148,130,219)" stroke-width="0.35"/><polygon points="75.68,51.78 60.79,49.86 60.00,62.91" fill="rgb(148,130,219)" stroke="rgb(148,130,219)" stroke-width="0.35"/><polygon points="45.69,51.44 34.42,56.09 60.00,62.91" fill="rgb(148,130,219)" stroke="rgb(148,130,219)" stroke-width="0.35"/><polygon points="86.37,56.69 75.68,51.78 60.00,62.91" fill="rgb(148,130,219)" stroke="rgb(148,130,219)" stroke-width="0.35"/><polygon points="34.42,56.09 30.01,62.56 60.00,62.91" fill="rgb(148,130,219)" stroke="rgb(148,130,219)" stroke-width="0.35"/><polygon points="89.99,63.25 86.37,56.69 60.00,62.91" fill="rgb(148,130,219)" stroke="rgb(148,130,219)" stroke-width="0.35"/><polygon points="30.01,62.56 30.01,67.97 33.63,69.13" fill="rgb(125,110,185)" stroke="rgb(125,110,185)" stroke-width="0.35"/><polygon points="85.58,75.13 89.99,68.66 89.99,63.25" fill="rgb(106,94,158)" stroke="rgb(106,94,158)" stroke-width="0.35"/><polygon points="30.01,62.56 33.63,69.13 60.00,62.91" fill="rgb(148,130,219)" stroke="rgb(148,130,219)" stroke-width="0.35"/><polygon points="85.58,69.73 89.99,63.25 60.00,62.91" fill="rgb(148,130,219)" stroke="rgb(148,130,219)" stroke-width="0.35"/><polygon points="30.01,67.97 33.63,74.54 33.63,69.13" fill="rgb(125,110,185)" stroke="rgb(125,110,185)" stroke-width="0.35"/><polygon points="85.58,69.73 85.58,75.13 89.99,63.25" fill="rgb(106,94,158)" stroke="rgb(106,94,158)" stroke-width="0.35"/><polygon points="33.63,69.13 44.32,74.03 60.00,62.91" fill="rgb(148,130,219)" stroke="rgb(148,130,219)" stroke-width="0.35"/><polygon points="74.31,74.38 85.58,69.73 60.00,62.91" fill="rgb(148,130,219)" stroke="rgb(148,130,219)" stroke-width="0.35"/><polygon points="33.63,69.13 33.63,74.54 44.32,74.03" fill="rgb(130,115,194)" stroke="rgb(130,115,194)" stroke-width="0.35"/><polygon points="74.31,79.78 85.58,75.13 85.58,69.73" fill="rgb(111,98,164)" stroke="rgb(111,98,164)" stroke-width="0.35"/><polygon points="44.32,74.03 59.21,75.95 60.00,62.91" fill="rgb(148,130,219)" stroke="rgb(148,130,219)" stroke-width="0.35"/><polygon points="59.21,75.95 74.31,74.38 60.00,62.91" fill="rgb(148,130,219)" stroke="rgb(148,130,219)" stroke-width="0.35"/><polygon points="33.63,74.54 44.32,79.44 44.32,74.03" fill="rgb(130,115,194)" stroke="rgb(130,115,194)" stroke-width="0.35"/><polygon points="74.31,74.38 74.31,79.78 85.58,69.73" fill="rgb(111,98,164)" stroke="rgb(111,98,164)" stroke-width="0.35"/><polygon points="59.21,81.36 74.31,79.78 74.31,74.38" fill="rgb(122,108,181)" stroke="rgb(122,108,181)" stroke-width="0.35"/><polygon points="44.32,74.03 44.32,79.44 59.21,75.95" fill="rgb(129,114,192)" stroke="rgb(129,114,192)" stroke-width="0.35"/><polygon points="44.32,79.44 59.21,81.36 59.21,75.95" fill="rgb(129,114,192)" stroke="rgb(129,114,192)" stroke-width="0.35"/><polygon points="59.21,75.95 59.21,81.36 74.31,74.38" fill="rgb(122,108,181)" stroke="rgb(122,108,181)" stroke-width="0.35"/></svg>