<svg xmlns="http://www.w3.org/2000/svg" viewBox="0 0 120 90"><polygon points="34.42,61.49 31.24,64.60 42.10,56.78" fill="rgb(141,125,210)" stroke="rgb(141,125,210)" stroke-width="0.35"/><polygon points="89.17,65.27 86.37,62.09 80.42,59.43" fill="rgb(125,110,185)" stroke="rgb(125,110,185)" stroke-width="0.35"/><polygon points="78.46,57.20 80.42,59.43 86.37,62.09" fill="rgb(125,110,185)" stroke="rgb(125,110,185)" stroke-width="0.35"/><polygon points="39.87,58.96 42.10,56.78 31.24,64.60" fill="rgb(141,125,210)" stroke="rgb(141,125,210)" stroke-width="0.35"/><polygon points="31.24,64.60 30.01,67.97 39.87,58.96" fill="rgb(145,128,216)" stroke="rgb(145,128,216)" stroke-width="0.35"/><polygon points="80.42,59.43 80.99,61.80 89.17,65.27" fill="rgb(128,112,189)" stroke="rgb(128,112,189)" stroke-width="0.35"/><polygon points="89.99,68.66 89.17,65.27 80.99,61.80" fill="rgb(128,112,189)" stroke="rgb(128,112,189)" stroke-width="0.35"/><polygon points="39.01,61.32 39.87,58.96 30.01,67.97" fill="rgb(145,128,216)" stroke="rgb(145,128,216)" stroke-width="0.35"/><polygon points="30.01,67.97 30.83,71.36 39.01,61.32" fill="rgb(149,131,221)" stroke="rgb(149,131,221)" stroke-width="0.35"/><polygon points="39.87,58.96 39.01,61.32 47.06,39.63" fill="rgb(130,115,193)" stroke="rgb(130,115,193)" stroke-width="0.35"/><polygon points="80.99,61.80 80.13,64.15 89.99,68.66" fill="rgb(131,115,194)" stroke="rgb(131,115,194)" stroke-width="0.35"/><polygon points="80.99,61.80 80.42,59.43 73.50,41.45" fill="rgb(106,94,158)" stroke="rgb(106,94,158)" stroke-width="0.35"/><polygon points="39.58,63.69 39.01,61.32 30.83,71.36" fill="rgb(149,131,221)" stroke="rgb(149,131,221)" stroke-width="0.35"/><polygon points="88.76,72.02 89.99,68.66 80.13,64.15" fill="rgb(131,115,194)" stroke="rgb(131,115,194)" stroke-width="0.35"/><polygon points="73.13,39.93 73.50,41.45 80.42,59.43" fill="rgb(106,94,158)" stroke="rgb(106,94,158)" stroke-width="0.35"/><polygon points="39.01,61.32 39.58,63.69 46.50,41.14" fill="rgb(135,119,200)" stroke="rgb(135,119,200)" stroke-width="0.35"/><polygon points="71.87,38.50 69.79,37.26 65.27,34.65" fill="rgb(124,109,184)" stroke="rgb(124,109,184)" stroke-width="0.35"/><polygon points="46.50,41.14 47.06,39.63 39.01,61.32" fill="rgb(130,115,193)" stroke="rgb(130,115,193)" stroke-width="0.35"/><polygon points="30.83,71.36 33.63,74.54 39.58,63.69" fill="rgb(151,133,225)" stroke="rgb(151,133,225)" stroke-width="0.35"/><polygon points="80.13,64.15 80.99,61.80 72.94,42.97" fill="rgb(109,96,161)" stroke="rgb(109,96,161)" stroke-width="0.35"/><polygon points="48.49,38.23 47.06,39.63 54.88,34.53" fill="rgb(142,125,211)" stroke="rgb(142,125,211)" stroke-width="0.35"/><polygon points="80.13,64.15 77.90,66.33 88.76,72.02" fill="rgb(135,119,200)" stroke="rgb(135,119,200)" stroke-width="0.35"/><polygon points="64.35,34.10 65.27,34.65 69.79,37.26" fill="rgb(124,109,184)" stroke="rgb(124,109,184)" stroke-width="0.35"/><polygon points="73.13,39.93 71.87,38.50 65.83,35.29" fill="rgb(126,111,187)" stroke="rgb(126,111,187)" stroke-width="0.35"/><polygon points="41.54,65.92 39.58,63.69 33.63,74.54" fill="rgb(151,133,225)" stroke="rgb(151,133,225)" stroke-width="0.35"/><polygon points="73.50,41.45 72.94,42.97 80.99,61.80" fill="rgb(109,96,161)" stroke="rgb(109,96,161)" stroke-width="0.35"/><polygon points="65.27,34.65 65.83,35.29 71.87,38.50" fill="rgb(126,111,187)" stroke="rgb(126,111,187)" stroke-width="0.35"/><polygon points="85.58,75.13 88.76,72.02 77.90,66.33" fill="rgb(135,119,200)" stroke="rgb(135,119,200)" stroke-width="0.35"/><polygon points="39.58,63.69 41.54,65.92 46.87,42.67" fill="rgb(139,122,206)" stroke="rgb(139,122,206)" stroke-width="0.35"/><polygon points="46.87,42.67 46.50,41.14 39.58,63.69" fill="rgb(135,119,200)" stroke="rgb(135,119,200)" stroke-width="0.35"/><polygon points="60.16,33.29 58.60,33.36 60.00,35.90" fill="rgb(148,130,219)" stroke="rgb(148,130,219)" stroke-width="0.35"/><polygon points="61.71,33.39 60.16,33.29 60.00,35.90" fill="rgb(148,130,219)" stroke="rgb(148,130,219)" stroke-width="0.35"/><polygon points="47.06,39.63 46.50,41.14 54.25,35.15" fill="rgb(146,128,216)" stroke="rgb(146,128,216)" stroke-width="0.35"/><polygon points="54.25,35.15 54.88,34.53 47.06,39.63" fill="rgb(142,125,211)" stroke="rgb(142,125,211)" stroke-width="0.35"/><polygon points="58.60,33.36 57.14,33.60 60.00,35.90" fill="rgb(148,130,219)" stroke="rgb(148,130,219)" stroke-width="0.35"/><polygon points="63.14,33.67 61.71,33.39 60.00,35.90" fill="rgb(148,130,219)" stroke="rgb(148,130,219)" stroke-width="0.35"/><polygon points="57.14,33.60 55.87,34.00 60.00,35.90" fill="rgb(148,130,219)" stroke="rgb(148,130,219)" stroke-width="0.35"/><polygon points="64.35,34.10 63.14,33.67 60.00,35.90" fill="rgb(148,130,219)" stroke="rgb(148,130,219)" stroke-width="0.35"/><polygon points="73.50,41.45 73.13,39.93 66.00,35.96" fill="rgb(128,113,191)" stroke="rgb(128,113,191)" stroke-width="0.35"/><polygon points="55.87,34.00 54.88,34.53 60.00,35.90" fill="rgb(148,130,219)" stroke="rgb(148,130,219)" stroke-width="0.35"/><polygon points="65.83,35.29 66.00,35.96 73.13,39.93" fill="rgb(128,113,191)" stroke="rgb(128,113,191)" stroke-width="0.35"/><polygon points="65.27,34.65 64.35,34.10 60.00,35.90" fill="rgb(148,130,219)" stroke="rgb(148,130,219)" stroke-width="0.35"/><polygon points="77.90,66.33 80.13,64.15 71.51,44.37" fill="rgb(115,101,170)" stroke="rgb(115,101,170)" stroke-width="0.35"/><polygon points="54.00,35.83 54.25,35.15 46.50,41.14" fill="rgb(146,128,216)" stroke="rgb(146,128,216)" stroke-width="0.35"/><polygon points="54.88,34.53 54.25,35.15 60.00,35.90" fill="rgb(148,130,219)" stroke="rgb(148,130,219)" stroke-width="0.35"/><polygon points="65.83,35.29 65.27,34.65 60.00,35.90" fill="rgb(148,130,219)" stroke="rgb(148,130,219)" stroke-width="0.35"/><polygon points="33.63,74.54 38.23,77.29 41.54,65.92" fill="rgb(153,135,227)" stroke="rgb(153,135,227)" stroke-width="0.35"/><polygon points="46.50,41.14 46.87,42.67 54.00,35.83" fill="rgb(149,131,221)" stroke="rgb(149,131,221)" stroke-width="0.35"/><polygon points="77.90,66.33 74.45,68.19 85.58,75.13" fill="rgb(139,123,206)" stroke="rgb(139,123,206)" stroke-width="0.35"/><polygon points="72.94,42.97 71.51,44.37 80.13,64.15" fill="rgb(115,101,170)" stroke="rgb(115,101,170)" stroke-width="0.35"/><polygon points="54.25,35.15 54.00,35.83 60.00,35.90" fill="rgb(148,130,219)" stroke="rgb(148,130,219)" stroke-width="0.35"/><polygon points="66.00,35.96 65.83,35.29 60.00,35.90" fill="rgb(148,130,219)" stroke="rgb(148,130,219)" stroke-width="0.35"/><polygon points="66.00,35.96 65.75,36.64 73.50,41.45" fill="rgb(132,116,195)" stroke="rgb(132,116,195)" stroke-width="0.35"/><polygon points="48.13,44.10 46.87,42.67 41.54,65.92" fill="rgb(139,122,206)" stroke="rgb(139,122,206)" stroke-width="0.35"/><polygon points="72.94,42.97 73.50,41.45 65.75,36.64" fill="rgb(132,116,195)" stroke="rgb(132,116,195)" stroke-width="0.35"/><polygon points="44.76,67.84 41.54,65.92 38.23,77.29" fill="rgb(153,135,227)" stroke="rgb(153,135,227)" stroke-width="0.35"/><polygon points="41.54,65.92 44.76,67.84 48.13,44.10" fill="rgb(141,125,210)" stroke="rgb(141,125,210)" stroke-width="0.35"/><polygon points="54.00,35.83 54.17,36.50 60.00,35.90" fill="rgb(148,130,219)" stroke="rgb(148,130,219)" stroke-width="0.35"/><polygon points="54.17,36.50 54.00,35.83 46.87,42.67" fill="rgb(149,131,221)" stroke="rgb(149,131,221)" stroke-width="0.35"/><polygon points="65.75,36.64 66.00,35.96 60.00,35.90" fill="rgb(148,130,219)" stroke="rgb(148,130,219)" stroke-width="0.35"/><polygon points="80.65,77.78 85.58,75.13 74.45,68.19" fill="rgb(139,123,206)" stroke="rgb(139,123,206)" stroke-width="0.35"/><polygon points="54.17,36.50 54.73,37.14 60.00,35.90" fill="rgb(148,130,219)" stroke="rgb(148,130,219)" stroke-width="0.35"/><polygon points="65.12,37.26 65.75,36.64 60.00,35.90" fill="rgb(148,130,219)" stroke="rgb(148,130,219)" stroke-width="0.35"/><polygon points="46.87,42.67 48.13,44.10 54.17,36.50" fill="rgb(152,134,225)" stroke="rgb(152,134,225)" stroke-width="0.35"/><polygon points="74.45,68.19 77.90,66.33 69.29,45.56" fill="rgb(121,106,179)" stroke="rgb(121,106,179)" stroke-width="0.35"/><polygon points="65.75,36.64 65.12,37.26 72.94,42.97" fill="rgb(135,119,201)" stroke="rgb(135,119,201)" stroke-width="0.35"/><polygon points="54.73,37.14 55.65,37.69 60.00,35.90" fill="rgb(148,130,219)" stroke="rgb(148,130,219)" stroke-width="0.35"/><polygon points="64.13,37.79 65.12,37.26 60.00,35.90" fill="rgb(148,130,219)" stroke="rgb(148,130,219)" stroke-width="0.35"/><polygon points="54.73,37.14 54.17,36.50 48.13,44.10" fill="rgb(152,134,225)" stroke="rgb(152,134,225)" stroke-width="0.35"/><polygon points="71.51,44.37 72.94,42.97 65.12,37.26" fill="rgb(135,119,201)" stroke="rgb(135,119,201)" stroke-width="0.35"/><polygon points="71.51,44.37 69.29,45.56 77.90,66.33" fill="rgb(121,106,179)" stroke="rgb(121,106,179)" stroke-width="0.35"/><polygon points="55.65,37.69 56.86,38.12 60.00,35.90" fill="rgb(148,130,219)" stroke="rgb(148,130,219)" stroke-width="0.35"/><polygon points="62.86,38.19 64.13,37.79 60.00,35.90" fill="rgb(148,130,219)" stroke="rgb(148,130,219)" stroke-width="0.35"/><polygon points="74.45,68.19 70.02,69.59 80.65,77.78" fill="rgb(143,126,212)" stroke="rgb(143,126,212)" stroke-width="0.35"/><polygon points="50.21,45.34 48.13,44.10 44.76,67.84" fill="rgb(141,125,210)" stroke="rgb(141,125,210)" stroke-width="0.35"/><polygon points="56.86,38.12 58.29,38.40 60.00,35.90" fill="rgb(148,130,219)" stroke="rgb(148,130,219)" stroke-width="0.35"/><polygon points="61.40,38.43 62.86,38.19 60.00,35.90" fill="rgb(148,130,219)" stroke="rgb(148,130,219)" stroke-width="0.35"/><polygon points="44.76,67.84 49.02,69.35 50.21,45.34" fill="rgb(143,126,212)" stroke="rgb(143,126,212)" stroke-width="0.35"/><polygon points="65.12,37.26 64.13,37.79 71.51,44.37" fill="rgb(139,123,207)" stroke="rgb(139,123,207)" stroke-width="0.35"/><polygon points="58.29,38.40 59.84,38.50 60.00,35.90" fill="rgb(148,130,219)" stroke="rgb(148,130,219)" stroke-width="0.35"/><polygon points="59.84,38.50 61.40,38.43 60.00,35.90" fill="rgb(148,130,219)" stroke="rgb(148,130,219)" stroke-width="0.35"/><polygon points="38.23,77.29 44.32,79.44 44.76,67.84" fill="rgb(154,136,228)" stroke="rgb(154,136,228)" stroke-width="0.35"/><polygon points="48.13,44.10 50.21,45.34 54.73,37.14" fill="rgb(153,135,228)" stroke="rgb(153,135,228)" stroke-width="0.35"/><polygon points="49.02,69.35 44.76,67.84 44.32,79.44" fill="rgb(154,136,228)" stroke="rgb(154,136,228)" stroke-width="0.35"/><polygon points="55.65,37.69 54.73,37.14 50.21,45.34" fill="rgb(153,135,228)" stroke="rgb(153,135,228)" stroke-width="0.35"/><polygon points="70.02,69.59 74.45,68.19 66.44,46.46" fill="rgb(127,112,188)" stroke="rgb(127,112,188)" stroke-width="0.35"/><polygon points="69.29,45.56 71.51,44.37 64.13,37.79" fill="rgb(139,123,207)" stroke="rgb(139,123,207)" stroke-width="0.35"/><polygon points="64.13,37.79 62.86,38.19 69.29,45.56" fill="rgb(143,126,213)" stroke="rgb(143,126,213)" stroke-width="0.35"/><polygon points="69.29,45.56 66.44,46.46 74.45,68.19" fill="rgb(127,112,188)" stroke="rgb(127,112,188)" stroke-width="0.35"/><polygon points="56.86,38.12 55.65,37.69 52.94,46.30" fill="rgb(154,136,229)" stroke="rgb(154,136,229)" stroke-width="0.35"/><polygon points="74.31,79.78 80.65,77.78 70.02,69.59" fill="rgb(143,126,212)" stroke="rgb(143,126,212)" stroke-width="0.35"/><polygon points="49.02,69.35 54.03,70.32 52.94,46.30" fill="rgb(142,125,211)" stroke="rgb(142,125,211)" stroke-width="0.35"/><polygon points="50.21,45.34 52.94,46.30 55.65,37.69" fill="rgb(154,136,229)" stroke="rgb(154,136,229)" stroke-width="0.35"/><polygon points="52.94,46.30 50.21,45.34 49.02,69.35" fill="rgb(143,126,212)" stroke="rgb(143,126,212)" stroke-width="0.35"/><polygon points="62.86,38.19 61.40,38.43 66.44,46.46" fill="rgb(147,130,218)" stroke="rgb(147,130,218)" stroke-width="0.35"/><polygon points="70.02,69.59 64.90,70.44 74.31,79.78" fill="rgb(147,129,218)" stroke="rgb(147,129,218)" stroke-width="0.35"/><polygon points="58.29,38.40 56.86,38.12 56.16,46.93" fill="rgb(154,136,228)" stroke="rgb(154,136,228)" stroke-width="0.35"/><polygon points="66.44,46.46 69.29,45.56 62.86,38.19" fill="rgb(143,126,213)" stroke="rgb(143,126,213)" stroke-width="0.35"/><polygon points="64.90,70.44 70.02,69.59 63.15,47.01" fill="rgb(132,116,196)" stroke="rgb(132,116,196)" stroke-width="0.35"/><polygon points="54.03,70.32 49.02,69.35 51.47,80.82" fill="rgb(154,135,228)" stroke="rgb(154,135,228)" stroke-width="0.35"/><polygon points="61.40,38.43 59.84,38.50 63.15,47.01" fill="rgb(150,132,223)" stroke="rgb(150,132,223)" stroke-width="0.35"/><polygon points="59.84,38.50 58.29,38.40 59.64,47.17" fill="rgb(152,134,226)" stroke="rgb(152,134,226)" stroke-width="0.35"/><polygon points="54.03,70.32 59.45,70.69 56.16,46.93" fill="rgb(140,124,208)" stroke="rgb(140,124,208)" stroke-width="0.35"/><polygon points="44.32,79.44 51.47,80.82 49.02,69.35" fill="rgb(154,135,228)" stroke="rgb(154,135,228)" stroke-width="0.35"/><polygon points="52.94,46.30 56.16,46.93 56.86,38.12" fill="rgb(154,136,228)" stroke="rgb(154,136,228)" stroke-width="0.35"/><polygon points="66.44,46.46 63.15,47.01 70.02,69.59" fill="rgb(132,116,196)" stroke="rgb(132,116,196)" stroke-width="0.35"/><polygon points="59.45,70.69 64.90,70.44 59.64,47.17" fill="rgb(137,121,203)" stroke="rgb(137,121,203)" stroke-width="0.35"/><polygon points="56.16,46.93 52.94,46.30 54.03,70.32" fill="rgb(142,125,211)" stroke="rgb(142,125,211)" stroke-width="0.35"/><polygon points="63.15,47.01 66.44,46.46 61.40,38.43" fill="rgb(147,130,218)" stroke="rgb(147,130,218)" stroke-width="0.35"/><polygon points="64.90,70.44 59.45,70.69 67.00,81.00" fill="rgb(150,132,222)" stroke="rgb(150,132,222)" stroke-width="0.35"/><polygon points="59.45,70.69 54.03,70.32 59.21,81.36" fill="rgb(152,134,226)" stroke="rgb(152,134,226)" stroke-width="0.35"/><polygon points="56.16,46.93 59.64,47.17 58.29,38.40" fill="rgb(152,134,226)" stroke="rgb(152,134,226)" stroke-width="0.35"/><polygon points="59.64,47.17 63.15,47.01 59.84,38.50" fill="rgb(150,132,223)" stroke="rgb(150,132,223)" stroke-width="0.35"/><polygon points="67.00,81.00 74.31,79.78 64.90,70.44" fill="rgb(147,129,218)" stroke="rgb(147,129,218)" stroke-width="0.35"/><polygon points="63.15,47.01 59.64,47.17 64.90,70.44" fill="rgb(137,121,203)" stroke="rgb(137,121,203)" stroke-width="0.35"/><polygon points="59.64,47.17 56.16,46.93 59.45,70.69" fill="rgb(140,124,208)" stroke="rgb(140,124,208)" stroke-width="0.35"/><polygon points="51.47,80.82 59.21,81.36 54.03,70.32" fill="rgb(152,134,226)" stroke="rgb(152,134,226)" stroke-width="0.35"/><polygon points="59.21,81.36 67.00,81.00 59.45,70.69" fill="rgb(150,132,222)" stroke="rgb(150,132,222)" stroke-width="0.35"/></svg>