<svg xmlns="http://www.w3.org/2000/svg" viewBox="0 0 120 90"><polygon points="54.47,46.04 54.47,8.22 45.07,52.71" fill="rgb(106,94,158)" stroke="rgb(106,94,158)" stroke-width="0.35"/><polygon points="45.07,52.71 45.07,14.89 29.72,64.83" fill="rgb(131,115,194)" stroke="rgb(131,115,194)" stroke-width="0.35"/><polygon points="29.72,64.83 80.87,62.26 45.07,52.71" fill="rgb(131,115,194)" stroke="rgb(131,115,194)" stroke-width="0.35"/><polygon points="54.47,46.04 45.07,52.71 80.87,62.26" fill="rgb(148,130,219)" stroke="rgb(148,130,219)" stroke-width="0.35"/><polygon points="45.07,14.89 29.72,10.80 29.72,64.83" fill="rgb(131,115,194)" stroke="rgb(131,115,194)" stroke-width="0.35"/><polygon points="90.28,55.59 54.47,46.04 80.87,62.26" fill="rgb(148,130,219)" stroke="rgb(148,130,219)" stroke-width="0.35"/><polygon points="29.72,64.83 80.87,78.47 80.87,62.26" fill="rgb(131,115,194)" stroke="rgb(131,115,194)" stroke-width="0.35"/><polygon points="90.28,71.80 90.28,55.59 80.87,78.47" fill="rgb(106,94,158)" stroke="rgb(106,94,158)" stroke-width="0.35"/><polygon points="54.47,8.22 39.13,4.13 45.07,14.89" fill="rgb(148,130,219)" stroke="rgb(148,130,219)" stroke-width="0.35"/><polygon points="54.47,8.22 45.07,14.89 45.07,52.71" fill="rgb(106,94,158)" stroke="rgb(106,94,158)" stroke-width="0.35"/><polygon points="39.13,4.13 29.72,10.80 45.07,14.89" fill="rgb(148,130,219)" stroke="rgb(148,130,219)" stroke-width="0.35"/><polygon points="90.28,55.59 80.87,62.26 80.87,78.47" fill="rgb(106,94,158)" stroke="rgb(106,94,158)" stroke-width="0.35"/></svg>