<svg xmlns="http://www.w3.org/2000/svg" viewBox="0 0 120 90"><polygon points="72.38,67.02 72.38,29.20 62.97,73.70" fill="rgb(106,94,158)" stroke="rgb(106,94,158)" stroke-width="0.35"/><polygon points="47.62,31.78 47.62,69.60 62.97,73.70" fill="rgb(131,115,194)" stroke="rgb(131,115,194)" stroke-width="0.35"/><polygon points="29.72,10.80 29.72,27.01 47.62,31.78" fill="rgb(131,115,194)" stroke="rgb(131,115,194)" stroke-width="0.35"/><polygon points="72.38,29.20 62.97,35.88 62.97,73.70" fill="rgb(106,94,158)" stroke="rgb(106,94,158)" stroke-width="0.35"/><polygon points="47.62,31.78 62.97,73.70 62.97,35.88" fill="rgb(131,115,194)" stroke="rgb(131,115,194)" stroke-width="0.35"/><polygon points="62.97,35.88 29.72,10.80 47.62,31.78" fill="rgb(131,115,194)" stroke="rgb(131,115,194)" stroke-width="0.35"/><polygon points="39.13,4.13 29.72,10.80 80.87,24.44" fill="rgb(148,130,219)" stroke="rgb(148,130,219)" stroke-width="0.35"/><polygon points="90.28,17.77 39.13,4.13 80.87,24.44" fill="rgb(148,130,219)" stroke="rgb(148,130,219)" stroke-width="0.35"/><polygon points="62.97,35.88 80.87,40.65 29.72,10.80" fill="rgb(131,115,194)" stroke="rgb(131,115,194)" stroke-width="0.35"/><polygon points="90.28,33.98 90.28,17.77 80.87,40.65" fill="rgb(106,94,158)" stroke="rgb(106,94,158)" stroke-width="0.35"/><polygon points="80.87,40.65 80.87,24.44 29.72,10.80" fill="rgb(131,115,194)" stroke="rgb(131,115,194)" stroke-width="0.35"/><polygon points="90.28,17.77 80.87,24.44 80.87,40.65" fill="rgb(106,94,158)" stroke="rgb(106,94,158)" stroke-width="0.35"/></svg>