<svg xmlns="http://www.w3.org/2000/svg" viewBox="0 0 120 90"><polygon points="72.38,67.02 72.38,48.11 62.97,73.70" fill="rgb(106,94,158)" stroke="rgb(106,94,158)" stroke-width="0.35"/><polygon points="57.03,27.81 39.13,23.04 47.62,34.49" fill="rgb(148,130,219)" stroke="rgb(148,130,219)" stroke-width="0.35"/><polygon points="39.13,23.04 29.72,29.71 47.62,34.49" fill="rgb(148,130,219)" stroke="rgb(148,130,219)" stroke-width="0.35"/><polygon points="47.62,50.69 47.62,69.60 62.97,73.70" fill="rgb(131,115,194)" stroke="rgb(131,115,194)" stroke-width="0.35"/><polygon points="47.62,34.49 29.72,29.71 29.72,45.92" fill="rgb(131,115,194)" stroke="rgb(131,115,194)" stroke-width="0.35"/><polygon points="47.62,34.49 29.72,45.92 47.62,50.69" fill="rgb(131,115,194)" stroke="rgb(131,115,194)" stroke-width="0.35"/><polygon points="72.38,48.11 62.97,54.79 62.97,73.70" fill="rgb(106,94,158)" stroke="rgb(106,94,158)" stroke-width="0.35"/><polygon points="47.62,50.69 62.97,73.70 62.97,54.79" fill="rgb(131,115,194)" stroke="rgb(131,115,194)" stroke-width="0.35"/><polygon points="62.97,38.58 47.62,34.49 47.62,50.69" fill="rgb(131,115,194)" stroke="rgb(131,115,194)" stroke-width="0.35"/><polygon points="47.62,50.69 62.97,54.79 62.97,38.58" fill="rgb(131,115,194)" stroke="rgb(131,115,194)" stroke-width="0.35"/><polygon points="72.38,31.90 72.38,12.99 62.97,38.58" fill="rgb(106,94,158)" stroke="rgb(106,94,158)" stroke-width="0.35"/><polygon points="90.28,52.89 90.28,36.68 80.87,59.56" fill="rgb(106,94,158)" stroke="rgb(106,94,158)" stroke-width="0.35"/><polygon points="72.38,12.99 57.03,8.90 62.97,19.67" fill="rgb(148,130,219)" stroke="rgb(148,130,219)" stroke-width="0.35"/><polygon points="90.28,36.68 72.38,31.90 80.87,43.35" fill="rgb(148,130,219)" stroke="rgb(148,130,219)" stroke-width="0.35"/><polygon points="62.97,38.58 47.62,15.58 47.62,34.49" fill="rgb(131,115,194)" stroke="rgb(131,115,194)" stroke-width="0.35"/><polygon points="72.38,31.90 62.97,38.58 80.87,43.35" fill="rgb(148,130,219)" stroke="rgb(148,130,219)" stroke-width="0.35"/><polygon points="57.03,8.90 47.62,15.58 62.97,19.67" fill="rgb(148,130,219)" stroke="rgb(148,130,219)" stroke-width="0.35"/><polygon points="62.97,54.79 80.87,43.35 62.97,38.58" fill="rgb(131,115,194)" stroke="rgb(131,115,194)" stroke-width="0.35"/><polygon points="62.97,54.79 80.87,59.56 80.87,43.35" fill="rgb(131,115,194)" stroke="rgb(131,115,194)" stroke-width="0.35"/><polygon points="72.38,12.99 62.97,19.67 62.97,38.58" fill="rgb(106,94,158)" stroke="rgb(106,94,158)" stroke-width="0.35"/><polygon points="90.28,36.68 80.87,43.35 80.87,59.56" fill="rgb(106,94,158)" stroke="rgb(106,94,158)" stroke-width="0.35"/><polygon points="62.97,38.58 62.97,19.67 47.62,15.58" fill="rgb(131,115,194)" stroke="rgb(131,115,194)" stroke-width="0.35"/></svg>