o shape_004
v 0 2 0
v 0 2 0
v 0 2 0
v 0 2 0
v 0 2 0
v 0 2 0
v 0 2 0
v 0 2 0
v 0 2 0
v 0 2 0
v 0 2 0
v 0 2 0
v 0 2 0
v 0 2 0
v 0 2 0
v 0 2 0
v 0 2 0
v 0 2 0
v 0 2 0
v 0 2 0
v 0 2 0
v 0 2 0
v 0 2 0
v 0 2 0
v 0 2 0
v -0.19509032368659973 1.9807852506637573 0
v -0.18844278156757355 1.9807852506637573 0.050493091344833374
v -0.16895318031311035 1.9807852506637573 0.09754516184329987
v -0.13794969022274017 1.9807852506637573 0.13794969022274017
v -0.09754516184329987 1.9807852506637573 0.16895318031311035
v -0.050493091344833374 1.9807852506637573 0.18844278156757355
v -1.1945837176844794e-17 1.9807852506637573 0.19509032368659973
v 0.050493091344833374 1.9807852506637573 0.18844278156757355
v 0.09754516184329987 1.9807852506637573 0.16895318031311035
v 0.13794969022274017 1.9807852506637573 0.13794969022274017
v 0.16895318031311035 1.9807852506637573 0.09754516184329987
v 0.18844278156757355 1.9807852506637573 0.050493091344833374
v 0.19509032368659973 1.9807852506637573 2.3891674353689587e-17
v 0.18844278156757355 1.9807852506637573 -0.050493091344833374
v 0.16895318031311035 1.9807852506637573 -0.09754516184329987
v 0.13794969022274017 1.9807852506637573 -0.13794969022274017
v 0.09754516184329987 1.9807852506637573 -0.16895318031311035
v 0.050493091344833374 1.9807852506637573 -0.18844278156757355
v 3.583751070335377e-17 1.9807852506637573 -0.19509032368659973
v -0.050493091344833374 1.9807852506637573 -0.18844278156757355
v -0.09754516184329987 1.9807852506637573 -0.16895318031311035
v -0.13794969022274017 1.9807852506637573 -0.13794969022274017
v -0.16895318031311035 1.9807852506637573 -0.09754516184329987
v -0.18844278156757355 1.9807852506637573 -0.050493091344833374
v -0.19509032368659973 1.9807852506637573 -4.7783348707379174e-17
v -0.3826834261417389 1.9238795042037964 0
v -0.36964380741119385 1.9238795042037964 0.0990457609295845
v -0.3314135670661926 1.9238795042037964 0.19134171307086945
v -0.27059805393218994 1.9238795042037964 0.27059805393218994
v -0.19134171307086945 1.9238795042037964 0.3314135670661926
v -0.0990457609295845 1.9238795042037964 0.36964380741119385
v -2.3432602348612458e-17 1.9238795042037964 0.3826834261417389
v 0.0990457609295845 1.9238795042037964 0.36964380741119385
v 0.19134171307086945 1.9238795042037964 0.3314135670661926
v 0.27059805393218994 1.9238795042037964 0.27059805393218994
v 0.3314135670661926 1.9238795042037964 0.19134171307086945
v 0.36964380741119385 1.9238795042037964 0.0990457609295845
v 0.3826834261417389 1.9238795042037964 4.6865204697224915e-17
v 0.36964380741119385 1.9238795042037964 -0.0990457609295845
v 0.3314135670661926 1.9238795042037964 -0.19134171307086945
v 0.27059805393218994 1.9238795042037964 -0.27059805393218994
v 0.19134171307086945 1.9238795042037964 -0.3314135670661926
v 0.0990457609295845 1.9238795042037964 -0.36964380741119385
v 7.029780539147615e-17 1.9238795042037964 -0.3826834261417389
v -0.0990457609295845 1.9238795042037964 -0.36964380741119385
v -0.19134171307086945 1.9238795042037964 -0.3314135670661926
v -0.27059805393218994 1.9238795042037964 -0.27059805393218994
v -0.3314135670661926 1.9238795042037964 -0.19134171307086945
v -0.36964380741119385 1.9238795042037964 -0.0990457609295845
v -0.3826834261417389 1.9238795042037964 -9.373040939444983e-17
v -0.5555702447891235 1.8314695358276367 0
v -0.5366396307945251 1.8314695358276367 0.14379215240478516
v -0.4811379313468933 1.8314695358276367 0.27778512239456177
v -0.39284747838974 1.8314695358276367 0.39284747838974
v -0.27778512239456177 1.8314695358276367 0.4811379313468933
v -0.14379215240478516 1.8314695358276367 0.5366396307945251
v -3.401886479114978e-17 1.8314695358276367 0.5555702447891235
v 0.14379215240478516 1.8314695358276367 0.5366396307945251
v 0.27778512239456177 1.8314695358276367 0.4811379313468933
v 0.39284747838974 1.8314695358276367 0.39284747838974
v 0.4811379313468933 1.8314695358276367 0.27778512239456177
v 0.5366396307945251 1.8314695358276367 0.14379215240478516
v 0.5555702447891235 1.8314695358276367 6.803772958229956e-17
v 0.5366396307945251 1.8314695358276367 -0.14379215240478516
v 0.4811379313468933 1.8314695358276367 -0.27778512239456177
v 0.39284747838974 1.8314695358276367 -0.39284747838974
v 0.27778512239456177 1.8314695358276367 -0.4811379313468933
v 0.14379215240478516 1.8314695358276367 -0.5366396307945251
v 1.020565976821718e-16 1.8314695358276367 -0.5555702447891235
v -0.14379215240478516 1.8314695358276367 -0.5366396307945251
v -0.27778512239456177 1.8314695358276367 -0.4811379313468933
v -0.39284747838974 1.8314695358276367 -0.39284747838974
v -0.4811379313468933 1.8314695358276367 -0.27778512239456177
v -0.5366396307945251 1.8314695358276367 -0.14379215240478516
v -0.5555702447891235 1.8314695358276367 -1.3607545916459912e-16
v -0.7071067690849304 1.7071068286895752 0
v -0.6830127239227295 1.7071068286895752 0.1830127090215683
v -0.6123724579811096 1.7071068286895752 0.3535533845424652
v -0.5 1.7071068286895752 0.5
v -0.3535533845424652 1.7071068286895752 0.6123724579811096
v -0.1830127090215683 1.7071068286895752 0.6830127239227295
v -4.329780301713277e-17 1.7071068286895752 0.7071067690849304
v 0.1830127090215683 1.7071068286895752 0.6830127239227295
v 0.3535533845424652 1.7071068286895752 0.6123724579811096
v 0.5 1.7071068286895752 0.5
v 0.6123724579811096 1.7071068286895752 0.3535533845424652
v 0.6830127239227295 1.7071068286895752 0.1830127090215683
v 0.7071067690849304 1.7071068286895752 8.659560603426554e-17
v 0.6830127239227295 1.7071068286895752 -0.1830127090215683
v 0.6123724579811096 1.7071068286895752 -0.3535533845424652
v 0.5 1.7071068286895752 -0.5
v 0.3535533845424652 1.7071068286895752 -0.6123724579811096
v 0.1830127090215683 1.7071068286895752 -0.6830127239227295
v 1.2989340243395341e-16 1.7071068286895752 -0.7071067690849304
v -0.1830127090215683 1.7071068286895752 -0.6830127239227295
v -0.3535533845424652 1.7071068286895752 -0.6123724579811096
v -0.5 1.7071068286895752 -0.5
v -0.6123724579811096 1.7071068286895752 -0.3535533845424652
v -0.6830127239227295 1.7071068286895752 -0.1830127090215683
v -0.7071067690849304 1.7071068286895752 -1.7319121206853109e-16
v -0.8314695954322815 1.5555702447891235 0
v -0.8031379580497742 1.5555702447891235 0.21520017087459564
v -0.7200738191604614 1.5555702447891235 0.41573479771614075
v -0.5879377722740173 1.5555702447891235 0.5879377722740173
v -0.41573479771614075 1.5555702447891235 0.7200738191604614
v -0.21520017087459564 1.5555702447891235 0.8031379580497742
v -5.0912831045018395e-17 1.5555702447891235 0.8314695954322815
v 0.21520017087459564 1.5555702447891235 0.8031379580497742
v 0.41573479771614075 1.5555702447891235 0.7200738191604614
v 0.5879377722740173 1.5555702447891235 0.5879377722740173
v 0.7200738191604614 1.5555702447891235 0.41573479771614075
v 0.8031379580497742 1.5555702447891235 0.21520017087459564
v 0.8314695954322815 1.5555702447891235 1.0182566209003679e-16
v 0.8031379580497742 1.5555702447891235 -0.21520017087459564
v 0.7200738191604614 1.5555702447891235 -0.41573479771614075
v 0.5879377722740173 1.5555702447891235 -0.5879377722740173
v 0.41573479771614075 1.5555702447891235 -0.7200738191604614
v 0.21520017087459564 1.5555702447891235 -0.8031379580497742
v 1.5273848982633273e-16 1.5555702447891235 -0.8314695954322815
v -0.21520017087459564 1.5555702447891235 -0.8031379580497742
v -0.41573479771614075 1.5555702447891235 -0.7200738191604614
v -0.5879377722740173 1.5555702447891235 -0.5879377722740173
v -0.7200738191604614 1.5555702447891235 -0.41573479771614075
v -0.8031379580497742 1.5555702447891235 -0.21520017087459564
v -0.8314695954322815 1.5555702447891235 -2.0365132418007358e-16
v -0.9238795042037964 1.3826833963394165 0
v -0.8923990726470947 1.3826833963394165 0.23911762237548828
v -0.8001031279563904 1.3826833963394165 0.4619397521018982
v -0.6532815098762512 1.3826833963394165 0.6532815098762512
v -0.4619397521018982 1.3826833963394165 0.8001031279563904
v -0.23911762237548828 1.3826833963394165 0.8923990726470947
v -5.657130560897519e-17 1.3826833963394165 0.9238795042037964
v 0.23911762237548828 1.3826833963394165 0.8923990726470947
v 0.4619397521018982 1.3826833963394165 0.8001031279563904
v 0.6532815098762512 1.3826833963394165 0.6532815098762512
v 0.8001031279563904 1.3826833963394165 0.4619397521018982
v 0.8923990726470947 1.3826833963394165 0.23911762237548828
v 0.9238795042037964 1.3826833963394165 1.1314261121795038e-16
v 0.8923990726470947 1.3826833963394165 -0.23911762237548828
v 0.8001031279563904 1.3826833963394165 -0.4619397521018982
v 0.6532815098762512 1.3826833963394165 -0.6532815098762512
v 0.4619397521018982 1.3826833963394165 -0.8001031279563904
v 0.23911762237548828 1.3826833963394165 -0.8923990726470947
v 1.6971391682692557e-16 1.3826833963394165 -0.9238795042037964
v -0.23911762237548828 1.3826833963394165 -0.8923990726470947
v -0.4619397521018982 1.3826833963394165 -0.8001031279563904
v -0.6532815098762512 1.3826833963394165 -0.6532815098762512
v -0.8001031279563904 1.3826833963394165 -0.4619397521018982
v -0.8923990726470947 1.3826833963394165 -0.23911762237548828
v -0.9238795042037964 1.3826833963394165 -2.2628522243590076e-16
v -0.9807852506637573 1.1950902938842773 0
v -0.9473658204078674 1.1950902938842773 0.2538459002971649
v -0.8493849635124207 1.1950902938842773 0.49039262533187866
v -0.6935199499130249 1.1950902938842773 0.6935199499130249
v -0.49039262533187866 1.1950902938842773 0.8493849635124207
v -0.2538459002971649 1.1950902938842773 0.9473658204078674
v -6.005578077829767e-17 1.1950902938842773 0.9807852506637573
v 0.2538459002971649 1.1950902938842773 0.9473658204078674
v 0.49039262533187866 1.1950902938842773 0.8493849635124207
v 0.6935199499130249 1.1950902938842773 0.6935199499130249
v 0.8493849635124207 1.1950902938842773 0.49039262533187866
v 0.9473658204078674 1.1950902938842773 0.2538459002971649
v 0.9807852506637573 1.1950902938842773 1.2011156155659533e-16
v 0.9473658204078674 1.1950902938842773 -0.2538459002971649
v 0.8493849635124207 1.1950902938842773 -0.49039262533187866
v 0.6935199499130249 1.1950902938842773 -0.6935199499130249
v 0.49039262533187866 1.1950902938842773 -0.8493849635124207
v 0.2538459002971649 1.1950902938842773 -0.9473658204078674
v 1.801673357174481e-16 1.1950902938842773 -0.9807852506637573
v -0.2538459002971649 1.1950902938842773 -0.9473658204078674
v -0.49039262533187866 1.1950902938842773 -0.8493849635124207
v -0.6935199499130249 1.1950902938842773 -0.6935199499130249
v -0.8493849635124207 1.1950902938842773 -0.49039262533187866
v -0.9473658204078674 1.1950902938842773 -0.2538459002971649
v -0.9807852506637573 1.1950902938842773 -2.4022312311319067e-16
v -1 1 0
v -0.9659258127212524 1 0.258819043636322
v -0.8660253882408142 1 0.5
v -0.7071067690849304 1 0.7071067690849304
v -0.5 1 0.8660253882408142
v -0.258819043636322 1 0.9659258127212524
v -6.123234262925839e-17 1 1
v 0.258819043636322 1 0.9659258127212524
v 0.5 1 0.8660253882408142
v 0.7071067690849304 1 0.7071067690849304
v 0.8660253882408142 1 0.5
v 0.9659258127212524 1 0.258819043636322
v 1 1 1.2246468525851679e-16
v 0.9659258127212524 1 -0.258819043636322
v 0.8660253882408142 1 -0.5
v 0.7071067690849304 1 -0.7071067690849304
v 0.5 1 -0.8660253882408142
v 0.258819043636322 1 -0.9659258127212524
v 1.8369701465288538e-16 1 -1
v -0.258819043636322 1 -0.9659258127212524
v -0.5 1 -0.8660253882408142
v -0.7071067690849304 1 -0.7071067690849304
v -0.8660253882408142 1 -0.5
v -0.9659258127212524 1 -0.258819043636322
v -1 1 -2.4492937051703357e-16
v -0.9807852506637573 0.8049097061157227 0
v -0.9473658204078674 0.8049097061157227 0.2538459002971649
v -0.8493849635124207 0.8049097061157227 0.49039262533187866
v -0.6935199499130249 0.8049097061157227 0.6935199499130249
v -0.49039262533187866 0.8049097061157227 0.8493849635124207
v -0.2538459002971649 0.8049097061157227 0.9473658204078674
v -6.005578077829767e-17 0.8049097061157227 0.9807852506637573
v 0.2538459002971649 0.8049097061157227 0.9473658204078674
v 0.49039262533187866 0.8049097061157227 0.8493849635124207
v 0.6935199499130249 0.8049097061157227 0.6935199499130249
v 0.8493849635124207 0.8049097061157227 0.49039262533187866
v 0.9473658204078674 0.8049097061157227 0.2538459002971649
v 0.9807852506637573 0.8049097061157227 1.2011156155659533e-16
v 0.9473658204078674 0.8049097061157227 -0.2538459002971649
v 0.8493849635124207 0.8049097061157227 -0.49039262533187866
v 0.6935199499130249 0.8049097061157227 -0.6935199499130249
v 0.49039262533187866 0.8049097061157227 -0.8493849635124207
v 0.2538459002971649 0.8049097061157227 -0.9473658204078674
v 1.801673357174481e-16 0.8049097061157227 -0.9807852506637573
v -0.2538459002971649 0.8049097061157227 -0.9473658204078674
v -0.49039262533187866 0.8049097061157227 -0.8493849635124207
v -0.6935199499130249 0.8049097061157227 -0.6935199499130249
v -0.8493849635124207 0.8049097061157227 -0.49039262533187866
v -0.9473658204078674 0.8049097061157227 -0.2538459002971649
v -0.9807852506637573 0.8049097061157227 -2.4022312311319067e-16
v -0.9238795042037964 0.6173166036605835 0
v -0.8923990726470947 0.6173166036605835 0.23911762237548828
v -0.8001031279563904 0.6173166036605835 0.4619397521018982
v -0.6532815098762512 0.6173166036605835 0.6532815098762512
v -0.4619397521018982 0.6173166036605835 0.8001031279563904
v -0.23911762237548828 0.6173166036605835 0.8923990726470947
v -5.657130560897519e-17 0.6173166036605835 0.9238795042037964
v 0.23911762237548828 0.6173166036605835 0.8923990726470947
v 0.4619397521018982 0.6173166036605835 0.8001031279563904
v 0.6532815098762512 0.6173166036605835 0.6532815098762512
v 0.8001031279563904 0.6173166036605835 0.4619397521018982
v 0.8923990726470947 0.6173166036605835 0.23911762237548828
v 0.9238795042037964 0.6173166036605835 1.1314261121795038e-16
v 0.8923990726470947 0.6173166036605835 -0.23911762237548828
v 0.8001031279563904 0.6173166036605835 -0.4619397521018982
v 0.6532815098762512 0.6173166036605835 -0.6532815098762512
v 0.4619397521018982 0.6173166036605835 -0.8001031279563904
v 0.23911762237548828 0.6173166036605835 -0.8923990726470947
v 1.6971391682692557e-16 0.6173166036605835 -0.9238795042037964
v -0.23911762237548828 0.6173166036605835 -0.8923990726470947
v -0.4619397521018982 0.6173166036605835 -0.8001031279563904
v -0.6532815098762512 0.6173166036605835 -0.6532815098762512
v -0.8001031279563904 0.6173166036605835 -0.4619397521018982
v -0.8923990726470947 0.6173166036605835 -0.23911762237548828
v -0.9238795042037964 0.6173166036605835 -2.2628522243590076e-16
v -0.8314695954322815 0.44442975521087646 0
v -0.8031379580497742 0.44442975521087646 0.21520017087459564
v -0.7200738191604614 0.44442975521087646 0.41573479771614075
v -0.5879377722740173 0.44442975521087646 0.5879377722740173
v -0.41573479771614075 0.44442975521087646 0.7200738191604614
v -0.21520017087459564 0.44442975521087646 0.8031379580497742
v -5.0912831045018395e-17 0.44442975521087646 0.8314695954322815
v 0.21520017087459564 0.44442975521087646 0.8031379580497742
v 0.41573479771614075 0.44442975521087646 0.7200738191604614
v 0.5879377722740173 0.44442975521087646 0.5879377722740173
v 0.7200738191604614 0.44442975521087646 0.41573479771614075
v 0.8031379580497742 0.44442975521087646 0.21520017087459564
v 0.8314695954322815 0.44442975521087646 1.0182566209003679e-16
v 0.8031379580497742 0.44442975521087646 -0.21520017087459564
v 0.7200738191604614 0.44442975521087646 -0.41573479771614075
v 0.5879377722740173 0.44442975521087646 -0.5879377722740173
v 0.41573479771614075 0.44442975521087646 -0.7200738191604614
v 0.21520017087459564 0.44442975521087646 -0.8031379580497742
v 1.5273848982633273e-16 0.44442975521087646 -0.8314695954322815
v -0.21520017087459564 0.44442975521087646 -0.8031379580497742
v -0.41573479771614075 0.44442975521087646 -0.7200738191604614
v -0.5879377722740173 0.44442975521087646 -0.5879377722740173
v -0.7200738191604614 0.44442975521087646 -0.41573479771614075
v -0.8031379580497742 0.44442975521087646 -0.21520017087459564
v -0.8314695954322815 0.44442975521087646 -2.0365132418007358e-16
v -0.7071067690849304 0.2928932309150696 0
v -0.6830127239227295 0.2928932309150696 0.1830127090215683
v -0.6123724579811096 0.2928932309150696 0.3535533845424652
v -0.5 0.2928932309150696 0.5
v -0.3535533845424652 0.2928932309150696 0.6123724579811096
v -0.1830127090215683 0.2928932309150696 0.6830127239227295
v -4.329780301713277e-17 0.2928932309150696 0.7071067690849304
v 0.1830127090215683 0.2928932309150696 0.6830127239227295
v 0.3535533845424652 0.2928932309150696 0.6123724579811096
v 0.5 0.2928932309150696 0.5
v 0.6123724579811096 0.2928932309150696 0.3535533845424652
v 0.6830127239227295 0.2928932309150696 0.1830127090215683
v 0.7071067690849304 0.2928932309150696 8.659560603426554e-17
v 0.6830127239227295 0.2928932309150696 -0.1830127090215683
v 0.6123724579811096 0.2928932309150696 -0.3535533845424652
v 0.5 0.2928932309150696 -0.5
v 0.3535533845424652 0.2928932309150696 -0.6123724579811096
v 0.1830127090215683 0.2928932309150696 -0.6830127239227295
v 1.2989340243395341e-16 0.2928932309150696 -0.7071067690849304
v -0.1830127090215683 0.2928932309150696 -0.6830127239227295
v -0.3535533845424652 0.2928932309150696 -0.6123724579811096
v -0.5 0.2928932309150696 -0.5
v -0.6123724579811096 0.2928932309150696 -0.3535533845424652
v -0.6830127239227295 0.2928932309150696 -0.1830127090215683
v -0.7071067690849304 0.2928932309150696 -1.7319121206853109e-16
v -0.5555702447891235 0.1685304045677185 0
v -0.5366396307945251 0.1685304045677185 0.14379215240478516
v -0.4811379313468933 0.1685304045677185 0.27778512239456177
v -0.39284747838974 0.1685304045677185 0.39284747838974
v -0.27778512239456177 0.1685304045677185 0.4811379313468933
v -0.14379215240478516 0.1685304045677185 0.5366396307945251
v -3.401886479114978e-17 0.1685304045677185 0.5555702447891235
v 0.14379215240478516 0.1685304045677185 0.5366396307945251
v 0.27778512239456177 0.1685304045677185 0.4811379313468933
v 0.39284747838974 0.1685304045677185 0.39284747838974
v 0.4811379313468933 0.1685304045677185 0.27778512239456177
v 0.5366396307945251 0.1685304045677185 0.14379215240478516
v 0.5555702447891235 0.1685304045677185 6.803772958229956e-17
v 0.5366396307945251 0.1685304045677185 -0.14379215240478516
v 0.4811379313468933 0.1685304045677185 -0.27778512239456177
v 0.39284747838974 0.1685304045677185 -0.39284747838974
v 0.27778512239456177 0.1685304045677185 -0.4811379313468933
v 0.14379215240478516 0.1685304045677185 -0.5366396307945251
v 1.020565976821718e-16 0.1685304045677185 -0.5555702447891235
v -0.14379215240478516 0.1685304045677185 -0.5366396307945251
v -0.27778512239456177 0.1685304045677185 -0.4811379313468933
v -0.39284747838974 0.1685304045677185 -0.39284747838974
v -0.4811379313468933 0.1685304045677185 -0.27778512239456177
v -0.5366396307945251 0.1685304045677185 -0.14379215240478516
v -0.5555702447891235 0.1685304045677185 -1.3607545916459912e-16
v -0.3826834261417389 0.07612049579620361 0
v -0.36964380741119385 0.07612049579620361 0.0990457609295845
v -0.3314135670661926 0.07612049579620361 0.19134171307086945
v -0.27059805393218994 0.07612049579620361 0.27059805393218994
v -0.19134171307086945 0.07612049579620361 0.3314135670661926
v -0.0990457609295845 0.07612049579620361 0.36964380741119385
v -2.3432602348612458e-17 0.07612049579620361 0.3826834261417389
v 0.0990457609295845 0.07612049579620361 0.36964380741119385
v 0.19134171307086945 0.07612049579620361 0.3314135670661926
v 0.27059805393218994 0.07612049579620361 0.27059805393218994
v 0.3314135670661926 0.07612049579620361 0.19134171307086945
v 0.36964380741119385 0.07612049579620361 0.0990457609295845
v 0.3826834261417389 0.07612049579620361 4.6865204697224915e-17
v 0.36964380741119385 0.07612049579620361 -0.0990457609295845
v 0.3314135670661926 0.07612049579620361 -0.19134171307086945
v 0.27059805393218994 0.07612049579620361 -0.27059805393218994
v 0.19134171307086945 0.07612049579620361 -0.3314135670661926
v 0.0990457609295845 0.07612049579620361 -0.36964380741119385
v 7.029780539147615e-17 0.07612049579620361 -0.3826834261417389
v -0.0990457609295845 0.07612049579620361 -0.36964380741119385
v -0.19134171307086945 0.07612049579620361 -0.3314135670661926
v -0.27059805393218994 0.07612049579620361 -0.27059805393218994
v -0.3314135670661926 0.07612049579620361 -0.19134171307086945
v -0.36964380741119385 0.07612049579620361 -0.0990457609295845
v -0.3826834261417389 0.07612049579620361 -9.373040939444983e-17
v -0.19509032368659973 0.019214749336242676 0
v -0.18844278156757355 0.019214749336242676 0.050493091344833374
v -0.16895318031311035 0.019214749336242676 0.09754516184329987
v -0.13794969022274017 0.019214749336242676 0.13794969022274017
v -0.09754516184329987 0.019214749336242676 0.16895318031311035
v -0.050493091344833374 0.019214749336242676 0.18844278156757355
v -1.1945837176844794e-17 0.019214749336242676 0.19509032368659973
v 0.050493091344833374 0.019214749336242676 0.18844278156757355
v 0.09754516184329987 0.019214749336242676 0.16895318031311035
v 0.13794969022274017 0.019214749336242676 0.13794969022274017
v 0.16895318031311035 0.019214749336242676 0.09754516184329987
v 0.18844278156757355 0.019214749336242676 0.050493091344833374
v 0.19509032368659973 0.019214749336242676 2.3891674353689587e-17
v 0.18844278156757355 0.019214749336242676 -0.050493091344833374
v 0.16895318031311035 0.019214749336242676 -0.09754516184329987
v 0.13794969022274017 0.019214749336242676 -0.13794969022274017
v 0.09754516184329987 0.019214749336242676 -0.16895318031311035
v 0.050493091344833374 0.019214749336242676 -0.18844278156757355
v 3.583751070335377e-17 0.019214749336242676 -0.19509032368659973
v -0.050493091344833374 0.019214749336242676 -0.18844278156757355
v -0.09754516184329987 0.019214749336242676 -0.16895318031311035
v -0.13794969022274017 0.019214749336242676 -0.13794969022274017
v -0.16895318031311035 0.019214749336242676 -0.09754516184329987
v -0.18844278156757355 0.019214749336242676 -0.050493091344833374
v -0.19509032368659973 0.019214749336242676 -4.7783348707379174e-17
v -1.2246468525851679e-16 0 0
v -1.1829179067875828e-16 0 3.169619126193763e-17
v -1.0605752472130298e-16 0 6.123234262925839e-17
v -8.659560603426554e-17 0 8.659560603426554e-17
v -6.123234262925839e-17 0 1.0605752472130298e-16
v -3.169619126193763e-17 0 1.1829179067875828e-16
v -7.498798786105971e-33 0 1.2246468525851679e-16
v 3.169619126193763e-17 0 1.1829179067875828e-16
v 6.123234262925839e-17 0 1.0605752472130298e-16
v 8.659560603426554e-17 0 8.659560603426554e-17
v 1.0605752472130298e-16 0 6.123234262925839e-17
v 1.1829179067875828e-16 0 3.169619126193763e-17
v 1.2246468525851679e-16 0 1.4997597572211942e-32
v 1.1829179067875828e-16 0 -3.169619126193763e-17
v 1.0605752472130298e-16 0 -6.123234262925839e-17
v 8.659560603426554e-17 0 -8.659560603426554e-17
v 6.123234262925839e-17 0 -1.0605752472130298e-16
v 3.169619126193763e-17 0 -1.1829179067875828e-16
v 2.2496396358317913e-32 0 -1.2246468525851679e-16
v -3.169619126193763e-17 0 -1.1829179067875828e-16
v -6.123234262925839e-17 0 -1.0605752472130298e-16
v -8.659560603426554e-17 0 -8.659560603426554e-17
v -1.0605752472130298e-16 0 -6.123234262925839e-17
v -1.1829179067875828e-16 0 -3.169619126193763e-17
v -1.2246468525851679e-16 0 -2.9995195144423884e-32
vt 0.02083333395421505 1
vt 0.0625 1
vt 0.1041666641831398 1
vt 0.1458333283662796 1
vt 0.1875 1
vt 0.2291666716337204 1
vt 0.2708333432674408 1
vt 0.3125 1
vt 0.3541666567325592 1
vt 0.3958333432674408 1
vt 0.4375 1
vt 0.4791666567325592 1
vt 0.5208333134651184 1
vt 0.5625 1
vt 0.6041666865348816 1
vt 0.6458333134651184 1
vt 0.6875 1
vt 0.7291666865348816 1
vt 0.7708333134651184 1
vt 0.8125 1
vt 0.8541666865348816 1
vt 0.8958333134651184 1
vt 0.9375 1
vt 0.9791666865348816 1
vt 1.0208333730697632 1
vt 0 0.9375
vt 0.0416666679084301 0.9375
vt 0.0833333358168602 0.9375
vt 0.125 0.9375
vt 0.1666666716337204 0.9375
vt 0.2083333283662796 0.9375
vt 0.25 0.9375
vt 0.2916666567325592 0.9375
vt 0.3333333432674408 0.9375
vt 0.375 0.9375
vt 0.4166666567325592 0.9375
vt 0.4583333432674408 0.9375
vt 0.5 0.9375
vt 0.5416666865348816 0.9375
vt 0.5833333134651184 0.9375
vt 0.625 0.9375
vt 0.6666666865348816 0.9375
vt 0.7083333134651184 0.9375
vt 0.75 0.9375
vt 0.7916666865348816 0.9375
vt 0.8333333134651184 0.9375
vt 0.875 0.9375
vt 0.9166666865348816 0.9375
vt 0.9583333134651184 0.9375
vt 1 0.9375
vt 0 0.875
vt 0.0416666679084301 0.875
vt 0.0833333358168602 0.875
vt 0.125 0.875
vt 0.1666666716337204 0.875
vt 0.2083333283662796 0.875
vt 0.25 0.875
vt 0.2916666567325592 0.875
vt 0.3333333432674408 0.875
vt 0.375 0.875
vt 0.4166666567325592 0.875
vt 0.4583333432674408 0.875
vt 0.5 0.875
vt 0.5416666865348816 0.875
vt 0.5833333134651184 0.875
vt 0.625 0.875
vt 0.6666666865348816 0.875
vt 0.7083333134651184 0.875
vt 0.75 0.875
vt 0.7916666865348816 0.875
vt 0.8333333134651184 0.875
vt 0.875 0.875
vt 0.9166666865348816 0.875
vt 0.9583333134651184 0.875
vt 1 0.875
vt 0 0.8125
vt 0.0416666679084301 0.8125
vt 0.0833333358168602 0.8125
vt 0.125 0.8125
vt 0.1666666716337204 0.8125
vt 0.2083333283662796 0.8125
vt 0.25 0.8125
vt 0.2916666567325592 0.8125
vt 0.3333333432674408 0.8125
vt 0.375 0.8125
vt 0.4166666567325592 0.8125
vt 0.4583333432674408 0.8125
vt 0.5 0.8125
vt 0.5416666865348816 0.8125
vt 0.5833333134651184 0.8125
vt 0.625 0.8125
vt 0.6666666865348816 0.8125
vt 0.7083333134651184 0.8125
vt 0.75 0.8125
vt 0.7916666865348816 0.8125
vt 0.8333333134651184 0.8125
vt 0.875 0.8125
vt 0.9166666865348816 0.8125
vt 0.9583333134651184 0.8125
vt 1 0.8125
vt 0 0.75
vt 0.0416666679084301 0.75
vt 0.0833333358168602 0.75
vt 0.125 0.75
vt 0.1666666716337204 0.75
vt 0.2083333283662796 0.75
vt 0.25 0.75
vt 0.2916666567325592 0.75
vt 0.3333333432674408 0.75
vt 0.375 0.75
vt 0.4166666567325592 0.75
vt 0.4583333432674408 0.75
vt 0.5 0.75
vt 0.5416666865348816 0.75
vt 0.5833333134651184 0.75
vt 0.625 0.75
vt 0.6666666865348816 0.75
vt 0.7083333134651184 0.75
vt 0.75 0.75
vt 0.7916666865348816 0.75
vt 0.8333333134651184 0.75
vt 0.875 0.75
vt 0.9166666865348816 0.75
vt 0.9583333134651184 0.75
vt 1 0.75
vt 0 0.6875
vt 0.0416666679084301 0.6875
vt 0.0833333358168602 0.6875
vt 0.125 0.6875
vt 0.1666666716337204 0.6875
vt 0.2083333283662796 0.6875
vt 0.25 0.6875
vt 0.2916666567325592 0.6875
vt 0.3333333432674408 0.6875
vt 0.375 0.6875
vt 0.4166666567325592 0.6875
vt 0.4583333432674408 0.6875
vt 0.5 0.6875
vt 0.5416666865348816 0.6875
vt 0.5833333134651184 0.6875
vt 0.625 0.6875
vt 0.6666666865348816 0.6875
vt 0.7083333134651184 0.6875
vt 0.75 0.6875
vt 0.7916666865348816 0.6875
vt 0.8333333134651184 0.6875
vt 0.875 0.6875
vt 0.9166666865348816 0.6875
vt 0.9583333134651184 0.6875
vt 1 0.6875
vt 0 0.625
vt 0.0416666679084301 0.625
vt 0.0833333358168602 0.625
vt 0.125 0.625
vt 0.1666666716337204 0.625
vt 0.2083333283662796 0.625
vt 0.25 0.625
vt 0.2916666567325592 0.625
vt 0.3333333432674408 0.625
vt 0.375 0.625
vt 0.4166666567325592 0.625
vt 0.4583333432674408 0.625
vt 0.5 0.625
vt 0.5416666865348816 0.625
vt 0.5833333134651184 0.625
vt 0.625 0.625
vt 0.6666666865348816 0.625
vt 0.7083333134651184 0.625
vt 0.75 0.625
vt 0.7916666865348816 0.625
vt 0.8333333134651184 0.625
vt 0.875 0.625
vt 0.9166666865348816 0.625
vt 0.9583333134651184 0.625
vt 1 0.625
vt 0 0.5625
vt 0.0416666679084301 0.5625
vt 0.0833333358168602 0.5625
vt 0.125 0.5625
vt 0.1666666716337204 0.5625
vt 0.2083333283662796 0.5625
vt 0.25 0.5625
vt 0.2916666567325592 0.5625
vt 0.3333333432674408 0.5625
vt 0.375 0.5625
vt 0.4166666567325592 0.5625
vt 0.4583333432674408 0.5625
vt 0.5 0.5625
vt 0.5416666865348816 0.5625
vt 0.5833333134651184 0.5625
vt 0.625 0.5625
vt 0.6666666865348816 0.5625
vt 0.7083333134651184 0.5625
vt 0.75 0.5625
vt 0.7916666865348816 0.5625
vt 0.8333333134651184 0.5625
vt 0.875 0.5625
vt 0.9166666865348816 0.5625
vt 0.9583333134651184 0.5625
vt 1 0.5625
vt 0 0.5
vt 0.0416666679084301 0.5
vt 0.0833333358168602 0.5
vt 0.125 0.5
vt 0.1666666716337204 0.5
vt 0.2083333283662796 0.5
vt 0.25 0.5
vt 0.2916666567325592 0.5
vt 0.3333333432674408 0.5
vt 0.375 0.5
vt 0.4166666567325592 0.5
vt 0.4583333432674408 0.5
vt 0.5 0.5
vt 0.5416666865348816 0.5
vt 0.5833333134651184 0.5
vt 0.625 0.5
vt 0.6666666865348816 0.5
vt 0.7083333134651184 0.5
vt 0.75 0.5
vt 0.7916666865348816 0.5
vt 0.8333333134651184 0.5
vt 0.875 0.5
vt 0.9166666865348816 0.5
vt 0.9583333134651184 0.5
vt 1 0.5
vt 0 0.4375
vt 0.0416666679084301 0.4375
vt 0.0833333358168602 0.4375
vt 0.125 0.4375
vt 0.1666666716337204 0.4375
vt 0.2083333283662796 0.4375
vt 0.25 0.4375
vt 0.2916666567325592 0.4375
vt 0.3333333432674408 0.4375
vt 0.375 0.4375
vt 0.4166666567325592 0.4375
vt 0.4583333432674408 0.4375
vt 0.5 0.4375
vt 0.5416666865348816 0.4375
vt 0.5833333134651184 0.4375
vt 0.625 0.4375
vt 0.6666666865348816 0.4375
vt 0.7083333134651184 0.4375
vt 0.75 0.4375
vt 0.7916666865348816 0.4375
vt 0.8333333134651184 0.4375
vt 0.875 0.4375
vt 0.9166666865348816 0.4375
vt 0.9583333134651184 0.4375
vt 1 0.4375
vt 0 0.375
vt 0.0416666679084301 0.375
vt 0.0833333358168602 0.375
vt 0.125 0.375
vt 0.1666666716337204 0.375
vt 0.2083333283662796 0.375
vt 0.25 0.375
vt 0.2916666567325592 0.375
vt 0.3333333432674408 0.375
vt 0.375 0.375
vt 0.4166666567325592 0.375
vt 0.4583333432674408 0.375
vt 0.5 0.375
vt 0.5416666865348816 0.375
vt 0.5833333134651184 0.375
vt 0.625 0.375
vt 0.6666666865348816 0.375
vt 0.7083333134651184 0.375
vt 0.75 0.375
vt 0.7916666865348816 0.375
vt 0.8333333134651184 0.375
vt 0.875 0.375
vt 0.9166666865348816 0.375
vt 0.9583333134651184 0.375
vt 1 0.375
vt 0 0.3125
vt 0.0416666679084301 0.3125
vt 0.0833333358168602 0.3125
vt 0.125 0.3125
vt 0.1666666716337204 0.3125
vt 0.2083333283662796 0.3125
vt 0.25 0.3125
vt 0.2916666567325592 0.3125
vt 0.3333333432674408 0.3125
vt 0.375 0.3125
vt 0.4166666567325592 0.3125
vt 0.4583333432674408 0.3125
vt 0.5 0.3125
vt 0.5416666865348816 0.3125
vt 0.5833333134651184 0.3125
vt 0.625 0.3125
vt 0.6666666865348816 0.3125
vt 0.7083333134651184 0.3125
vt 0.75 0.3125
vt 0.7916666865348816 0.3125
vt 0.8333333134651184 0.3125
vt 0.875 0.3125
vt 0.9166666865348816 0.3125
vt 0.9583333134651184 0.3125
vt 1 0.3125
vt 0 0.25
vt 0.0416666679084301 0.25
vt 0.0833333358168602 0.25
vt 0.125 0.25
vt 0.1666666716337204 0.25
vt 0.2083333283662796 0.25
vt 0.25 0.25
vt 0.2916666567325592 0.25
vt 0.3333333432674408 0.25
vt 0.375 0.25
vt 0.4166666567325592 0.25
vt 0.4583333432674408 0.25
vt 0.5 0.25
vt 0.5416666865348816 0.25
vt 0.5833333134651184 0.25
vt 0.625 0.25
vt 0.6666666865348816 0.25
vt 0.7083333134651184 0.25
vt 0.75 0.25
vt 0.7916666865348816 0.25
vt 0.8333333134651184 0.25
vt 0.875 0.25
vt 0.9166666865348816 0.25
vt 0.9583333134651184 0.25
vt 1 0.25
vt 0 0.1875
vt 0.0416666679084301 0.1875
vt 0.0833333358168602 0.1875
vt 0.125 0.1875
vt 0.1666666716337204 0.1875
vt 0.2083333283662796 0.1875
vt 0.25 0.1875
vt 0.2916666567325592 0.1875
vt 0.3333333432674408 0.1875
vt 0.375 0.1875
vt 0.4166666567325592 0.1875
vt 0.4583333432674408 0.1875
vt 0.5 0.1875
vt 0.5416666865348816 0.1875
vt 0.5833333134651184 0.1875
vt 0.625 0.1875
vt 0.6666666865348816 0.1875
vt 0.7083333134651184 0.1875
vt 0.75 0.1875
vt 0.7916666865348816 0.1875
vt 0.8333333134651184 0.1875
vt 0.875 0.1875
vt 0.9166666865348816 0.1875
vt 0.9583333134651184 0.1875
vt 1 0.1875
vt 0 0.125
vt 0.0416666679084301 0.125
vt 0.0833333358168602 0.125
vt 0.125 0.125
vt 0.1666666716337204 0.125
vt 0.2083333283662796 0.125
vt 0.25 0.125
vt 0.2916666567325592 0.125
vt 0.3333333432674408 0.125
vt 0.375 0.125
vt 0.4166666567325592 0.125
vt 0.4583333432674408 0.125
vt 0.5 0.125
vt 0.5416666865348816 0.125
vt 0.5833333134651184 0.125
vt 0.625 0.125
vt 0.6666666865348816 0.125
vt 0.7083333134651184 0.125
vt 0.75 0.125
vt 0.7916666865348816 0.125
vt 0.8333333134651184 0.125
vt 0.875 0.125
vt 0.9166666865348816 0.125
vt 0.9583333134651184 0.125
vt 1 0.125
vt 0 0.0625
vt 0.0416666679084301 0.0625
vt 0.0833333358168602 0.0625
vt 0.125 0.0625
vt 0.1666666716337204 0.0625
vt 0.2083333283662796 0.0625
vt 0.25 0.0625
vt 0.2916666567325592 0.0625
vt 0.3333333432674408 0.0625
vt 0.375 0.0625
vt 0.4166666567325592 0.0625
vt 0.4583333432674408 0.0625
vt 0.5 0.0625
vt 0.5416666865348816 0.0625
vt 0.5833333134651184 0.0625
vt 0.625 0.0625
vt 0.6666666865348816 0.0625
vt 0.7083333134651184 0.0625
vt 0.75 0.0625
vt 0.7916666865348816 0.0625
vt 0.8333333134651184 0.0625
vt 0.875 0.0625
vt 0.9166666865348816 0.0625
vt 0.9583333134651184 0.0625
vt 1 0.0625
vt -0.02083333395421505 0
vt 0.02083333395421505 0
vt 0.0625 0
vt 0.1041666641831398 0
vt 0.1458333283662796 0
vt 0.1875 0
vt 0.2291666716337204 0
vt 0.2708333432674408 0
vt 0.3125 0
vt 0.3541666567325592 0
vt 0.3958333432674408 0
vt 0.4375 0
vt 0.4791666567325592 0
vt 0.5208333134651184 0
vt 0.5625 0
vt 0.6041666865348816 0
vt 0.6458333134651184 0
vt 0.6875 0
vt 0.7291666865348816 0
vt 0.7708333134651184 0
vt 0.8125 0
vt 0.8541666865348816 0
vt 0.8958333134651184 0
vt 0.9375 0
vt 0.9791666865348816 0
vn -0.0980091313067793 0.9951018636029498 0.012903148237036359
vn -0.0913299690123377 0.9951018641662486 0.03783010300095087
vn -0.07842681518146549 0.9951018641840588 0.06017902091180512
vn -0.06017902091180512 0.9951018641840588 0.07842681518146549
vn -0.03783010300095087 0.9951018641662486 0.0913299690123377
vn -0.012903148237036359 0.9951018636029498 0.0980091313067793
vn 0.012903148237036359 0.9951018636029498 0.0980091313067793
vn 0.03783010300095087 0.9951018641662486 0.0913299690123377
vn 0.06017902091180512 0.9951018641840588 0.07842681518146549
vn 0.07842681518146549 0.9951018641840588 0.06017902091180512
vn 0.0913299690123377 0.9951018641662486 0.03783010300095087
vn 0.0980091313067793 0.9951018636029498 0.012903148237036359
vn 0.0980091313067793 0.9951018636029498 -0.012903148237036359
vn 0.0913299690123377 0.9951018641662486 -0.03783010300095087
vn 0.07842681518146549 0.9951018641840588 -0.06017902091180512
vn 0.06017902091180512 0.9951018641840588 -0.07842681518146549
vn 0.03783010300095087 0.9951018641662486 -0.0913299690123377
vn 0.012903148237036359 0.9951018636029498 -0.0980091313067793
vn -0.012903148237036359 0.9951018636029498 -0.0980091313067793
vn -0.03783010300095087 0.9951018641662486 -0.0913299690123377
vn -0.06017902091180512 0.9951018641840588 -0.07842681518146549
vn -0.07842681518146549 0.9951018641840588 -0.06017902091180512
vn -0.0913299690123377 0.9951018641662486 -0.03783010300095087
vn -0.0980091313067793 0.9951018636029498 -0.012903148237036359
vn 0 0 0
vn -0.24250922713822926 0.969623609952577 0.031926944347237196
vn -0.21574352782881248 0.9738739774629712 0.07088163528327218
vn -0.19004672871513598 0.9738739783134349 0.12430492857742524
vn -0.1513985406703319 0.9738739801433681 0.1692570609534753
vn -0.10243282512604134 0.9738739772164872 0.20267459840157284
vn -0.04648645250275175 0.973873978777121 0.22228019073801644
vn 0.01262786895514569 0.9738739761342821 0.22673776821265434
vn 0.07088163528327218 0.9738739774629712 0.21574352782881248
vn 0.12430492857742524 0.9738739783134349 0.19004672871513598
vn 0.1692570609534753 0.9738739801433681 0.1513985406703319
vn 0.20267459840157284 0.9738739772164872 0.10243282512604134
vn 0.22228019073801644 0.973873978777121 0.04648645250275175
vn 0.22673776821265434 0.9738739761342821 -0.01262786895514569
vn 0.21574352782881248 0.9738739774629712 -0.07088163528327218
vn 0.19004672871513598 0.9738739783134349 -0.12430492857742524
vn 0.1513985406703319 0.9738739801433681 -0.1692570609534753
vn 0.10243282512604134 0.9738739772164872 -0.20267459840157284
vn 0.04648645250275175 0.973873978777121 -0.22228019073801644
vn -0.01262786895514569 0.9738739761342821 -0.22673776821265434
vn -0.07088163528327218 0.9738739774629712 -0.21574352782881248
vn -0.12430492857742524 0.9738739783134349 -0.19004672871513598
vn -0.1692570609534753 0.9738739801433681 -0.1513985406703319
vn -0.20267459840157284 0.9738739772164872 -0.10243282512604134
vn -0.22228019073801644 0.973873978777121 -0.04648645250275175
vn -0.1950260903982912 0.980461923707411 -0.02567567377733829
vn -0.4199504222455339 0.9058614300313017 0.055287543239348924
vn -0.380378158092948 0.9177479176683835 0.11424192076975218
vn -0.3378491112876928 0.9177479172977835 0.20879831967163162
vn -0.27229619174974856 0.917747919805956 0.28912547388707316
vn -0.18818673777529674 0.9177479287412593 0.34974918301065444
vn -0.09125269283621756 0.9177479227608091 0.3865380916783737
vn 0.01190011680259699 0.9177479235130046 0.39698505778889537
vn 0.11424192076975218 0.9177479176683835 0.380378158092948
vn 0.20879831967163162 0.9177479172977835 0.3378491112876928
vn 0.28912547388707316 0.917747919805956 0.27229619174974856
vn 0.34974918301065444 0.9177479287412593 0.18818673777529674
vn 0.3865380916783737 0.9177479227608091 0.09125269283621756
vn 0.39698505778889537 0.9177479235130046 -0.01190011680259699
vn 0.380378158092948 0.9177479176683835 -0.11424192076975218
vn 0.3378491112876928 0.9177479172977835 -0.20879831967163162
vn 0.27229619174974856 0.917747919805956 -0.28912547388707316
vn 0.18818673777529674 0.9177479287412593 -0.34974918301065444
vn 0.09125269283621756 0.9177479227608091 -0.3865380916783737
vn -0.01190011680259699 0.9177479235130046 -0.39698505778889537
vn -0.11424192076975218 0.9177479176683835 -0.380378158092948
vn -0.20879831967163162 0.9177479172977835 -0.3378491112876928
vn -0.28912547388707316 0.917747919805956 -0.27229619174974856
vn -0.34974918301065444 0.9177479287412593 -0.18818673777529674
vn -0.3865380916783737 0.9177479227608091 -0.09125269283621756
vn -0.36370992897627313 0.9302807510940098 -0.047883313461368204
vn -0.5852424641783777 0.8071894241925652 0.07704863135770468
vn -0.541559031822976 0.8260240421753491 0.156198901402212
vn -0.4826786532602492 0.8260239983586983 0.29104238836015134
vn -0.39090450928155485 0.8260239817182272 0.40605177779405527
vn -0.27249080277102794 0.8260240060132436 0.49338940391442704
vn -0.13550731471627725 0.8260239917251694 0.5471034022493381
vn 0.01071073107226118 0.8260239899797359 0.5635331828897522
vn 0.156198901402212 0.8260240421753491 0.541559031822976
vn 0.29104238836015134 0.8260239983586983 0.4826786532602492
vn 0.40605177779405527 0.8260239817182272 0.39090450928155485
vn 0.49338940391442704 0.8260240060132436 0.27249080277102794
vn 0.5471034022493381 0.8260239917251694 0.13550731471627725
vn 0.5635331828897522 0.8260239899797359 -0.01071073107226118
vn 0.541559031822976 0.8260240421753491 -0.156198901402212
vn 0.4826786532602492 0.8260239983586983 -0.29104238836015134
vn 0.39090450928155485 0.8260239817182272 -0.40605177779405527
vn 0.27249080277102794 0.8260240060132436 -0.49338940391442704
vn 0.13550731471627725 0.8260239917251694 -0.5471034022493381
vn -0.01071073107226118 0.8260239899797359 -0.5635331828897522
vn -0.156198901402212 0.8260240421753491 -0.541559031822976
vn -0.29104238836015134 0.8260239983586983 -0.4826786532602492
vn -0.40605177779405527 0.8260239817182272 -0.39090450928155485
vn -0.49338940391442704 0.8260240060132436 -0.27249080277102794
vn -0.5471034022493381 0.8260239917251694 -0.13550731471627725
vn -0.5331032214702863 0.8431340954867461 -0.07018441625994393
vn -0.7290246632697199 0.6777250902511541 0.09597782237859201
vn -0.6850151446138386 0.7025048759932931 0.1929796643569717
vn -0.6117268873313455 0.7025049412152307 0.36369908287496217
vn -0.4967506505661213 0.7025049297352932 0.5096328235698188
vn -0.34792157246683997 0.7025049175159469 0.6208360655423572
vn -0.17538217841039774 0.7025049184937305 0.6897303320777913
vn 0.009109111156550075 0.7025049061797927 0.7116206017866951
vn 0.1929796643569717 0.7025048759932931 0.6850151446138386
vn 0.36369908287496217 0.7025049412152307 0.6117268873313455
vn 0.5096328235698188 0.7025049297352932 0.4967506505661213
vn 0.6208360655423572 0.7025049175159469 0.34792157246683997
vn 0.6897303320777913 0.7025049184937305 0.17538217841039774
vn 0.7116206017866951 0.7025049061797927 -0.009109111156550075
vn 0.6850151446138386 0.7025048759932931 -0.1929796643569717
vn 0.6117268873313455 0.7025049412152307 -0.36369908287496217
vn 0.4967506505661213 0.7025049297352932 -0.5096328235698188
vn 0.34792157246683997 0.7025049175159469 -0.6208360655423572
vn 0.17538217841039774 0.7025049184937305 -0.6897303320777913
vn -0.009109111156550075 0.7025049061797927 -0.7116206017866951
vn -0.1929796643569717 0.7025048759932931 -0.6850151446138386
vn -0.36369908287496217 0.7025049412152307 -0.6117268873313455
vn -0.5096328235698188 0.7025049297352932 -0.4967506505661213
vn -0.6208360655423572 0.7025049175159469 -0.34792157246683997
vn -0.6897303320777913 0.7025049184937305 -0.17538217841039774
vn -0.6844035830066001 0.723514421499069 -0.09010337091694032
vn -0.8452047714521188 0.5227304702523068 0.11127331119533548
vn -0.8035689200496552 0.5519696018280696 0.22272527783795196
vn -0.7185424083174581 0.5519695964796371 0.42311508128575864
vn -0.5845483466920167 0.5519696999709212 0.5946702285247184
vn -0.41071849927944376 0.5519696456137817 0.7256995415946174
vn -0.20889863734687592 0.5519695973901126 0.8072737595584384
vn 0.007157217770486292 0.5519695923742963 0.8338335225498785
vn 0.22272527783795196 0.5519696018280696 0.8035689200496552
vn 0.42311508128575864 0.5519695964796371 0.7185424083174581
vn 0.5946702285247184 0.5519696999709212 0.5845483466920167
vn 0.7256995415946174 0.5519696456137817 0.41071849927944376
vn 0.8072737595584384 0.5519695973901126 0.20889863734687592
vn 0.8338335225498785 0.5519695923742963 -0.007157217770486292
vn 0.8035689200496552 0.5519696018280696 -0.22272527783795196
vn 0.7185424083174581 0.5519695964796371 -0.42311508128575864
vn 0.5845483466920167 0.5519696999709212 -0.5946702285247184
vn 0.41071849927944376 0.5519696456137817 -0.7256995415946174
vn 0.20889863734687592 0.5519695973901126 -0.8072737595584384
vn -0.007157217770486292 0.5519695923742963 -0.8338335225498785
vn -0.22272527783795196 0.5519696018280696 -0.8035689200496552
vn -0.42311508128575864 0.5519695964796371 -0.7185424083174581
vn -0.5946702285247184 0.5519696999709212 -0.5845483466920167
vn -0.7256995415946174 0.5519696456137817 -0.41071849927944376
vn -0.8072737595584384 0.5519695973901126 -0.20889863734687592
vn -0.8101447176849962 0.576445754943954 -0.10665752675827743
vn -0.929367232752016 0.34829034970684036 0.12235350010501009
vn -0.8920960561433992 0.38021061400203926 0.2441403604764805
vn -0.7985105067480058 0.380210555733935 0.466712870961939
vn -0.6505076144767519 0.3802106594081014 0.6574798080399292
vn -0.4581738107056243 0.3802106076380973 0.8034405099464151
vn -0.23461624695459032 0.38021054402857035 0.8946480642545654
vn 0.004930038411507787 0.3802105738708687 0.9248868115818527
vn 0.2441403604764805 0.38021061400203926 0.8920960561433992
vn 0.466712870961939 0.380210555733935 0.7985105067480058
vn 0.6574798080399292 0.3802106594081014 0.6505076144767519
vn 0.8034405099464151 0.3802106076380973 0.4581738107056243
vn 0.8946480642545654 0.38021054402857035 0.23461624695459032
vn 0.9248868115818527 0.3802105738708687 -0.004930038411507787
vn 0.8920960561433992 0.38021061400203926 -0.2441403604764805
vn 0.7985105067480058 0.380210555733935 -0.466712870961939
vn 0.6505076144767519 0.3802106594081014 -0.6574798080399292
vn 0.4581738107056243 0.3802106076380973 -0.8034405099464151
vn 0.23461624695459032 0.38021054402857035 -0.8946480642545654
vn -0.004930038411507787 0.3802105738708687 -0.9248868115818527
vn -0.2441403604764805 0.38021061400203926 -0.8920960561433992
vn -0.466712870961939 0.380210555733935 -0.7985105067480058
vn -0.6574798080399292 0.3802106594081014 -0.6505076144767519
vn -0.8034405099464151 0.3802106076380973 -0.4581738107056243
vn -0.8946480642545654 0.38021054402857035 -0.23461624695459032
vn -0.905258397630062 0.40780322865403534 -0.11917952936472523
vn -0.9785060089984414 0.1610300955615262 0.12882274130520482
vn -0.9469531789279543 0.1938319954316807 0.25633734504596656
vn -0.8483415750568286 0.19383194833575323 0.4926923460278888
vn -0.691916884060158 0.19383187621958547 0.6954712282428923
vn -0.4883390443252383 0.19383198325380635 0.8508549465422466
vn -0.2514818946772032 0.19383204291517972 0.9482541831117288
vn 0.0025133594665910732 0.19383203466353063 0.9810315108916673
vn 0.25633734504596656 0.1938319954316807 0.9469531789279543
vn 0.4926923460278888 0.19383194833575323 0.8483415750568286
vn 0.6954712282428923 0.19383187621958547 0.691916884060158
vn 0.8508549465422466 0.19383198325380635 0.4883390443252383
vn 0.9482541831117288 0.19383204291517972 0.2514818946772032
vn 0.9810315108916673 0.19383203466353063 -0.0025133594665910732
vn 0.9469531789279543 0.1938319954316807 -0.25633734504596656
vn 0.8483415750568286 0.19383194833575323 -0.4926923460278888
vn 0.691916884060158 0.19383187621958547 -0.6954712282428923
vn 0.4883390443252383 0.19383198325380635 -0.8508549465422466
vn 0.2514818946772032 0.19383204291517972 -0.9482541831117288
vn -0.0025133594665910732 0.19383203466353063 -0.9810315108916673
vn -0.25633734504596656 0.1938319954316807 -0.9469531789279543
vn -0.4926923460278888 0.19383194833575323 -0.8483415750568286
vn -0.6954712282428923 0.19383187621958547 -0.691916884060158
vn -0.8508549465422466 0.19383198325380635 -0.4883390443252383
vn -0.9482541831117288 0.19383204291517972 -0.2514818946772032
vn -0.9662348965910219 0.22407243547143113 -0.12720718639934758
vn -0.9909335050015966 -0.0321133816091335 0.13045888006140732
vn -0.9659258257467461 3.013260437389635e-8 0.25881904712649256
vn -0.8660254406092583 4.6172288717397596e-8 0.4999999362175336
vn -0.7071067811865476 1.6169185711734828e-10 0.7071067811865476
vn -0.5000000067305863 -4.697570751229622e-8 0.8660253998985314
vn -0.25881904712649256 -2.952324469184812e-8 0.9659258257467461
vn 1.4254198932306394e-9 3.5814154419888666e-10 1
vn 0.25881904712649256 3.013260437389635e-8 0.9659258257467461
vn 0.4999999362175336 4.6172288717397596e-8 0.8660254406092583
vn 0.7071067811865476 1.6169185711734828e-10 0.7071067811865476
vn 0.8660253998985314 -4.697570751229622e-8 0.5000000067305863
vn 0.9659258257467461 -2.952324469184812e-8 0.25881904712649256
vn 1 3.5814154419888666e-10 -1.4254198932306394e-9
vn 0.9659258257467461 3.013260437389635e-8 -0.25881904712649256
vn 0.8660254406092583 4.6172288717397596e-8 -0.4999999362175336
vn 0.7071067811865476 1.6169185711734828e-10 -0.7071067811865476
vn 0.5000000067305863 -4.697570751229622e-8 -0.8660253998985314
vn 0.25881904712649256 -2.952324469184812e-8 -0.9659258257467461
vn -1.4254198932306394e-9 3.5814154419888666e-10 -1
vn -0.25881904712649256 3.013260437389635e-8 -0.9659258257467461
vn -0.4999999362175336 4.6172288717397596e-8 -0.8660254406092583
vn -0.7071067811865476 1.6169185711734828e-10 -0.7071067811865476
vn -0.8660253998985314 -4.697570751229622e-8 -0.5000000067305863
vn -0.9659258257467461 -2.952324469184812e-8 -0.25881904712649256
vn -0.9909335048830497 0.03211338533058212 -0.13045888004580034
vn -0.9662348965910219 -0.22407243547143113 0.12720718639934758
vn -0.9482541885894562 -0.19383201423255553 0.2514818961299248
vn -0.8508549465422466 -0.19383198325380635 0.4883390443252383
vn -0.6954712262341487 -0.1938318905608981 0.6919168820616806
vn -0.49269234745094254 -0.19383193399444107 0.8483415775071116
vn -0.2563372908386412 -0.19383196971059466 0.9469531988665633
vn -0.0025133583097046285 -0.19383202032278632 0.9810315137280728
vn 0.2514818961299248 -0.19383201423255553 0.9482541885894562
vn 0.4883390443252383 -0.19383198325380635 0.8508549465422466
vn 0.6919168820616806 -0.1938318905608981 0.6954712262341487
vn 0.8483415775071116 -0.19383193399444107 0.49269234745094254
vn 0.9469531988665633 -0.19383196971059466 0.2563372908386412
vn 0.9810315137280728 -0.19383202032278632 0.0025133583097046285
vn 0.9482541885894562 -0.19383201423255553 -0.2514818961299248
vn 0.8508549465422466 -0.19383198325380635 -0.4883390443252383
vn 0.6954712262341487 -0.1938318905608981 -0.6919168820616806
vn 0.49269234745094254 -0.19383193399444107 -0.8483415775071116
vn 0.2563372908386412 -0.19383196971059466 -0.9469531988665633
vn 0.0025133583097046285 -0.19383202032278632 -0.9810315137280728
vn -0.2514818961299248 -0.19383201423255553 -0.9482541885894562
vn -0.4883390443252383 -0.19383198325380635 -0.8508549465422466
vn -0.6919168820616806 -0.1938318905608981 -0.6954712262341487
vn -0.8483415775071116 -0.19383193399444107 -0.49269234745094254
vn -0.9469531988665633 -0.19383196971059466 -0.2563372908386412
vn -0.9785060108767898 -0.16103009587064093 -0.1288227266513331
vn -0.9052583992377223 -0.40780322937825847 0.11917951467521683
vn -0.8946480572449057 -0.3802105708519034 0.234616230215187
vn -0.8034405099464151 -0.3802106076380973 0.4581738107056243
vn -0.65747980058992 -0.3802106849021948 0.6505076071057456
vn -0.466712870961939 -0.380210555733935 0.7985105067480058
vn -0.2441403604764805 -0.38021061400203926 0.8920960561433992
vn -0.004930039398670768 -0.38021054837502666 0.9248868220576445
vn 0.234616230215187 -0.3802105708519034 0.8946480572449057
vn 0.4581738107056243 -0.3802106076380973 0.8034405099464151
vn 0.6505076071057456 -0.3802106849021948 0.65747980058992
vn 0.7985105067480058 -0.380210555733935 0.466712870961939
vn 0.8920960561433992 -0.38021061400203926 0.2441403604764805
vn 0.9248868220576445 -0.38021054837502666 0.004930039398670768
vn 0.8946480572449057 -0.3802105708519034 -0.234616230215187
vn 0.8034405099464151 -0.3802106076380973 -0.4581738107056243
vn 0.65747980058992 -0.3802106849021948 -0.6505076071057456
vn 0.466712870961939 -0.380210555733935 -0.7985105067480058
vn 0.2441403604764805 -0.38021061400203926 -0.8920960561433992
vn 0.004930039398670768 -0.38021054837502666 -0.9248868220576445
vn -0.234616230215187 -0.3802105708519034 -0.8946480572449057
vn -0.4581738107056243 -0.3802106076380973 -0.8034405099464151
vn -0.6505076071057456 -0.3802106849021948 -0.65747980058992
vn -0.7985105067480058 -0.380210555733935 -0.466712870961939
vn -0.8920960561433992 -0.38021061400203926 -0.2441403604764805
vn -0.9293672440931496 -0.34829032415472955 -0.12235348669693724
vn -0.8101447176849962 -0.576445754943954 0.10665752675827743
vn -0.8072738068785422 -0.5519695293859712 0.20889863416799906
vn -0.7256996546573269 -0.5519695217293841 0.4107184659983907
vn -0.5946702285247184 -0.5519696999709212 0.5845483466920167
vn -0.42311501843144933 -0.5519696518449729 0.7185424027988143
vn -0.22272526367598555 -0.5519696036599824 0.8035689227165923
vn -0.007157215442299107 -0.5519695923834945 0.8338335225637737
vn 0.20889863416799906 -0.5519695293859712 0.8072738068785422
vn 0.4107184659983907 -0.5519695217293841 0.7256996546573269
vn 0.5845483466920167 -0.5519696999709212 0.5946702285247184
vn 0.7185424027988143 -0.5519696518449729 0.42311501843144933
vn 0.8035689227165923 -0.5519696036599824 0.22272526367598555
vn 0.8338335225637737 -0.5519695923834945 0.007157215442299107
vn 0.8072738068785422 -0.5519695293859712 -0.20889863416799906
vn 0.7256996546573269 -0.5519695217293841 -0.4107184659983907
vn 0.5946702285247184 -0.5519696999709212 -0.5845483466920167
vn 0.42311501843144933 -0.5519696518449729 -0.7185424027988143
vn 0.22272526367598555 -0.5519696036599824 -0.8035689227165923
vn 0.007157215442299107 -0.5519695923834945 -0.8338335225637737
vn -0.20889863416799906 -0.5519695293859712 -0.8072738068785422
vn -0.4107184659983907 -0.5519695217293841 -0.7256996546573269
vn -0.5845483466920167 -0.5519696999709212 -0.5946702285247184
vn -0.7185424027988143 -0.5519696518449729 -0.42311501843144933
vn -0.8035689227165923 -0.5519696036599824 -0.22272526367598555
vn -0.845204770751401 -0.5227304698189367 -0.11127331855366485
vn -0.6844035830066001 -0.723514421499069 0.09010337091694032
vn -0.6897303645636433 -0.7025048919766109 0.1753821568684616
vn -0.6208360289115717 -0.7025049435119396 0.3479215853415778
vn -0.5096328373646785 -0.7025048891462138 0.4967506938146064
vn -0.36369904178579165 -0.7025049790187003 0.6117268683473306
vn -0.19297964980957077 -0.7025049368857339 0.6850150862649279
vn -0.009109115812776384 -0.7025049061499942 0.7116206017565098
vn 0.1753821568684616 -0.7025048919766109 0.6897303645636433
vn 0.3479215853415778 -0.7025049435119396 0.6208360289115717
vn 0.4967506938146064 -0.7025048891462138 0.5096328373646785
vn 0.6117268683473306 -0.7025049790187003 0.36369904178579165
vn 0.6850150862649279 -0.7025049368857339 0.19297964980957077
vn 0.71162060175651 -0.7025049061499943 0.009109115812776385
vn 0.6897303645636433 -0.7025048919766109 -0.1753821568684616
vn 0.6208360289115717 -0.7025049435119396 -0.3479215853415778
vn 0.5096328373646785 -0.7025048891462138 -0.4967506938146064
vn 0.36369904178579165 -0.7025049790187003 -0.6117268683473306
vn 0.19297964980957077 -0.7025049368857339 -0.6850150862649279
vn 0.009109115812776384 -0.7025049061499942 -0.7116206017565098
vn -0.1753821568684616 -0.7025048919766109 -0.6897303645636433
vn -0.3479215853415778 -0.7025049435119396 -0.6208360289115717
vn -0.4967506938146064 -0.7025048891462138 -0.5096328373646785
vn -0.6117268683473306 -0.7025049790187003 -0.36369904178579165
vn -0.6850150862649279 -0.7025049368857339 -0.19297964980957077
vn -0.7290246627484013 -0.6777250897665194 -0.09597782976053991
vn -0.5331032909262936 -0.8431340514626093 0.07018441755690119
vn -0.5471033604856809 -0.8260240186617321 0.1355073191351577
vn -0.49338940792117264 -0.8260240127212677 0.2724907751815642
vn -0.40605177779405527 -0.8260239817182272 0.39090450928155485
vn -0.29104232961772836 -0.8260240008058202 0.4826786844925223
vn -0.15619892363024632 -0.8260240213172808 0.5415590572260617
vn -0.010710730141045453 -0.8260239899879757 0.5635331828953736
vn 0.1355073191351577 -0.8260240186617321 0.5471033604856809
vn 0.2724907751815642 -0.8260240127212677 0.49338940792117264
vn 0.39090450928155485 -0.8260239817182272 0.40605177779405527
vn 0.4826786844925223 -0.8260240008058202 0.29104232961772836
vn 0.5415590572260617 -0.8260240213172808 0.15619892363024632
vn 0.5635331828953736 -0.8260239899879757 0.010710730141045453
vn 0.5471033604856809 -0.8260240186617321 -0.1355073191351577
vn 0.49338940792117264 -0.8260240127212677 -0.2724907751815642
vn 0.40605177779405527 -0.8260239817182272 -0.39090450928155485
vn 0.29104232961772836 -0.8260240008058202 -0.4826786844925223
vn 0.15619892363024632 -0.8260240213172808 -0.5415590572260617
vn 0.010710730141045453 -0.8260239899879757 -0.5635331828953736
vn -0.1355073191351577 -0.8260240186617321 -0.5471033604856809
vn -0.2724907751815642 -0.8260240127212677 -0.49338940792117264
vn -0.39090450928155485 -0.8260239817182272 -0.40605177779405527
vn -0.4826786844925223 -0.8260240008058202 -0.29104232961772836
vn -0.5415590572260617 -0.8260240213172808 -0.15619892363024632
vn -0.5852424645143401 -0.807189424655938 -0.07704862395135421
vn -0.36370992897627313 -0.9302807510940098 0.047883313461368204
vn -0.3865381421145844 -0.9177479009924228 0.09125269812234328
vn -0.3497492343434234 -0.917747907035715 0.18818674822567621
vn -0.2891254715408028 -0.9177479123583773 0.27229621934237114
vn -0.20879833392315078 -0.91774791444236 0.3378491102365302
vn -0.11424191947468831 -0.9177479072646528 0.38037818358324527
vn -0.011900118524187165 -0.9177479126347159 0.39698508288565754
vn 0.09125269812234328 -0.9177479009924228 0.3865381421145844
vn 0.18818674822567621 -0.917747907035715 0.3497492343434234
vn 0.27229621934237114 -0.9177479123583773 0.2891254715408028
vn 0.3378491102365302 -0.91774791444236 0.20879833392315078
vn 0.38037818358324527 -0.9177479072646528 0.11424191947468831
vn 0.39698508288565754 -0.9177479126347159 0.011900118524187165
vn 0.3865381421145844 -0.9177479009924228 -0.09125269812234328
vn 0.3497492343434234 -0.917747907035715 -0.18818674822567621
vn 0.2891254715408028 -0.9177479123583773 -0.27229621934237114
vn 0.20879833392315078 -0.91774791444236 -0.3378491102365302
vn 0.11424191947468831 -0.9177479072646528 -0.38037818358324527
vn 0.011900118524187165 -0.9177479126347159 -0.39698508288565754
vn -0.09125269812234328 -0.9177479009924228 -0.3865381421145844
vn -0.18818674822567621 -0.917747907035715 -0.3497492343434234
vn -0.27229621934237114 -0.9177479123583773 -0.2891254715408028
vn -0.3378491102365302 -0.91774791444236 -0.20879833392315078
vn -0.38037818358324527 -0.9177479072646528 -0.11424191947468831
vn -0.4199504222455339 -0.9058614300313017 -0.055287543239348924
vn -0.19502606467588474 -0.980461928910003 0.02567567049004907
vn -0.22228016236968767 -0.9738739850598646 0.04648645652793968
vn -0.20267458426718443 -0.9738739809009161 0.10243281806299179
vn -0.1692570609534753 -0.9738739801433681 0.1513985406703319
vn -0.12430492159399005 -0.9738739819733124 0.1900467145281818
vn -0.07088164292429192 -0.9738739800794974 0.2157435135072935
vn -0.012627870860159054 -0.9738739794017606 0.22673775407222885
vn 0.04648645652793968 -0.9738739850598646 0.22228016236968767
vn 0.10243281806299179 -0.9738739809009161 0.20267458426718443
vn 0.1513985406703319 -0.9738739801433681 0.1692570609534753
vn 0.1900467145281818 -0.9738739819733124 0.12430492159399005
vn 0.2157435135072935 -0.9738739800794974 0.07088164292429192
vn 0.22673775407222885 -0.9738739794017606 0.012627870860159054
vn 0.22228016236968767 -0.9738739850598646 -0.04648645652793968
vn 0.20267458426718443 -0.9738739809009161 -0.10243281806299179
vn 0.1692570609534753 -0.9738739801433681 -0.1513985406703319
vn 0.12430492159399005 -0.9738739819733124 -0.1900467145281818
vn 0.07088164292429192 -0.9738739800794974 -0.2157435135072935
vn 0.012627870860159054 -0.9738739794017606 -0.22673775407222885
vn -0.04648645652793968 -0.9738739850598646 -0.22228016236968767
vn -0.10243281806299179 -0.9738739809009161 -0.20267458426718443
vn -0.1513985406703319 -0.9738739801433681 -0.1692570609534753
vn -0.1900467145281818 -0.9738739819733124 -0.12430492159399005
vn -0.2157435135072935 -0.9738739800794974 -0.07088164292429192
vn -0.24250922713822926 -0.969623609952577 -0.031926944347237196
vn 0 0 0
vn -0.0980091313067793 -0.9951018636029498 0.012903148237036359
vn -0.0913299690123377 -0.9951018641662486 0.03783010300095087
vn -0.07842681518146549 -0.9951018641840588 0.06017902091180512
vn -0.06017902091180512 -0.9951018641840588 0.07842681518146549
vn -0.03783010300095087 -0.9951018641662486 0.0913299690123377
vn -0.012903148237036359 -0.9951018636029498 0.0980091313067793
vn 0.012903148237036359 -0.9951018636029498 0.0980091313067793
vn 0.03783010300095087 -0.9951018641662486 0.0913299690123377
vn 0.06017902091180512 -0.9951018641840588 0.07842681518146549
vn 0.07842681518146549 -0.9951018641840588 0.06017902091180512
vn 0.0913299690123377 -0.9951018641662486 0.03783010300095087
vn 0.0980091313067793 -0.9951018636029498 0.012903148237036359
vn 0.0980091313067793 -0.9951018636029498 -0.012903148237036359
vn 0.0913299690123377 -0.9951018641662486 -0.03783010300095087
vn 0.07842681518146549 -0.9951018641840588 -0.06017902091180512
vn 0.06017902091180512 -0.9951018641840588 -0.07842681518146549
vn 0.03783010300095087 -0.9951018641662486 -0.0913299690123377
vn 0.012903148237036359 -0.9951018636029498 -0.0980091313067793
vn -0.012903148237036359 -0.9951018636029498 -0.0980091313067793
vn -0.03783010300095087 -0.9951018641662486 -0.0913299690123377
vn -0.06017902091180512 -0.9951018641840588 -0.07842681518146549
vn -0.07842681518146549 -0.9951018641840588 -0.06017902091180512
vn -0.0913299690123377 -0.9951018641662486 -0.03783010300095087
vn -0.0980091313067793 -0.9951018636029498 -0.012903148237036359
f 1/1/1 26/26/26 27/27/27
f 2/2/2 27/27/27 28/28/28
f 3/3/3 28/28/28 29/29/29
f 4/4/4 29/29/29 30/30/30
f 5/5/5 30/30/30 31/31/31
f 6/6/6 31/31/31 32/32/32
f 7/7/7 32/32/32 33/33/33
f 8/8/8 33/33/33 34/34/34
f 9/9/9 34/34/34 35/35/35
f 10/10/10 35/35/35 36/36/36
f 11/11/11 36/36/36 37/37/37
f 12/12/12 37/37/37 38/38/38
f 13/13/13 38/38/38 39/39/39
f 14/14/14 39/39/39 40/40/40
f 15/15/15 40/40/40 41/41/41
f 16/16/16 41/41/41 42/42/42
f 17/17/17 42/42/42 43/43/43
f 18/18/18 43/43/43 44/44/44
f 19/19/19 44/44/44 45/45/45
f 20/20/20 45/45/45 46/46/46
f 21/21/21 46/46/46 47/47/47
f 22/22/22 47/47/47 48/48/48
f 23/23/23 48/48/48 49/49/49
f 24/24/24 49/49/49 50/50/50
f 27/27/27 26/26/26 52/52/52
f 26/26/26 51/51/51 52/52/52
f 28/28/28 27/27/27 53/53/53
f 27/27/27 52/52/52 53/53/53
f 29/29/29 28/28/28 54/54/54
f 28/28/28 53/53/53 54/54/54
f 30/30/30 29/29/29 55/55/55
f 29/29/29 54/54/54 55/55/55
f 31/31/31 30/30/30 56/56/56
f 30/30/30 55/55/55 56/56/56
f 32/32/32 31/31/31 57/57/57
f 31/31/31 56/56/56 57/57/57
f 33/33/33 32/32/32 58/58/58
f 32/32/32 57/57/57 58/58/58
f 34/34/34 33/33/33 59/59/59
f 33/33/33 58/58/58 59/59/59
f 35/35/35 34/34/34 60/60/60
f 34/34/34 59/59/59 60/60/60
f 36/36/36 35/35/35 61/61/61
f 35/35/35 60/60/60 61/61/61
f 37/37/37 36/36/36 62/62/62
f 36/36/36 61/61/61 62/62/62
f 38/38/38 37/37/37 63/63/63
f 37/37/37 62/62/62 63/63/63
f 39/39/39 38/38/38 64/64/64
f 38/38/38 63/63/63 64/64/64
f 40/40/40 39/39/39 65/65/65
f 39/39/39 64/64/64 65/65/65
f 41/41/41 40/40/40 66/66/66
f 40/40/40 65/65/65 66/66/66
f 42/42/42 41/41/41 67/67/67
f 41/41/41 66/66/66 67/67/67
f 43/43/43 42/42/42 68/68/68
f 42/42/42 67/67/67 68/68/68
f 44/44/44 43/43/43 69/69/69
f 43/43/43 68/68/68 69/69/69
f 45/45/45 44/44/44 70/70/70
f 44/44/44 69/69/69 70/70/70
f 46/46/46 45/45/45 71/71/71
f 45/45/45 70/70/70 71/71/71
f 47/47/47 46/46/46 72/72/72
f 46/46/46 71/71/71 72/72/72
f 48/48/48 47/47/47 73/73/73
f 47/47/47 72/72/72 73/73/73
f 49/49/49 48/48/48 74/74/74
f 48/48/48 73/73/73 74/74/74
f 50/50/50 49/49/49 75/75/75
f 49/49/49 74/74/74 75/75/75
f 52/52/52 51/51/51 77/77/77
f 51/51/51 76/76/76 77/77/77
f 53/53/53 52/52/52 78/78/78
f 52/52/52 77/77/77 78/78/78
f 54/54/54 53/53/53 79/79/79
f 53/53/53 78/78/78 79/79/79
f 55/55/55 54/54/54 80/80/80
f 54/54/54 79/79/79 80/80/80
f 56/56/56 55/55/55 81/81/81
f 55/55/55 80/80/80 81/81/81
f 57/57/57 56/56/56 82/82/82
f 56/56/56 81/81/81 82/82/82
f 58/58/58 57/57/57 83/83/83
f 57/57/57 82/82/82 83/83/83
f 59/59/59 58/58/58 84/84/84
f 58/58/58 83/83/83 84/84/84
f 60/60/60 59/59/59 85/85/85
f 59/59/59 84/84/84 85/85/85
f 61/61/61 60/60/60 86/86/86
f 60/60/60 85/85/85 86/86/86
f 62/62/62 61/61/61 87/87/87
f 61/61/61 86/86/86 87/87/87
f 63/63/63 62/62/62 88/88/88
f 62/62/62 87/87/87 88/88/88
f 64/64/64 63/63/63 89/89/89
f 63/63/63 88/88/88 89/89/89
f 65/65/65 64/64/64 90/90/90
f 64/64/64 89/89/89 90/90/90
f 66/66/66 65/65/65 91/91/91
f 65/65/65 90/90/90 91/91/91
f 67/67/67 66/66/66 92/92/92
f 66/66/66 91/91/91 92/92/92
f 68/68/68 67/67/67 93/93/93
f 67/67/67 92/92/92 93/93/93
f 69/69/69 68/68/68 94/94/94
f 68/68/68 93/93/93 94/94/94
f 70/70/70 69/69/69 95/95/95
f 69/69/69 94/94/94 95/95/95
f 71/71/71 70/70/70 96/96/96
f 70/70/70 95/95/95 96/96/96
f 72/72/72 71/71/71 97/97/97
f 71/71/71 96/96/96 97/97/97
f 73/73/73 72/72/72 98/98/98
f 72/72/72 97/97/97 98/98/98
f 74/74/74 73/73/73 99/99/99
f 73/73/73 98/98/98 99/99/99
f 75/75/75 74/74/74 100/100/100
f 74/74/74 99/99/99 100/100/100
f 77/77/77 76/76/76 102/102/102
f 76/76/76 101/101/101 102/102/102
f 78/78/78 77/77/77 103/103/103
f 77/77/77 102/102/102 103/103/103
f 79/79/79 78/78/78 104/104/104
f 78/78/78 103/103/103 104/104/104
f 80/80/80 79/79/79 105/105/105
f 79/79/79 104/104/104 105/105/105
f 81/81/81 80/80/80 106/106/106
f 80/80/80 105/105/105 106/106/106
f 82/82/82 81/81/81 107/107/107
f 81/81/81 106/106/106 107/107/107
f 83/83/83 82/82/82 108/108/108
f 82/82/82 107/107/107 108/108/108
f 84/84/84 83/83/83 109/109/109
f 83/83/83 108/108/108 109/109/109
f 85/85/85 84/84/84 110/110/110
f 84/84/84 109/109/109 110/110/110
f 86/86/86 85/85/85 111/111/111
f 85/85/85 110/110/110 111/111/111
f 87/87/87 86/86/86 112/112/112
f 86/86/86 111/111/111 112/112/112
f 88/88/88 87/87/87 113/113/113
f 87/87/87 112/112/112 113/113/113
f 89/89/89 88/88/88 114/114/114
f 88/88/88 113/113/113 114/114/114
f 90/90/90 89/89/89 115/115/115
f 89/89/89 114/114/114 115/115/115
f 91/91/91 90/90/90 116/116/116
f 90/90/90 115/115/115 116/116/116
f 92/92/92 91/91/91 117/117/117
f 91/91/91 116/116/116 117/117/117
f 93/93/93 92/92/92 118/118/118
f 92/92/92 117/117/117 118/118/118
f 94/94/94 93/93/93 119/119/119
f 93/93/93 118/118/118 119/119/119
f 95/95/95 94/94/94 120/120/120
f 94/94/94 119/119/119 120/120/120
f 96/96/96 95/95/95 121/121/121
f 95/95/95 120/120/120 121/121/121
f 97/97/97 96/96/96 122/122/122
f 96/96/96 121/121/121 122/122/122
f 98/98/98 97/97/97 123/123/123
f 97/97/97 122/122/122 123/123/123
f 99/99/99 98/98/98 124/124/124
f 98/98/98 123/123/123 124/124/124
f 100/100/100 99/99/99 125/125/125
f 99/99/99 124/124/124 125/125/125
f 102/102/102 101/101/101 127/127/127
f 101/101/101 126/126/126 127/127/127
f 103/103/103 102/102/102 128/128/128
f 102/102/102 127/127/127 128/128/128
f 104/104/104 103/103/103 129/129/129
f 103/103/103 128/128/128 129/129/129
f 105/105/105 104/104/104 130/130/130
f 104/104/104 129/129/129 130/130/130
f 106/106/106 105/105/105 131/131/131
f 105/105/105 130/130/130 131/131/131
f 107/107/107 106/106/106 132/132/132
f 106/106/106 131/131/131 132/132/132
f 108/108/108 107/107/107 133/133/133
f 107/107/107 132/132/132 133/133/133
f 109/109/109 108/108/108 134/134/134
f 108/108/108 133/133/133 134/134/134
f 110/110/110 109/109/109 135/135/135
f 109/109/109 134/134/134 135/135/135
f 111/111/111 110/110/110 136/136/136
f 110/110/110 135/135/135 136/136/136
f 112/112/112 111/111/111 137/137/137
f 111/111/111 136/136/136 137/137/137
f 113/113/113 112/112/112 138/138/138
f 112/112/112 137/137/137 138/138/138
f 114/114/114 113/113/113 139/139/139
f 113/113/113 138/138/138 139/139/139
f 115/115/115 114/114/114 140/140/140
f 114/114/114 139/139/139 140/140/140
f 116/116/116 115/115/115 141/141/141
f 115/115/115 140/140/140 141/141/141
f 117/117/117 116/116/116 142/142/142
f 116/116/116 141/141/141 142/142/142
f 118/118/118 117/117/117 143/143/143
f 117/117/117 142/142/142 143/143/143
f 119/119/119 118/118/118 144/144/144
f 118/118/118 143/143/143 144/144/144
f 120/120/120 119/119/119 145/145/145
f 119/119/119 144/144/144 145/145/145
f 121/121/121 120/120/120 146/146/146
f 120/120/120 145/145/145 146/146/146
f 122/122/122 121/121/121 147/147/147
f 121/121/121 146/146/146 147/147/147
f 123/123/123 122/122/122 148/148/148
f 122/122/122 147/147/147 148/148/148
f 124/124/124 123/123/123 149/149/149
f 123/123/123 148/148/148 149/149/149
f 125/125/125 124/124/124 150/150/150
f 124/124/124 149/149/149 150/150/150
f 127/127/127 126/126/126 152/152/152
f 126/126/126 151/151/151 152/152/152
f 128/128/128 127/127/127 153/153/153
f 127/127/127 152/152/152 153/153/153
f 129/129/129 128/128/128 154/154/154
f 128/128/128 153/153/153 154/154/154
f 130/130/130 129/129/129 155/155/155
f 129/129/129 154/154/154 155/155/155
f 131/131/131 130/130/130 156/156/156
f 130/130/130 155/155/155 156/156/156
f 132/132/132 131/131/131 157/157/157
f 131/131/131 156/156/156 157/157/157
f 133/133/133 132/132/132 158/158/158
f 132/132/132 157/157/157 158/158/158
f 134/134/134 133/133/133 159/159/159
f 133/133/133 158/158/158 159/159/159
f 135/135/135 134/134/134 160/160/160
f 134/134/134 159/159/159 160/160/160
f 136/136/136 135/135/135 161/161/161
f 135/135/135 160/160/160 161/161/161
f 137/137/137 136/136/136 162/162/162
f 136/136/136 161/161/161 162/162/162
f 138/138/138 137/137/137 163/163/163
f 137/137/137 162/162/162 163/163/163
f 139/139/139 138/138/138 164/164/164
f 138/138/138 163/163/163 164/164/164
f 140/140/140 139/139/139 165/165/165
f 139/139/139 164/164/164 165/165/165
f 141/141/141 140/140/140 166/166/166
f 140/140/140 165/165/165 166/166/166
f 142/142/142 141/141/141 167/167/167
f 141/141/141 166/166/166 167/167/167
f 143/143/143 142/142/142 168/168/168
f 142/142/142 167/167/167 168/168/168
f 144/144/144 143/143/143 169/169/169
f 143/143/143 168/168/168 169/169/169
f 145/145/145 144/144/144 170/170/170
f 144/144/144 169/169/169 170/170/170
f 146/146/146 145/145/145 171/171/171
f 145/145/145 170/170/170 171/171/171
f 147/147/147 146/146/146 172/172/172
f 146/146/146 171/171/171 172/172/172
f 148/148/148 147/147/147 173/173/173
f 147/147/147 172/172/172 173/173/173
f 149/149/149 148/148/148 174/174/174
f 148/148/148 173/173/173 174/174/174
f 150/150/150 149/149/149 175/175/175
f 149/149/149 174/174/174 175/175/175
f 152/152/152 151/151/151 177/177/177
f 151/151/151 176/176/176 177/177/177
f 153/153/153 152/152/152 178/178/178
f 152/152/152 177/177/177 178/178/178
f 154/154/154 153/153/153 179/179/179
f 153/153/153 178/178/178 179/179/179
f 155/155/155 154/154/154 180/180/180
f 154/154/154 179/179/179 180/180/180
f 156/156/156 155/155/155 181/181/181
f 155/155/155 180/180/180 181/181/181
f 157/157/157 156/156/156 182/182/182
f 156/156/156 181/181/181 182/182/182
f 158/158/158 157/157/157 183/183/183
f 157/157/157 182/182/182 183/183/183
f 159/159/159 158/158/158 184/184/184
f 158/158/158 183/183/183 184/184/184
f 160/160/160 159/159/159 185/185/185
f 159/159/159 184/184/184 185/185/185
f 161/161/161 160/160/160 186/186/186
f 160/160/160 185/185/185 186/186/186
f 162/162/162 161/161/161 187/187/187
f 161/161/161 186/186/186 187/187/187
f 163/163/163 162/162/162 188/188/188
f 162/162/162 187/187/187 188/188/188
f 164/164/164 163/163/163 189/189/189
f 163/163/163 188/188/188 189/189/189
f 165/165/165 164/164/164 190/190/190
f 164/164/164 189/189/189 190/190/190
f 166/166/166 165/165/165 191/191/191
f 165/165/165 190/190/190 191/191/191
f 167/167/167 166/166/166 192/192/192
f 166/166/166 191/191/191 192/192/192
f 168/168/168 167/167/167 193/193/193
f 167/167/167 192/192/192 193/193/193
f 169/169/169 168/168/168 194/194/194
f 168/168/168 193/193/193 194/194/194
f 170/170/170 169/169/169 195/195/195
f 169/169/169 194/194/194 195/195/195
f 171/171/171 170/170/170 196/196/196
f 170/170/170 195/195/195 196/196/196
f 172/172/172 171/171/171 197/197/197
f 171/171/171 196/196/196 197/197/197
f 173/173/173 172/172/172 198/198/198
f 172/172/172 197/197/197 198/198/198
f 174/174/174 173/173/173 199/199/199
f 173/173/173 198/198/198 199/199/199
f 175/175/175 174/174/174 200/200/200
f 174/174/174 199/199/199 200/200/200
f 177/177/177 176/176/176 202/202/202
f 176/176/176 201/201/201 202/202/202
f 178/178/178 177/177/177 203/203/203
f 177/177/177 202/202/202 203/203/203
f 179/179/179 178/178/178 204/204/204
f 178/178/178 203/203/203 204/204/204
f 180/180/180 179/179/179 205/205/205
f 179/179/179 204/204/204 205/205/205
f 181/181/181 180/180/180 206/206/206
f 180/180/180 205/205/205 206/206/206
f 182/182/182 181/181/181 207/207/207
f 181/181/181 206/206/206 207/207/207
f 183/183/183 182/182/182 208/208/208
f 182/182/182 207/207/207 208/208/208
f 184/184/184 183/183/183 209/209/209
f 183/183/183 208/208/208 209/209/209
f 185/185/185 184/184/184 210/210/210
f 184/184/184 209/209/209 210/210/210
f 186/186/186 185/185/185 211/211/211
f 185/185/185 210/210/210 211/211/211
f 187/187/187 186/186/186 212/212/212
f 186/186/186 211/211/211 212/212/212
f 188/188/188 187/187/187 213/213/213
f 187/187/187 212/212/212 213/213/213
f 189/189/189 188/188/188 214/214/214
f 188/188/188 213/213/213 214/214/214
f 190/190/190 189/189/189 215/215/215
f 189/189/189 214/214/214 215/215/215
f 191/191/191 190/190/190 216/216/216
f 190/190/190 215/215/215 216/216/216
f 192/192/192 191/191/191 217/217/217
f 191/191/191 216/216/216 217/217/217
f 193/193/193 192/192/192 218/218/218
f 192/192/192 217/217/217 218/218/218
f 194/194/194 193/193/193 219/219/219
f 193/193/193 218/218/218 219/219/219
f 195/195/195 194/194/194 220/220/220
f 194/194/194 219/219/219 220/220/220
f 196/196/196 195/195/195 221/221/221
f 195/195/195 220/220/220 221/221/221
f 197/197/197 196/196/196 222/222/222
f 196/196/196 221/221/221 222/222/222
f 198/198/198 197/197/197 223/223/223
f 197/197/197 222/222/222 223/223/223
f 199/199/199 198/198/198 224/224/224
f 198/198/198 223/223/223 224/224/224
f 200/200/200 199/199/199 225/225/225
f 199/199/199 224/224/224 225/225/225
f 202/202/202 201/201/201 227/227/227
f 201/201/201 226/226/226 227/227/227
f 203/203/203 202/202/202 228/228/228
f 202/202/202 227/227/227 228/228/228
f 204/204/204 203/203/203 229/229/229
f 203/203/203 228/228/228 229/229/229
f 205/205/205 204/204/204 230/230/230
f 204/204/204 229/229/229 230/230/230
f 206/206/206 205/205/205 231/231/231
f 205/205/205 230/230/230 231/231/231
f 207/207/207 206/206/206 232/232/232
f 206/206/206 231/231/231 232/232/232
f 208/208/208 207/207/207 233/233/233
f 207/207/207 232/232/232 233/233/233
f 209/209/209 208/208/208 234/234/234
f 208/208/208 233/233/233 234/234/234
f 210/210/210 209/209/209 235/235/235
f 209/209/209 234/234/234 235/235/235
f 211/211/211 210/210/210 236/236/236
f 210/210/210 235/235/235 236/236/236
f 212/212/212 211/211/211 237/237/237
f 211/211/211 236/236/236 237/237/237
f 213/213/213 212/212/212 238/238/238
f 212/212/212 237/237/237 238/238/238
f 214/214/214 213/213/213 239/239/239
f 213/213/213 238/238/238 239/239/239
f 215/215/215 214/214/214 240/240/240
f 214/214/214 239/239/239 240/240/240
f 216/216/216 215/215/215 241/241/241
f 215/215/215 240/240/240 241/241/241
f 217/217/217 216/216/216 242/242/242
f 216/216/216 241/241/241 242/242/242
f 218/218/218 217/217/217 243/243/243
f 217/217/217 242/242/242 243/243/243
f 219/219/219 218/218/218 244/244/244
f 218/218/218 243/243/243 244/244/244
f 220/220/220 219/219/219 245/245/245
f 219/219/219 244/244/244 245/245/245
f 221/221/221 220/220/220 246/246/246
f 220/220/220 245/245/245 246/246/246
f 222/222/222 221/221/221 247/247/247
f 221/221/221 246/246/246 247/247/247
f 223/223/223 222/222/222 248/248/248
f 222/222/222 247/247/247 248/248/248
f 224/224/224 223/223/223 249/249/249
f 223/223/223 248/248/248 249/249/249
f 225/225/225 224/224/224 250/250/250
f 224/224/224 249/249/249 250/250/250
f 227/227/227 226/226/226 252/252/252
f 226/226/226 251/251/251 252/252/252
f 228/228/228 227/227/227 253/253/253
f 227/227/227 252/252/252 253/253/253
f 229/229/229 228/228/228 254/254/254
f 228/228/228 253/253/253 254/254/254
f 230/230/230 229/229/229 255/255/255
f 229/229/229 254/254/254 255/255/255
f 231/231/231 230/230/230 256/256/256
f 230/230/230 255/255/255 256/256/256
f 232/232/232 231/231/231 257/257/257
f 231/231/231 256/256/256 257/257/257
f 233/233/233 232/232/232 258/258/258
f 232/232/232 257/257/257 258/258/258
f 234/234/234 233/233/233 259/259/259
f 233/233/233 258/258/258 259/259/259
f 235/235/235 234/234/234 260/260/260
f 234/234/234 259/259/259 260/260/260
f 236/236/236 235/235/235 261/261/261
f 235/235/235 260/260/260 261/261/261
f 237/237/237 236/236/236 262/262/262
f 236/236/236 261/261/261 262/262/262
f 238/238/238 237/237/237 263/263/263
f 237/237/237 262/262/262 263/263/263
f 239/239/239 238/238/238 264/264/264
f 238/238/238 263/263/263 264/264/264
f 240/240/240 239/239/239 265/265/265
f 239/239/239 264/264/264 265/265/265
f 241/241/241 240/240/240 266/266/266
f 240/240/240 265/265/265 266/266/266
f 242/242/242 241/241/241 267/267/267
f 241/241/241 266/266/266 267/267/267
f 243/243/243 242/242/242 268/268/268
f 242/242/242 267/267/267 268/268/268
f 244/244/244 243/243/243 269/269/269
f 243/243/243 268/268/268 269/269/269
f 245/245/245 244/244/244 270/270/270
f 244/244/244 269/269/269 270/270/270
f 246/246/246 245/245/245 271/271/271
f 245/245/245 270/270/270 271/271/271
f 247/247/247 246/246/246 272/272/272
f 246/246/246 271/271/271 272/272/272
f 248/248/248 247/247/247 273/273/273
f 247/247/247 272/272/272 273/273/273
f 249/249/249 248/248/248 274/274/274
f 248/248/248 273/273/273 274/274/274
f 250/250/250 249/249/249 275/275/275
f 249/249/249 274/274/274 275/275/275
f 252/252/252 251/251/251 277/277/277
f 251/251/251 276/276/276 277/277/277
f 253/253/253 252/252/252 278/278/278
f 252/252/252 277/277/277 278/278/278
f 254/254/254 253/253/253 279/279/279
f 253/253/253 278/278/278 279/279/279
f 255/255/255 254/254/254 280/280/280
f 254/254/254 279/279/279 280/280/280
f 256/256/256 255/255/255 281/281/281
f 255/255/255 280/280/280 281/281/281
f 257/257/257 256/256/256 282/282/282
f 256/256/256 281/281/281 282/282/282
f 258/258/258 257/257/257 283/283/283
f 257/257/257 282/282/282 283/283/283
f 259/259/259 258/258/258 284/284/284
f 258/258/258 283/283/283 284/284/284
f 260/260/260 259/259/259 285/285/285
f 259/259/259 284/284/284 285/285/285
f 261/261/261 260/260/260 286/286/286
f 260/260/260 285/285/285 286/286/286
f 262/262/262 261/261/261 287/287/287
f 261/261/261 286/286/286 287/287/287
f 263/263/263 262/262/262 288/288/288
f 262/262/262 287/287/287 288/288/288
f 264/264/264 263/263/263 289/289/289
f 263/263/263 288/288/288 289/289/289
f 265/265/265 264/264/264 290/290/290
f 264/264/264 289/289/289 290/290/290
f 266/266/266 265/265/265 291/291/291
f 265/265/265 290/290/290 291/291/291
f 267/267/267 266/266/266 292/292/292
f 266/266/266 291/291/291 292/292/292
f 268/268/268 267/267/267 293/293/293
f 267/267/267 292/292/292 293/293/293
f 269/269/269 268/268/268 294/294/294
f 268/268/268 293/293/293 294/294/294
f 270/270/270 269/269/269 295/295/295
f 269/269/269 294/294/294 295/295/295
f 271/271/271 270/270/270 296/296/296
f 270/270/270 295/295/295 296/296/296
f 272/272/272 271/271/271 297/297/297
f 271/271/271 296/296/296 297/297/297
f 273/273/273 272/272/272 298/298/298
f 272/272/272 297/297/297 298/298/298
f 274/274/274 273/273/273 299/299/299
f 273/273/273 298/298/298 299/299/299
f 275/275/275 274/274/274 300/300/300
f 274/274/274 299/299/299 300/300/300
f 277/277/277 276/276/276 302/302/302
f 276/276/276 301/301/301 302/302/302
f 278/278/278 277/277/277 303/303/303
f 277/277/277 302/302/302 303/303/303
f 279/279/279 278/278/278 304/304/304
f 278/278/278 303/303/303 304/304/304
f 280/280/280 279/279/279 305/305/305
f 279/279/279 304/304/304 305/305/305
f 281/281/281 280/280/280 306/306/306
f 280/280/280 305/305/305 306/306/306
f 282/282/282 281/281/281 307/307/307
f 281/281/281 306/306/306 307/307/307
f 283/283/283 282/282/282 308/308/308
f 282/282/282 307/307/307 308/308/308
f 284/284/284 283/283/283 309/309/309
f 283/283/283 308/308/308 309/309/309
f 285/285/285 284/284/284 310/310/310
f 284/284/284 309/309/309 310/310/310
f 286/286/286 285/285/285 311/311/311
f 285/285/285 310/310/310 311/311/311
f 287/287/287 286/286/286 312/312/312
f 286/286/286 311/311/311 312/312/312
f 288/288/288 287/287/287 313/313/313
f 287/287/287 312/312/312 313/313/313
f 289/289/289 288/288/288 314/314/314
f 288/288/288 313/313/313 314/314/314
f 290/290/290 289/289/289 315/315/315
f 289/289/289 314/314/314 315/315/315
f 291/291/291 290/290/290 316/316/316
f 290/290/290 315/315/315 316/316/316
f 292/292/292 291/291/291 317/317/317
f 291/291/291 316/316/316 317/317/317
f 293/293/293 292/292/292 318/318/318
f 292/292/292 317/317/317 318/318/318
f 294/294/294 293/293/293 319/319/319
f 293/293/293 318/318/318 319/319/319
f 295/295/295 294/294/294 320/320/320
f 294/294/294 319/319/319 320/320/320
f 296/296/296 295/295/295 321/321/321
f 295/295/295 320/320/320 321/321/321
f 297/297/297 296/296/296 322/322/322
f 296/296/296 321/321/321 322/322/322
f 298/298/298 297/297/297 323/323/323
f 297/297/297 322/322/322 323/323/323
f 299/299/299 298/298/298 324/324/324
f 298/298/298 323/323/323 324/324/324
f 300/300/300 299/299/299 325/325/325
f 299/299/299 324/324/324 325/325/325
f 302/302/302 301/301/301 327/327/327
f 301/301/301 326/326/326 327/327/327
f 303/303/303 302/302/302 328/328/328
f 302/302/302 327/327/327 328/328/328
f 304/304/304 303/303/303 329/329/329
f 303/303/303 328/328/328 329/329/329
f 305/305/305 304/304/304 330/330/330
f 304/304/304 329/329/329 330/330/330
f 306/306/306 305/305/305 331/331/331
f 305/305/305 330/330/330 331/331/331
f 307/307/307 306/306/306 332/332/332
f 306/306/306 331/331/331 332/332/332
f 308/308/308 307/307/307 333/333/333
f 307/307/307 332/332/332 333/333/333
f 309/309/309 308/308/308 334/334/334
f 308/308/308 333/333/333 334/334/334
f 310/310/310 309/309/309 335/335/335
f 309/309/309 334/334/334 335/335/335
f 311/311/311 310/310/310 336/336/336
f 310/310/310 335/335/335 336/336/336
f 312/312/312 311/311/311 337/337/337
f 311/311/311 336/336/336 337/337/337
f 313/313/313 312/312/312 338/338/338
f 312/312/312 337/337/337 338/338/338
f 314/314/314 313/313/313 339/339/339
f 313/313/313 338/338/338 339/339/339
f 315/315/315 314/314/314 340/340/340
f 314/314/314 339/339/339 340/340/340
f 316/316/316 315/315/315 341/341/341
f 315/315/315 340/340/340 341/341/341
f 317/317/317 316/316/316 342/342/342
f 316/316/316 341/341/341 342/342/342
f 318/318/318 317/317/317 343/343/343
f 317/317/317 342/342/342 343/343/343
f 319/319/319 318/318/318 344/344/344
f 318/318/318 343/343/343 344/344/344
f 320/320/320 319/319/319 345/345/345
f 319/319/319 344/344/344 345/345/345
f 321/321/321 320/320/320 346/346/346
f 320/320/320 345/345/345 346/346/346
f 322/322/322 321/321/321 347/347/347
f 321/321/321 346/346/346 347/347/347
f 323/323/323 322/322/322 348/348/348
f 322/322/322 347/347/347 348/348/348
f 324/324/324 323/323/323 349/349/349
f 323/323/323 348/348/348 349/349/349
f 325/325/325 324/324/324 350/350/350
f 324/324/324 349/349/349 350/350/350
f 327/327/327 326/326/326 352/352/352
f 326/326/326 351/351/351 352/352/352
f 328/328/328 327/327/327 353/353/353
f 327/327/327 352/352/352 353/353/353
f 329/329/329 328/328/328 354/354/354
f 328/328/328 353/353/353 354/354/354
f 330/330/330 329/329/329 355/355/355
f 329/329/329 354/354/354 355/355/355
f 331/331/331 330/330/330 356/356/356
f 330/330/330 355/355/355 356/356/356
f 332/332/332 331/331/331 357/357/357
f 331/331/331 356/356/356 357/357/357
f 333/333/333 332/332/332 358/358/358
f 332/332/332 357/357/357 358/358/358
f 334/334/334 333/333/333 359/359/359
f 333/333/333 358/358/358 359/359/359
f 335/335/335 334/334/334 360/360/360
f 334/334/334 359/359/359 360/360/360
f 336/336/336 335/335/335 361/361/361
f 335/335/335 360/360/360 361/361/361
f 337/337/337 336/336/336 362/362/362
f 336/336/336 361/361/361 362/362/362
f 338/338/338 337/337/337 363/363/363
f 337/337/337 362/362/362 363/363/363
f 339/339/339 338/338/338 364/364/364
f 338/338/338 363/363/363 364/364/364
f 340/340/340 339/339/339 365/365/365
f 339/339/339 364/364/364 365/365/365
f 341/341/341 340/340/340 366/366/366
f 340/340/340 365/365/365 366/366/366
f 342/342/342 341/341/341 367/367/367
f 341/341/341 366/366/366 367/367/367
f 343/343/343 342/342/342 368/368/368
f 342/342/342 367/367/367 368/368/368
f 344/344/344 343/343/343 369/369/369
f 343/343/343 368/368/368 369/369/369
f 345/345/345 344/344/344 370/370/370
f 344/344/344 369/369/369 370/370/370
f 346/346/346 345/345/345 371/371/371
f 345/345/345 370/370/370 371/371/371
f 347/347/347 346/346/346 372/372/372
f 346/346/346 371/371/371 372/372/372
f 348/348/348 347/347/347 373/373/373
f 347/347/347 372/372/372 373/373/373
f 349/349/349 348/348/348 374/374/374
f 348/348/348 373/373/373 374/374/374
f 350/350/350 349/349/349 375/375/375
f 349/349/349 374/374/374 375/375/375
f 352/352/352 351/351/351 377/377/377
f 351/351/351 376/376/376 377/377/377
f 353/353/353 352/352/352 378/378/378
f 352/352/352 377/377/377 378/378/378
f 354/354/354 353/353/353 379/379/379
f 353/353/353 378/378/378 379/379/379
f 355/355/355 354/354/354 380/380/380
f 354/354/354 379/379/379 380/380/380
f 356/356/356 355/355/355 381/381/381
f 355/355/355 380/380/380 381/381/381
f 357/357/357 356/356/356 382/382/382
f 356/356/356 381/381/381 382/382/382
f 358/358/358 357/357/357 383/383/383
f 357/357/357 382/382/382 383/383/383
f 359/359/359 358/358/358 384/384/384
f 358/358/358 383/383/383 384/384/384
f 360/360/360 359/359/359 385/385/385
f 359/359/359 384/384/384 385/385/385
f 361/361/361 360/360/360 386/386/386
f 360/360/360 385/385/385 386/386/386
f 362/362/362 361/361/361 387/387/387
f 361/361/361 386/386/386 387/387/387
f 363/363/363 362/362/362 388/388/388
f 362/362/362 387/387/387 388/388/388
f 364/364/364 363/363/363 389/389/389
f 363/363/363 388/388/388 389/389/389
f 365/365/365 364/364/364 390/390/390
f 364/364/364 389/389/389 390/390/390
f 366/366/366 365/365/365 391/391/391
f 365/365/365 390/390/390 391/391/391
f 367/367/367 366/366/366 392/392/392
f 366/366/366 391/391/391 392/392/392
f 368/368/368 367/367/367 393/393/393
f 367/367/367 392/392/392 393/393/393
f 369/369/369 368/368/368 394/394/394
f 368/368/368 393/393/393 394/394/394
f 370/370/370 369/369/369 395/395/395
f 369/369/369 394/394/394 395/395/395
f 371/371/371 370/370/370 396/396/396
f 370/370/370 395/395/395 396/396/396
f 372/372/372 371/371/371 397/397/397
f 371/371/371 396/396/396 397/397/397
f 373/373/373 372/372/372 398/398/398
f 372/372/372 397/397/397 398/398/398
f 374/374/374 373/373/373 399/399/399
f 373/373/373 398/398/398 399/399/399
f 375/375/375 374/374/374 400/400/400
f 374/374/374 399/399/399 400/400/400
f 377/377/377 376/376/376 402/402/402
f 378/378/378 377/377/377 403/403/403
f 379/379/379 378/378/378 404/404/404
f 380/380/380 379/379/379 405/405/405
f 381/381/381 380/380/380 406/406/406
f 382/382/382 381/381/381 407/407/407
f 383/383/383 382/382/382 408/408/408
f 384/384/384 383/383/383 409/409/409
f 385/385/385 384/384/384 410/410/410
f 386/386/386 385/385/385 411/411/411
f 387/387/387 386/386/386 412/412/412
f 388/388/388 387/387/387 413/413/413
f 389/389/389 388/388/388 414/414/414
f 390/390/390 389/389/389 415/415/415
f 391/391/391 390/390/390 416/416/416
f 392/392/392 391/391/391 417/417/417
f 393/393/393 392/392/392 418/418/418
f 394/394/394 393/393/393 419/419/419
f 395/395/395 394/394/394 420/420/420
f 396/396/396 395/395/395 421/421/421
f 397/397/397 396/396/396 422/422/422
f 398/398/398 397/397/397 423/423/423
f 399/399/399 398/398/398 424/424/424
f 400/400/400 399/399/399 425/425/425
