o shape_005
v 0 1 0
v 0 1 0
v 0 1 0
v 0 1 0
v 0 1 0
v 0 1 0
v 0 1 0
v 0 1 0
v 0 1 0
v 0 1 0
v 0 1 0
v 0 1 0
v 0 1 0
v 0 1 0
v 0 1 0
v 0 1 0
v 0 1 0
v 0 1 0
v 0 1 0
v 0 1 0
v 0 1 0
v 0 1 0
v 0 1 0
v 0 1 0
v 0 1 0
v -0.13052618503570557 0.9914448857307434 0
v -0.12607862055301666 0.9914448857307434 0.03378266468644142
v -0.11303900182247162 0.9914448857307434 0.06526309251785278
v -0.09229595214128494 0.9914448857307434 0.09229595214128494
v -0.06526309251785278 0.9914448857307434 0.11303900182247162
v -0.03378266468644142 0.9914448857307434 0.12607862055301666
v -7.992424219279267e-18 0.9914448857307434 0.13052618503570557
v 0.03378266468644142 0.9914448857307434 0.12607862055301666
v 0.06526309251785278 0.9914448857307434 0.11303900182247162
v 0.09229595214128494 0.9914448857307434 0.09229595214128494
v 0.11303900182247162 0.9914448857307434 0.06526309251785278
v 0.12607862055301666 0.9914448857307434 0.03378266468644142
v 0.13052618503570557 0.9914448857307434 1.5984848438558533e-17
v 0.12607862055301666 0.9914448857307434 -0.03378266468644142
v 0.11303900182247162 0.9914448857307434 -0.06526309251785278
v 0.09229595214128494 0.9914448857307434 -0.09229595214128494
v 0.06526309251785278 0.9914448857307434 -0.11303900182247162
v 0.03378266468644142 0.9914448857307434 -0.12607862055301666
v 2.39772726578378e-17 0.9914448857307434 -0.13052618503570557
v -0.03378266468644142 0.9914448857307434 -0.12607862055301666
v -0.06526309251785278 0.9914448857307434 -0.11303900182247162
v -0.09229595214128494 0.9914448857307434 -0.09229595214128494
v -0.11303900182247162 0.9914448857307434 -0.06526309251785278
v -0.12607862055301666 0.9914448857307434 -0.03378266468644142
v -0.13052618503570557 0.9914448857307434 -3.1969696877117066e-17
v -0.258819043636322 0.9659258127212524 0
v -0.25 0.9659258127212524 0.0669872984290123
v -0.2241438627243042 0.9659258127212524 0.129409521818161
v -0.1830127090215683 0.9659258127212524 0.1830127090215683
v -0.129409521818161 0.9659258127212524 0.2241438627243042
v -0.0669872984290123 0.9659258127212524 0.25
v -1.5848095630968816e-17 0.9659258127212524 0.258819043636322
v 0.0669872984290123 0.9659258127212524 0.25
v 0.129409521818161 0.9659258127212524 0.2241438627243042
v 0.1830127090215683 0.9659258127212524 0.1830127090215683
v 0.2241438627243042 0.9659258127212524 0.129409521818161
v 0.25 0.9659258127212524 0.0669872984290123
v 0.258819043636322 0.9659258127212524 3.169619126193763e-17
v 0.25 0.9659258127212524 -0.0669872984290123
v 0.2241438627243042 0.9659258127212524 -0.129409521818161
v 0.1830127090215683 0.9659258127212524 -0.1830127090215683
v 0.129409521818161 0.9659258127212524 -0.2241438627243042
v 0.0669872984290123 0.9659258127212524 -0.25
v 4.754428689290645e-17 0.9659258127212524 -0.258819043636322
v -0.0669872984290123 0.9659258127212524 -0.25
v -0.129409521818161 0.9659258127212524 -0.2241438627243042
v -0.1830127090215683 0.9659258127212524 -0.1830127090215683
v -0.2241438627243042 0.9659258127212524 -0.129409521818161
v -0.25 0.9659258127212524 -0.0669872984290123
v -0.258819043636322 0.9659258127212524 -6.339238252387527e-17
v -0.3826834261417389 0.9238795042037964 0
v -0.36964380741119385 0.9238795042037964 0.0990457609295845
v -0.3314135670661926 0.9238795042037964 0.19134171307086945
v -0.27059805393218994 0.9238795042037964 0.27059805393218994
v -0.19134171307086945 0.9238795042037964 0.3314135670661926
v -0.0990457609295845 0.9238795042037964 0.36964380741119385
v -2.3432602348612458e-17 0.9238795042037964 0.3826834261417389
v 0.0990457609295845 0.9238795042037964 0.36964380741119385
v 0.19134171307086945 0.9238795042037964 0.3314135670661926
v 0.27059805393218994 0.9238795042037964 0.27059805393218994
v 0.3314135670661926 0.9238795042037964 0.19134171307086945
v 0.36964380741119385 0.9238795042037964 0.0990457609295845
v 0.3826834261417389 0.9238795042037964 4.6865204697224915e-17
v 0.36964380741119385 0.9238795042037964 -0.0990457609295845
v 0.3314135670661926 0.9238795042037964 -0.19134171307086945
v 0.27059805393218994 0.9238795042037964 -0.27059805393218994
v 0.19134171307086945 0.9238795042037964 -0.3314135670661926
v 0.0990457609295845 0.9238795042037964 -0.36964380741119385
v 7.029780539147615e-17 0.9238795042037964 -0.3826834261417389
v -0.0990457609295845 0.9238795042037964 -0.36964380741119385
v -0.19134171307086945 0.9238795042037964 -0.3314135670661926
v -0.27059805393218994 0.9238795042037964 -0.27059805393218994
v -0.3314135670661926 0.9238795042037964 -0.19134171307086945
v -0.36964380741119385 0.9238795042037964 -0.0990457609295845
v -0.3826834261417389 0.9238795042037964 -9.373040939444983e-17
v -0.5 0.8660253882408142 0
v -0.4829629063606262 0.8660253882408142 0.129409521818161
v -0.4330126941204071 0.8660253882408142 0.25
v -0.3535533845424652 0.8660253882408142 0.3535533845424652
v -0.25 0.8660253882408142 0.4330126941204071
v -0.129409521818161 0.8660253882408142 0.4829629063606262
v -3.0616171314629196e-17 0.8660253882408142 0.5
v 0.129409521818161 0.8660253882408142 0.4829629063606262
v 0.25 0.8660253882408142 0.4330126941204071
v 0.3535533845424652 0.8660253882408142 0.3535533845424652
v 0.4330126941204071 0.8660253882408142 0.25
v 0.4829629063606262 0.8660253882408142 0.129409521818161
v 0.5 0.8660253882408142 6.123234262925839e-17
v 0.4829629063606262 0.8660253882408142 -0.129409521818161
v 0.4330126941204071 0.8660253882408142 -0.25
v 0.3535533845424652 0.8660253882408142 -0.3535533845424652
v 0.25 0.8660253882408142 -0.4330126941204071
v 0.129409521818161 0.8660253882408142 -0.4829629063606262
v 9.184850732644269e-17 0.8660253882408142 -0.5
v -0.129409521818161 0.8660253882408142 -0.4829629063606262
v -0.25 0.8660253882408142 -0.4330126941204071
v -0.3535533845424652 0.8660253882408142 -0.3535533845424652
v -0.4330126941204071 0.8660253882408142 -0.25
v -0.4829629063606262 0.8660253882408142 -0.129409521818161
v -0.5 0.8660253882408142 -1.2246468525851679e-16
v -0.6087614297866821 0.7933533191680908 0
v -0.5880183577537537 0.7933533191680908 0.15755905210971832
v -0.527202844619751 0.7933533191680908 0.30438071489334106
v -0.43045932054519653 0.7933533191680908 0.43045932054519653
v -0.30438071489334106 0.7933533191680908 0.527202844619751
v -0.15755905210971832 0.7933533191680908 0.5880183577537537
v -3.727588514435488e-17 0.7933533191680908 0.6087614297866821
v 0.15755905210971832 0.7933533191680908 0.5880183577537537
v 0.30438071489334106 0.7933533191680908 0.527202844619751
v 0.43045932054519653 0.7933533191680908 0.43045932054519653
v 0.527202844619751 0.7933533191680908 0.30438071489334106
v 0.5880183577537537 0.7933533191680908 0.15755905210971832
v 0.6087614297866821 0.7933533191680908 7.455177028870975e-17
v 0.5880183577537537 0.7933533191680908 -0.15755905210971832
v 0.527202844619751 0.7933533191680908 -0.30438071489334106
v 0.43045932054519653 0.7933533191680908 -0.43045932054519653
v 0.30438071489334106 0.7933533191680908 -0.527202844619751
v 0.15755905210971832 0.7933533191680908 -0.5880183577537537
v 1.1182765874178708e-16 0.7933533191680908 -0.6087614297866821
v -0.15755905210971832 0.7933533191680908 -0.5880183577537537
v -0.30438071489334106 0.7933533191680908 -0.527202844619751
v -0.43045932054519653 0.7933533191680908 -0.43045932054519653
v -0.527202844619751 0.7933533191680908 -0.30438071489334106
v -0.5880183577537537 0.7933533191680908 -0.15755905210971832
v -0.6087614297866821 0.7933533191680908 -1.491035405774195e-16
v -0.7071067690849304 0.7071067690849304 0
v -0.6830127239227295 0.7071067690849304 0.1830127090215683
v -0.6123724579811096 0.7071067690849304 0.3535533845424652
v -0.5 0.7071067690849304 0.5
v -0.3535533845424652 0.7071067690849304 0.6123724579811096
v -0.1830127090215683 0.7071067690849304 0.6830127239227295
v -4.329780301713277e-17 0.7071067690849304 0.7071067690849304
v 0.1830127090215683 0.7071067690849304 0.6830127239227295
v 0.3535533845424652 0.7071067690849304 0.6123724579811096
v 0.5 0.7071067690849304 0.5
v 0.6123724579811096 0.7071067690849304 0.3535533845424652
v 0.6830127239227295 0.7071067690849304 0.1830127090215683
v 0.7071067690849304 0.7071067690849304 8.659560603426554e-17
v 0.6830127239227295 0.7071067690849304 -0.1830127090215683
v 0.6123724579811096 0.7071067690849304 -0.3535533845424652
v 0.5 0.7071067690849304 -0.5
v 0.3535533845424652 0.7071067690849304 -0.6123724579811096
v 0.1830127090215683 0.7071067690849304 -0.6830127239227295
v 1.2989340243395341e-16 0.7071067690849304 -0.7071067690849304
v -0.1830127090215683 0.7071067690849304 -0.6830127239227295
v -0.3535533845424652 0.7071067690849304 -0.6123724579811096
v -0.5 0.7071067690849304 -0.5
v -0.6123724579811096 0.7071067690849304 -0.3535533845424652
v -0.6830127239227295 0.7071067690849304 -0.1830127090215683
v -0.7071067690849304 0.7071067690849304 -1.7319121206853109e-16
v -0.7933533191680908 0.6087614297866821 0
v -0.7663204669952393 0.6087614297866821 0.20533494651317596
v -0.6870641708374023 0.6087614297866821 0.3966766595840454
v -0.5609855055809021 0.6087614297866821 0.5609855055809021
v -0.3966766595840454 0.6087614297866821 0.6870641708374023
v -0.20533494651317596 0.6087614297866821 0.7663204669952393
v -4.8578881389695923e-17 0.6087614297866821 0.7933533191680908
v 0.20533494651317596 0.6087614297866821 0.7663204669952393
v 0.3966766595840454 0.6087614297866821 0.6870641708374023
v 0.5609855055809021 0.6087614297866821 0.5609855055809021
v 0.6870641708374023 0.6087614297866821 0.3966766595840454
v 0.7663204669952393 0.6087614297866821 0.20533494651317596
v 0.7933533191680908 0.6087614297866821 9.715776277939185e-17
v 0.7663204669952393 0.6087614297866821 -0.20533494651317596
v 0.6870641708374023 0.6087614297866821 -0.3966766595840454
v 0.5609855055809021 0.6087614297866821 -0.5609855055809021
v 0.3966766595840454 0.6087614297866821 -0.6870641708374023
v 0.20533494651317596 0.6087614297866821 -0.7663204669952393
v 1.4573665078653267e-16 0.6087614297866821 -0.7933533191680908
v -0.20533494651317596 0.6087614297866821 -0.7663204669952393
v -0.3966766595840454 0.6087614297866821 -0.6870641708374023
v -0.5609855055809021 0.6087614297866821 -0.5609855055809021
v -0.6870641708374023 0.6087614297866821 -0.3966766595840454
v -0.7663204669952393 0.6087614297866821 -0.20533494651317596
v -0.7933533191680908 0.6087614297866821 -1.943155255587837e-16
v -0.8660253882408142 0.5 0
v -0.8365163207054138 0.5 0.2241438627243042
v -0.75 0.5 0.4330126941204071
v -0.6123724579811096 0.5 0.6123724579811096
v -0.4330126941204071 0.5 0.75
v -0.2241438627243042 0.5 0.8365163207054138
v -5.302876236065149e-17 0.5 0.8660253882408142
v 0.2241438627243042 0.5 0.8365163207054138
v 0.4330126941204071 0.5 0.75
v 0.6123724579811096 0.5 0.6123724579811096
v 0.75 0.5 0.4330126941204071
v 0.8365163207054138 0.5 0.2241438627243042
v 0.8660253882408142 0.5 1.0605752472130298e-16
v 0.8365163207054138 0.5 -0.2241438627243042
v 0.75 0.5 -0.4330126941204071
v 0.6123724579811096 0.5 -0.6123724579811096
v 0.4330126941204071 0.5 -0.75
v 0.2241438627243042 0.5 -0.8365163207054138
v 1.5908628708195447e-16 0.5 -0.8660253882408142
v -0.2241438627243042 0.5 -0.8365163207054138
v -0.4330126941204071 0.5 -0.75
v -0.6123724579811096 0.5 -0.6123724579811096
v -0.75 0.5 -0.4330126941204071
v -0.8365163207054138 0.5 -0.2241438627243042
v -0.8660253882408142 0.5 -2.1211504944260596e-16
v -0.9238795042037964 0.3826834261417389 0
v -0.8923990726470947 0.3826834261417389 0.23911762237548828
v -0.8001031279563904 0.3826834261417389 0.4619397521018982
v -0.6532815098762512 0.3826834261417389 0.6532815098762512
v -0.4619397521018982 0.3826834261417389 0.8001031279563904
v -0.23911762237548828 0.3826834261417389 0.8923990726470947
v -5.657130560897519e-17 0.3826834261417389 0.9238795042037964
v 0.23911762237548828 0.3826834261417389 0.8923990726470947
v 0.4619397521018982 0.3826834261417389 0.8001031279563904
v 0.6532815098762512 0.3826834261417389 0.6532815098762512
v 0.8001031279563904 0.3826834261417389 0.4619397521018982
v 0.8923990726470947 0.3826834261417389 0.23911762237548828
v 0.9238795042037964 0.3826834261417389 1.1314261121795038e-16
v 0.8923990726470947 0.3826834261417389 -0.23911762237548828
v 0.8001031279563904 0.3826834261417389 -0.4619397521018982
v 0.6532815098762512 0.3826834261417389 -0.6532815098762512
v 0.4619397521018982 0.3826834261417389 -0.8001031279563904
v 0.23911762237548828 0.3826834261417389 -0.8923990726470947
v 1.6971391682692557e-16 0.3826834261417389 -0.9238795042037964
v -0.23911762237548828 0.3826834261417389 -0.8923990726470947
v -0.4619397521018982 0.3826834261417389 -0.8001031279563904
v -0.6532815098762512 0.3826834261417389 -0.6532815098762512
v -0.8001031279563904 0.3826834261417389 -0.4619397521018982
v -0.8923990726470947 0.3826834261417389 -0.23911762237548828
v -0.9238795042037964 0.3826834261417389 -2.2628522243590076e-16
v -0.9659258127212524 0.258819043636322 0
v -0.9330127239227295 0.258819043636322 0.25
v -0.8365163207054138 0.258819043636322 0.4829629063606262
v -0.6830127239227295 0.258819043636322 0.6830127239227295
v -0.4829629063606262 0.258819043636322 0.8365163207054138
v -0.25 0.258819043636322 0.9330127239227295
v -5.914589533937914e-17 0.258819043636322 0.9659258127212524
v 0.25 0.258819043636322 0.9330127239227295
v 0.4829629063606262 0.258819043636322 0.8365163207054138
v 0.6830127239227295 0.258819043636322 0.6830127239227295
v 0.8365163207054138 0.258819043636322 0.4829629063606262
v 0.9330127239227295 0.258819043636322 0.25
v 0.9659258127212524 0.258819043636322 1.1829179067875828e-16
v 0.9330127239227295 0.258819043636322 -0.25
v 0.8365163207054138 0.258819043636322 -0.4829629063606262
v 0.6830127239227295 0.258819043636322 -0.6830127239227295
v 0.4829629063606262 0.258819043636322 -0.8365163207054138
v 0.25 0.258819043636322 -0.9330127239227295
v 1.7743769263558231e-16 0.258819043636322 -0.9659258127212524
v -0.25 0.258819043636322 -0.9330127239227295
v -0.4829629063606262 0.258819043636322 -0.8365163207054138
v -0.6830127239227295 0.258819043636322 -0.6830127239227295
v -0.8365163207054138 0.258819043636322 -0.4829629063606262
v -0.9330127239227295 0.258819043636322 -0.25
v -0.9659258127212524 0.258819043636322 -2.3658358135751655e-16
v -0.9914448857307434 0.13052618503570557 0
v -0.9576622247695923 0.13052618503570557 0.2566048204898834
v -0.8586164116859436 0.13052618503570557 0.4957224428653717
v -0.7010573744773865 0.13052618503570557 0.7010573744773865
v -0.4957224428653717 0.13052618503570557 0.8586164116859436
v -0.2566048204898834 0.13052618503570557 0.9576622247695923
v -6.070848583860611e-17 0.13052618503570557 0.9914448857307434
v 0.2566048204898834 0.13052618503570557 0.9576622247695923
v 0.4957224428653717 0.13052618503570557 0.8586164116859436
v 0.7010573744773865 0.13052618503570557 0.7010573744773865
v 0.8586164116859436 0.13052618503570557 0.4957224428653717
v 0.9576622247695923 0.13052618503570557 0.2566048204898834
v 0.9914448857307434 0.13052618503570557 1.2141697167721222e-16
v 0.9576622247695923 0.13052618503570557 -0.2566048204898834
v 0.8586164116859436 0.13052618503570557 -0.4957224428653717
v 0.7010573744773865 0.13052618503570557 -0.7010573744773865
v 0.4957224428653717 0.13052618503570557 -0.8586164116859436
v 0.2566048204898834 0.13052618503570557 -0.9576622247695923
v 1.8212546413326323e-16 0.13052618503570557 -0.9914448857307434
v -0.2566048204898834 0.13052618503570557 -0.9576622247695923
v -0.4957224428653717 0.13052618503570557 -0.8586164116859436
v -0.7010573744773865 0.13052618503570557 -0.7010573744773865
v -0.8586164116859436 0.13052618503570557 -0.4957224428653717
v -0.9576622247695923 0.13052618503570557 -0.2566048204898834
v -0.9914448857307434 0.13052618503570557 -2.4283394335442444e-16
v -1 0 0
v -0.9659258127212524 0 0.258819043636322
v -0.8660253882408142 0 0.5
v -0.7071067690849304 0 0.7071067690849304
v -0.5 0 0.8660253882408142
v -0.258819043636322 0 0.9659258127212524
v -6.123234262925839e-17 0 1
v 0.258819043636322 0 0.9659258127212524
v 0.5 0 0.8660253882408142
v 0.7071067690849304 0 0.7071067690849304
v 0.8660253882408142 0 0.5
v 0.9659258127212524 0 0.258819043636322
v 1 0 1.2246468525851679e-16
v 0.9659258127212524 0 -0.258819043636322
v 0.8660253882408142 0 -0.5
v 0.7071067690849304 0 -0.7071067690849304
v 0.5 0 -0.8660253882408142
v 0.258819043636322 0 -0.9659258127212524
v 1.8369701465288538e-16 0 -1
v -0.258819043636322 0 -0.9659258127212524
v -0.5 0 -0.8660253882408142
v -0.7071067690849304 0 -0.7071067690849304
v -0.8660253882408142 0 -0.5
v -0.9659258127212524 0 -0.258819043636322
v -1 0 -2.4492937051703357e-16
vt 0.02083333395421505 1
vt 0.0625 1
vt 0.1041666641831398 1
vt 0.1458333283662796 1
vt 0.1875 1
vt 0.2291666716337204 1
vt 0.2708333432674408 1
vt 0.3125 1
vt 0.3541666567325592 1
vt 0.3958333432674408 1
vt 0.4375 1
vt 0.4791666567325592 1
vt 0.5208333134651184 1
vt 0.5625 1
vt 0.6041666865348816 1
vt 0.6458333134651184 1
vt 0.6875 1
vt 0.7291666865348816 1
vt 0.7708333134651184 1
vt 0.8125 1
vt 0.8541666865348816 1
vt 0.8958333134651184 1
vt 0.9375 1
vt 0.9791666865348816 1
vt 1.0208333730697632 1
vt 0 0.9166666865348816
vt 0.0416666679084301 0.9166666865348816
vt 0.0833333358168602 0.9166666865348816
vt 0.125 0.9166666865348816
vt 0.1666666716337204 0.9166666865348816
vt 0.2083333283662796 0.9166666865348816
vt 0.25 0.9166666865348816
vt 0.2916666567325592 0.9166666865348816
vt 0.3333333432674408 0.9166666865348816
vt 0.375 0.9166666865348816
vt 0.4166666567325592 0.9166666865348816
vt 0.4583333432674408 0.9166666865348816
vt 0.5 0.9166666865348816
vt 0.5416666865348816 0.9166666865348816
vt 0.5833333134651184 0.9166666865348816
vt 0.625 0.9166666865348816
vt 0.6666666865348816 0.9166666865348816
vt 0.7083333134651184 0.9166666865348816
vt 0.75 0.9166666865348816
vt 0.7916666865348816 0.9166666865348816
vt 0.8333333134651184 0.9166666865348816
vt 0.875 0.9166666865348816
vt 0.9166666865348816 0.9166666865348816
vt 0.9583333134651184 0.9166666865348816
vt 1 0.9166666865348816
vt 0 0.8333333134651184
vt 0.0416666679084301 0.8333333134651184
vt 0.0833333358168602 0.8333333134651184
vt 0.125 0.8333333134651184
vt 0.1666666716337204 0.8333333134651184
vt 0.2083333283662796 0.8333333134651184
vt 0.25 0.8333333134651184
vt 0.2916666567325592 0.8333333134651184
vt 0.3333333432674408 0.8333333134651184
vt 0.375 0.8333333134651184
vt 0.4166666567325592 0.8333333134651184
vt 0.4583333432674408 0.8333333134651184
vt 0.5 0.8333333134651184
vt 0.5416666865348816 0.8333333134651184
vt 0.5833333134651184 0.8333333134651184
vt 0.625 0.8333333134651184
vt 0.6666666865348816 0.8333333134651184
vt 0.7083333134651184 0.8333333134651184
vt 0.75 0.8333333134651184
vt 0.7916666865348816 0.8333333134651184
vt 0.8333333134651184 0.8333333134651184
vt 0.875 0.8333333134651184
vt 0.9166666865348816 0.8333333134651184
vt 0.9583333134651184 0.8333333134651184
vt 1 0.8333333134651184
vt 0 0.75
vt 0.0416666679084301 0.75
vt 0.0833333358168602 0.75
vt 0.125 0.75
vt 0.1666666716337204 0.75
vt 0.2083333283662796 0.75
vt 0.25 0.75
vt 0.2916666567325592 0.75
vt 0.3333333432674408 0.75
vt 0.375 0.75
vt 0.4166666567325592 0.75
vt 0.4583333432674408 0.75
vt 0.5 0.75
vt 0.5416666865348816 0.75
vt 0.5833333134651184 0.75
vt 0.625 0.75
vt 0.6666666865348816 0.75
vt 0.7083333134651184 0.75
vt 0.75 0.75
vt 0.7916666865348816 0.75
vt 0.8333333134651184 0.75
vt 0.875 0.75
vt 0.9166666865348816 0.75
vt 0.9583333134651184 0.75
vt 1 0.75
vt 0 0.6666666865348816
vt 0.0416666679084301 0.6666666865348816
vt 0.0833333358168602 0.6666666865348816
vt 0.125 0.6666666865348816
vt 0.1666666716337204 0.6666666865348816
vt 0.2083333283662796 0.6666666865348816
vt 0.25 0.6666666865348816
vt 0.2916666567325592 0.6666666865348816
vt 0.3333333432674408 0.6666666865348816
vt 0.375 0.6666666865348816
vt 0.4166666567325592 0.6666666865348816
vt 0.4583333432674408 0.6666666865348816
vt 0.5 0.6666666865348816
vt 0.5416666865348816 0.6666666865348816
vt 0.5833333134651184 0.6666666865348816
vt 0.625 0.6666666865348816
vt 0.6666666865348816 0.6666666865348816
vt 0.7083333134651184 0.6666666865348816
vt 0.75 0.6666666865348816
vt 0.7916666865348816 0.6666666865348816
vt 0.8333333134651184 0.6666666865348816
vt 0.875 0.6666666865348816
vt 0.9166666865348816 0.6666666865348816
vt 0.9583333134651184 0.6666666865348816
vt 1 0.6666666865348816
vt 0 0.5833333134651184
vt 0.0416666679084301 0.5833333134651184
vt 0.0833333358168602 0.5833333134651184
vt 0.125 0.5833333134651184
vt 0.1666666716337204 0.5833333134651184
vt 0.2083333283662796 0.5833333134651184
vt 0.25 0.5833333134651184
vt 0.2916666567325592 0.5833333134651184
vt 0.3333333432674408 0.5833333134651184
vt 0.375 0.5833333134651184
vt 0.4166666567325592 0.5833333134651184
vt 0.4583333432674408 0.5833333134651184
vt 0.5 0.5833333134651184
vt 0.5416666865348816 0.5833333134651184
vt 0.5833333134651184 0.5833333134651184
vt 0.625 0.5833333134651184
vt 0.6666666865348816 0.5833333134651184
vt 0.7083333134651184 0.5833333134651184
vt 0.75 0.5833333134651184
vt 0.7916666865348816 0.5833333134651184
vt 0.8333333134651184 0.5833333134651184
vt 0.875 0.5833333134651184
vt 0.9166666865348816 0.5833333134651184
vt 0.9583333134651184 0.5833333134651184
vt 1 0.5833333134651184
vt 0 0.5
vt 0.0416666679084301 0.5
vt 0.0833333358168602 0.5
vt 0.125 0.5
vt 0.1666666716337204 0.5
vt 0.2083333283662796 0.5
vt 0.25 0.5
vt 0.2916666567325592 0.5
vt 0.3333333432674408 0.5
vt 0.375 0.5
vt 0.4166666567325592 0.5
vt 0.4583333432674408 0.5
vt 0.5 0.5
vt 0.5416666865348816 0.5
vt 0.5833333134651184 0.5
vt 0.625 0.5
vt 0.6666666865348816 0.5
vt 0.7083333134651184 0.5
vt 0.75 0.5
vt 0.7916666865348816 0.5
vt 0.8333333134651184 0.5
vt 0.875 0.5
vt 0.9166666865348816 0.5
vt 0.9583333134651184 0.5
vt 1 0.5
vt 0 0.4166666567325592
vt 0.0416666679084301 0.4166666567325592
vt 0.0833333358168602 0.4166666567325592
vt 0.125 0.4166666567325592
vt 0.1666666716337204 0.4166666567325592
vt 0.2083333283662796 0.4166666567325592
vt 0.25 0.4166666567325592
vt 0.2916666567325592 0.4166666567325592
vt 0.3333333432674408 0.4166666567325592
vt 0.375 0.4166666567325592
vt 0.4166666567325592 0.4166666567325592
vt 0.4583333432674408 0.4166666567325592
vt 0.5 0.4166666567325592
vt 0.5416666865348816 0.4166666567325592
vt 0.5833333134651184 0.4166666567325592
vt 0.625 0.4166666567325592
vt 0.6666666865348816 0.4166666567325592
vt 0.7083333134651184 0.4166666567325592
vt 0.75 0.4166666567325592
vt 0.7916666865348816 0.4166666567325592
vt 0.8333333134651184 0.4166666567325592
vt 0.875 0.4166666567325592
vt 0.9166666865348816 0.4166666567325592
vt 0.9583333134651184 0.4166666567325592
vt 1 0.4166666567325592
vt 0 0.3333333432674408
vt 0.0416666679084301 0.3333333432674408
vt 0.0833333358168602 0.3333333432674408
vt 0.125 0.3333333432674408
vt 0.1666666716337204 0.3333333432674408
vt 0.2083333283662796 0.3333333432674408
vt 0.25 0.3333333432674408
vt 0.2916666567325592 0.3333333432674408
vt 0.3333333432674408 0.3333333432674408
vt 0.375 0.3333333432674408
vt 0.4166666567325592 0.3333333432674408
vt 0.4583333432674408 0.3333333432674408
vt 0.5 0.3333333432674408
vt 0.5416666865348816 0.3333333432674408
vt 0.5833333134651184 0.3333333432674408
vt 0.625 0.3333333432674408
vt 0.6666666865348816 0.3333333432674408
vt 0.7083333134651184 0.3333333432674408
vt 0.75 0.3333333432674408
vt 0.7916666865348816 0.3333333432674408
vt 0.8333333134651184 0.3333333432674408
vt 0.875 0.3333333432674408
vt 0.9166666865348816 0.3333333432674408
vt 0.9583333134651184 0.3333333432674408
vt 1 0.3333333432674408
vt 0 0.25
vt 0.0416666679084301 0.25
vt 0.0833333358168602 0.25
vt 0.125 0.25
vt 0.1666666716337204 0.25
vt 0.2083333283662796 0.25
vt 0.25 0.25
vt 0.2916666567325592 0.25
vt 0.3333333432674408 0.25
vt 0.375 0.25
vt 0.4166666567325592 0.25
vt 0.4583333432674408 0.25
vt 0.5 0.25
vt 0.5416666865348816 0.25
vt 0.5833333134651184 0.25
vt 0.625 0.25
vt 0.6666666865348816 0.25
vt 0.7083333134651184 0.25
vt 0.75 0.25
vt 0.7916666865348816 0.25
vt 0.8333333134651184 0.25
vt 0.875 0.25
vt 0.9166666865348816 0.25
vt 0.9583333134651184 0.25
vt 1 0.25
vt 0 0.1666666716337204
vt 0.0416666679084301 0.1666666716337204
vt 0.0833333358168602 0.1666666716337204
vt 0.125 0.1666666716337204
vt 0.1666666716337204 0.1666666716337204
vt 0.2083333283662796 0.1666666716337204
vt 0.25 0.1666666716337204
vt 0.2916666567325592 0.1666666716337204
vt 0.3333333432674408 0.1666666716337204
vt 0.375 0.1666666716337204
vt 0.4166666567325592 0.1666666716337204
vt 0.4583333432674408 0.1666666716337204
vt 0.5 0.1666666716337204
vt 0.5416666865348816 0.1666666716337204
vt 0.5833333134651184 0.1666666716337204
vt 0.625 0.1666666716337204
vt 0.6666666865348816 0.1666666716337204
vt 0.7083333134651184 0.1666666716337204
vt 0.75 0.1666666716337204
vt 0.7916666865348816 0.1666666716337204
vt 0.8333333134651184 0.1666666716337204
vt 0.875 0.1666666716337204
vt 0.9166666865348816 0.1666666716337204
vt 0.9583333134651184 0.1666666716337204
vt 1 0.1666666716337204
vt 0 0.0833333358168602
vt 0.0416666679084301 0.0833333358168602
vt 0.0833333358168602 0.0833333358168602
vt 0.125 0.0833333358168602
vt 0.1666666716337204 0.0833333358168602
vt 0.2083333283662796 0.0833333358168602
vt 0.25 0.0833333358168602
vt 0.2916666567325592 0.0833333358168602
vt 0.3333333432674408 0.0833333358168602
vt 0.375 0.0833333358168602
vt 0.4166666567325592 0.0833333358168602
vt 0.4583333432674408 0.0833333358168602
vt 0.5 0.0833333358168602
vt 0.5416666865348816 0.0833333358168602
vt 0.5833333134651184 0.0833333358168602
vt 0.625 0.0833333358168602
vt 0.6666666865348816 0.0833333358168602
vt 0.7083333134651184 0.0833333358168602
vt 0.75 0.0833333358168602
vt 0.7916666865348816 0.0833333358168602
vt 0.8333333134651184 0.0833333358168602
vt 0.875 0.0833333358168602
vt 0.9166666865348816 0.0833333358168602
vt 0.9583333134651184 0.0833333358168602
vt 1 0.0833333358168602
vt 0 0
vt 0.0416666679084301 0
vt 0.0833333358168602 0
vt 0.125 0
vt 0.1666666716337204 0
vt 0.2083333283662796 0
vt 0.25 0
vt 0.2916666567325592 0
vt 0.3333333432674408 0
vt 0.375 0
vt 0.4166666567325592 0
vt 0.4583333432674408 0
vt 0.5 0
vt 0.5416666865348816 0
vt 0.5833333134651184 0
vt 0.625 0
vt 0.6666666865348816 0
vt 0.7083333134651184 0
vt 0.75 0
vt 0.7916666865348816 0
vt 0.8333333134651184 0
vt 0.875 0
vt 0.9166666865348816 0
vt 0.9583333134651184 0
vt 1 0
vn -0.06540052719533357 0.9978219464134068 0.008610127660646545
vn -0.06094358979249695 0.9978219463584104 0.025243657197747453
vn -0.05233343421027853 0.9978219466945806 0.04015687187015566
vn -0.04015687187015566 0.9978219466945806 0.05233343421027853
vn -0.025243657197747453 0.9978219463584104 0.06094358979249695
vn -0.008610127660646545 0.9978219464134068 0.06540052719533357
vn 0.008610127660646545 0.9978219464134068 0.06540052719533357
vn 0.025243657197747453 0.9978219463584104 0.06094358979249695
vn 0.04015687187015566 0.9978219466945806 0.05233343421027853
vn 0.05233343421027853 0.9978219466945806 0.04015687187015566
vn 0.06094358979249695 0.9978219463584104 0.025243657197747453
vn 0.06540052719533357 0.9978219464134068 0.008610127660646545
vn 0.06540052719533357 0.9978219464134068 -0.008610127660646545
vn 0.06094358979249695 0.9978219463584104 -0.025243657197747453
vn 0.05233343421027853 0.9978219466945806 -0.04015687187015566
vn 0.04015687187015566 0.9978219466945806 -0.05233343421027853
vn 0.025243657197747453 0.9978219463584104 -0.06094358979249695
vn 0.008610127660646545 0.9978219464134068 -0.06540052719533357
vn -0.008610127660646545 0.9978219464134068 -0.06540052719533357
vn -0.025243657197747453 0.9978219463584104 -0.06094358979249695
vn -0.04015687187015566 0.9978219466945806 -0.05233343421027853
vn -0.05233343421027853 0.9978219466945806 -0.04015687187015566
vn -0.06094358979249695 0.9978219463584104 -0.025243657197747453
vn -0.06540052719533357 0.9978219464134068 -0.008610127660646545
vn 0 0 0
vn -0.16275411676299995 0.9864339726696499 0.021426969918030978
vn -0.1446346201634651 0.9883403237261265 0.047583937910872384
vn -0.12739066879262148 0.9883403259340554 0.08339674836067403
vn -0.10146527800805327 0.9883403243811177 0.11352621089852145
vn -0.06862520470499689 0.9883403245381142 0.13591903535227312
vn -0.03110839632047572 0.9883403243238087 0.1490492233923984
vn 0.008528362074520438 0.988340323559308 0.15202194534674446
vn 0.047583937910872384 0.9883403237261265 0.1446346201634651
vn 0.08339674836067403 0.9883403259340554 0.12739066879262148
vn 0.11352621089852145 0.9883403243811177 0.10146527800805327
vn 0.13591903535227312 0.9883403245381142 0.06862520470499689
vn 0.1490492233923984 0.9883403243238087 0.03110839632047572
vn 0.15202194534674446 0.988340323559308 -0.008528362074520438
vn 0.1446346201634651 0.9883403237261265 -0.047583937910872384
vn 0.12739066879262148 0.9883403259340554 -0.08339674836067403
vn 0.10146527800805327 0.9883403243811177 -0.11352621089852145
vn 0.06862520470499689 0.9883403245381142 -0.13591903535227312
vn 0.03110839632047572 0.9883403243238087 -0.1490492233923984
vn -0.008528362074520438 0.988340323559308 -0.15202194534674446
vn -0.047583937910872384 0.9883403237261265 -0.1446346201634651
vn -0.08339674836067403 0.9883403259340554 -0.12739066879262148
vn -0.11352621089852145 0.9883403243811177 -0.10146527800805327
vn -0.13591903535227312 0.9883403245381142 -0.06862520470499689
vn -0.1490492233923984 0.9883403243238087 -0.03110839632047572
vn -0.130506978347289 0.991298503622869 -0.017181540027639452
vn -0.28541678869132503 0.9576665986880141 0.03757582321735084
vn -0.2577837172558174 0.9630752441187291 0.07767643969327603
vn -0.22889583292255528 0.9630752407584622 0.14174899755807638
vn -0.18440902619672778 0.9630752407723719 0.19616164678247397
vn -0.1273550863252798 0.9630752395058823 0.23720616568244615
vn -0.06162209573920144 0.9630752420935571 0.2620854734302248
vn 0.008310340530645407 0.9630752421100001 0.26910409932780527
vn 0.07767643969327603 0.9630752441187291 0.2577837172558174
vn 0.14174899755807638 0.9630752407584622 0.22889583292255528
vn 0.19616164678247397 0.9630752407723719 0.18440902619672778
vn 0.23720616568244615 0.9630752395058823 0.1273550863252798
vn 0.2620854734302248 0.9630752420935571 0.06162209573920144
vn 0.26910409932780527 0.9630752421100001 -0.008310340530645407
vn 0.2577837172558174 0.9630752441187291 -0.07767643969327603
vn 0.22889583292255528 0.9630752407584622 -0.14174899755807638
vn 0.18440902619672778 0.9630752407723719 -0.19616164678247397
vn 0.1273550863252798 0.9630752395058823 -0.23720616568244615
vn 0.06162209573920144 0.9630752420935571 -0.2620854734302248
vn -0.008310340530645407 0.9630752421100001 -0.26910409932780527
vn -0.07767643969327603 0.9630752441187291 -0.2577837172558174
vn -0.14174899755807638 0.9630752407584622 -0.22889583292255528
vn -0.19616164678247397 0.9630752407723719 -0.18440902619672778
vn -0.23720616568244615 0.9630752395058823 -0.1273550863252798
vn -0.2620854734302248 0.9630752420935571 -0.06162209573920144
vn -0.2459195651331331 0.968749383494153 -0.03237590870430579
vn -0.40589392671001606 0.912356625985985 0.053436946763393625
vn -0.3737270471005849 0.9211863123975637 0.10836914743992261
vn -0.33294462361048754 0.9211863058939133 0.20140423888884848
vn -0.2694726046092084 0.921186287403593 0.2807139812419649
vn -0.18763635699084433 0.9211863105782725 0.34089350058103884
vn -0.09301310556310771 0.9211863060117917 0.3778417020524012
vn 0.007948880860896637 0.9211863100543718 0.3890406115837653
vn 0.10836914743992261 0.9211863123975637 0.3737270471005849
vn 0.20140423888884848 0.9211863058939133 0.33294462361048754
vn 0.2807139812419649 0.921186287403593 0.2694726046092084
vn 0.34089350058103884 0.9211863105782725 0.18763635699084433
vn 0.3778417020524012 0.9211863060117917 0.09301310556310771
vn 0.3890406115837653 0.9211863100543718 -0.007948880860896637
vn 0.3737270471005849 0.9211863123975637 -0.10836914743992261
vn 0.33294462361048754 0.9211863058939133 -0.20140423888884848
vn 0.2694726046092084 0.921186287403593 -0.2807139812419649
vn 0.18763635699084433 0.9211863105782725 -0.34089350058103884
vn 0.09301310556310771 0.9211863060117917 -0.3778417020524012
vn -0.007948880860896637 0.9211863100543718 -0.3890406115837653
vn -0.10836914743992261 0.9211863123975637 -0.3737270471005849
vn -0.20140423888884848 0.9211863058939133 -0.33294462361048754
vn -0.2807139812419649 0.921186287403593 -0.2694726046092084
vn -0.34089350058103884 0.9211863105782725 -0.18763635699084433
vn -0.3778417020524012 0.9211863060117917 -0.09301310556310771
vn -0.36690182247741293 0.9290047478851173 -0.048303530612806685
vn -0.5200952247187672 0.8513592409095585 0.06847189308494085
vn -0.4851585504061339 0.8635141035365896 0.13771192381641795
vn -0.4329846763725681 0.8635141182377625 0.2585877754856214
vn -0.3513036651711504 0.8635141212694848 0.3618412596781987
vn -0.24568184723231032 0.8635141082303367 0.44043593725726593
vn -0.12331728424399627 0.8635141104447595 0.4890155707842862
vn 0.007451254892085534 0.8635141273888229 0.5042696011068416
vn 0.13771192381641795 0.8635141035365896 0.4851585504061339
vn 0.2585877754856214 0.8635141182377625 0.4329846763725681
vn 0.3618412596781987 0.8635141212694848 0.3513036651711504
vn 0.44043593725726593 0.8635141082303367 0.24568184723231032
vn 0.4890155707842862 0.8635141104447595 0.12331728424399627
vn 0.5042696011068416 0.8635141273888229 -0.007451254892085534
vn 0.4851585504061339 0.8635141035365896 -0.13771192381641795
vn 0.4329846763725681 0.8635141182377625 -0.2585877754856214
vn 0.3513036651711504 0.8635141212694848 -0.3618412596781987
vn 0.24568184723231032 0.8635141082303367 -0.44043593725726593
vn 0.12331728424399627 0.8635141104447595 -0.4890155707842862
vn -0.007451254892085534 0.8635141273888229 -0.5042696011068416
vn -0.13771192381641795 0.8635141035365896 -0.4851585504061339
vn -0.2585877754856214 0.8635141182377625 -0.4329846763725681
vn -0.3618412596781987 0.8635141212694848 -0.3513036651711504
vn -0.44043593725726593 0.8635141082303367 -0.24568184723231032
vn -0.4890155707842862 0.8635141104447595 -0.12331728424399627
vn -0.4832294075637264 0.8731792728829598 -0.06361837056382368
vn -0.6255515796066133 0.7758239485647084 0.08235546178084202
vn -0.5890898057859049 0.7910606197088421 0.16491299725912356
vn -0.5263345216778585 0.7910605631796186 0.3117613777748688
vn -0.42771032739392895 0.7910605722067731 0.43736374671487216
vn -0.2999383249119142 0.7910606365245568 0.5331604548261227
vn -0.1517261262230829 0.7910605645676851 0.5926232916509376
vn 0.0068259997845270225 0.7910605625052565 0.6116997565602007
vn 0.16491299725912356 0.7910606197088421 0.5890898057859049
vn 0.3117613777748688 0.7910605631796186 0.5263345216778585
vn 0.43736374671487216 0.7910605722067731 0.42771032739392895
vn 0.5331604548261227 0.7910606365245568 0.2999383249119142
vn 0.5926232916509376 0.7910605645676851 0.1517261262230829
vn 0.6116997565602007 0.7910605625052565 -0.0068259997845270225
vn 0.5890898057859049 0.7910606197088421 -0.16491299725912356
vn 0.5263345216778585 0.7910605631796186 -0.3117613777748688
vn 0.42771032739392895 0.7910605722067731 -0.43736374671487216
vn 0.2999383249119142 0.7910606365245568 -0.5331604548261227
vn 0.1517261262230829 0.7910605645676851 -0.5926232916509376
vn -0.0068259997845270225 0.7910605625052565 -0.6116997565602007
vn -0.16491299725912356 0.7910606197088421 -0.5890898057859049
vn -0.3117613777748688 0.7910605631796186 -0.5263345216778585
vn -0.43736374671487216 0.7910605722067731 -0.42771032739392895
vn -0.5331604548261227 0.7910606365245568 -0.2999383249119142
vn -0.5926232916509376 0.7910605645676851 -0.1517261262230829
vn -0.5917119939345327 0.8023767416376705 -0.07790045386860457
vn -0.7203012650288002 0.6871488042279819 0.09482936489276471
vn -0.6833758847811546 0.7050686372941662 0.18940859749156502
vn -0.6110677644565913 0.7050686988642838 0.35982539810837355
vn -0.4971165610010593 0.7050686411907318 0.5057206106022724
vn -0.34928759066184994 0.7050686899784078 0.6171517815106523
vn -0.1776551930353343 0.7050686589974632 0.6865251768778019
vn 0.006083984926542663 0.7050686556556057 0.7091129500576129
vn 0.18940859749156502 0.7050686372941662 0.6833758847811546
vn 0.35982539810837355 0.7050686988642838 0.6110677644565913
vn 0.5057206106022724 0.7050686411907318 0.4971165610010593
vn 0.6171517815106523 0.7050686899784078 0.34928759066184994
vn 0.6865251768778019 0.7050686589974632 0.1776551930353343
vn 0.7091129500576129 0.7050686556556057 -0.006083984926542663
vn 0.6833758847811546 0.7050686372941662 -0.18940859749156502
vn 0.6110677644565913 0.7050686988642838 -0.35982539810837355
vn 0.4971165610010593 0.7050686411907318 -0.5057206106022724
vn 0.34928759066184994 0.7050686899784078 -0.6171517815106523
vn 0.1776551930353343 0.7050686589974632 -0.6865251768778019
vn -0.006083984926542663 0.7050686556556057 -0.7091129500576129
vn -0.18940859749156502 0.7050686372941662 -0.6833758847811546
vn -0.35982539810837355 0.7050686988642838 -0.6110677644565913
vn -0.5057206106022724 0.7050686411907318 -0.4971165610010593
vn -0.6171517815106523 0.7050686899784078 -0.34928759066184994
vn -0.6865251768778019 0.7050686589974632 -0.1776551930353343
vn -0.690158565663998 0.7179313506895638 -0.09086104741676525
vn -0.8027052787890592 0.5869381360901837 0.10567809520974437
vn -0.7662428242920885 0.6070106801019266 0.21073672784562347
vn -0.6855910017599777 0.6070106796638138 0.4018743747489074
vn -0.5582173035885489 0.6070107401297256 0.5656247902465845
vn -0.3928021517478183 0.6070106667133085 0.6908288645377728
vn -0.20061791074712018 0.607010666536502 0.7689541628721259
vn 0.005237874116711438 0.6070106634148297 0.7946764241975636
vn 0.21073672784562347 0.6070106801019266 0.7662428242920885
vn 0.4018743747489074 0.6070106796638138 0.6855910017599777
vn 0.5656247902465845 0.6070107401297256 0.5582173035885489
vn 0.6908288645377728 0.6070106667133085 0.3928021517478183
vn 0.7689541628721259 0.607010666536502 0.20061791074712018
vn 0.7946764241975636 0.6070106634148297 -0.005237874116711438
vn 0.7662428242920885 0.6070106801019266 -0.21073672784562347
vn 0.6855910017599777 0.6070106796638138 -0.4018743747489074
vn 0.5582173035885489 0.6070107401297256 -0.5656247902465845
vn 0.3928021517478183 0.6070106667133085 -0.6908288645377728
vn 0.20061791074712018 0.607010666536502 -0.7689541628721259
vn -0.005237874116711438 0.6070106634148297 -0.7946764241975636
vn -0.21073672784562347 0.6070106801019266 -0.7662428242920885
vn -0.4018743747489074 0.6070106796638138 -0.6855910017599777
vn -0.5656247902465845 0.6070107401297256 -0.5582173035885489
vn -0.6908288645377728 0.6070106667133085 -0.3928021517478183
vn -0.7689541628721259 0.607010666536502 -0.20061791074712018
vn -0.7767997665448358 0.6213883386627761 -0.10226756704744444
vn -0.8714056799673426 0.4769600136996189 0.11472264925598809
vn -0.8361914116103035 0.49856474746600066 0.22851064687084252
vn -0.7485560092197646 0.4985647441909913 0.43714653940154996
vn -0.6099075668434643 0.4985648388255443 0.615991770556997
vn -0.4296951829521555 0.4985646833352779 0.7528580917267925
vn -0.2201996000895667 0.4985647206688301 0.8384183653909345
vn 0.0043021039774981985 0.49856474691646174 0.8668417877753075
vn 0.22851064687084252 0.49856474746600066 0.8361914116103035
vn 0.43714653940154996 0.4985647441909913 0.7485560092197646
vn 0.615991770556997 0.4985648388255443 0.6099075668434643
vn 0.7528580917267925 0.4985646833352779 0.4296951829521555
vn 0.8384183653909345 0.4985647206688301 0.2201996000895667
vn 0.8668417877753075 0.49856474691646174 -0.0043021039774981985
vn 0.8361914116103035 0.49856474746600066 -0.22851064687084252
vn 0.7485560092197646 0.4985647441909913 -0.43714653940154996
vn 0.6099075668434643 0.4985648388255443 -0.615991770556997
vn 0.4296951829521555 0.4985646833352779 -0.7528580917267925
vn 0.2201996000895667 0.4985647206688301 -0.8384183653909345
vn -0.0043021039774981985 0.49856474691646174 -0.8668417877753075
vn -0.22851064687084252 0.49856474746600066 -0.8361914116103035
vn -0.43714653940154996 0.4985647441909913 -0.7485560092197646
vn -0.615991770556997 0.4985648388255443 -0.6099075668434643
vn -0.7528580917267925 0.4985646833352779 -0.4296951829521555
vn -0.8384183653909345 0.4985647206688301 -0.2201996000895667
vn -0.8501728946400061 0.5144689784005337 -0.11192729552233611
vn -0.9253110188418197 0.3591093679747565 0.12181945757014565
vn -0.8919792823528321 0.38158673271282373 0.24241395436500512
vn -0.7988445347457186 0.3815866498950898 0.4650150943020434
vn -0.6512697508720957 0.381586680816308 0.6559263042618367
vn -0.4593119350562541 0.38158676255128365 0.8021372008331926
vn -0.2360529856811511 0.3815866937614426 0.8936837153575226
vn 0.0032926923351676942 0.3815866978537513 0.9243271878497655
vn 0.24241395436500512 0.38158673271282373 0.8919792823528321
vn 0.4650150943020434 0.3815866498950898 0.7988445347457186
vn 0.6559263042618367 0.381586680816308 0.6512697508720957
vn 0.8021372008331926 0.38158676255128365 0.4593119350562541
vn 0.8936837153575226 0.3815866937614426 0.2360529856811511
vn 0.9243271878497655 0.3815866978537513 -0.0032926923351676942
vn 0.8919792823528321 0.38158673271282373 -0.24241395436500512
vn 0.7988445347457186 0.3815866498950898 -0.4650150943020434
vn 0.6512697508720957 0.381586680816308 -0.6559263042618367
vn 0.4593119350562541 0.38158676255128365 -0.8021372008331926
vn 0.2360530096415697 0.381586738208325 -0.8936836900507293
vn -0.0032926923351676942 0.3815866978537513 -0.9243271878497655
vn -0.24241395436500512 0.38158673271282373 -0.8919792823528321
vn -0.4650150943020434 0.3815866498950898 -0.7988445347457186
vn -0.6559263042618367 0.381586680816308 -0.6512697508720957
vn -0.8021372008331926 0.38158676255128365 -0.4593119350562541
vn -0.8936836900507293 0.381586738208325 -0.2360530096415697
vn -0.9090930977127468 0.3990305731337972 -0.11968434064469521
vn -0.9635906719885668 0.2353716320278979 0.12685902290789516
vn -0.9326252840148307 0.2580782446198593 0.2522017035433906
vn -0.8355722839782657 0.2580781522300349 0.4849893046128701
vn -0.6815763738622309 0.25807803970320103 0.6847257640952072
vn -0.4811321578050101 0.25807816225123015 0.8377992055945879
vn -0.24789952635445583 0.2580783305071698 0.9337780250979717
vn 0.0022269468762572313 0.25807830700657786 0.9661214355143088
vn 0.2522017035433906 0.2580782446198593 0.9326252840148307
vn 0.4849893046128701 0.2580781522300349 0.8355722839782657
vn 0.6847257640952072 0.25807803970320103 0.6815763738622309
vn 0.8377992055945879 0.25807816225123015 0.4811321578050101
vn 0.9337780250979717 0.2580783305071698 0.24789952635445583
vn 0.9661214355143088 0.25807830700657786 -0.0022269468762572313
vn 0.9326252840148307 0.2580782446198593 -0.2522017035433906
vn 0.8355722839782657 0.2580781522300349 -0.4849893046128701
vn 0.6815763738622309 0.25807803970320103 -0.6847257640952072
vn 0.4811321578050101 0.25807816225123015 -0.8377992055945879
vn 0.24789955413734888 0.2580783439178277 -0.9337780140157163
vn -0.0022269468762572313 0.25807830700657786 -0.9661214355143088
vn -0.2522017035433906 0.2580782446198593 -0.9326252840148307
vn -0.4849893046128701 0.2580781522300349 -0.8355722839782657
vn -0.6847257640952072 0.25807803970320103 -0.6815763738622309
vn -0.8377992055945879 0.25807816225123015 -0.4811321578050101
vn -0.9337780140157163 0.2580783439178277 -0.24789955413734888
vn -0.9526399425385792 0.27703362852732666 -0.12541733749795472
vn -0.9856677970731565 0.10779551114006197 0.1297656410264416
vn -0.9574183156649089 0.13015277589958954 0.2577021997480817
vn -0.8580968302050155 0.13015276075426388 0.4967193260385066
vn -0.700297512634602 0.130152683372981 0.7018857975544185
vn -0.49477406147828157 0.13015263960073808 0.8592199476811777
vn -0.25553259979942455 0.13015266132810285 0.9579996738981488
vn 0.0011231089324290529 0.13015279537102983 0.9914933123745379
vn 0.2577021997480817 0.13015277589958954 0.9574183156649089
vn 0.4967193260385066 0.13015276075426388 0.8580968302050155
vn 0.7018857975544185 0.130152683372981 0.700297512634602
vn 0.8592199476811777 0.13015263960073808 0.49477406147828157
vn 0.9579996738981488 0.13015266132810285 0.25553259979942455
vn 0.9914933123745379 0.13015279537102983 -0.0011231089324290529
vn 0.9574183156649089 0.13015277589958954 -0.2577021997480817
vn 0.8580968302050155 0.13015276075426388 -0.4967193260385066
vn 0.700297512634602 0.130152683372981 -0.7018857975544185
vn 0.49477406147828157 0.13015263960073808 -0.8592199476811777
vn 0.25553259979942455 0.13015266132810285 -0.9579996738981488
vn -0.0011231089324290529 0.13015279537102983 -0.9914933123745379
vn -0.2577021997480817 0.13015277589958954 -0.9574183156649089
vn -0.4967193260385066 0.13015276075426388 -0.8580968302050155
vn -0.7018857975544185 0.130152683372981 -0.700297512634602
vn -0.8592199476811777 0.13015263960073808 -0.49477406147828157
vn -0.9579996738981488 0.13015266132810285 -0.25553259979942455
vn -0.9801510640623826 0.15050833031937577 -0.1290392735637201
vn -0.9893581586209014 0.06484577620621337 0.1302515231330254
vn -0.9742036703516567 0.06534095270610911 0.21600409387976588
vn -0.8851024739957638 0.0653411316078955 0.46078644407879227
vn -0.7356830466051346 0.06534121386938647 0.6741668789757195
vn -0.5361281027916696 0.06534123409241993 0.8416039332870805
vn -0.3000368740162874 0.06534102485537012 0.9516871464411948
vn -0.043498523954641585 0.06534099642142296 0.9969144560093524
vn 0.21600409387976588 0.06534095270610911 0.9742036703516567
vn 0.46078644407879227 0.0653411316078955 0.8851024739957638
vn 0.6741668789757195 0.06534121386938647 0.7356830466051346
vn 0.8416039332870805 0.06534123409241993 0.5361281027916696
vn 0.9516871464411948 0.06534102485537012 0.3000368740162874
vn 0.9969144560093524 0.06534099642142296 0.043498523954641585
vn 0.9742036703516567 0.06534095270610911 -0.21600409387976588
vn 0.8851024739957638 0.0653411316078955 -0.46078644407879227
vn 0.7356830466051346 0.06534121386938647 -0.6741668789757195
vn 0.5361281027916696 0.06534123409241993 -0.8416039332870805
vn 0.3000368740162874 0.06534102485537012 -0.9516871464411948
vn 0.043498523954641585 0.06534099642142296 -0.9969144560093524
vn -0.21600409387976588 0.06534095270610911 -0.9742036703516567
vn -0.46078644407879227 0.0653411316078955 -0.8851024739957638
vn -0.6741668789757195 0.06534121386938647 -0.7356830466051346
vn -0.8416039332870805 0.06534123409241993 -0.5361281027916696
vn -0.9516871464411948 0.06534102485537012 -0.3000368740162874
vn -0.9893581686836054 0.06484570981053182 -0.13025147975432327
f 1/1/1 26/26/26 27/27/27
f 2/2/2 27/27/27 28/28/28
f 3/3/3 28/28/28 29/29/29
f 4/4/4 29/29/29 30/30/30
f 5/5/5 30/30/30 31/31/31
f 6/6/6 31/31/31 32/32/32
f 7/7/7 32/32/32 33/33/33
f 8/8/8 33/33/33 34/34/34
f 9/9/9 34/34/34 35/35/35
f 10/10/10 35/35/35 36/36/36
f 11/11/11 36/36/36 37/37/37
f 12/12/12 37/37/37 38/38/38
f 13/13/13 38/38/38 39/39/39
f 14/14/14 39/39/39 40/40/40
f 15/15/15 40/40/40 41/41/41
f 16/16/16 41/41/41 42/42/42
f 17/17/17 42/42/42 43/43/43
f 18/18/18 43/43/43 44/44/44
f 19/19/19 44/44/44 45/45/45
f 20/20/20 45/45/45 46/46/46
f 21/21/21 46/46/46 47/47/47
f 22/22/22 47/47/47 48/48/48
f 23/23/23 48/48/48 49/49/49
f 24/24/24 49/49/49 50/50/50
f 27/27/27 26/26/26 52/52/52
f 26/26/26 51/51/51 52/52/52
f 28/28/28 27/27/27 53/53/53
f 27/27/27 52/52/52 53/53/53
f 29/29/29 28/28/28 54/54/54
f 28/28/28 53/53/53 54/54/54
f 30/30/30 29/29/29 55/55/55
f 29/29/29 54/54/54 55/55/55
f 31/31/31 30/30/30 56/56/56
f 30/30/30 55/55/55 56/56/56
f 32/32/32 31/31/31 57/57/57
f 31/31/31 56/56/56 57/57/57
f 33/33/33 32/32/32 58/58/58
f 32/32/32 57/57/57 58/58/58
f 34/34/34 33/33/33 59/59/59
f 33/33/33 58/58/58 59/59/59
f 35/35/35 34/34/34 60/60/60
f 34/34/34 59/59/59 60/60/60
f 36/36/36 35/35/35 61/61/61
f 35/35/35 60/60/60 61/61/61
f 37/37/37 36/36/36 62/62/62
f 36/36/36 61/61/61 62/62/62
f 38/38/38 37/37/37 63/63/63
f 37/37/37 62/62/62 63/63/63
f 39/39/39 38/38/38 64/64/64
f 38/38/38 63/63/63 64/64/64
f 40/40/40 39/39/39 65/65/65
f 39/39/39 64/64/64 65/65/65
f 41/41/41 40/40/40 66/66/66
f 40/40/40 65/65/65 66/66/66
f 42/42/42 41/41/41 67/67/67
f 41/41/41 66/66/66 67/67/67
f 43/43/43 42/42/42 68/68/68
f 42/42/42 67/67/67 68/68/68
f 44/44/44 43/43/43 69/69/69
f 43/43/43 68/68/68 69/69/69
f 45/45/45 44/44/44 70/70/70
f 44/44/44 69/69/69 70/70/70
f 46/46/46 45/45/45 71/71/71
f 45/45/45 70/70/70 71/71/71
f 47/47/47 46/46/46 72/72/72
f 46/46/46 71/71/71 72/72/72
f 48/48/48 47/47/47 73/73/73
f 47/47/47 72/72/72 73/73/73
f 49/49/49 48/48/48 74/74/74
f 48/48/48 73/73/73 74/74/74
f 50/50/50 49/49/49 75/75/75
f 49/49/49 74/74/74 75/75/75
f 52/52/52 51/51/51 77/77/77
f 51/51/51 76/76/76 77/77/77
f 53/53/53 52/52/52 78/78/78
f 52/52/52 77/77/77 78/78/78
f 54/54/54 53/53/53 79/79/79
f 53/53/53 78/78/78 79/79/79
f 55/55/55 54/54/54 80/80/80
f 54/54/54 79/79/79 80/80/80
f 56/56/56 55/55/55 81/81/81
f 55/55/55 80/80/80 81/81/81
f 57/57/57 56/56/56 82/82/82
f 56/56/56 81/81/81 82/82/82
f 58/58/58 57/57/57 83/83/83
f 57/57/57 82/82/82 83/83/83
f 59/59/59 58/58/58 84/84/84
f 58/58/58 83/83/83 84/84/84
f 60/60/60 59/59/59 85/85/85
f 59/59/59 84/84/84 85/85/85
f 61/61/61 60/60/60 86/86/86
f 60/60/60 85/85/85 86/86/86
f 62/62/62 61/61/61 87/87/87
f 61/61/61 86/86/86 87/87/87
f 63/63/63 62/62/62 88/88/88
f 62/62/62 87/87/87 88/88/88
f 64/64/64 63/63/63 89/89/89
f 63/63/63 88/88/88 89/89/89
f 65/65/65 64/64/64 90/90/90
f 64/64/64 89/89/89 90/90/90
f 66/66/66 65/65/65 91/91/91
f 65/65/65 90/90/90 91/91/91
f 67/67/67 66/66/66 92/92/92
f 66/66/66 91/91/91 92/92/92
f 68/68/68 67/67/67 93/93/93
f 67/67/67 92/92/92 93/93/93
f 69/69/69 68/68/68 94/94/94
f 68/68/68 93/93/93 94/94/94
f 70/70/70 69/69/69 95/95/95
f 69/69/69 94/94/94 95/95/95
f 71/71/71 70/70/70 96/96/96
f 70/70/70 95/95/95 96/96/96
f 72/72/72 71/71/71 97/97/97
f 71/71/71 96/96/96 97/97/97
f 73/73/73 72/72/72 98/98/98
f 72/72/72 97/97/97 98/98/98
f 74/74/74 73/73/73 99/99/99
f 73/73/73 98/98/98 99/99/99
f 75/75/75 74/74/74 100/100/100
f 74/74/74 99/99/99 100/100/100
f 77/77/77 76/76/76 102/102/102
f 76/76/76 101/101/101 102/102/102
f 78/78/78 77/77/77 103/103/103
f 77/77/77 102/102/102 103/103/103
f 79/79/79 78/78/78 104/104/104
f 78/78/78 103/103/103 104/104/104
f 80/80/80 79/79/79 105/105/105
f 79/79/79 104/104/104 105/105/105
f 81/81/81 80/80/80 106/106/106
f 80/80/80 105/105/105 106/106/106
f 82/82/82 81/81/81 107/107/107
f 81/81/81 106/106/106 107/107/107
f 83/83/83 82/82/82 108/108/108
f 82/82/82 107/107/107 108/108/108
f 84/84/84 83/83/83 109/109/109
f 83/83/83 108/108/108 109/109/109
f 85/85/85 84/84/84 110/110/110
f 84/84/84 109/109/109 110/110/110
f 86/86/86 85/85/85 111/111/111
f 85/85/85 110/110/110 111/111/111
f 87/87/87 86/86/86 112/112/112
f 86/86/86 111/111/111 112/112/112
f 88/88/88 87/87/87 113/113/113
f 87/87/87 112/112/112 113/113/113
f 89/89/89 88/88/88 114/114/114
f 88/88/88 113/113/113 114/114/114
f 90/90/90 89/89/89 115/115/115
f 89/89/89 114/114/114 115/115/115
f 91/91/91 90/90/90 116/116/116
f 90/90/90 115/115/115 116/116/116
f 92/92/92 91/91/91 117/117/117
f 91/91/91 116/116/116 117/117/117
f 93/93/93 92/92/92 118/118/118
f 92/92/92 117/117/117 118/118/118
f 94/94/94 93/93/93 119/119/119
f 93/93/93 118/118/118 119/119/119
f 95/95/95 94/94/94 120/120/120
f 94/94/94 119/119/119 120/120/120
f 96/96/96 95/95/95 121/121/121
f 95/95/95 120/120/120 121/121/121
f 97/97/97 96/96/96 122/122/122
f 96/96/96 121/121/121 122/122/122
f 98/98/98 97/97/97 123/123/123
f 97/97/97 122/122/122 123/123/123
f 99/99/99 98/98/98 124/124/124
f 98/98/98 123/123/123 124/124/124
f 100/100/100 99/99/99 125/125/125
f 99/99/99 124/124/124 125/125/125
f 102/102/102 101/101/101 127/127/127
f 101/101/101 126/126/126 127/127/127
f 103/103/103 102/102/102 128/128/128
f 102/102/102 127/127/127 128/128/128
f 104/104/104 103/103/103 129/129/129
f 103/103/103 128/128/128 129/129/129
f 105/105/105 104/104/104 130/130/130
f 104/104/104 129/129/129 130/130/130
f 106/106/106 105/105/105 131/131/131
f 105/105/105 130/130/130 131/131/131
f 107/107/107 106/106/106 132/132/132
f 106/106/106 131/131/131 132/132/132
f 108/108/108 107/107/107 133/133/133
f 107/107/107 132/132/132 133/133/133
f 109/109/109 108/108/108 134/134/134
f 108/108/108 133/133/133 134/134/134
f 110/110/110 109/109/109 135/135/135
f 109/109/109 134/134/134 135/135/135
f 111/111/111 110/110/110 136/136/136
f 110/110/110 135/135/135 136/136/136
f 112/112/112 111/111/111 137/137/137
f 111/111/111 136/136/136 137/137/137
f 113/113/113 112/112/112 138/138/138
f 112/112/112 137/137/137 138/138/138
f 114/114/114 113/113/113 139/139/139
f 113/113/113 138/138/138 139/139/139
f 115/115/115 114/114/114 140/140/140
f 114/114/114 139/139/139 140/140/140
f 116/116/116 115/115/115 141/141/141
f 115/115/115 140/140/140 141/141/141
f 117/117/117 116/116/116 142/142/142
f 116/116/116 141/141/141 142/142/142
f 118/118/118 117/117/117 143/143/143
f 117/117/117 142/142/142 143/143/143
f 119/119/119 118/118/118 144/144/144
f 118/118/118 143/143/143 144/144/144
f 120/120/120 119/119/119 145/145/145
f 119/119/119 144/144/144 145/145/145
f 121/121/121 120/120/120 146/146/146
f 120/120/120 145/145/145 146/146/146
f 122/122/122 121/121/121 147/147/147
f 121/121/121 146/146/146 147/147/147
f 123/123/123 122/122/122 148/148/148
f 122/122/122 147/147/147 148/148/148
f 124/124/124 123/123/123 149/149/149
f 123/123/123 148/148/148 149/149/149
f 125/125/125 124/124/124 150/150/150
f 124/124/124 149/149/149 150/150/150
f 127/127/127 126/126/126 152/152/152
f 126/126/126 151/151/151 152/152/152
f 128/128/128 127/127/127 153/153/153
f 127/127/127 152/152/152 153/153/153
f 129/129/129 128/128/128 154/154/154
f 128/128/128 153/153/153 154/154/154
f 130/130/130 129/129/129 155/155/155
f 129/129/129 154/154/154 155/155/155
f 131/131/131 130/130/130 156/156/156
f 130/130/130 155/155/155 156/156/156
f 132/132/132 131/131/131 157/157/157
f 131/131/131 156/156/156 157/157/157
f 133/133/133 132/132/132 158/158/158
f 132/132/132 157/157/157 158/158/158
f 134/134/134 133/133/133 159/159/159
f 133/133/133 158/158/158 159/159/159
f 135/135/135 134/134/134 160/160/160
f 134/134/134 159/159/159 160/160/160
f 136/136/136 135/135/135 161/161/161
f 135/135/135 160/160/160 161/161/161
f 137/137/137 136/136/136 162/162/162
f 136/136/136 161/161/161 162/162/162
f 138/138/138 137/137/137 163/163/163
f 137/137/137 162/162/162 163/163/163
f 139/139/139 138/138/138 164/164/164
f 138/138/138 163/163/163 164/164/164
f 140/140/140 139/139/139 165/165/165
f 139/139/139 164/164/164 165/165/165
f 141/141/141 140/140/140 166/166/166
f 140/140/140 165/165/165 166/166/166
f 142/142/142 141/141/141 167/167/167
f 141/141/141 166/166/166 167/167/167
f 143/143/143 142/142/142 168/168/168
f 142/142/142 167/167/167 168/168/168
f 144/144/144 143/143/143 169/169/169
f 143/143/143 168/168/168 169/169/169
f 145/145/145 144/144/144 170/170/170
f 144/144/144 169/169/169 170/170/170
f 146/146/146 145/145/145 171/171/171
f 145/145/145 170/170/170 171/171/171
f 147/147/147 146/146/146 172/172/172
f 146/146/146 171/171/171 172/172/172
f 148/148/148 147/147/147 173/173/173
f 147/147/147 172/172/172 173/173/173
f 149/149/149 148/148/148 174/174/174
f 148/148/148 173/173/173 174/174/174
f 150/150/150 149/149/149 175/175/175
f 149/149/149 174/174/174 175/175/175
f 152/152/152 151/151/151 177/177/177
f 151/151/151 176/176/176 177/177/177
f 153/153/153 152/152/152 178/178/178
f 152/152/152 177/177/177 178/178/178
f 154/154/154 153/153/153 179/179/179
f 153/153/153 178/178/178 179/179/179
f 155/155/155 154/154/154 180/180/180
f 154/154/154 179/179/179 180/180/180
f 156/156/156 155/155/155 181/181/181
f 155/155/155 180/180/180 181/181/181
f 157/157/157 156/156/156 182/182/182
f 156/156/156 181/181/181 182/182/182
f 158/158/158 157/157/157 183/183/183
f 157/157/157 182/182/182 183/183/183
f 159/159/159 158/158/158 184/184/184
f 158/158/158 183/183/183 184/184/184
f 160/160/160 159/159/159 185/185/185
f 159/159/159 184/184/184 185/185/185
f 161/161/161 160/160/160 186/186/186
f 160/160/160 185/185/185 186/186/186
f 162/162/162 161/161/161 187/187/187
f 161/161/161 186/186/186 187/187/187
f 163/163/163 162/162/162 188/188/188
f 162/162/162 187/187/187 188/188/188
f 164/164/164 163/163/163 189/189/189
f 163/163/163 188/188/188 189/189/189
f 165/165/165 164/164/164 190/190/190
f 164/164/164 189/189/189 190/190/190
f 166/166/166 165/165/165 191/191/191
f 165/165/165 190/190/190 191/191/191
f 167/167/167 166/166/166 192/192/192
f 166/166/166 191/191/191 192/192/192
f 168/168/168 167/167/167 193/193/193
f 167/167/167 192/192/192 193/193/193
f 169/169/169 168/168/168 194/194/194
f 168/168/168 193/193/193 194/194/194
f 170/170/170 169/169/169 195/195/195
f 169/169/169 194/194/194 195/195/195
f 171/171/171 170/170/170 196/196/196
f 170/170/170 195/195/195 196/196/196
f 172/172/172 171/171/171 197/197/197
f 171/171/171 196/196/196 197/197/197
f 173/173/173 172/172/172 198/198/198
f 172/172/172 197/197/197 198/198/198
f 174/174/174 173/173/173 199/199/199
f 173/173/173 198/198/198 199/199/199
f 175/175/175 174/174/174 200/200/200
f 174/174/174 199/199/199 200/200/200
f 177/177/177 176/176/176 202/202/202
f 176/176/176 201/201/201 202/202/202
f 178/178/178 177/177/177 203/203/203
f 177/177/177 202/202/202 203/203/203
f 179/179/179 178/178/178 204/204/204
f 178/178/178 203/203/203 204/204/204
f 180/180/180 179/179/179 205/205/205
f 179/179/179 204/204/204 205/205/205
f 181/181/181 180/180/180 206/206/206
f 180/180/180 205/205/205 206/206/206
f 182/182/182 181/181/181 207/207/207
f 181/181/181 206/206/206 207/207/207
f 183/183/183 182/182/182 208/208/208
f 182/182/182 207/207/207 208/208/208
f 184/184/184 183/183/183 209/209/209
f 183/183/183 208/208/208 209/209/209
f 185/185/185 184/184/184 210/210/210
f 184/184/184 209/209/209 210/210/210
f 186/186/186 185/185/185 211/211/211
f 185/185/185 210/210/210 211/211/211
f 187/187/187 186/186/186 212/212/212
f 186/186/186 211/211/211 212/212/212
f 188/188/188 187/187/187 213/213/213
f 187/187/187 212/212/212 213/213/213
f 189/189/189 188/188/188 214/214/214
f 188/188/188 213/213/213 214/214/214
f 190/190/190 189/189/189 215/215/215
f 189/189/189 214/214/214 215/215/215
f 191/191/191 190/190/190 216/216/216
f 190/190/190 215/215/215 216/216/216
f 192/192/192 191/191/191 217/217/217
f 191/191/191 216/216/216 217/217/217
f 193/193/193 192/192/192 218/218/218
f 192/192/192 217/217/217 218/218/218
f 194/194/194 193/193/193 219/219/219
f 193/193/193 218/218/218 219/219/219
f 195/195/195 194/194/194 220/220/220
f 194/194/194 219/219/219 220/220/220
f 196/196/196 195/195/195 221/221/221
f 195/195/195 220/220/220 221/221/221
f 197/197/197 196/196/196 222/222/222
f 196/196/196 221/221/221 222/222/222
f 198/198/198 197/197/197 223/223/223
f 197/197/197 222/222/222 223/223/223
f 199/199/199 198/198/198 224/224/224
f 198/198/198 223/223/223 224/224/224
f 200/200/200 199/199/199 225/225/225
f 199/199/199 224/224/224 225/225/225
f 202/202/202 201/201/201 227/227/227
f 201/201/201 226/226/226 227/227/227
f 203/203/203 202/202/202 228/228/228
f 202/202/202 227/227/227 228/228/228
f 204/204/204 203/203/203 229/229/229
f 203/203/203 228/228/228 229/229/229
f 205/205/205 204/204/204 230/230/230
f 204/204/204 229/229/229 230/230/230
f 206/206/206 205/205/205 231/231/231
f 205/205/205 230/230/230 231/231/231
f 207/207/207 206/206/206 232/232/232
f 206/206/206 231/231/231 232/232/232
f 208/208/208 207/207/207 233/233/233
f 207/207/207 232/232/232 233/233/233
f 209/209/209 208/208/208 234/234/234
f 208/208/208 233/233/233 234/234/234
f 210/210/210 209/209/209 235/235/235
f 209/209/209 234/234/234 235/235/235
f 211/211/211 210/210/210 236/236/236
f 210/210/210 235/235/235 236/236/236
f 212/212/212 211/211/211 237/237/237
f 211/211/211 236/236/236 237/237/237
f 213/213/213 212/212/212 238/238/238
f 212/212/212 237/237/237 238/238/238
f 214/214/214 213/213/213 239/239/239
f 213/213/213 238/238/238 239/239/239
f 215/215/215 214/214/214 240/240/240
f 214/214/214 239/239/239 240/240/240
f 216/216/216 215/215/215 241/241/241
f 215/215/215 240/240/240 241/241/241
f 217/217/217 216/216/216 242/242/242
f 216/216/216 241/241/241 242/242/242
f 218/218/218 217/217/217 243/243/243
f 217/217/217 242/242/242 243/243/243
f 219/219/219 218/218/218 244/244/244
f 218/218/218 243/243/243 244/244/244
f 220/220/220 219/219/219 245/245/245
f 219/219/219 244/244/244 245/245/245
f 221/221/221 220/220/220 246/246/246
f 220/220/220 245/245/245 246/246/246
f 222/222/222 221/221/221 247/247/247
f 221/221/221 246/246/246 247/247/247
f 223/223/223 222/222/222 248/248/248
f 222/222/222 247/247/247 248/248/248
f 224/224/224 223/223/223 249/249/249
f 223/223/223 248/248/248 249/249/249
f 225/225/225 224/224/224 250/250/250
f 224/224/224 249/249/249 250/250/250
f 227/227/227 226/226/226 252/252/252
f 226/226/226 251/251/251 252/252/252
f 228/228/228 227/227/227 253/253/253
f 227/227/227 252/252/252 253/253/253
f 229/229/229 228/228/228 254/254/254
f 228/228/228 253/253/253 254/254/254
f 230/230/230 229/229/229 255/255/255
f 229/229/229 254/254/254 255/255/255
f 231/231/231 230/230/230 256/256/256
f 230/230/230 255/255/255 256/256/256
f 232/232/232 231/231/231 257/257/257
f 231/231/231 256/256/256 257/257/257
f 233/233/233 232/232/232 258/258/258
f 232/232/232 257/257/257 258/258/258
f 234/234/234 233/233/233 259/259/259
f 233/233/233 258/258/258 259/259/259
f 235/235/235 234/234/234 260/260/260
f 234/234/234 259/259/259 260/260/260
f 236/236/236 235/235/235 261/261/261
f 235/235/235 260/260/260 261/261/261
f 237/237/237 236/236/236 262/262/262
f 236/236/236 261/261/261 262/262/262
f 238/238/238 237/237/237 263/263/263
f 237/237/237 262/262/262 263/263/263
f 239/239/239 238/238/238 264/264/264
f 238/238/238 263/263/263 264/264/264
f 240/240/240 239/239/239 265/265/265
f 239/239/239 264/264/264 265/265/265
f 241/241/241 240/240/240 266/266/266
f 240/240/240 265/265/265 266/266/266
f 242/242/242 241/241/241 267/267/267
f 241/241/241 266/266/266 267/267/267
f 243/243/243 242/242/242 268/268/268
f 242/242/242 267/267/267 268/268/268
f 244/244/244 243/243/243 269/269/269
f 243/243/243 268/268/268 269/269/269
f 245/245/245 244/244/244 270/270/270
f 244/244/244 269/269/269 270/270/270
f 246/246/246 245/245/245 271/271/271
f 245/245/245 270/270/270 271/271/271
f 247/247/247 246/246/246 272/272/272
f 246/246/246 271/271/271 272/272/272
f 248/248/248 247/247/247 273/273/273
f 247/247/247 272/272/272 273/273/273
f 249/249/249 248/248/248 274/274/274
f 248/248/248 273/273/273 274/274/274
f 250/250/250 249/249/249 275/275/275
f 249/249/249 274/274/274 275/275/275
f 252/252/252 251/251/251 277/277/277
f 251/251/251 276/276/276 277/277/277
f 253/253/253 252/252/252 278/278/278
f 252/252/252 277/277/277 278/278/278
f 254/254/254 253/253/253 279/279/279
f 253/253/253 278/278/278 279/279/279
f 255/255/255 254/254/254 280/280/280
f 254/254/254 279/279/279 280/280/280
f 256/256/256 255/255/255 281/281/281
f 255/255/255 280/280/280 281/281/281
f 257/257/257 256/256/256 282/282/282
f 256/256/256 281/281/281 282/282/282
f 258/258/258 257/257/257 283/283/283
f 257/257/257 282/282/282 283/283/283
f 259/259/259 258/258/258 284/284/284
f 258/258/258 283/283/283 284/284/284
f 260/260/260 259/259/259 285/285/285
f 259/259/259 284/284/284 285/285/285
f 261/261/261 260/260/260 286/286/286
f 260/260/260 285/285/285 286/286/286
f 262/262/262 261/261/261 287/287/287
f 261/261/261 286/286/286 287/287/287
f 263/263/263 262/262/262 288/288/288
f 262/262/262 287/287/287 288/288/288
f 264/264/264 263/263/263 289/289/289
f 263/263/263 288/288/288 289/289/289
f 265/265/265 264/264/264 290/290/290
f 264/264/264 289/289/289 290/290/290
f 266/266/266 265/265/265 291/291/291
f 265/265/265 290/290/290 291/291/291
f 267/267/267 266/266/266 292/292/292
f 266/266/266 291/291/291 292/292/292
f 268/268/268 267/267/267 293/293/293
f 267/267/267 292/292/292 293/293/293
f 269/269/269 268/268/268 294/294/294
f 268/268/268 293/293/293 294/294/294
f 270/270/270 269/269/269 295/295/295
f 269/269/269 294/294/294 295/295/295
f 271/271/271 270/270/270 296/296/296
f 270/270/270 295/295/295 296/296/296
f 272/272/272 271/271/271 297/297/297
f 271/271/271 296/296/296 297/297/297
f 273/273/273 272/272/272 298/298/298
f 272/272/272 297/297/297 298/298/298
f 274/274/274 273/273/273 299/299/299
f 273/273/273 298/298/298 299/299/299
f 275/275/275 274/274/274 300/300/300
f 274/274/274 299/299/299 300/300/300
f 277/277/277 276/276/276 302/302/302
f 276/276/276 301/301/301 302/302/302
f 278/278/278 277/277/277 303/303/303
f 277/277/277 302/302/302 303/303/303
f 279/279/279 278/278/278 304/304/304
f 278/278/278 303/303/303 304/304/304
f 280/280/280 279/279/279 305/305/305
f 279/279/279 304/304/304 305/305/305
f 281/281/281 280/280/280 306/306/306
f 280/280/280 305/305/305 306/306/306
f 282/282/282 281/281/281 307/307/307
f 281/281/281 306/306/306 307/307/307
f 283/283/283 282/282/282 308/308/308
f 282/282/282 307/307/307 308/308/308
f 284/284/284 283/283/283 309/309/309
f 283/283/283 308/308/308 309/309/309
f 285/285/285 284/284/284 310/310/310
f 284/284/284 309/309/309 310/310/310
f 286/286/286 285/285/285 311/311/311
f 285/285/285 310/310/310 311/311/311
f 287/287/287 286/286/286 312/312/312
f 286/286/286 311/311/311 312/312/312
f 288/288/288 287/287/287 313/313/313
f 287/287/287 312/312/312 313/313/313
f 289/289/289 288/288/288 314/314/314
f 288/288/288 313/313/313 314/314/314
f 290/290/290 289/289/289 315/315/315
f 289/289/289 314/314/314 315/315/315
f 291/291/291 290/290/290 316/316/316
f 290/290/290 315/315/315 316/316/316
f 292/292/292 291/291/291 317/317/317
f 291/291/291 316/316/316 317/317/317
f 293/293/293 292/292/292 318/318/318
f 292/292/292 317/317/317 318/318/318
f 294/294/294 293/293/293 319/319/319
f 293/293/293 318/318/318 319/319/319
f 295/295/295 294/294/294 320/320/320
f 294/294/294 319/319/319 320/320/320
f 296/296/296 295/295/295 321/321/321
f 295/295/295 320/320/320 321/321/321
f 297/297/297 296/296/296 322/322/322
f 296/296/296 321/321/321 322/322/322
f 298/298/298 297/297/297 323/323/323
f 297/297/297 322/322/322 323/323/323
f 299/299/299 298/298/298 324/324/324
f 298/298/298 323/323/323 324/324/324
f 300/300/300 299/299/299 325/325/325
f 299/299/299 324/324/324 325/325/325
