o shape_008
v 1 1 0
v 0.9807853102684021 1.1950902938842773 0
v 0.9238795638084412 1.382683515548706 0
v 0.8314695954322815 1.555570125579834 0
v 0.7071068286895752 1.7071068286895752 0
v 0.5555702447891235 1.8314696550369263 0
v 0.3826834559440613 1.9238795042037964 0
v 0.19509032368659973 1.9807852506637573 0
v 6.123234262925839e-17 2 0
v -0.19509032368659973 1.9807852506637573 0
v -0.3826834559440613 1.9238795042037964 0
v -0.5555702447891235 1.8314696550369263 0
v -0.7071068286895752 1.7071068286895752 0
v -0.8314695954322815 1.555570125579834 0
v -0.9238795638084412 1.382683515548706 0
v -0.9807853102684021 1.1950902938842773 0
v -1 1 0
v -0.9807853102684021 0.8049097061157227 0
v -0.9238795638084412 0.6173165440559387 0
v -0.8314695954322815 0.44442975521087646 0
v -0.7071068286895752 0.2928932011127472 0
v -0.5555702447891235 0.1685303896665573 0
v -0.3826834559440613 0.07612045109272003 0
v -0.19509032368659973 0.019214704632759094 0
v -1.8369701465288538e-16 0 0
v 0.19509032368659973 0.019214704632759094 0
v 0.3826834559440613 0.07612045109272003 0
v 0.5555702447891235 0.1685303896665573 0
v 0.7071068286895752 0.2928932011127472 0
v 0.8314695954322815 0.44442975521087646 0
v 0.9238795638084412 0.6173165440559387 0
v 0.9807853102684021 0.8049097061157227 0
v 1 1 0
v 0.969082772731781 1 0.11538462340831757
v 0.9504622220993042 1.1890586614608765 0.11538462340831757
v 0.8953158259391785 1.370851993560791 0.11538462340831757
v 0.8057629466056824 1.538393497467041 0.11538462340831757
v 0.6852450370788574 1.685245156288147 0.11538462340831757
v 0.5383935570716858 1.8057628870010376 0.11538462340831757
v 0.37085193395614624 1.8953158855438232 0.11538462340831757
v 0.18905869126319885 1.9504621028900146 0.11538462340831757
v 5.933921075725523e-17 1.9690828323364258 0.11538462340831757
v -0.18905869126319885 1.9504621028900146 0.11538462340831757
v -0.37085193395614624 1.8953158855438232 0.11538462340831757
v -0.5383935570716858 1.8057628870010376 0.11538462340831757
v -0.6852450370788574 1.685245156288147 0.11538462340831757
v -0.8057629466056824 1.538393497467041 0.11538462340831757
v -0.8953158259391785 1.370851993560791 0.11538462340831757
v -0.9504622220993042 1.1890586614608765 0.11538462340831757
v -0.969082772731781 1 0.11538462340831757
v -0.9504622220993042 0.8109412789344788 0.11538462340831757
v -0.8953158259391785 0.6291480660438538 0.11538462340831757
v -0.8057629466056824 0.4616064429283142 0.11538462340831757
v -0.6852450370788574 0.3147549331188202 0.11538462340831757
v -0.5383935570716858 0.19423705339431763 0.11538462340831757
v -0.37085193395614624 0.10468418896198273 0.11538462340831757
v -0.18905869126319885 0.049537789076566696 0.11538462340831757
v -1.780176190368759e-16 0.030917204916477203 0.11538462340831757
v 0.18905869126319885 0.049537789076566696 0.11538462340831757
v 0.37085193395614624 0.10468418896198273 0.11538462340831757
v 0.5383935570716858 0.19423705339431763 0.11538462340831757
v 0.6852450370788574 0.3147549331188202 0.11538462340831757
v 0.8057629466056824 0.4616064429283142 0.11538462340831757
v 0.8953158259391785 0.6291480660438538 0.11538462340831757
v 0.9504622220993042 0.8109412789344788 0.11538462340831757
v 0.969082772731781 1 0.11538462340831757
v 0.884615421295166 1 0.19985201954841614
v 0.8676177859306335 1.1725798845291138 0.19985201954841614
v 0.8172780871391296 1.3385275602340698 0.19985201954841614
v 0.7355308532714844 1.4914660453796387 0.19985201954841614
v 0.6255175471305847 1.6255176067352295 0.19985201954841614
v 0.4914659857749939 1.7355308532714844 0.19985201954841614
v 0.338527649641037 1.8172781467437744 0.19985201954841614
v 0.17257989943027496 1.8676178455352783 0.19985201954841614
v 5.416707207136531e-17 1.8846153020858765 0.19985201954841614
v -0.17257989943027496 1.8676178455352783 0.19985201954841614
v -0.338527649641037 1.8172781467437744 0.19985201954841614
v -0.4914659857749939 1.7355308532714844 0.19985201954841614
v -0.6255175471305847 1.6255176067352295 0.19985201954841614
v -0.7355308532714844 1.4914660453796387 0.19985201954841614
v -0.8172780871391296 1.3385275602340698 0.19985201954841614
v -0.8676177859306335 1.1725798845291138 0.19985201954841614
v -0.884615421295166 1 0.19985201954841614
v -0.8676177859306335 0.8274200558662415 0.19985201954841614
v -0.8172780871391296 0.6614723205566406 0.19985201954841614
v -0.7355308532714844 0.5085340142250061 0.19985201954841614
v -0.6255175471305847 0.3744824230670929 0.19985201954841614
v -0.4914659857749939 0.264469176530838 0.19985201954841614
v -0.338527649641037 0.18272189795970917 0.19985201954841614
v -0.17257989943027496 0.13238219916820526 0.19985201954841614
v -1.625012195228184e-16 0.11538460105657578 0.19985201954841614
v 0.17257989943027496 0.13238219916820526 0.19985201954841614
v 0.338527649641037 0.18272189795970917 0.19985201954841614
v 0.4914659857749939 0.264469176530838 0.19985201954841614
v 0.6255175471305847 0.3744824230670929 0.19985201954841614
v 0.7355308532714844 0.5085340142250061 0.19985201954841614
v 0.8172780871391296 0.6614723205566406 0.19985201954841614
v 0.8676177859306335 0.8274200558662415 0.19985201954841614
v 0.884615421295166 1 0.19985201954841614
v 0.7692307829856873 1 0.23076924681663513
v 0.7544502019882202 1.1500694751739502 0.23076924681663513
v 0.7106765508651733 1.2943718433380127 0.23076924681663513
v 0.6395919919013977 1.4273617267608643 0.23076924681663513
v 0.543928325176239 1.5439283847808838 0.23076924681663513
v 0.42736175656318665 1.639591932296753 0.23076924681663513
v 0.2943718731403351 1.7106764316558838 0.23076924681663513
v 0.1500694900751114 1.7544500827789307 0.23076924681663513
v 4.710180482219468e-17 1.769230842590332 0.23076924681663513
v -0.1500694900751114 1.7544500827789307 0.23076924681663513
v -0.2943718731403351 1.7106764316558838 0.23076924681663513
v -0.42736175656318665 1.639591932296753 0.23076924681663513
v -0.543928325176239 1.5439283847808838 0.23076924681663513
v -0.6395919919013977 1.4273617267608643 0.23076924681663513
v -0.7106765508651733 1.2943718433380127 0.23076924681663513
v -0.7544502019882202 1.1500694751739502 0.23076924681663513
v -0.7692307829856873 1 0.23076924681663513
v -0.7544502019882202 0.8499305248260498 0.23076924681663513
v -0.7106765508651733 0.7056281566619873 0.23076924681663513
v -0.6395919919013977 0.5726382732391357 0.23076924681663513
v -0.543928325176239 0.4560717046260834 0.23076924681663513
v -0.42736175656318665 0.3604079782962799 0.23076924681663513
v -0.2943718731403351 0.2893234193325043 0.23076924681663513
v -0.1500694900751114 0.2455497831106186 0.23076924681663513
v -1.413053979229718e-16 0.23076920211315155 0.23076924681663513
v 0.1500694900751114 0.2455497831106186 0.23076924681663513
v 0.2943718731403351 0.2893234193325043 0.23076924681663513
v 0.42736175656318665 0.3604079782962799 0.23076924681663513
v 0.543928325176239 0.4560717046260834 0.23076924681663513
v 0.6395919919013977 0.5726382732391357 0.23076924681663513
v 0.7106765508651733 0.7056281566619873 0.23076924681663513
v 0.7544502019882202 0.8499305248260498 0.23076924681663513
v 0.7692307829856873 1 0.23076924681663513
v 0.6538462042808533 1 0.19985201954841614
v 0.6412827372550964 1.1275590658187866 0.19985201954841614
v 0.6040751338005066 1.2502161264419556 0.19985201954841614
v 0.5436531901359558 1.3632575273513794 0.19985201954841614
v 0.4623390734195709 1.462339162826538 0.19985201954841614
v 0.3632574677467346 1.5436532497406006 0.19985201954841614
v 0.2502160966396332 1.6040750741958618 0.19985201954841614
v 0.12755905091762543 1.6412826776504517 0.19985201954841614
v 4.003653095557915e-17 1.653846263885498 0.19985201954841614
v -0.12755905091762543 1.6412826776504517 0.19985201954841614
v -0.2502160966396332 1.6040750741958618 0.19985201954841614
v -0.3632574677467346 1.5436532497406006 0.19985201954841614
v -0.4623390734195709 1.462339162826538 0.19985201954841614
v -0.5436531901359558 1.3632575273513794 0.19985201954841614
v -0.6040751338005066 1.2502161264419556 0.19985201954841614
v -0.6412827372550964 1.1275590658187866 0.19985201954841614
v -0.6538462042808533 1 0.19985201954841614
v -0.6412827372550964 0.8724409341812134 0.19985201954841614
v -0.6040751338005066 0.7497839331626892 0.19985201954841614
v -0.5436531901359558 0.6367425322532654 0.19985201954841614
v -0.4623390734195709 0.5376608967781067 0.19985201954841614
v -0.3632574677467346 0.4563467800617218 0.19985201954841614
v -0.2502160966396332 0.3959248661994934 0.19985201954841614
v -0.12755905091762543 0.35871726274490356 0.19985201954841614
v -1.20109589558015e-16 0.34615379571914673 0.19985201954841614
v 0.12755905091762543 0.35871726274490356 0.19985201954841614
v 0.2502160966396332 0.3959248661994934 0.19985201954841614
v 0.3632574677467346 0.4563467800617218 0.19985201954841614
v 0.4623390734195709 0.5376608967781067 0.19985201954841614
v 0.5436531901359558 0.6367425322532654 0.19985201954841614
v 0.6040751338005066 0.7497839331626892 0.19985201954841614
v 0.6412827372550964 0.8724409341812134 0.19985201954841614
v 0.6538462042808533 1 0.19985201954841614
v 0.5693787336349487 1 0.11538462340831757
v 0.5584383010864258 1.111080288887024 0.11538462340831757
v 0.5260373950004578 1.217891812324524 0.11538462340831757
v 0.4734211564064026 1.3163299560546875 0.11538462340831757
v 0.4026116132736206 1.4026116132736206 0.11538462340831757
v 0.3163298964500427 1.4734212160110474 0.11538462340831757
v 0.21789182722568512 1.5260374546051025 0.11538462340831757
v 0.11108028888702393 1.5584383010864258 0.11538462340831757
v 3.4864395578411685e-17 1.5693788528442383 0.11538462340831757
v -0.11108028888702393 1.5584383010864258 0.11538462340831757
v -0.21789182722568512 1.5260374546051025 0.11538462340831757
v -0.3163298964500427 1.4734212160110474 0.11538462340831757
v -0.4026116132736206 1.4026116132736206 0.11538462340831757
v -0.4734211564064026 1.3163299560546875 0.11538462340831757
v -0.5260373950004578 1.217891812324524 0.11538462340831757
v -0.5584383010864258 1.111080288887024 0.11538462340831757
v -0.5693787336349487 1 0.11538462340831757
v -0.5584383010864258 0.8889196515083313 0.11538462340831757
v -0.5260373950004578 0.7821081280708313 0.11538462340831757
v -0.4734211564064026 0.6836700439453125 0.11538462340831757
v -0.4026116132736206 0.5973883867263794 0.11538462340831757
v -0.3163298964500427 0.5265788435935974 0.11538462340831757
v -0.21789182722568512 0.4739626348018646 0.11538462340831757
v -0.11108028888702393 0.44156166911125183 0.11538462340831757
v -1.045931768090677e-16 0.4306212365627289 0.11538462340831757
v 0.11108028888702393 0.44156166911125183 0.11538462340831757
v 0.21789182722568512 0.4739626348018646 0.11538462340831757
v 0.3163298964500427 0.5265788435935974 0.11538462340831757
v 0.4026116132736206 0.5973883867263794 0.11538462340831757
v 0.4734211564064026 0.6836700439453125 0.11538462340831757
v 0.5260373950004578 0.7821081280708313 0.11538462340831757
v 0.5584383010864258 0.8889196515083313 0.11538462340831757
v 0.5693787336349487 1 0.11538462340831757
v 0.5384615659713745 1 2.826108223157232e-17
v 0.5281152129173279 1.105048656463623 2.826108223157232e-17
v 0.4974736273288727 1.2060602903366089 2.826108223157232e-17
v 0.4477144479751587 1.299153208732605 2.826108223157232e-17
v 0.38074982166290283 1.3807498216629028 2.826108223157232e-17
v 0.29915323853492737 1.4477144479751587 2.826108223157232e-17
v 0.20606032013893127 1.4974735975265503 2.826108223157232e-17
v 0.10504864156246185 1.528115153312683 2.826108223157232e-17
v 3.297126039768607e-17 1.5384615659713745 2.826108223157232e-17
v -0.10504864156246185 1.528115153312683 2.826108223157232e-17
v -0.20606032013893127 1.4974735975265503 2.826108223157232e-17
v -0.29915323853492737 1.4477144479751587 2.826108223157232e-17
v -0.38074982166290283 1.3807498216629028 2.826108223157232e-17
v -0.4477144479751587 1.299153208732605 2.826108223157232e-17
v -0.4974736273288727 1.2060602903366089 2.826108223157232e-17
v -0.5281152129173279 1.105048656463623 2.826108223157232e-17
v -0.5384615659713745 1 2.826108223157232e-17
v -0.5281152129173279 0.8949514031410217 2.826108223157232e-17
v -0.4974736273288727 0.7939396500587463 2.826108223157232e-17
v -0.4477144479751587 0.7008467316627502 2.826108223157232e-17
v -0.38074982166290283 0.6192501783370972 2.826108223157232e-17
v -0.29915323853492737 0.5522855520248413 2.826108223157232e-17
v -0.20606032013893127 0.5025263428688049 2.826108223157232e-17
v -0.10504864156246185 0.4718848168849945 2.826108223157232e-17
v -9.891378119305822e-17 0.4615384638309479 2.826108223157232e-17
v 0.10504864156246185 0.4718848168849945 2.826108223157232e-17
v 0.20606032013893127 0.5025263428688049 2.826108223157232e-17
v 0.29915323853492737 0.5522855520248413 2.826108223157232e-17
v 0.38074982166290283 0.6192501783370972 2.826108223157232e-17
v 0.4477144479751587 0.7008467316627502 2.826108223157232e-17
v 0.4974736273288727 0.7939396500587463 2.826108223157232e-17
v 0.5281152129173279 0.8949514031410217 2.826108223157232e-17
v 0.5384615659713745 1 2.826108223157232e-17
v 0.5693787336349487 1 -0.11538462340831757
v 0.5584383010864258 1.111080288887024 -0.11538462340831757
v 0.5260373950004578 1.217891812324524 -0.11538462340831757
v 0.4734211564064026 1.3163299560546875 -0.11538462340831757
v 0.4026116132736206 1.4026116132736206 -0.11538462340831757
v 0.3163298964500427 1.4734212160110474 -0.11538462340831757
v 0.21789182722568512 1.5260374546051025 -0.11538462340831757
v 0.11108028888702393 1.5584383010864258 -0.11538462340831757
v 3.4864395578411685e-17 1.5693788528442383 -0.11538462340831757
v -0.11108028888702393 1.5584383010864258 -0.11538462340831757
v -0.21789182722568512 1.5260374546051025 -0.11538462340831757
v -0.3163298964500427 1.4734212160110474 -0.11538462340831757
v -0.4026116132736206 1.4026116132736206 -0.11538462340831757
v -0.4734211564064026 1.3163299560546875 -0.11538462340831757
v -0.5260373950004578 1.217891812324524 -0.11538462340831757
v -0.5584383010864258 1.111080288887024 -0.11538462340831757
v -0.5693787336349487 1 -0.11538462340831757
v -0.5584383010864258 0.8889196515083313 -0.11538462340831757
v -0.5260373950004578 0.7821081280708313 -0.11538462340831757
v -0.4734211564064026 0.6836700439453125 -0.11538462340831757
v -0.4026116132736206 0.5973883867263794 -0.11538462340831757
v -0.3163298964500427 0.5265788435935974 -0.11538462340831757
v -0.21789182722568512 0.4739626348018646 -0.11538462340831757
v -0.11108028888702393 0.44156166911125183 -0.11538462340831757
v -1.045931768090677e-16 0.4306212365627289 -0.11538462340831757
v 0.11108028888702393 0.44156166911125183 -0.11538462340831757
v 0.21789182722568512 0.4739626348018646 -0.11538462340831757
v 0.3163298964500427 0.5265788435935974 -0.11538462340831757
v 0.4026116132736206 0.5973883867263794 -0.11538462340831757
v 0.4734211564064026 0.6836700439453125 -0.11538462340831757
v 0.5260373950004578 0.7821081280708313 -0.11538462340831757
v 0.5584383010864258 0.8889196515083313 -0.11538462340831757
v 0.5693787336349487 1 -0.11538462340831757
v 0.6538462042808533 1 -0.19985201954841614
v 0.6412827372550964 1.1275590658187866 -0.19985201954841614
v 0.6040751338005066 1.2502161264419556 -0.19985201954841614
v 0.5436531901359558 1.3632575273513794 -0.19985201954841614
v 0.4623390734195709 1.462339162826538 -0.19985201954841614
v 0.3632574677467346 1.5436532497406006 -0.19985201954841614
v 0.2502160966396332 1.6040750741958618 -0.19985201954841614
v 0.12755905091762543 1.6412826776504517 -0.19985201954841614
v 4.003653095557915e-17 1.653846263885498 -0.19985201954841614
v -0.12755905091762543 1.6412826776504517 -0.19985201954841614
v -0.2502160966396332 1.6040750741958618 -0.19985201954841614
v -0.3632574677467346 1.5436532497406006 -0.19985201954841614
v -0.4623390734195709 1.462339162826538 -0.19985201954841614
v -0.5436531901359558 1.3632575273513794 -0.19985201954841614
v -0.6040751338005066 1.2502161264419556 -0.19985201954841614
v -0.6412827372550964 1.1275590658187866 -0.19985201954841614
v -0.6538462042808533 1 -0.19985201954841614
v -0.6412827372550964 0.8724409341812134 -0.19985201954841614
v -0.6040751338005066 0.7497839331626892 -0.19985201954841614
v -0.5436531901359558 0.6367425322532654 -0.19985201954841614
v -0.4623390734195709 0.5376608967781067 -0.19985201954841614
v -0.3632574677467346 0.4563467800617218 -0.19985201954841614
v -0.2502160966396332 0.3959248661994934 -0.19985201954841614
v -0.12755905091762543 0.35871726274490356 -0.19985201954841614
v -1.20109589558015e-16 0.34615379571914673 -0.19985201954841614
v 0.12755905091762543 0.35871726274490356 -0.19985201954841614
v 0.2502160966396332 0.3959248661994934 -0.19985201954841614
v 0.3632574677467346 0.4563467800617218 -0.19985201954841614
v 0.4623390734195709 0.5376608967781067 -0.19985201954841614
v 0.5436531901359558 0.6367425322532654 -0.19985201954841614
v 0.6040751338005066 0.7497839331626892 -0.19985201954841614
v 0.6412827372550964 0.8724409341812134 -0.19985201954841614
v 0.6538462042808533 1 -0.19985201954841614
v 0.7692307829856873 1 -0.23076924681663513
v 0.7544502019882202 1.1500694751739502 -0.23076924681663513
v 0.7106765508651733 1.2943718433380127 -0.23076924681663513
v 0.6395919919013977 1.4273617267608643 -0.23076924681663513
v 0.543928325176239 1.5439283847808838 -0.23076924681663513
v 0.42736175656318665 1.639591932296753 -0.23076924681663513
v 0.2943718731403351 1.7106764316558838 -0.23076924681663513
v 0.1500694900751114 1.7544500827789307 -0.23076924681663513
v 4.710180482219468e-17 1.769230842590332 -0.23076924681663513
v -0.1500694900751114 1.7544500827789307 -0.23076924681663513
v -0.2943718731403351 1.7106764316558838 -0.23076924681663513
v -0.42736175656318665 1.639591932296753 -0.23076924681663513
v -0.543928325176239 1.5439283847808838 -0.23076924681663513
v -0.6395919919013977 1.4273617267608643 -0.23076924681663513
v -0.7106765508651733 1.2943718433380127 -0.23076924681663513
v -0.7544502019882202 1.1500694751739502 -0.23076924681663513
v -0.7692307829856873 1 -0.23076924681663513
v -0.7544502019882202 0.8499305248260498 -0.23076924681663513
v -0.7106765508651733 0.7056281566619873 -0.23076924681663513
v -0.6395919919013977 0.5726382732391357 -0.23076924681663513
v -0.543928325176239 0.4560717046260834 -0.23076924681663513
v -0.42736175656318665 0.3604079782962799 -0.23076924681663513
v -0.2943718731403351 0.2893234193325043 -0.23076924681663513
v -0.1500694900751114 0.2455497831106186 -0.23076924681663513
v -1.413053979229718e-16 0.23076920211315155 -0.23076924681663513
v 0.1500694900751114 0.2455497831106186 -0.23076924681663513
v 0.2943718731403351 0.2893234193325043 -0.23076924681663513
v 0.42736175656318665 0.3604079782962799 -0.23076924681663513
v 0.543928325176239 0.4560717046260834 -0.23076924681663513
v 0.6395919919013977 0.5726382732391357 -0.23076924681663513
v 0.7106765508651733 0.7056281566619873 -0.23076924681663513
v 0.7544502019882202 0.8499305248260498 -0.23076924681663513
v 0.7692307829856873 1 -0.23076924681663513
v 0.884615421295166 1 -0.19985201954841614
v 0.8676177859306335 1.1725798845291138 -0.19985201954841614
v 0.8172780871391296 1.3385275602340698 -0.19985201954841614
v 0.7355308532714844 1.4914660453796387 -0.19985201954841614
v 0.6255175471305847 1.6255176067352295 -0.19985201954841614
v 0.4914659857749939 1.7355308532714844 -0.19985201954841614
v 0.338527649641037 1.8172781467437744 -0.19985201954841614
v 0.17257989943027496 1.8676178455352783 -0.19985201954841614
v 5.416707207136531e-17 1.8846153020858765 -0.19985201954841614
v -0.17257989943027496 1.8676178455352783 -0.19985201954841614
v -0.338527649641037 1.8172781467437744 -0.19985201954841614
v -0.4914659857749939 1.7355308532714844 -0.19985201954841614
v -0.6255175471305847 1.6255176067352295 -0.19985201954841614
v -0.7355308532714844 1.4914660453796387 -0.19985201954841614
v -0.8172780871391296 1.3385275602340698 -0.19985201954841614
v -0.8676177859306335 1.1725798845291138 -0.19985201954841614
v -0.884615421295166 1 -0.19985201954841614
v -0.8676177859306335 0.8274200558662415 -0.19985201954841614
v -0.8172780871391296 0.6614723205566406 -0.19985201954841614
v -0.7355308532714844 0.5085340142250061 -0.19985201954841614
v -0.6255175471305847 0.3744824230670929 -0.19985201954841614
v -0.4914659857749939 0.264469176530838 -0.19985201954841614
v -0.338527649641037 0.18272189795970917 -0.19985201954841614
v -0.17257989943027496 0.13238219916820526 -0.19985201954841614
v -1.625012195228184e-16 0.11538460105657578 -0.19985201954841614
v 0.17257989943027496 0.13238219916820526 -0.19985201954841614
v 0.338527649641037 0.18272189795970917 -0.19985201954841614
v 0.4914659857749939 0.264469176530838 -0.19985201954841614
v 0.6255175471305847 0.3744824230670929 -0.19985201954841614
v 0.7355308532714844 0.5085340142250061 -0.19985201954841614
v 0.8172780871391296 0.6614723205566406 -0.19985201954841614
v 0.8676177859306335 0.8274200558662415 -0.19985201954841614
v 0.884615421295166 1 -0.19985201954841614
v 0.969082772731781 1 -0.11538462340831757
v 0.9504622220993042 1.1890586614608765 -0.11538462340831757
v 0.8953158259391785 1.370851993560791 -0.11538462340831757
v 0.8057629466056824 1.538393497467041 -0.11538462340831757
v 0.6852450370788574 1.685245156288147 -0.11538462340831757
v 0.5383935570716858 1.8057628870010376 -0.11538462340831757
v 0.37085193395614624 1.8953158855438232 -0.11538462340831757
v 0.18905869126319885 1.9504621028900146 -0.11538462340831757
v 5.933921075725523e-17 1.9690828323364258 -0.11538462340831757
v -0.18905869126319885 1.9504621028900146 -0.11538462340831757
v -0.37085193395614624 1.8953158855438232 -0.11538462340831757
v -0.5383935570716858 1.8057628870010376 -0.11538462340831757
v -0.6852450370788574 1.685245156288147 -0.11538462340831757
v -0.8057629466056824 1.538393497467041 -0.11538462340831757
v -0.8953158259391785 1.370851993560791 -0.11538462340831757
v -0.9504622220993042 1.1890586614608765 -0.11538462340831757
v -0.969082772731781 1 -0.11538462340831757
v -0.9504622220993042 0.8109412789344788 -0.11538462340831757
v -0.8953158259391785 0.6291480660438538 -0.11538462340831757
v -0.8057629466056824 0.4616064429283142 -0.11538462340831757
v -0.6852450370788574 0.3147549331188202 -0.11538462340831757
v -0.5383935570716858 0.19423705339431763 -0.11538462340831757
v -0.37085193395614624 0.10468418896198273 -0.11538462340831757
v -0.18905869126319885 0.049537789076566696 -0.11538462340831757
v -1.780176190368759e-16 0.030917204916477203 -0.11538462340831757
v 0.18905869126319885 0.049537789076566696 -0.11538462340831757
v 0.37085193395614624 0.10468418896198273 -0.11538462340831757
v 0.5383935570716858 0.19423705339431763 -0.11538462340831757
v 0.6852450370788574 0.3147549331188202 -0.11538462340831757
v 0.8057629466056824 0.4616064429283142 -0.11538462340831757
v 0.8953158259391785 0.6291480660438538 -0.11538462340831757
v 0.9504622220993042 0.8109412789344788 -0.11538462340831757
v 0.969082772731781 1 -0.11538462340831757
v 1 1 -5.652216446314464e-17
v 0.9807853102684021 1.1950902938842773 -5.652216446314464e-17
v 0.9238795638084412 1.382683515548706 -5.652216446314464e-17
v 0.8314695954322815 1.555570125579834 -5.652216446314464e-17
v 0.7071068286895752 1.7071068286895752 -5.652216446314464e-17
v 0.5555702447891235 1.8314696550369263 -5.652216446314464e-17
v 0.3826834559440613 1.9238795042037964 -5.652216446314464e-17
v 0.19509032368659973 1.9807852506637573 -5.652216446314464e-17
v 6.123234262925839e-17 2 -5.652216446314464e-17
v -0.19509032368659973 1.9807852506637573 -5.652216446314464e-17
v -0.3826834559440613 1.9238795042037964 -5.652216446314464e-17
v -0.5555702447891235 1.8314696550369263 -5.652216446314464e-17
v -0.7071068286895752 1.7071068286895752 -5.652216446314464e-17
v -0.8314695954322815 1.555570125579834 -5.652216446314464e-17
v -0.9238795638084412 1.382683515548706 -5.652216446314464e-17
v -0.9807853102684021 1.1950902938842773 -5.652216446314464e-17
v -1 1 -5.652216446314464e-17
v -0.9807853102684021 0.8049097061157227 -5.652216446314464e-17
v -0.9238795638084412 0.6173165440559387 -5.652216446314464e-17
v -0.8314695954322815 0.44442975521087646 -5.652216446314464e-17
v -0.7071068286895752 0.2928932011127472 -5.652216446314464e-17
v -0.5555702447891235 0.1685303896665573 -5.652216446314464e-17
v -0.3826834559440613 0.07612045109272003 -5.652216446314464e-17
v -0.19509032368659973 0.019214704632759094 -5.652216446314464e-17
v -1.8369701465288538e-16 0 -5.652216446314464e-17
v 0.19509032368659973 0.019214704632759094 -5.652216446314464e-17
v 0.3826834559440613 0.07612045109272003 -5.652216446314464e-17
v 0.5555702447891235 0.1685303896665573 -5.652216446314464e-17
v 0.7071068286895752 0.2928932011127472 -5.652216446314464e-17
v 0.8314695954322815 0.44442975521087646 -5.652216446314464e-17
v 0.9238795638084412 0.6173165440559387 -5.652216446314464e-17
v 0.9807853102684021 0.8049097061157227 -5.652216446314464e-17
v 1 1 -5.652216446314464e-17
vt 0 0
vt 0.03125 0
vt 0.0625 0
vt 0.09375 0
vt 0.125 0
vt 0.15625 0
vt 0.1875 0
vt 0.21875 0
vt 0.25 0
vt 0.28125 0
vt 0.3125 0
vt 0.34375 0
vt 0.375 0
vt 0.40625 0
vt 0.4375 0
vt 0.46875 0
vt 0.5 0
vt 0.53125 0
vt 0.5625 0
vt 0.59375 0
vt 0.625 0
vt 0.65625 0
vt 0.6875 0
vt 0.71875 0
vt 0.75 0
vt 0.78125 0
vt 0.8125 0
vt 0.84375 0
vt 0.875 0
vt 0.90625 0
vt 0.9375 0
vt 0.96875 0
vt 1 0
vt 0 0.0833333358168602
vt 0.03125 0.0833333358168602
vt 0.0625 0.0833333358168602
vt 0.09375 0.0833333358168602
vt 0.125 0.0833333358168602
vt 0.15625 0.0833333358168602
vt 0.1875 0.0833333358168602
vt 0.21875 0.0833333358168602
vt 0.25 0.0833333358168602
vt 0.28125 0.0833333358168602
vt 0.3125 0.0833333358168602
vt 0.34375 0.0833333358168602
vt 0.375 0.0833333358168602
vt 0.40625 0.0833333358168602
vt 0.4375 0.0833333358168602
vt 0.46875 0.0833333358168602
vt 0.5 0.0833333358168602
vt 0.53125 0.0833333358168602
vt 0.5625 0.0833333358168602
vt 0.59375 0.0833333358168602
vt 0.625 0.0833333358168602
vt 0.65625 0.0833333358168602
vt 0.6875 0.0833333358168602
vt 0.71875 0.0833333358168602
vt 0.75 0.0833333358168602
vt 0.78125 0.0833333358168602
vt 0.8125 0.0833333358168602
vt 0.84375 0.0833333358168602
vt 0.875 0.0833333358168602
vt 0.90625 0.0833333358168602
vt 0.9375 0.0833333358168602
vt 0.96875 0.0833333358168602
vt 1 0.0833333358168602
vt 0 0.1666666716337204
vt 0.03125 0.1666666716337204
vt 0.0625 0.1666666716337204
vt 0.09375 0.1666666716337204
vt 0.125 0.1666666716337204
vt 0.15625 0.1666666716337204
vt 0.1875 0.1666666716337204
vt 0.21875 0.1666666716337204
vt 0.25 0.1666666716337204
vt 0.28125 0.1666666716337204
vt 0.3125 0.1666666716337204
vt 0.34375 0.1666666716337204
vt 0.375 0.1666666716337204
vt 0.40625 0.1666666716337204
vt 0.4375 0.1666666716337204
vt 0.46875 0.1666666716337204
vt 0.5 0.1666666716337204
vt 0.53125 0.1666666716337204
vt 0.5625 0.1666666716337204
vt 0.59375 0.1666666716337204
vt 0.625 0.1666666716337204
vt 0.65625 0.1666666716337204
vt 0.6875 0.1666666716337204
vt 0.71875 0.1666666716337204
vt 0.75 0.1666666716337204
vt 0.78125 0.1666666716337204
vt 0.8125 0.1666666716337204
vt 0.84375 0.1666666716337204
vt 0.875 0.1666666716337204
vt 0.90625 0.1666666716337204
vt 0.9375 0.1666666716337204
vt 0.96875 0.1666666716337204
vt 1 0.1666666716337204
vt 0 0.25
vt 0.03125 0.25
vt 0.0625 0.25
vt 0.09375 0.25
vt 0.125 0.25
vt 0.15625 0.25
vt 0.1875 0.25
vt 0.21875 0.25
vt 0.25 0.25
vt 0.28125 0.25
vt 0.3125 0.25
vt 0.34375 0.25
vt 0.375 0.25
vt 0.40625 0.25
vt 0.4375 0.25
vt 0.46875 0.25
vt 0.5 0.25
vt 0.53125 0.25
vt 0.5625 0.25
vt 0.59375 0.25
vt 0.625 0.25
vt 0.65625 0.25
vt 0.6875 0.25
vt 0.71875 0.25
vt 0.75 0.25
vt 0.78125 0.25
vt 0.8125 0.25
vt 0.84375 0.25
vt 0.875 0.25
vt 0.90625 0.25
vt 0.9375 0.25
vt 0.96875 0.25
vt 1 0.25
vt 0 0.3333333432674408
vt 0.03125 0.3333333432674408
vt 0.0625 0.3333333432674408
vt 0.09375 0.3333333432674408
vt 0.125 0.3333333432674408
vt 0.15625 0.3333333432674408
vt 0.1875 0.3333333432674408
vt 0.21875 0.3333333432674408
vt 0.25 0.3333333432674408
vt 0.28125 0.3333333432674408
vt 0.3125 0.3333333432674408
vt 0.34375 0.3333333432674408
vt 0.375 0.3333333432674408
vt 0.40625 0.3333333432674408
vt 0.4375 0.3333333432674408
vt 0.46875 0.3333333432674408
vt 0.5 0.3333333432674408
vt 0.53125 0.3333333432674408
vt 0.5625 0.3333333432674408
vt 0.59375 0.3333333432674408
vt 0.625 0.3333333432674408
vt 0.65625 0.3333333432674408
vt 0.6875 0.3333333432674408
vt 0.71875 0.3333333432674408
vt 0.75 0.3333333432674408
vt 0.78125 0.3333333432674408
vt 0.8125 0.3333333432674408
vt 0.84375 0.3333333432674408
vt 0.875 0.3333333432674408
vt 0.90625 0.3333333432674408
vt 0.9375 0.3333333432674408
vt 0.96875 0.3333333432674408
vt 1 0.3333333432674408
vt 0 0.4166666567325592
vt 0.03125 0.4166666567325592
vt 0.0625 0.4166666567325592
vt 0.09375 0.4166666567325592
vt 0.125 0.4166666567325592
vt 0.15625 0.4166666567325592
vt 0.1875 0.4166666567325592
vt 0.21875 0.4166666567325592
vt 0.25 0.4166666567325592
vt 0.28125 0.4166666567325592
vt 0.3125 0.4166666567325592
vt 0.34375 0.4166666567325592
vt 0.375 0.4166666567325592
vt 0.40625 0.4166666567325592
vt 0.4375 0.4166666567325592
vt 0.46875 0.4166666567325592
vt 0.5 0.4166666567325592
vt 0.53125 0.4166666567325592
vt 0.5625 0.4166666567325592
vt 0.59375 0.4166666567325592
vt 0.625 0.4166666567325592
vt 0.65625 0.4166666567325592
vt 0.6875 0.4166666567325592
vt 0.71875 0.4166666567325592
vt 0.75 0.4166666567325592
vt 0.78125 0.4166666567325592
vt 0.8125 0.4166666567325592
vt 0.84375 0.4166666567325592
vt 0.875 0.4166666567325592
vt 0.90625 0.4166666567325592
vt 0.9375 0.4166666567325592
vt 0.96875 0.4166666567325592
vt 1 0.4166666567325592
vt 0 0.5
vt 0.03125 0.5
vt 0.0625 0.5
vt 0.09375 0.5
vt 0.125 0.5
vt 0.15625 0.5
vt 0.1875 0.5
vt 0.21875 0.5
vt 0.25 0.5
vt 0.28125 0.5
vt 0.3125 0.5
vt 0.34375 0.5
vt 0.375 0.5
vt 0.40625 0.5
vt 0.4375 0.5
vt 0.46875 0.5
vt 0.5 0.5
vt 0.53125 0.5
vt 0.5625 0.5
vt 0.59375 0.5
vt 0.625 0.5
vt 0.65625 0.5
vt 0.6875 0.5
vt 0.71875 0.5
vt 0.75 0.5
vt 0.78125 0.5
vt 0.8125 0.5
vt 0.84375 0.5
vt 0.875 0.5
vt 0.90625 0.5
vt 0.9375 0.5
vt 0.96875 0.5
vt 1 0.5
vt 0 0.5833333134651184
vt 0.03125 0.5833333134651184
vt 0.0625 0.5833333134651184
vt 0.09375 0.5833333134651184
vt 0.125 0.5833333134651184
vt 0.15625 0.5833333134651184
vt 0.1875 0.5833333134651184
vt 0.21875 0.5833333134651184
vt 0.25 0.5833333134651184
vt 0.28125 0.5833333134651184
vt 0.3125 0.5833333134651184
vt 0.34375 0.5833333134651184
vt 0.375 0.5833333134651184
vt 0.40625 0.5833333134651184
vt 0.4375 0.5833333134651184
vt 0.46875 0.5833333134651184
vt 0.5 0.5833333134651184
vt 0.53125 0.5833333134651184
vt 0.5625 0.5833333134651184
vt 0.59375 0.5833333134651184
vt 0.625 0.5833333134651184
vt 0.65625 0.5833333134651184
vt 0.6875 0.5833333134651184
vt 0.71875 0.5833333134651184
vt 0.75 0.5833333134651184
vt 0.78125 0.5833333134651184
vt 0.8125 0.5833333134651184
vt 0.84375 0.5833333134651184
vt 0.875 0.5833333134651184
vt 0.90625 0.5833333134651184
vt 0.9375 0.5833333134651184
vt 0.96875 0.5833333134651184
vt 1 0.5833333134651184
vt 0 0.6666666865348816
vt 0.03125 0.6666666865348816
vt 0.0625 0.6666666865348816
vt 0.09375 0.6666666865348816
vt 0.125 0.6666666865348816
vt 0.15625 0.6666666865348816
vt 0.1875 0.6666666865348816
vt 0.21875 0.6666666865348816
vt 0.25 0.6666666865348816
vt 0.28125 0.6666666865348816
vt 0.3125 0.6666666865348816
vt 0.34375 0.6666666865348816
vt 0.375 0.6666666865348816
vt 0.40625 0.6666666865348816
vt 0.4375 0.6666666865348816
vt 0.46875 0.6666666865348816
vt 0.5 0.6666666865348816
vt 0.53125 0.6666666865348816
vt 0.5625 0.6666666865348816
vt 0.59375 0.6666666865348816
vt 0.625 0.6666666865348816
vt 0.65625 0.6666666865348816
vt 0.6875 0.6666666865348816
vt 0.71875 0.6666666865348816
vt 0.75 0.6666666865348816
vt 0.78125 0.6666666865348816
vt 0.8125 0.6666666865348816
vt 0.84375 0.6666666865348816
vt 0.875 0.6666666865348816
vt 0.90625 0.6666666865348816
vt 0.9375 0.6666666865348816
vt 0.96875 0.6666666865348816
vt 1 0.6666666865348816
vt 0 0.75
vt 0.03125 0.75
vt 0.0625 0.75
vt 0.09375 0.75
vt 0.125 0.75
vt 0.15625 0.75
vt 0.1875 0.75
vt 0.21875 0.75
vt 0.25 0.75
vt 0.28125 0.75
vt 0.3125 0.75
vt 0.34375 0.75
vt 0.375 0.75
vt 0.40625 0.75
vt 0.4375 0.75
vt 0.46875 0.75
vt 0.5 0.75
vt 0.53125 0.75
vt 0.5625 0.75
vt 0.59375 0.75
vt 0.625 0.75
vt 0.65625 0.75
vt 0.6875 0.75
vt 0.71875 0.75
vt 0.75 0.75
vt 0.78125 0.75
vt 0.8125 0.75
vt 0.84375 0.75
vt 0.875 0.75
vt 0.90625 0.75
vt 0.9375 0.75
vt 0.96875 0.75
vt 1 0.75
vt 0 0.8333333134651184
vt 0.03125 0.8333333134651184
vt 0.0625 0.8333333134651184
vt 0.09375 0.8333333134651184
vt 0.125 0.8333333134651184
vt 0.15625 0.8333333134651184
vt 0.1875 0.8333333134651184
vt 0.21875 0.8333333134651184
vt 0.25 0.8333333134651184
vt 0.28125 0.8333333134651184
vt 0.3125 0.8333333134651184
vt 0.34375 0.8333333134651184
vt 0.375 0.8333333134651184
vt 0.40625 0.8333333134651184
vt 0.4375 0.8333333134651184
vt 0.46875 0.8333333134651184
vt 0.5 0.8333333134651184
vt 0.53125 0.8333333134651184
vt 0.5625 0.8333333134651184
vt 0.59375 0.8333333134651184
vt 0.625 0.8333333134651184
vt 0.65625 0.8333333134651184
vt 0.6875 0.8333333134651184
vt 0.71875 0.8333333134651184
vt 0.75 0.8333333134651184
vt 0.78125 0.8333333134651184
vt 0.8125 0.8333333134651184
vt 0.84375 0.8333333134651184
vt 0.875 0.8333333134651184
vt 0.90625 0.8333333134651184
vt 0.9375 0.8333333134651184
vt 0.96875 0.8333333134651184
vt 1 0.8333333134651184
vt 0 0.9166666865348816
vt 0.03125 0.9166666865348816
vt 0.0625 0.9166666865348816
vt 0.09375 0.9166666865348816
vt 0.125 0.9166666865348816
vt 0.15625 0.9166666865348816
vt 0.1875 0.9166666865348816
vt 0.21875 0.9166666865348816
vt 0.25 0.9166666865348816
vt 0.28125 0.9166666865348816
vt 0.3125 0.9166666865348816
vt 0.34375 0.9166666865348816
vt 0.375 0.9166666865348816
vt 0.40625 0.9166666865348816
vt 0.4375 0.9166666865348816
vt 0.46875 0.9166666865348816
vt 0.5 0.9166666865348816
vt 0.53125 0.9166666865348816
vt 0.5625 0.9166666865348816
vt 0.59375 0.9166666865348816
vt 0.625 0.9166666865348816
vt 0.65625 0.9166666865348816
vt 0.6875 0.9166666865348816
vt 0.71875 0.9166666865348816
vt 0.75 0.9166666865348816
vt 0.78125 0.9166666865348816
vt 0.8125 0.9166666865348816
vt 0.84375 0.9166666865348816
vt 0.875 0.9166666865348816
vt 0.90625 0.9166666865348816
vt 0.9375 0.9166666865348816
vt 0.96875 0.9166666865348816
vt 1 0.9166666865348816
vt 0 1
vt 0.03125 1
vt 0.0625 1
vt 0.09375 1
vt 0.125 1
vt 0.15625 1
vt 0.1875 1
vt 0.21875 1
vt 0.25 1
vt 0.28125 1
vt 0.3125 1
vt 0.34375 1
vt 0.375 1
vt 0.40625 1
vt 0.4375 1
vt 0.46875 1
vt 0.5 1
vt 0.53125 1
vt 0.5625 1
vt 0.59375 1
vt 0.625 1
vt 0.65625 1
vt 0.6875 1
vt 0.71875 1
vt 0.75 1
vt 0.78125 1
vt 0.8125 1
vt 0.84375 1
vt 0.875 1
vt 0.90625 1
vt 0.9375 1
vt 0.96875 1
vt 1 1
vn 0.961584212580642 0.09470755628408362 0.257655352939472
vn 0.9408546571207452 0.21879209310690548 0.25869390052358027
vn 0.8800921386224217 0.3981397127563384 0.258694021309562
vn 0.7855082786694344 0.5621869590089142 0.2586939644871745
vn 0.6607376524256842 0.7046297988261316 0.25869403022343074
vn 0.5105753573110627 0.8199940375411613 0.2586939947189053
vn 0.3407919384511349 0.9038463771593044 0.25869399139276156
vn 0.15791181945723265 0.9529644681406757 0.2586939885986248
vn -0.03103628999038268 0.9654605569556104 0.2586941469507869
vn -0.21879209310690548 0.9408546571207452 0.25869390052358027
vn -0.3981397127563384 0.8800921386224217 0.258694021309562
vn -0.5621869590089142 0.7855082786694344 0.2586939644871745
vn -0.7046297988261316 0.6607376524256842 0.25869403022343074
vn -0.8199940375411613 0.5105753573110627 0.2586939947189053
vn -0.9038463771593044 0.3407919384511349 0.25869399139276156
vn -0.9529644681406757 0.15791181945723265 0.2586939885986248
vn -0.9654605569556104 -0.03103628999038268 0.2586941469507869
vn -0.9408546571207452 -0.21879209310690548 0.25869390052358027
vn -0.8800921386224217 -0.3981397127563384 0.258694021309562
vn -0.7855082786694344 -0.5621869590089142 0.2586939644871745
vn -0.6607376524256842 -0.7046297988261316 0.25869403022343074
vn -0.5105753573110627 -0.8199940375411613 0.2586939947189053
vn -0.3407919384511349 -0.9038463771593044 0.25869399139276156
vn -0.15791181945723265 -0.9529644681406757 0.2586939885986248
vn 0.03103628999038268 -0.9654605569556104 0.2586941469507869
vn 0.21879209310690548 -0.9408546571207452 0.25869390052358027
vn 0.3981397127563384 -0.8800921386224217 0.258694021309562
vn 0.5621869590089142 -0.7855082786694344 0.2586939644871745
vn 0.7046297988261316 -0.6607376524256842 0.25869403022343074
vn 0.8199940375411613 -0.5105753573110627 0.2586939947189053
vn 0.9038463771593044 -0.3407919384511349 0.25869399139276156
vn 0.9529644681406757 -0.15791181945723265 0.2586939885986248
vn 0.9615841287434881 -0.09470769545842335 0.2576556146672948
vn 0.8184774924458338 0.08061270974100859 0.5688551532576566
vn 0.8531645025493003 0.16356197162728933 0.49533606069737984
vn 0.8048617813755606 0.3268634368327769 0.49533605415195087
vn 0.7256287250174891 0.47760351925137573 0.4953360796753995
vn 0.618510133368171 0.609989649310733 0.4953360906038001
vn 0.48762252750973856 0.7189342353642889 0.4953360837715938
vn 0.337995954933426 0.8002505504296187 0.49533603844837876
vn 0.17538018356838278 0.8508137383115166 0.4953360212137844
vn 0.006024870520770803 0.8686805316894798 0.4953360826740676
vn -0.16356197162728933 0.8531645025493003 0.49533606069737984
vn -0.3268634368327769 0.8048617813755606 0.49533605415195087
vn -0.47760351925137573 0.7256287250174891 0.4953360796753995
vn -0.609989649310733 0.618510133368171 0.4953360906038001
vn -0.7189342353642889 0.48762252750973856 0.4953360837715938
vn -0.8002505504296187 0.337995954933426 0.49533603844837876
vn -0.8508137383115166 0.17538018356838278 0.4953360212137844
vn -0.8686805316894798 0.006024870520770803 0.4953360826740676
vn -0.8531645025493003 -0.16356197162728933 0.49533606069737984
vn -0.8048617813755606 -0.3268634368327769 0.49533605415195087
vn -0.7256287250174891 -0.47760351925137573 0.4953360796753995
vn -0.618510133368171 -0.609989649310733 0.4953360906038001
vn -0.48762252750973856 -0.7189342353642889 0.4953360837715938
vn -0.337995954933426 -0.8002505504296187 0.49533603844837876
vn -0.17538018356838278 -0.8508137383115166 0.4953360212137844
vn -0.006024870520770803 -0.8686805316894798 0.4953360826740676
vn 0.16356197162728933 -0.8531645025493003 0.49533606069737984
vn 0.3268634368327769 -0.8048617813755606 0.49533605415195087
vn 0.47760351925137573 -0.7256287250174891 0.4953360796753995
vn 0.609989649310733 -0.618510133368171 0.4953360906038001
vn 0.7189342353642889 -0.48762252750973856 0.4953360837715938
vn 0.8002505504296187 -0.337995954933426 0.49533603844837876
vn 0.8508137383115166 -0.17538018356838278 0.4953360212137844
vn 0.9042485409499017 -0.08906046353492389 0.417615624737531
vn 0.4278916355522251 0.042143578951647435 0.9028469787165418
vn 0.5007972149652448 0.09003733894649485 0.8608689953056089
vn 0.47360908714539646 0.1860081244808301 0.8608689855026885
vn 0.42822047427172694 0.27483054584225974 0.8608689775375479
vn 0.3663755650471352 0.3530913884765436 0.8608689892893686
vn 0.29045099031645477 0.4177832009082607 0.8608689907663294
vn 0.20336463918936856 0.4664197832677748 0.8608689849819308
vn 0.10846301954335093 0.4971321243992134 0.8608689936813055
vn 0.009393231272827453 0.5087400220077841 0.8608689547275905
vn -0.09003733894649485 0.5007972149652448 0.8608689953056089
vn -0.1860081244808301 0.47360908714539646 0.8608689855026885
vn -0.27483054584225974 0.42822047427172694 0.8608689775375479
vn -0.3530913884765436 0.3663755650471352 0.8608689892893686
vn -0.4177832009082607 0.29045099031645477 0.8608689907663294
vn -0.4664197832677748 0.20336463918936856 0.8608689849819308
vn -0.4971321243992134 0.10846301954335093 0.8608689936813055
vn -0.5087400220077841 0.009393231272827453 0.8608689547275905
vn -0.5007972149652448 -0.09003733894649485 0.8608689953056089
vn -0.47360908714539646 -0.1860081244808301 0.8608689855026885
vn -0.42822047427172694 -0.27483054584225974 0.8608689775375479
vn -0.3663755650471352 -0.3530913884765436 0.8608689892893686
vn -0.29045099031645477 -0.4177832009082607 0.8608689907663294
vn -0.20336463918936856 -0.4664197832677748 0.8608689849819308
vn -0.10846301954335093 -0.4971321243992134 0.8608689936813055
vn -0.009393231272827453 -0.5087400220077841 0.8608689547275905
vn 0.09003733894649485 -0.5007972149652448 0.8608689953056089
vn 0.1860081244808301 -0.47360908714539646 0.8608689855026885
vn 0.27483054584225974 -0.42822047427172694 0.8608689775375479
vn 0.3530913884765436 -0.3663755650471352 0.8608689892893686
vn 0.4177832009082607 -0.29045099031645477 0.8608689907663294
vn 0.4664197832677748 -0.20336463918936856 0.8608689849819308
vn 0.4971321243992134 -0.10846301954335093 0.8608689936813055
vn 0.5785808001441692 -0.05698505822780352 0.8136319566261558
vn -0.07965829889173491 -0.00784565593689594 0.9967913528420053
vn 0.014854313425126355 -0.006013395576340631 0.9998715859780747
vn 0.015742044493405223 -0.002999913802039074 0.9998715860311004
vn 0.016024818234529153 0.00012887623995980622 0.9998715860506613
vn 0.015691784736747934 0.003252665661128032 0.9998715857838308
vn 0.01475567147028883 0.00625148865398689 0.9998715862794932
vn 0.013252570884947738 0.009010051145812565 0.9998715859265573
vn 0.01124014397215637 0.011422378649628652 0.9998715859696532
vn 0.008795758485074202 0.013395743103053599 0.9998715861046303
vn 0.006013395576340631 0.014854313425126355 0.9998715859780747
vn 0.002999913802039074 0.015742044493405223 0.9998715860311004
vn -0.00012887623995980622 0.016024818234529153 0.9998715860506613
vn -0.003252665661128032 0.015691784736747934 0.9998715857838308
vn -0.00625148865398689 0.01475567147028883 0.9998715862794932
vn -0.009010051145812565 0.013252570884947738 0.9998715859265573
vn -0.011422378649628652 0.01124014397215637 0.9998715859696532
vn -0.013395743103053599 0.008795758485074202 0.9998715861046303
vn -0.014854313425126355 0.006013395576340631 0.9998715859780747
vn -0.015742044493405223 0.002999913802039074 0.9998715860311004
vn -0.016024818234529153 -0.00012887623995980622 0.9998715860506613
vn -0.015691784736747934 -0.003252665661128032 0.9998715857838308
vn -0.01475567147028883 -0.00625148865398689 0.9998715862794932
vn -0.013252570884947738 -0.009010051145812565 0.9998715859265573
vn -0.01124014397215637 -0.011422378649628652 0.9998715859696532
vn -0.008795758485074202 -0.013395743103053599 0.9998715861046303
vn -0.006013395576340631 -0.014854313425126355 0.9998715859780747
vn -0.002999913802039074 -0.015742044493405223 0.9998715860311004
vn 0.00012887623995980622 -0.016024818234529153 0.9998715860506613
vn 0.003252665661128032 -0.015691784736747934 0.9998715857838308
vn 0.00625148865398689 -0.01475567147028883 0.9998715862794932
vn 0.009010051145812565 -0.013252570884947738 0.9998715859265573
vn 0.011422378649628652 -0.01124014397215637 0.9998715859696532
vn 0.09735356235930054 -0.009588465059762638 0.9952036702272311
vn -0.5676248731596633 -0.055906121298096544 0.8213869422944821
vn -0.47781481340274234 -0.10039394884094885 0.8727050241227121
vn -0.4490478979406732 -0.19168198307374537 0.8727049918042058
vn -0.4030243174594667 -0.27560371271659834 0.87270498627724
vn -0.34151268062432866 -0.3489342337716472 0.8727049842157307
vn -0.2668768764789804 -0.4088554086212362 0.8727049831655512
vn -0.18198527048104865 -0.4530643436197021 0.8727050256921796
vn -0.09009992273937231 -0.4798625081046994 0.8727049772046831
vn 0.005247800585192299 -0.4882197058070613 0.8727049784724987
vn 0.10039394884094885 -0.47781481340274234 0.8727050241227121
vn 0.19168198307374537 -0.4490478979406732 0.8727049918042058
vn 0.27560371271659834 -0.4030243174594667 0.87270498627724
vn 0.3489342337716472 -0.34151268062432866 0.8727049842157307
vn 0.4088554086212362 -0.2668768764789804 0.8727049831655512
vn 0.4530643436197021 -0.18198527048104865 0.8727050256921796
vn 0.4798625081046994 -0.09009992273937231 0.8727049772046831
vn 0.4882197058070613 0.005247800585192299 0.8727049784724987
vn 0.47781481340274234 0.10039394884094885 0.8727050241227121
vn 0.4490478979406732 0.19168198307374537 0.8727049918042058
vn 0.4030243174594667 0.27560371271659834 0.87270498627724
vn 0.34151268062432866 0.3489342337716472 0.8727049842157307
vn 0.2668768764789804 0.4088554086212362 0.8727049831655512
vn 0.18198527048104865 0.4530643436197021 0.8727050256921796
vn 0.09009992273937231 0.4798625081046994 0.8727049772046831
vn -0.005247800585192299 0.4882197058070613 0.8727049784724987
vn -0.10039394884094885 0.47781481340274234 0.8727050241227121
vn -0.19168198307374537 0.4490478979406732 0.8727049918042058
vn -0.27560371271659834 0.4030243174594667 0.87270498627724
vn -0.3489342337716472 0.34151268062432866 0.8727049842157307
vn -0.4088554086212362 0.2668768764789804 0.8727049831655512
vn -0.4530643436197021 0.18198527048104865 0.8727050256921796
vn -0.4798625081046994 0.09009992273937231 0.8727049772046831
vn -0.41169247751344573 0.040548180007908295 0.9104203145014323
vn -0.902110266234578 -0.08884990838507888 0.42225911634225466
vn -0.8446494411640365 -0.16974221312116458 0.507695679148454
vn -0.7953046687243669 -0.3312636070679699 0.5076956830006956
vn -0.7153967708635016 -0.4800547421560688 0.5076956812614667
vn -0.6079966408197344 -0.6103975159042984 0.5076957330230191
vn -0.4772314265839557 -0.7172833287334583 0.5076955700040058
vn -0.32812663645797796 -0.7966040904080456 0.507695611160806
vn -0.1664119536624553 -0.84531183309531 0.5076957420614159
vn 0.0016976883564383855 -0.8615347707236536 0.5076957323913469
vn 0.16974221312116458 -0.8446494411640365 0.507695679148454
vn 0.3312636070679699 -0.7953046687243669 0.5076956830006956
vn 0.4800547421560688 -0.7153967708635016 0.5076956812614667
vn 0.6103975159042984 -0.6079966408197344 0.5076957330230191
vn 0.7172833287334583 -0.4772314265839557 0.5076955700040058
vn 0.7966040904080456 -0.32812663645797796 0.507695611160806
vn 0.84531183309531 -0.1664119536624553 0.5076957420614159
vn 0.8615347707236536 0.0016976883564383855 0.5076957323913469
vn 0.8446494411640365 0.16974221312116458 0.507695679148454
vn 0.7953046687243669 0.3312636070679699 0.5076956830006956
vn 0.7153967708635016 0.4800547421560688 0.5076956812614667
vn 0.6079966408197344 0.6103975159042984 0.5076957330230191
vn 0.4772314265839557 0.7172833287334583 0.5076955700040058
vn 0.32812663645797796 0.7966040904080456 0.507695611160806
vn 0.1664119536624553 0.84531183309531 0.5076957420614159
vn -0.0016976883564383855 0.8615347707236536 0.5076957323913469
vn -0.16974221312116458 0.8446494411640365 0.507695679148454
vn -0.3312636070679699 0.7953046687243669 0.5076956830006956
vn -0.4800547421560688 0.7153967708635016 0.5076956812614667
vn -0.6103975159042984 0.6079966408197344 0.5076957330230191
vn -0.7172833287334583 0.4772314265839557 0.5076955700040058
vn -0.7966040904080456 0.32812663645797796 0.507695611160806
vn -0.84531183309531 0.1664119536624553 0.5076957420614159
vn -0.8106869605023796 0.07984560126685851 0.5800097689088926
vn -0.990979330621598 -0.0976027043290644 -0.09183506077976293
vn -0.9807852983275522 -0.195090231904451 4.4339116726825983e-8
vn -0.9238795392949354 -0.3826834159879129 7.317197764507281e-10
vn -0.8314695741248275 -0.5555702901565805 -1.0392090121912256e-7
vn -0.7071068109888685 -0.7071067513842252 -1.3567810979255771e-9
vn -0.5555702489494063 -0.8314696016585845 9.751092806287013e-8
vn -0.38268346249921037 -0.9238795200293247 2.019756396756615e-9
vn -0.19509021757043105 -0.9807853011787645 -4.6071789511670745e-8
vn -8.470008028282905e-10 -1 7.1637202836427605e-9
vn 0.195090231904451 -0.9807852983275522 4.4339116726825983e-8
vn 0.3826834159879129 -0.9238795392949354 7.317197764507281e-10
vn 0.5555702901565805 -0.8314695741248275 -1.0392090121912256e-7
vn 0.7071067513842252 -0.7071068109888685 -1.3567810979255771e-9
vn 0.8314696016585845 -0.5555702489494063 9.751092806287013e-8
vn 0.9238795200293247 -0.38268346249921037 2.019756396756615e-9
vn 0.9807853011787645 -0.19509021757043105 -4.6071789511670745e-8
vn 1 -8.470008028282905e-10 7.1637202836427605e-9
vn 0.9807852983275522 0.195090231904451 4.4339116726825983e-8
vn 0.9238795392949354 0.3826834159879129 7.317197764507281e-10
vn 0.8314695741248275 0.5555702901565805 -1.0392090121912256e-7
vn 0.7071068109888685 0.7071067513842252 -1.3567810979255771e-9
vn 0.5555702489494063 0.8314696016585845 9.751092806287013e-8
vn 0.38268346249921037 0.9238795200293247 2.019756396756615e-9
vn 0.19509021757043105 0.9807853011787645 -4.6071789511670745e-8
vn 8.470008028282905e-10 1 7.1637202836427605e-9
vn -0.195090231904451 0.9807852983275522 4.4339116726825983e-8
vn -0.3826834159879129 0.9238795392949354 7.317197764507281e-10
vn -0.5555702901565805 0.8314695741248275 -1.0392090121912256e-7
vn -0.7071067513842252 0.7071068109888685 -1.3567810979255771e-9
vn -0.8314696016585845 0.5555702489494063 9.751092806287013e-8
vn -0.9238795200293247 0.38268346249921037 2.019756396756615e-9
vn -0.9807853011787645 0.19509021757043105 -4.6071789511670745e-8
vn -0.990979330621598 0.0976027043290644 0.09183506077976293
vn -0.8106869609846542 -0.07984559386377761 -0.5800097692539381
vn -0.84531183309531 -0.1664119536624553 -0.5076957420614159
vn -0.7966040740919351 -0.3281265999349397 -0.5076956603667858
vn -0.7172833691758701 -0.4772314436370345 -0.5076954968362674
vn -0.6103975159042984 -0.6079966408197344 -0.5076957330230191
vn -0.48005467581746514 -0.7153968204329314 -0.507695674139775
vn -0.3312636070679699 -0.7953046687243669 -0.5076956830006956
vn -0.16974221312116458 -0.8446494411640365 -0.507695679148454
vn -0.0016976909175680734 -0.8615347707199076 -0.5076957323891395
vn 0.1664119536624553 -0.84531183309531 -0.5076957420614159
vn 0.3281265999349397 -0.7966040740919351 -0.5076956603667858
vn 0.4772314436370345 -0.7172833691758701 -0.5076954968362674
vn 0.6079966408197344 -0.6103975159042984 -0.5076957330230191
vn 0.7153968204329314 -0.48005467581746514 -0.507695674139775
vn 0.7953046687243669 -0.3312636070679699 -0.5076956830006956
vn 0.8446494411640365 -0.16974221312116458 -0.507695679148454
vn 0.8615347707199076 -0.0016976909175680734 -0.5076957323891395
vn 0.84531183309531 0.1664119536624553 -0.5076957420614159
vn 0.7966040740919351 0.3281265999349397 -0.5076956603667858
vn 0.7172833691758701 0.4772314436370345 -0.5076954968362674
vn 0.6103975159042984 0.6079966408197344 -0.5076957330230191
vn 0.48005467581746514 0.7153968204329314 -0.507695674139775
vn 0.3312636070679699 0.7953046687243669 -0.5076956830006956
vn 0.16974221312116458 0.8446494411640365 -0.507695679148454
vn 0.0016976909175680734 0.8615347707199076 -0.5076957323891395
vn -0.1664119536624553 0.84531183309531 -0.5076957420614159
vn -0.3281265999349397 0.7966040740919351 -0.5076956603667858
vn -0.4772314436370345 0.7172833691758701 -0.5076954968362674
vn -0.6079966408197344 0.6103975159042984 -0.5076957330230191
vn -0.7153968204329314 0.48005467581746514 -0.507695674139775
vn -0.7953046687243669 0.3312636070679699 -0.5076956830006956
vn -0.8446494411640365 0.16974221312116458 -0.507695679148454
vn -0.902110277587006 0.08884990950319296 -0.42225909185376853
vn -0.4116924305461084 -0.040548170866720974 -0.9104203361472112
vn -0.4798625081046994 -0.09009992273937231 -0.8727049772046831
vn -0.4530643908717542 -0.18198527749019366 -0.8727049996996828
vn -0.40885538380075137 -0.2668768797308326 -0.8727049937993222
vn -0.3489342337716472 -0.34151268062432866 -0.8727049842157307
vn -0.27560371271659834 -0.4030243174594667 -0.87270498627724
vn -0.19168199486219148 -0.449047920450927 -0.8727049776323892
vn -0.1003939540631684 -0.4778148382573664 -0.8727050099138018
vn -0.0052478007379041436 -0.4882196604096874 -0.8727050038683546
vn 0.09009992273937231 -0.4798625081046994 -0.8727049772046831
vn 0.18198527749019366 -0.4530643908717542 -0.8727049996996828
vn 0.2668768797308326 -0.40885538380075137 -0.8727049937993222
vn 0.34151268062432866 -0.3489342337716472 -0.8727049842157307
vn 0.4030243174594667 -0.27560371271659834 -0.87270498627724
vn 0.449047920450927 -0.19168199486219148 -0.8727049776323892
vn 0.4778148382573664 -0.1003939540631684 -0.8727050099138018
vn 0.4882196604096874 -0.0052478007379041436 -0.8727050038683546
vn 0.4798625081046994 0.09009992273937231 -0.8727049772046831
vn 0.4530643908717542 0.18198527749019366 -0.8727049996996828
vn 0.40885538380075137 0.2668768797308326 -0.8727049937993222
vn 0.3489342337716472 0.34151268062432866 -0.8727049842157307
vn 0.27560371271659834 0.4030243174594667 -0.87270498627724
vn 0.19168199486219148 0.449047920450927 -0.8727049776323892
vn 0.1003939540631684 0.4778148382573664 -0.8727050099138018
vn 0.0052478007379041436 0.4882196604096874 -0.8727050038683546
vn -0.09009992273937231 0.4798625081046994 -0.8727049772046831
vn -0.18198527749019366 0.4530643908717542 -0.8727049996996828
vn -0.2668768797308326 0.40885538380075137 -0.8727049937993222
vn -0.34151268062432866 0.3489342337716472 -0.8727049842157307
vn -0.4030243174594667 0.27560371271659834 -0.87270498627724
vn -0.449047920450927 0.19168199486219148 -0.8727049776323892
vn -0.4778148382573664 0.1003939540631684 -0.8727050099138018
vn -0.5676249135598093 0.055906119406620304 -0.8213869145044325
vn 0.09735356235930054 0.009588465059762638 -0.9952036702272311
vn 0.011422384236834894 0.011240143971438942 -0.9998715859058339
vn 0.009010055802047291 0.013252570884391711 -0.9998715858846066
vn 0.006251490050400662 0.01475567705687861 -0.999871586188318
vn 0.0032526712488140765 0.015691788460835642 -0.9998715857072086
vn 0.00012887837907971412 0.01602482382102509 -0.9998715859608516
vn -0.0029999161297967186 0.01574205566639636 -0.9998715858482079
vn -0.00601339417890818 0.014854319011953464 -0.9998715859034799
vn -0.008795758484306065 0.0133957496211416 -0.9998715860173112
vn -0.011240143971438942 0.011422384236834894 -0.9998715859058339
vn -0.013252570884391711 0.009010055802047291 -0.9998715858846066
vn -0.01475567705687861 0.006251490050400662 -0.999871586188318
vn -0.015691788460835642 0.0032526712488140765 -0.9998715857072086
vn -0.01602482382102509 0.00012887837907971412 -0.9998715859608516
vn -0.01574205566639636 -0.0029999161297967186 -0.9998715858482079
vn -0.014854319011953464 -0.00601339417890818 -0.9998715859034799
vn -0.0133957496211416 -0.008795758484306065 -0.9998715860173112
vn -0.011422384236834894 -0.011240143971438942 -0.9998715859058339
vn -0.009010055802047291 -0.013252570884391711 -0.9998715858846066
vn -0.006251490050400662 -0.01475567705687861 -0.999871586188318
vn -0.0032526712488140765 -0.015691788460835642 -0.9998715857072086
vn -0.00012887837907971412 -0.01602482382102509 -0.9998715859608516
vn 0.0029999161297967186 -0.01574205566639636 -0.9998715858482079
vn 0.00601339417890818 -0.014854319011953464 -0.9998715859034799
vn 0.008795758484306065 -0.0133957496211416 -0.9998715860173112
vn 0.011240143971438942 -0.011422384236834894 -0.9998715859058339
vn 0.013252570884391711 -0.009010055802047291 -0.9998715858846066
vn 0.01475567705687861 -0.006251490050400662 -0.999871586188318
vn 0.015691788460835642 -0.0032526712488140765 -0.9998715857072086
vn 0.01602482382102509 -0.00012887837907971412 -0.9998715859608516
vn 0.01574205566639636 0.0029999161297967186 -0.9998715858482079
vn 0.014854319011953464 0.00601339417890818 -0.9998715859034799
vn -0.07965829889173491 0.00784565593689594 -0.9967913528420053
vn 0.5785808396729905 0.056985059975803984 -0.8136319283944375
vn 0.49713212399747475 0.10846302690628122 -0.8608689929856266
vn 0.4664197599488702 0.20336464201621687 -0.8608689969483476
vn 0.4177832182760429 0.29045104127636473 -0.8608689651441663
vn 0.3530914184186543 0.36637553538986034 -0.8608689896301852
vn 0.27483055643692905 0.4282205205818741 -0.8608689511192495
vn 0.1860081244808301 0.47360908714539646 -0.8608689855026885
vn 0.09003734633667569 0.5007972146292947 -0.8608689947281116
vn -0.00939323220406788 0.5087400220033336 -0.8608689547200595
vn -0.10846302690628122 0.49713212399747475 -0.8608689929856266
vn -0.20336464201621687 0.4664197599488702 -0.8608689969483476
vn -0.29045104127636473 0.4177832182760429 -0.8608689651441663
vn -0.36637553538986034 0.3530914184186543 -0.8608689896301852
vn -0.4282205205818741 0.27483055643692905 -0.8608689511192495
vn -0.47360908714539646 0.1860081244808301 -0.8608689855026885
vn -0.5007972146292947 0.09003734633667569 -0.8608689947281116
vn -0.5087400220033336 -0.00939323220406788 -0.8608689547200595
vn -0.49713212399747475 -0.10846302690628122 -0.8608689929856266
vn -0.4664197599488702 -0.20336464201621687 -0.8608689969483476
vn -0.4177832182760429 -0.29045104127636473 -0.8608689651441663
vn -0.3530914184186543 -0.36637553538986034 -0.8608689896301852
vn -0.27483055643692905 -0.4282205205818741 -0.8608689511192495
vn -0.1860081244808301 -0.47360908714539646 -0.8608689855026885
vn -0.09003734633667569 -0.5007972146292947 -0.8608689947281116
vn 0.00939323220406788 -0.5087400220033336 -0.8608689547200595
vn 0.10846302690628122 -0.49713212399747475 -0.8608689929856266
vn 0.20336464201621687 -0.4664197599488702 -0.8608689969483476
vn 0.29045104127636473 -0.4177832182760429 -0.8608689651441663
vn 0.36637553538986034 -0.3530914184186543 -0.8608689896301852
vn 0.4282205205818741 -0.27483055643692905 -0.8608689511192495
vn 0.47360908714539646 -0.1860081244808301 -0.8608689855026885
vn 0.5007972146292947 -0.09003734633667569 -0.8608689947281116
vn 0.42789163568658056 -0.04214357151429979 -0.9028469790000305
vn 0.9042485290956845 0.08906046981796915 -0.4176156490651346
vn 0.8508137427584956 0.1753801546827265 -0.4953360238027752
vn 0.8002505268027574 0.33799594495432195 -0.4953360834285587
vn 0.7189342852220735 0.48762249109653644 -0.49533604725381614
vn 0.6099896867372405 0.6185101108802458 -0.49533607259426343
vn 0.47760351925137573 0.7256287250174891 -0.4953360796753995
vn 0.32686346827623963 0.8048617854166705 -0.49533602683664857
vn 0.163561983715278 0.8531644878753586 -0.49533608198020496
vn -0.00602487284899271 0.8686805316772941 -0.4953360826671191
vn -0.1753801546827265 0.8508137427584956 -0.4953360238027752
vn -0.33799594495432195 0.8002505268027574 -0.4953360834285587
vn -0.48762249109653644 0.7189342852220735 -0.49533604725381614
vn -0.6185101108802458 0.6099896867372405 -0.49533607259426343
vn -0.7256287250174891 0.47760351925137573 -0.4953360796753995
vn -0.8048617854166705 0.32686346827623963 -0.49533602683664857
vn -0.8531644878753586 0.163561983715278 -0.49533608198020496
vn -0.8686805316772941 -0.00602487284899271 -0.4953360826671191
vn -0.8508137427584956 -0.1753801546827265 -0.4953360238027752
vn -0.8002505268027574 -0.33799594495432195 -0.4953360834285587
vn -0.7189342852220735 -0.48762249109653644 -0.49533604725381614
vn -0.6099896867372405 -0.6185101108802458 -0.49533607259426343
vn -0.47760351925137573 -0.7256287250174891 -0.4953360796753995
vn -0.32686346827623963 -0.8048617854166705 -0.49533602683664857
vn -0.163561983715278 -0.8531644878753586 -0.49533608198020496
vn 0.00602487284899271 -0.8686805316772941 -0.4953360826671191
vn 0.1753801546827265 -0.8508137427584956 -0.4953360238027752
vn 0.33799594495432195 -0.8002505268027574 -0.4953360834285587
vn 0.48762249109653644 -0.7189342852220735 -0.49533604725381614
vn 0.6185101108802458 -0.6099896867372405 -0.49533607259426343
vn 0.7256287250174891 -0.47760351925137573 -0.4953360796753995
vn 0.8048617854166705 -0.32686346827623963 -0.49533602683664857
vn 0.8531644878753586 -0.163561983715278 -0.49533608198020496
vn 0.8184774919542468 -0.08061271714317209 -0.5688551529159955
vn 0.9615841287434881 0.09470769545842335 -0.2576556146672948
vn 0.9529644681406757 0.15791181945723265 -0.2586939885986248
vn 0.9038463771593044 0.3407919384511349 -0.25869399139276156
vn 0.8199940883447175 0.5105752922263554 -0.2586939621399913
vn 0.7046297988261316 0.6607376524256842 -0.25869403022343074
vn 0.5621869590089142 0.7855082786694344 -0.2586939644871745
vn 0.3981397127563384 0.8800921386224217 -0.258694021309562
vn 0.21879207891906266 0.9408546601881724 -0.25869390136698867
vn 0.03103628999038268 0.9654605569556104 -0.2586941469507869
vn -0.15791181945723265 0.9529644681406757 -0.2586939885986248
vn -0.3407919384511349 0.9038463771593044 -0.25869399139276156
vn -0.5105752922263554 0.8199940883447175 -0.2586939621399913
vn -0.6607376524256842 0.7046297988261316 -0.25869403022343074
vn -0.7855082786694344 0.5621869590089142 -0.2586939644871745
vn -0.8800921386224217 0.3981397127563384 -0.258694021309562
vn -0.9408546601881724 0.21879207891906266 -0.25869390136698867
vn -0.9654605569556104 0.03103628999038268 -0.2586941469507869
vn -0.9529644681406757 -0.15791181945723265 -0.2586939885986248
vn -0.9038463771593044 -0.3407919384511349 -0.25869399139276156
vn -0.8199940883447175 -0.5105752922263554 -0.2586939621399913
vn -0.7046297988261316 -0.6607376524256842 -0.25869403022343074
vn -0.5621869590089142 -0.7855082786694344 -0.2586939644871745
vn -0.3981397127563384 -0.8800921386224217 -0.258694021309562
vn -0.21879207891906266 -0.9408546601881724 -0.25869390136698867
vn -0.03103628999038268 -0.9654605569556104 -0.2586941469507869
vn 0.15791181945723265 -0.9529644681406757 -0.2586939885986248
vn 0.3407919384511349 -0.9038463771593044 -0.25869399139276156
vn 0.5105752922263554 -0.8199940883447175 -0.2586939621399913
vn 0.6607376524256842 -0.7046297988261316 -0.25869403022343074
vn 0.7855082786694344 -0.5621869590089142 -0.2586939644871745
vn 0.8800921386224217 -0.3981397127563384 -0.258694021309562
vn 0.9408546601881724 -0.21879207891906266 -0.25869390136698867
vn 0.961584204518379 -0.09470756294060244 -0.25765538058152043
f 34/34/34 1/1/1 35/35/35
f 1/1/1 2/2/2 35/35/35
f 35/35/35 2/2/2 36/36/36
f 2/2/2 3/3/3 36/36/36
f 36/36/36 3/3/3 37/37/37
f 3/3/3 4/4/4 37/37/37
f 37/37/37 4/4/4 38/38/38
f 4/4/4 5/5/5 38/38/38
f 38/38/38 5/5/5 39/39/39
f 5/5/5 6/6/6 39/39/39
f 39/39/39 6/6/6 40/40/40
f 6/6/6 7/7/7 40/40/40
f 40/40/40 7/7/7 41/41/41
f 7/7/7 8/8/8 41/41/41
f 41/41/41 8/8/8 42/42/42
f 8/8/8 9/9/9 42/42/42
f 42/42/42 9/9/9 43/43/43
f 9/9/9 10/10/10 43/43/43
f 43/43/43 10/10/10 44/44/44
f 10/10/10 11/11/11 44/44/44
f 44/44/44 11/11/11 45/45/45
f 11/11/11 12/12/12 45/45/45
f 45/45/45 12/12/12 46/46/46
f 12/12/12 13/13/13 46/46/46
f 46/46/46 13/13/13 47/47/47
f 13/13/13 14/14/14 47/47/47
f 47/47/47 14/14/14 48/48/48
f 14/14/14 15/15/15 48/48/48
f 48/48/48 15/15/15 49/49/49
f 15/15/15 16/16/16 49/49/49
f 49/49/49 16/16/16 50/50/50
f 16/16/16 17/17/17 50/50/50
f 50/50/50 17/17/17 51/51/51
f 17/17/17 18/18/18 51/51/51
f 51/51/51 18/18/18 52/52/52
f 18/18/18 19/19/19 52/52/52
f 52/52/52 19/19/19 53/53/53
f 19/19/19 20/20/20 53/53/53
f 53/53/53 20/20/20 54/54/54
f 20/20/20 21/21/21 54/54/54
f 54/54/54 21/21/21 55/55/55
f 21/21/21 22/22/22 55/55/55
f 55/55/55 22/22/22 56/56/56
f 22/22/22 23/23/23 56/56/56
f 56/56/56 23/23/23 57/57/57
f 23/23/23 24/24/24 57/57/57
f 57/57/57 24/24/24 58/58/58
f 24/24/24 25/25/25 58/58/58
f 58/58/58 25/25/25 59/59/59
f 25/25/25 26/26/26 59/59/59
f 59/59/59 26/26/26 60/60/60
f 26/26/26 27/27/27 60/60/60
f 60/60/60 27/27/27 61/61/61
f 27/27/27 28/28/28 61/61/61
f 61/61/61 28/28/28 62/62/62
f 28/28/28 29/29/29 62/62/62
f 62/62/62 29/29/29 63/63/63
f 29/29/29 30/30/30 63/63/63
f 63/63/63 30/30/30 64/64/64
f 30/30/30 31/31/31 64/64/64
f 64/64/64 31/31/31 65/65/65
f 31/31/31 32/32/32 65/65/65
f 65/65/65 32/32/32 66/66/66
f 32/32/32 33/33/33 66/66/66
f 67/67/67 34/34/34 68/68/68
f 34/34/34 35/35/35 68/68/68
f 68/68/68 35/35/35 69/69/69
f 35/35/35 36/36/36 69/69/69
f 69/69/69 36/36/36 70/70/70
f 36/36/36 37/37/37 70/70/70
f 70/70/70 37/37/37 71/71/71
f 37/37/37 38/38/38 71/71/71
f 71/71/71 38/38/38 72/72/72
f 38/38/38 39/39/39 72/72/72
f 72/72/72 39/39/39 73/73/73
f 39/39/39 40/40/40 73/73/73
f 73/73/73 40/40/40 74/74/74
f 40/40/40 41/41/41 74/74/74
f 74/74/74 41/41/41 75/75/75
f 41/41/41 42/42/42 75/75/75
f 75/75/75 42/42/42 76/76/76
f 42/42/42 43/43/43 76/76/76
f 76/76/76 43/43/43 77/77/77
f 43/43/43 44/44/44 77/77/77
f 77/77/77 44/44/44 78/78/78
f 44/44/44 45/45/45 78/78/78
f 78/78/78 45/45/45 79/79/79
f 45/45/45 46/46/46 79/79/79
f 79/79/79 46/46/46 80/80/80
f 46/46/46 47/47/47 80/80/80
f 80/80/80 47/47/47 81/81/81
f 47/47/47 48/48/48 81/81/81
f 81/81/81 48/48/48 82/82/82
f 48/48/48 49/49/49 82/82/82
f 82/82/82 49/49/49 83/83/83
f 49/49/49 50/50/50 83/83/83
f 83/83/83 50/50/50 84/84/84
f 50/50/50 51/51/51 84/84/84
f 84/84/84 51/51/51 85/85/85
f 51/51/51 52/52/52 85/85/85
f 85/85/85 52/52/52 86/86/86
f 52/52/52 53/53/53 86/86/86
f 86/86/86 53/53/53 87/87/87
f 53/53/53 54/54/54 87/87/87
f 87/87/87 54/54/54 88/88/88
f 54/54/54 55/55/55 88/88/88
f 88/88/88 55/55/55 89/89/89
f 55/55/55 56/56/56 89/89/89
f 89/89/89 56/56/56 90/90/90
f 56/56/56 57/57/57 90/90/90
f 90/90/90 57/57/57 91/91/91
f 57/57/57 58/58/58 91/91/91
f 91/91/91 58/58/58 92/92/92
f 58/58/58 59/59/59 92/92/92
f 92/92/92 59/59/59 93/93/93
f 59/59/59 60/60/60 93/93/93
f 93/93/93 60/60/60 94/94/94
f 60/60/60 61/61/61 94/94/94
f 94/94/94 61/61/61 95/95/95
f 61/61/61 62/62/62 95/95/95
f 95/95/95 62/62/62 96/96/96
f 62/62/62 63/63/63 96/96/96
f 96/96/96 63/63/63 97/97/97
f 63/63/63 64/64/64 97/97/97
f 97/97/97 64/64/64 98/98/98
f 64/64/64 65/65/65 98/98/98
f 98/98/98 65/65/65 99/99/99
f 65/65/65 66/66/66 99/99/99
f 100/100/100 67/67/67 101/101/101
f 67/67/67 68/68/68 101/101/101
f 101/101/101 68/68/68 102/102/102
f 68/68/68 69/69/69 102/102/102
f 102/102/102 69/69/69 103/103/103
f 69/69/69 70/70/70 103/103/103
f 103/103/103 70/70/70 104/104/104
f 70/70/70 71/71/71 104/104/104
f 104/104/104 71/71/71 105/105/105
f 71/71/71 72/72/72 105/105/105
f 105/105/105 72/72/72 106/106/106
f 72/72/72 73/73/73 106/106/106
f 106/106/106 73/73/73 107/107/107
f 73/73/73 74/74/74 107/107/107
f 107/107/107 74/74/74 108/108/108
f 74/74/74 75/75/75 108/108/108
f 108/108/108 75/75/75 109/109/109
f 75/75/75 76/76/76 109/109/109
f 109/109/109 76/76/76 110/110/110
f 76/76/76 77/77/77 110/110/110
f 110/110/110 77/77/77 111/111/111
f 77/77/77 78/78/78 111/111/111
f 111/111/111 78/78/78 112/112/112
f 78/78/78 79/79/79 112/112/112
f 112/112/112 79/79/79 113/113/113
f 79/79/79 80/80/80 113/113/113
f 113/113/113 80/80/80 114/114/114
f 80/80/80 81/81/81 114/114/114
f 114/114/114 81/81/81 115/115/115
f 81/81/81 82/82/82 115/115/115
f 115/115/115 82/82/82 116/116/116
f 82/82/82 83/83/83 116/116/116
f 116/116/116 83/83/83 117/117/117
f 83/83/83 84/84/84 117/117/117
f 117/117/117 84/84/84 118/118/118
f 84/84/84 85/85/85 118/118/118
f 118/118/118 85/85/85 119/119/119
f 85/85/85 86/86/86 119/119/119
f 119/119/119 86/86/86 120/120/120
f 86/86/86 87/87/87 120/120/120
f 120/120/120 87/87/87 121/121/121
f 87/87/87 88/88/88 121/121/121
f 121/121/121 88/88/88 122/122/122
f 88/88/88 89/89/89 122/122/122
f 122/122/122 89/89/89 123/123/123
f 89/89/89 90/90/90 123/123/123
f 123/123/123 90/90/90 124/124/124
f 90/90/90 91/91/91 124/124/124
f 124/124/124 91/91/91 125/125/125
f 91/91/91 92/92/92 125/125/125
f 125/125/125 92/92/92 126/126/126
f 92/92/92 93/93/93 126/126/126
f 126/126/126 93/93/93 127/127/127
f 93/93/93 94/94/94 127/127/127
f 127/127/127 94/94/94 128/128/128
f 94/94/94 95/95/95 128/128/128
f 128/128/128 95/95/95 129/129/129
f 95/95/95 96/96/96 129/129/129
f 129/129/129 96/96/96 130/130/130
f 96/96/96 97/97/97 130/130/130
f 130/130/130 97/97/97 131/131/131
f 97/97/97 98/98/98 131/131/131
f 131/131/131 98/98/98 132/132/132
f 98/98/98 99/99/99 132/132/132
f 133/133/133 100/100/100 134/134/134
f 100/100/100 101/101/101 134/134/134
f 134/134/134 101/101/101 135/135/135
f 101/101/101 102/102/102 135/135/135
f 135/135/135 102/102/102 136/136/136
f 102/102/102 103/103/103 136/136/136
f 136/136/136 103/103/103 137/137/137
f 103/103/103 104/104/104 137/137/137
f 137/137/137 104/104/104 138/138/138
f 104/104/104 105/105/105 138/138/138
f 138/138/138 105/105/105 139/139/139
f 105/105/105 106/106/106 139/139/139
f 139/139/139 106/106/106 140/140/140
f 106/106/106 107/107/107 140/140/140
f 140/140/140 107/107/107 141/141/141
f 107/107/107 108/108/108 141/141/141
f 141/141/141 108/108/108 142/142/142
f 108/108/108 109/109/109 142/142/142
f 142/142/142 109/109/109 143/143/143
f 109/109/109 110/110/110 143/143/143
f 143/143/143 110/110/110 144/144/144
f 110/110/110 111/111/111 144/144/144
f 144/144/144 111/111/111 145/145/145
f 111/111/111 112/112/112 145/145/145
f 145/145/145 112/112/112 146/146/146
f 112/112/112 113/113/113 146/146/146
f 146/146/146 113/113/113 147/147/147
f 113/113/113 114/114/114 147/147/147
f 147/147/147 114/114/114 148/148/148
f 114/114/114 115/115/115 148/148/148
f 148/148/148 115/115/115 149/149/149
f 115/115/115 116/116/116 149/149/149
f 149/149/149 116/116/116 150/150/150
f 116/116/116 117/117/117 150/150/150
f 150/150/150 117/117/117 151/151/151
f 117/117/117 118/118/118 151/151/151
f 151/151/151 118/118/118 152/152/152
f 118/118/118 119/119/119 152/152/152
f 152/152/152 119/119/119 153/153/153
f 119/119/119 120/120/120 153/153/153
f 153/153/153 120/120/120 154/154/154
f 120/120/120 121/121/121 154/154/154
f 154/154/154 121/121/121 155/155/155
f 121/121/121 122/122/122 155/155/155
f 155/155/155 122/122/122 156/156/156
f 122/122/122 123/123/123 156/156/156
f 156/156/156 123/123/123 157/157/157
f 123/123/123 124/124/124 157/157/157
f 157/157/157 124/124/124 158/158/158
f 124/124/124 125/125/125 158/158/158
f 158/158/158 125/125/125 159/159/159
f 125/125/125 126/126/126 159/159/159
f 159/159/159 126/126/126 160/160/160
f 126/126/126 127/127/127 160/160/160
f 160/160/160 127/127/127 161/161/161
f 127/127/127 128/128/128 161/161/161
f 161/161/161 128/128/128 162/162/162
f 128/128/128 129/129/129 162/162/162
f 162/162/162 129/129/129 163/163/163
f 129/129/129 130/130/130 163/163/163
f 163/163/163 130/130/130 164/164/164
f 130/130/130 131/131/131 164/164/164
f 164/164/164 131/131/131 165/165/165
f 131/131/131 132/132/132 165/165/165
f 166/166/166 133/133/133 167/167/167
f 133/133/133 134/134/134 167/167/167
f 167/167/167 134/134/134 168/168/168
f 134/134/134 135/135/135 168/168/168
f 168/168/168 135/135/135 169/169/169
f 135/135/135 136/136/136 169/169/169
f 169/169/169 136/136/136 170/170/170
f 136/136/136 137/137/137 170/170/170
f 170/170/170 137/137/137 171/171/171
f 137/137/137 138/138/138 171/171/171
f 171/171/171 138/138/138 172/172/172
f 138/138/138 139/139/139 172/172/172
f 172/172/172 139/139/139 173/173/173
f 139/139/139 140/140/140 173/173/173
f 173/173/173 140/140/140 174/174/174
f 140/140/140 141/141/141 174/174/174
f 174/174/174 141/141/141 175/175/175
f 141/141/141 142/142/142 175/175/175
f 175/175/175 142/142/142 176/176/176
f 142/142/142 143/143/143 176/176/176
f 176/176/176 143/143/143 177/177/177
f 143/143/143 144/144/144 177/177/177
f 177/177/177 144/144/144 178/178/178
f 144/144/144 145/145/145 178/178/178
f 178/178/178 145/145/145 179/179/179
f 145/145/145 146/146/146 179/179/179
f 179/179/179 146/146/146 180/180/180
f 146/146/146 147/147/147 180/180/180
f 180/180/180 147/147/147 181/181/181
f 147/147/147 148/148/148 181/181/181
f 181/181/181 148/148/148 182/182/182
f 148/148/148 149/149/149 182/182/182
f 182/182/182 149/149/149 183/183/183
f 149/149/149 150/150/150 183/183/183
f 183/183/183 150/150/150 184/184/184
f 150/150/150 151/151/151 184/184/184
f 184/184/184 151/151/151 185/185/185
f 151/151/151 152/152/152 185/185/185
f 185/185/185 152/152/152 186/186/186
f 152/152/152 153/153/153 186/186/186
f 186/186/186 153/153/153 187/187/187
f 153/153/153 154/154/154 187/187/187
f 187/187/187 154/154/154 188/188/188
f 154/154/154 155/155/155 188/188/188
f 188/188/188 155/155/155 189/189/189
f 155/155/155 156/156/156 189/189/189
f 189/189/189 156/156/156 190/190/190
f 156/156/156 157/157/157 190/190/190
f 190/190/190 157/157/157 191/191/191
f 157/157/157 158/158/158 191/191/191
f 191/191/191 158/158/158 192/192/192
f 158/158/158 159/159/159 192/192/192
f 192/192/192 159/159/159 193/193/193
f 159/159/159 160/160/160 193/193/193
f 193/193/193 160/160/160 194/194/194
f 160/160/160 161/161/161 194/194/194
f 194/194/194 161/161/161 195/195/195
f 161/161/161 162/162/162 195/195/195
f 195/195/195 162/162/162 196/196/196
f 162/162/162 163/163/163 196/196/196
f 196/196/196 163/163/163 197/197/197
f 163/163/163 164/164/164 197/197/197
f 197/197/197 164/164/164 198/198/198
f 164/164/164 165/165/165 198/198/198
f 199/199/199 166/166/166 200/200/200
f 166/166/166 167/167/167 200/200/200
f 200/200/200 167/167/167 201/201/201
f 167/167/167 168/168/168 201/201/201
f 201/201/201 168/168/168 202/202/202
f 168/168/168 169/169/169 202/202/202
f 202/202/202 169/169/169 203/203/203
f 169/169/169 170/170/170 203/203/203
f 203/203/203 170/170/170 204/204/204
f 170/170/170 171/171/171 204/204/204
f 204/204/204 171/171/171 205/205/205
f 171/171/171 172/172/172 205/205/205
f 205/205/205 172/172/172 206/206/206
f 172/172/172 173/173/173 206/206/206
f 206/206/206 173/173/173 207/207/207
f 173/173/173 174/174/174 207/207/207
f 207/207/207 174/174/174 208/208/208
f 174/174/174 175/175/175 208/208/208
f 208/208/208 175/175/175 209/209/209
f 175/175/175 176/176/176 209/209/209
f 209/209/209 176/176/176 210/210/210
f 176/176/176 177/177/177 210/210/210
f 210/210/210 177/177/177 211/211/211
f 177/177/177 178/178/178 211/211/211
f 211/211/211 178/178/178 212/212/212
f 178/178/178 179/179/179 212/212/212
f 212/212/212 179/179/179 213/213/213
f 179/179/179 180/180/180 213/213/213
f 213/213/213 180/180/180 214/214/214
f 180/180/180 181/181/181 214/214/214
f 214/214/214 181/181/181 215/215/215
f 181/181/181 182/182/182 215/215/215
f 215/215/215 182/182/182 216/216/216
f 182/182/182 183/183/183 216/216/216
f 216/216/216 183/183/183 217/217/217
f 183/183/183 184/184/184 217/217/217
f 217/217/217 184/184/184 218/218/218
f 184/184/184 185/185/185 218/218/218
f 218/218/218 185/185/185 219/219/219
f 185/185/185 186/186/186 219/219/219
f 219/219/219 186/186/186 220/220/220
f 186/186/186 187/187/187 220/220/220
f 220/220/220 187/187/187 221/221/221
f 187/187/187 188/188/188 221/221/221
f 221/221/221 188/188/188 222/222/222
f 188/188/188 189/189/189 222/222/222
f 222/222/222 189/189/189 223/223/223
f 189/189/189 190/190/190 223/223/223
f 223/223/223 190/190/190 224/224/224
f 190/190/190 191/191/191 224/224/224
f 224/224/224 191/191/191 225/225/225
f 191/191/191 192/192/192 225/225/225
f 225/225/225 192/192/192 226/226/226
f 192/192/192 193/193/193 226/226/226
f 226/226/226 193/193/193 227/227/227
f 193/193/193 194/194/194 227/227/227
f 227/227/227 194/194/194 228/228/228
f 194/194/194 195/195/195 228/228/228
f 228/228/228 195/195/195 229/229/229
f 195/195/195 196/196/196 229/229/229
f 229/229/229 196/196/196 230/230/230
f 196/196/196 197/197/197 230/230/230
f 230/230/230 197/197/197 231/231/231
f 197/197/197 198/198/198 231/231/231
f 232/232/232 199/199/199 233/233/233
f 199/199/199 200/200/200 233/233/233
f 233/233/233 200/200/200 234/234/234
f 200/200/200 201/201/201 234/234/234
f 234/234/234 201/201/201 235/235/235
f 201/201/201 202/202/202 235/235/235
f 235/235/235 202/202/202 236/236/236
f 202/202/202 203/203/203 236/236/236
f 236/236/236 203/203/203 237/237/237
f 203/203/203 204/204/204 237/237/237
f 237/237/237 204/204/204 238/238/238
f 204/204/204 205/205/205 238/238/238
f 238/238/238 205/205/205 239/239/239
f 205/205/205 206/206/206 239/239/239
f 239/239/239 206/206/206 240/240/240
f 206/206/206 207/207/207 240/240/240
f 240/240/240 207/207/207 241/241/241
f 207/207/207 208/208/208 241/241/241
f 241/241/241 208/208/208 242/242/242
f 208/208/208 209/209/209 242/242/242
f 242/242/242 209/209/209 243/243/243
f 209/209/209 210/210/210 243/243/243
f 243/243/243 210/210/210 244/244/244
f 210/210/210 211/211/211 244/244/244
f 244/244/244 211/211/211 245/245/245
f 211/211/211 212/212/212 245/245/245
f 245/245/245 212/212/212 246/246/246
f 212/212/212 213/213/213 246/246/246
f 246/246/246 213/213/213 247/247/247
f 213/213/213 214/214/214 247/247/247
f 247/247/247 214/214/214 248/248/248
f 214/214/214 215/215/215 248/248/248
f 248/248/248 215/215/215 249/249/249
f 215/215/215 216/216/216 249/249/249
f 249/249/249 216/216/216 250/250/250
f 216/216/216 217/217/217 250/250/250
f 250/250/250 217/217/217 251/251/251
f 217/217/217 218/218/218 251/251/251
f 251/251/251 218/218/218 252/252/252
f 218/218/218 219/219/219 252/252/252
f 252/252/252 219/219/219 253/253/253
f 219/219/219 220/220/220 253/253/253
f 253/253/253 220/220/220 254/254/254
f 220/220/220 221/221/221 254/254/254
f 254/254/254 221/221/221 255/255/255
f 221/221/221 222/222/222 255/255/255
f 255/255/255 222/222/222 256/256/256
f 222/222/222 223/223/223 256/256/256
f 256/256/256 223/223/223 257/257/257
f 223/223/223 224/224/224 257/257/257
f 257/257/257 224/224/224 258/258/258
f 224/224/224 225/225/225 258/258/258
f 258/258/258 225/225/225 259/259/259
f 225/225/225 226/226/226 259/259/259
f 259/259/259 226/226/226 260/260/260
f 226/226/226 227/227/227 260/260/260
f 260/260/260 227/227/227 261/261/261
f 227/227/227 228/228/228 261/261/261
f 261/261/261 228/228/228 262/262/262
f 228/228/228 229/229/229 262/262/262
f 262/262/262 229/229/229 263/263/263
f 229/229/229 230/230/230 263/263/263
f 263/263/263 230/230/230 264/264/264
f 230/230/230 231/231/231 264/264/264
f 265/265/265 232/232/232 266/266/266
f 232/232/232 233/233/233 266/266/266
f 266/266/266 233/233/233 267/267/267
f 233/233/233 234/234/234 267/267/267
f 267/267/267 234/234/234 268/268/268
f 234/234/234 235/235/235 268/268/268
f 268/268/268 235/235/235 269/269/269
f 235/235/235 236/236/236 269/269/269
f 269/269/269 236/236/236 270/270/270
f 236/236/236 237/237/237 270/270/270
f 270/270/270 237/237/237 271/271/271
f 237/237/237 238/238/238 271/271/271
f 271/271/271 238/238/238 272/272/272
f 238/238/238 239/239/239 272/272/272
f 272/272/272 239/239/239 273/273/273
f 239/239/239 240/240/240 273/273/273
f 273/273/273 240/240/240 274/274/274
f 240/240/240 241/241/241 274/274/274
f 274/274/274 241/241/241 275/275/275
f 241/241/241 242/242/242 275/275/275
f 275/275/275 242/242/242 276/276/276
f 242/242/242 243/243/243 276/276/276
f 276/276/276 243/243/243 277/277/277
f 243/243/243 244/244/244 277/277/277
f 277/277/277 244/244/244 278/278/278
f 244/244/244 245/245/245 278/278/278
f 278/278/278 245/245/245 279/279/279
f 245/245/245 246/246/246 279/279/279
f 279/279/279 246/246/246 280/280/280
f 246/246/246 247/247/247 280/280/280
f 280/280/280 247/247/247 281/281/281
f 247/247/247 248/248/248 281/281/281
f 281/281/281 248/248/248 282/282/282
f 248/248/248 249/249/249 282/282/282
f 282/282/282 249/249/249 283/283/283
f 249/249/249 250/250/250 283/283/283
f 283/283/283 250/250/250 284/284/284
f 250/250/250 251/251/251 284/284/284
f 284/284/284 251/251/251 285/285/285
f 251/251/251 252/252/252 285/285/285
f 285/285/285 252/252/252 286/286/286
f 252/252/252 253/253/253 286/286/286
f 286/286/286 253/253/253 287/287/287
f 253/253/253 254/254/254 287/287/287
f 287/287/287 254/254/254 288/288/288
f 254/254/254 255/255/255 288/288/288
f 288/288/288 255/255/255 289/289/289
f 255/255/255 256/256/256 289/289/289
f 289/289/289 256/256/256 290/290/290
f 256/256/256 257/257/257 290/290/290
f 290/290/290 257/257/257 291/291/291
f 257/257/257 258/258/258 291/291/291
f 291/291/291 258/258/258 292/292/292
f 258/258/258 259/259/259 292/292/292
f 292/292/292 259/259/259 293/293/293
f 259/259/259 260/260/260 293/293/293
f 293/293/293 260/260/260 294/294/294
f 260/260/260 261/261/261 294/294/294
f 294/294/294 261/261/261 295/295/295
f 261/261/261 262/262/262 295/295/295
f 295/295/295 262/262/262 296/296/296
f 262/262/262 263/263/263 296/296/296
f 296/296/296 263/263/263 297/297/297
f 263/263/263 264/264/264 297/297/297
f 298/298/298 265/265/265 299/299/299
f 265/265/265 266/266/266 299/299/299
f 299/299/299 266/266/266 300/300/300
f 266/266/266 267/267/267 300/300/300
f 300/300/300 267/267/267 301/301/301
f 267/267/267 268/268/268 301/301/301
f 301/301/301 268/268/268 302/302/302
f 268/268/268 269/269/269 302/302/302
f 302/302/302 269/269/269 303/303/303
f 269/269/269 270/270/270 303/303/303
f 303/303/303 270/270/270 304/304/304
f 270/270/270 271/271/271 304/304/304
f 304/304/304 271/271/271 305/305/305
f 271/271/271 272/272/272 305/305/305
f 305/305/305 272/272/272 306/306/306
f 272/272/272 273/273/273 306/306/306
f 306/306/306 273/273/273 307/307/307
f 273/273/273 274/274/274 307/307/307
f 307/307/307 274/274/274 308/308/308
f 274/274/274 275/275/275 308/308/308
f 308/308/308 275/275/275 309/309/309
f 275/275/275 276/276/276 309/309/309
f 309/309/309 276/276/276 310/310/310
f 276/276/276 277/277/277 310/310/310
f 310/310/310 277/277/277 311/311/311
f 277/277/277 278/278/278 311/311/311
f 311/311/311 278/278/278 312/312/312
f 278/278/278 279/279/279 312/312/312
f 312/312/312 279/279/279 313/313/313
f 279/279/279 280/280/280 313/313/313
f 313/313/313 280/280/280 314/314/314
f 280/280/280 281/281/281 314/314/314
f 314/314/314 281/281/281 315/315/315
f 281/281/281 282/282/282 315/315/315
f 315/315/315 282/282/282 316/316/316
f 282/282/282 283/283/283 316/316/316
f 316/316/316 283/283/283 317/317/317
f 283/283/283 284/284/284 317/317/317
f 317/317/317 284/284/284 318/318/318
f 284/284/284 285/285/285 318/318/318
f 318/318/318 285/285/285 319/319/319
f 285/285/285 286/286/286 319/319/319
f 319/319/319 286/286/286 320/320/320
f 286/286/286 287/287/287 320/320/320
f 320/320/320 287/287/287 321/321/321
f 287/287/287 288/288/288 321/321/321
f 321/321/321 288/288/288 322/322/322
f 288/288/288 289/289/289 322/322/322
f 322/322/322 289/289/289 323/323/323
f 289/289/289 290/290/290 323/323/323
f 323/323/323 290/290/290 324/324/324
f 290/290/290 291/291/291 324/324/324
f 324/324/324 291/291/291 325/325/325
f 291/291/291 292/292/292 325/325/325
f 325/325/325 292/292/292 326/326/326
f 292/292/292 293/293/293 326/326/326
f 326/326/326 293/293/293 327/327/327
f 293/293/293 294/294/294 327/327/327
f 327/327/327 294/294/294 328/328/328
f 294/294/294 295/295/295 328/328/328
f 328/328/328 295/295/295 329/329/329
f 295/295/295 296/296/296 329/329/329
f 329/329/329 296/296/296 330/330/330
f 296/296/296 297/297/297 330/330/330
f 331/331/331 298/298/298 332/332/332
f 298/298/298 299/299/299 332/332/332
f 332/332/332 299/299/299 333/333/333
f 299/299/299 300/300/300 333/333/333
f 333/333/333 300/300/300 334/334/334
f 300/300/300 301/301/301 334/334/334
f 334/334/334 301/301/301 335/335/335
f 301/301/301 302/302/302 335/335/335
f 335/335/335 302/302/302 336/336/336
f 302/302/302 303/303/303 336/336/336
f 336/336/336 303/303/303 337/337/337
f 303/303/303 304/304/304 337/337/337
f 337/337/337 304/304/304 338/338/338
f 304/304/304 305/305/305 338/338/338
f 338/338/338 305/305/305 339/339/339
f 305/305/305 306/306/306 339/339/339
f 339/339/339 306/306/306 340/340/340
f 306/306/306 307/307/307 340/340/340
f 340/340/340 307/307/307 341/341/341
f 307/307/307 308/308/308 341/341/341
f 341/341/341 308/308/308 342/342/342
f 308/308/308 309/309/309 342/342/342
f 342/342/342 309/309/309 343/343/343
f 309/309/309 310/310/310 343/343/343
f 343/343/343 310/310/310 344/344/344
f 310/310/310 311/311/311 344/344/344
f 344/344/344 311/311/311 345/345/345
f 311/311/311 312/312/312 345/345/345
f 345/345/345 312/312/312 346/346/346
f 312/312/312 313/313/313 346/346/346
f 346/346/346 313/313/313 347/347/347
f 313/313/313 314/314/314 347/347/347
f 347/347/347 314/314/314 348/348/348
f 314/314/314 315/315/315 348/348/348
f 348/348/348 315/315/315 349/349/349
f 315/315/315 316/316/316 349/349/349
f 349/349/349 316/316/316 350/350/350
f 316/316/316 317/317/317 350/350/350
f 350/350/350 317/317/317 351/351/351
f 317/317/317 318/318/318 351/351/351
f 351/351/351 318/318/318 352/352/352
f 318/318/318 319/319/319 352/352/352
f 352/352/352 319/319/319 353/353/353
f 319/319/319 320/320/320 353/353/353
f 353/353/353 320/320/320 354/354/354
f 320/320/320 321/321/321 354/354/354
f 354/354/354 321/321/321 355/355/355
f 321/321/321 322/322/322 355/355/355
f 355/355/355 322/322/322 356/356/356
f 322/322/322 323/323/323 356/356/356
f 356/356/356 323/323/323 357/357/357
f 323/323/323 324/324/324 357/357/357
f 357/357/357 324/324/324 358/358/358
f 324/324/324 325/325/325 358/358/358
f 358/358/358 325/325/325 359/359/359
f 325/325/325 326/326/326 359/359/359
f 359/359/359 326/326/326 360/360/360
f 326/326/326 327/327/327 360/360/360
f 360/360/360 327/327/327 361/361/361
f 327/327/327 328/328/328 361/361/361
f 361/361/361 328/328/328 362/362/362
f 328/328/328 329/329/329 362/362/362
f 362/362/362 329/329/329 363/363/363
f 329/329/329 330/330/330 363/363/363
f 364/364/364 331/331/331 365/365/365
f 331/331/331 332/332/332 365/365/365
f 365/365/365 332/332/332 366/366/366
f 332/332/332 333/333/333 366/366/366
f 366/366/366 333/333/333 367/367/367
f 333/333/333 334/334/334 367/367/367
f 367/367/367 334/334/334 368/368/368
f 334/334/334 335/335/335 368/368/368
f 368/368/368 335/335/335 369/369/369
f 335/335/335 336/336/336 369/369/369
f 369/369/369 336/336/336 370/370/370
f 336/336/336 337/337/337 370/370/370
f 370/370/370 337/337/337 371/371/371
f 337/337/337 338/338/338 371/371/371
f 371/371/371 338/338/338 372/372/372
f 338/338/338 339/339/339 372/372/372
f 372/372/372 339/339/339 373/373/373
f 339/339/339 340/340/340 373/373/373
f 373/373/373 340/340/340 374/374/374
f 340/340/340 341/341/341 374/374/374
f 374/374/374 341/341/341 375/375/375
f 341/341/341 342/342/342 375/375/375
f 375/375/375 342/342/342 376/376/376
f 342/342/342 343/343/343 376/376/376
f 376/376/376 343/343/343 377/377/377
f 343/343/343 344/344/344 377/377/377
f 377/377/377 344/344/344 378/378/378
f 344/344/344 345/345/345 378/378/378
f 378/378/378 345/345/345 379/379/379
f 345/345/345 346/346/346 379/379/379
f 379/379/379 346/346/346 380/380/380
f 346/346/346 347/347/347 380/380/380
f 380/380/380 347/347/347 381/381/381
f 347/347/347 348/348/348 381/381/381
f 381/381/381 348/348/348 382/382/382
f 348/348/348 349/349/349 382/382/382
f 382/382/382 349/349/349 383/383/383
f 349/349/349 350/350/350 383/383/383
f 383/383/383 350/350/350 384/384/384
f 350/350/350 351/351/351 384/384/384
f 384/384/384 351/351/351 385/385/385
f 351/351/351 352/352/352 385/385/385
f 385/385/385 352/352/352 386/386/386
f 352/352/352 353/353/353 386/386/386
f 386/386/386 353/353/353 387/387/387
f 353/353/353 354/354/354 387/387/387
f 387/387/387 354/354/354 388/388/388
f 354/354/354 355/355/355 388/388/388
f 388/388/388 355/355/355 389/389/389
f 355/355/355 356/356/356 389/389/389
f 389/389/389 356/356/356 390/390/390
f 356/356/356 357/357/357 390/390/390
f 390/390/390 357/357/357 391/391/391
f 357/357/357 358/358/358 391/391/391
f 391/391/391 358/358/358 392/392/392
f 358/358/358 359/359/359 392/392/392
f 392/392/392 359/359/359 393/393/393
f 359/359/359 360/360/360 393/393/393
f 393/393/393 360/360/360 394/394/394
f 360/360/360 361/361/361 394/394/394
f 394/394/394 361/361/361 395/395/395
f 361/361/361 362/362/362 395/395/395
f 395/395/395 362/362/362 396/396/396
f 362/362/362 363/363/363 396/396/396
f 397/397/397 364/364/364 398/398/398
f 364/364/364 365/365/365 398/398/398
f 398/398/398 365/365/365 399/399/399
f 365/365/365 366/366/366 399/399/399
f 399/399/399 366/366/366 400/400/400
f 366/366/366 367/367/367 400/400/400
f 400/400/400 367/367/367 401/401/401
f 367/367/367 368/368/368 401/401/401
f 401/401/401 368/368/368 402/402/402
f 368/368/368 369/369/369 402/402/402
f 402/402/402 369/369/369 403/403/403
f 369/369/369 370/370/370 403/403/403
f 403/403/403 370/370/370 404/404/404
f 370/370/370 371/371/371 404/404/404
f 404/404/404 371/371/371 405/405/405
f 371/371/371 372/372/372 405/405/405
f 405/405/405 372/372/372 406/406/406
f 372/372/372 373/373/373 406/406/406
f 406/406/406 373/373/373 407/407/407
f 373/373/373 374/374/374 407/407/407
f 407/407/407 374/374/374 408/408/408
f 374/374/374 375/375/375 408/408/408
f 408/408/408 375/375/375 409/409/409
f 375/375/375 376/376/376 409/409/409
f 409/409/409 376/376/376 410/410/410
f 376/376/376 377/377/377 410/410/410
f 410/410/410 377/377/377 411/411/411
f 377/377/377 378/378/378 411/411/411
f 411/411/411 378/378/378 412/412/412
f 378/378/378 379/379/379 412/412/412
f 412/412/412 379/379/379 413/413/413
f 379/379/379 380/380/380 413/413/413
f 413/413/413 380/380/380 414/414/414
f 380/380/380 381/381/381 414/414/414
f 414/414/414 381/381/381 415/415/415
f 381/381/381 382/382/382 415/415/415
f 415/415/415 382/382/382 416/416/416
f 382/382/382 383/383/383 416/416/416
f 416/416/416 383/383/383 417/417/417
f 383/383/383 384/384/384 417/417/417
f 417/417/417 384/384/384 418/418/418
f 384/384/384 385/385/385 418/418/418
f 418/418/418 385/385/385 419/419/419
f 385/385/385 386/386/386 419/419/419
f 419/419/419 386/386/386 420/420/420
f 386/386/386 387/387/387 420/420/420
f 420/420/420 387/387/387 421/421/421
f 387/387/387 388/388/388 421/421/421
f 421/421/421 388/388/388 422/422/422
f 388/388/388 389/389/389 422/422/422
f 422/422/422 389/389/389 423/423/423
f 389/389/389 390/390/390 423/423/423
f 423/423/423 390/390/390 424/424/424
f 390/390/390 391/391/391 424/424/424
f 424/424/424 391/391/391 425/425/425
f 391/391/391 392/392/392 425/425/425
f 425/425/425 392/392/392 426/426/426
f 392/392/392 393/393/393 426/426/426
f 426/426/426 393/393/393 427/427/427
f 393/393/393 394/394/394 427/427/427
f 427/427/427 394/394/394 428/428/428
f 394/394/394 395/395/395 428/428/428
f 428/428/428 395/395/395 429/429/429
f 395/395/395 396/396/396 429/429/429
