o shape_009
v 0 0 0
v 0 0 0
v 0 0 0
v 0 0 0
v 0 0 0
v 0 0 0
v 0 0 0
v 0 0 0
v 0 0 0
v 0 0 0
v 0 0 0
v 0 0 0
v 0 0 0
v 0 0 0
v 0 0 0
v 0 0 0
v 0 0 0
v -0.10641290247440338 0.010480771772563457 0
v -0.09831269830465317 0.010480771772563457 0.04072245582938194
v -0.07524528354406357 0.010480771772563457 0.07524528354406357
v -0.04072245582938194 0.010480771772563457 0.09831269830465317
v -6.515910548184869e-18 0.010480771772563457 0.10641290247440338
v 0.04072245582938194 0.010480771772563457 0.09831269830465317
v 0.07524528354406357 0.010480771772563457 0.07524528354406357
v 0.09831269830465317 0.010480771772563457 0.04072245582938194
v 0.10641290247440338 0.010480771772563457 1.3031821096369737e-17
v 0.09831269830465317 0.010480771772563457 -0.04072245582938194
v 0.07524528354406357 0.010480771772563457 -0.07524528354406357
v 0.04072245582938194 0.010480771772563457 -0.09831269830465317
v 1.9547733712506137e-17 0.010480771772563457 -0.10641290247440338
v -0.04072245582938194 0.010480771772563457 -0.09831269830465317
v -0.07524528354406357 0.010480771772563457 -0.07524528354406357
v -0.09831269830465317 0.010480771772563457 -0.04072245582938194
v -0.10641290247440338 0.010480771772563457 -2.6063642192739475e-17
v -0.20873640477657318 0.041520267724990845 0
v -0.19284729659557343 0.041520267724990845 0.07987996935844421
v -0.14759893715381622 0.041520267724990845 0.14759893715381622
v -0.07987996935844421 0.041520267724990845 0.19284729659557343
v -1.278141863569891e-17 0.041520267724990845 0.20873640477657318
v 0.07987996935844421 0.041520267724990845 0.19284729659557343
v 0.14759893715381622 0.041520267724990845 0.14759893715381622
v 0.19284729659557343 0.041520267724990845 0.07987996935844421
v 0.20873640477657318 0.041520267724990845 2.556283727139782e-17
v 0.19284729659557343 0.041520267724990845 -0.07987996935844421
v 0.14759893715381622 0.041520267724990845 -0.14759893715381622
v 0.07987996935844421 0.041520267724990845 -0.19284729659557343
v 3.834425838863857e-17 0.041520267724990845 -0.20873640477657318
v -0.07987996935844421 0.041520267724990845 -0.19284729659557343
v -0.14759893715381622 0.041520267724990845 -0.14759893715381622
v -0.19284729659557343 0.041520267724990845 -0.07987996935844421
v -0.20873640477657318 0.041520267724990845 -5.112567454279564e-17
v -0.3030382990837097 0.09192569553852081 0
v -0.2799708843231201 0.09192569553852081 0.11596774309873581
v -0.21428044140338898 0.09192569553852081 0.21428044140338898
v -0.11596774309873581 0.09192569553852081 0.2799708843231201
v -1.855574398034682e-17 0.09192569553852081 0.3030382990837097
v 0.11596774309873581 0.09192569553852081 0.2799708843231201
v 0.21428044140338898 0.09192569553852081 0.21428044140338898
v 0.2799708843231201 0.09192569553852081 0.11596774309873581
v 0.3030382990837097 0.09192569553852081 3.711148796069364e-17
v 0.2799708843231201 0.09192569553852081 -0.11596774309873581
v 0.21428044140338898 0.09192569553852081 -0.21428044140338898
v 0.11596774309873581 0.09192569553852081 -0.2799708843231201
v 5.566723028667923e-17 0.09192569553852081 -0.3030382990837097
v -0.11596774309873581 0.09192569553852081 -0.2799708843231201
v -0.21428044140338898 0.09192569553852081 -0.21428044140338898
v -0.2799708843231201 0.09192569553852081 -0.11596774309873581
v -0.3030382990837097 0.09192569553852081 -7.422297592138728e-17
v -0.38569459319114685 0.15975995361804962 0
v -0.3563353419303894 0.15975995361804962 0.14759893715381622
v -0.27272728085517883 0.15975995361804962 0.27272728085517883
v -0.14759893715381622 0.15975995361804962 0.3563353419303894
v -2.3616984215872978e-17 0.15975995361804962 0.38569459319114685
v 0.14759893715381622 0.15975995361804962 0.3563353419303894
v 0.27272728085517883 0.15975995361804962 0.27272728085517883
v 0.3563353419303894 0.15975995361804962 0.14759893715381622
v 0.38569459319114685 0.15975995361804962 4.7233968431745956e-17
v 0.3563353419303894 0.15975995361804962 -0.14759893715381622
v 0.27272728085517883 0.15975995361804962 -0.27272728085517883
v 0.14759893715381622 0.15975995361804962 -0.3563353419303894
v 7.085094437581281e-17 0.15975995361804962 -0.38569459319114685
v -0.14759893715381622 0.15975995361804962 -0.3563353419303894
v -0.27272728085517883 0.15975995361804962 -0.27272728085517883
v -0.3563353419303894 0.15975995361804962 -0.14759893715381622
v -0.38569459319114685 0.15975995361804962 -9.446793686349191e-17
v -0.45352885127067566 0.24241626262664795 0
v -0.4190060496330261 0.24241626262664795 0.17355798184871674
v -0.32069331407546997 0.24241626262664795 0.32069331407546997
v -0.17355798184871674 0.24241626262664795 0.4190060496330261
v -2.777063361149983e-17 0.24241626262664795 0.45352885127067566
v 0.17355798184871674 0.24241626262664795 0.4190060496330261
v 0.32069331407546997 0.24241626262664795 0.32069331407546997
v 0.4190060496330261 0.24241626262664795 0.17355798184871674
v 0.45352885127067566 0.24241626262664795 5.554126722299966e-17
v 0.4190060496330261 0.24241626262664795 -0.17355798184871674
v 0.32069331407546997 0.24241626262664795 -0.32069331407546997
v 0.17355798184871674 0.24241626262664795 -0.4190060496330261
v 8.331190414322194e-17 0.24241626262664795 -0.45352885127067566
v -0.17355798184871674 0.24241626262664795 -0.4190060496330261
v -0.32069331407546997 0.24241626262664795 -0.32069331407546997
v -0.4190060496330261 0.24241626262664795 -0.17355798184871674
v -0.45352885127067566 0.24241626262664795 -1.1108253444599932e-16
v -0.5039342641830444 0.3367181122303009 0
v -0.46557459235191345 0.3367181122303009 0.19284729659557343
v -0.3563353419303894 0.3367181122303009 0.3563353419303894
v -0.19284729659557343 0.3367181122303009 0.46557459235191345
v -3.085707608750669e-17 0.3367181122303009 0.5039342641830444
v 0.19284729659557343 0.3367181122303009 0.46557459235191345
v 0.3563353419303894 0.3367181122303009 0.3563353419303894
v 0.46557459235191345 0.3367181122303009 0.19284729659557343
v 0.5039342641830444 0.3367181122303009 6.171415217501338e-17
v 0.46557459235191345 0.3367181122303009 -0.19284729659557343
v 0.3563353419303894 0.3367181122303009 -0.3563353419303894
v 0.19284729659557343 0.3367181122303009 -0.46557459235191345
v 9.257122495379762e-17 0.3367181122303009 -0.5039342641830444
v -0.19284729659557343 0.3367181122303009 -0.46557459235191345
v -0.3563353419303894 0.3367181122303009 -0.3563353419303894
v -0.46557459235191345 0.3367181122303009 -0.19284729659557343
v -0.5039342641830444 0.3367181122303009 -1.2342830435002676e-16
v -0.5349738001823425 0.4390416741371155 0
v -0.4942513406276703 0.4390416741371155 0.20472559332847595
v -0.3782835900783539 0.4390416741371155 0.3782835900783539
v -0.20472559332847595 0.4390416741371155 0.4942513406276703
v -3.275769559841468e-17 0.4390416741371155 0.5349738001823425
v 0.20472559332847595 0.4390416741371155 0.4942513406276703
v 0.3782835900783539 0.4390416741371155 0.3782835900783539
v 0.4942513406276703 0.4390416741371155 0.20472559332847595
v 0.5349738001823425 0.4390416741371155 6.551539119682936e-17
v 0.4942513406276703 0.4390416741371155 -0.20472559332847595
v 0.3782835900783539 0.4390416741371155 -0.3782835900783539
v 0.20472559332847595 0.4390416741371155 -0.4942513406276703
v 9.827309341268895e-17 0.4390416741371155 -0.5349738001823425
v -0.20472559332847595 0.4390416741371155 -0.4942513406276703
v -0.3782835900783539 0.4390416741371155 -0.3782835900783539
v -0.4942513406276703 0.4390416741371155 -0.20472559332847595
v -0.5349738001823425 0.4390416741371155 -1.3103078239365873e-16
v -0.5454545617103577 0.5454545617103577 0
v -0.5039342641830444 0.5454545617103577 0.20873640477657318
v -0.38569459319114685 0.5454545617103577 0.38569459319114685
v -0.20873640477657318 0.5454545617103577 0.5039342641830444
v -3.3399458713580273e-17 0.5454545617103577 0.5454545617103577
v 0.20873640477657318 0.5454545617103577 0.5039342641830444
v 0.38569459319114685 0.5454545617103577 0.38569459319114685
v 0.5039342641830444 0.5454545617103577 0.20873640477657318
v 0.5454545617103577 0.5454545617103577 6.679891742716055e-17
v 0.5039342641830444 0.5454545617103577 -0.20873640477657318
v 0.38569459319114685 0.5454545617103577 -0.38569459319114685
v 0.20873640477657318 0.5454545617103577 -0.5039342641830444
v 1.0019837283201837e-16 0.5454545617103577 -0.5454545617103577
v -0.20873640477657318 0.5454545617103577 -0.5039342641830444
v -0.38569459319114685 0.5454545617103577 -0.38569459319114685
v -0.5039342641830444 0.5454545617103577 -0.20873640477657318
v -0.5454545617103577 0.5454545617103577 -1.335978348543211e-16
v -0.5454545617103577 1.454545497894287 0
v -0.5039342641830444 1.454545497894287 0.20873640477657318
v -0.38569459319114685 1.454545497894287 0.38569459319114685
v -0.20873640477657318 1.454545497894287 0.5039342641830444
v -3.3399458713580273e-17 1.454545497894287 0.5454545617103577
v 0.20873640477657318 1.454545497894287 0.5039342641830444
v 0.38569459319114685 1.454545497894287 0.38569459319114685
v 0.5039342641830444 1.454545497894287 0.20873640477657318
v 0.5454545617103577 1.454545497894287 6.679891742716055e-17
v 0.5039342641830444 1.454545497894287 -0.20873640477657318
v 0.38569459319114685 1.454545497894287 -0.38569459319114685
v 0.20873640477657318 1.454545497894287 -0.5039342641830444
v 1.0019837283201837e-16 1.454545497894287 -0.5454545617103577
v -0.20873640477657318 1.454545497894287 -0.5039342641830444
v -0.38569459319114685 1.454545497894287 -0.38569459319114685
v -0.5039342641830444 1.454545497894287 -0.20873640477657318
v -0.5454545617103577 1.454545497894287 -1.335978348543211e-16
v -0.5349738001823425 1.5609582662582397 0
v -0.4942513406276703 1.5609582662582397 0.20472559332847595
v -0.3782835900783539 1.5609582662582397 0.3782835900783539
v -0.20472559332847595 1.5609582662582397 0.4942513406276703
v -3.275769559841468e-17 1.5609582662582397 0.5349738001823425
v 0.20472559332847595 1.5609582662582397 0.4942513406276703
v 0.3782835900783539 1.5609582662582397 0.3782835900783539
v 0.4942513406276703 1.5609582662582397 0.20472559332847595
v 0.5349738001823425 1.5609582662582397 6.551539119682936e-17
v 0.4942513406276703 1.5609582662582397 -0.20472559332847595
v 0.3782835900783539 1.5609582662582397 -0.3782835900783539
v 0.20472559332847595 1.5609582662582397 -0.4942513406276703
v 9.827309341268895e-17 1.5609582662582397 -0.5349738001823425
v -0.20472559332847595 1.5609582662582397 -0.4942513406276703
v -0.3782835900783539 1.5609582662582397 -0.3782835900783539
v -0.4942513406276703 1.5609582662582397 -0.20472559332847595
v -0.5349738001823425 1.5609582662582397 -1.3103078239365873e-16
v -0.5039342641830444 1.6632819175720215 0
v -0.46557459235191345 1.6632819175720215 0.19284729659557343
v -0.3563353419303894 1.6632819175720215 0.3563353419303894
v -0.19284729659557343 1.6632819175720215 0.46557459235191345
v -3.085707608750669e-17 1.6632819175720215 0.5039342641830444
v 0.19284729659557343 1.6632819175720215 0.46557459235191345
v 0.3563353419303894 1.6632819175720215 0.3563353419303894
v 0.46557459235191345 1.6632819175720215 0.19284729659557343
v 0.5039342641830444 1.6632819175720215 6.171415217501338e-17
v 0.46557459235191345 1.6632819175720215 -0.19284729659557343
v 0.3563353419303894 1.6632819175720215 -0.3563353419303894
v 0.19284729659557343 1.6632819175720215 -0.46557459235191345
v 9.257122495379762e-17 1.6632819175720215 -0.5039342641830444
v -0.19284729659557343 1.6632819175720215 -0.46557459235191345
v -0.3563353419303894 1.6632819175720215 -0.3563353419303894
v -0.46557459235191345 1.6632819175720215 -0.19284729659557343
v -0.5039342641830444 1.6632819175720215 -1.2342830435002676e-16
v -0.45352885127067566 1.757583737373352 0
v -0.4190060496330261 1.757583737373352 0.17355798184871674
v -0.32069331407546997 1.757583737373352 0.32069331407546997
v -0.17355798184871674 1.757583737373352 0.4190060496330261
v -2.777063361149983e-17 1.757583737373352 0.45352885127067566
v 0.17355798184871674 1.757583737373352 0.4190060496330261
v 0.32069331407546997 1.757583737373352 0.32069331407546997
v 0.4190060496330261 1.757583737373352 0.17355798184871674
v 0.45352885127067566 1.757583737373352 5.554126722299966e-17
v 0.4190060496330261 1.757583737373352 -0.17355798184871674
v 0.32069331407546997 1.757583737373352 -0.32069331407546997
v 0.17355798184871674 1.757583737373352 -0.4190060496330261
v 8.331190414322194e-17 1.757583737373352 -0.45352885127067566
v -0.17355798184871674 1.757583737373352 -0.4190060496330261
v -0.32069331407546997 1.757583737373352 -0.32069331407546997
v -0.4190060496330261 1.757583737373352 -0.17355798184871674
v -0.45352885127067566 1.757583737373352 -1.1108253444599932e-16
v -0.38569459319114685 1.8402400016784668 0
v -0.3563353419303894 1.8402400016784668 0.14759893715381622
v -0.27272728085517883 1.8402400016784668 0.27272728085517883
v -0.14759893715381622 1.8402400016784668 0.3563353419303894
v -2.3616984215872978e-17 1.8402400016784668 0.38569459319114685
v 0.14759893715381622 1.8402400016784668 0.3563353419303894
v 0.27272728085517883 1.8402400016784668 0.27272728085517883
v 0.3563353419303894 1.8402400016784668 0.14759893715381622
v 0.38569459319114685 1.8402400016784668 4.7233968431745956e-17
v 0.3563353419303894 1.8402400016784668 -0.14759893715381622
v 0.27272728085517883 1.8402400016784668 -0.27272728085517883
v 0.14759893715381622 1.8402400016784668 -0.3563353419303894
v 7.085094437581281e-17 1.8402400016784668 -0.38569459319114685
v -0.14759893715381622 1.8402400016784668 -0.3563353419303894
v -0.27272728085517883 1.8402400016784668 -0.27272728085517883
v -0.3563353419303894 1.8402400016784668 -0.14759893715381622
v -0.38569459319114685 1.8402400016784668 -9.446793686349191e-17
v -0.3030382990837097 1.9080742597579956 0
v -0.2799708843231201 1.9080742597579956 0.11596774309873581
v -0.21428044140338898 1.9080742597579956 0.21428044140338898
v -0.11596774309873581 1.9080742597579956 0.2799708843231201
v -1.855574398034682e-17 1.9080742597579956 0.3030382990837097
v 0.11596774309873581 1.9080742597579956 0.2799708843231201
v 0.21428044140338898 1.9080742597579956 0.21428044140338898
v 0.2799708843231201 1.9080742597579956 0.11596774309873581
v 0.3030382990837097 1.9080742597579956 3.711148796069364e-17
v 0.2799708843231201 1.9080742597579956 -0.11596774309873581
v 0.21428044140338898 1.9080742597579956 -0.21428044140338898
v 0.11596774309873581 1.9080742597579956 -0.2799708843231201
v 5.566723028667923e-17 1.9080742597579956 -0.3030382990837097
v -0.11596774309873581 1.9080742597579956 -0.2799708843231201
v -0.21428044140338898 1.9080742597579956 -0.21428044140338898
v -0.2799708843231201 1.9080742597579956 -0.11596774309873581
v -0.3030382990837097 1.9080742597579956 -7.422297592138728e-17
v -0.20873640477657318 1.958479881286621 0
v -0.19284729659557343 1.958479881286621 0.07987996935844421
v -0.14759893715381622 1.958479881286621 0.14759893715381622
v -0.07987996935844421 1.958479881286621 0.19284729659557343
v -1.278141863569891e-17 1.958479881286621 0.20873640477657318
v 0.07987996935844421 1.958479881286621 0.19284729659557343
v 0.14759893715381622 1.958479881286621 0.14759893715381622
v 0.19284729659557343 1.958479881286621 0.07987996935844421
v 0.20873640477657318 1.958479881286621 2.556283727139782e-17
v 0.19284729659557343 1.958479881286621 -0.07987996935844421
v 0.14759893715381622 1.958479881286621 -0.14759893715381622
v 0.07987996935844421 1.958479881286621 -0.19284729659557343
v 3.834425838863857e-17 1.958479881286621 -0.20873640477657318
v -0.07987996935844421 1.958479881286621 -0.19284729659557343
v -0.14759893715381622 1.958479881286621 -0.14759893715381622
v -0.19284729659557343 1.958479881286621 -0.07987996935844421
v -0.20873640477657318 1.958479881286621 -5.112567454279564e-17
v -0.10641290247440338 1.9895193576812744 0
v -0.09831269830465317 1.9895193576812744 0.04072245582938194
v -0.07524528354406357 1.9895193576812744 0.07524528354406357
v -0.04072245582938194 1.9895193576812744 0.09831269830465317
v -6.515910548184869e-18 1.9895193576812744 0.10641290247440338
v 0.04072245582938194 1.9895193576812744 0.09831269830465317
v 0.07524528354406357 1.9895193576812744 0.07524528354406357
v 0.09831269830465317 1.9895193576812744 0.04072245582938194
v 0.10641290247440338 1.9895193576812744 1.3031821096369737e-17
v 0.09831269830465317 1.9895193576812744 -0.04072245582938194
v 0.07524528354406357 1.9895193576812744 -0.07524528354406357
v 0.04072245582938194 1.9895193576812744 -0.09831269830465317
v 1.9547733712506137e-17 1.9895193576812744 -0.10641290247440338
v -0.04072245582938194 1.9895193576812744 -0.09831269830465317
v -0.07524528354406357 1.9895193576812744 -0.07524528354406357
v -0.09831269830465317 1.9895193576812744 -0.04072245582938194
v -0.10641290247440338 1.9895193576812744 -2.6063642192739475e-17
v -3.3399458713580273e-17 2 0
v -3.085707608750669e-17 2 1.278141863569891e-17
v -2.3616984215872978e-17 2 2.3616984215872978e-17
v -1.278141863569891e-17 2 3.085707608750669e-17
v -2.045126908270539e-33 2 3.3399458713580273e-17
v 1.278141863569891e-17 2 3.085707608750669e-17
v 2.3616984215872978e-17 2 2.3616984215872978e-17
v 3.085707608750669e-17 2 1.278141863569891e-17
v 3.3399458713580273e-17 2 4.090253816541078e-33
v 3.085707608750669e-17 2 -1.278141863569891e-17
v 2.3616984215872978e-17 2 -2.3616984215872978e-17
v 1.278141863569891e-17 2 -3.085707608750669e-17
v 6.1353810921536015e-33 2 -3.3399458713580273e-17
v -1.278141863569891e-17 2 -3.085707608750669e-17
v -2.3616984215872978e-17 2 -2.3616984215872978e-17
v -3.085707608750669e-17 2 -1.278141863569891e-17
v -3.3399458713580273e-17 2 -8.180507633082156e-33
vt 0.03125 0
vt 0.09375 0
vt 0.15625 0
vt 0.21875 0
vt 0.28125 0
vt 0.34375 0
vt 0.40625 0
vt 0.46875 0
vt 0.53125 0
vt 0.59375 0
vt 0.65625 0
vt 0.71875 0
vt 0.78125 0
vt 0.84375 0
vt 0.90625 0
vt 0.96875 0
vt 1.03125 0
vt 0 0.04083588719367981
vt 0.0625 0.04083588719367981
vt 0.125 0.04083588719367981
vt 0.1875 0.04083588719367981
vt 0.25 0.04083588719367981
vt 0.3125 0.04083588719367981
vt 0.375 0.04083588719367981
vt 0.4375 0.04083588719367981
vt 0.5 0.04083588719367981
vt 0.5625 0.04083588719367981
vt 0.625 0.04083588719367981
vt 0.6875 0.04083588719367981
vt 0.75 0.04083588719367981
vt 0.8125 0.04083588719367981
vt 0.875 0.04083588719367981
vt 0.9375 0.04083588719367981
vt 1 0.04083588719367981
vt 0 0.08167177438735962
vt 0.0625 0.08167177438735962
vt 0.125 0.08167177438735962
vt 0.1875 0.08167177438735962
vt 0.25 0.08167177438735962
vt 0.3125 0.08167177438735962
vt 0.375 0.08167177438735962
vt 0.4375 0.08167177438735962
vt 0.5 0.08167177438735962
vt 0.5625 0.08167177438735962
vt 0.625 0.08167177438735962
vt 0.6875 0.08167177438735962
vt 0.75 0.08167177438735962
vt 0.8125 0.08167177438735962
vt 0.875 0.08167177438735962
vt 0.9375 0.08167177438735962
vt 1 0.08167177438735962
vt 0 0.12250766158103943
vt 0.0625 0.12250766158103943
vt 0.125 0.12250766158103943
vt 0.1875 0.12250766158103943
vt 0.25 0.12250766158103943
vt 0.3125 0.12250766158103943
vt 0.375 0.12250766158103943
vt 0.4375 0.12250766158103943
vt 0.5 0.12250766158103943
vt 0.5625 0.12250766158103943
vt 0.625 0.12250766158103943
vt 0.6875 0.12250766158103943
vt 0.75 0.12250766158103943
vt 0.8125 0.12250766158103943
vt 0.875 0.12250766158103943
vt 0.9375 0.12250766158103943
vt 1 0.12250766158103943
vt 0 0.16334354877471924
vt 0.0625 0.16334354877471924
vt 0.125 0.16334354877471924
vt 0.1875 0.16334354877471924
vt 0.25 0.16334354877471924
vt 0.3125 0.16334354877471924
vt 0.375 0.16334354877471924
vt 0.4375 0.16334354877471924
vt 0.5 0.16334354877471924
vt 0.5625 0.16334354877471924
vt 0.625 0.16334354877471924
vt 0.6875 0.16334354877471924
vt 0.75 0.16334354877471924
vt 0.8125 0.16334354877471924
vt 0.875 0.16334354877471924
vt 0.9375 0.16334354877471924
vt 1 0.16334354877471924
vt 0 0.20417943596839905
vt 0.0625 0.20417943596839905
vt 0.125 0.20417943596839905
vt 0.1875 0.20417943596839905
vt 0.25 0.20417943596839905
vt 0.3125 0.20417943596839905
vt 0.375 0.20417943596839905
vt 0.4375 0.20417943596839905
vt 0.5 0.20417943596839905
vt 0.5625 0.20417943596839905
vt 0.625 0.20417943596839905
vt 0.6875 0.20417943596839905
vt 0.75 0.20417943596839905
vt 0.8125 0.20417943596839905
vt 0.875 0.20417943596839905
vt 0.9375 0.20417943596839905
vt 1 0.20417943596839905
vt 0 0.24501532316207886
vt 0.0625 0.24501532316207886
vt 0.125 0.24501532316207886
vt 0.1875 0.24501532316207886
vt 0.25 0.24501532316207886
vt 0.3125 0.24501532316207886
vt 0.375 0.24501532316207886
vt 0.4375 0.24501532316207886
vt 0.5 0.24501532316207886
vt 0.5625 0.24501532316207886
vt 0.625 0.24501532316207886
vt 0.6875 0.24501532316207886
vt 0.75 0.24501532316207886
vt 0.8125 0.24501532316207886
vt 0.875 0.24501532316207886
vt 0.9375 0.24501532316207886
vt 1 0.24501532316207886
vt 0 0.28585121035575867
vt 0.0625 0.28585121035575867
vt 0.125 0.28585121035575867
vt 0.1875 0.28585121035575867
vt 0.25 0.28585121035575867
vt 0.3125 0.28585121035575867
vt 0.375 0.28585121035575867
vt 0.4375 0.28585121035575867
vt 0.5 0.28585121035575867
vt 0.5625 0.28585121035575867
vt 0.625 0.28585121035575867
vt 0.6875 0.28585121035575867
vt 0.75 0.28585121035575867
vt 0.8125 0.28585121035575867
vt 0.875 0.28585121035575867
vt 0.9375 0.28585121035575867
vt 1 0.28585121035575867
vt 0 0.3266870975494385
vt 0.0625 0.3266870975494385
vt 0.125 0.3266870975494385
vt 0.1875 0.3266870975494385
vt 0.25 0.3266870975494385
vt 0.3125 0.3266870975494385
vt 0.375 0.3266870975494385
vt 0.4375 0.3266870975494385
vt 0.5 0.3266870975494385
vt 0.5625 0.3266870975494385
vt 0.625 0.3266870975494385
vt 0.6875 0.3266870975494385
vt 0.75 0.3266870975494385
vt 0.8125 0.3266870975494385
vt 0.875 0.3266870975494385
vt 0.9375 0.3266870975494385
vt 1 0.3266870975494385
vt 0 0.6733129024505615
vt 0.0625 0.6733129024505615
vt 0.125 0.6733129024505615
vt 0.1875 0.6733129024505615
vt 0.25 0.6733129024505615
vt 0.3125 0.6733129024505615
vt 0.375 0.6733129024505615
vt 0.4375 0.6733129024505615
vt 0.5 0.6733129024505615
vt 0.5625 0.6733129024505615
vt 0.625 0.6733129024505615
vt 0.6875 0.6733129024505615
vt 0.75 0.6733129024505615
vt 0.8125 0.6733129024505615
vt 0.875 0.6733129024505615
vt 0.9375 0.6733129024505615
vt 1 0.6733129024505615
vt 0 0.714148759841919
vt 0.0625 0.714148759841919
vt 0.125 0.714148759841919
vt 0.1875 0.714148759841919
vt 0.25 0.714148759841919
vt 0.3125 0.714148759841919
vt 0.375 0.714148759841919
vt 0.4375 0.714148759841919
vt 0.5 0.714148759841919
vt 0.5625 0.714148759841919
vt 0.625 0.714148759841919
vt 0.6875 0.714148759841919
vt 0.75 0.714148759841919
vt 0.8125 0.714148759841919
vt 0.875 0.714148759841919
vt 0.9375 0.714148759841919
vt 1 0.714148759841919
vt 0 0.7549846768379211
vt 0.0625 0.7549846768379211
vt 0.125 0.7549846768379211
vt 0.1875 0.7549846768379211
vt 0.25 0.7549846768379211
vt 0.3125 0.7549846768379211
vt 0.375 0.7549846768379211
vt 0.4375 0.7549846768379211
vt 0.5 0.7549846768379211
vt 0.5625 0.7549846768379211
vt 0.625 0.7549846768379211
vt 0.6875 0.7549846768379211
vt 0.75 0.7549846768379211
vt 0.8125 0.7549846768379211
vt 0.875 0.7549846768379211
vt 0.9375 0.7549846768379211
vt 1 0.7549846768379211
vt 0 0.7958205342292786
vt 0.0625 0.7958205342292786
vt 0.125 0.7958205342292786
vt 0.1875 0.7958205342292786
vt 0.25 0.7958205342292786
vt 0.3125 0.7958205342292786
vt 0.375 0.7958205342292786
vt 0.4375 0.7958205342292786
vt 0.5 0.7958205342292786
vt 0.5625 0.7958205342292786
vt 0.625 0.7958205342292786
vt 0.6875 0.7958205342292786
vt 0.75 0.7958205342292786
vt 0.8125 0.7958205342292786
vt 0.875 0.7958205342292786
vt 0.9375 0.7958205342292786
vt 1 0.7958205342292786
vt 0 0.8366564512252808
vt 0.0625 0.8366564512252808
vt 0.125 0.8366564512252808
vt 0.1875 0.8366564512252808
vt 0.25 0.8366564512252808
vt 0.3125 0.8366564512252808
vt 0.375 0.8366564512252808
vt 0.4375 0.8366564512252808
vt 0.5 0.8366564512252808
vt 0.5625 0.8366564512252808
vt 0.625 0.8366564512252808
vt 0.6875 0.8366564512252808
vt 0.75 0.8366564512252808
vt 0.8125 0.8366564512252808
vt 0.875 0.8366564512252808
vt 0.9375 0.8366564512252808
vt 1 0.8366564512252808
vt 0 0.8774923086166382
vt 0.0625 0.8774923086166382
vt 0.125 0.8774923086166382
vt 0.1875 0.8774923086166382
vt 0.25 0.8774923086166382
vt 0.3125 0.8774923086166382
vt 0.375 0.8774923086166382
vt 0.4375 0.8774923086166382
vt 0.5 0.8774923086166382
vt 0.5625 0.8774923086166382
vt 0.625 0.8774923086166382
vt 0.6875 0.8774923086166382
vt 0.75 0.8774923086166382
vt 0.8125 0.8774923086166382
vt 0.875 0.8774923086166382
vt 0.9375 0.8774923086166382
vt 1 0.8774923086166382
vt 0 0.9183282256126404
vt 0.0625 0.9183282256126404
vt 0.125 0.9183282256126404
vt 0.1875 0.9183282256126404
vt 0.25 0.9183282256126404
vt 0.3125 0.9183282256126404
vt 0.375 0.9183282256126404
vt 0.4375 0.9183282256126404
vt 0.5 0.9183282256126404
vt 0.5625 0.9183282256126404
vt 0.625 0.9183282256126404
vt 0.6875 0.9183282256126404
vt 0.75 0.9183282256126404
vt 0.8125 0.9183282256126404
vt 0.875 0.9183282256126404
vt 0.9375 0.9183282256126404
vt 1 0.9183282256126404
vt 0 0.9591640830039978
vt 0.0625 0.9591640830039978
vt 0.125 0.9591640830039978
vt 0.1875 0.9591640830039978
vt 0.25 0.9591640830039978
vt 0.3125 0.9591640830039978
vt 0.375 0.9591640830039978
vt 0.4375 0.9591640830039978
vt 0.5 0.9591640830039978
vt 0.5625 0.9591640830039978
vt 0.625 0.9591640830039978
vt 0.6875 0.9591640830039978
vt 0.75 0.9591640830039978
vt 0.8125 0.9591640830039978
vt 0.875 0.9591640830039978
vt 0.9375 0.9591640830039978
vt 1 0.9591640830039978
vt -0.03125 1
vt 0.03125 1
vt 0.09375 1
vt 0.15625 1
vt 0.21875 1
vt 0.28125 1
vt 0.34375 1
vt 0.40625 1
vt 0.46875 1
vt 0.53125 1
vt 0.59375 1
vt 0.65625 1
vt 0.71875 1
vt 0.78125 1
vt 0.84375 1
vt 0.90625 1
vt 0.96875 1
vn 0 0 0
vn -0.09799866606983916 -0.9949956172425445 0.019493155636274125
vn -0.08307925804973892 -0.9949956171679147 0.05551178882494522
vn -0.05551178882494522 -0.9949956171679147 0.08307925804973892
vn -0.019493155636274125 -0.9949956172425445 0.09799866606983916
vn 0.019493155636274125 -0.9949956172425445 0.09799866606983916
vn 0.05551178882494522 -0.9949956171679147 0.08307925804973892
vn 0.08307925804973892 -0.9949956171679147 0.05551178882494522
vn 0.09799866606983916 -0.9949956172425445 0.019493155636274125
vn 0.09799866606983916 -0.9949956172425445 -0.019493155636274125
vn 0.08307925804973892 -0.9949956171679147 -0.05551178882494522
vn 0.05551178882494522 -0.9949956171679147 -0.08307925804973892
vn 0.019493155636274125 -0.9949956172425445 -0.09799866606983916
vn -0.019493155636274125 -0.9949956172425445 -0.09799866606983916
vn -0.05551178882494522 -0.9949956171679147 -0.08307925804973892
vn -0.08307925804973892 -0.9949956171679147 -0.05551178882494522
vn -0.09799866606983916 -0.9949956172425445 -0.019493155636274125
vn -0.19494364723427432 -0.9800476214530158 0.03877672094549631
vn -0.21675753936307923 -0.9737743889343262 0.0691347133127985
vn -0.17380114185388332 -0.9737743895374729 0.14682166519696085
vn -0.10438510220805416 -0.9737743912835597 0.20215633880080736
vn -0.019077360908276556 -0.973774387733731 0.22671456965658962
vn 0.0691347133127985 -0.9737743889343262 0.21675753936307923
vn 0.14682166519696085 -0.9737743895374729 0.17380114185388332
vn 0.20215633880080736 -0.9737743912835597 0.10438510220805416
vn 0.22671456965658962 -0.973774387733731 0.019077360908276556
vn 0.21675753936307923 -0.9737743889343262 -0.0691347133127985
vn 0.17380114185388332 -0.9737743895374729 -0.14682166519696085
vn 0.10438510220805416 -0.9737743912835597 -0.20215633880080736
vn 0.019077360908276556 -0.973774387733731 -0.22671456965658962
vn -0.0691347133127985 -0.9737743889343262 -0.21675753936307923
vn -0.14682166519696085 -0.9737743895374729 -0.17380114185388332
vn -0.20215633880080736 -0.9737743912835597 -0.10438510220805416
vn -0.24235082542049094 -0.9689903011088934 -0.04820657398014325
vn -0.36317628517919737 -0.928915676791278 0.07224023321418772
vn -0.37361309102633655 -0.917664532076676 0.13529621126344138
vn -0.29339784671314606 -0.9176645368865202 0.26797294879322675
vn -0.16851547151041457 -0.9176645164911775 0.35985326319853733
vn -0.017978101794279503 -0.9176645189867098 0.39694913836506196
vn 0.13529621126344138 -0.917664532076676 0.37361309102633655
vn 0.26797294879322675 -0.9176645368865202 0.29339784671314606
vn 0.35985326319853733 -0.9176645164911775 0.16851547151041457
vn 0.39694913836506196 -0.9176645189867098 0.017978101794279503
vn 0.37361309102633655 -0.917664532076676 -0.13529621126344138
vn 0.29339784671314606 -0.9176645368865202 -0.26797294879322675
vn 0.16851547151041457 -0.9176645164911775 -0.35985326319853733
vn 0.017978101794279503 -0.9176645189867098 -0.39694913836506196
vn -0.13529621126344138 -0.917664532076676 -0.37361309102633655
vn -0.26797294879322675 -0.9176645368865202 -0.29339784671314606
vn -0.35985326319853733 -0.9176645164911775 -0.16851547151041457
vn -0.41912963991461466 -0.9040905834336809 -0.08337002993637432
vn -0.5314269529724895 -0.8404828100964811 0.10570732986268272
vn -0.5267909152911311 -0.8259631965851714 0.2006891363615325
vn -0.4098909437809417 -0.8259631871586602 0.3870067540303098
vn -0.23058877752012535 -0.8259631943628263 0.5144060820399875
vn -0.016181586184430826 -0.8259631927155121 0.563491757302406
vn 0.2006891363615325 -0.8259631965851714 0.5267909152911311
vn 0.3870067540303098 -0.8259631871586602 0.4098909437809417
vn 0.5144060820399875 -0.8259631943628263 0.23058877752012535
vn 0.563491757302406 -0.8259631927155121 0.016181586184430826
vn 0.5267909152911311 -0.8259631965851714 -0.2006891363615325
vn 0.4098909437809417 -0.8259631871586602 -0.3870067540303098
vn 0.23058877752012535 -0.8259631943628263 -0.5144060820399875
vn 0.016181586184430826 -0.8259631927155121 -0.563491757302406
vn -0.2006891363615325 -0.8259631965851714 -0.5267909152911311
vn -0.3870067540303098 -0.8259631871586602 -0.4098909437809417
vn -0.5144060820399875 -0.8259631943628263 -0.23058877752012535
vn -0.5830267705317794 -0.8041333607962089 -0.11597121581615824
vn -0.6808673702514333 -0.719776030452292 0.13543297276970262
vn -0.6626833012149285 -0.7024674938390503 0.2595963451020993
vn -0.5128963635555449 -0.7024674478435864 0.4934336885252327
vn -0.2850255027645578 -0.7024674902031919 0.652150203543202
vn -0.013762160513689869 -0.7024675169531941 0.7115827362742924
vn 0.2595963451020993 -0.7024674938390503 0.6626833012149285
vn 0.4934336885252327 -0.7024674478435864 0.5128963635555449
vn 0.652150203543202 -0.7024674902031919 0.2850255027645578
vn 0.7115827362742925 -0.7024675169531943 0.013762160513689873
vn 0.6626833012149285 -0.7024674938390503 -0.2595963451020993
vn 0.5128963635555449 -0.7024674478435864 -0.4934336885252327
vn 0.2850255027645578 -0.7024674902031919 -0.652150203543202
vn 0.013762160513689869 -0.7024675169531941 -0.7115827362742924
vn -0.2595963451020993 -0.7024674938390503 -0.6626833012149285
vn -0.4934336885252327 -0.7024674478435864 -0.5128963635555449
vn -0.652150203543202 -0.7024674902031919 -0.2850255027645578
vn -0.7247550994378831 -0.6737559950888068 -0.14416277231197988
vn -0.8042974678515157 -0.5722853092237736 0.15998471193926528
vn -0.7744744378019844 -0.5519515842046521 0.3090935034666288
vn -0.5972361049770817 -0.5519515350980799 0.5819437582917075
vn -0.3290740288217682 -0.5519515933518739 0.7661982264083739
vn -0.010813342451518175 -0.551951589454882 0.833806041308922
vn 0.3090935034666288 -0.5519515842046521 0.7744744378019844
vn 0.5819437582917075 -0.5519515350980799 0.5972361049770817
vn 0.7661982264083739 -0.5519515933518739 0.3290740288217682
vn 0.833806041308922 -0.551951589454882 0.010813342451518175
vn 0.7744744378019844 -0.5519515842046521 -0.3090935034666288
vn 0.5972361049770817 -0.5519515350980799 -0.5819437582917075
vn 0.3290740288217682 -0.5519515933518739 -0.7661982264083739
vn 0.010813342451518175 -0.551951589454882 -0.833806041308922
vn -0.3090935034666288 -0.5519515842046521 -0.7744744378019844
vn -0.5819437582917075 -0.5519515350980799 -0.5972361049770817
vn -0.7661982264083739 -0.5519515933518739 -0.3290740288217682
vn -0.8385713560213022 -0.5186281119947227 -0.16680216518194216
vn -0.8971222740212397 -0.4041382119912751 0.17844867907455947
vn -0.8573211583027366 -0.38020465449925184 0.3470516564195575
vn -0.6592504969759653 -0.38020467709617056 0.648716568118265
vn -0.360815048195929 -0.38020473716341363 0.8516201376399392
vn -0.007448664744445767 -0.3802046713574571 0.9248723832353808
vn 0.3470516564195575 -0.38020465449925184 0.8573211583027366
vn 0.648716568118265 -0.38020467709617056 0.6592504969759653
vn 0.8516201376399392 -0.38020473716341363 0.360815048195929
vn 0.9248723832353808 -0.3802046713574571 0.007448664744445767
vn 0.8573211583027366 -0.38020465449925184 -0.3470516564195575
vn 0.6592504969759653 -0.38020467709617056 -0.648716568118265
vn 0.360815048195929 -0.38020473716341363 -0.8516201376399392
vn 0.007448664744445767 -0.3802046713574571 -0.9248723832353808
vn -0.3470516564195575 -0.38020465449925184 -0.8573211583027366
vn -0.648716568118265 -0.38020467709617056 -0.6592504969759653
vn -0.8516201376399392 -0.38020473716341363 -0.360815048195929
vn -0.9205700547496045 -0.3449934941207217 -0.18311270658445783
vn -0.9563599971198518 -0.22178238969552383 0.19023177318697354
vn -0.90780443942346 -0.19383116277674034 0.37191474842989847
vn -0.6963763867051013 -0.1938312212157087 0.6910060677892593
vn -0.37893130659954105 -0.1938311421041906 0.9048980899688924
vn -0.003797370723535579 -0.19383119127946152 0.9810275476574412
vn 0.37191474842989847 -0.19383116277674034 0.90780443942346
vn 0.6910060677892593 -0.1938312212157087 0.6963763867051013
vn 0.9048980899688924 -0.1938311421041906 0.37893130659954105
vn 0.9810275476574412 -0.19383119127946152 0.003797370723535579
vn 0.90780443942346 -0.19383116277674034 -0.37191474842989847
vn 0.6963763867051013 -0.1938312212157087 -0.6910060677892593
vn 0.37893130659954105 -0.1938311421041906 -0.9048980899688924
vn 0.003797370723535579 -0.19383119127946152 -0.9810275476574412
vn -0.37191474842989847 -0.19383116277674034 -0.90780443942346
vn -0.6910060677892593 -0.1938312212157087 -0.6963763867051013
vn -0.9048980899688924 -0.1938311421041906 -0.37893130659954105
vn -0.9682540820021942 -0.15934291360960923 -0.19259768578175823
vn -0.9806231975870711 -0.01817873887523383 0.19505813955591345
vn -0.9426483395477944 -0.010246830865819968 0.33363020007935945
vn -0.7432187802938461 -0.010246843109657915 0.6689699894799569
vn -0.4306409387737153 -0.0102468310608306 0.9024651706882123
vn -0.052501873023011604 -0.010246842332433607 0.9985682528256594
vn 0.33363020007935945 -0.010246830865819968 0.9426483395477944
vn 0.6689699894799569 -0.010246843109657915 0.7432187802938461
vn 0.9024651706882123 -0.0102468310608306 0.4306409387737153
vn 0.9985682530304933 -0.010246841403212928 0.05250186930849083
vn 0.9426483395477944 -0.010246830865819968 -0.33363020007935945
vn 0.7432187802938461 -0.010246843109657915 -0.6689699894799569
vn 0.4306409387737153 -0.0102468310608306 -0.9024651706882123
vn 0.05250186930849083 -0.010246841403212928 -0.9985682530304933
vn -0.33363020007935945 -0.010246830865819968 -0.9426483395477944
vn -0.6689699894799569 -0.010246843109657915 -0.7432187802938461
vn -0.9024651706882123 -0.0102468310608306 -0.4306409387737153
vn -0.9807712779047653 -0.005340989541473687 -0.1950876066483245
vn -0.9807712779047653 0.005340989541473687 0.1950876066483245
vn -0.9024651822705404 0.010246831192339455 0.4306409144982811
vn -0.6689699269211188 0.010246842133084947 0.743218836616412
vn -0.33363014711243755 0.01024683013836271 0.9426483583022084
vn 0.052501880453055184 0.010246842328425354 0.9985682524350499
vn 0.4306409144982811 0.010246831192339455 0.9024651822705404
vn 0.7432188366164119 0.010246842133084943 0.6689699269211186
vn 0.9426483489205039 0.01024683096770374 0.333630173594307
vn 0.9985682528351888 0.010246841401208804 -0.052501873023512634
vn 0.9024651822705404 0.010246831192339455 -0.4306409144982811
vn 0.6689699269211188 0.010246842133084947 -0.743218836616412
vn 0.333630173594307 0.01024683096770374 -0.9426483489205039
vn -0.052501873023512634 0.010246841401208804 -0.9985682528351888
vn -0.4306409144982811 0.010246831192339455 -0.9024651822705404
vn -0.7432188366164119 0.010246842133084943 -0.6689699269211186
vn -0.9426483489205039 0.01024683096770374 -0.333630173594307
vn -0.9806231975870711 0.01817873887523383 -0.19505813955591345
vn -0.9682540820021942 0.15934291360960923 0.19259768578175823
vn -0.9048981001879359 0.193831144293132 0.3789312810765025
vn -0.691006069785099 0.19383120687439206 0.6963763887164521
vn -0.37191474735569346 0.19383117711805722 0.9078044368014395
vn 0.003797370712567595 0.19383120562077819 0.9810275448239295
vn 0.3789312810765025 0.193831144293132 0.9048981001879359
vn 0.6963763887164521 0.19383120687439206 0.691006069785099
vn 0.9078044368014395 0.19383117711805722 0.37191474735569346
vn 0.9810275448239295 0.19383120562077819 -0.003797370712567595
vn 0.9048981001879359 0.193831144293132 -0.3789312810765025
vn 0.691006069785099 0.19383120687439206 -0.6963763887164521
vn 0.37191474735569346 0.19383117711805722 -0.9078044368014395
vn -0.003797370712567595 0.19383120562077819 -0.9810275448239295
vn -0.3789312810765025 0.193831144293132 -0.9048981001879359
vn -0.6963763887164521 0.19383120687439206 -0.691006069785099
vn -0.9078044368014395 0.19383117711805722 -0.37191474735569346
vn -0.9563599971198518 0.22178238969552383 -0.19023177318697354
vn -0.9205700572614643 0.3449934950620681 0.18311269218293674
vn -0.8516201284823599 0.3802047330750239 0.36081507411836117
vn -0.6487165007557121 0.3802047023516791 0.6592505486967266
vn -0.3470516747674708 0.38020470155527536 0.8573211300069291
vn 0.007448663589358229 0.3802047433092985 0.9248723536660847
vn 0.36081507411836117 0.3802047330750239 0.8516201284823599
vn 0.6592505486967266 0.3802047023516791 0.6487165007557121
vn 0.8573211300069291 0.38020470155527536 0.3470516747674708
vn 0.9248723536660847 0.3802047433092985 -0.007448663589358229
vn 0.8516201284823599 0.3802047330750239 -0.36081507411836117
vn 0.6487165007557121 0.3802047023516791 -0.6592505486967266
vn 0.3470516747674708 0.38020470155527536 -0.8573211300069291
vn -0.007448663589358229 0.3802047433092985 -0.9248723536660847
vn -0.36081507411836117 0.3802047330750239 -0.8516201284823599
vn -0.6592505486967266 0.3802047023516791 -0.6487165007557121
vn -0.8573211300069291 0.38020470155527536 -0.3470516747674708
vn -0.8971222716357083 0.4041382109166341 -0.17844869350120923
vn -0.838571312408297 0.5186281814896576 0.16680216836287615
vn -0.7661982012013109 0.5519516347979286 0.3290740179956015
vn -0.5819437582917075 0.5519515350980799 0.5972361049770817
vn -0.3090935034666288 0.5519515842046521 0.7744744378019844
vn 0.010813340233344033 0.5519516309120536 0.8338060138944321
vn 0.3290740179956015 0.5519516347979286 0.7661982012013109
vn 0.5972361049770817 0.5519515350980799 0.5819437582917075
vn 0.7744744378019844 0.5519515842046521 0.3090935034666288
vn 0.8338060138944321 0.5519516309120536 -0.010813340233344033
vn 0.7661982012013109 0.5519516347979286 -0.3290740179956015
vn 0.5819437582917075 0.5519515350980799 -0.5972361049770817
vn 0.3090935034666288 0.5519515842046521 -0.7744744378019844
vn -0.010813340233344033 0.5519516309120536 -0.8338060138944321
vn -0.3290740179956015 0.5519516347979286 -0.7661982012013109
vn -0.5972361049770817 0.5519515350980799 -0.5819437582917075
vn -0.7744744378019844 0.5519515842046521 -0.3090935034666288
vn -0.8042974678515157 0.5722853092237736 -0.15998471193926528
vn -0.7247550994378831 0.6737559950888068 0.14416277231197988
vn -0.6521502090828405 0.7024674961702466 0.28502547538336237
vn -0.49343372615614484 0.7024674589886076 0.5128963120882734
vn -0.2595963553558961 0.7024675215858159 0.6626832677856117
vn 0.013762159582543664 0.7024675169621977 0.7115827362834127
vn 0.28502547538336237 0.7024674961702466 0.6521502090828405
vn 0.5128963120882734 0.7024674589886076 0.49343372615614484
vn 0.6626832677856117 0.7024675215858159 0.2595963553558961
vn 0.7115827362834127 0.7024675169621977 -0.013762159582543664
vn 0.6521502090828405 0.7024674961702466 -0.28502547538336237
vn 0.49343372615614484 0.7024674589886076 -0.5128963120882734
vn 0.2595963553558961 0.7024675215858159 -0.6626832677856117
vn -0.013762159582543664 0.7024675169621977 -0.7115827362834127
vn -0.28502547538336237 0.7024674961702466 -0.6521502090828405
vn -0.5128963120882734 0.7024674589886076 -0.49343372615614484
vn -0.6626832677856117 0.7024675215858159 -0.2595963553558961
vn -0.6808673702514333 0.719776030452292 -0.13543297276970262
vn -0.5830267705317794 0.8041333607962089 0.11597121581615824
vn -0.5144060873425474 0.8259632028769545 0.2305887351935785
vn -0.38700670335290366 0.8259632062114824 0.40989095323605956
vn -0.2006891363615325 0.8259631965851714 0.5267909152911311
vn 0.01618158432227341 0.8259631927404071 0.5634917573193899
vn 0.2305887351935785 0.8259632028769545 0.5144060873425474
vn 0.40989095323605956 0.8259632062114824 0.38700670335290366
vn 0.5267909152911311 0.8259631965851714 0.2006891363615325
vn 0.5634917573193899 0.8259631927404071 -0.01618158432227341
vn 0.5144060873425474 0.8259632028769545 -0.2305887351935785
vn 0.38700670335290366 0.8259632062114824 -0.40989095323605956
vn 0.2006891363615325 0.8259631965851714 -0.5267909152911311
vn -0.01618158432227341 0.8259631927404071 -0.5634917573193899
vn -0.2305887351935785 0.8259632028769545 -0.5144060873425474
vn -0.40989095323605956 0.8259632062114824 -0.38700670335290366
vn -0.5267909152911311 0.8259631965851714 -0.2006891363615325
vn -0.5314269795952156 0.8404827925972332 -0.10570733515826901
vn -0.41912963991461466 0.9040905834336809 0.08337002993637432
vn -0.35985321221597644 0.9176645384784203 0.16851546064688408
vn -0.26797294645008807 0.9176645288625188 0.29339787395001604
vn -0.13529619663504677 0.9176645339267523 0.37361309177956686
vn 0.017978101794279503 0.9176645189867098 0.39694913836506196
vn 0.16851546064688408 0.9176645384784203 0.35985321221597644
vn 0.29339787395001604 0.9176645288625188 0.26797294645008807
vn 0.37361309177956686 0.9176645339267523 0.13529619663504677
vn 0.39694913836506196 0.9176645189867098 -0.017978101794279503
vn 0.35985321221597644 0.9176645384784203 -0.16851546064688408
vn 0.26797294645008807 0.9176645288625188 -0.29339787395001604
vn 0.13529619663504677 0.9176645339267523 -0.37361309177956686
vn -0.017978101794279503 0.9176645189867098 -0.39694913836506196
vn -0.16851546064688408 0.9176645384784203 -0.35985321221597644
vn -0.29339787395001604 0.9176645288625188 -0.26797294645008807
vn -0.37361309177956686 0.9176645339267523 -0.13529619663504677
vn -0.36317628517919737 0.928915676791278 -0.07224023321418772
vn -0.24235082542049094 0.9689903011088934 0.04820657398014325
vn -0.20215635325022324 0.9737743891075297 0.10438509452421088
vn -0.14682166519696085 0.9737743895374729 0.17380114185388332
vn -0.06913472095106928 0.973774391577973 0.21675752505038093
vn 0.019077360908276556 0.973774387733731 0.22671456965658962
vn 0.10438509452421088 0.9737743891075297 0.20215635325022324
vn 0.17380114185388332 0.9737743895374729 0.14682166519696085
vn 0.21675752505038093 0.973774391577973 0.06913472095106928
vn 0.22671456965658962 0.973774387733731 -0.019077360908276556
vn 0.20215635325022324 0.9737743891075297 -0.10438509452421088
vn 0.14682166519696085 0.9737743895374729 -0.17380114185388332
vn 0.06913472095106928 0.973774391577973 -0.21675752505038093
vn -0.019077360908276556 0.973774387733731 -0.22671456965658962
vn -0.10438509452421088 0.9737743891075297 -0.20215635325022324
vn -0.17380114185388332 0.9737743895374729 -0.14682166519696085
vn -0.21675752505038093 0.973774391577973 -0.06913472095106928
vn -0.19494364723427432 0.9800476214530158 -0.03877672094549631
vn -0.09799866606983916 0.9949956172425445 0.019493155636274125
vn -0.08307925804973892 0.9949956171679147 0.05551178882494522
vn -0.05551178882494522 0.9949956171679147 0.08307925804973892
vn -0.019493155636274125 0.9949956172425445 0.09799866606983916
vn 0.019493155636274125 0.9949956172425445 0.09799866606983916
vn 0.05551178882494522 0.9949956171679147 0.08307925804973892
vn 0.08307925804973892 0.9949956171679147 0.05551178882494522
vn 0.09799866606983916 0.9949956172425445 0.019493155636274125
vn 0.09799866606983916 0.9949956172425445 -0.019493155636274125
vn 0.08307925804973892 0.9949956171679147 -0.05551178882494522
vn 0.05551178882494522 0.9949956171679147 -0.08307925804973892
vn 0.019493155636274125 0.9949956172425445 -0.09799866606983916
vn -0.019493155636274125 0.9949956172425445 -0.09799866606983916
vn -0.05551178882494522 0.9949956171679147 -0.08307925804973892
vn -0.08307925804973892 0.9949956171679147 -0.05551178882494522
vn -0.09799866606983916 0.9949956172425445 -0.019493155636274125
vn -0.0979986734488665 0.9949956165160514 -0.019493155622041253
f 1/1/1 2/2/2 18/18/18
f 2/2/2 19/19/19 18/18/18
f 2/2/2 3/3/3 19/19/19
f 3/3/3 20/20/20 19/19/19
f 3/3/3 4/4/4 20/20/20
f 4/4/4 21/21/21 20/20/20
f 4/4/4 5/5/5 21/21/21
f 5/5/5 22/22/22 21/21/21
f 5/5/5 6/6/6 22/22/22
f 6/6/6 23/23/23 22/22/22
f 6/6/6 7/7/7 23/23/23
f 7/7/7 24/24/24 23/23/23
f 7/7/7 8/8/8 24/24/24
f 8/8/8 25/25/25 24/24/24
f 8/8/8 9/9/9 25/25/25
f 9/9/9 26/26/26 25/25/25
f 9/9/9 10/10/10 26/26/26
f 10/10/10 27/27/27 26/26/26
f 10/10/10 11/11/11 27/27/27
f 11/11/11 28/28/28 27/27/27
f 11/11/11 12/12/12 28/28/28
f 12/12/12 29/29/29 28/28/28
f 12/12/12 13/13/13 29/29/29
f 13/13/13 30/30/30 29/29/29
f 13/13/13 14/14/14 30/30/30
f 14/14/14 31/31/31 30/30/30
f 14/14/14 15/15/15 31/31/31
f 15/15/15 32/32/32 31/31/31
f 15/15/15 16/16/16 32/32/32
f 16/16/16 33/33/33 32/32/32
f 16/16/16 17/17/17 33/33/33
f 17/17/17 34/34/34 33/33/33
f 18/18/18 19/19/19 35/35/35
f 19/19/19 36/36/36 35/35/35
f 19/19/19 20/20/20 36/36/36
f 20/20/20 37/37/37 36/36/36
f 20/20/20 21/21/21 37/37/37
f 21/21/21 38/38/38 37/37/37
f 21/21/21 22/22/22 38/38/38
f 22/22/22 39/39/39 38/38/38
f 22/22/22 23/23/23 39/39/39
f 23/23/23 40/40/40 39/39/39
f 23/23/23 24/24/24 40/40/40
f 24/24/24 41/41/41 40/40/40
f 24/24/24 25/25/25 41/41/41
f 25/25/25 42/42/42 41/41/41
f 25/25/25 26/26/26 42/42/42
f 26/26/26 43/43/43 42/42/42
f 26/26/26 27/27/27 43/43/43
f 27/27/27 44/44/44 43/43/43
f 27/27/27 28/28/28 44/44/44
f 28/28/28 45/45/45 44/44/44
f 28/28/28 29/29/29 45/45/45
f 29/29/29 46/46/46 45/45/45
f 29/29/29 30/30/30 46/46/46
f 30/30/30 47/47/47 46/46/46
f 30/30/30 31/31/31 47/47/47
f 31/31/31 48/48/48 47/47/47
f 31/31/31 32/32/32 48/48/48
f 32/32/32 49/49/49 48/48/48
f 32/32/32 33/33/33 49/49/49
f 33/33/33 50/50/50 49/49/49
f 33/33/33 34/34/34 50/50/50
f 34/34/34 51/51/51 50/50/50
f 35/35/35 36/36/36 52/52/52
f 36/36/36 53/53/53 52/52/52
f 36/36/36 37/37/37 53/53/53
f 37/37/37 54/54/54 53/53/53
f 37/37/37 38/38/38 54/54/54
f 38/38/38 55/55/55 54/54/54
f 38/38/38 39/39/39 55/55/55
f 39/39/39 56/56/56 55/55/55
f 39/39/39 40/40/40 56/56/56
f 40/40/40 57/57/57 56/56/56
f 40/40/40 41/41/41 57/57/57
f 41/41/41 58/58/58 57/57/57
f 41/41/41 42/42/42 58/58/58
f 42/42/42 59/59/59 58/58/58
f 42/42/42 43/43/43 59/59/59
f 43/43/43 60/60/60 59/59/59
f 43/43/43 44/44/44 60/60/60
f 44/44/44 61/61/61 60/60/60
f 44/44/44 45/45/45 61/61/61
f 45/45/45 62/62/62 61/61/61
f 45/45/45 46/46/46 62/62/62
f 46/46/46 63/63/63 62/62/62
f 46/46/46 47/47/47 63/63/63
f 47/47/47 64/64/64 63/63/63
f 47/47/47 48/48/48 64/64/64
f 48/48/48 65/65/65 64/64/64
f 48/48/48 49/49/49 65/65/65
f 49/49/49 66/66/66 65/65/65
f 49/49/49 50/50/50 66/66/66
f 50/50/50 67/67/67 66/66/66
f 50/50/50 51/51/51 67/67/67
f 51/51/51 68/68/68 67/67/67
f 52/52/52 53/53/53 69/69/69
f 53/53/53 70/70/70 69/69/69
f 53/53/53 54/54/54 70/70/70
f 54/54/54 71/71/71 70/70/70
f 54/54/54 55/55/55 71/71/71
f 55/55/55 72/72/72 71/71/71
f 55/55/55 56/56/56 72/72/72
f 56/56/56 73/73/73 72/72/72
f 56/56/56 57/57/57 73/73/73
f 57/57/57 74/74/74 73/73/73
f 57/57/57 58/58/58 74/74/74
f 58/58/58 75/75/75 74/74/74
f 58/58/58 59/59/59 75/75/75
f 59/59/59 76/76/76 75/75/75
f 59/59/59 60/60/60 76/76/76
f 60/60/60 77/77/77 76/76/76
f 60/60/60 61/61/61 77/77/77
f 61/61/61 78/78/78 77/77/77
f 61/61/61 62/62/62 78/78/78
f 62/62/62 79/79/79 78/78/78
f 62/62/62 63/63/63 79/79/79
f 63/63/63 80/80/80 79/79/79
f 63/63/63 64/64/64 80/80/80
f 64/64/64 81/81/81 80/80/80
f 64/64/64 65/65/65 81/81/81
f 65/65/65 82/82/82 81/81/81
f 65/65/65 66/66/66 82/82/82
f 66/66/66 83/83/83 82/82/82
f 66/66/66 67/67/67 83/83/83
f 67/67/67 84/84/84 83/83/83
f 67/67/67 68/68/68 84/84/84
f 68/68/68 85/85/85 84/84/84
f 69/69/69 70/70/70 86/86/86
f 70/70/70 87/87/87 86/86/86
f 70/70/70 71/71/71 87/87/87
f 71/71/71 88/88/88 87/87/87
f 71/71/71 72/72/72 88/88/88
f 72/72/72 89/89/89 88/88/88
f 72/72/72 73/73/73 89/89/89
f 73/73/73 90/90/90 89/89/89
f 73/73/73 74/74/74 90/90/90
f 74/74/74 91/91/91 90/90/90
f 74/74/74 75/75/75 91/91/91
f 75/75/75 92/92/92 91/91/91
f 75/75/75 76/76/76 92/92/92
f 76/76/76 93/93/93 92/92/92
f 76/76/76 77/77/77 93/93/93
f 77/77/77 94/94/94 93/93/93
f 77/77/77 78/78/78 94/94/94
f 78/78/78 95/95/95 94/94/94
f 78/78/78 79/79/79 95/95/95
f 79/79/79 96/96/96 95/95/95
f 79/79/79 80/80/80 96/96/96
f 80/80/80 97/97/97 96/96/96
f 80/80/80 81/81/81 97/97/97
f 81/81/81 98/98/98 97/97/97
f 81/81/81 82/82/82 98/98/98
f 82/82/82 99/99/99 98/98/98
f 82/82/82 83/83/83 99/99/99
f 83/83/83 100/100/100 99/99/99
f 83/83/83 84/84/84 100/100/100
f 84/84/84 101/101/101 100/100/100
f 84/84/84 85/85/85 101/101/101
f 85/85/85 102/102/102 101/101/101
f 86/86/86 87/87/87 103/103/103
f 87/87/87 104/104/104 103/103/103
f 87/87/87 88/88/88 104/104/104
f 88/88/88 105/105/105 104/104/104
f 88/88/88 89/89/89 105/105/105
f 89/89/89 106/106/106 105/105/105
f 89/89/89 90/90/90 106/106/106
f 90/90/90 107/107/107 106/106/106
f 90/90/90 91/91/91 107/107/107
f 91/91/91 108/108/108 107/107/107
f 91/91/91 92/92/92 108/108/108
f 92/92/92 109/109/109 108/108/108
f 92/92/92 93/93/93 109/109/109
f 93/93/93 110/110/110 109/109/109
f 93/93/93 94/94/94 110/110/110
f 94/94/94 111/111/111 110/110/110
f 94/94/94 95/95/95 111/111/111
f 95/95/95 112/112/112 111/111/111
f 95/95/95 96/96/96 112/112/112
f 96/96/96 113/113/113 112/112/112
f 96/96/96 97/97/97 113/113/113
f 97/97/97 114/114/114 113/113/113
f 97/97/97 98/98/98 114/114/114
f 98/98/98 115/115/115 114/114/114
f 98/98/98 99/99/99 115/115/115
f 99/99/99 116/116/116 115/115/115
f 99/99/99 100/100/100 116/116/116
f 100/100/100 117/117/117 116/116/116
f 100/100/100 101/101/101 117/117/117
f 101/101/101 118/118/118 117/117/117
f 101/101/101 102/102/102 118/118/118
f 102/102/102 119/119/119 118/118/118
f 103/103/103 104/104/104 120/120/120
f 104/104/104 121/121/121 120/120/120
f 104/104/104 105/105/105 121/121/121
f 105/105/105 122/122/122 121/121/121
f 105/105/105 106/106/106 122/122/122
f 106/106/106 123/123/123 122/122/122
f 106/106/106 107/107/107 123/123/123
f 107/107/107 124/124/124 123/123/123
f 107/107/107 108/108/108 124/124/124
f 108/108/108 125/125/125 124/124/124
f 108/108/108 109/109/109 125/125/125
f 109/109/109 126/126/126 125/125/125
f 109/109/109 110/110/110 126/126/126
f 110/110/110 127/127/127 126/126/126
f 110/110/110 111/111/111 127/127/127
f 111/111/111 128/128/128 127/127/127
f 111/111/111 112/112/112 128/128/128
f 112/112/112 129/129/129 128/128/128
f 112/112/112 113/113/113 129/129/129
f 113/113/113 130/130/130 129/129/129
f 113/113/113 114/114/114 130/130/130
f 114/114/114 131/131/131 130/130/130
f 114/114/114 115/115/115 131/131/131
f 115/115/115 132/132/132 131/131/131
f 115/115/115 116/116/116 132/132/132
f 116/116/116 133/133/133 132/132/132
f 116/116/116 117/117/117 133/133/133
f 117/117/117 134/134/134 133/133/133
f 117/117/117 118/118/118 134/134/134
f 118/118/118 135/135/135 134/134/134
f 118/118/118 119/119/119 135/135/135
f 119/119/119 136/136/136 135/135/135
f 120/120/120 121/121/121 137/137/137
f 121/121/121 138/138/138 137/137/137
f 121/121/121 122/122/122 138/138/138
f 122/122/122 139/139/139 138/138/138
f 122/122/122 123/123/123 139/139/139
f 123/123/123 140/140/140 139/139/139
f 123/123/123 124/124/124 140/140/140
f 124/124/124 141/141/141 140/140/140
f 124/124/124 125/125/125 141/141/141
f 125/125/125 142/142/142 141/141/141
f 125/125/125 126/126/126 142/142/142
f 126/126/126 143/143/143 142/142/142
f 126/126/126 127/127/127 143/143/143
f 127/127/127 144/144/144 143/143/143
f 127/127/127 128/128/128 144/144/144
f 128/128/128 145/145/145 144/144/144
f 128/128/128 129/129/129 145/145/145
f 129/129/129 146/146/146 145/145/145
f 129/129/129 130/130/130 146/146/146
f 130/130/130 147/147/147 146/146/146
f 130/130/130 131/131/131 147/147/147
f 131/131/131 148/148/148 147/147/147
f 131/131/131 132/132/132 148/148/148
f 132/132/132 149/149/149 148/148/148
f 132/132/132 133/133/133 149/149/149
f 133/133/133 150/150/150 149/149/149
f 133/133/133 134/134/134 150/150/150
f 134/134/134 151/151/151 150/150/150
f 134/134/134 135/135/135 151/151/151
f 135/135/135 152/152/152 151/151/151
f 135/135/135 136/136/136 152/152/152
f 136/136/136 153/153/153 152/152/152
f 137/137/137 138/138/138 154/154/154
f 138/138/138 155/155/155 154/154/154
f 138/138/138 139/139/139 155/155/155
f 139/139/139 156/156/156 155/155/155
f 139/139/139 140/140/140 156/156/156
f 140/140/140 157/157/157 156/156/156
f 140/140/140 141/141/141 157/157/157
f 141/141/141 158/158/158 157/157/157
f 141/141/141 142/142/142 158/158/158
f 142/142/142 159/159/159 158/158/158
f 142/142/142 143/143/143 159/159/159
f 143/143/143 160/160/160 159/159/159
f 143/143/143 144/144/144 160/160/160
f 144/144/144 161/161/161 160/160/160
f 144/144/144 145/145/145 161/161/161
f 145/145/145 162/162/162 161/161/161
f 145/145/145 146/146/146 162/162/162
f 146/146/146 163/163/163 162/162/162
f 146/146/146 147/147/147 163/163/163
f 147/147/147 164/164/164 163/163/163
f 147/147/147 148/148/148 164/164/164
f 148/148/148 165/165/165 164/164/164
f 148/148/148 149/149/149 165/165/165
f 149/149/149 166/166/166 165/165/165
f 149/149/149 150/150/150 166/166/166
f 150/150/150 167/167/167 166/166/166
f 150/150/150 151/151/151 167/167/167
f 151/151/151 168/168/168 167/167/167
f 151/151/151 152/152/152 168/168/168
f 152/152/152 169/169/169 168/168/168
f 152/152/152 153/153/153 169/169/169
f 153/153/153 170/170/170 169/169/169
f 154/154/154 155/155/155 171/171/171
f 155/155/155 172/172/172 171/171/171
f 155/155/155 156/156/156 172/172/172
f 156/156/156 173/173/173 172/172/172
f 156/156/156 157/157/157 173/173/173
f 157/157/157 174/174/174 173/173/173
f 157/157/157 158/158/158 174/174/174
f 158/158/158 175/175/175 174/174/174
f 158/158/158 159/159/159 175/175/175
f 159/159/159 176/176/176 175/175/175
f 159/159/159 160/160/160 176/176/176
f 160/160/160 177/177/177 176/176/176
f 160/160/160 161/161/161 177/177/177
f 161/161/161 178/178/178 177/177/177
f 161/161/161 162/162/162 178/178/178
f 162/162/162 179/179/179 178/178/178
f 162/162/162 163/163/163 179/179/179
f 163/163/163 180/180/180 179/179/179
f 163/163/163 164/164/164 180/180/180
f 164/164/164 181/181/181 180/180/180
f 164/164/164 165/165/165 181/181/181
f 165/165/165 182/182/182 181/181/181
f 165/165/165 166/166/166 182/182/182
f 166/166/166 183/183/183 182/182/182
f 166/166/166 167/167/167 183/183/183
f 167/167/167 184/184/184 183/183/183
f 167/167/167 168/168/168 184/184/184
f 168/168/168 185/185/185 184/184/184
f 168/168/168 169/169/169 185/185/185
f 169/169/169 186/186/186 185/185/185
f 169/169/169 170/170/170 186/186/186
f 170/170/170 187/187/187 186/186/186
f 171/171/171 172/172/172 188/188/188
f 172/172/172 189/189/189 188/188/188
f 172/172/172 173/173/173 189/189/189
f 173/173/173 190/190/190 189/189/189
f 173/173/173 174/174/174 190/190/190
f 174/174/174 191/191/191 190/190/190
f 174/174/174 175/175/175 191/191/191
f 175/175/175 192/192/192 191/191/191
f 175/175/175 176/176/176 192/192/192
f 176/176/176 193/193/193 192/192/192
f 176/176/176 177/177/177 193/193/193
f 177/177/177 194/194/194 193/193/193
f 177/177/177 178/178/178 194/194/194
f 178/178/178 195/195/195 194/194/194
f 178/178/178 179/179/179 195/195/195
f 179/179/179 196/196/196 195/195/195
f 179/179/179 180/180/180 196/196/196
f 180/180/180 197/197/197 196/196/196
f 180/180/180 181/181/181 197/197/197
f 181/181/181 198/198/198 197/197/197
f 181/181/181 182/182/182 198/198/198
f 182/182/182 199/199/199 198/198/198
f 182/182/182 183/183/183 199/199/199
f 183/183/183 200/200/200 199/199/199
f 183/183/183 184/184/184 200/200/200
f 184/184/184 201/201/201 200/200/200
f 184/184/184 185/185/185 201/201/201
f 185/185/185 202/202/202 201/201/201
f 185/185/185 186/186/186 202/202/202
f 186/186/186 203/203/203 202/202/202
f 186/186/186 187/187/187 203/203/203
f 187/187/187 204/204/204 203/203/203
f 188/188/188 189/189/189 205/205/205
f 189/189/189 206/206/206 205/205/205
f 189/189/189 190/190/190 206/206/206
f 190/190/190 207/207/207 206/206/206
f 190/190/190 191/191/191 207/207/207
f 191/191/191 208/208/208 207/207/207
f 191/191/191 192/192/192 208/208/208
f 192/192/192 209/209/209 208/208/208
f 192/192/192 193/193/193 209/209/209
f 193/193/193 210/210/210 209/209/209
f 193/193/193 194/194/194 210/210/210
f 194/194/194 211/211/211 210/210/210
f 194/194/194 195/195/195 211/211/211
f 195/195/195 212/212/212 211/211/211
f 195/195/195 196/196/196 212/212/212
f 196/196/196 213/213/213 212/212/212
f 196/196/196 197/197/197 213/213/213
f 197/197/197 214/214/214 213/213/213
f 197/197/197 198/198/198 214/214/214
f 198/198/198 215/215/215 214/214/214
f 198/198/198 199/199/199 215/215/215
f 199/199/199 216/216/216 215/215/215
f 199/199/199 200/200/200 216/216/216
f 200/200/200 217/217/217 216/216/216
f 200/200/200 201/201/201 217/217/217
f 201/201/201 218/218/218 217/217/217
f 201/201/201 202/202/202 218/218/218
f 202/202/202 219/219/219 218/218/218
f 202/202/202 203/203/203 219/219/219
f 203/203/203 220/220/220 219/219/219
f 203/203/203 204/204/204 220/220/220
f 204/204/204 221/221/221 220/220/220
f 205/205/205 206/206/206 222/222/222
f 206/206/206 223/223/223 222/222/222
f 206/206/206 207/207/207 223/223/223
f 207/207/207 224/224/224 223/223/223
f 207/207/207 208/208/208 224/224/224
f 208/208/208 225/225/225 224/224/224
f 208/208/208 209/209/209 225/225/225
f 209/209/209 226/226/226 225/225/225
f 209/209/209 210/210/210 226/226/226
f 210/210/210 227/227/227 226/226/226
f 210/210/210 211/211/211 227/227/227
f 211/211/211 228/228/228 227/227/227
f 211/211/211 212/212/212 228/228/228
f 212/212/212 229/229/229 228/228/228
f 212/212/212 213/213/213 229/229/229
f 213/213/213 230/230/230 229/229/229
f 213/213/213 214/214/214 230/230/230
f 214/214/214 231/231/231 230/230/230
f 214/214/214 215/215/215 231/231/231
f 215/215/215 232/232/232 231/231/231
f 215/215/215 216/216/216 232/232/232
f 216/216/216 233/233/233 232/232/232
f 216/216/216 217/217/217 233/233/233
f 217/217/217 234/234/234 233/233/233
f 217/217/217 218/218/218 234/234/234
f 218/218/218 235/235/235 234/234/234
f 218/218/218 219/219/219 235/235/235
f 219/219/219 236/236/236 235/235/235
f 219/219/219 220/220/220 236/236/236
f 220/220/220 237/237/237 236/236/236
f 220/220/220 221/221/221 237/237/237
f 221/221/221 238/238/238 237/237/237
f 222/222/222 223/223/223 239/239/239
f 223/223/223 240/240/240 239/239/239
f 223/223/223 224/224/224 240/240/240
f 224/224/224 241/241/241 240/240/240
f 224/224/224 225/225/225 241/241/241
f 225/225/225 242/242/242 241/241/241
f 225/225/225 226/226/226 242/242/242
f 226/226/226 243/243/243 242/242/242
f 226/226/226 227/227/227 243/243/243
f 227/227/227 244/244/244 243/243/243
f 227/227/227 228/228/228 244/244/244
f 228/228/228 245/245/245 244/244/244
f 228/228/228 229/229/229 245/245/245
f 229/229/229 246/246/246 245/245/245
f 229/229/229 230/230/230 246/246/246
f 230/230/230 247/247/247 246/246/246
f 230/230/230 231/231/231 247/247/247
f 231/231/231 248/248/248 247/247/247
f 231/231/231 232/232/232 248/248/248
f 232/232/232 249/249/249 248/248/248
f 232/232/232 233/233/233 249/249/249
f 233/233/233 250/250/250 249/249/249
f 233/233/233 234/234/234 250/250/250
f 234/234/234 251/251/251 250/250/250
f 234/234/234 235/235/235 251/251/251
f 235/235/235 252/252/252 251/251/251
f 235/235/235 236/236/236 252/252/252
f 236/236/236 253/253/253 252/252/252
f 236/236/236 237/237/237 253/253/253
f 237/237/237 254/254/254 253/253/253
f 237/237/237 238/238/238 254/254/254
f 238/238/238 255/255/255 254/254/254
f 239/239/239 240/240/240 256/256/256
f 240/240/240 257/257/257 256/256/256
f 240/240/240 241/241/241 257/257/257
f 241/241/241 258/258/258 257/257/257
f 241/241/241 242/242/242 258/258/258
f 242/242/242 259/259/259 258/258/258
f 242/242/242 243/243/243 259/259/259
f 243/243/243 260/260/260 259/259/259
f 243/243/243 244/244/244 260/260/260
f 244/244/244 261/261/261 260/260/260
f 244/244/244 245/245/245 261/261/261
f 245/245/245 262/262/262 261/261/261
f 245/245/245 246/246/246 262/262/262
f 246/246/246 263/263/263 262/262/262
f 246/246/246 247/247/247 263/263/263
f 247/247/247 264/264/264 263/263/263
f 247/247/247 248/248/248 264/264/264
f 248/248/248 265/265/265 264/264/264
f 248/248/248 249/249/249 265/265/265
f 249/249/249 266/266/266 265/265/265
f 249/249/249 250/250/250 266/266/266
f 250/250/250 267/267/267 266/266/266
f 250/250/250 251/251/251 267/267/267
f 251/251/251 268/268/268 267/267/267
f 251/251/251 252/252/252 268/268/268
f 252/252/252 269/269/269 268/268/268
f 252/252/252 253/253/253 269/269/269
f 253/253/253 270/270/270 269/269/269
f 253/253/253 254/254/254 270/270/270
f 254/254/254 271/271/271 270/270/270
f 254/254/254 255/255/255 271/271/271
f 255/255/255 272/272/272 271/271/271
f 256/256/256 257/257/257 273/273/273
f 257/257/257 274/274/274 273/273/273
f 257/257/257 258/258/258 274/274/274
f 258/258/258 275/275/275 274/274/274
f 258/258/258 259/259/259 275/275/275
f 259/259/259 276/276/276 275/275/275
f 259/259/259 260/260/260 276/276/276
f 260/260/260 277/277/277 276/276/276
f 260/260/260 261/261/261 277/277/277
f 261/261/261 278/278/278 277/277/277
f 261/261/261 262/262/262 278/278/278
f 262/262/262 279/279/279 278/278/278
f 262/262/262 263/263/263 279/279/279
f 263/263/263 280/280/280 279/279/279
f 263/263/263 264/264/264 280/280/280
f 264/264/264 281/281/281 280/280/280
f 264/264/264 265/265/265 281/281/281
f 265/265/265 282/282/282 281/281/281
f 265/265/265 266/266/266 282/282/282
f 266/266/266 283/283/283 282/282/282
f 266/266/266 267/267/267 283/283/283
f 267/267/267 284/284/284 283/283/283
f 267/267/267 268/268/268 284/284/284
f 268/268/268 285/285/285 284/284/284
f 268/268/268 269/269/269 285/285/285
f 269/269/269 286/286/286 285/285/285
f 269/269/269 270/270/270 286/286/286
f 270/270/270 287/287/287 286/286/286
f 270/270/270 271/271/271 287/287/287
f 271/271/271 288/288/288 287/287/287
f 271/271/271 272/272/272 288/288/288
f 272/272/272 289/289/289 288/288/288
f 273/273/273 274/274/274 290/290/290
f 274/274/274 291/291/291 290/290/290
f 274/274/274 275/275/275 291/291/291
f 275/275/275 292/292/292 291/291/291
f 275/275/275 276/276/276 292/292/292
f 276/276/276 293/293/293 292/292/292
f 276/276/276 277/277/277 293/293/293
f 277/277/277 294/294/294 293/293/293
f 277/277/277 278/278/278 294/294/294
f 278/278/278 295/295/295 294/294/294
f 278/278/278 279/279/279 295/295/295
f 279/279/279 296/296/296 295/295/295
f 279/279/279 280/280/280 296/296/296
f 280/280/280 297/297/297 296/296/296
f 280/280/280 281/281/281 297/297/297
f 281/281/281 298/298/298 297/297/297
f 281/281/281 282/282/282 298/298/298
f 282/282/282 299/299/299 298/298/298
f 282/282/282 283/283/283 299/299/299
f 283/283/283 300/300/300 299/299/299
f 283/283/283 284/284/284 300/300/300
f 284/284/284 301/301/301 300/300/300
f 284/284/284 285/285/285 301/301/301
f 285/285/285 302/302/302 301/301/301
f 285/285/285 286/286/286 302/302/302
f 286/286/286 303/303/303 302/302/302
f 286/286/286 287/287/287 303/303/303
f 287/287/287 304/304/304 303/303/303
f 287/287/287 288/288/288 304/304/304
f 288/288/288 305/305/305 304/304/304
f 288/288/288 289/289/289 305/305/305
f 289/289/289 306/306/306 305/305/305
