o shape_010
v 0 2 0
v 0 2 0
v 0 2 0
v 0 2 0
v 0 2 0
v 0 2 0
v 0 2 0
v 0 2 0
v 0 2 0
v 0 2 0
v 0 2 0
v 0 2 0
v 0 2 0
v 0 2 0
v 0 2 0
v 0 2 0
v 0 2 0
v 0 2 0
v 0 2 0
v 0 2 0
v 0 2 0
v -0.11255212128162384 1.9807852506637573 0
v -0.10704342275857925 1.9807852506637573 0.03478051349520683
v -0.09105657786130905 1.9807852506637573 0.06615646928548813
v -0.06615646928548813 1.9807852506637573 0.09105657786130905
v -0.03478051349520683 1.9807852506637573 0.10704342275857925
v -6.8918293950044925e-18 1.9807852506637573 0.11255212128162384
v 0.03478051349520683 1.9807852506637573 0.10704342275857925
v 0.06615646928548813 1.9807852506637573 0.09105657786130905
v 0.09105657786130905 1.9807852506637573 0.06615646928548813
v 0.10704342275857925 1.9807852506637573 0.03478051349520683
v 0.11255212128162384 1.9807852506637573 1.3783658790008985e-17
v 0.10704342275857925 1.9807852506637573 -0.03478051349520683
v 0.09105657786130905 1.9807852506637573 -0.06615646928548813
v 0.06615646928548813 1.9807852506637573 -0.09105657786130905
v 0.03478051349520683 1.9807852506637573 -0.10704342275857925
v 2.067548694424256e-17 1.9807852506637573 -0.11255212128162384
v -0.03478051349520683 1.9807852506637573 -0.10704342275857925
v -0.06615646928548813 1.9807852506637573 -0.09105657786130905
v -0.09105657786130905 1.9807852506637573 -0.06615646928548813
v -0.10704342275857925 1.9807852506637573 -0.03478051349520683
v -0.11255212128162384 1.9807852506637573 -2.756731758001797e-17
v -0.2207789123058319 1.9238795042037964 0
v -0.20997321605682373 1.9238795042037964 0.06822443753480911
v -0.17861390113830566 1.9238795042037964 0.12977059185504913
v -0.12977059185504913 1.9238795042037964 0.17861390113830566
v -0.06822443753480911 1.9238795042037964 0.20997321605682373
v -1.3518809619939919e-17 1.9238795042037964 0.2207789123058319
v 0.06822443753480911 1.9238795042037964 0.20997321605682373
v 0.12977059185504913 1.9238795042037964 0.17861390113830566
v 0.17861390113830566 1.9238795042037964 0.12977059185504913
v 0.20997321605682373 1.9238795042037964 0.06822443753480911
v 0.2207789123058319 1.9238795042037964 2.7037619239879838e-17
v 0.20997321605682373 1.9238795042037964 -0.06822443753480911
v 0.17861390113830566 1.9238795042037964 -0.12977059185504913
v 0.12977059185504913 1.9238795042037964 -0.17861390113830566
v 0.06822443753480911 1.9238795042037964 -0.20997321605682373
v 4.055642720545853e-17 1.9238795042037964 -0.2207789123058319
v -0.06822443753480911 1.9238795042037964 -0.20997321605682373
v -0.12977059185504913 1.9238795042037964 -0.17861390113830566
v -0.17861390113830566 1.9238795042037964 -0.12977059185504913
v -0.20997321605682373 1.9238795042037964 -0.06822443753480911
v -0.2207789123058319 1.9238795042037964 -5.4075238479759676e-17
v -0.3205212950706482 1.8314696550369263 0
v -0.30483385920524597 1.8314696550369263 0.09904652833938599
v -0.2593071758747101 1.8314696550369263 0.18839770555496216
v -0.18839770555496216 1.8314696550369263 0.2593071758747101
v -0.09904652833938599 1.8314696550369263 0.30483385920524597
v -1.9626267894223147e-17 1.8314696550369263 0.3205212950706482
v 0.09904652833938599 1.8314696550369263 0.30483385920524597
v 0.18839770555496216 1.8314696550369263 0.2593071758747101
v 0.2593071758747101 1.8314696550369263 0.18839770555496216
v 0.30483385920524597 1.8314696550369263 0.09904652833938599
v 0.3205212950706482 1.8314696550369263 3.9252535788446294e-17
v 0.30483385920524597 1.8314696550369263 -0.09904652833938599
v 0.2593071758747101 1.8314696550369263 -0.18839770555496216
v 0.18839770555496216 1.8314696550369263 -0.2593071758747101
v 0.09904652833938599 1.8314696550369263 -0.30483385920524597
v 5.887880864575312e-17 1.8314696550369263 -0.3205212950706482
v -0.09904652833938599 1.8314696550369263 -0.30483385920524597
v -0.18839770555496216 1.8314696550369263 -0.2593071758747101
v -0.2593071758747101 1.8314696550369263 -0.18839770555496216
v -0.30483385920524597 1.8314696550369263 -0.09904652833938599
v -0.3205212950706482 1.8314696550369263 -7.850507157689259e-17
v -0.40794622898101807 1.7071068286895752 0
v -0.3879799544811249 1.7071068286895752 0.1260623186826706
v -0.3300354480743408 1.7071068286895752 0.23978477716445923
v -0.23978477716445923 1.7071068286895752 0.3300354480743408
v -0.1260623186826706 1.7071068286895752 0.3879799544811249
v -2.49795012316193e-17 1.7071068286895752 0.40794622898101807
v 0.1260623186826706 1.7071068286895752 0.3879799544811249
v 0.23978477716445923 1.7071068286895752 0.3300354480743408
v 0.3300354480743408 1.7071068286895752 0.23978477716445923
v 0.3879799544811249 1.7071068286895752 0.1260623186826706
v 0.40794622898101807 1.7071068286895752 4.99590024632386e-17
v 0.3879799544811249 1.7071068286895752 -0.1260623186826706
v 0.3300354480743408 1.7071068286895752 -0.23978477716445923
v 0.23978477716445923 1.7071068286895752 -0.3300354480743408
v 0.1260623186826706 1.7071068286895752 -0.3879799544811249
v 7.493850700358035e-17 1.7071068286895752 -0.40794622898101807
v -0.1260623186826706 1.7071068286895752 -0.3879799544811249
v -0.23978477716445923 1.7071068286895752 -0.3300354480743408
v -0.3300354480743408 1.7071068286895752 -0.23978477716445923
v -0.3879799544811249 1.7071068286895752 -0.1260623186826706
v -0.40794622898101807 1.7071068286895752 -9.99180049264772e-17
v -0.47969403862953186 1.555570363998413 0
v -0.45621612668037415 1.555570363998413 0.14823362231254578
v -0.3880806267261505 1.555570363998413 0.28195708990097046
v -0.28195708990097046 1.555570363998413 0.3880806267261505
v -0.14823362231254578 1.555570363998413 0.45621612668037415
v -2.937278650506399e-17 1.555570363998413 0.47969403862953186
v 0.14823362231254578 1.555570363998413 0.45621612668037415
v 0.28195708990097046 1.555570363998413 0.3880806267261505
v 0.3880806267261505 1.555570363998413 0.28195708990097046
v 0.45621612668037415 1.555570363998413 0.14823362231254578
v 0.47969403862953186 1.555570363998413 5.874557301012797e-17
v 0.45621612668037415 1.555570363998413 -0.14823362231254578
v 0.3880806267261505 1.555570363998413 -0.28195708990097046
v 0.28195708990097046 1.555570363998413 -0.3880806267261505
v 0.14823362231254578 1.555570363998413 -0.45621612668037415
v 8.811836613263686e-17 1.555570363998413 -0.47969403862953186
v -0.14823362231254578 1.555570363998413 -0.45621612668037415
v -0.28195708990097046 1.555570363998413 -0.3880806267261505
v -0.3880806267261505 1.555570363998413 -0.28195708990097046
v -0.45621612668037415 1.555570363998413 -0.14823362231254578
v -0.47969403862953186 1.555570363998413 -1.1749114602025595e-16
v -0.5330073833465576 1.382683515548706 0
v -0.5069202184677124 1.382683515548706 0.16470836102962494
v -0.43121209740638733 1.382683515548706 0.3132939338684082
v -0.3132939338684082 1.382683515548706 0.43121209740638733
v -0.16470836102962494 1.382683515548706 0.5069202184677124
v -3.2637294497173914e-17 1.382683515548706 0.5330073833465576
v 0.16470836102962494 1.382683515548706 0.5069202184677124
v 0.3132939338684082 1.382683515548706 0.43121209740638733
v 0.43121209740638733 1.382683515548706 0.3132939338684082
v 0.5069202184677124 1.382683515548706 0.16470836102962494
v 0.5330073833465576 1.382683515548706 6.527458899434783e-17
v 0.5069202184677124 1.382683515548706 -0.16470836102962494
v 0.43121209740638733 1.382683515548706 -0.3132939338684082
v 0.3132939338684082 1.382683515548706 -0.43121209740638733
v 0.16470836102962494 1.382683515548706 -0.5069202184677124
v 9.791188018279929e-17 1.382683515548706 -0.5330073833465576
v -0.16470836102962494 1.382683515548706 -0.5069202184677124
v -0.3132939338684082 1.382683515548706 -0.43121209740638733
v -0.43121209740638733 1.382683515548706 -0.3132939338684082
v -0.5069202184677124 1.382683515548706 -0.16470836102962494
v -0.5330073833465576 1.382683515548706 -1.3054917798869565e-16
v -0.5658376216888428 1.1950902938842773 0
v -0.5381436347961426 1.1950902938842773 0.17485345900058746
v -0.45777231454849243 1.1950902938842773 0.3325910270214081
v -0.3325910270214081 1.1950902938842773 0.45777231454849243
v -0.17485345900058746 1.1950902938842773 0.5381436347961426
v -3.4647568378804385e-17 1.1950902938842773 0.5658376216888428
v 0.17485345900058746 1.1950902938842773 0.5381436347961426
v 0.3325910270214081 1.1950902938842773 0.45777231454849243
v 0.45777231454849243 1.1950902938842773 0.3325910270214081
v 0.5381436347961426 1.1950902938842773 0.17485345900058746
v 0.5658376216888428 1.1950902938842773 6.929513675760877e-17
v 0.5381436347961426 1.1950902938842773 -0.17485345900058746
v 0.45777231454849243 1.1950902938842773 -0.3325910270214081
v 0.3325910270214081 1.1950902938842773 -0.45777231454849243
v 0.17485345900058746 1.1950902938842773 -0.5381436347961426
v 1.039426952102458e-16 1.1950902938842773 -0.5658376216888428
v -0.17485345900058746 1.1950902938842773 -0.5381436347961426
v -0.3325910270214081 1.1950902938842773 -0.45777231454849243
v -0.45777231454849243 1.1950902938842773 -0.3325910270214081
v -0.5381436347961426 1.1950902938842773 -0.17485345900058746
v -0.5658376216888428 1.1950902938842773 -1.3859027351521754e-16
v -0.5769230723381042 1 0
v -0.5486865043640137 1 0.17827904224395752
v -0.46674060821533203 1 0.33910688757896423
v -0.33910688757896423 1 0.46674060821533203
v -0.17827904224395752 1 0.5486865043640137
v -3.53263527894654e-17 1 0.5769230723381042
v 0.17827904224395752 1 0.5486865043640137
v 0.33910688757896423 1 0.46674060821533203
v 0.46674060821533203 1 0.33910688757896423
v 0.5486865043640137 1 0.17827904224395752
v 0.5769230723381042 1 7.06527055789308e-17
v 0.5486865043640137 1 -0.17827904224395752
v 0.46674060821533203 1 -0.33910688757896423
v 0.33910688757896423 1 -0.46674060821533203
v 0.17827904224395752 1 -0.5486865043640137
v 1.0597905505967375e-16 1 -0.5769230723381042
v -0.17827904224395752 1 -0.5486865043640137
v -0.33910688757896423 1 -0.46674060821533203
v -0.46674060821533203 1 -0.33910688757896423
v -0.5486865043640137 1 -0.17827904224395752
v -0.5769230723381042 1 -1.413054111578616e-16
v -0.5658376216888428 0.8049097061157227 0
v -0.5381436347961426 0.8049097061157227 0.17485345900058746
v -0.45777231454849243 0.8049097061157227 0.3325910270214081
v -0.3325910270214081 0.8049097061157227 0.45777231454849243
v -0.17485345900058746 0.8049097061157227 0.5381436347961426
v -3.4647568378804385e-17 0.8049097061157227 0.5658376216888428
v 0.17485345900058746 0.8049097061157227 0.5381436347961426
v 0.3325910270214081 0.8049097061157227 0.45777231454849243
v 0.45777231454849243 0.8049097061157227 0.3325910270214081
v 0.5381436347961426 0.8049097061157227 0.17485345900058746
v 0.5658376216888428 0.8049097061157227 6.929513675760877e-17
v 0.5381436347961426 0.8049097061157227 -0.17485345900058746
v 0.45777231454849243 0.8049097061157227 -0.3325910270214081
v 0.3325910270214081 0.8049097061157227 -0.45777231454849243
v 0.17485345900058746 0.8049097061157227 -0.5381436347961426
v 1.039426952102458e-16 0.8049097061157227 -0.5658376216888428
v -0.17485345900058746 0.8049097061157227 -0.5381436347961426
v -0.3325910270214081 0.8049097061157227 -0.45777231454849243
v -0.45777231454849243 0.8049097061157227 -0.3325910270214081
v -0.5381436347961426 0.8049097061157227 -0.17485345900058746
v -0.5658376216888428 0.8049097061157227 -1.3859027351521754e-16
v -0.5330073833465576 0.6173165440559387 0
v -0.5069202184677124 0.6173165440559387 0.16470836102962494
v -0.43121209740638733 0.6173165440559387 0.3132939338684082
v -0.3132939338684082 0.6173165440559387 0.43121209740638733
v -0.16470836102962494 0.6173165440559387 0.5069202184677124
v -3.2637294497173914e-17 0.6173165440559387 0.5330073833465576
v 0.16470836102962494 0.6173165440559387 0.5069202184677124
v 0.3132939338684082 0.6173165440559387 0.43121209740638733
v 0.43121209740638733 0.6173165440559387 0.3132939338684082
v 0.5069202184677124 0.6173165440559387 0.16470836102962494
v 0.5330073833465576 0.6173165440559387 6.527458899434783e-17
v 0.5069202184677124 0.6173165440559387 -0.16470836102962494
v 0.43121209740638733 0.6173165440559387 -0.3132939338684082
v 0.3132939338684082 0.6173165440559387 -0.43121209740638733
v 0.16470836102962494 0.6173165440559387 -0.5069202184677124
v 9.791188018279929e-17 0.6173165440559387 -0.5330073833465576
v -0.16470836102962494 0.6173165440559387 -0.5069202184677124
v -0.3132939338684082 0.6173165440559387 -0.43121209740638733
v -0.43121209740638733 0.6173165440559387 -0.3132939338684082
v -0.5069202184677124 0.6173165440559387 -0.16470836102962494
v -0.5330073833465576 0.6173165440559387 -1.3054917798869565e-16
v -0.47969403862953186 0.4444297254085541 0
v -0.45621612668037415 0.4444297254085541 0.14823362231254578
v -0.3880806267261505 0.4444297254085541 0.28195708990097046
v -0.28195708990097046 0.4444297254085541 0.3880806267261505
v -0.14823362231254578 0.4444297254085541 0.45621612668037415
v -2.937278650506399e-17 0.4444297254085541 0.47969403862953186
v 0.14823362231254578 0.4444297254085541 0.45621612668037415
v 0.28195708990097046 0.4444297254085541 0.3880806267261505
v 0.3880806267261505 0.4444297254085541 0.28195708990097046
v 0.45621612668037415 0.4444297254085541 0.14823362231254578
v 0.47969403862953186 0.4444297254085541 5.874557301012797e-17
v 0.45621612668037415 0.4444297254085541 -0.14823362231254578
v 0.3880806267261505 0.4444297254085541 -0.28195708990097046
v 0.28195708990097046 0.4444297254085541 -0.3880806267261505
v 0.14823362231254578 0.4444297254085541 -0.45621612668037415
v 8.811836613263686e-17 0.4444297254085541 -0.47969403862953186
v -0.14823362231254578 0.4444297254085541 -0.45621612668037415
v -0.28195708990097046 0.4444297254085541 -0.3880806267261505
v -0.3880806267261505 0.4444297254085541 -0.28195708990097046
v -0.45621612668037415 0.4444297254085541 -0.14823362231254578
v -0.47969403862953186 0.4444297254085541 -1.1749114602025595e-16
v -0.40794622898101807 0.2928932011127472 0
v -0.3879799544811249 0.2928932011127472 0.1260623186826706
v -0.3300354480743408 0.2928932011127472 0.23978477716445923
v -0.23978477716445923 0.2928932011127472 0.3300354480743408
v -0.1260623186826706 0.2928932011127472 0.3879799544811249
v -2.49795012316193e-17 0.2928932011127472 0.40794622898101807
v 0.1260623186826706 0.2928932011127472 0.3879799544811249
v 0.23978477716445923 0.2928932011127472 0.3300354480743408
v 0.3300354480743408 0.2928932011127472 0.23978477716445923
v 0.3879799544811249 0.2928932011127472 0.1260623186826706
v 0.40794622898101807 0.2928932011127472 4.99590024632386e-17
v 0.3879799544811249 0.2928932011127472 -0.1260623186826706
v 0.3300354480743408 0.2928932011127472 -0.23978477716445923
v 0.23978477716445923 0.2928932011127472 -0.3300354480743408
v 0.1260623186826706 0.2928932011127472 -0.3879799544811249
v 7.493850700358035e-17 0.2928932011127472 -0.40794622898101807
v -0.1260623186826706 0.2928932011127472 -0.3879799544811249
v -0.23978477716445923 0.2928932011127472 -0.3300354480743408
v -0.3300354480743408 0.2928932011127472 -0.23978477716445923
v -0.3879799544811249 0.2928932011127472 -0.1260623186826706
v -0.40794622898101807 0.2928932011127472 -9.99180049264772e-17
v -0.3205212950706482 0.1685303896665573 0
v -0.30483385920524597 0.1685303896665573 0.09904652833938599
v -0.2593071758747101 0.1685303896665573 0.18839770555496216
v -0.18839770555496216 0.1685303896665573 0.2593071758747101
v -0.09904652833938599 0.1685303896665573 0.30483385920524597
v -1.9626267894223147e-17 0.1685303896665573 0.3205212950706482
v 0.09904652833938599 0.1685303896665573 0.30483385920524597
v 0.18839770555496216 0.1685303896665573 0.2593071758747101
v 0.2593071758747101 0.1685303896665573 0.18839770555496216
v 0.30483385920524597 0.1685303896665573 0.09904652833938599
v 0.3205212950706482 0.1685303896665573 3.9252535788446294e-17
v 0.30483385920524597 0.1685303896665573 -0.09904652833938599
v 0.2593071758747101 0.1685303896665573 -0.18839770555496216
v 0.18839770555496216 0.1685303896665573 -0.2593071758747101
v 0.09904652833938599 0.1685303896665573 -0.30483385920524597
v 5.887880864575312e-17 0.1685303896665573 -0.3205212950706482
v -0.09904652833938599 0.1685303896665573 -0.30483385920524597
v -0.18839770555496216 0.1685303896665573 -0.2593071758747101
v -0.2593071758747101 0.1685303896665573 -0.18839770555496216
v -0.30483385920524597 0.1685303896665573 -0.09904652833938599
v -0.3205212950706482 0.1685303896665573 -7.850507157689259e-17
v -0.2207789123058319 0.07612045109272003 0
v -0.20997321605682373 0.07612045109272003 0.06822443753480911
v -0.17861390113830566 0.07612045109272003 0.12977059185504913
v -0.12977059185504913 0.07612045109272003 0.17861390113830566
v -0.06822443753480911 0.07612045109272003 0.20997321605682373
v -1.3518809619939919e-17 0.07612045109272003 0.2207789123058319
v 0.06822443753480911 0.07612045109272003 0.20997321605682373
v 0.12977059185504913 0.07612045109272003 0.17861390113830566
v 0.17861390113830566 0.07612045109272003 0.12977059185504913
v 0.20997321605682373 0.07612045109272003 0.06822443753480911
v 0.2207789123058319 0.07612045109272003 2.7037619239879838e-17
v 0.20997321605682373 0.07612045109272003 -0.06822443753480911
v 0.17861390113830566 0.07612045109272003 -0.12977059185504913
v 0.12977059185504913 0.07612045109272003 -0.17861390113830566
v 0.06822443753480911 0.07612045109272003 -0.20997321605682373
v 4.055642720545853e-17 0.07612045109272003 -0.2207789123058319
v -0.06822443753480911 0.07612045109272003 -0.20997321605682373
v -0.12977059185504913 0.07612045109272003 -0.17861390113830566
v -0.17861390113830566 0.07612045109272003 -0.12977059185504913
v -0.20997321605682373 0.07612045109272003 -0.06822443753480911
v -0.2207789123058319 0.07612045109272003 -5.4075238479759676e-17
v -0.11255212128162384 0.019214704632759094 0
v -0.10704342275857925 0.019214704632759094 0.03478051349520683
v -0.09105657786130905 0.019214704632759094 0.06615646928548813
v -0.06615646928548813 0.019214704632759094 0.09105657786130905
v -0.03478051349520683 0.019214704632759094 0.10704342275857925
v -6.8918293950044925e-18 0.019214704632759094 0.11255212128162384
v 0.03478051349520683 0.019214704632759094 0.10704342275857925
v 0.06615646928548813 0.019214704632759094 0.09105657786130905
v 0.09105657786130905 0.019214704632759094 0.06615646928548813
v 0.10704342275857925 0.019214704632759094 0.03478051349520683
v 0.11255212128162384 0.019214704632759094 1.3783658790008985e-17
v 0.10704342275857925 0.019214704632759094 -0.03478051349520683
v 0.09105657786130905 0.019214704632759094 -0.06615646928548813
v 0.06615646928548813 0.019214704632759094 -0.09105657786130905
v 0.03478051349520683 0.019214704632759094 -0.10704342275857925
v 2.067548694424256e-17 0.019214704632759094 -0.11255212128162384
v -0.03478051349520683 0.019214704632759094 -0.10704342275857925
v -0.06615646928548813 0.019214704632759094 -0.09105657786130905
v -0.09105657786130905 0.019214704632759094 -0.06615646928548813
v -0.10704342275857925 0.019214704632759094 -0.03478051349520683
v -0.11255212128162384 0.019214704632759094 -2.756731758001797e-17
v -7.06527055789308e-17 0 0
v -6.719470680665492e-17 0 2.183288632913288e-17
v -5.715923911859828e-17 0 4.1528615888114555e-17
v -4.1528615888114555e-17 0 5.715923911859828e-17
v -2.183288632913288e-17 0 6.719470680665492e-17
v -4.326230266706821e-33 0 7.06527055789308e-17
v 2.183288632913288e-17 0 6.719470680665492e-17
v 4.1528615888114555e-17 0 5.715923911859828e-17
v 5.715923911859828e-17 0 4.1528615888114555e-17
v 6.719470680665492e-17 0 2.183288632913288e-17
v 7.06527055789308e-17 0 8.652460533413642e-33
v 6.719470680665492e-17 0 -2.183288632913288e-17
v 5.715923911859828e-17 0 -4.1528615888114555e-17
v 4.1528615888114555e-17 0 -5.715923911859828e-17
v 2.183288632913288e-17 0 -6.719470680665492e-17
v 1.297869043277848e-32 0 -7.06527055789308e-17
v -2.183288632913288e-17 0 -6.719470680665492e-17
v -4.1528615888114555e-17 0 -5.715923911859828e-17
v -5.715923911859828e-17 0 -4.1528615888114555e-17
v -6.719470680665492e-17 0 -2.183288632913288e-17
v -7.06527055789308e-17 0 -1.7304921066827285e-32
vt 0.02500000037252903 1
vt 0.07500000298023224 1
vt 0.125 1
vt 0.17499999701976776 1
vt 0.22499999403953552 1
vt 0.2750000059604645 1
vt 0.32499998807907104 1
vt 0.375 1
vt 0.42500001192092896 1
vt 0.4749999940395355 1
vt 0.5249999761581421 1
vt 0.574999988079071 1
vt 0.625 1
vt 0.675000011920929 1
vt 0.7250000238418579 1
vt 0.7749999761581421 1
vt 0.824999988079071 1
vt 0.875 1
vt 0.925000011920929 1
vt 0.9750000238418579 1
vt 1.024999976158142 1
vt 0 0.9375
vt 0.05000000074505806 0.9375
vt 0.10000000149011612 0.9375
vt 0.15000000596046448 0.9375
vt 0.20000000298023224 0.9375
vt 0.25 0.9375
vt 0.30000001192092896 0.9375
vt 0.3499999940395355 0.9375
vt 0.4000000059604645 0.9375
vt 0.44999998807907104 0.9375
vt 0.5 0.9375
vt 0.550000011920929 0.9375
vt 0.6000000238418579 0.9375
vt 0.6499999761581421 0.9375
vt 0.699999988079071 0.9375
vt 0.75 0.9375
vt 0.800000011920929 0.9375
vt 0.8500000238418579 0.9375
vt 0.8999999761581421 0.9375
vt 0.949999988079071 0.9375
vt 1 0.9375
vt 0 0.875
vt 0.05000000074505806 0.875
vt 0.10000000149011612 0.875
vt 0.15000000596046448 0.875
vt 0.20000000298023224 0.875
vt 0.25 0.875
vt 0.30000001192092896 0.875
vt 0.3499999940395355 0.875
vt 0.4000000059604645 0.875
vt 0.44999998807907104 0.875
vt 0.5 0.875
vt 0.550000011920929 0.875
vt 0.6000000238418579 0.875
vt 0.6499999761581421 0.875
vt 0.699999988079071 0.875
vt 0.75 0.875
vt 0.800000011920929 0.875
vt 0.8500000238418579 0.875
vt 0.8999999761581421 0.875
vt 0.949999988079071 0.875
vt 1 0.875
vt 0 0.8125
vt 0.05000000074505806 0.8125
vt 0.10000000149011612 0.8125
vt 0.15000000596046448 0.8125
vt 0.20000000298023224 0.8125
vt 0.25 0.8125
vt 0.30000001192092896 0.8125
vt 0.3499999940395355 0.8125
vt 0.4000000059604645 0.8125
vt 0.44999998807907104 0.8125
vt 0.5 0.8125
vt 0.550000011920929 0.8125
vt 0.6000000238418579 0.8125
vt 0.6499999761581421 0.8125
vt 0.699999988079071 0.8125
vt 0.75 0.8125
vt 0.800000011920929 0.8125
vt 0.8500000238418579 0.8125
vt 0.8999999761581421 0.8125
vt 0.949999988079071 0.8125
vt 1 0.8125
vt 0 0.75
vt 0.05000000074505806 0.75
vt 0.10000000149011612 0.75
vt 0.15000000596046448 0.75
vt 0.20000000298023224 0.75
vt 0.25 0.75
vt 0.30000001192092896 0.75
vt 0.3499999940395355 0.75
vt 0.4000000059604645 0.75
vt 0.44999998807907104 0.75
vt 0.5 0.75
vt 0.550000011920929 0.75
vt 0.6000000238418579 0.75
vt 0.6499999761581421 0.75
vt 0.699999988079071 0.75
vt 0.75 0.75
vt 0.800000011920929 0.75
vt 0.8500000238418579 0.75
vt 0.8999999761581421 0.75
vt 0.949999988079071 0.75
vt 1 0.75
vt 0 0.6875
vt 0.05000000074505806 0.6875
vt 0.10000000149011612 0.6875
vt 0.15000000596046448 0.6875
vt 0.20000000298023224 0.6875
vt 0.25 0.6875
vt 0.30000001192092896 0.6875
vt 0.3499999940395355 0.6875
vt 0.4000000059604645 0.6875
vt 0.44999998807907104 0.6875
vt 0.5 0.6875
vt 0.550000011920929 0.6875
vt 0.6000000238418579 0.6875
vt 0.6499999761581421 0.6875
vt 0.699999988079071 0.6875
vt 0.75 0.6875
vt 0.800000011920929 0.6875
vt 0.8500000238418579 0.6875
vt 0.8999999761581421 0.6875
vt 0.949999988079071 0.6875
vt 1 0.6875
vt 0 0.625
vt 0.05000000074505806 0.625
vt 0.10000000149011612 0.625
vt 0.15000000596046448 0.625
vt 0.20000000298023224 0.625
vt 0.25 0.625
vt 0.30000001192092896 0.625
vt 0.3499999940395355 0.625
vt 0.4000000059604645 0.625
vt 0.44999998807907104 0.625
vt 0.5 0.625
vt 0.550000011920929 0.625
vt 0.6000000238418579 0.625
vt 0.6499999761581421 0.625
vt 0.699999988079071 0.625
vt 0.75 0.625
vt 0.800000011920929 0.625
vt 0.8500000238418579 0.625
vt 0.8999999761581421 0.625
vt 0.949999988079071 0.625
vt 1 0.625
vt 0 0.5625
vt 0.05000000074505806 0.5625
vt 0.10000000149011612 0.5625
vt 0.15000000596046448 0.5625
vt 0.20000000298023224 0.5625
vt 0.25 0.5625
vt 0.30000001192092896 0.5625
vt 0.3499999940395355 0.5625
vt 0.4000000059604645 0.5625
vt 0.44999998807907104 0.5625
vt 0.5 0.5625
vt 0.550000011920929 0.5625
vt 0.6000000238418579 0.5625
vt 0.6499999761581421 0.5625
vt 0.699999988079071 0.5625
vt 0.75 0.5625
vt 0.800000011920929 0.5625
vt 0.8500000238418579 0.5625
vt 0.8999999761581421 0.5625
vt 0.949999988079071 0.5625
vt 1 0.5625
vt 0 0.5
vt 0.05000000074505806 0.5
vt 0.10000000149011612 0.5
vt 0.15000000596046448 0.5
vt 0.20000000298023224 0.5
vt 0.25 0.5
vt 0.30000001192092896 0.5
vt 0.3499999940395355 0.5
vt 0.4000000059604645 0.5
vt 0.44999998807907104 0.5
vt 0.5 0.5
vt 0.550000011920929 0.5
vt 0.6000000238418579 0.5
vt 0.6499999761581421 0.5
vt 0.699999988079071 0.5
vt 0.75 0.5
vt 0.800000011920929 0.5
vt 0.8500000238418579 0.5
vt 0.8999999761581421 0.5
vt 0.949999988079071 0.5
vt 1 0.5
vt 0 0.4375
vt 0.05000000074505806 0.4375
vt 0.10000000149011612 0.4375
vt 0.15000000596046448 0.4375
vt 0.20000000298023224 0.4375
vt 0.25 0.4375
vt 0.30000001192092896 0.4375
vt 0.3499999940395355 0.4375
vt 0.4000000059604645 0.4375
vt 0.44999998807907104 0.4375
vt 0.5 0.4375
vt 0.550000011920929 0.4375
vt 0.6000000238418579 0.4375
vt 0.6499999761581421 0.4375
vt 0.699999988079071 0.4375
vt 0.75 0.4375
vt 0.800000011920929 0.4375
vt 0.8500000238418579 0.4375
vt 0.8999999761581421 0.4375
vt 0.949999988079071 0.4375
vt 1 0.4375
vt 0 0.375
vt 0.05000000074505806 0.375
vt 0.10000000149011612 0.375
vt 0.15000000596046448 0.375
vt 0.20000000298023224 0.375
vt 0.25 0.375
vt 0.30000001192092896 0.375
vt 0.3499999940395355 0.375
vt 0.4000000059604645 0.375
vt 0.44999998807907104 0.375
vt 0.5 0.375
vt 0.550000011920929 0.375
vt 0.6000000238418579 0.375
vt 0.6499999761581421 0.375
vt 0.699999988079071 0.375
vt 0.75 0.375
vt 0.800000011920929 0.375
vt 0.8500000238418579 0.375
vt 0.8999999761581421 0.375
vt 0.949999988079071 0.375
vt 1 0.375
vt 0 0.3125
vt 0.05000000074505806 0.3125
vt 0.10000000149011612 0.3125
vt 0.15000000596046448 0.3125
vt 0.20000000298023224 0.3125
vt 0.25 0.3125
vt 0.30000001192092896 0.3125
vt 0.3499999940395355 0.3125
vt 0.4000000059604645 0.3125
vt 0.44999998807907104 0.3125
vt 0.5 0.3125
vt 0.550000011920929 0.3125
vt 0.6000000238418579 0.3125
vt 0.6499999761581421 0.3125
vt 0.699999988079071 0.3125
vt 0.75 0.3125
vt 0.800000011920929 0.3125
vt 0.8500000238418579 0.3125
vt 0.8999999761581421 0.3125
vt 0.949999988079071 0.3125
vt 1 0.3125
vt 0 0.25
vt 0.05000000074505806 0.25
vt 0.10000000149011612 0.25
vt 0.15000000596046448 0.25
vt 0.20000000298023224 0.25
vt 0.25 0.25
vt 0.30000001192092896 0.25
vt 0.3499999940395355 0.25
vt 0.4000000059604645 0.25
vt 0.44999998807907104 0.25
vt 0.5 0.25
vt 0.550000011920929 0.25
vt 0.6000000238418579 0.25
vt 0.6499999761581421 0.25
vt 0.699999988079071 0.25
vt 0.75 0.25
vt 0.800000011920929 0.25
vt 0.8500000238418579 0.25
vt 0.8999999761581421 0.25
vt 0.949999988079071 0.25
vt 1 0.25
vt 0 0.1875
vt 0.05000000074505806 0.1875
vt 0.10000000149011612 0.1875
vt 0.15000000596046448 0.1875
vt 0.20000000298023224 0.1875
vt 0.25 0.1875
vt 0.30000001192092896 0.1875
vt 0.3499999940395355 0.1875
vt 0.4000000059604645 0.1875
vt 0.44999998807907104 0.1875
vt 0.5 0.1875
vt 0.550000011920929 0.1875
vt 0.6000000238418579 0.1875
vt 0.6499999761581421 0.1875
vt 0.699999988079071 0.1875
vt 0.75 0.1875
vt 0.800000011920929 0.1875
vt 0.8500000238418579 0.1875
vt 0.8999999761581421 0.1875
vt 0.949999988079071 0.1875
vt 1 0.1875
vt 0 0.125
vt 0.05000000074505806 0.125
vt 0.10000000149011612 0.125
vt 0.15000000596046448 0.125
vt 0.20000000298023224 0.125
vt 0.25 0.125
vt 0.30000001192092896 0.125
vt 0.3499999940395355 0.125
vt 0.4000000059604645 0.125
vt 0.44999998807907104 0.125
vt 0.5 0.125
vt 0.550000011920929 0.125
vt 0.6000000238418579 0.125
vt 0.6499999761581421 0.125
vt 0.699999988079071 0.125
vt 0.75 0.125
vt 0.800000011920929 0.125
vt 0.8500000238418579 0.125
vt 0.8999999761581421 0.125
vt 0.949999988079071 0.125
vt 1 0.125
vt 0 0.0625
vt 0.05000000074505806 0.0625
vt 0.10000000149011612 0.0625
vt 0.15000000596046448 0.0625
vt 0.20000000298023224 0.0625
vt 0.25 0.0625
vt 0.30000001192092896 0.0625
vt 0.3499999940395355 0.0625
vt 0.4000000059604645 0.0625
vt 0.44999998807907104 0.0625
vt 0.5 0.0625
vt 0.550000011920929 0.0625
vt 0.6000000238418579 0.0625
vt 0.6499999761581421 0.0625
vt 0.699999988079071 0.0625
vt 0.75 0.0625
vt 0.800000011920929 0.0625
vt 0.8500000238418579 0.0625
vt 0.8999999761581421 0.0625
vt 0.949999988079071 0.0625
vt 1 0.0625
vt -0.02500000037252903 0
vt 0.02500000037252903 0
vt 0.07500000298023224 0
vt 0.125 0
vt 0.17499999701976776 0
vt 0.22499999403953552 0
vt 0.2750000059604645 0
vt 0.32499998807907104 0
vt 0.375 0
vt 0.42500001192092896 0
vt 0.4749999940395355 0
vt 0.5249999761581421 0
vt 0.574999988079071 0
vt 0.625 0
vt 0.675000011920929 0
vt 0.7250000238418579 0
vt 0.7749999761581421 0
vt 0.824999988079071 0
vt 0.875 0
vt 0.925000011920929 0
vt 0.9750000238418579 0
vn -0.1682238532702267 0.9853886691935865 0.02664405779550269
vn -0.15175694677234616 0.985388665809502 0.07732403507645454
vn -0.12043498133709071 0.9853886697850089 0.12043498133709071
vn -0.07732403507645454 0.985388665809502 0.15175694677234616
vn -0.02664405779550269 0.9853886691935865 0.1682238532702267
vn 0.02664405779550269 0.9853886691935865 0.1682238532702267
vn 0.07732403507645454 0.985388665809502 0.15175694677234616
vn 0.12043498133709071 0.9853886697850089 0.12043498133709071
vn 0.15175694677234616 0.985388665809502 0.07732403507645454
vn 0.1682238532702267 0.9853886691935865 0.02664405779550269
vn 0.1682238532702267 0.9853886691935865 -0.02664405779550269
vn 0.15175694677234616 0.985388665809502 -0.07732403507645454
vn 0.12043498133709071 0.9853886697850089 -0.12043498133709071
vn 0.07732403507645454 0.985388665809502 -0.15175694677234616
vn 0.02664405779550269 0.9853886691935865 -0.1682238532702267
vn -0.02664405779550269 0.9853886691935865 -0.1682238532702267
vn -0.07732403507645454 0.985388665809502 -0.15175694677234616
vn -0.12043498133709071 0.9853886697850089 -0.12043498133709071
vn -0.15175694677234616 0.985388665809502 -0.07732403507645454
vn -0.1682238532702267 0.9853886691935865 -0.02664405779550269
vn 0 0 0
vn -0.39696310974436444 0.9156785978192536 0.0628728478585866
vn -0.3480571489216003 0.9270440884972101 0.1394470475375654
vn -0.28793048783647307 0.9270440911942482 0.24017761585143851
vn -0.19961916086672554 0.9270441018023112 0.31739789528037265
vn -0.09176784537691404 0.9270440717774978 0.36354910471224683
vn 0.025066511520354155 0.9270440867608816 0.37411352715704177
vn 0.1394470475375654 0.9270440884972101 0.3480571489216003
vn 0.24017761585143851 0.9270440911942482 0.28793048783647307
vn 0.31739789528037265 0.9270441018023112 0.19961916086672554
vn 0.36354910471224683 0.9270440717774978 0.09176784537691404
vn 0.3741135271570418 0.9270440867608818 -0.02506651152035416
vn 0.3480571489216003 0.9270440884972101 -0.1394470475375654
vn 0.28793048783647307 0.9270440911942482 -0.24017761585143851
vn 0.19961916086672554 0.9270441018023112 -0.31739789528037265
vn 0.09176784537691404 0.9270440717774978 -0.36354910471224683
vn -0.025066511520354155 0.9270440867608816 -0.37411352715704177
vn -0.1394470475375654 0.9270440884972101 -0.3480571489216003
vn -0.24017761585143851 0.9270440911942482 -0.28793048783647307
vn -0.31739789528037265 0.9270441018023112 -0.19961916086672554
vn -0.36354910471224683 0.9270440717774978 -0.09176784537691404
vn -0.32551813817182784 0.9441291294409181 -0.05155704279999856
vn -0.6233257658955567 0.7757050404502821 0.09872527432600034
vn -0.5637090093161361 0.7998978931319783 0.2059017080522711
vn -0.4724919730856234 0.7998978981377113 0.37001984801430043
vn -0.335024052037972 0.7998978929745948 0.4979179102732318
vn -0.1647618436992356 0.7998978612216066 0.5770762050838069
vn 0.021628612662275216 0.7998979095288704 0.5997462275376548
vn 0.2059017080522711 0.7998978931319783 0.5637090093161361
vn 0.37001984801430043 0.7998978981377113 0.4724919730856234
vn 0.4979179102732318 0.7998978929745948 0.335024052037972
vn 0.5770762050838069 0.7998978612216066 0.1647618436992356
vn 0.5997462275376548 0.7998979095288704 -0.021628612662275216
vn 0.5637090093161361 0.7998978931319783 -0.2059017080522711
vn 0.4724919730856234 0.7998978981377113 -0.37001984801430043
vn 0.335024052037972 0.7998978929745948 -0.4979179102732318
vn 0.1647618436992356 0.7998978612216066 -0.5770762050838069
vn -0.021628612662275216 0.7998979095288704 -0.5997462275376548
vn -0.2059017080522711 0.7998978931319783 -0.5637090093161361
vn -0.37001984801430043 0.7998978981377113 -0.4724919730856234
vn -0.4979179102732318 0.7998978929745948 -0.335024052037972
vn -0.5770762050838069 0.7998978612216066 -0.1647618436992356
vn -0.5587933670869123 0.8245707767018037 -0.08850427734892606
vn -0.776560389034459 0.6179208341512237 0.12299514179229022
vn -0.7206983554120076 0.6456200469564204 0.2525245245009229
vn -0.607390629434273 0.6456199749082553 0.4628730617295649
vn -0.43462706006131796 0.6456199942934145 0.6279125270537502
vn -0.21931925431419255 0.6456199888955846 0.7314874534983712
vn 0.017456930448842445 0.6456200002067729 0.7634592791448085
vn 0.2525245245009229 0.6456200469564204 0.7206983554120076
vn 0.4628730617295649 0.6456199749082553 0.607390629434273
vn 0.6279125270537502 0.6456199942934145 0.43462706006131796
vn 0.7314874534983712 0.6456199888955846 0.21931925431419255
vn 0.7634592791448085 0.6456200002067729 -0.017456930448842445
vn 0.7206983554120076 0.6456200469564204 -0.2525245245009229
vn 0.607390629434273 0.6456199749082553 -0.4628730617295649
vn 0.43462706006131796 0.6456199942934145 -0.6279125270537502
vn 0.21931925431419255 0.6456199888955846 -0.7314874534983712
vn -0.017456930448842445 0.6456200002067729 -0.7634592791448085
vn -0.2525245245009229 0.6456200469564204 -0.7206983554120076
vn -0.4628730617295649 0.6456199749082553 -0.607390629434273
vn -0.6279125270537502 0.6456199942934145 -0.43462706006131796
vn -0.7314874534983712 0.6456199888955846 -0.21931925431419255
vn -0.7337035499097931 0.6694586838684695 -0.11620745003167506
vn -0.8727944697789137 0.4681029429439505 0.13823692824479816
vn -0.8222135302509392 0.4948524234936547 0.28122231354347466
vn -0.6950690189131896 0.49485245623763807 0.5215362935622337
vn -0.49988639903679405 0.49485239930003805 0.7107986289836404
vn -0.2557712739035373 0.49485244296168696 0.8304830613207063
vn 0.013380355792250108 0.494852351461726 0.8688740509024729
vn 0.28122231354347466 0.4948524234936547 0.8222135302509392
vn 0.5215362935622337 0.49485245623763807 0.6950690189131896
vn 0.7107986289836404 0.49485239930003805 0.49988639903679405
vn 0.8304830613207063 0.49485244296168696 0.2557712739035373
vn 0.8688740509024729 0.494852351461726 -0.013380355792250108
vn 0.8222135302509392 0.4948524234936547 -0.28122231354347466
vn 0.6950690189131896 0.49485245623763807 -0.5215362935622337
vn 0.49988639903679405 0.49485239930003805 -0.7107986289836404
vn 0.2557712739035373 0.49485244296168696 -0.8304830613207063
vn -0.013380355792250108 0.494852351461726 -0.8688740509024729
vn -0.28122231354347466 0.4948524234936547 -0.8222135302509392
vn -0.5215362935622337 0.49485245623763807 -0.6950690189131896
vn -0.7107986289836404 0.49485239930003805 -0.49988639903679405
vn -0.8304830613207063 0.49485244296168696 -0.2557712739035373
vn -0.8460449206845779 0.515996052728657 -0.13400024534407137
vn -0.9315344660612678 0.33237829695009535 0.14754052411626845
vn -0.8854470129096814 0.3567545960099421 0.29784181297310386
vn -0.7500718354601164 0.35675469605115123 0.5568826882701087
vn -0.5412744268930038 0.3567546894367887 0.7614119032143579
vn -0.2794934147101213 0.3567545627672694 0.8914087800097161
vn 0.009646356768340624 0.3567545612587966 0.9341483451904956
vn 0.29784181297310386 0.3567545960099421 0.8854470129096814
vn 0.5568826882701087 0.35675469605115123 0.7500718354601164
vn 0.7614119032143579 0.3567546894367887 0.5412744268930038
vn 0.8914087800097161 0.3567545627672694 0.2794934147101213
vn 0.9341483451904956 0.3567545612587966 -0.009646356768340624
vn 0.8854470129096814 0.3567545960099421 -0.29784181297310386
vn 0.7500718354601164 0.35675469605115123 -0.5568826882701087
vn 0.5412744268930038 0.3567546894367887 -0.7614119032143579
vn 0.2794934147101213 0.3567545627672694 -0.8914087800097161
vn -0.009646356768340624 0.3567545612587966 -0.9341483451904956
vn -0.29784181297310386 0.3567545960099421 -0.8854470129096814
vn -0.5568826882701087 0.35675469605115123 -0.7500718354601164
vn -0.7614119032143579 0.3567546894367887 -0.5412744268930038
vn -0.8914087800097161 0.3567545627672694 -0.2794934147101213
vn -0.9153164784179733 0.3757378226227972 -0.14497183515151843
vn -0.9659101863239107 0.20883755170091195 0.15298493048427053
vn -0.9234408674404325 0.2307608112144495 0.30660465154415156
vn -0.7834983560674282 0.2307607856849361 0.5769573518291525
vn -0.566861500856129 0.23076085362787072 0.7908334004580694
vn -0.2947362398424679 0.23076089001224617 0.9272971263647265
vn 0.00623950594536901 0.2307607678712748 0.9729905120693714
vn 0.30660465154415156 0.2307608112144495 0.9234408674404325
vn 0.5769573518291525 0.2307607856849361 0.7834983560674282
vn 0.7908334004580694 0.23076085362787072 0.566861500856129
vn 0.9272971263647265 0.23076089001224617 0.2947362398424679
vn 0.9729905120693714 0.2307607678712748 -0.00623950594536901
vn 0.9234408674404325 0.2307608112144495 -0.30660465154415156
vn 0.7834983560674282 0.2307607856849361 -0.5769573518291525
vn 0.566861500856129 0.23076085362787072 -0.7908334004580694
vn 0.2947362398424679 0.23076089001224617 -0.9272971263647265
vn -0.00623950594536901 0.2307607678712748 -0.9729905120693714
vn -0.30660465154415156 0.2307608112144495 -0.9234408674404325
vn -0.5769573518291525 0.2307607856849361 -0.7834983560674282
vn -0.7908334004580694 0.23076085362787072 -0.566861500856129
vn -0.9272971263647265 0.23076089001224617 -0.2947362398424679
vn -0.9566726699368479 0.2486332658798954 -0.15152195119453904
vn -0.9833741737279917 0.09336424574511176 0.15575092956780662
vn -0.943986682402506 0.1132544387342246 0.3099396321119745
vn -0.8020080281511369 0.11325435274773703 0.5864781107294768
vn -0.5815232298104229 0.11325434404444912 0.8056079609499374
vn -0.3041147631924581 0.11325445928525958 0.9458792937052796
vn 0.003062305816264681 0.11325449036647946 0.993561292872723
vn 0.3099396321119745 0.1132544387342246 0.943986682402506
vn 0.5864781107294768 0.11325435274773703 0.8020080281511369
vn 0.8056079609499374 0.11325434404444912 0.5815232298104229
vn 0.9458792937052796 0.11325445928525958 0.3041147631924581
vn 0.993561292872723 0.11325449036647946 -0.003062305816264681
vn 0.943986682402506 0.1132544387342246 -0.3099396321119745
vn 0.8020080281511369 0.11325435274773703 -0.5864781107294768
vn 0.5815232298104229 0.11325434404444912 -0.8056079609499374
vn 0.3041147631924581 0.11325445928525958 -0.9458792937052796
vn -0.003062305816264681 0.11325449036647946 -0.993561292872723
vn -0.3099396321119745 0.1132544387342246 -0.943986682402506
vn -0.5864781107294768 0.11325435274773703 -0.8020080281511369
vn -0.8056079609499374 0.11325434404444912 -0.5815232298104229
vn -0.9458792937052796 0.11325445928525958 -0.3041147631924581
vn -0.9791763156762714 0.13100406168813833 -0.15508603625037787
vn -0.9875200113848214 -0.01846315659953478 0.15640760519521832
vn -0.951056533665155 2.6124229716107183e-8 0.30901694091557386
vn -0.8090169522230046 7.73920847370046e-9 0.5877853103096408
vn -0.5877852429542022 -9.418394048087373e-9 0.8090170011595983
vn -0.3090169139591189 -2.6275120812444854e-8 0.9510565424238362
vn 1.0043067488751944e-9 1.0154338481171976e-9 1
vn 0.30901694091557386 2.6124229716107183e-8 0.951056533665155
vn 0.5877853103096408 7.73920847370046e-9 0.8090169522230046
vn 0.8090170011595983 -9.418394048087373e-9 0.5877852429542022
vn 0.9510565424238362 -2.6275120812444854e-8 0.3090169139591189
vn 1 1.0154338481171976e-9 -1.0043067488751944e-9
vn 0.951056533665155 2.6124229716107183e-8 -0.30901694091557386
vn 0.8090169522230046 7.73920847370046e-9 -0.5877853103096408
vn 0.5877852429542022 -9.418394048087373e-9 -0.8090170011595983
vn 0.3090169139591189 -2.6275120812444854e-8 -0.9510565424238362
vn -1.0043067488751944e-9 1.0154338481171976e-9 -1
vn -0.30901694091557386 2.6124229716107183e-8 -0.951056533665155
vn -0.5877853103096408 7.73920847370046e-9 -0.8090169522230046
vn -0.8090170011595983 -9.418394048087373e-9 -0.5877852429542022
vn -0.9510565424238362 -2.6275120812444854e-8 -0.3090169139591189
vn -0.9875200113848214 0.01846315659953478 -0.15640760519521832
vn -0.9791763156762714 -0.13100406168813833 0.15508603625037787
vn -0.9458792937052796 -0.11325445928525958 0.3041147631924581
vn -0.805607940708736 -0.11325434212767801 0.5815232582246876
vn -0.5864781097397237 -0.11325436745776762 0.8020080267976509
vn -0.3099396582668176 -0.11325445975314827 0.9439866712933349
vn -0.003062304186465418 -0.1132544903670447 0.9935612928776817
vn 0.3041147631924581 -0.11325445928525958 0.9458792937052796
vn 0.5815232582246876 -0.11325434212767801 0.805607940708736
vn 0.8020080267976509 -0.11325436745776762 0.5864781097397237
vn 0.9439866712933349 -0.11325445975314827 0.3099396582668176
vn 0.9935612928776817 -0.1132544903670447 0.003062304186465418
vn 0.9458792937052796 -0.11325445928525958 -0.3041147631924581
vn 0.805607940708736 -0.11325434212767801 -0.5815232582246876
vn 0.5864781097397237 -0.11325436745776762 -0.8020080267976509
vn 0.3099396582668176 -0.11325445975314827 -0.9439866712933349
vn 0.003062304186465418 -0.1132544903670447 -0.9935612928776817
vn -0.3041147631924581 -0.11325445928525958 -0.9458792937052796
vn -0.5815232582246876 -0.11325434212767801 -0.805607940708736
vn -0.8020080267976509 -0.11325436745776762 -0.5864781097397237
vn -0.9439866712933349 -0.11325445975314827 -0.3099396582668176
vn -0.9833741766943277 -0.09336423857616326 -0.1557509151364662
vn -0.9566726699368479 -0.2486332658798954 0.15152195119453904
vn -0.9272971327419436 -0.23076086179691432 0.2947362418694309
vn -0.7908334004580694 -0.23076085362787072 0.566861500856129
vn -0.5769573498452247 -0.2307607997926025 0.7834983533732878
vn -0.30660468065344804 -0.2307607808905333 0.9234408653531575
vn -0.006239504548439534 -0.23076076787328623 0.9729905120778524
vn 0.2947362418694309 -0.23076086179691432 0.9272971327419436
vn 0.566861500856129 -0.23076085362787072 0.7908334004580694
vn 0.7834983533732878 -0.2307607997926025 0.5769573498452247
vn 0.9234408653531575 -0.2307607808905333 0.30660468065344804
vn 0.9729905120778524 -0.23076076787328623 0.006239504548439534
vn 0.9272971327419436 -0.23076086179691432 -0.2947362418694309
vn 0.7908334004580694 -0.23076085362787072 -0.566861500856129
vn 0.5769573498452247 -0.2307607997926025 -0.7834983533732878
vn 0.30660468065344804 -0.2307607808905333 -0.9234408653531575
vn 0.006239504548439534 -0.23076076787328623 -0.9729905120778524
vn -0.2947362418694309 -0.23076086179691432 -0.9272971327419436
vn -0.566861500856129 -0.23076085362787072 -0.7908334004580694
vn -0.7834983533732878 -0.2307607997926025 -0.5769573498452247
vn -0.9234408653531575 -0.2307607808905333 -0.30660468065344804
vn -0.9659101885258509 -0.20883755217698913 -0.15298491593186203
vn -0.9153164681683875 -0.3757378482176602 0.1449718335281441
vn -0.8914087603424571 -0.35675457875078376 0.27949345703446216
vn -0.76141185360036 -0.3567546941178428 0.541274493599826
vn -0.5568826692939702 -0.356754654092182 0.7500718695055762
vn -0.29784185268410573 -0.35675463768086974 0.885446982762317
vn -0.009646358134120476 -0.3567546071288032 0.9341483276584728
vn 0.27949345703446216 -0.35675457875078376 0.8914087603424571
vn 0.541274493599826 -0.3567546941178428 0.76141185360036
vn 0.7500718695055762 -0.356754654092182 0.5568826692939702
vn 0.885446982762317 -0.35675463768086974 0.29784185268410573
vn 0.9341483276584728 -0.3567546071288032 0.009646358134120476
vn 0.8914087603424571 -0.35675457875078376 -0.27949345703446216
vn 0.76141185360036 -0.3567546941178428 -0.541274493599826
vn 0.5568826692939702 -0.356754654092182 -0.7500718695055762
vn 0.29784185268410573 -0.35675463768086974 -0.885446982762317
vn 0.009646358134120476 -0.3567546071288032 -0.9341483276584728
vn -0.27949345703446216 -0.35675457875078376 -0.8914087603424571
vn -0.541274493599826 -0.3567546941178428 -0.76141185360036
vn -0.7500718695055762 -0.356754654092182 -0.5568826692939702
vn -0.885446982762317 -0.35675463768086974 -0.29784185268410573
vn -0.9315344660612678 -0.33237829695009535 -0.14754052411626845
vn -0.8460449189952298 -0.5159960516983371 0.13400025997766668
vn -0.8304830735684642 -0.4948524204573257 0.2557712776755885
vn -0.710798607911641 -0.49485241443220007 0.4998864140197205
vn -0.5215362935622337 -0.49485245623763807 0.6950690189131896
vn -0.28122231354347466 -0.4948524234936547 0.8222135302509392
vn -0.013380358884011595 -0.49485242207982577 0.8688740106355265
vn 0.2557712776755885 -0.4948524204573257 0.8304830735684642
vn 0.4998864140197205 -0.49485241443220007 0.710798607911641
vn 0.6950690189131896 -0.49485245623763807 0.5215362935622337
vn 0.8222135302509392 -0.4948524234936547 0.28122231354347466
vn 0.8688740106355265 -0.49485242207982577 0.013380358884011595
vn 0.8304830735684642 -0.4948524204573257 -0.2557712776755885
vn 0.710798607911641 -0.49485241443220007 -0.4998864140197205
vn 0.5215362935622337 -0.49485245623763807 -0.6950690189131896
vn 0.28122231354347466 -0.4948524234936547 -0.8222135302509392
vn 0.013380358884011595 -0.49485242207982577 -0.8688740106355265
vn -0.2557712776755885 -0.4948524204573257 -0.8304830735684642
vn -0.4998864140197205 -0.49485241443220007 -0.710798607911641
vn -0.6950690189131896 -0.49485245623763807 -0.5215362935622337
vn -0.8222135302509392 -0.4948524234936547 -0.28122231354347466
vn -0.8727944961544826 -0.4681028953199897 -0.13823692298183485
vn -0.7337035499097931 -0.6694586838684695 0.11620745003167506
vn -0.7314874558889538 -0.6456199910055428 0.21931924012979107
vn -0.6279125351870357 -0.6456200026560631 0.4346270358886739
vn -0.46287305612469093 -0.645619949054453 0.6073906611866156
vn -0.2525245245009229 -0.6456200469564204 0.7206983554120076
vn -0.017456930326228946 -0.6456199360674398 0.7634593333870902
vn 0.21931924012979107 -0.6456199910055428 0.7314874558889538
vn 0.4346270358886739 -0.6456200026560631 0.6279125351870357
vn 0.6073906611866156 -0.645619949054453 0.46287305612469093
vn 0.7206983554120076 -0.6456200469564204 0.2525245245009229
vn 0.7634593333870902 -0.6456199360674398 0.017456930326228946
vn 0.7314874558889538 -0.6456199910055428 -0.21931924012979107
vn 0.6279125351870357 -0.6456200026560631 -0.4346270358886739
vn 0.46287305612469093 -0.645619949054453 -0.6073906611866156
vn 0.2525245245009229 -0.6456200469564204 -0.7206983554120076
vn 0.017456930326228946 -0.6456199360674398 -0.7634593333870902
vn -0.21931924012979107 -0.6456199910055428 -0.7314874558889538
vn -0.4346270358886739 -0.6456200026560631 -0.6279125351870357
vn -0.6073906611866156 -0.645619949054453 -0.46287305612469093
vn -0.7206983554120076 -0.6456200469564204 -0.2525245245009229
vn -0.776560389034459 -0.6179208341512237 -0.12299514179229022
vn -0.5587933670869123 -0.8245707767018037 0.08850427734892606
vn -0.5770762065006113 -0.79989786318547 0.16476182920258797
vn -0.4979179738686434 -0.7998978397810608 0.33502408452548177
vn -0.37001981708197196 -0.7998978956948968 0.4724920014449983
vn -0.20590173213859572 -0.7998978692103416 0.563709034462888
vn -0.021628611058530006 -0.7998978594992052 0.5997462943214144
vn 0.16476182920258797 -0.79989786318547 0.5770762065006113
vn 0.33502408452548177 -0.7998978397810608 0.4979179738686434
vn 0.4724920014449983 -0.7998978956948968 0.37001981708197196
vn 0.563709034462888 -0.7998978692103416 0.20590173213859572
vn 0.5997462943214144 -0.7998978594992052 0.021628611058530006
vn 0.5770762065006113 -0.79989786318547 -0.16476182920258797
vn 0.4979179738686434 -0.7998978397810608 -0.33502408452548177
vn 0.37001981708197196 -0.7998978956948968 -0.4724920014449983
vn 0.20590173213859572 -0.7998978692103416 -0.563709034462888
vn 0.021628611058530006 -0.7998978594992052 -0.5997462943214144
vn -0.16476182920258797 -0.79989786318547 -0.5770762065006113
vn -0.33502408452548177 -0.7998978397810608 -0.4979179738686434
vn -0.4724920014449983 -0.7998978956948968 -0.37001981708197196
vn -0.563709034462888 -0.7998978692103416 -0.20590173213859572
vn -0.6233257663540505 -0.7757050410208601 -0.09872526694803814
vn -0.3255181382968691 -0.9441291298035863 0.0515570353692224
vn -0.3635490788488365 -0.927044081821656 0.09176784637118258
vn -0.31739789528037265 -0.9270441018023112 0.19961916086672554
vn -0.24017760387081827 -0.9270441024670321 0.28793046153536267
vn -0.13944703292616445 -0.9270440904235361 0.3480571496448362
vn -0.025066511520354155 -0.9270440867608816 0.37411352715704177
vn 0.09176784637118258 -0.927044081821656 0.3635490788488365
vn 0.19961916086672554 -0.9270441018023112 0.31739789528037265
vn 0.28793046153536267 -0.9270441024670321 0.24017760387081827
vn 0.3480571496448362 -0.9270440904235361 0.13944703292616445
vn 0.3741135271570418 -0.9270440867608818 0.02506651152035416
vn 0.3635490788488365 -0.927044081821656 -0.09176784637118258
vn 0.31739789528037265 -0.9270441018023112 -0.19961916086672554
vn 0.24017760387081827 -0.9270441024670321 -0.28793046153536267
vn 0.13944703292616445 -0.9270440904235361 -0.3480571496448362
vn 0.025066511520354155 -0.9270440867608816 -0.37411352715704177
vn -0.09176784637118258 -0.927044081821656 -0.3635490788488365
vn -0.19961916086672554 -0.9270441018023112 -0.31739789528037265
vn -0.28793046153536267 -0.9270441024670321 -0.24017760387081827
vn -0.3480571496448362 -0.9270440904235361 -0.13944703292616445
vn -0.39696310974436444 -0.9156785978192536 -0.0628728478585866
vn 0 0 0
vn -0.1682238532702267 -0.9853886691935865 0.02664405779550269
vn -0.15175694677234616 -0.985388665809502 0.07732403507645454
vn -0.12043498133709071 -0.9853886697850089 0.12043498133709071
vn -0.07732403507645454 -0.985388665809502 0.15175694677234616
vn -0.02664405779550269 -0.9853886691935865 0.1682238532702267
vn 0.02664405779550269 -0.9853886691935865 0.1682238532702267
vn 0.07732403507645454 -0.985388665809502 0.15175694677234616
vn 0.12043498133709071 -0.9853886697850089 0.12043498133709071
vn 0.15175694677234616 -0.985388665809502 0.07732403507645454
vn 0.1682238532702267 -0.9853886691935865 0.02664405779550269
vn 0.1682238532702267 -0.9853886691935865 -0.02664405779550269
vn 0.15175694677234616 -0.985388665809502 -0.07732403507645454
vn 0.12043498133709071 -0.9853886697850089 -0.12043498133709071
vn 0.07732403507645454 -0.985388665809502 -0.15175694677234616
vn 0.02664405779550269 -0.9853886691935865 -0.1682238532702267
vn -0.02664405779550269 -0.9853886691935865 -0.1682238532702267
vn -0.07732403507645454 -0.985388665809502 -0.15175694677234616
vn -0.12043498133709071 -0.9853886697850089 -0.12043498133709071
vn -0.15175694677234616 -0.985388665809502 -0.07732403507645454
vn -0.1682238532702267 -0.9853886691935865 -0.02664405779550269
f 1/1/1 22/22/22 23/23/23
f 2/2/2 23/23/23 24/24/24
f 3/3/3 24/24/24 25/25/25
f 4/4/4 25/25/25 26/26/26
f 5/5/5 26/26/26 27/27/27
f 6/6/6 27/27/27 28/28/28
f 7/7/7 28/28/28 29/29/29
f 8/8/8 29/29/29 30/30/30
f 9/9/9 30/30/30 31/31/31
f 10/10/10 31/31/31 32/32/32
f 11/11/11 32/32/32 33/33/33
f 12/12/12 33/33/33 34/34/34
f 13/13/13 34/34/34 35/35/35
f 14/14/14 35/35/35 36/36/36
f 15/15/15 36/36/36 37/37/37
f 16/16/16 37/37/37 38/38/38
f 17/17/17 38/38/38 39/39/39
f 18/18/18 39/39/39 40/40/40
f 19/19/19 40/40/40 41/41/41
f 20/20/20 41/41/41 42/42/42
f 23/23/23 22/22/22 44/44/44
f 22/22/22 43/43/43 44/44/44
f 24/24/24 23/23/23 45/45/45
f 23/23/23 44/44/44 45/45/45
f 25/25/25 24/24/24 46/46/46
f 24/24/24 45/45/45 46/46/46
f 26/26/26 25/25/25 47/47/47
f 25/25/25 46/46/46 47/47/47
f 27/27/27 26/26/26 48/48/48
f 26/26/26 47/47/47 48/48/48
f 28/28/28 27/27/27 49/49/49
f 27/27/27 48/48/48 49/49/49
f 29/29/29 28/28/28 50/50/50
f 28/28/28 49/49/49 50/50/50
f 30/30/30 29/29/29 51/51/51
f 29/29/29 50/50/50 51/51/51
f 31/31/31 30/30/30 52/52/52
f 30/30/30 51/51/51 52/52/52
f 32/32/32 31/31/31 53/53/53
f 31/31/31 52/52/52 53/53/53
f 33/33/33 32/32/32 54/54/54
f 32/32/32 53/53/53 54/54/54
f 34/34/34 33/33/33 55/55/55
f 33/33/33 54/54/54 55/55/55
f 35/35/35 34/34/34 56/56/56
f 34/34/34 55/55/55 56/56/56
f 36/36/36 35/35/35 57/57/57
f 35/35/35 56/56/56 57/57/57
f 37/37/37 36/36/36 58/58/58
f 36/36/36 57/57/57 58/58/58
f 38/38/38 37/37/37 59/59/59
f 37/37/37 58/58/58 59/59/59
f 39/39/39 38/38/38 60/60/60
f 38/38/38 59/59/59 60/60/60
f 40/40/40 39/39/39 61/61/61
f 39/39/39 60/60/60 61/61/61
f 41/41/41 40/40/40 62/62/62
f 40/40/40 61/61/61 62/62/62
f 42/42/42 41/41/41 63/63/63
f 41/41/41 62/62/62 63/63/63
f 44/44/44 43/43/43 65/65/65
f 43/43/43 64/64/64 65/65/65
f 45/45/45 44/44/44 66/66/66
f 44/44/44 65/65/65 66/66/66
f 46/46/46 45/45/45 67/67/67
f 45/45/45 66/66/66 67/67/67
f 47/47/47 46/46/46 68/68/68
f 46/46/46 67/67/67 68/68/68
f 48/48/48 47/47/47 69/69/69
f 47/47/47 68/68/68 69/69/69
f 49/49/49 48/48/48 70/70/70
f 48/48/48 69/69/69 70/70/70
f 50/50/50 49/49/49 71/71/71
f 49/49/49 70/70/70 71/71/71
f 51/51/51 50/50/50 72/72/72
f 50/50/50 71/71/71 72/72/72
f 52/52/52 51/51/51 73/73/73
f 51/51/51 72/72/72 73/73/73
f 53/53/53 52/52/52 74/74/74
f 52/52/52 73/73/73 74/74/74
f 54/54/54 53/53/53 75/75/75
f 53/53/53 74/74/74 75/75/75
f 55/55/55 54/54/54 76/76/76
f 54/54/54 75/75/75 76/76/76
f 56/56/56 55/55/55 77/77/77
f 55/55/55 76/76/76 77/77/77
f 57/57/57 56/56/56 78/78/78
f 56/56/56 77/77/77 78/78/78
f 58/58/58 57/57/57 79/79/79
f 57/57/57 78/78/78 79/79/79
f 59/59/59 58/58/58 80/80/80
f 58/58/58 79/79/79 80/80/80
f 60/60/60 59/59/59 81/81/81
f 59/59/59 80/80/80 81/81/81
f 61/61/61 60/60/60 82/82/82
f 60/60/60 81/81/81 82/82/82
f 62/62/62 61/61/61 83/83/83
f 61/61/61 82/82/82 83/83/83
f 63/63/63 62/62/62 84/84/84
f 62/62/62 83/83/83 84/84/84
f 65/65/65 64/64/64 86/86/86
f 64/64/64 85/85/85 86/86/86
f 66/66/66 65/65/65 87/87/87
f 65/65/65 86/86/86 87/87/87
f 67/67/67 66/66/66 88/88/88
f 66/66/66 87/87/87 88/88/88
f 68/68/68 67/67/67 89/89/89
f 67/67/67 88/88/88 89/89/89
f 69/69/69 68/68/68 90/90/90
f 68/68/68 89/89/89 90/90/90
f 70/70/70 69/69/69 91/91/91
f 69/69/69 90/90/90 91/91/91
f 71/71/71 70/70/70 92/92/92
f 70/70/70 91/91/91 92/92/92
f 72/72/72 71/71/71 93/93/93
f 71/71/71 92/92/92 93/93/93
f 73/73/73 72/72/72 94/94/94
f 72/72/72 93/93/93 94/94/94
f 74/74/74 73/73/73 95/95/95
f 73/73/73 94/94/94 95/95/95
f 75/75/75 74/74/74 96/96/96
f 74/74/74 95/95/95 96/96/96
f 76/76/76 75/75/75 97/97/97
f 75/75/75 96/96/96 97/97/97
f 77/77/77 76/76/76 98/98/98
f 76/76/76 97/97/97 98/98/98
f 78/78/78 77/77/77 99/99/99
f 77/77/77 98/98/98 99/99/99
f 79/79/79 78/78/78 100/100/100
f 78/78/78 99/99/99 100/100/100
f 80/80/80 79/79/79 101/101/101
f 79/79/79 100/100/100 101/101/101
f 81/81/81 80/80/80 102/102/102
f 80/80/80 101/101/101 102/102/102
f 82/82/82 81/81/81 103/103/103
f 81/81/81 102/102/102 103/103/103
f 83/83/83 82/82/82 104/104/104
f 82/82/82 103/103/103 104/104/104
f 84/84/84 83/83/83 105/105/105
f 83/83/83 104/104/104 105/105/105
f 86/86/86 85/85/85 107/107/107
f 85/85/85 106/106/106 107/107/107
f 87/87/87 86/86/86 108/108/108
f 86/86/86 107/107/107 108/108/108
f 88/88/88 87/87/87 109/109/109
f 87/87/87 108/108/108 109/109/109
f 89/89/89 88/88/88 110/110/110
f 88/88/88 109/109/109 110/110/110
f 90/90/90 89/89/89 111/111/111
f 89/89/89 110/110/110 111/111/111
f 91/91/91 90/90/90 112/112/112
f 90/90/90 111/111/111 112/112/112
f 92/92/92 91/91/91 113/113/113
f 91/91/91 112/112/112 113/113/113
f 93/93/93 92/92/92 114/114/114
f 92/92/92 113/113/113 114/114/114
f 94/94/94 93/93/93 115/115/115
f 93/93/93 114/114/114 115/115/115
f 95/95/95 94/94/94 116/116/116
f 94/94/94 115/115/115 116/116/116
f 96/96/96 95/95/95 117/117/117
f 95/95/95 116/116/116 117/117/117
f 97/97/97 96/96/96 118/118/118
f 96/96/96 117/117/117 118/118/118
f 98/98/98 97/97/97 119/119/119
f 97/97/97 118/118/118 119/119/119
f 99/99/99 98/98/98 120/120/120
f 98/98/98 119/119/119 120/120/120
f 100/100/100 99/99/99 121/121/121
f 99/99/99 120/120/120 121/121/121
f 101/101/101 100/100/100 122/122/122
f 100/100/100 121/121/121 122/122/122
f 102/102/102 101/101/101 123/123/123
f 101/101/101 122/122/122 123/123/123
f 103/103/103 102/102/102 124/124/124
f 102/102/102 123/123/123 124/124/124
f 104/104/104 103/103/103 125/125/125
f 103/103/103 124/124/124 125/125/125
f 105/105/105 104/104/104 126/126/126
f 104/104/104 125/125/125 126/126/126
f 107/107/107 106/106/106 128/128/128
f 106/106/106 127/127/127 128/128/128
f 108/108/108 107/107/107 129/129/129
f 107/107/107 128/128/128 129/129/129
f 109/109/109 108/108/108 130/130/130
f 108/108/108 129/129/129 130/130/130
f 110/110/110 109/109/109 131/131/131
f 109/109/109 130/130/130 131/131/131
f 111/111/111 110/110/110 132/132/132
f 110/110/110 131/131/131 132/132/132
f 112/112/112 111/111/111 133/133/133
f 111/111/111 132/132/132 133/133/133
f 113/113/113 112/112/112 134/134/134
f 112/112/112 133/133/133 134/134/134
f 114/114/114 113/113/113 135/135/135
f 113/113/113 134/134/134 135/135/135
f 115/115/115 114/114/114 136/136/136
f 114/114/114 135/135/135 136/136/136
f 116/116/116 115/115/115 137/137/137
f 115/115/115 136/136/136 137/137/137
f 117/117/117 116/116/116 138/138/138
f 116/116/116 137/137/137 138/138/138
f 118/118/118 117/117/117 139/139/139
f 117/117/117 138/138/138 139/139/139
f 119/119/119 118/118/118 140/140/140
f 118/118/118 139/139/139 140/140/140
f 120/120/120 119/119/119 141/141/141
f 119/119/119 140/140/140 141/141/141
f 121/121/121 120/120/120 142/142/142
f 120/120/120 141/141/141 142/142/142
f 122/122/122 121/121/121 143/143/143
f 121/121/121 142/142/142 143/143/143
f 123/123/123 122/122/122 144/144/144
f 122/122/122 143/143/143 144/144/144
f 124/124/124 123/123/123 145/145/145
f 123/123/123 144/144/144 145/145/145
f 125/125/125 124/124/124 146/146/146
f 124/124/124 145/145/145 146/146/146
f 126/126/126 125/125/125 147/147/147
f 125/125/125 146/146/146 147/147/147
f 128/128/128 127/127/127 149/149/149
f 127/127/127 148/148/148 149/149/149
f 129/129/129 128/128/128 150/150/150
f 128/128/128 149/149/149 150/150/150
f 130/130/130 129/129/129 151/151/151
f 129/129/129 150/150/150 151/151/151
f 131/131/131 130/130/130 152/152/152
f 130/130/130 151/151/151 152/152/152
f 132/132/132 131/131/131 153/153/153
f 131/131/131 152/152/152 153/153/153
f 133/133/133 132/132/132 154/154/154
f 132/132/132 153/153/153 154/154/154
f 134/134/134 133/133/133 155/155/155
f 133/133/133 154/154/154 155/155/155
f 135/135/135 134/134/134 156/156/156
f 134/134/134 155/155/155 156/156/156
f 136/136/136 135/135/135 157/157/157
f 135/135/135 156/156/156 157/157/157
f 137/137/137 136/136/136 158/158/158
f 136/136/136 157/157/157 158/158/158
f 138/138/138 137/137/137 159/159/159
f 137/137/137 158/158/158 159/159/159
f 139/139/139 138/138/138 160/160/160
f 138/138/138 159/159/159 160/160/160
f 140/140/140 139/139/139 161/161/161
f 139/139/139 160/160/160 161/161/161
f 141/141/141 140/140/140 162/162/162
f 140/140/140 161/161/161 162/162/162
f 142/142/142 141/141/141 163/163/163
f 141/141/141 162/162/162 163/163/163
f 143/143/143 142/142/142 164/164/164
f 142/142/142 163/163/163 164/164/164
f 144/144/144 143/143/143 165/165/165
f 143/143/143 164/164/164 165/165/165
f 145/145/145 144/144/144 166/166/166
f 144/144/144 165/165/165 166/166/166
f 146/146/146 145/145/145 167/167/167
f 145/145/145 166/166/166 167/167/167
f 147/147/147 146/146/146 168/168/168
f 146/146/146 167/167/167 168/168/168
f 149/149/149 148/148/148 170/170/170
f 148/148/148 169/169/169 170/170/170
f 150/150/150 149/149/149 171/171/171
f 149/149/149 170/170/170 171/171/171
f 151/151/151 150/150/150 172/172/172
f 150/150/150 171/171/171 172/172/172
f 152/152/152 151/151/151 173/173/173
f 151/151/151 172/172/172 173/173/173
f 153/153/153 152/152/152 174/174/174
f 152/152/152 173/173/173 174/174/174
f 154/154/154 153/153/153 175/175/175
f 153/153/153 174/174/174 175/175/175
f 155/155/155 154/154/154 176/176/176
f 154/154/154 175/175/175 176/176/176
f 156/156/156 155/155/155 177/177/177
f 155/155/155 176/176/176 177/177/177
f 157/157/157 156/156/156 178/178/178
f 156/156/156 177/177/177 178/178/178
f 158/158/158 157/157/157 179/179/179
f 157/157/157 178/178/178 179/179/179
f 159/159/159 158/158/158 180/180/180
f 158/158/158 179/179/179 180/180/180
f 160/160/160 159/159/159 181/181/181
f 159/159/159 180/180/180 181/181/181
f 161/161/161 160/160/160 182/182/182
f 160/160/160 181/181/181 182/182/182
f 162/162/162 161/161/161 183/183/183
f 161/161/161 182/182/182 183/183/183
f 163/163/163 162/162/162 184/184/184
f 162/162/162 183/183/183 184/184/184
f 164/164/164 163/163/163 185/185/185
f 163/163/163 184/184/184 185/185/185
f 165/165/165 164/164/164 186/186/186
f 164/164/164 185/185/185 186/186/186
f 166/166/166 165/165/165 187/187/187
f 165/165/165 186/186/186 187/187/187
f 167/167/167 166/166/166 188/188/188
f 166/166/166 187/187/187 188/188/188
f 168/168/168 167/167/167 189/189/189
f 167/167/167 188/188/188 189/189/189
f 170/170/170 169/169/169 191/191/191
f 169/169/169 190/190/190 191/191/191
f 171/171/171 170/170/170 192/192/192
f 170/170/170 191/191/191 192/192/192
f 172/172/172 171/171/171 193/193/193
f 171/171/171 192/192/192 193/193/193
f 173/173/173 172/172/172 194/194/194
f 172/172/172 193/193/193 194/194/194
f 174/174/174 173/173/173 195/195/195
f 173/173/173 194/194/194 195/195/195
f 175/175/175 174/174/174 196/196/196
f 174/174/174 195/195/195 196/196/196
f 176/176/176 175/175/175 197/197/197
f 175/175/175 196/196/196 197/197/197
f 177/177/177 176/176/176 198/198/198
f 176/176/176 197/197/197 198/198/198
f 178/178/178 177/177/177 199/199/199
f 177/177/177 198/198/198 199/199/199
f 179/179/179 178/178/178 200/200/200
f 178/178/178 199/199/199 200/200/200
f 180/180/180 179/179/179 201/201/201
f 179/179/179 200/200/200 201/201/201
f 181/181/181 180/180/180 202/202/202
f 180/180/180 201/201/201 202/202/202
f 182/182/182 181/181/181 203/203/203
f 181/181/181 202/202/202 203/203/203
f 183/183/183 182/182/182 204/204/204
f 182/182/182 203/203/203 204/204/204
f 184/184/184 183/183/183 205/205/205
f 183/183/183 204/204/204 205/205/205
f 185/185/185 184/184/184 206/206/206
f 184/184/184 205/205/205 206/206/206
f 186/186/186 185/185/185 207/207/207
f 185/185/185 206/206/206 207/207/207
f 187/187/187 186/186/186 208/208/208
f 186/186/186 207/207/207 208/208/208
f 188/188/188 187/187/187 209/209/209
f 187/187/187 208/208/208 209/209/209
f 189/189/189 188/188/188 210/210/210
f 188/188/188 209/209/209 210/210/210
f 191/191/191 190/190/190 212/212/212
f 190/190/190 211/211/211 212/212/212
f 192/192/192 191/191/191 213/213/213
f 191/191/191 212/212/212 213/213/213
f 193/193/193 192/192/192 214/214/214
f 192/192/192 213/213/213 214/214/214
f 194/194/194 193/193/193 215/215/215
f 193/193/193 214/214/214 215/215/215
f 195/195/195 194/194/194 216/216/216
f 194/194/194 215/215/215 216/216/216
f 196/196/196 195/195/195 217/217/217
f 195/195/195 216/216/216 217/217/217
f 197/197/197 196/196/196 218/218/218
f 196/196/196 217/217/217 218/218/218
f 198/198/198 197/197/197 219/219/219
f 197/197/197 218/218/218 219/219/219
f 199/199/199 198/198/198 220/220/220
f 198/198/198 219/219/219 220/220/220
f 200/200/200 199/199/199 221/221/221
f 199/199/199 220/220/220 221/221/221
f 201/201/201 200/200/200 222/222/222
f 200/200/200 221/221/221 222/222/222
f 202/202/202 201/201/201 223/223/223
f 201/201/201 222/222/222 223/223/223
f 203/203/203 202/202/202 224/224/224
f 202/202/202 223/223/223 224/224/224
f 204/204/204 203/203/203 225/225/225
f 203/203/203 224/224/224 225/225/225
f 205/205/205 204/204/204 226/226/226
f 204/204/204 225/225/225 226/226/226
f 206/206/206 205/205/205 227/227/227
f 205/205/205 226/226/226 227/227/227
f 207/207/207 206/206/206 228/228/228
f 206/206/206 227/227/227 228/228/228
f 208/208/208 207/207/207 229/229/229
f 207/207/207 228/228/228 229/229/229
f 209/209/209 208/208/208 230/230/230
f 208/208/208 229/229/229 230/230/230
f 210/210/210 209/209/209 231/231/231
f 209/209/209 230/230/230 231/231/231
f 212/212/212 211/211/211 233/233/233
f 211/211/211 232/232/232 233/233/233
f 213/213/213 212/212/212 234/234/234
f 212/212/212 233/233/233 234/234/234
f 214/214/214 213/213/213 235/235/235
f 213/213/213 234/234/234 235/235/235
f 215/215/215 214/214/214 236/236/236
f 214/214/214 235/235/235 236/236/236
f 216/216/216 215/215/215 237/237/237
f 215/215/215 236/236/236 237/237/237
f 217/217/217 216/216/216 238/238/238
f 216/216/216 237/237/237 238/238/238
f 218/218/218 217/217/217 239/239/239
f 217/217/217 238/238/238 239/239/239
f 219/219/219 218/218/218 240/240/240
f 218/218/218 239/239/239 240/240/240
f 220/220/220 219/219/219 241/241/241
f 219/219/219 240/240/240 241/241/241
f 221/221/221 220/220/220 242/242/242
f 220/220/220 241/241/241 242/242/242
f 222/222/222 221/221/221 243/243/243
f 221/221/221 242/242/242 243/243/243
f 223/223/223 222/222/222 244/244/244
f 222/222/222 243/243/243 244/244/244
f 224/224/224 223/223/223 245/245/245
f 223/223/223 244/244/244 245/245/245
f 225/225/225 224/224/224 246/246/246
f 224/224/224 245/245/245 246/246/246
f 226/226/226 225/225/225 247/247/247
f 225/225/225 246/246/246 247/247/247
f 227/227/227 226/226/226 248/248/248
f 226/226/226 247/247/247 248/248/248
f 228/228/228 227/227/227 249/249/249
f 227/227/227 248/248/248 249/249/249
f 229/229/229 228/228/228 250/250/250
f 228/228/228 249/249/249 250/250/250
f 230/230/230 229/229/229 251/251/251
f 229/229/229 250/250/250 251/251/251
f 231/231/231 230/230/230 252/252/252
f 230/230/230 251/251/251 252/252/252
f 233/233/233 232/232/232 254/254/254
f 232/232/232 253/253/253 254/254/254
f 234/234/234 233/233/233 255/255/255
f 233/233/233 254/254/254 255/255/255
f 235/235/235 234/234/234 256/256/256
f 234/234/234 255/255/255 256/256/256
f 236/236/236 235/235/235 257/257/257
f 235/235/235 256/256/256 257/257/257
f 237/237/237 236/236/236 258/258/258
f 236/236/236 257/257/257 258/258/258
f 238/238/238 237/237/237 259/259/259
f 237/237/237 258/258/258 259/259/259
f 239/239/239 238/238/238 260/260/260
f 238/238/238 259/259/259 260/260/260
f 240/240/240 239/239/239 261/261/261
f 239/239/239 260/260/260 261/261/261
f 241/241/241 240/240/240 262/262/262
f 240/240/240 261/261/261 262/262/262
f 242/242/242 241/241/241 263/263/263
f 241/241/241 262/262/262 263/263/263
f 243/243/243 242/242/242 264/264/264
f 242/242/242 263/263/263 264/264/264
f 244/244/244 243/243/243 265/265/265
f 243/243/243 264/264/264 265/265/265
f 245/245/245 244/244/244 266/266/266
f 244/244/244 265/265/265 266/266/266
f 246/246/246 245/245/245 267/267/267
f 245/245/245 266/266/266 267/267/267
f 247/247/247 246/246/246 268/268/268
f 246/246/246 267/267/267 268/268/268
f 248/248/248 247/247/247 269/269/269
f 247/247/247 268/268/268 269/269/269
f 249/249/249 248/248/248 270/270/270
f 248/248/248 269/269/269 270/270/270
f 250/250/250 249/249/249 271/271/271
f 249/249/249 270/270/270 271/271/271
f 251/251/251 250/250/250 272/272/272
f 250/250/250 271/271/271 272/272/272
f 252/252/252 251/251/251 273/273/273
f 251/251/251 272/272/272 273/273/273
f 254/254/254 253/253/253 275/275/275
f 253/253/253 274/274/274 275/275/275
f 255/255/255 254/254/254 276/276/276
f 254/254/254 275/275/275 276/276/276
f 256/256/256 255/255/255 277/277/277
f 255/255/255 276/276/276 277/277/277
f 257/257/257 256/256/256 278/278/278
f 256/256/256 277/277/277 278/278/278
f 258/258/258 257/257/257 279/279/279
f 257/257/257 278/278/278 279/279/279
f 259/259/259 258/258/258 280/280/280
f 258/258/258 279/279/279 280/280/280
f 260/260/260 259/259/259 281/281/281
f 259/259/259 280/280/280 281/281/281
f 261/261/261 260/260/260 282/282/282
f 260/260/260 281/281/281 282/282/282
f 262/262/262 261/261/261 283/283/283
f 261/261/261 282/282/282 283/283/283
f 263/263/263 262/262/262 284/284/284
f 262/262/262 283/283/283 284/284/284
f 264/264/264 263/263/263 285/285/285
f 263/263/263 284/284/284 285/285/285
f 265/265/265 264/264/264 286/286/286
f 264/264/264 285/285/285 286/286/286
f 266/266/266 265/265/265 287/287/287
f 265/265/265 286/286/286 287/287/287
f 267/267/267 266/266/266 288/288/288
f 266/266/266 287/287/287 288/288/288
f 268/268/268 267/267/267 289/289/289
f 267/267/267 288/288/288 289/289/289
f 269/269/269 268/268/268 290/290/290
f 268/268/268 289/289/289 290/290/290
f 270/270/270 269/269/269 291/291/291
f 269/269/269 290/290/290 291/291/291
f 271/271/271 270/270/270 292/292/292
f 270/270/270 291/291/291 292/292/292
f 272/272/272 271/271/271 293/293/293
f 271/271/271 292/292/292 293/293/293
f 273/273/273 272/272/272 294/294/294
f 272/272/272 293/293/293 294/294/294
f 275/275/275 274/274/274 296/296/296
f 274/274/274 295/295/295 296/296/296
f 276/276/276 275/275/275 297/297/297
f 275/275/275 296/296/296 297/297/297
f 277/277/277 276/276/276 298/298/298
f 276/276/276 297/297/297 298/298/298
f 278/278/278 277/277/277 299/299/299
f 277/277/277 298/298/298 299/299/299
f 279/279/279 278/278/278 300/300/300
f 278/278/278 299/299/299 300/300/300
f 280/280/280 279/279/279 301/301/301
f 279/279/279 300/300/300 301/301/301
f 281/281/281 280/280/280 302/302/302
f 280/280/280 301/301/301 302/302/302
f 282/282/282 281/281/281 303/303/303
f 281/281/281 302/302/302 303/303/303
f 283/283/283 282/282/282 304/304/304
f 282/282/282 303/303/303 304/304/304
f 284/284/284 283/283/283 305/305/305
f 283/283/283 304/304/304 305/305/305
f 285/285/285 284/284/284 306/306/306
f 284/284/284 305/305/305 306/306/306
f 286/286/286 285/285/285 307/307/307
f 285/285/285 306/306/306 307/307/307
f 287/287/287 286/286/286 308/308/308
f 286/286/286 307/307/307 308/308/308
f 288/288/288 287/287/287 309/309/309
f 287/287/287 308/308/308 309/309/309
f 289/289/289 288/288/288 310/310/310
f 288/288/288 309/309/309 310/310/310
f 290/290/290 289/289/289 311/311/311
f 289/289/289 310/310/310 311/311/311
f 291/291/291 290/290/290 312/312/312
f 290/290/290 311/311/311 312/312/312
f 292/292/292 291/291/291 313/313/313
f 291/291/291 312/312/312 313/313/313
f 293/293/293 292/292/292 314/314/314
f 292/292/292 313/313/313 314/314/314
f 294/294/294 293/293/293 315/315/315
f 293/293/293 314/314/314 315/315/315
f 296/296/296 295/295/295 317/317/317
f 295/295/295 316/316/316 317/317/317
f 297/297/297 296/296/296 318/318/318
f 296/296/296 317/317/317 318/318/318
f 298/298/298 297/297/297 319/319/319
f 297/297/297 318/318/318 319/319/319
f 299/299/299 298/298/298 320/320/320
f 298/298/298 319/319/319 320/320/320
f 300/300/300 299/299/299 321/321/321
f 299/299/299 320/320/320 321/321/321
f 301/301/301 300/300/300 322/322/322
f 300/300/300 321/321/321 322/322/322
f 302/302/302 301/301/301 323/323/323
f 301/301/301 322/322/322 323/323/323
f 303/303/303 302/302/302 324/324/324
f 302/302/302 323/323/323 324/324/324
f 304/304/304 303/303/303 325/325/325
f 303/303/303 324/324/324 325/325/325
f 305/305/305 304/304/304 326/326/326
f 304/304/304 325/325/325 326/326/326
f 306/306/306 305/305/305 327/327/327
f 305/305/305 326/326/326 327/327/327
f 307/307/307 306/306/306 328/328/328
f 306/306/306 327/327/327 328/328/328
f 308/308/308 307/307/307 329/329/329
f 307/307/307 328/328/328 329/329/329
f 309/309/309 308/308/308 330/330/330
f 308/308/308 329/329/329 330/330/330
f 310/310/310 309/309/309 331/331/331
f 309/309/309 330/330/330 331/331/331
f 311/311/311 310/310/310 332/332/332
f 310/310/310 331/331/331 332/332/332
f 312/312/312 311/311/311 333/333/333
f 311/311/311 332/332/332 333/333/333
f 313/313/313 312/312/312 334/334/334
f 312/312/312 333/333/333 334/334/334
f 314/314/314 313/313/313 335/335/335
f 313/313/313 334/334/334 335/335/335
f 315/315/315 314/314/314 336/336/336
f 314/314/314 335/335/335 336/336/336
f 317/317/317 316/316/316 338/338/338
f 318/318/318 317/317/317 339/339/339
f 319/319/319 318/318/318 340/340/340
f 320/320/320 319/319/319 341/341/341
f 321/321/321 320/320/320 342/342/342
f 322/322/322 321/321/321 343/343/343
f 323/323/323 322/322/322 344/344/344
f 324/324/324 323/323/323 345/345/345
f 325/325/325 324/324/324 346/346/346
f 326/326/326 325/325/325 347/347/347
f 327/327/327 326/326/326 348/348/348
f 328/328/328 327/327/327 349/349/349
f 329/329/329 328/328/328 350/350/350
f 330/330/330 329/329/329 351/351/351
f 331/331/331 330/330/330 352/352/352
f 332/332/332 331/331/331 353/353/353
f 333/333/333 332/332/332 354/354/354
f 334/334/334 333/333/333 355/355/355
f 335/335/335 334/334/334 356/356/356
f 336/336/336 335/335/335 357/357/357
