o shape_015
v -1 0 -1
v 1 2 -1
v 1 0 -1
v 1 0 1
v 1 2 1
v -1 0 1
v -1 0 -1
v 1 0 -1
v -1 0 1
v 1 0 -1
v 1 0 1
v -1 0 1
v 1 0 -1
v 1 2 -1
v 1 0 1
v 1 2 -1
v 1 2 1
v 1 0 1
v 1 2 -1
v -1 0 -1
v 1 2 1
v -1 0 -1
v -1 0 1
v 1 2 1
vt -1 -1
vt 1 1
vt 1 -1
vt 1 -1
vt 1 1
vt -1 -1
vt -1 1
vt 1 1
vt -1 -1
vt 1 1
vt 1 -1
vt -1 -1
vt -1 1
vt 1 1
vt -1 -1
vt 1 1
vt 1 -1
vt -1 -1
vt 1 1
vt -1 1
vt 1 -1
vt -1 1
vt -1 -1
vt 1 -1
vn 0 0 -1
vn 0 0 -1
vn 0 0 -1
vn 0 0 1
vn 0 0 1
vn 0 0 1
vn 0 -1 0
vn 0 -1 0
vn 0 -1 0
vn 0 -1 0
vn 0 -1 0
vn 0 -1 0
vn 1 0 0
vn 1 0 0
vn 1 0 0
vn 1 0 0
vn 1 0 0
vn 1 0 0
vn -0.7071067811865476 0.7071067811865476 0
vn -0.7071067811865476 0.7071067811865476 0
vn -0.7071067811865476 0.7071067811865476 0
vn -0.7071067811865476 0.7071067811865476 0
vn -0.7071067811865476 0.7071067811865476 0
vn -0.7071067811865476 0.7071067811865476 0
f 1/1/1 2/2/2 3/3/3
f 4/4/4 5/5/5 6/6/6
f 7/7/7 8/8/8 9/9/9
f 10/10/10 11/11/11 12/12/12
f 13/13/13 14/14/14 15/15/15
f 16/16/16 17/17/17 18/18/18
f 19/19/19 20/20/20 21/21/21
f 22/22/22 23/23/23 24/24/24
