o shape_019
v 0 0 0.05000000074505806
v 0 0.10000000149011612 0.4000000059604645
v 0 0.4000000059604645 0.800000011920929
v 0 0.8999999761581421 1
v 0 0.8999999761581421 0.8500000238418579
v 0 0.44999998807907104 0.6499999761581421
v 0 0.25 0.30000001192092896
v 0 0.20000000298023224 0.05000000074505806
v 0.009754516184329987 0 0.049039263278245926
v 0.07803612947463989 0.10000000149011612 0.3923141062259674
v 0.15607225894927979 0.4000000059604645 0.7846282124519348
v 0.19509032368659973 0.8999999761581421 0.9807852506637573
v 0.16582676768302917 0.8999999761581421 0.833667516708374
v 0.12680870294570923 0.44999998807907104 0.6375104188919067
v 0.05852709710597992 0.25 0.29423558712005615
v 0.009754516184329987 0.20000000298023224 0.049039263278245926
v 0.019134171307086945 0 0.04619397595524788
v 0.15307337045669556 0.10000000149011612 0.36955180764198303
v 0.3061467409133911 0.4000000059604645 0.7391036152839661
v 0.3826834261417389 0.8999999761581421 0.9238795042037964
v 0.32528090476989746 0.8999999761581421 0.7852976322174072
v 0.24874423444271088 0.44999998807907104 0.6005216836929321
v 0.11480502784252167 0.25 0.27716386318206787
v 0.019134171307086945 0.20000000298023224 0.04619397595524788
v 0.027778511866927147 0 0.041573479771614075
v 0.22222809493541718 0.10000000149011612 0.3325878381729126
v 0.44445618987083435 0.4000000059604645 0.6651756763458252
v 0.5555702447891235 0.8999999761581421 0.8314695954322815
v 0.47223469614982605 0.8999999761581421 0.7067491412162781
v 0.36112064123153687 0.44999998807907104 0.5404552221298218
v 0.16667106747627258 0.25 0.24944087862968445
v 0.027778511866927147 0.20000000298023224 0.041573479771614075
v 0.0353553406894207 0 0.0353553406894207
v 0.2828427255153656 0.10000000149011612 0.2828427255153656
v 0.5656854510307312 0.4000000059604645 0.5656854510307312
v 0.7071067690849304 0.8999999761581421 0.7071067690849304
v 0.601040780544281 0.8999999761581421 0.601040780544281
v 0.459619402885437 0.44999998807907104 0.459619402885437
v 0.2121320366859436 0.25 0.2121320366859436
v 0.0353553406894207 0.20000000298023224 0.0353553406894207
v 0.041573479771614075 0 0.027778511866927147
v 0.3325878381729126 0.10000000149011612 0.22222809493541718
v 0.6651756763458252 0.4000000059604645 0.44445618987083435
v 0.8314695954322815 0.8999999761581421 0.5555702447891235
v 0.7067491412162781 0.8999999761581421 0.47223469614982605
v 0.5404552221298218 0.44999998807907104 0.36112064123153687
v 0.24944087862968445 0.25 0.16667106747627258
v 0.041573479771614075 0.20000000298023224 0.027778511866927147
v 0.04619397595524788 0 0.019134171307086945
v 0.36955180764198303 0.10000000149011612 0.15307337045669556
v 0.7391036152839661 0.4000000059604645 0.3061467409133911
v 0.9238795042037964 0.8999999761581421 0.3826834261417389
v 0.7852976322174072 0.8999999761581421 0.32528090476989746
v 0.6005216836929321 0.44999998807907104 0.24874423444271088
v 0.27716386318206787 0.25 0.11480502784252167
v 0.04619397595524788 0.20000000298023224 0.019134171307086945
v 0.049039263278245926 0 0.009754516184329987
v 0.3923141062259674 0.10000000149011612 0.07803612947463989
v 0.7846282124519348 0.4000000059604645 0.15607225894927979
v 0.9807852506637573 0.8999999761581421 0.19509032368659973
v 0.833667516708374 0.8999999761581421 0.16582676768302917
v 0.6375104188919067 0.44999998807907104 0.12680870294570923
v 0.29423558712005615 0.25 0.05852709710597992
v 0.049039263278245926 0.20000000298023224 0.009754516184329987
v 0.05000000074505806 0 3.0616169246677665e-18
v 0.4000000059604645 0.10000000149011612 2.4492935397342132e-17
v 0.800000011920929 0.4000000059604645 4.8985870794684264e-17
v 1 0.8999999761581421 6.123234262925839e-17
v 0.8500000238418579 0.8999999761581421 5.2047487926147184e-17
v 0.6499999761581421 0.44999998807907104 3.9801019400295505e-17
v 0.30000001192092896 0.25 1.8369702788777518e-17
v 0.05000000074505806 0.20000000298023224 3.0616169246677665e-18
v 0.049039263278245926 0 -0.009754516184329987
v 0.3923141062259674 0.10000000149011612 -0.07803612947463989
v 0.7846282124519348 0.4000000059604645 -0.15607225894927979
v 0.9807852506637573 0.8999999761581421 -0.19509032368659973
v 0.833667516708374 0.8999999761581421 -0.16582676768302917
v 0.6375104188919067 0.44999998807907104 -0.12680870294570923
v 0.29423558712005615 0.25 -0.05852709710597992
v 0.049039263278245926 0.20000000298023224 -0.009754516184329987
v 0.04619397595524788 0 -0.019134171307086945
v 0.36955180764198303 0.10000000149011612 -0.15307337045669556
v 0.7391036152839661 0.4000000059604645 -0.3061467409133911
v 0.9238795042037964 0.8999999761581421 -0.3826834261417389
v 0.7852976322174072 0.8999999761581421 -0.32528090476989746
v 0.6005216836929321 0.44999998807907104 -0.24874423444271088
v 0.27716386318206787 0.25 -0.11480502784252167
v 0.04619397595524788 0.20000000298023224 -0.019134171307086945
v 0.041573479771614075 0 -0.027778511866927147
v 0.3325878381729126 0.10000000149011612 -0.22222809493541718
v 0.6651756763458252 0.4000000059604645 -0.44445618987083435
v 0.8314695954322815 0.8999999761581421 -0.5555702447891235
v 0.7067491412162781 0.8999999761581421 -0.47223469614982605
v 0.5404552221298218 0.44999998807907104 -0.36112064123153687
v 0.24944087862968445 0.25 -0.16667106747627258
v 0.041573479771614075 0.20000000298023224 -0.027778511866927147
v 0.0353553406894207 0 -0.0353553406894207
v 0.2828427255153656 0.10000000149011612 -0.2828427255153656
v 0.5656854510307312 0.4000000059604645 -0.5656854510307312
v 0.7071067690849304 0.8999999761581421 -0.7071067690849304
v 0.601040780544281 0.8999999761581421 -0.601040780544281
v 0.459619402885437 0.44999998807907104 -0.459619402885437
v 0.2121320366859436 0.25 -0.2121320366859436
v 0.0353553406894207 0.20000000298023224 -0.0353553406894207
v 0.027778511866927147 0 -0.041573479771614075
v 0.22222809493541718 0.10000000149011612 -0.3325878381729126
v 0.44445618987083435 0.4000000059604645 -0.6651756763458252
v 0.5555702447891235 0.8999999761581421 -0.8314695954322815
v 0.47223469614982605 0.8999999761581421 -0.7067491412162781
v 0.36112064123153687 0.44999998807907104 -0.5404552221298218
v 0.16667106747627258 0.25 -0.24944087862968445
v 0.027778511866927147 0.20000000298023224 -0.041573479771614075
v 0.019134171307086945 0 -0.04619397595524788
v 0.15307337045669556 0.10000000149011612 -0.36955180764198303
v 0.3061467409133911 0.4000000059604645 -0.7391036152839661
v 0.3826834261417389 0.8999999761581421 -0.9238795042037964
v 0.32528090476989746 0.8999999761581421 -0.7852976322174072
v 0.24874423444271088 0.44999998807907104 -0.6005216836929321
v 0.11480502784252167 0.25 -0.27716386318206787
v 0.019134171307086945 0.20000000298023224 -0.04619397595524788
v 0.009754516184329987 0 -0.049039263278245926
v 0.07803612947463989 0.10000000149011612 -0.3923141062259674
v 0.15607225894927979 0.4000000059604645 -0.7846282124519348
v 0.19509032368659973 0.8999999761581421 -0.9807852506637573
v 0.16582676768302917 0.8999999761581421 -0.833667516708374
v 0.12680870294570923 0.44999998807907104 -0.6375104188919067
v 0.05852709710597992 0.25 -0.29423558712005615
v 0.009754516184329987 0.20000000298023224 -0.049039263278245926
v 6.123233849335533e-18 0 -0.05000000074505806
v 4.8985870794684264e-17 0.10000000149011612 -0.4000000059604645
v 9.797174158936853e-17 0.4000000059604645 -0.800000011920929
v 1.2246468525851679e-16 0.8999999761581421 -1
v 1.0409497585229437e-16 0.8999999761581421 -0.8500000238418579
v 7.960203880059101e-17 0.44999998807907104 -0.6499999761581421
v 3.6739405577555036e-17 0.25 -0.30000001192092896
v 6.123233849335533e-18 0.20000000298023224 -0.05000000074505806
v -0.009754516184329987 0 -0.049039263278245926
v -0.07803612947463989 0.10000000149011612 -0.3923141062259674
v -0.15607225894927979 0.4000000059604645 -0.7846282124519348
v -0.19509032368659973 0.8999999761581421 -0.9807852506637573
v -0.16582676768302917 0.8999999761581421 -0.833667516708374
v -0.12680870294570923 0.44999998807907104 -0.6375104188919067
v -0.05852709710597992 0.25 -0.29423558712005615
v -0.009754516184329987 0.20000000298023224 -0.049039263278245926
v -0.019134171307086945 0 -0.04619397595524788
v -0.15307337045669556 0.10000000149011612 -0.36955180764198303
v -0.3061467409133911 0.4000000059604645 -0.7391036152839661
v -0.3826834261417389 0.8999999761581421 -0.9238795042037964
v -0.32528090476989746 0.8999999761581421 -0.7852976322174072
v -0.24874423444271088 0.44999998807907104 -0.6005216836929321
v -0.11480502784252167 0.25 -0.27716386318206787
v -0.019134171307086945 0.20000000298023224 -0.04619397595524788
v -0.027778511866927147 0 -0.041573479771614075
v -0.22222809493541718 0.10000000149011612 -0.3325878381729126
v -0.44445618987083435 0.4000000059604645 -0.6651756763458252
v -0.5555702447891235 0.8999999761581421 -0.8314695954322815
v -0.47223469614982605 0.8999999761581421 -0.7067491412162781
v -0.36112064123153687 0.44999998807907104 -0.5404552221298218
v -0.16667106747627258 0.25 -0.24944087862968445
v -0.027778511866927147 0.20000000298023224 -0.041573479771614075
v -0.0353553406894207 0 -0.0353553406894207
v -0.2828427255153656 0.10000000149011612 -0.2828427255153656
v -0.5656854510307312 0.4000000059604645 -0.5656854510307312
v -0.7071067690849304 0.8999999761581421 -0.7071067690849304
v -0.601040780544281 0.8999999761581421 -0.601040780544281
v -0.459619402885437 0.44999998807907104 -0.459619402885437
v -0.2121320366859436 0.25 -0.2121320366859436
v -0.0353553406894207 0.20000000298023224 -0.0353553406894207
v -0.041573479771614075 0 -0.027778511866927147
v -0.3325878381729126 0.10000000149011612 -0.22222809493541718
v -0.6651756763458252 0.4000000059604645 -0.44445618987083435
v -0.8314695954322815 0.8999999761581421 -0.5555702447891235
v -0.7067491412162781 0.8999999761581421 -0.47223469614982605
v -0.5404552221298218 0.44999998807907104 -0.36112064123153687
v -0.24944087862968445 0.25 -0.16667106747627258
v -0.041573479771614075 0.20000000298023224 -0.027778511866927147
v -0.04619397595524788 0 -0.019134171307086945
v -0.36955180764198303 0.10000000149011612 -0.15307337045669556
v -0.7391036152839661 0.4000000059604645 -0.3061467409133911
v -0.9238795042037964 0.8999999761581421 -0.3826834261417389
v -0.7852976322174072 0.8999999761581421 -0.32528090476989746
v -0.6005216836929321 0.44999998807907104 -0.24874423444271088
v -0.27716386318206787 0.25 -0.11480502784252167
v -0.04619397595524788 0.20000000298023224 -0.019134171307086945
v -0.049039263278245926 0 -0.009754516184329987
v -0.3923141062259674 0.10000000149011612 -0.07803612947463989
v -0.7846282124519348 0.4000000059604645 -0.15607225894927979
v -0.9807852506637573 0.8999999761581421 -0.19509032368659973
v -0.833667516708374 0.8999999761581421 -0.16582676768302917
v -0.6375104188919067 0.44999998807907104 -0.12680870294570923
v -0.29423558712005615 0.25 -0.05852709710597992
v -0.049039263278245926 0.20000000298023224 -0.009754516184329987
v -0.05000000074505806 0 -9.184851394388759e-18
v -0.4000000059604645 0.10000000149011612 -7.347881115511007e-17
v -0.800000011920929 0.4000000059604645 -1.4695762231022014e-16
v -1 0.8999999761581421 -1.8369701465288538e-16
v -0.8500000238418579 0.8999999761581421 -1.5614246377844155e-16
v -0.6499999761581421 0.44999998807907104 -1.1940305820088652e-16
v -0.30000001192092896 0.25 -5.5109105057610103e-17
v -0.05000000074505806 0.20000000298023224 -9.184851394388759e-18
v -0.049039263278245926 0 0.009754516184329987
v -0.3923141062259674 0.10000000149011612 0.07803612947463989
v -0.7846282124519348 0.4000000059604645 0.15607225894927979
v -0.9807852506637573 0.8999999761581421 0.19509032368659973
v -0.833667516708374 0.8999999761581421 0.16582676768302917
v -0.6375104188919067 0.44999998807907104 0.12680870294570923
v -0.29423558712005615 0.25 0.05852709710597992
v -0.049039263278245926 0.20000000298023224 0.009754516184329987
v -0.04619397595524788 0 0.019134171307086945
v -0.36955180764198303 0.10000000149011612 0.15307337045669556
v -0.7391036152839661 0.4000000059604645 0.3061467409133911
v -0.9238795042037964 0.8999999761581421 0.3826834261417389
v -0.7852976322174072 0.8999999761581421 0.32528090476989746
v -0.6005216836929321 0.44999998807907104 0.24874423444271088
v -0.27716386318206787 0.25 0.11480502784252167
v -0.04619397595524788 0.20000000298023224 0.019134171307086945
v -0.041573479771614075 0 0.027778511866927147
v -0.3325878381729126 0.10000000149011612 0.22222809493541718
v -0.6651756763458252 0.4000000059604645 0.44445618987083435
v -0.8314695954322815 0.8999999761581421 0.5555702447891235
v -0.7067491412162781 0.8999999761581421 0.47223469614982605
v -0.5404552221298218 0.44999998807907104 0.36112064123153687
v -0.24944087862968445 0.25 0.16667106747627258
v -0.041573479771614075 0.20000000298023224 0.027778511866927147
v -0.0353553406894207 0 0.0353553406894207
v -0.2828427255153656 0.10000000149011612 0.2828427255153656
v -0.5656854510307312 0.4000000059604645 0.5656854510307312
v -0.7071067690849304 0.8999999761581421 0.7071067690849304
v -0.601040780544281 0.8999999761581421 0.601040780544281
v -0.459619402885437 0.44999998807907104 0.459619402885437
v -0.2121320366859436 0.25 0.2121320366859436
v -0.0353553406894207 0.20000000298023224 0.0353553406894207
v -0.027778511866927147 0 0.041573479771614075
v -0.22222809493541718 0.10000000149011612 0.3325878381729126
v -0.44445618987083435 0.4000000059604645 0.6651756763458252
v -0.5555702447891235 0.8999999761581421 0.8314695954322815
v -0.47223469614982605 0.8999999761581421 0.7067491412162781
v -0.36112064123153687 0.44999998807907104 0.5404552221298218
v -0.16667106747627258 0.25 0.24944087862968445
v -0.027778511866927147 0.20000000298023224 0.041573479771614075
v -0.019134171307086945 0 0.04619397595524788
v -0.15307337045669556 0.10000000149011612 0.36955180764198303
v -0.3061467409133911 0.4000000059604645 0.7391036152839661
v -0.3826834261417389 0.8999999761581421 0.9238795042037964
v -0.32528090476989746 0.8999999761581421 0.7852976322174072
v -0.24874423444271088 0.44999998807907104 0.6005216836929321
v -0.11480502784252167 0.25 0.27716386318206787
v -0.019134171307086945 0.20000000298023224 0.04619397595524788
v -0.009754516184329987 0 0.049039263278245926
v -0.07803612947463989 0.10000000149011612 0.3923141062259674
v -0.15607225894927979 0.4000000059604645 0.7846282124519348
v -0.19509032368659973 0.8999999761581421 0.9807852506637573
v -0.16582676768302917 0.8999999761581421 0.833667516708374
v -0.12680870294570923 0.44999998807907104 0.6375104188919067
v -0.05852709710597992 0.25 0.29423558712005615
v -0.009754516184329987 0.20000000298023224 0.049039263278245926
v -1.2246467698671066e-17 0 0.05000000074505806
v -9.797174158936853e-17 0.10000000149011612 0.4000000059604645
v -1.9594348317873706e-16 0.4000000059604645 0.800000011920929
v -2.4492937051703357e-16 0.8999999761581421 1
v -2.0818995170458873e-16 0.8999999761581421 0.8500000238418579
v -1.5920407760118202e-16 0.44999998807907104 0.6499999761581421
v -7.347881115511007e-17 0.25 0.30000001192092896
v -1.2246467698671066e-17 0.20000000298023224 0.05000000074505806
vt 0 0
vt 0 0.1428571492433548
vt 0 0.2857142984867096
vt 0 0.4285714328289032
vt 0 0.5714285969734192
vt 0 0.7142857313156128
vt 0 0.8571428656578064
vt 0 1
vt 0.03125 0
vt 0.03125 0.1428571492433548
vt 0.03125 0.2857142984867096
vt 0.03125 0.4285714328289032
vt 0.03125 0.5714285969734192
vt 0.03125 0.7142857313156128
vt 0.03125 0.8571428656578064
vt 0.03125 1
vt 0.0625 0
vt 0.0625 0.1428571492433548
vt 0.0625 0.2857142984867096
vt 0.0625 0.4285714328289032
vt 0.0625 0.5714285969734192
vt 0.0625 0.7142857313156128
vt 0.0625 0.8571428656578064
vt 0.0625 1
vt 0.09375 0
vt 0.09375 0.1428571492433548
vt 0.09375 0.2857142984867096
vt 0.09375 0.4285714328289032
vt 0.09375 0.5714285969734192
vt 0.09375 0.7142857313156128
vt 0.09375 0.8571428656578064
vt 0.09375 1
vt 0.125 0
vt 0.125 0.1428571492433548
vt 0.125 0.2857142984867096
vt 0.125 0.4285714328289032
vt 0.125 0.5714285969734192
vt 0.125 0.7142857313156128
vt 0.125 0.8571428656578064
vt 0.125 1
vt 0.15625 0
vt 0.15625 0.1428571492433548
vt 0.15625 0.2857142984867096
vt 0.15625 0.4285714328289032
vt 0.15625 0.5714285969734192
vt 0.15625 0.7142857313156128
vt 0.15625 0.8571428656578064
vt 0.15625 1
vt 0.1875 0
vt 0.1875 0.1428571492433548
vt 0.1875 0.2857142984867096
vt 0.1875 0.4285714328289032
vt 0.1875 0.5714285969734192
vt 0.1875 0.7142857313156128
vt 0.1875 0.8571428656578064
vt 0.1875 1
vt 0.21875 0
vt 0.21875 0.1428571492433548
vt 0.21875 0.2857142984867096
vt 0.21875 0.4285714328289032
vt 0.21875 0.5714285969734192
vt 0.21875 0.7142857313156128
vt 0.21875 0.8571428656578064
vt 0.21875 1
vt 0.25 0
vt 0.25 0.1428571492433548
vt 0.25 0.2857142984867096
vt 0.25 0.4285714328289032
vt 0.25 0.5714285969734192
vt 0.25 0.7142857313156128
vt 0.25 0.8571428656578064
vt 0.25 1
vt 0.28125 0
vt 0.28125 0.1428571492433548
vt 0.28125 0.2857142984867096
vt 0.28125 0.4285714328289032
vt 0.28125 0.5714285969734192
vt 0.28125 0.7142857313156128
vt 0.28125 0.8571428656578064
vt 0.28125 1
vt 0.3125 0
vt 0.3125 0.1428571492433548
vt 0.3125 0.2857142984867096
vt 0.3125 0.4285714328289032
vt 0.3125 0.5714285969734192
vt 0.3125 0.7142857313156128
vt 0.3125 0.8571428656578064
vt 0.3125 1
vt 0.34375 0
vt 0.34375 0.1428571492433548
vt 0.34375 0.2857142984867096
vt 0.34375 0.4285714328289032
vt 0.34375 0.5714285969734192
vt 0.34375 0.7142857313156128
vt 0.34375 0.8571428656578064
vt 0.34375 1
vt 0.375 0
vt 0.375 0.1428571492433548
vt 0.375 0.2857142984867096
vt 0.375 0.4285714328289032
vt 0.375 0.5714285969734192
vt 0.375 0.7142857313156128
vt 0.375 0.8571428656578064
vt 0.375 1
vt 0.40625 0
vt 0.40625 0.1428571492433548
vt 0.40625 0.2857142984867096
vt 0.40625 0.4285714328289032
vt 0.40625 0.5714285969734192
vt 0.40625 0.7142857313156128
vt 0.40625 0.8571428656578064
vt 0.40625 1
vt 0.4375 0
vt 0.4375 0.1428571492433548
vt 0.4375 0.2857142984867096
vt 0.4375 0.4285714328289032
vt 0.4375 0.5714285969734192
vt 0.4375 0.7142857313156128
vt 0.4375 0.8571428656578064
vt 0.4375 1
vt 0.46875 0
vt 0.46875 0.1428571492433548
vt 0.46875 0.2857142984867096
vt 0.46875 0.4285714328289032
vt 0.46875 0.5714285969734192
vt 0.46875 0.7142857313156128
vt 0.46875 0.8571428656578064
vt 0.46875 1
vt 0.5 0
vt 0.5 0.1428571492433548
vt 0.5 0.2857142984867096
vt 0.5 0.4285714328289032
vt 0.5 0.5714285969734192
vt 0.5 0.7142857313156128
vt 0.5 0.8571428656578064
vt 0.5 1
vt 0.53125 0
vt 0.53125 0.1428571492433548
vt 0.53125 0.2857142984867096
vt 0.53125 0.4285714328289032
vt 0.53125 0.5714285969734192
vt 0.53125 0.7142857313156128
vt 0.53125 0.8571428656578064
vt 0.53125 1
vt 0.5625 0
vt 0.5625 0.1428571492433548
vt 0.5625 0.2857142984867096
vt 0.5625 0.4285714328289032
vt 0.5625 0.5714285969734192
vt 0.5625 0.7142857313156128
vt 0.5625 0.8571428656578064
vt 0.5625 1
vt 0.59375 0
vt 0.59375 0.1428571492433548
vt 0.59375 0.2857142984867096
vt 0.59375 0.4285714328289032
vt 0.59375 0.5714285969734192
vt 0.59375 0.7142857313156128
vt 0.59375 0.8571428656578064
vt 0.59375 1
vt 0.625 0
vt 0.625 0.1428571492433548
vt 0.625 0.2857142984867096
vt 0.625 0.4285714328289032
vt 0.625 0.5714285969734192
vt 0.625 0.7142857313156128
vt 0.625 0.8571428656578064
vt 0.625 1
vt 0.65625 0
vt 0.65625 0.1428571492433548
vt 0.65625 0.2857142984867096
vt 0.65625 0.4285714328289032
vt 0.65625 0.5714285969734192
vt 0.65625 0.7142857313156128
vt 0.65625 0.8571428656578064
vt 0.65625 1
vt 0.6875 0
vt 0.6875 0.1428571492433548
vt 0.6875 0.2857142984867096
vt 0.6875 0.4285714328289032
vt 0.6875 0.5714285969734192
vt 0.6875 0.7142857313156128
vt 0.6875 0.8571428656578064
vt 0.6875 1
vt 0.71875 0
vt 0.71875 0.1428571492433548
vt 0.71875 0.2857142984867096
vt 0.71875 0.4285714328289032
vt 0.71875 0.5714285969734192
vt 0.71875 0.7142857313156128
vt 0.71875 0.8571428656578064
vt 0.71875 1
vt 0.75 0
vt 0.75 0.1428571492433548
vt 0.75 0.2857142984867096
vt 0.75 0.4285714328289032
vt 0.75 0.5714285969734192
vt 0.75 0.7142857313156128
vt 0.75 0.8571428656578064
vt 0.75 1
vt 0.78125 0
vt 0.78125 0.1428571492433548
vt 0.78125 0.2857142984867096
vt 0.78125 0.4285714328289032
vt 0.78125 0.5714285969734192
vt 0.78125 0.7142857313156128
vt 0.78125 0.8571428656578064
vt 0.78125 1
vt 0.8125 0
vt 0.8125 0.1428571492433548
vt 0.8125 0.2857142984867096
vt 0.8125 0.4285714328289032
vt 0.8125 0.5714285969734192
vt 0.8125 0.7142857313156128
vt 0.8125 0.8571428656578064
vt 0.8125 1
vt 0.84375 0
vt 0.84375 0.1428571492433548
vt 0.84375 0.2857142984867096
vt 0.84375 0.4285714328289032
vt 0.84375 0.5714285969734192
vt 0.84375 0.7142857313156128
vt 0.84375 0.8571428656578064
vt 0.84375 1
vt 0.875 0
vt 0.875 0.1428571492433548
vt 0.875 0.2857142984867096
vt 0.875 0.4285714328289032
vt 0.875 0.5714285969734192
vt 0.875 0.7142857313156128
vt 0.875 0.8571428656578064
vt 0.875 1
vt 0.90625 0
vt 0.90625 0.1428571492433548
vt 0.90625 0.2857142984867096
vt 0.90625 0.4285714328289032
vt 0.90625 0.5714285969734192
vt 0.90625 0.7142857313156128
vt 0.90625 0.8571428656578064
vt 0.90625 1
vt 0.9375 0
vt 0.9375 0.1428571492433548
vt 0.9375 0.2857142984867096
vt 0.9375 0.4285714328289032
vt 0.9375 0.5714285969734192
vt 0.9375 0.7142857313156128
vt 0.9375 0.8571428656578064
vt 0.9375 1
vt 0.96875 0
vt 0.96875 0.1428571492433548
vt 0.96875 0.2857142984867096
vt 0.96875 0.4285714328289032
vt 0.96875 0.5714285969734192
vt 0.96875 0.7142857313156128
vt 0.96875 0.8571428656578064
vt 0.96875 1
vt 1 0
vt 1 0.1428571492433548
vt 1 0.2857142984867096
vt 1 0.4285714328289032
vt 1 0.5714285969734192
vt 1 0.7142857313156128
vt 1 0.8571428656578064
vt 1 1
vn 0.027047811100513686 -0.9611721643559997 0.2746206226449031
vn 0.04537090715973062 -0.886417400019265 0.4606578705792289
vn 0.07512440437288899 -0.6423155584038162 0.7627496622745974
vn 0.09547695457057913 -0.22619154906037814 0.9693923531159063
vn -0.06386331496013375 0.7586033972616346 -0.648415270228431
vn -0.0821020220155755 0.546238594225135 -0.833596218897316
vn -0.044219180620186725 0.8924546176894634 -0.44896483095007894
vn -0.019312176605683427 0.9803978078962595 -0.19607951985600108
vn 0.03235767781176894 -0.9612987635863369 0.27360129351669704
vn 0.07994375254758565 -0.8562922345830132 0.5102671902262976
vn 0.14433404739482503 -0.5704831455765391 0.8085274660614354
vn 0.22161241981895133 -0.09418491110943725 0.9705756734543147
vn -0.12969422709951683 0.6373527827675936 -0.7595793821289937
vn -0.17380391378616586 0.6094454638166575 -0.7735427759251006
vn -0.10165778467630023 0.904571108861362 -0.4140251246337993
vn -0.05246330749234584 0.9804778008535691 -0.18950167123356146
vn 0.0851128770153072 -0.9612987617776565 0.2620314652306507
vn 0.17795581784629141 -0.8562922318440642 0.4848663120677376
vn 0.2992965272894927 -0.5704831465512561 0.7648336866622887
vn 0.4067040324515867 -0.0941849635219749 0.9086919294425272
vn -0.2753888311933489 0.6373528110948494 -0.7196821422290917
vn -0.32137516152923695 0.609445452917421 -0.7247718575319659
vn -0.1804767828524078 0.904571106679607 -0.38623728951471753
vn -0.08842520292419755 0.9804777962272301 -0.17562538140373934
vn 0.13459724131948095 -0.9612987597593797 0.24039192397887232
vn 0.26912912644818193 -0.8562922451764433 0.4408322857367917
vn 0.4427571616735364 -0.5704832105398986 0.6917477880549265
vn 0.5761662840715798 -0.0941848103796649 0.8118876982642946
vn -0.41050035053118394 0.6373527691353185 -0.6521279858197441
vn -0.45659586908209504 0.6094454543049919 -0.6481484787949042
vn -0.2523600703929678 0.9045710969040958 -0.34360664358678716
vn -0.12098889666013508 0.9804777992159985 -0.15499991009518418
vn 0.1789090785325848 -0.9612987653219548 0.20951426063422712
vn 0.3499599679793269 -0.856292244001061 0.37985735964376927
vn 0.5692031435831988 -0.5704831533415153 0.5920783335746421
vn 0.723486968942057 -0.09418483940803285 0.6838829006465348
vn -0.5298364923377636 0.6373527844410153 -0.5595129306392297
vn -0.5742700735713748 0.6094454569056557 -0.5466169752737142
vn -0.3145454166466977 0.9045710982966741 -0.2877712789576195
vn -0.14890314496053794 0.9804778005188463 -0.12841781850890735
vn 0.2163456830848325 -0.9612987652832542 0.17058496204369297
vn 0.41734222499012 -0.8562922070719602 0.304284609121341
vn 0.6737748395372307 -0.5704831490206037 0.4696556635345886
vn 0.8430042927182139 -0.09418488365714348 0.5295969884253066
vn -0.6288114110041899 0.6373528160963998 -0.44539600043658706
vn -0.6698753272965663 0.6094453962917008 -0.42407942041340535
vn -0.3646428801816046 0.9045710958124923 -0.22087712093707437
vn -0.17109508583697206 0.9804777967983823 -0.09690078218378513
vn 0.24546812356511302 -0.9612987591224127 0.12510034381700183
vn 0.46868605467796215 -0.856292207281354 0.21701851971579023
vn 0.7524536970727875 -0.5704831573976017 0.3291844481246904
vn 0.930125435792914 -0.09418487011027304 0.3549589890865604
vn -0.7036214531254665 0.6373527104721836 -0.3141629722856716
vn -0.7397375863929466 0.6094454659602752 -0.28524467970148176
vn -0.4007273555035328 0.9045711025686006 -0.1454946973225184
vn -0.18671193529106114 0.9804777999388493 -0.06165984955333899
vn 0.26515737147494134 -0.9612987627206571 0.07480813554844257
vn 0.5020185585926278 -0.8562922267796148 0.12141247541084417
vn 0.8022161911190074 -0.5704831615389103 0.17606290099587027
vn 0.9815023709782494 -0.09418495160940075 0.16668020474672357
vn -0.7513916496326413 0.6373528245388982 -0.17085656532491336
vn -0.7811721992845331 0.6094454993018252 -0.13544806549269953
vn -0.4214120788912767 0.9045711124608834 -0.06452102189063876
vn -0.1951535619484811 0.9804777985201845 -0.024049404729280185
vn 0.2746568011103975 -0.9612987591829077 0.02164109972264078
vn 0.5160587956577397 -0.856292236245222 0.021140614239898887
vn 0.8211500081511399 -0.5704831503818704 0.016175266420032346
vn 0.9951607723390477 -0.09418491405139391 -0.028004270436517785
vn -0.7702863281552295 0.6373528296019609 -0.020984357400404014
vn -0.7925868473067107 0.6094454405915833 0.019553629293294805
vn -0.42590221153775054 0.9045711030386017 0.01893213550502603
vn -0.19609553902313498 0.9804777994238021 0.014485317127517395
vn 0.27360129351669704 -0.9612987635863369 -0.03235767781176894
vn 0.5102671902262976 -0.8562922345830132 -0.07994375254758565
vn 0.8085274660614354 -0.5704831455765391 -0.14433404739482503
vn 0.9705756734543147 -0.09418491110943725 -0.22161241981895133
vn -0.7595793821289937 0.6373527827675936 0.12969422709951683
vn -0.7735427759251006 0.6094454638166575 0.17380391378616586
vn -0.4140251246337993 0.904571108861362 0.10165778467630023
vn -0.18950167123356146 0.9804778008535691 0.05246330749234584
vn 0.2620314652306507 -0.9612987617776565 -0.0851128770153072
vn 0.4848663120677376 -0.8562922318440642 -0.17795581784629141
vn 0.7648336866622887 -0.5704831465512561 -0.2992965272894927
vn 0.9086919294425272 -0.0941849635219749 -0.4067040324515867
vn -0.7196821422290917 0.6373528110948494 0.2753888311933489
vn -0.7247718575319659 0.609445452917421 0.32137516152923695
vn -0.38623728951471753 0.904571106679607 0.1804767828524078
vn -0.17562538140373934 0.9804777962272301 0.08842520292419755
vn 0.24039192397887232 -0.9612987597593797 -0.13459724131948095
vn 0.4408322857367917 -0.8562922451764433 -0.26912912644818193
vn 0.6917477880549265 -0.5704832105398986 -0.4427571616735364
vn 0.8118876982642946 -0.0941848103796649 -0.5761662840715798
vn -0.6521279858197441 0.6373527691353185 0.41050035053118394
vn -0.6481484787949042 0.6094454543049919 0.45659586908209504
vn -0.34360664358678716 0.9045710969040958 0.2523600703929678
vn -0.15499991009518418 0.9804777992159985 0.12098889666013508
vn 0.20951426063422712 -0.9612987653219548 -0.1789090785325848
vn 0.37985735964376927 -0.856292244001061 -0.3499599679793269
vn 0.5920783335746421 -0.5704831533415153 -0.5692031435831988
vn 0.6838829006465348 -0.09418483940803285 -0.723486968942057
vn -0.5595129306392297 0.6373527844410153 0.5298364923377636
vn -0.5466169752737142 0.6094454569056557 0.5742700735713748
vn -0.2877712789576195 0.9045710982966741 0.3145454166466977
vn -0.12841781850890735 0.9804778005188463 0.14890314496053794
vn 0.17058496204369297 -0.9612987652832542 -0.2163456830848325
vn 0.304284609121341 -0.8562922070719602 -0.41734222499012
vn 0.4696556635345886 -0.5704831490206037 -0.6737748395372307
vn 0.5295969884253066 -0.09418488365714348 -0.8430042927182139
vn -0.44539600043658706 0.6373528160963998 0.6288114110041899
vn -0.42407942041340535 0.6094453962917008 0.6698753272965663
vn -0.22087712093707437 0.9045710958124923 0.3646428801816046
vn -0.09690078218378513 0.9804777967983823 0.17109508583697206
vn 0.12510034381700183 -0.9612987591224127 -0.24546812356511302
vn 0.21701851971579023 -0.856292207281354 -0.46868605467796215
vn 0.3291844481246904 -0.5704831573976017 -0.7524536970727875
vn 0.3549589890865604 -0.09418487011027304 -0.930125435792914
vn -0.3141629722856716 0.6373527104721836 0.7036214531254665
vn -0.28524467970148176 0.6094454659602752 0.7397375863929466
vn -0.1454946973225184 0.9045711025686006 0.4007273555035328
vn -0.06165984955333899 0.9804777999388493 0.18671193529106114
vn 0.07480813554844257 -0.9612987627206571 -0.26515737147494134
vn 0.12141247541084417 -0.8562922267796148 -0.5020185585926278
vn 0.17606290099587027 -0.5704831615389103 -0.8022161911190074
vn 0.16668020474672357 -0.09418495160940075 -0.9815023709782494
vn -0.17085656532491336 0.6373528245388982 0.7513916496326413
vn -0.13544806549269953 0.6094454993018252 0.7811721992845331
vn -0.06452102189063876 0.9045711124608834 0.4214120788912767
vn -0.024049404729280185 0.9804777985201845 0.1951535619484811
vn 0.02164109972264078 -0.9612987591829077 -0.2746568011103975
vn 0.021140614239898887 -0.856292236245222 -0.5160587956577397
vn 0.016175266420032346 -0.5704831503818704 -0.8211500081511399
vn -0.028004270436517785 -0.09418491405139391 -0.9951607723390477
vn -0.020984357400404014 0.6373528296019609 0.7702863281552295
vn 0.01955362929329481 0.6094454405915835 0.7925868473067108
vn 0.01893213550502603 0.9045711030386017 0.42590221153775054
vn 0.014485317127517395 0.9804777994238021 0.19609553902313498
vn -0.03235767781176894 -0.9612987635863369 -0.27360129351669704
vn -0.07994375254758565 -0.8562922345830132 -0.5102671902262976
vn -0.14433404739482503 -0.5704831455765391 -0.8085274660614354
vn -0.22161241981895133 -0.09418491110943725 -0.9705756734543147
vn 0.12969422709951683 0.6373527827675936 0.7595793821289937
vn 0.17380391378616586 0.6094454638166575 0.7735427759251006
vn 0.10165778467630023 0.904571108861362 0.4140251246337993
vn 0.05246330749234584 0.9804778008535691 0.18950167123356146
vn -0.0851128770153072 -0.9612987617776565 -0.2620314652306507
vn -0.17795581784629141 -0.8562922318440642 -0.4848663120677376
vn -0.2992965272894927 -0.5704831465512561 -0.7648336866622887
vn -0.4067040324515867 -0.0941849635219749 -0.9086919294425272
vn 0.2753888311933489 0.6373528110948494 0.7196821422290917
vn 0.32137516152923695 0.609445452917421 0.7247718575319659
vn 0.1804767828524078 0.904571106679607 0.38623728951471753
vn 0.08842520292419755 0.9804777962272301 0.17562538140373934
vn -0.13459724131948095 -0.9612987597593797 -0.24039192397887232
vn -0.26912912644818193 -0.8562922451764433 -0.4408322857367917
vn -0.4427571616735364 -0.5704832105398986 -0.6917477880549265
vn -0.5761662840715798 -0.0941848103796649 -0.8118876982642946
vn 0.41050035053118394 0.6373527691353185 0.6521279858197441
vn 0.45659586908209504 0.6094454543049919 0.6481484787949042
vn 0.2523600703929678 0.9045710969040958 0.34360664358678716
vn 0.12098889666013508 0.9804777992159985 0.15499991009518418
vn -0.1789090785325848 -0.9612987653219548 -0.20951426063422712
vn -0.3499599679793269 -0.856292244001061 -0.37985735964376927
vn -0.5692031435831988 -0.5704831533415153 -0.5920783335746421
vn -0.723486968942057 -0.09418483940803285 -0.6838829006465348
vn 0.5298364923377636 0.6373527844410153 0.5595129306392297
vn 0.5742700735713748 0.6094454569056557 0.5466169752737142
vn 0.3145454166466977 0.9045710982966741 0.2877712789576195
vn 0.14890314496053794 0.9804778005188463 0.12841781850890735
vn -0.2163456830848325 -0.9612987652832542 -0.17058496204369297
vn -0.41734222499012 -0.8562922070719602 -0.304284609121341
vn -0.6737748395372307 -0.5704831490206037 -0.4696556635345886
vn -0.8430042927182139 -0.09418488365714348 -0.5295969884253066
vn 0.6288114110041899 0.6373528160963998 0.44539600043658706
vn 0.6698753272965663 0.6094453962917008 0.42407942041340535
vn 0.3646428801816046 0.9045710958124923 0.22087712093707437
vn 0.17109508583697206 0.9804777967983823 0.09690078218378513
vn -0.24546812356511302 -0.9612987591224127 -0.12510034381700183
vn -0.46868605467796215 -0.856292207281354 -0.21701851971579023
vn -0.7524536970727875 -0.5704831573976017 -0.3291844481246904
vn -0.930125435792914 -0.09418487011027304 -0.3549589890865604
vn 0.7036214531254665 0.6373527104721836 0.3141629722856716
vn 0.7397375863929466 0.6094454659602752 0.28524467970148176
vn 0.4007273555035328 0.9045711025686006 0.1454946973225184
vn 0.18671193529106114 0.9804777999388493 0.06165984955333899
vn -0.26515737147494134 -0.9612987627206571 -0.07480813554844257
vn -0.5020185585926278 -0.8562922267796148 -0.12141247541084417
vn -0.8022161911190074 -0.5704831615389103 -0.17606290099587027
vn -0.9815023709782494 -0.09418495160940075 -0.16668020474672357
vn 0.7513916496326413 0.6373528245388982 0.17085656532491336
vn 0.7811721992845331 0.6094454993018252 0.13544806549269953
vn 0.4214120788912767 0.9045711124608834 0.06452102189063876
vn 0.1951535619484811 0.9804777985201845 0.024049404729280185
vn -0.2746568011103975 -0.9612987591829077 -0.02164109972264078
vn -0.5160587956577397 -0.856292236245222 -0.021140614239898887
vn -0.8211500081511399 -0.5704831503818704 -0.016175266420032346
vn -0.9951607723390477 -0.09418491405139391 0.028004270436517785
vn 0.7702863281552295 0.6373528296019609 0.020984357400404014
vn 0.7925868473067107 0.6094454405915833 -0.019553629293294805
vn 0.42590221153775054 0.9045711030386017 -0.01893213550502603
vn 0.19609553902313498 0.9804777994238021 -0.014485317127517395
vn -0.27360129351669704 -0.9612987635863369 0.03235767781176894
vn -0.5102671902262976 -0.8562922345830132 0.07994375254758565
vn -0.8085274660614354 -0.5704831455765391 0.14433404739482503
vn -0.9705756734543147 -0.09418491110943725 0.22161241981895133
vn 0.7595793821289937 0.6373527827675936 -0.12969422709951683
vn 0.7735427759251006 0.6094454638166575 -0.17380391378616586
vn 0.4140251246337993 0.904571108861362 -0.10165778467630023
vn 0.18950167123356146 0.9804778008535691 -0.05246330749234584
vn -0.2620314652306507 -0.9612987617776565 0.0851128770153072
vn -0.4848663120677376 -0.8562922318440642 0.17795581784629141
vn -0.7648336866622887 -0.5704831465512561 0.2992965272894927
vn -0.9086919294425272 -0.0941849635219749 0.4067040324515867
vn 0.7196821422290917 0.6373528110948494 -0.2753888311933489
vn 0.7247718575319659 0.609445452917421 -0.32137516152923695
vn 0.38623728951471753 0.904571106679607 -0.1804767828524078
vn 0.17562538140373934 0.9804777962272301 -0.08842520292419755
vn -0.24039192397887232 -0.9612987597593797 0.13459724131948095
vn -0.4408322857367917 -0.8562922451764433 0.26912912644818193
vn -0.6917477880549265 -0.5704832105398986 0.4427571616735364
vn -0.8118876982642946 -0.0941848103796649 0.5761662840715798
vn 0.6521279858197441 0.6373527691353185 -0.41050035053118394
vn 0.6481484787949042 0.6094454543049919 -0.45659586908209504
vn 0.34360664358678716 0.9045710969040958 -0.2523600703929678
vn 0.15499991009518418 0.9804777992159985 -0.12098889666013508
vn -0.20951426063422712 -0.9612987653219548 0.1789090785325848
vn -0.37985735964376927 -0.856292244001061 0.3499599679793269
vn -0.5920783335746421 -0.5704831533415153 0.5692031435831988
vn -0.6838829006465348 -0.09418483940803285 0.723486968942057
vn 0.5595129306392297 0.6373527844410153 -0.5298364923377636
vn 0.5466169752737142 0.6094454569056557 -0.5742700735713748
vn 0.2877712789576195 0.9045710982966741 -0.3145454166466977
vn 0.12841781850890735 0.9804778005188463 -0.14890314496053794
vn -0.17058496204369297 -0.9612987652832542 0.2163456830848325
vn -0.304284609121341 -0.8562922070719602 0.41734222499012
vn -0.4696556635345886 -0.5704831490206037 0.6737748395372307
vn -0.5295969884253066 -0.09418488365714348 0.8430042927182139
vn 0.44539600043658706 0.6373528160963998 -0.6288114110041899
vn 0.42407942041340535 0.6094453962917008 -0.6698753272965663
vn 0.22087712093707437 0.9045710958124923 -0.3646428801816046
vn 0.09690078218378513 0.9804777967983823 -0.17109508583697206
vn -0.12510034381700183 -0.9612987591224127 0.24546812356511302
vn -0.21701851971579023 -0.856292207281354 0.46868605467796215
vn -0.3291844481246904 -0.5704831573976017 0.7524536970727875
vn -0.3549589890865604 -0.09418487011027304 0.930125435792914
vn 0.3141629722856716 0.6373527104721836 -0.7036214531254665
vn 0.28524467970148176 0.6094454659602752 -0.7397375863929466
vn 0.1454946973225184 0.9045711025686006 -0.4007273555035328
vn 0.06165984955333899 0.9804777999388493 -0.18671193529106114
vn -0.07480813554844257 -0.9612987627206571 0.26515737147494134
vn -0.12141247541084417 -0.8562922267796148 0.5020185585926278
vn -0.17606290099587027 -0.5704831615389103 0.8022161911190074
vn -0.16668020474672357 -0.09418495160940075 0.9815023709782494
vn 0.17085656532491336 0.6373528245388982 -0.7513916496326413
vn 0.13544806549269953 0.6094454993018252 -0.7811721992845331
vn 0.06452102189063876 0.9045711124608834 -0.4214120788912767
vn 0.024049404729280185 0.9804777985201845 -0.1951535619484811
vn -0.027047811100513686 -0.9611721643559997 0.2746206226449031
vn -0.053318964748831035 -0.8391013516251026 0.5413557145713335
vn -0.08428547757965543 -0.5104554432774402 0.8557635179753817
vn -0.09687157822342705 0.15245047372192422 0.9835521086320048
vn 0.08292081996025376 0.5332095055218637 -0.8419095918435949
vn 0.07092288028325082 0.6902440681099703 -0.720092404828246
vn 0.036758474231948286 0.9270165963561218 -0.37321447540583197
vn 0.019312178354780725 0.9803978021319154 -0.19607954850545434
f 1/1/1 9/9/9 2/2/2
f 10/10/10 2/2/2 9/9/9
f 2/2/2 10/10/10 3/3/3
f 11/11/11 3/3/3 10/10/10
f 3/3/3 11/11/11 4/4/4
f 12/12/12 4/4/4 11/11/11
f 4/4/4 12/12/12 5/5/5
f 13/13/13 5/5/5 12/12/12
f 5/5/5 13/13/13 6/6/6
f 14/14/14 6/6/6 13/13/13
f 6/6/6 14/14/14 7/7/7
f 15/15/15 7/7/7 14/14/14
f 7/7/7 15/15/15 8/8/8
f 16/16/16 8/8/8 15/15/15
f 9/9/9 17/17/17 10/10/10
f 18/18/18 10/10/10 17/17/17
f 10/10/10 18/18/18 11/11/11
f 19/19/19 11/11/11 18/18/18
f 11/11/11 19/19/19 12/12/12
f 20/20/20 12/12/12 19/19/19
f 12/12/12 20/20/20 13/13/13
f 21/21/21 13/13/13 20/20/20
f 13/13/13 21/21/21 14/14/14
f 22/22/22 14/14/14 21/21/21
f 14/14/14 22/22/22 15/15/15
f 23/23/23 15/15/15 22/22/22
f 15/15/15 23/23/23 16/16/16
f 24/24/24 16/16/16 23/23/23
f 17/17/17 25/25/25 18/18/18
f 26/26/26 18/18/18 25/25/25
f 18/18/18 26/26/26 19/19/19
f 27/27/27 19/19/19 26/26/26
f 19/19/19 27/27/27 20/20/20
f 28/28/28 20/20/20 27/27/27
f 20/20/20 28/28/28 21/21/21
f 29/29/29 21/21/21 28/28/28
f 21/21/21 29/29/29 22/22/22
f 30/30/30 22/22/22 29/29/29
f 22/22/22 30/30/30 23/23/23
f 31/31/31 23/23/23 30/30/30
f 23/23/23 31/31/31 24/24/24
f 32/32/32 24/24/24 31/31/31
f 25/25/25 33/33/33 26/26/26
f 34/34/34 26/26/26 33/33/33
f 26/26/26 34/34/34 27/27/27
f 35/35/35 27/27/27 34/34/34
f 27/27/27 35/35/35 28/28/28
f 36/36/36 28/28/28 35/35/35
f 28/28/28 36/36/36 29/29/29
f 37/37/37 29/29/29 36/36/36
f 29/29/29 37/37/37 30/30/30
f 38/38/38 30/30/30 37/37/37
f 30/30/30 38/38/38 31/31/31
f 39/39/39 31/31/31 38/38/38
f 31/31/31 39/39/39 32/32/32
f 40/40/40 32/32/32 39/39/39
f 33/33/33 41/41/41 34/34/34
f 42/42/42 34/34/34 41/41/41
f 34/34/34 42/42/42 35/35/35
f 43/43/43 35/35/35 42/42/42
f 35/35/35 43/43/43 36/36/36
f 44/44/44 36/36/36 43/43/43
f 36/36/36 44/44/44 37/37/37
f 45/45/45 37/37/37 44/44/44
f 37/37/37 45/45/45 38/38/38
f 46/46/46 38/38/38 45/45/45
f 38/38/38 46/46/46 39/39/39
f 47/47/47 39/39/39 46/46/46
f 39/39/39 47/47/47 40/40/40
f 48/48/48 40/40/40 47/47/47
f 41/41/41 49/49/49 42/42/42
f 50/50/50 42/42/42 49/49/49
f 42/42/42 50/50/50 43/43/43
f 51/51/51 43/43/43 50/50/50
f 43/43/43 51/51/51 44/44/44
f 52/52/52 44/44/44 51/51/51
f 44/44/44 52/52/52 45/45/45
f 53/53/53 45/45/45 52/52/52
f 45/45/45 53/53/53 46/46/46
f 54/54/54 46/46/46 53/53/53
f 46/46/46 54/54/54 47/47/47
f 55/55/55 47/47/47 54/54/54
f 47/47/47 55/55/55 48/48/48
f 56/56/56 48/48/48 55/55/55
f 49/49/49 57/57/57 50/50/50
f 58/58/58 50/50/50 57/57/57
f 50/50/50 58/58/58 51/51/51
f 59/59/59 51/51/51 58/58/58
f 51/51/51 59/59/59 52/52/52
f 60/60/60 52/52/52 59/59/59
f 52/52/52 60/60/60 53/53/53
f 61/61/61 53/53/53 60/60/60
f 53/53/53 61/61/61 54/54/54
f 62/62/62 54/54/54 61/61/61
f 54/54/54 62/62/62 55/55/55
f 63/63/63 55/55/55 62/62/62
f 55/55/55 63/63/63 56/56/56
f 64/64/64 56/56/56 63/63/63
f 57/57/57 65/65/65 58/58/58
f 66/66/66 58/58/58 65/65/65
f 58/58/58 66/66/66 59/59/59
f 67/67/67 59/59/59 66/66/66
f 59/59/59 67/67/67 60/60/60
f 68/68/68 60/60/60 67/67/67
f 60/60/60 68/68/68 61/61/61
f 69/69/69 61/61/61 68/68/68
f 61/61/61 69/69/69 62/62/62
f 70/70/70 62/62/62 69/69/69
f 62/62/62 70/70/70 63/63/63
f 71/71/71 63/63/63 70/70/70
f 63/63/63 71/71/71 64/64/64
f 72/72/72 64/64/64 71/71/71
f 65/65/65 73/73/73 66/66/66
f 74/74/74 66/66/66 73/73/73
f 66/66/66 74/74/74 67/67/67
f 75/75/75 67/67/67 74/74/74
f 67/67/67 75/75/75 68/68/68
f 76/76/76 68/68/68 75/75/75
f 68/68/68 76/76/76 69/69/69
f 77/77/77 69/69/69 76/76/76
f 69/69/69 77/77/77 70/70/70
f 78/78/78 70/70/70 77/77/77
f 70/70/70 78/78/78 71/71/71
f 79/79/79 71/71/71 78/78/78
f 71/71/71 79/79/79 72/72/72
f 80/80/80 72/72/72 79/79/79
f 73/73/73 81/81/81 74/74/74
f 82/82/82 74/74/74 81/81/81
f 74/74/74 82/82/82 75/75/75
f 83/83/83 75/75/75 82/82/82
f 75/75/75 83/83/83 76/76/76
f 84/84/84 76/76/76 83/83/83
f 76/76/76 84/84/84 77/77/77
f 85/85/85 77/77/77 84/84/84
f 77/77/77 85/85/85 78/78/78
f 86/86/86 78/78/78 85/85/85
f 78/78/78 86/86/86 79/79/79
f 87/87/87 79/79/79 86/86/86
f 79/79/79 87/87/87 80/80/80
f 88/88/88 80/80/80 87/87/87
f 81/81/81 89/89/89 82/82/82
f 90/90/90 82/82/82 89/89/89
f 82/82/82 90/90/90 83/83/83
f 91/91/91 83/83/83 90/90/90
f 83/83/83 91/91/91 84/84/84
f 92/92/92 84/84/84 91/91/91
f 84/84/84 92/92/92 85/85/85
f 93/93/93 85/85/85 92/92/92
f 85/85/85 93/93/93 86/86/86
f 94/94/94 86/86/86 93/93/93
f 86/86/86 94/94/94 87/87/87
f 95/95/95 87/87/87 94/94/94
f 87/87/87 95/95/95 88/88/88
f 96/96/96 88/88/88 95/95/95
f 89/89/89 97/97/97 90/90/90
f 98/98/98 90/90/90 97/97/97
f 90/90/90 98/98/98 91/91/91
f 99/99/99 91/91/91 98/98/98
f 91/91/91 99/99/99 92/92/92
f 100/100/100 92/92/92 99/99/99
f 92/92/92 100/100/100 93/93/93
f 101/101/101 93/93/93 100/100/100
f 93/93/93 101/101/101 94/94/94
f 102/102/102 94/94/94 101/101/101
f 94/94/94 102/102/102 95/95/95
f 103/103/103 95/95/95 102/102/102
f 95/95/95 103/103/103 96/96/96
f 104/104/104 96/96/96 103/103/103
f 97/97/97 105/105/105 98/98/98
f 106/106/106 98/98/98 105/105/105
f 98/98/98 106/106/106 99/99/99
f 107/107/107 99/99/99 106/106/106
f 99/99/99 107/107/107 100/100/100
f 108/108/108 100/100/100 107/107/107
f 100/100/100 108/108/108 101/101/101
f 109/109/109 101/101/101 108/108/108
f 101/101/101 109/109/109 102/102/102
f 110/110/110 102/102/102 109/109/109
f 102/102/102 110/110/110 103/103/103
f 111/111/111 103/103/103 110/110/110
f 103/103/103 111/111/111 104/104/104
f 112/112/112 104/104/104 111/111/111
f 105/105/105 113/113/113 106/106/106
f 114/114/114 106/106/106 113/113/113
f 106/106/106 114/114/114 107/107/107
f 115/115/115 107/107/107 114/114/114
f 107/107/107 115/115/115 108/108/108
f 116/116/116 108/108/108 115/115/115
f 108/108/108 116/116/116 109/109/109
f 117/117/117 109/109/109 116/116/116
f 109/109/109 117/117/117 110/110/110
f 118/118/118 110/110/110 117/117/117
f 110/110/110 118/118/118 111/111/111
f 119/119/119 111/111/111 118/118/118
f 111/111/111 119/119/119 112/112/112
f 120/120/120 112/112/112 119/119/119
f 113/113/113 121/121/121 114/114/114
f 122/122/122 114/114/114 121/121/121
f 114/114/114 122/122/122 115/115/115
f 123/123/123 115/115/115 122/122/122
f 115/115/115 123/123/123 116/116/116
f 124/124/124 116/116/116 123/123/123
f 116/116/116 124/124/124 117/117/117
f 125/125/125 117/117/117 124/124/124
f 117/117/117 125/125/125 118/118/118
f 126/126/126 118/118/118 125/125/125
f 118/118/118 126/126/126 119/119/119
f 127/127/127 119/119/119 126/126/126
f 119/119/119 127/127/127 120/120/120
f 128/128/128 120/120/120 127/127/127
f 121/121/121 129/129/129 122/122/122
f 130/130/130 122/122/122 129/129/129
f 122/122/122 130/130/130 123/123/123
f 131/131/131 123/123/123 130/130/130
f 123/123/123 131/131/131 124/124/124
f 132/132/132 124/124/124 131/131/131
f 124/124/124 132/132/132 125/125/125
f 133/133/133 125/125/125 132/132/132
f 125/125/125 133/133/133 126/126/126
f 134/134/134 126/126/126 133/133/133
f 126/126/126 134/134/134 127/127/127
f 135/135/135 127/127/127 134/134/134
f 127/127/127 135/135/135 128/128/128
f 136/136/136 128/128/128 135/135/135
f 129/129/129 137/137/137 130/130/130
f 138/138/138 130/130/130 137/137/137
f 130/130/130 138/138/138 131/131/131
f 139/139/139 131/131/131 138/138/138
f 131/131/131 139/139/139 132/132/132
f 140/140/140 132/132/132 139/139/139
f 132/132/132 140/140/140 133/133/133
f 141/141/141 133/133/133 140/140/140
f 133/133/133 141/141/141 134/134/134
f 142/142/142 134/134/134 141/141/141
f 134/134/134 142/142/142 135/135/135
f 143/143/143 135/135/135 142/142/142
f 135/135/135 143/143/143 136/136/136
f 144/144/144 136/136/136 143/143/143
f 137/137/137 145/145/145 138/138/138
f 146/146/146 138/138/138 145/145/145
f 138/138/138 146/146/146 139/139/139
f 147/147/147 139/139/139 146/146/146
f 139/139/139 147/147/147 140/140/140
f 148/148/148 140/140/140 147/147/147
f 140/140/140 148/148/148 141/141/141
f 149/149/149 141/141/141 148/148/148
f 141/141/141 149/149/149 142/142/142
f 150/150/150 142/142/142 149/149/149
f 142/142/142 150/150/150 143/143/143
f 151/151/151 143/143/143 150/150/150
f 143/143/143 151/151/151 144/144/144
f 152/152/152 144/144/144 151/151/151
f 145/145/145 153/153/153 146/146/146
f 154/154/154 146/146/146 153/153/153
f 146/146/146 154/154/154 147/147/147
f 155/155/155 147/147/147 154/154/154
f 147/147/147 155/155/155 148/148/148
f 156/156/156 148/148/148 155/155/155
f 148/148/148 156/156/156 149/149/149
f 157/157/157 149/149/149 156/156/156
f 149/149/149 157/157/157 150/150/150
f 158/158/158 150/150/150 157/157/157
f 150/150/150 158/158/158 151/151/151
f 159/159/159 151/151/151 158/158/158
f 151/151/151 159/159/159 152/152/152
f 160/160/160 152/152/152 159/159/159
f 153/153/153 161/161/161 154/154/154
f 162/162/162 154/154/154 161/161/161
f 154/154/154 162/162/162 155/155/155
f 163/163/163 155/155/155 162/162/162
f 155/155/155 163/163/163 156/156/156
f 164/164/164 156/156/156 163/163/163
f 156/156/156 164/164/164 157/157/157
f 165/165/165 157/157/157 164/164/164
f 157/157/157 165/165/165 158/158/158
f 166/166/166 158/158/158 165/165/165
f 158/158/158 166/166/166 159/159/159
f 167/167/167 159/159/159 166/166/166
f 159/159/159 167/167/167 160/160/160
f 168/168/168 160/160/160 167/167/167
f 161/161/161 169/169/169 162/162/162
f 170/170/170 162/162/162 169/169/169
f 162/162/162 170/170/170 163/163/163
f 171/171/171 163/163/163 170/170/170
f 163/163/163 171/171/171 164/164/164
f 172/172/172 164/164/164 171/171/171
f 164/164/164 172/172/172 165/165/165
f 173/173/173 165/165/165 172/172/172
f 165/165/165 173/173/173 166/166/166
f 174/174/174 166/166/166 173/173/173
f 166/166/166 174/174/174 167/167/167
f 175/175/175 167/167/167 174/174/174
f 167/167/167 175/175/175 168/168/168
f 176/176/176 168/168/168 175/175/175
f 169/169/169 177/177/177 170/170/170
f 178/178/178 170/170/170 177/177/177
f 170/170/170 178/178/178 171/171/171
f 179/179/179 171/171/171 178/178/178
f 171/171/171 179/179/179 172/172/172
f 180/180/180 172/172/172 179/179/179
f 172/172/172 180/180/180 173/173/173
f 181/181/181 173/173/173 180/180/180
f 173/173/173 181/181/181 174/174/174
f 182/182/182 174/174/174 181/181/181
f 174/174/174 182/182/182 175/175/175
f 183/183/183 175/175/175 182/182/182
f 175/175/175 183/183/183 176/176/176
f 184/184/184 176/176/176 183/183/183
f 177/177/177 185/185/185 178/178/178
f 186/186/186 178/178/178 185/185/185
f 178/178/178 186/186/186 179/179/179
f 187/187/187 179/179/179 186/186/186
f 179/179/179 187/187/187 180/180/180
f 188/188/188 180/180/180 187/187/187
f 180/180/180 188/188/188 181/181/181
f 189/189/189 181/181/181 188/188/188
f 181/181/181 189/189/189 182/182/182
f 190/190/190 182/182/182 189/189/189
f 182/182/182 190/190/190 183/183/183
f 191/191/191 183/183/183 190/190/190
f 183/183/183 191/191/191 184/184/184
f 192/192/192 184/184/184 191/191/191
f 185/185/185 193/193/193 186/186/186
f 194/194/194 186/186/186 193/193/193
f 186/186/186 194/194/194 187/187/187
f 195/195/195 187/187/187 194/194/194
f 187/187/187 195/195/195 188/188/188
f 196/196/196 188/188/188 195/195/195
f 188/188/188 196/196/196 189/189/189
f 197/197/197 189/189/189 196/196/196
f 189/189/189 197/197/197 190/190/190
f 198/198/198 190/190/190 197/197/197
f 190/190/190 198/198/198 191/191/191
f 199/199/199 191/191/191 198/198/198
f 191/191/191 199/199/199 192/192/192
f 200/200/200 192/192/192 199/199/199
f 193/193/193 201/201/201 194/194/194
f 202/202/202 194/194/194 201/201/201
f 194/194/194 202/202/202 195/195/195
f 203/203/203 195/195/195 202/202/202
f 195/195/195 203/203/203 196/196/196
f 204/204/204 196/196/196 203/203/203
f 196/196/196 204/204/204 197/197/197
f 205/205/205 197/197/197 204/204/204
f 197/197/197 205/205/205 198/198/198
f 206/206/206 198/198/198 205/205/205
f 198/198/198 206/206/206 199/199/199
f 207/207/207 199/199/199 206/206/206
f 199/199/199 207/207/207 200/200/200
f 208/208/208 200/200/200 207/207/207
f 201/201/201 209/209/209 202/202/202
f 210/210/210 202/202/202 209/209/209
f 202/202/202 210/210/210 203/203/203
f 211/211/211 203/203/203 210/210/210
f 203/203/203 211/211/211 204/204/204
f 212/212/212 204/204/204 211/211/211
f 204/204/204 212/212/212 205/205/205
f 213/213/213 205/205/205 212/212/212
f 205/205/205 213/213/213 206/206/206
f 214/214/214 206/206/206 213/213/213
f 206/206/206 214/214/214 207/207/207
f 215/215/215 207/207/207 214/214/214
f 207/207/207 215/215/215 208/208/208
f 216/216/216 208/208/208 215/215/215
f 209/209/209 217/217/217 210/210/210
f 218/218/218 210/210/210 217/217/217
f 210/210/210 218/218/218 211/211/211
f 219/219/219 211/211/211 218/218/218
f 211/211/211 219/219/219 212/212/212
f 220/220/220 212/212/212 219/219/219
f 212/212/212 220/220/220 213/213/213
f 221/221/221 213/213/213 220/220/220
f 213/213/213 221/221/221 214/214/214
f 222/222/222 214/214/214 221/221/221
f 214/214/214 222/222/222 215/215/215
f 223/223/223 215/215/215 222/222/222
f 215/215/215 223/223/223 216/216/216
f 224/224/224 216/216/216 223/223/223
f 217/217/217 225/225/225 218/218/218
f 226/226/226 218/218/218 225/225/225
f 218/218/218 226/226/226 219/219/219
f 227/227/227 219/219/219 226/226/226
f 219/219/219 227/227/227 220/220/220
f 228/228/228 220/220/220 227/227/227
f 220/220/220 228/228/228 221/221/221
f 229/229/229 221/221/221 228/228/228
f 221/221/221 229/229/229 222/222/222
f 230/230/230 222/222/222 229/229/229
f 222/222/222 230/230/230 223/223/223
f 231/231/231 223/223/223 230/230/230
f 223/223/223 231/231/231 224/224/224
f 232/232/232 224/224/224 231/231/231
f 225/225/225 233/233/233 226/226/226
f 234/234/234 226/226/226 233/233/233
f 226/226/226 234/234/234 227/227/227
f 235/235/235 227/227/227 234/234/234
f 227/227/227 235/235/235 228/228/228
f 236/236/236 228/228/228 235/235/235
f 228/228/228 236/236/236 229/229/229
f 237/237/237 229/229/229 236/236/236
f 229/229/229 237/237/237 230/230/230
f 238/238/238 230/230/230 237/237/237
f 230/230/230 238/238/238 231/231/231
f 239/239/239 231/231/231 238/238/238
f 231/231/231 239/239/239 232/232/232
f 240/240/240 232/232/232 239/239/239
f 233/233/233 241/241/241 234/234/234
f 242/242/242 234/234/234 241/241/241
f 234/234/234 242/242/242 235/235/235
f 243/243/243 235/235/235 242/242/242
f 235/235/235 243/243/243 236/236/236
f 244/244/244 236/236/236 243/243/243
f 236/236/236 244/244/244 237/237/237
f 245/245/245 237/237/237 244/244/244
f 237/237/237 245/245/245 238/238/238
f 246/246/246 238/238/238 245/245/245
f 238/238/238 246/246/246 239/239/239
f 247/247/247 239/239/239 246/246/246
f 239/239/239 247/247/247 240/240/240
f 248/248/248 240/240/240 247/247/247
f 241/241/241 249/249/249 242/242/242
f 250/250/250 242/242/242 249/249/249
f 242/242/242 250/250/250 243/243/243
f 251/251/251 243/243/243 250/250/250
f 243/243/243 251/251/251 244/244/244
f 252/252/252 244/244/244 251/251/251
f 244/244/244 252/252/252 245/245/245
f 253/253/253 245/245/245 252/252/252
f 245/245/245 253/253/253 246/246/246
f 254/254/254 246/246/246 253/253/253
f 246/246/246 254/254/254 247/247/247
f 255/255/255 247/247/247 254/254/254
f 247/247/247 255/255/255 248/248/248
f 256/256/256 248/248/248 255/255/255
f 249/249/249 257/257/257 250/250/250
f 258/258/258 250/250/250 257/257/257
f 250/250/250 258/258/258 251/251/251
f 259/259/259 251/251/251 258/258/258
f 251/251/251 259/259/259 252/252/252
f 260/260/260 252/252/252 259/259/259
f 252/252/252 260/260/260 253/253/253
f 261/261/261 253/253/253 260/260/260
f 253/253/253 261/261/261 254/254/254
f 262/262/262 254/254/254 261/261/261
f 254/254/254 262/262/262 255/255/255
f 263/263/263 255/255/255 262/262/262
f 255/255/255 263/263/263 256/256/256
f 264/264/264 256/256/256 263/263/263
