o shape_020
v 0 0 0.699999988079071
v 0 0 1
v 0 2 1
v 0 2 0.699999988079071
v 0 0 0.699999988079071
v 0.1365632265806198 0 0.686549723148346
v 0.19509032368659973 0 0.9807852506637573
v 0.19509032368659973 2 0.9807852506637573
v 0.1365632265806198 2 0.686549723148346
v 0.1365632265806198 0 0.686549723148346
v 0.2678784132003784 0 0.6467157006263733
v 0.3826834261417389 0 0.9238795042037964
v 0.3826834261417389 2 0.9238795042037964
v 0.2678784132003784 2 0.6467157006263733
v 0.2678784132003784 0 0.6467157006263733
v 0.38889917731285095 0 0.5820287466049194
v 0.5555702447891235 0 0.8314695954322815
v 0.5555702447891235 2 0.8314695954322815
v 0.38889917731285095 2 0.5820287466049194
v 0.38889917731285095 0 0.5820287466049194
v 0.4949747323989868 0 0.4949747323989868
v 0.7071067690849304 0 0.7071067690849304
v 0.7071067690849304 2 0.7071067690849304
v 0.4949747323989868 2 0.4949747323989868
v 0.4949747323989868 0 0.4949747323989868
v 0.5820287466049194 0 0.38889917731285095
v 0.8314695954322815 0 0.5555702447891235
v 0.8314695954322815 2 0.5555702447891235
v 0.5820287466049194 2 0.38889917731285095
v 0.5820287466049194 0 0.38889917731285095
v 0.6467157006263733 0 0.2678784132003784
v 0.9238795042037964 0 0.3826834261417389
v 0.9238795042037964 2 0.3826834261417389
v 0.6467157006263733 2 0.2678784132003784
v 0.6467157006263733 0 0.2678784132003784
v 0.686549723148346 0 0.1365632265806198
v 0.9807852506637573 0 0.19509032368659973
v 0.9807852506637573 2 0.19509032368659973
v 0.686549723148346 2 0.1365632265806198
v 0.686549723148346 0 0.1365632265806198
v 0.699999988079071 0 4.2862636531758425e-17
v 1 0 6.123234262925839e-17
v 1 2 6.123234262925839e-17
v 0.699999988079071 2 4.2862636531758425e-17
v 0.699999988079071 0 4.2862636531758425e-17
v 0.686549723148346 0 -0.1365632265806198
v 0.9807852506637573 0 -0.19509032368659973
v 0.9807852506637573 2 -0.19509032368659973
v 0.686549723148346 2 -0.1365632265806198
v 0.686549723148346 0 -0.1365632265806198
v 0.6467157006263733 0 -0.2678784132003784
v 0.9238795042037964 0 -0.3826834261417389
v 0.9238795042037964 2 -0.3826834261417389
v 0.6467157006263733 2 -0.2678784132003784
v 0.6467157006263733 0 -0.2678784132003784
v 0.5820287466049194 0 -0.38889917731285095
v 0.8314695954322815 0 -0.5555702447891235
v 0.8314695954322815 2 -0.5555702447891235
v 0.5820287466049194 2 -0.38889917731285095
v 0.5820287466049194 0 -0.38889917731285095
v 0.4949747323989868 0 -0.4949747323989868
v 0.7071067690849304 0 -0.7071067690849304
v 0.7071067690849304 2 -0.7071067690849304
v 0.4949747323989868 2 -0.4949747323989868
v 0.4949747323989868 0 -0.4949747323989868
v 0.38889917731285095 0 -0.5820287466049194
v 0.5555702447891235 0 -0.8314695954322815
v 0.5555702447891235 2 -0.8314695954322815
v 0.38889917731285095 2 -0.5820287466049194
v 0.38889917731285095 0 -0.5820287466049194
v 0.2678784132003784 0 -0.6467157006263733
v 0.3826834261417389 0 -0.9238795042037964
v 0.3826834261417389 2 -0.9238795042037964
v 0.2678784132003784 2 -0.6467157006263733
v 0.2678784132003784 0 -0.6467157006263733
v 0.1365632265806198 0 -0.686549723148346
v 0.19509032368659973 0 -0.9807852506637573
v 0.19509032368659973 2 -0.9807852506637573
v 0.1365632265806198 2 -0.686549723148346
v 0.1365632265806198 0 -0.686549723148346
v 8.572527306351685e-17 0 -0.699999988079071
v 1.2246468525851679e-16 0 -1
v 1.2246468525851679e-16 2 -1
v 8.572527306351685e-17 2 -0.699999988079071
v 8.572527306351685e-17 0 -0.699999988079071
v -0.1365632265806198 0 -0.686549723148346
v -0.19509032368659973 0 -0.9807852506637573
v -0.19509032368659973 2 -0.9807852506637573
v -0.1365632265806198 2 -0.686549723148346
v -0.1365632265806198 0 -0.686549723148346
v -0.2678784132003784 0 -0.6467157006263733
v -0.3826834261417389 0 -0.9238795042037964
v -0.3826834261417389 2 -0.9238795042037964
v -0.2678784132003784 2 -0.6467157006263733
v -0.2678784132003784 0 -0.6467157006263733
v -0.38889917731285095 0 -0.5820287466049194
v -0.5555702447891235 0 -0.8314695954322815
v -0.5555702447891235 2 -0.8314695954322815
v -0.38889917731285095 2 -0.5820287466049194
v -0.38889917731285095 0 -0.5820287466049194
v -0.4949747323989868 0 -0.4949747323989868
v -0.7071067690849304 0 -0.7071067690849304
v -0.7071067690849304 2 -0.7071067690849304
v -0.4949747323989868 2 -0.4949747323989868
v -0.4949747323989868 0 -0.4949747323989868
v -0.5820287466049194 0 -0.38889917731285095
v -0.8314695954322815 0 -0.5555702447891235
v -0.8314695954322815 2 -0.5555702447891235
v -0.5820287466049194 2 -0.38889917731285095
v -0.5820287466049194 0 -0.38889917731285095
v -0.6467157006263733 0 -0.2678784132003784
v -0.9238795042037964 0 -0.3826834261417389
v -0.9238795042037964 2 -0.3826834261417389
v -0.6467157006263733 2 -0.2678784132003784
v -0.6467157006263733 0 -0.2678784132003784
v -0.686549723148346 0 -0.1365632265806198
v -0.9807852506637573 0 -0.19509032368659973
v -0.9807852506637573 2 -0.19509032368659973
v -0.686549723148346 2 -0.1365632265806198
v -0.686549723148346 0 -0.1365632265806198
v -0.699999988079071 0 -1.2858791290399772e-16
v -1 0 -1.8369701465288538e-16
v -1 2 -1.8369701465288538e-16
v -0.699999988079071 2 -1.2858791290399772e-16
v -0.699999988079071 0 -1.2858791290399772e-16
v -0.686549723148346 0 0.1365632265806198
v -0.9807852506637573 0 0.19509032368659973
v -0.9807852506637573 2 0.19509032368659973
v -0.686549723148346 2 0.1365632265806198
v -0.686549723148346 0 0.1365632265806198
v -0.6467157006263733 0 0.2678784132003784
v -0.9238795042037964 0 0.3826834261417389
v -0.9238795042037964 2 0.3826834261417389
v -0.6467157006263733 2 0.2678784132003784
v -0.6467157006263733 0 0.2678784132003784
v -0.5820287466049194 0 0.38889917731285095
v -0.8314695954322815 0 0.5555702447891235
v -0.8314695954322815 2 0.5555702447891235
v -0.5820287466049194 2 0.38889917731285095
v -0.5820287466049194 0 0.38889917731285095
v -0.4949747323989868 0 0.4949747323989868
v -0.7071067690849304 0 0.7071067690849304
v -0.7071067690849304 2 0.7071067690849304
v -0.4949747323989868 2 0.4949747323989868
v -0.4949747323989868 0 0.4949747323989868
v -0.38889917731285095 0 0.5820287466049194
v -0.5555702447891235 0 0.8314695954322815
v -0.5555702447891235 2 0.8314695954322815
v -0.38889917731285095 2 0.5820287466049194
v -0.38889917731285095 0 0.5820287466049194
v -0.2678784132003784 0 0.6467157006263733
v -0.3826834261417389 0 0.9238795042037964
v -0.3826834261417389 2 0.9238795042037964
v -0.2678784132003784 2 0.6467157006263733
v -0.2678784132003784 0 0.6467157006263733
v -0.1365632265806198 0 0.686549723148346
v -0.19509032368659973 0 0.9807852506637573
v -0.19509032368659973 2 0.9807852506637573
v -0.1365632265806198 2 0.686549723148346
v -0.1365632265806198 0 0.686549723148346
v -1.714505461270337e-16 0 0.699999988079071
v -2.4492937051703357e-16 0 1
v -2.4492937051703357e-16 2 1
v -1.714505461270337e-16 2 0.699999988079071
v -1.714505461270337e-16 0 0.699999988079071
vt 0 0
vt 0 0.25
vt 0 0.5
vt 0 0.75
vt 0 1
vt 0.03125 0
vt 0.03125 0.25
vt 0.03125 0.5
vt 0.03125 0.75
vt 0.03125 1
vt 0.0625 0
vt 0.0625 0.25
vt 0.0625 0.5
vt 0.0625 0.75
vt 0.0625 1
vt 0.09375 0
vt 0.09375 0.25
vt 0.09375 0.5
vt 0.09375 0.75
vt 0.09375 1
vt 0.125 0
vt 0.125 0.25
vt 0.125 0.5
vt 0.125 0.75
vt 0.125 1
vt 0.15625 0
vt 0.15625 0.25
vt 0.15625 0.5
vt 0.15625 0.75
vt 0.15625 1
vt 0.1875 0
vt 0.1875 0.25
vt 0.1875 0.5
vt 0.1875 0.75
vt 0.1875 1
vt 0.21875 0
vt 0.21875 0.25
vt 0.21875 0.5
vt 0.21875 0.75
vt 0.21875 1
vt 0.25 0
vt 0.25 0.25
vt 0.25 0.5
vt 0.25 0.75
vt 0.25 1
vt 0.28125 0
vt 0.28125 0.25
vt 0.28125 0.5
vt 0.28125 0.75
vt 0.28125 1
vt 0.3125 0
vt 0.3125 0.25
vt 0.3125 0.5
vt 0.3125 0.75
vt 0.3125 1
vt 0.34375 0
vt 0.34375 0.25
vt 0.34375 0.5
vt 0.34375 0.75
vt 0.34375 1
vt 0.375 0
vt 0.375 0.25
vt 0.375 0.5
vt 0.375 0.75
vt 0.375 1
vt 0.40625 0
vt 0.40625 0.25
vt 0.40625 0.5
vt 0.40625 0.75
vt 0.40625 1
vt 0.4375 0
vt 0.4375 0.25
vt 0.4375 0.5
vt 0.4375 0.75
vt 0.4375 1
vt 0.46875 0
vt 0.46875 0.25
vt 0.46875 0.5
vt 0.46875 0.75
vt 0.46875 1
vt 0.5 0
vt 0.5 0.25
vt 0.5 0.5
vt 0.5 0.75
vt 0.5 1
vt 0.53125 0
vt 0.53125 0.25
vt 0.53125 0.5
vt 0.53125 0.75
vt 0.53125 1
vt 0.5625 0
vt 0.5625 0.25
vt 0.5625 0.5
vt 0.5625 0.75
vt 0.5625 1
vt 0.59375 0
vt 0.59375 0.25
vt 0.59375 0.5
vt 0.59375 0.75
vt 0.59375 1
vt 0.625 0
vt 0.625 0.25
vt 0.625 0.5
vt 0.625 0.75
vt 0.625 1
vt 0.65625 0
vt 0.65625 0.25
vt 0.65625 0.5
vt 0.65625 0.75
vt 0.65625 1
vt 0.6875 0
vt 0.6875 0.25
vt 0.6875 0.5
vt 0.6875 0.75
vt 0.6875 1
vt 0.71875 0
vt 0.71875 0.25
vt 0.71875 0.5
vt 0.71875 0.75
vt 0.71875 1
vt 0.75 0
vt 0.75 0.25
vt 0.75 0.5
vt 0.75 0.75
vt 0.75 1
vt 0.78125 0
vt 0.78125 0.25
vt 0.78125 0.5
vt 0.78125 0.75
vt 0.78125 1
vt 0.8125 0
vt 0.8125 0.25
vt 0.8125 0.5
vt 0.8125 0.75
vt 0.8125 1
vt 0.84375 0
vt 0.84375 0.25
vt 0.84375 0.5
vt 0.84375 0.75
vt 0.84375 1
vt 0.875 0
vt 0.875 0.25
vt 0.875 0.5
vt 0.875 0.75
vt 0.875 1
vt 0.90625 0
vt 0.90625 0.25
vt 0.90625 0.5
vt 0.90625 0.75
vt 0.90625 1
vt 0.9375 0
vt 0.9375 0.25
vt 0.9375 0.5
vt 0.9375 0.75
vt 0.9375 1
vt 0.96875 0
vt 0.96875 0.25
vt 0.96875 0.5
vt 0.96875 0.75
vt 0.96875 1
vt 1 0
vt 1 0.25
vt 1 0.5
vt 1 0.75
vt 1 1
vn 0 -1 0
vn 0.095005816185651 -0.24597522221373797 0.9646087729996036
vn 0.09774540208874875 0.07443181306642085 0.9924241742189447
vn -0.09214825092800753 0.34082555436690726 -0.9355996159369665
vn -0.09801685569173534 0 -0.9951847547065346
vn 0 -1 0
vn 0.1613410524074319 -0.13371559660918098 0.9777981407384211
vn 0.22512761094110417 0.13371561667044377 0.9651101971538761
vn -0.16046449083222378 0.1688753914229497 -0.9724876602578054
vn -0.22716746646874228 0 -0.9738557091161775
vn 0 -1 0
vn 0.3489997437453652 -0.1337156017109843 0.9275339976112674
vn 0.4090853943938003 0.1337156002465994 0.9026457103118368
vn -0.3471043397399882 0.16887541064115305 -0.9224964352312961
vn -0.412792438964632 0 -0.9108251217075813
vn 0 -1 0
vn 0.5232467105906882 -0.13371561596920362 0.8416252217596625
vn 0.5773224192075815 0.1337156136919986 0.8054929912390782
vn -0.5204050678611623 0.16887541562090574 -0.8370541555618044
vn -0.5825540946062028 0 -0.8127919333123005
vn 0 -1 0
vn 0.677385662179269 -0.13371562451457616 0.7233732068819179
vn 0.7233732068819179 0.13371562451457616 0.677385662179269
vn -0.6737067570274352 0.16887540791528663 -0.7194444399236273
vn -0.7299280796268879 0 -0.6835239561070289
vn 0 -1 0
vn 0.8054929912390782 -0.1337156136919986 0.5773224192075815
vn 0.8416252217596625 0.13371561596920362 0.5232467105906882
vn -0.801118138600717 0.1688753969153698 -0.574187102190217
vn -0.8492516063282516 0 -0.5279883608081567
vn 0 -1 0
vn 0.9026457103118368 -0.1337156002465994 0.4090853943938003
vn 0.9275339976112674 0.1337156017109843 0.3489997437453652
vn -0.8977432997584375 0.1688753990839035 -0.40686369624615637
vn -0.9359389483154859 0 -0.3521622992685364
vn 0 -1 0
vn 0.9651101971538761 -0.13371561667044377 0.22512761094110417
vn 0.9777981407384211 0.13371559660918098 0.1613410524074319
vn -0.9598686129104517 0.16887541168156395 -0.22390475939280088
vn -0.9866586304854558 0 -0.16280278526046413
vn 0 -1 0
vn 0.9904860941117014 -0.13371561585054548 0.032518171059503935
vn 0.9904860941117014 0.13371561585054548 -0.032518171059503935
vn -0.9851066579822279 0.16887541303300121 -0.03234141728526259
vn -0.9994615186473862 0 0.03281269179845665
vn 0 -1 0
vn 0.9777981407384211 -0.13371559660918098 -0.1613410524074319
vn 0.9651101971538761 0.13371561667044377 -0.22512761094110417
vn -0.9724876602578054 0.1688753914229497 0.16046449083222378
vn -0.9738557091161775 0 0.22716746646874228
vn 0 -1 0
vn 0.9275339976112674 -0.1337156017109843 -0.3489997437453652
vn 0.9026457103118368 0.1337156002465994 -0.4090853943938003
vn -0.9224964352312961 0.16887541064115305 0.3471043397399882
vn -0.9108251217075813 0 0.412792438964632
vn 0 -1 0
vn 0.8416252217596625 -0.13371561596920362 -0.5232467105906882
vn 0.8054929912390782 0.1337156136919986 -0.5773224192075815
vn -0.8370541555618044 0.16887541562090574 0.5204050678611623
vn -0.8127919333123005 0 0.5825540946062028
vn 0 -1 0
vn 0.7233732068819179 -0.13371562451457616 -0.677385662179269
vn 0.677385662179269 0.13371562451457616 -0.7233732068819179
vn -0.7194444399236273 0.16887540791528663 0.6737067570274352
vn -0.6835239561070289 0 0.7299280796268879
vn 0 -1 0
vn 0.5773224192075815 -0.1337156136919986 -0.8054929912390782
vn 0.5232467105906882 0.13371561596920362 -0.8416252217596625
vn -0.574187102190217 0.1688753969153698 0.801118138600717
vn -0.5279883608081567 0 0.8492516063282516
vn 0 -1 0
vn 0.4090853943938003 -0.1337156002465994 -0.9026457103118368
vn 0.3489997437453652 0.1337156017109843 -0.9275339976112674
vn -0.40686369624615637 0.1688753990839035 0.8977432997584375
vn -0.3521622992685364 0 0.9359389483154859
vn 0 -1 0
vn 0.22512761094110417 -0.13371561667044377 -0.9651101971538761
vn 0.1613410524074319 0.13371559660918098 -0.9777981407384211
vn -0.22390475939280088 0.16887541168156395 0.9598686129104517
vn -0.16280278526046413 0 0.9866586304854558
vn 0 -1 0
vn 0.032518171059503935 -0.13371561585054548 -0.9904860941117014
vn -0.032518171059503935 0.13371561585054548 -0.9904860941117014
vn -0.03234141728526259 0.16887541303300121 0.9851066579822279
vn 0.03281269179845665 0 0.9994615186473862
vn 0 -1 0
vn -0.1613410524074319 -0.13371559660918098 -0.9777981407384211
vn -0.22512761094110417 0.13371561667044377 -0.9651101971538761
vn 0.16046449083222378 0.1688753914229497 0.9724876602578054
vn 0.22716746646874228 0 0.9738557091161775
vn 0 -1 0
vn -0.3489997437453652 -0.1337156017109843 -0.9275339976112674
vn -0.4090853943938003 0.1337156002465994 -0.9026457103118368
vn 0.3471043397399882 0.16887541064115305 0.9224964352312961
vn 0.412792438964632 0 0.9108251217075813
vn 0 -1 0
vn -0.5232467105906882 -0.13371561596920362 -0.8416252217596625
vn -0.5773224192075815 0.1337156136919986 -0.8054929912390782
vn 0.5204050678611623 0.16887541562090574 0.8370541555618044
vn 0.5825540946062028 0 0.8127919333123005
vn 0 -1 0
vn -0.677385662179269 -0.13371562451457616 -0.7233732068819179
vn -0.7233732068819179 0.13371562451457616 -0.677385662179269
vn 0.6737067570274352 0.16887540791528663 0.7194444399236273
vn 0.7299280796268879 0 0.6835239561070289
vn 0 -1 0
vn -0.8054929912390782 -0.1337156136919986 -0.5773224192075815
vn -0.8416252217596625 0.13371561596920362 -0.5232467105906882
vn 0.801118138600717 0.1688753969153698 0.574187102190217
vn 0.8492516063282516 0 0.5279883608081567
vn 0 -1 0
vn -0.9026457103118368 -0.1337156002465994 -0.4090853943938003
vn -0.9275339976112674 0.1337156017109843 -0.3489997437453652
vn 0.8977432997584375 0.1688753990839035 0.40686369624615637
vn 0.9359389483154859 0 0.3521622992685364
vn 0 -1 0
vn -0.9651101971538761 -0.13371561667044377 -0.22512761094110417
vn -0.9777981407384211 0.13371559660918098 -0.1613410524074319
vn 0.9598686129104517 0.16887541168156395 0.22390475939280088
vn 0.9866586304854558 0 0.16280278526046413
vn 0 -1 0
vn -0.9904860941117014 -0.13371561585054548 -0.032518171059503935
vn -0.9904860941117014 0.13371561585054548 0.032518171059503935
vn 0.9851066579822279 0.16887541303300121 0.03234141728526259
vn 0.9994615186473862 0 -0.03281269179845665
vn 0 -1 0
vn -0.9777981407384211 -0.13371559660918098 0.1613410524074319
vn -0.9651101971538761 0.13371561667044377 0.22512761094110417
vn 0.9724876602578054 0.1688753914229497 -0.16046449083222378
vn 0.9738557091161775 0 -0.22716746646874228
vn 0 -1 0
vn -0.9275339976112674 -0.1337156017109843 0.3489997437453652
vn -0.9026457103118368 0.1337156002465994 0.4090853943938003
vn 0.9224964352312961 0.16887541064115305 -0.3471043397399882
vn 0.9108251217075813 0 -0.412792438964632
vn 0 -1 0
vn -0.8416252217596625 -0.13371561596920362 0.5232467105906882
vn -0.8054929912390782 0.1337156136919986 0.5773224192075815
vn 0.8370541555618044 0.16887541562090574 -0.5204050678611623
vn 0.8127919333123005 0 -0.5825540946062028
vn 0 -1 0
vn -0.7233732068819179 -0.13371562451457616 0.677385662179269
vn -0.677385662179269 0.13371562451457616 0.7233732068819179
vn 0.7194444399236273 0.16887540791528663 -0.6737067570274352
vn 0.6835239561070289 0 -0.7299280796268879
vn 0 -1 0
vn -0.5773224192075815 -0.1337156136919986 0.8054929912390782
vn -0.5232467105906882 0.13371561596920362 0.8416252217596625
vn 0.574187102190217 0.1688753969153698 -0.801118138600717
vn 0.5279883608081567 0 -0.8492516063282516
vn 0 -1 0
vn -0.4090853943938003 -0.1337156002465994 0.9026457103118368
vn -0.3489997437453652 0.1337156017109843 0.9275339976112674
vn 0.40686369624615637 0.1688753990839035 -0.8977432997584375
vn 0.3521622992685364 0 -0.9359389483154859
vn 0 -1 0
vn -0.22512761094110417 -0.13371561667044377 0.9651101971538761
vn -0.1613410524074319 0.13371559660918098 0.9777981407384211
vn 0.22390475939280088 0.16887541168156395 -0.9598686129104517
vn 0.16280278526046413 0 -0.9866586304854558
vn 0 -1 0
vn -0.09774540208874875 -0.07443181306642085 0.9924241742189447
vn -0.095005816185651 0.24597522221373797 0.9646087729996036
vn 0.09774497402952419 0.0744318236196492 -0.9924242155875788
vn 0.09801685569173534 0 -0.9951847547065346
f 1/1/1 6/6/6 2/2/2
f 7/7/7 2/2/2 6/6/6
f 2/2/2 7/7/7 3/3/3
f 8/8/8 3/3/3 7/7/7
f 3/3/3 8/8/8 4/4/4
f 9/9/9 4/4/4 8/8/8
f 4/4/4 9/9/9 5/5/5
f 10/10/10 5/5/5 9/9/9
f 6/6/6 11/11/11 7/7/7
f 12/12/12 7/7/7 11/11/11
f 7/7/7 12/12/12 8/8/8
f 13/13/13 8/8/8 12/12/12
f 8/8/8 13/13/13 9/9/9
f 14/14/14 9/9/9 13/13/13
f 9/9/9 14/14/14 10/10/10
f 15/15/15 10/10/10 14/14/14
f 11/11/11 16/16/16 12/12/12
f 17/17/17 12/12/12 16/16/16
f 12/12/12 17/17/17 13/13/13
f 18/18/18 13/13/13 17/17/17
f 13/13/13 18/18/18 14/14/14
f 19/19/19 14/14/14 18/18/18
f 14/14/14 19/19/19 15/15/15
f 20/20/20 15/15/15 19/19/19
f 16/16/16 21/21/21 17/17/17
f 22/22/22 17/17/17 21/21/21
f 17/17/17 22/22/22 18/18/18
f 23/23/23 18/18/18 22/22/22
f 18/18/18 23/23/23 19/19/19
f 24/24/24 19/19/19 23/23/23
f 19/19/19 24/24/24 20/20/20
f 25/25/25 20/20/20 24/24/24
f 21/21/21 26/26/26 22/22/22
f 27/27/27 22/22/22 26/26/26
f 22/22/22 27/27/27 23/23/23
f 28/28/28 23/23/23 27/27/27
f 23/23/23 28/28/28 24/24/24
f 29/29/29 24/24/24 28/28/28
f 24/24/24 29/29/29 25/25/25
f 30/30/30 25/25/25 29/29/29
f 26/26/26 31/31/31 27/27/27
f 32/32/32 27/27/27 31/31/31
f 27/27/27 32/32/32 28/28/28
f 33/33/33 28/28/28 32/32/32
f 28/28/28 33/33/33 29/29/29
f 34/34/34 29/29/29 33/33/33
f 29/29/29 34/34/34 30/30/30
f 35/35/35 30/30/30 34/34/34
f 31/31/31 36/36/36 32/32/32
f 37/37/37 32/32/32 36/36/36
f 32/32/32 37/37/37 33/33/33
f 38/38/38 33/33/33 37/37/37
f 33/33/33 38/38/38 34/34/34
f 39/39/39 34/34/34 38/38/38
f 34/34/34 39/39/39 35/35/35
f 40/40/40 35/35/35 39/39/39
f 36/36/36 41/41/41 37/37/37
f 42/42/42 37/37/37 41/41/41
f 37/37/37 42/42/42 38/38/38
f 43/43/43 38/38/38 42/42/42
f 38/38/38 43/43/43 39/39/39
f 44/44/44 39/39/39 43/43/43
f 39/39/39 44/44/44 40/40/40
f 45/45/45 40/40/40 44/44/44
f 41/41/41 46/46/46 42/42/42
f 47/47/47 42/42/42 46/46/46
f 42/42/42 47/47/47 43/43/43
f 48/48/48 43/43/43 47/47/47
f 43/43/43 48/48/48 44/44/44
f 49/49/49 44/44/44 48/48/48
f 44/44/44 49/49/49 45/45/45
f 50/50/50 45/45/45 49/49/49
f 46/46/46 51/51/51 47/47/47
f 52/52/52 47/47/47 51/51/51
f 47/47/47 52/52/52 48/48/48
f 53/53/53 48/48/48 52/52/52
f 48/48/48 53/53/53 49/49/49
f 54/54/54 49/49/49 53/53/53
f 49/49/49 54/54/54 50/50/50
f 55/55/55 50/50/50 54/54/54
f 51/51/51 56/56/56 52/52/52
f 57/57/57 52/52/52 56/56/56
f 52/52/52 57/57/57 53/53/53
f 58/58/58 53/53/53 57/57/57
f 53/53/53 58/58/58 54/54/54
f 59/59/59 54/54/54 58/58/58
f 54/54/54 59/59/59 55/55/55
f 60/60/60 55/55/55 59/59/59
f 56/56/56 61/61/61 57/57/57
f 62/62/62 57/57/57 61/61/61
f 57/57/57 62/62/62 58/58/58
f 63/63/63 58/58/58 62/62/62
f 58/58/58 63/63/63 59/59/59
f 64/64/64 59/59/59 63/63/63
f 59/59/59 64/64/64 60/60/60
f 65/65/65 60/60/60 64/64/64
f 61/61/61 66/66/66 62/62/62
f 67/67/67 62/62/62 66/66/66
f 62/62/62 67/67/67 63/63/63
f 68/68/68 63/63/63 67/67/67
f 63/63/63 68/68/68 64/64/64
f 69/69/69 64/64/64 68/68/68
f 64/64/64 69/69/69 65/65/65
f 70/70/70 65/65/65 69/69/69
f 66/66/66 71/71/71 67/67/67
f 72/72/72 67/67/67 71/71/71
f 67/67/67 72/72/72 68/68/68
f 73/73/73 68/68/68 72/72/72
f 68/68/68 73/73/73 69/69/69
f 74/74/74 69/69/69 73/73/73
f 69/69/69 74/74/74 70/70/70
f 75/75/75 70/70/70 74/74/74
f 71/71/71 76/76/76 72/72/72
f 77/77/77 72/72/72 76/76/76
f 72/72/72 77/77/77 73/73/73
f 78/78/78 73/73/73 77/77/77
f 73/73/73 78/78/78 74/74/74
f 79/79/79 74/74/74 78/78/78
f 74/74/74 79/79/79 75/75/75
f 80/80/80 75/75/75 79/79/79
f 76/76/76 81/81/81 77/77/77
f 82/82/82 77/77/77 81/81/81
f 77/77/77 82/82/82 78/78/78
f 83/83/83 78/78/78 82/82/82
f 78/78/78 83/83/83 79/79/79
f 84/84/84 79/79/79 83/83/83
f 79/79/79 84/84/84 80/80/80
f 85/85/85 80/80/80 84/84/84
f 81/81/81 86/86/86 82/82/82
f 87/87/87 82/82/82 86/86/86
f 82/82/82 87/87/87 83/83/83
f 88/88/88 83/83/83 87/87/87
f 83/83/83 88/88/88 84/84/84
f 89/89/89 84/84/84 88/88/88
f 84/84/84 89/89/89 85/85/85
f 90/90/90 85/85/85 89/89/89
f 86/86/86 91/91/91 87/87/87
f 92/92/92 87/87/87 91/91/91
f 87/87/87 92/92/92 88/88/88
f 93/93/93 88/88/88 92/92/92
f 88/88/88 93/93/93 89/89/89
f 94/94/94 89/89/89 93/93/93
f 89/89/89 94/94/94 90/90/90
f 95/95/95 90/90/90 94/94/94
f 91/91/91 96/96/96 92/92/92
f 97/97/97 92/92/92 96/96/96
f 92/92/92 97/97/97 93/93/93
f 98/98/98 93/93/93 97/97/97
f 93/93/93 98/98/98 94/94/94
f 99/99/99 94/94/94 98/98/98
f 94/94/94 99/99/99 95/95/95
f 100/100/100 95/95/95 99/99/99
f 96/96/96 101/101/101 97/97/97
f 102/102/102 97/97/97 101/101/101
f 97/97/97 102/102/102 98/98/98
f 103/103/103 98/98/98 102/102/102
f 98/98/98 103/103/103 99/99/99
f 104/104/104 99/99/99 103/103/103
f 99/99/99 104/104/104 100/100/100
f 105/105/105 100/100/100 104/104/104
f 101/101/101 106/106/106 102/102/102
f 107/107/107 102/102/102 106/106/106
f 102/102/102 107/107/107 103/103/103
f 108/108/108 103/103/103 107/107/107
f 103/103/103 108/108/108 104/104/104
f 109/109/109 104/104/104 108/108/108
f 104/104/104 109/109/109 105/105/105
f 110/110/110 105/105/105 109/109/109
f 106/106/106 111/111/111 107/107/107
f 112/112/112 107/107/107 111/111/111
f 107/107/107 112/112/112 108/108/108
f 113/113/113 108/108/108 112/112/112
f 108/108/108 113/113/113 109/109/109
f 114/114/114 109/109/109 113/113/113
f 109/109/109 114/114/114 110/110/110
f 115/115/115 110/110/110 114/114/114
f 111/111/111 116/116/116 112/112/112
f 117/117/117 112/112/112 116/116/116
f 112/112/112 117/117/117 113/113/113
f 118/118/118 113/113/113 117/117/117
f 113/113/113 118/118/118 114/114/114
f 119/119/119 114/114/114 118/118/118
f 114/114/114 119/119/119 115/115/115
f 120/120/120 115/115/115 119/119/119
f 116/116/116 121/121/121 117/117/117
f 122/122/122 117/117/117 121/121/121
f 117/117/117 122/122/122 118/118/118
f 123/123/123 118/118/118 122/122/122
f 118/118/118 123/123/123 119/119/119
f 124/124/124 119/119/119 123/123/123
f 119/119/119 124/124/124 120/120/120
f 125/125/125 120/120/120 124/124/124
f 121/121/121 126/126/126 122/122/122
f 127/127/127 122/122/122 126/126/126
f 122/122/122 127/127/127 123/123/123
f 128/128/128 123/123/123 127/127/127
f 123/123/123 128/128/128 124/124/124
f 129/129/129 124/124/124 128/128/128
f 124/124/124 129/129/129 125/125/125
f 130/130/130 125/125/125 129/129/129
f 126/126/126 131/131/131 127/127/127
f 132/132/132 127/127/127 131/131/131
f 127/127/127 132/132/132 128/128/128
f 133/133/133 128/128/128 132/132/132
f 128/128/128 133/133/133 129/129/129
f 134/134/134 129/129/129 133/133/133
f 129/129/129 134/134/134 130/130/130
f 135/135/135 130/130/130 134/134/134
f 131/131/131 136/136/136 132/132/132
f 137/137/137 132/132/132 136/136/136
f 132/132/132 137/137/137 133/133/133
f 138/138/138 133/133/133 137/137/137
f 133/133/133 138/138/138 134/134/134
f 139/139/139 134/134/134 138/138/138
f 134/134/134 139/139/139 135/135/135
f 140/140/140 135/135/135 139/139/139
f 136/136/136 141/141/141 137/137/137
f 142/142/142 137/137/137 141/141/141
f 137/137/137 142/142/142 138/138/138
f 143/143/143 138/138/138 142/142/142
f 138/138/138 143/143/143 139/139/139
f 144/144/144 139/139/139 143/143/143
f 139/139/139 144/144/144 140/140/140
f 145/145/145 140/140/140 144/144/144
f 141/141/141 146/146/146 142/142/142
f 147/147/147 142/142/142 146/146/146
f 142/142/142 147/147/147 143/143/143
f 148/148/148 143/143/143 147/147/147
f 143/143/143 148/148/148 144/144/144
f 149/149/149 144/144/144 148/148/148
f 144/144/144 149/149/149 145/145/145
f 150/150/150 145/145/145 149/149/149
f 146/146/146 151/151/151 147/147/147
f 152/152/152 147/147/147 151/151/151
f 147/147/147 152/152/152 148/148/148
f 153/153/153 148/148/148 152/152/152
f 148/148/148 153/153/153 149/149/149
f 154/154/154 149/149/149 153/153/153
f 149/149/149 154/154/154 150/150/150
f 155/155/155 150/150/150 154/154/154
f 151/151/151 156/156/156 152/152/152
f 157/157/157 152/152/152 156/156/156
f 152/152/152 157/157/157 153/153/153
f 158/158/158 153/153/153 157/157/157
f 153/153/153 158/158/158 154/154/154
f 159/159/159 154/154/154 158/158/158
f 154/154/154 159/159/159 155/155/155
f 160/160/160 155/155/155 159/159/159
f 156/156/156 161/161/161 157/157/157
f 162/162/162 157/157/157 161/161/161
f 157/157/157 162/162/162 158/158/158
f 163/163/163 158/158/158 162/162/162
f 158/158/158 163/163/163 159/159/159
f 164/164/164 159/159/159 163/163/163
f 159/159/159 164/164/164 160/160/160
f 165/165/165 160/160/160 164/164/164
