o shape_023
v 0 2 0.9045084714889526
v 0.9510565400123596 2 0.21352550387382507
v 0.5877852439880371 2 -0.9045084714889526
v -0.5877852439880371 2 -0.9045084714889526
v -0.9510565400123596 2 0.21352550387382507
v -2.4492937051703357e-16 2 0.9045084714889526
v 0 0 0.9045084714889526
v 0.9510565400123596 0 0.21352550387382507
v 0.5877852439880371 0 -0.9045084714889526
v -0.5877852439880371 0 -0.9045084714889526
v -0.9510565400123596 0 0.21352550387382507
v -2.4492937051703357e-16 0 0.9045084714889526
v 0 2 -0.09549149870872498
v 0 2 -0.09549149870872498
v 0 2 -0.09549149870872498
v 0 2 -0.09549149870872498
v 0 2 -0.09549149870872498
v 0 2 0.9045084714889526
v 0.9510565400123596 2 0.21352550387382507
v 0.5877852439880371 2 -0.9045084714889526
v -0.5877852439880371 2 -0.9045084714889526
v -0.9510565400123596 2 0.21352550387382507
v -2.4492937051703357e-16 2 0.9045084714889526
v 0 0 -0.09549149870872498
v 0 0 -0.09549149870872498
v 0 0 -0.09549149870872498
v 0 0 -0.09549149870872498
v 0 0 -0.09549149870872498
v 0 0 0.9045084714889526
v 0.9510565400123596 0 0.21352550387382507
v 0.5877852439880371 0 -0.9045084714889526
v -0.5877852439880371 0 -0.9045084714889526
v -0.9510565400123596 0 0.21352550387382507
v -2.4492937051703357e-16 0 0.9045084714889526
vt 0 1
vt 0.20000000298023224 1
vt 0.4000000059604645 1
vt 0.6000000238418579 1
vt 0.800000011920929 1
vt 1 1
vt 0 0
vt 0.20000000298023224 0
vt 0.4000000059604645 0
vt 0.6000000238418579 0
vt 0.800000011920929 0
vt 1 0
vt 0.5 0.5
vt 0.5 0.5
vt 0.5 0.5
vt 0.5 0.5
vt 0.5 0.5
vt 1 0.5
vt 0.6545084714889526 0.9755282402038574
vt 0.09549150615930557 0.7938926219940186
vt 0.09549150615930557 0.20610737800598145
vt 0.6545084714889526 0.024471741169691086
vt 1 0.5
vt 0.5 0.5
vt 0.5 0.5
vt 0.5 0.5
vt 0.5 0.5
vt 0.5 0.5
vt 1 0.5
vt 0.6545084714889526 0.024471741169691086
vt 0.09549150615930557 0.20610737800598145
vt 0.09549150615930557 0.7938926219940186
vt 0.6545084714889526 0.9755282402038574
vt 1 0.5
vn 0.5877852429542022 0 0.8090170011595983
vn 0.8516005016710274 0 0.5241913634863267
vn 0.7616946278548122 0 -0.647936180419892
vn -0.3808473417303302 0 -0.9246379303797465
vn -0.9970712325276617 0 0.07647847583320287
vn -0.5877852429542022 0 0.8090170011595983
vn 0.5877852429542022 0 0.8090170011595983
vn 0.9970712325276617 0 0.07647847583320287
vn 0.3808473417303302 0 -0.9246379303797465
vn -0.7616946528781103 0 -0.6479361510032412
vn -0.8516005016710274 0 0.5241913634863267
vn -0.5877852429542022 0 0.8090170011595983
vn 0 1 0
vn 0 1 0
vn 0 1 0
vn 0 1 0
vn 0 1 0
vn 0 1 0
vn 0 1 0
vn 0 1 0
vn 0 1 0
vn 0 1 0
vn 0 1 0
vn 0 -1 0
vn 0 -1 0
vn 0 -1 0
vn 0 -1 0
vn 0 -1 0
vn 0 -1 0
vn 0 -1 0
vn 0 -1 0
vn 0 -1 0
vn 0 -1 0
vn 0 -1 0
f 1/1/1 7/7/7 2/2/2
f 7/7/7 8/8/8 2/2/2
f 2/2/2 8/8/8 3/3/3
f 8/8/8 9/9/9 3/3/3
f 3/3/3 9/9/9 4/4/4
f 9/9/9 10/10/10 4/4/4
f 4/4/4 10/10/10 5/5/5
f 10/10/10 11/11/11 5/5/5
f 5/5/5 11/11/11 6/6/6
f 11/11/11 12/12/12 6/6/6
f 18/18/18 19/19/19 13/13/13
f 19/19/19 20/20/20 14/14/14
f 20/20/20 21/21/21 15/15/15
f 21/21/21 22/22/22 16/16/16
f 22/22/22 23/23/23 17/17/17
f 30/30/30 29/29/29 24/24/24
f 31/31/31 30/30/30 25/25/25
f 32/32/32 31/31/31 26/26/26
f 33/33/33 32/32/32 27/27/27
f 34/34/34 33/33/33 28/28/28
