o shape_029
v 0 2 0.9797464609146118
v 0.5406408309936523 2 0.8209999799728394
v 0.9096319675445557 2 0.395161509513855
v 0.9898214340209961 2 -0.1625683456659317
v 0.7557495832443237 2 -0.6751142740249634
v 0.28173255920410156 2 -0.9797464609146118
v -0.28173255920410156 2 -0.9797464609146118
v -0.7557495832443237 2 -0.6751142740249634
v -0.9898214340209961 2 -0.1625683456659317
v -0.9096319675445557 2 0.395161509513855
v -0.5406408309936523 2 0.8209999799728394
v -2.4492937051703357e-16 2 0.9797464609146118
v 0 0 0.9797464609146118
v 0.5406408309936523 0 0.8209999799728394
v 0.9096319675445557 0 0.395161509513855
v 0.9898214340209961 0 -0.1625683456659317
v 0.7557495832443237 0 -0.6751142740249634
v 0.28173255920410156 0 -0.9797464609146118
v -0.28173255920410156 0 -0.9797464609146118
v -0.7557495832443237 0 -0.6751142740249634
v -0.9898214340209961 0 -0.1625683456659317
v -0.9096319675445557 0 0.395161509513855
v -0.5406408309936523 0 0.8209999799728394
v -2.4492937051703357e-16 0 0.9797464609146118
v 0 2 -0.020253509283065796
v 0 2 -0.020253509283065796
v 0 2 -0.020253509283065796
v 0 2 -0.020253509283065796
v 0 2 -0.020253509283065796
v 0 2 -0.020253509283065796
v 0 2 -0.020253509283065796
v 0 2 -0.020253509283065796
v 0 2 -0.020253509283065796
v 0 2 -0.020253509283065796
v 0 2 -0.020253509283065796
v 0 2 0.9797464609146118
v 0.5406408309936523 2 0.8209999799728394
v 0.9096319675445557 2 0.395161509513855
v 0.9898214340209961 2 -0.1625683456659317
v 0.7557495832443237 2 -0.6751142740249634
v 0.28173255920410156 2 -0.9797464609146118
v -0.28173255920410156 2 -0.9797464609146118
v -0.7557495832443237 2 -0.6751142740249634
v -0.9898214340209961 2 -0.1625683456659317
v -0.9096319675445557 2 0.395161509513855
v -0.5406408309936523 2 0.8209999799728394
v -2.4492937051703357e-16 2 0.9797464609146118
v 0 0 -0.020253509283065796
v 0 0 -0.020253509283065796
v 0 0 -0.020253509283065796
v 0 0 -0.020253509283065796
v 0 0 -0.020253509283065796
v 0 0 -0.020253509283065796
v 0 0 -0.020253509283065796
v 0 0 -0.020253509283065796
v 0 0 -0.020253509283065796
v 0 0 -0.020253509283065796
v 0 0 -0.020253509283065796
v 0 0 0.9797464609146118
v 0.5406408309936523 0 0.8209999799728394
v 0.9096319675445557 0 0.395161509513855
v 0.9898214340209961 0 -0.1625683456659317
v 0.7557495832443237 0 -0.6751142740249634
v 0.28173255920410156 0 -0.9797464609146118
v -0.28173255920410156 0 -0.9797464609146118
v -0.7557495832443237 0 -0.6751142740249634
v -0.9898214340209961 0 -0.1625683456659317
v -0.9096319675445557 0 0.395161509513855
v -0.5406408309936523 0 0.8209999799728394
v -2.4492937051703357e-16 0 0.9797464609146118
vt 0 1
vt 0.09090909361839294 1
vt 0.1818181872367859 1
vt 0.27272728085517883 1
vt 0.3636363744735718 1
vt 0.4545454680919647 1
vt 0.5454545617103577 1
vt 0.6363636255264282 1
vt 0.7272727489471436 1
vt 0.8181818127632141 1
vt 0.9090909361839294 1
vt 1 1
vt 0 0
vt 0.09090909361839294 0
vt 0.1818181872367859 0
vt 0.27272728085517883 0
vt 0.3636363744735718 0
vt 0.4545454680919647 0
vt 0.5454545617103577 0
vt 0.6363636255264282 0
vt 0.7272727489471436 0
vt 0.8181818127632141 0
vt 0.9090909361839294 0
vt 1 0
vt 0.5 0.5
vt 0.5 0.5
vt 0.5 0.5
vt 0.5 0.5
vt 0.5 0.5
vt 0.5 0.5
vt 0.5 0.5
vt 0.5 0.5
vt 0.5 0.5
vt 0.5 0.5
vt 0.5 0.5
vt 1 0.5
vt 0.9206267595291138 0.7703204154968262
vt 0.7077075242996216 0.9548159837722778
vt 0.42884257435798645 0.994910717010498
vt 0.1725696325302124 0.8778747916221619
vt 0.020253513008356094 0.6408662796020508
vt 0.020253513008356094 0.3591337203979492
vt 0.1725696325302124 0.12212521582841873
vt 0.42884257435798645 0.005089279264211655
vt 0.7077075242996216 0.045184001326560974
vt 0.9206267595291138 0.22967958450317383
vt 1 0.5
vt 0.5 0.5
vt 0.5 0.5
vt 0.5 0.5
vt 0.5 0.5
vt 0.5 0.5
vt 0.5 0.5
vt 0.5 0.5
vt 0.5 0.5
vt 0.5 0.5
vt 0.5 0.5
vt 0.5 0.5
vt 1 0.5
vt 0.9206267595291138 0.22967958450317383
vt 0.7077075242996216 0.045184001326560974
vt 0.42884257435798645 0.005089279264211655
vt 0.1725696325302124 0.12212521582841873
vt 0.020253513008356094 0.3591337203979492
vt 0.020253513008356094 0.6408662796020508
vt 0.1725696325302124 0.8778747916221619
vt 0.42884257435798645 0.994910717010498
vt 0.7077075242996216 0.9548159837722778
vt 0.9206267595291138 0.7703204154968262
vt 1 0.5
vn 0.2817325569028331 0 0.9594929735964678
vn 0.4561231713977301 0 0.8899166548132903
vn 0.8648405089272697 0 0.5020467051165869
vn 0.9989770770699803 0 -0.04521945918206923
vn 0.8159455080128126 0 -0.5781288160554818
vn 0.3738569918590026 0 -0.9274863608906266
vn -0.18692849333081893 0 -0.9823735228420349
vn -0.6883654973733091 0 -0.7253640065691134
vn -0.9712512950100454 0 -0.23805655198147752
vn -0.9457716767026246 0 0.3248321651978237
vn -0.6200162181826503 0 0.7845889937989726
vn -0.2817325569028331 0 0.9594929735964678
vn 0.2817325569028331 0 0.9594929735964678
vn 0.6200162181826503 0 0.7845889937989726
vn 0.945771685858406 0 0.32483213854012133
vn 0.9712512984553834 0 -0.23805653792477896
vn 0.6883654973733091 0 -0.7253640065691134
vn 0.18692849333081893 0 -0.9823735228420349
vn -0.3738569918590026 0 -0.9274863608906266
vn -0.8159455080128126 0 -0.5781288160554818
vn -0.9989770770699803 0 -0.04521945918206923
vn -0.8648405089272697 0 0.5020467051165869
vn -0.4561231713977301 0 0.8899166548132903
vn -0.2817325569028331 0 0.9594929735964678
vn 0 1 0
vn 0 1 0
vn 0 1 0
vn 0 1 0
vn 0 1 0
vn 0 1 0
vn 0 1 0
vn 0 1 0
vn 0 1 0
vn 0 1 0
vn 0 1 0
vn 0 1 0
vn 0 1 0
vn 0 1 0
vn 0 1 0
vn 0 1 0
vn 0 1 0
vn 0 1 0
vn 0 1 0
vn 0 1 0
vn 0 1 0
vn 0 1 0
vn 0 1 0
vn 0 -1 0
vn 0 -1 0
vn 0 -1 0
vn 0 -1 0
vn 0 -1 0
vn 0 -1 0
vn 0 -1 0
vn 0 -1 0
vn 0 -1 0
vn 0 -1 0
vn 0 -1 0
vn 0 -1 0
vn 0 -1 0
vn 0 -1 0
vn 0 -1 0
vn 0 -1 0
vn 0 -1 0
vn 0 -1 0
vn 0 -1 0
vn 0 -1 0
vn 0 -1 0
vn 0 -1 0
vn 0 -1 0
f 1/1/1 13/13/13 2/2/2
f 13/13/13 14/14/14 2/2/2
f 2/2/2 14/14/14 3/3/3
f 14/14/14 15/15/15 3/3/3
f 3/3/3 15/15/15 4/4/4
f 15/15/15 16/16/16 4/4/4
f 4/4/4 16/16/16 5/5/5
f 16/16/16 17/17/17 5/5/5
f 5/5/5 17/17/17 6/6/6
f 17/17/17 18/18/18 6/6/6
f 6/6/6 18/18/18 7/7/7
f 18/18/18 19/19/19 7/7/7
f 7/7/7 19/19/19 8/8/8
f 19/19/19 20/20/20 8/8/8
f 8/8/8 20/20/20 9/9/9
f 20/20/20 21/21/21 9/9/9
f 9/9/9 21/21/21 10/10/10
f 21/21/21 22/22/22 10/10/10
f 10/10/10 22/22/22 11/11/11
f 22/22/22 23/23/23 11/11/11
f 11/11/11 23/23/23 12/12/12
f 23/23/23 24/24/24 12/12/12
f 36/36/36 37/37/37 25/25/25
f 37/37/37 38/38/38 26/26/26
f 38/38/38 39/39/39 27/27/27
f 39/39/39 40/40/40 28/28/28
f 40/40/40 41/41/41 29/29/29
f 41/41/41 42/42/42 30/30/30
f 42/42/42 43/43/43 31/31/31
f 43/43/43 44/44/44 32/32/32
f 44/44/44 45/45/45 33/33/33
f 45/45/45 46/46/46 34/34/34
f 46/46/46 47/47/47 35/35/35
f 60/60/60 59/59/59 48/48/48
f 61/61/61 60/60/60 49/49/49
f 62/62/62 61/61/61 50/50/50
f 63/63/63 62/62/62 51/51/51
f 64/64/64 63/63/63 52/52/52
f 65/65/65 64/64/64 53/53/53
f 66/66/66 65/65/65 54/54/54
f 67/67/67 66/66/66 55/55/55
f 68/68/68 67/67/67 56/56/56
f 69/69/69 68/68/68 57/57/57
f 70/70/70 69/69/69 58/58/58
