o shape_031
v 0 2 -0.25
v 0 2 -0.25
v 0 2 -0.25
v 0 2 -0.25
v 0 0 0.75
v 0.8660253882408142 0 -0.75
v -0.8660253882408142 0 -0.75
v -2.4492937051703357e-16 0 0.75
v 0 0 -0.25
v 0 0 -0.25
v 0 0 -0.25
v 0 0 0.75
v 0.8660253882408142 0 -0.75
v -0.8660253882408142 0 -0.75
v -2.4492937051703357e-16 0 0.75
vt 0 1
vt 0.3333333432674408 1
vt 0.6666666865348816 1
vt 1 1
vt 0 0
vt 0.3333333432674408 0
vt 0.6666666865348816 0
vt 1 0
vt 0.5 0.5
vt 0.5 0.5
vt 0.5 0.5
vt 1 0.5
vt 0.25 0.0669872984290123
vt 0.25 0.9330127239227295
vt 1 0.5
vn 0 0 0
vn 0.8401680570896751 0.24253562041323348 0.48507124082646697
vn 0 0.24253562503633297 -0.9701425001453319
vn -0.8401680570896751 0.24253562041323348 0.48507124082646697
vn 0.8401680570896751 0.24253562041323348 0.48507124082646697
vn 0.7745966817074731 0.44721358470409384 -0.44721358470409384
vn -0.7745966817074731 0.44721358470409384 -0.44721358470409384
vn -0.8401680570896751 0.24253562041323348 0.48507124082646697
vn 0 -1 0
vn 0 -1 0
vn 0 -1 0
vn 0 -1 0
vn 0 -1 0
vn 0 -1 0
vn 0 -1 0
f 5/5/5 6/6/6 2/2/2
f 6/6/6 7/7/7 3/3/3
f 7/7/7 8/8/8 4/4/4
f 13/13/13 12/12/12 9/9/9
f 14/14/14 13/13/13 10/10/10
f 15/15/15 14/14/14 11/11/11
