o shape_032
v 0 2 0
v 0 2 0
v 0 2 0
v 0 2 0
v 0 2 0
v 0 0 1
v 1 0 6.123234262925839e-17
v 1.2246468525851679e-16 0 -1
v -1 0 -1.8369701465288538e-16
v -2.4492937051703357e-16 0 1
v 0 0 0
v 0 0 0
v 0 0 0
v 0 0 0
v 0 0 1
v 1 0 6.123234262925839e-17
v 1.2246468525851679e-16 0 -1
v -1 0 -1.8369701465288538e-16
v -2.4492937051703357e-16 0 1
vt 0 1
vt 0.25 1
vt 0.5 1
vt 0.75 1
vt 1 1
vt 0 0
vt 0.25 0
vt 0.5 0
vt 0.75 0
vt 1 0
vt 0.5 0.5
vt 0.5 0.5
vt 0.5 0.5
vt 0.5 0.5
vt 1 0.5
vt 0.5 0
vt 0 0.5
vt 0.5 1
vt 1 0.5
vn 0 0 0
vn 0.6666666666666666 0.3333333333333333 0.6666666666666666
vn 0.6666666666666666 0.3333333333333333 -0.6666666666666666
vn -0.6666666666666666 0.3333333333333333 -0.6666666666666666
vn -0.6666666666666666 0.3333333333333333 0.6666666666666666
vn 0.6666666666666666 0.3333333333333333 0.6666666666666666
vn 0.8944271909999159 0.4472135954999579 4.965068306494546e-17
vn 9.930136612989092e-17 0.4472135954999579 -0.8944271909999159
vn -0.8944271909999159 0.4472135954999579 -9.930136612989092e-17
vn -0.6666666666666666 0.3333333333333333 0.6666666666666666
vn 0 -1 0
vn 0 -1 0
vn 0 -1 0
vn 0 -1 0
vn 0 -1 0
vn 0 -1 0
vn 0 -1 0
vn 0 -1 0
vn 0 -1 0
f 6/6/6 7/7/7 2/2/2
f 7/7/7 8/8/8 3/3/3
f 8/8/8 9/9/9 4/4/4
f 9/9/9 10/10/10 5/5/5
f 16/16/16 15/15/15 11/11/11
f 17/17/17 16/16/16 12/12/12
f 18/18/18 17/17/17 13/13/13
f 19/19/19 18/18/18 14/14/14
