o shape_033
v 0 2 -0.09549149870872498
v 0 2 -0.09549149870872498
v 0 2 -0.09549149870872498
v 0 2 -0.09549149870872498
v 0 2 -0.09549149870872498
v 0 2 -0.09549149870872498
v 0 0 0.9045084714889526
v 0.9510565400123596 0 0.21352550387382507
v 0.5877852439880371 0 -0.9045084714889526
v -0.5877852439880371 0 -0.9045084714889526
v -0.9510565400123596 0 0.21352550387382507
v -2.4492937051703357e-16 0 0.9045084714889526
v 0 0 -0.09549149870872498
v 0 0 -0.09549149870872498
v 0 0 -0.09549149870872498
v 0 0 -0.09549149870872498
v 0 0 -0.09549149870872498
v 0 0 0.9045084714889526
v 0.9510565400123596 0 0.21352550387382507
v 0.5877852439880371 0 -0.9045084714889526
v -0.5877852439880371 0 -0.9045084714889526
v -0.9510565400123596 0 0.21352550387382507
v -2.4492937051703357e-16 0 0.9045084714889526
vt 0 1
vt 0.20000000298023224 1
vt 0.4000000059604645 1
vt 0.6000000238418579 1
vt 0.800000011920929 1
vt 1 1
vt 0 0
vt 0.20000000298023224 0
vt 0.4000000059604645 0
vt 0.6000000238418579 0
vt 0.800000011920929 0
vt 1 0
vt 0.5 0.5
vt 0.5 0.5
vt 0.5 0.5
vt 0.5 0.5
vt 0.5 0.5
vt 1 0.5
vt 0.6545084714889526 0.024471741169691086
vt 0.09549150615930557 0.20610737800598145
vt 0.09549150615930557 0.7938926219940186
vt 0.6545084714889526 0.9755282402038574
vt 1 0.5
vn 0 0 0
vn 0.5448936714610472 0.37499090303678045 0.7499818060735609
vn 0.8816564741978434 0.37499091296410286 -0.2864675840289368
vn 0 0.37499091398042805 -0.9270284863110319
vn -0.8816564741978434 0.37499091296410286 -0.2864675840289368
vn -0.5448936714610472 0.37499090303678045 0.7499818060735609
vn 0.5448936714610472 0.37499090303678045 0.7499818060735609
vn 0.8506507926183177 0.4472136227153039 0.27639320663808237
vn 0.525731143486485 0.44721361752383 -0.7236067613487607
vn -0.525731143486485 0.44721361752383 -0.7236067613487607
vn -0.8506507926183177 0.4472136227153039 0.27639320663808237
vn -0.5448936714610472 0.37499090303678045 0.7499818060735609
vn 0 -1 0
vn 0 -1 0
vn 0 -1 0
vn 0 -1 0
vn 0 -1 0
vn 0 -1 0
vn 0 -1 0
vn 0 -1 0
vn 0 -1 0
vn 0 -1 0
vn 0 -1 0
f 7/7/7 8/8/8 2/2/2
f 8/8/8 9/9/9 3/3/3
f 9/9/9 10/10/10 4/4/4
f 10/10/10 11/11/11 5/5/5
f 11/11/11 12/12/12 6/6/6
f 19/19/19 18/18/18 13/13/13
f 20/20/20 19/19/19 14/14/14
f 21/21/21 20/20/20 15/15/15
f 22/22/22 21/21/21 16/16/16
f 23/23/23 22/22/22 17/17/17
