o shape_034
v 0 2 0
v 0 2 0
v 0 2 0
v 0 2 0
v 0 2 0
v 0 2 0
v 0 2 0
v 0 0 1
v 0.8660253882408142 0 0.5
v 0.8660253882408142 0 -0.5
v 1.2246468525851679e-16 0 -1
v -0.8660253882408142 0 -0.5
v -0.8660253882408142 0 0.5
v -2.4492937051703357e-16 0 1
v 0 0 0
v 0 0 0
v 0 0 0
v 0 0 0
v 0 0 0
v 0 0 0
v 0 0 1
v 0.8660253882408142 0 0.5
v 0.8660253882408142 0 -0.5
v 1.2246468525851679e-16 0 -1
v -0.8660253882408142 0 -0.5
v -0.8660253882408142 0 0.5
v -2.4492937051703357e-16 0 1
vt 0 1
vt 0.1666666716337204 1
vt 0.3333333432674408 1
vt 0.5 1
vt 0.6666666865348816 1
vt 0.8333333134651184 1
vt 1 1
vt 0 0
vt 0.1666666716337204 0
vt 0.3333333432674408 0
vt 0.5 0
vt 0.6666666865348816 0
vt 0.8333333134651184 0
vt 1 0
vt 0.5 0.5
vt 0.5 0.5
vt 0.5 0.5
vt 0.5 0.5
vt 0.5 0.5
vt 0.5 0.5
vt 1 0.5
vt 0.75 0.0669872984290123
vt 0.25 0.0669872984290123
vt 0 0.5
vt 0.25 0.9330127239227295
vt 0.75 0.9330127239227295
vt 1 0.5
vn 0 0 0
vn 0.4588314919843654 0.39735970152077604 0.7947194030415521
vn 0.9176629357682843 0.39735970645893887 0
vn 0.4588314919843654 0.39735970152077604 -0.7947194030415521
vn -0.4588314919843654 0.39735970152077604 -0.7947194030415521
vn -0.9176629357682843 0.39735970645893887 0
vn -0.4588314919843654 0.39735970152077604 0.7947194030415521
vn 0.4588314919843654 0.39735970152077604 0.7947194030415521
vn 0.7745966817074731 0.44721358470409384 0.44721358470409384
vn 0.7745966817074731 0.44721358470409384 -0.44721358470409384
vn 0 0.4472135954999579 -0.8944271909999159
vn -0.7745966817074731 0.44721358470409384 -0.44721358470409384
vn -0.7745966817074731 0.44721358470409384 0.44721358470409384
vn -0.4588314919843654 0.39735970152077604 0.7947194030415521
vn 0 -1 0
vn 0 -1 0
vn 0 -1 0
vn 0 -1 0
vn 0 -1 0
vn 0 -1 0
vn 0 -1 0
vn 0 -1 0
vn 0 -1 0
vn 0 -1 0
vn 0 -1 0
vn 0 -1 0
vn 0 -1 0
f 8/8/8 9/9/9 2/2/2
f 9/9/9 10/10/10 3/3/3
f 10/10/10 11/11/11 4/4/4
f 11/11/11 12/12/12 5/5/5
f 12/12/12 13/13/13 6/6/6
f 13/13/13 14/14/14 7/7/7
f 22/22/22 21/21/21 15/15/15
f 23/23/23 22/22/22 16/16/16
f 24/24/24 23/23/23 17/17/17
f 25/25/25 24/24/24 18/18/18
f 26/26/26 25/25/25 19/19/19
f 27/27/27 26/26/26 20/20/20
