o shape_035
v 0 2 -0.04951557517051697
v 0 2 -0.04951557517051697
v 0 2 -0.04951557517051697
v 0 2 -0.04951557517051697
v 0 2 -0.04951557517051697
v 0 2 -0.04951557517051697
v 0 2 -0.04951557517051697
v 0 2 -0.04951557517051697
v 0 0 0.9504843950271606
v 0.7818315029144287 0 0.5739742517471313
v 0.9749279022216797 0 -0.27203649282455444
v 0.4338837265968323 0 -0.9504843950271606
v -0.4338837265968323 0 -0.9504843950271606
v -0.9749279022216797 0 -0.27203649282455444
v -0.7818315029144287 0 0.5739742517471313
v -2.4492937051703357e-16 0 0.9504843950271606
v 0 0 -0.04951557517051697
v 0 0 -0.04951557517051697
v 0 0 -0.04951557517051697
v 0 0 -0.04951557517051697
v 0 0 -0.04951557517051697
v 0 0 -0.04951557517051697
v 0 0 -0.04951557517051697
v 0 0 0.9504843950271606
v 0.7818315029144287 0 0.5739742517471313
v 0.9749279022216797 0 -0.27203649282455444
v 0.4338837265968323 0 -0.9504843950271606
v -0.4338837265968323 0 -0.9504843950271606
v -0.9749279022216797 0 -0.27203649282455444
v -0.7818315029144287 0 0.5739742517471313
v -2.4492937051703357e-16 0 0.9504843950271606
vt 0 1
vt 0.1428571492433548 1
vt 0.2857142984867096 1
vt 0.4285714328289032 1
vt 0.5714285969734192 1
vt 0.7142857313156128 1
vt 0.8571428656578064 1
vt 1 1
vt 0 0
vt 0.1428571492433548 0
vt 0.2857142984867096 0
vt 0.4285714328289032 0
vt 0.5714285969734192 0
vt 0.7142857313156128 0
vt 0.8571428656578064 0
vt 1 0
vt 0.5 0.5
vt 0.5 0.5
vt 0.5 0.5
vt 0.5 0.5
vt 0.5 0.5
vt 0.5 0.5
vt 0.5 0.5
vt 1 0.5
vt 0.8117449283599854 0.10908425599336624
vt 0.38873952627182007 0.012536044232547283
vt 0.04951556771993637 0.28305813670158386
vt 0.04951556771993637 0.7169418931007385
vt 0.38873952627182007 0.9874639511108398
vt 0.8117449283599854 0.8909157514572144
vt 1 0.5
vn 0 0 0
vn 0.39559615649805063 0.41073195175539234 0.8214639035107847
vn 0.8888965144378635 0.4107319664268057 0.20288479089223563
vn 0.7128396627977818 0.4107319413285002 -0.5684706566876309
vn 0 0.41073193752677617 -0.9117561491404927
vn -0.7128396627977818 0.4107319413285002 -0.5684706566876309
vn -0.8888965144378635 0.4107319664268057 0.20288479089223563
vn -0.39559615649805063 0.41073195175539234 0.8214639035107847
vn 0.39559615649805063 0.41073195175539234 0.8214639035107847
vn 0.6992913404710945 0.4472135850377178 0.5576662357538347
vn 0.8720020148008369 0.4472136246779116 -0.1990287921023617
vn 0.38807741347006325 0.44721359636190394 -0.805851053472934
vn -0.38807741347006325 0.44721359636190394 -0.805851053472934
vn -0.872002040704899 0.44721357759196134 -0.1990287844104231
vn -0.6992913404710945 0.4472135850377178 0.5576662357538347
vn -0.39559615649805063 0.41073195175539234 0.8214639035107847
vn 0 -1 0
vn 0 -1 0
vn 0 -1 0
vn 0 -1 0
vn 0 -1 0
vn 0 -1 0
vn 0 -1 0
vn 0 -1 0
vn 0 -1 0
vn 0 -1 0
vn 0 -1 0
vn 0 -1 0
vn 0 -1 0
vn 0 -1 0
vn 0 -1 0
f 9/9/9 10/10/10 2/2/2
f 10/10/10 11/11/11 3/3/3
f 11/11/11 12/12/12 4/4/4
f 12/12/12 13/13/13 5/5/5
f 13/13/13 14/14/14 6/6/6
f 14/14/14 15/15/15 7/7/7
f 15/15/15 16/16/16 8/8/8
f 25/25/25 24/24/24 17/17/17
f 26/26/26 25/25/25 18/18/18
f 27/27/27 26/26/26 19/19/19
f 28/28/28 27/27/27 20/20/20
f 29/29/29 28/28/28 21/21/21
f 30/30/30 29/29/29 22/22/22
f 31/31/31 30/30/30 23/23/23
