o shape_037
v 0 2 -0.03015369176864624
v 0 2 -0.03015369176864624
v 0 2 -0.03015369176864624
v 0 2 -0.03015369176864624
v 0 2 -0.03015369176864624
v 0 2 -0.03015369176864624
v 0 2 -0.03015369176864624
v 0 2 -0.03015369176864624
v 0 2 -0.03015369176864624
v 0 2 -0.03015369176864624
v 0 0 0.9698463082313538
v 0.6427876353263855 0 0.7358907461166382
v 0.9848077297210693 0 0.14349448680877686
v 0.8660253882408142 0 -0.5301536917686462
v 0.3420201539993286 0 -0.9698463082313538
v -0.3420201539993286 0 -0.9698463082313538
v -0.8660253882408142 0 -0.5301536917686462
v -0.9848077297210693 0 0.14349448680877686
v -0.6427876353263855 0 0.7358907461166382
v -2.4492937051703357e-16 0 0.9698463082313538
v 0 0 -0.03015369176864624
v 0 0 -0.03015369176864624
v 0 0 -0.03015369176864624
v 0 0 -0.03015369176864624
v 0 0 -0.03015369176864624
v 0 0 -0.03015369176864624
v 0 0 -0.03015369176864624
v 0 0 -0.03015369176864624
v 0 0 -0.03015369176864624
v 0 0 0.9698463082313538
v 0.6427876353263855 0 0.7358907461166382
v 0.9848077297210693 0 0.14349448680877686
v 0.8660253882408142 0 -0.5301536917686462
v 0.3420201539993286 0 -0.9698463082313538
v -0.3420201539993286 0 -0.9698463082313538
v -0.8660253882408142 0 -0.5301536917686462
v -0.9848077297210693 0 0.14349448680877686
v -0.6427876353263855 0 0.7358907461166382
v -2.4492937051703357e-16 0 0.9698463082313538
vt 0 1
vt 0.1111111119389534 1
vt 0.2222222238779068 1
vt 0.3333333432674408 1
vt 0.4444444477558136 1
vt 0.5555555820465088 1
vt 0.6666666865348816 1
vt 0.7777777910232544 1
vt 0.8888888955116272 1
vt 1 1
vt 0 0
vt 0.1111111119389534 0
vt 0.2222222238779068 0
vt 0.3333333432674408 0
vt 0.4444444477558136 0
vt 0.5555555820465088 0
vt 0.6666666865348816 0
vt 0.7777777910232544 0
vt 0.8888888955116272 0
vt 1 0
vt 0.5 0.5
vt 0.5 0.5
vt 0.5 0.5
vt 0.5 0.5
vt 0.5 0.5
vt 0.5 0.5
vt 0.5 0.5
vt 0.5 0.5
vt 0.5 0.5
vt 1 0.5
vt 0.8830222487449646 0.17860619723796844
vt 0.5868240594863892 0.007596123497933149
vt 0.25 0.0669872984290123
vt 0.03015368990600109 0.3289899230003357
vt 0.03015368990600109 0.6710100769996643
vt 0.25 0.9330127239227295
vt 0.5868240594863892 0.9924038648605347
vt 0.8830222487449646 0.8213937878608704
vt 1 0.5
vn 0 0 0
vn 0.30955464481896966 0.425247203840543 0.850494407681086
vn 0.7838199146015179 0.42524719278286577 0.45253858012810505
vn 0.8913270907916515 0.42524719604729955 -0.15716500715744786
vn 0.5817724458512186 0.4252471918118179 -0.6933293929327199
vn 0 0.4252472036520224 -0.9050772429942847
vn -0.5817724458512186 0.4252471918118179 -0.6933293929327199
vn -0.8913270907916515 0.42524719604729955 -0.15716500715744786
vn -0.7838199146015179 0.42524719278286577 0.45253858012810505
vn -0.30955464481896966 0.425247203840543 0.850494407681086
vn 0.30955464481896966 0.425247203840543 0.850494407681086
vn 0.574926733977418 0.4472136199527042 0.6851709485134768
vn 0.8808388315889089 0.44721360039653146 0.15531564114878163
vn 0.7745967023551275 0.4472135668226993 -0.4472135668226993
vn 0.30591213207711127 0.4472135829021992 -0.8404866320863252
vn -0.30591214332516475 0.44721362914807505 -0.8404866033854507
vn -0.7745967023551275 0.4472135668226993 -0.4472135668226993
vn -0.8808388315889089 0.44721360039653146 0.15531564114878163
vn -0.5749267181603973 0.44721357784692434 0.6851709892681301
vn -0.30955464481896966 0.425247203840543 0.850494407681086
vn 0 -1 0
vn 0 -1 0
vn 0 -1 0
vn 0 -1 0
vn 0 -1 0
vn 0 -1 0
vn 0 -1 0
vn 0 -1 0
vn 0 -1 0
vn 0 -1 0
vn 0 -1 0
vn 0 -1 0
vn 0 -1 0
vn 0 -1 0
vn 0 -1 0
vn 0 -1 0
vn 0 -1 0
vn 0 -1 0
vn 0 -1 0
f 11/11/11 12/12/12 2/2/2
f 12/12/12 13/13/13 3/3/3
f 13/13/13 14/14/14 4/4/4
f 14/14/14 15/15/15 5/5/5
f 15/15/15 16/16/16 6/6/6
f 16/16/16 17/17/17 7/7/7
f 17/17/17 18/18/18 8/8/8
f 18/18/18 19/19/19 9/9/9
f 19/19/19 20/20/20 10/10/10
f 31/31/31 30/30/30 21/21/21
f 32/32/32 31/31/31 22/22/22
f 33/33/33 32/32/32 23/23/23
f 34/34/34 33/33/33 24/24/24
f 35/35/35 34/34/34 25/25/25
f 36/36/36 35/35/35 26/26/26
f 37/37/37 36/36/36 27/27/27
f 38/38/38 37/37/37 28/28/28
f 39/39/39 38/38/38 29/29/29
