o shape_038
v 0 2 0
v 0 2 0
v 0 2 0
v 0 2 0
v 0 2 0
v 0 2 0
v 0 2 0
v 0 2 0
v 0 2 0
v 0 2 0
v 0 2 0
v 0 0 1
v 0.5877852439880371 0 0.80901700258255
v 0.9510565400123596 0 0.30901700258255005
v 0.9510565400123596 0 -0.30901700258255005
v 0.5877852439880371 0 -0.80901700258255
v 1.2246468525851679e-16 0 -1
v -0.5877852439880371 0 -0.80901700258255
v -0.9510565400123596 0 -0.30901700258255005
v -0.9510565400123596 0 0.30901700258255005
v -0.5877852439880371 0 0.80901700258255
v -2.4492937051703357e-16 0 1
v 0 0 0
v 0 0 0
v 0 0 0
v 0 0 0
v 0 0 0
v 0 0 0
v 0 0 0
v 0 0 0
v 0 0 0
v 0 0 0
v 0 0 1
v 0.5877852439880371 0 0.80901700258255
v 0.9510565400123596 0 0.30901700258255005
v 0.9510565400123596 0 -0.30901700258255005
v 0.5877852439880371 0 -0.80901700258255
v 1.2246468525851679e-16 0 -1
v -0.5877852439880371 0 -0.80901700258255
v -0.9510565400123596 0 -0.30901700258255005
v -0.9510565400123596 0 0.30901700258255005
v -0.5877852439880371 0 0.80901700258255
v -2.4492937051703357e-16 0 1
vt 0 1
vt 0.10000000149011612 1
vt 0.20000000298023224 1
vt 0.30000001192092896 1
vt 0.4000000059604645 1
vt 0.5 1
vt 0.6000000238418579 1
vt 0.699999988079071 1
vt 0.800000011920929 1
vt 0.8999999761581421 1
vt 1 1
vt 0 0
vt 0.10000000149011612 0
vt 0.20000000298023224 0
vt 0.30000001192092896 0
vt 0.4000000059604645 0
vt 0.5 0
vt 0.6000000238418579 0
vt 0.699999988079071 0
vt 0.800000011920929 0
vt 0.8999999761581421 0
vt 1 0
vt 0.5 0.5
vt 0.5 0.5
vt 0.5 0.5
vt 0.5 0.5
vt 0.5 0.5
vt 0.5 0.5
vt 0.5 0.5
vt 0.5 0.5
vt 0.5 0.5
vt 0.5 0.5
vt 1 0.5
vt 0.9045084714889526 0.20610737800598145
vt 0.6545084714889526 0.024471741169691086
vt 0.345491498708725 0.024471741169691086
vt 0.09549150615930557 0.20610737800598145
vt 0 0.5
vt 0.09549150615930557 0.7938926219940186
vt 0.345491498708725 0.9755282402038574
vt 0.6545084714889526 0.9755282402038574
vt 0.9045084714889526 0.7938926219940186
vt 1 0.5
vn 0 0 0
vn 0.2790709468403496 0.42944601677734323 0.8588920335546865
vn 0.7306171741831817 0.42944604664936714 0.530824488702068
vn 0.9030925159217631 0.42944604746824705 0
vn 0.7306171741831817 0.42944604664936714 -0.530824488702068
vn 0.2790709468403496 0.42944601677734323 -0.8588920335546865
vn -0.2790709468403496 0.42944601677734323 -0.8588920335546865
vn -0.7306171741831817 0.42944604664936714 -0.530824488702068
vn -0.9030925159217631 0.42944604746824705 0
vn -0.7306171741831817 0.42944604664936714 0.530824488702068
vn -0.2790709468403496 0.42944601677734323 0.8588920335546865
vn 0.2790709468403496 0.42944601677734323 0.8588920335546865
vn 0.5257310846881514 0.4472135884073968 0.7236068220631969
vn 0.8506507926183177 0.4472136227153039 0.27639320663808237
vn 0.8506507926183177 0.4472136227153039 -0.27639320663808237
vn 0.5257310846881514 0.4472135884073968 -0.7236068220631969
vn 0 0.4472135954999579 -0.8944271909999159
vn -0.5257310846881514 0.4472135884073968 -0.7236068220631969
vn -0.8506507926183177 0.4472136227153039 -0.27639320663808237
vn -0.8506507926183177 0.4472136227153039 0.27639320663808237
vn -0.5257310846881514 0.4472135884073968 0.7236068220631969
vn -0.2790709468403496 0.42944601677734323 0.8588920335546865
vn 0 -1 0
vn 0 -1 0
vn 0 -1 0
vn 0 -1 0
vn 0 -1 0
vn 0 -1 0
vn 0 -1 0
vn 0 -1 0
vn 0 -1 0
vn 0 -1 0
vn 0 -1 0
vn 0 -1 0
vn 0 -1 0
vn 0 -1 0
vn 0 -1 0
vn 0 -1 0
vn 0 -1 0
vn 0 -1 0
vn 0 -1 0
vn 0 -1 0
vn 0 -1 0
f 12/12/12 13/13/13 2/2/2
f 13/13/13 14/14/14 3/3/3
f 14/14/14 15/15/15 4/4/4
f 15/15/15 16/16/16 5/5/5
f 16/16/16 17/17/17 6/6/6
f 17/17/17 18/18/18 7/7/7
f 18/18/18 19/19/19 8/8/8
f 19/19/19 20/20/20 9/9/9
f 20/20/20 21/21/21 10/10/10
f 21/21/21 22/22/22 11/11/11
f 34/34/34 33/33/33 23/23/23
f 35/35/35 34/34/34 24/24/24
f 36/36/36 35/35/35 25/25/25
f 37/37/37 36/36/36 26/26/26
f 38/38/38 37/37/37 27/27/27
f 39/39/39 38/38/38 28/28/28
f 40/40/40 39/39/39 29/29/29
f 41/41/41 40/40/40 30/30/30
f 42/42/42 41/41/41 31/31/31
f 43/43/43 42/42/42 32/32/32
