o shape_039
v 0 2 -0.020253509283065796
v 0 2 -0.020253509283065796
v 0 2 -0.020253509283065796
v 0 2 -0.020253509283065796
v 0 2 -0.020253509283065796
v 0 2 -0.020253509283065796
v 0 2 -0.020253509283065796
v 0 2 -0.020253509283065796
v 0 2 -0.020253509283065796
v 0 2 -0.020253509283065796
v 0 2 -0.020253509283065796
v 0 2 -0.020253509283065796
v 0 0 0.9797464609146118
v 0.5406408309936523 0 0.8209999799728394
v 0.9096319675445557 0 0.395161509513855
v 0.9898214340209961 0 -0.1625683456659317
v 0.7557495832443237 0 -0.6751142740249634
v 0.28173255920410156 0 -0.9797464609146118
v -0.28173255920410156 0 -0.9797464609146118
v -0.7557495832443237 0 -0.6751142740249634
v -0.9898214340209961 0 -0.1625683456659317
v -0.9096319675445557 0 0.395161509513855
v -0.5406408309936523 0 0.8209999799728394
v -2.4492937051703357e-16 0 0.9797464609146118
v 0 0 -0.020253509283065796
v 0 0 -0.020253509283065796
v 0 0 -0.020253509283065796
v 0 0 -0.020253509283065796
v 0 0 -0.020253509283065796
v 0 0 -0.020253509283065796
v 0 0 -0.020253509283065796
v 0 0 -0.020253509283065796
v 0 0 -0.020253509283065796
v 0 0 -0.020253509283065796
v 0 0 -0.020253509283065796
v 0 0 0.9797464609146118
v 0.5406408309936523 0 0.8209999799728394
v 0.9096319675445557 0 0.395161509513855
v 0.9898214340209961 0 -0.1625683456659317
v 0.7557495832443237 0 -0.6751142740249634
v 0.28173255920410156 0 -0.9797464609146118
v -0.28173255920410156 0 -0.9797464609146118
v -0.7557495832443237 0 -0.6751142740249634
v -0.9898214340209961 0 -0.1625683456659317
v -0.9096319675445557 0 0.395161509513855
v -0.5406408309936523 0 0.8209999799728394
v -2.4492937051703357e-16 0 0.9797464609146118
vt 0 1
vt 0.09090909361839294 1
vt 0.1818181872367859 1
vt 0.27272728085517883 1
vt 0.3636363744735718 1
vt 0.4545454680919647 1
vt 0.5454545617103577 1
vt 0.6363636255264282 1
vt 0.7272727489471436 1
vt 0.8181818127632141 1
vt 0.9090909361839294 1
vt 1 1
vt 0 0
vt 0.09090909361839294 0
vt 0.1818181872367859 0
vt 0.27272728085517883 0
vt 0.3636363744735718 0
vt 0.4545454680919647 0
vt 0.5454545617103577 0
vt 0.6363636255264282 0
vt 0.7272727489471436 0
vt 0.8181818127632141 0
vt 0.9090909361839294 0
vt 1 0
vt 0.5 0.5
vt 0.5 0.5
vt 0.5 0.5
vt 0.5 0.5
vt 0.5 0.5
vt 0.5 0.5
vt 0.5 0.5
vt 0.5 0.5
vt 0.5 0.5
vt 0.5 0.5
vt 0.5 0.5
vt 1 0.5
vt 0.9206267595291138 0.22967958450317383
vt 0.7077075242996216 0.045184001326560974
vt 0.42884257435798645 0.005089279264211655
vt 0.1725696325302124 0.12212521582841873
vt 0.020253513008356094 0.3591337203979492
vt 0.020253513008356094 0.6408662796020508
vt 0.1725696325302124 0.8778747916221619
vt 0.42884257435798645 0.994910717010498
vt 0.7077075242996216 0.9548159837722778
vt 0.9206267595291138 0.7703204154968262
vt 1 0.5
vn 0 0 0
vn 0.25401354469634013 0.432545285284859 0.865090570569718
vn 0.6813930677947396 0.43254526236163965 0.590430421954843
vn 0.892435081585899 0.4325453080466047 0.1283128272685058
vn 0.820135309120749 0.4325453115395264 -0.37454322607489193
vn 0.4874483721740686 0.432545311111456 -0.7584844351075007
vn 0 0.4325452957596519 -0.9016122043962113
vn -0.4874483721740686 0.432545311111456 -0.7584844351075007
vn -0.820135309120749 0.4325453115395264 -0.37454322607489193
vn -0.892435081585899 0.4325453080466047 0.1283128272685058
vn -0.6813930677947396 0.43254526236163965 0.590430421954843
vn -0.25401354469634013 0.432545285284859 0.865090570569718
vn 0.25401354469634013 0.432545285284859 0.865090570569718
vn 0.48356383642748085 0.4472136162834749 0.7524400291785343
vn 0.8135996006205274 0.44721356811170515 0.37155849386996337
vn 0.8853232201794946 0.44721358697667146 -0.12729023306785664
vn 0.6759629695741477 0.4472136100316006 -0.5857252348729763
vn 0.2519892724394636 0.44721358521562676 -0.8581966067131791
vn -0.2519892724394636 0.44721358521562676 -0.8581966067131791
vn -0.6759629695741477 0.4472136100316006 -0.5857252348729763
vn -0.8853232201794946 0.44721358697667146 -0.12729023306785664
vn -0.8135995789332107 0.44721361579542135 0.3715584839656975
vn -0.4835638428724216 0.4472135924416172 0.752440039207058
vn -0.25401354469634013 0.432545285284859 0.865090570569718
vn 0 -1 0
vn 0 -1 0
vn 0 -1 0
vn 0 -1 0
vn 0 -1 0
vn 0 -1 0
vn 0 -1 0
vn 0 -1 0
vn 0 -1 0
vn 0 -1 0
vn 0 -1 0
vn 0 -1 0
vn 0 -1 0
vn 0 -1 0
vn 0 -1 0
vn 0 -1 0
vn 0 -1 0
vn 0 -1 0
vn 0 -1 0
vn 0 -1 0
vn 0 -1 0
vn 0 -1 0
vn 0 -1 0
f 13/13/13 14/14/14 2/2/2
f 14/14/14 15/15/15 3/3/3
f 15/15/15 16/16/16 4/4/4
f 16/16/16 17/17/17 5/5/5
f 17/17/17 18/18/18 6/6/6
f 18/18/18 19/19/19 7/7/7
f 19/19/19 20/20/20 8/8/8
f 20/20/20 21/21/21 9/9/9
f 21/21/21 22/22/22 10/10/10
f 22/22/22 23/23/23 11/11/11
f 23/23/23 24/24/24 12/12/12
f 37/37/37 36/36/36 25/25/25
f 38/38/38 37/37/37 26/26/26
f 39/39/39 38/38/38 27/27/27
f 40/40/40 39/39/39 28/28/28
f 41/41/41 40/40/40 29/29/29
f 42/42/42 41/41/41 30/30/30
f 43/43/43 42/42/42 31/31/31
f 44/44/44 43/43/43 32/32/32
f 45/45/45 44/44/44 33/33/33
f 46/46/46 45/45/45 34/34/34
f 47/47/47 46/46/46 35/35/35
