o shape_041
v 0 1.8475209474563599 0.28867512941360474
v 0.5 1.8475209474563599 -0.5773502588272095
v -0.5 1.8475209474563599 -0.5773502588272095
v -1.414100461966271e-16 1.8475209474563599 0.28867512941360474
v 0 0 0.866025447845459
v 1 0 -0.866025447845459
v -1 0 -0.866025447845459
v -2.828200923932542e-16 0 0.866025447845459
v 0 1.8475209474563599 -0.28867512941360474
v 0 1.8475209474563599 -0.28867512941360474
v 0 1.8475209474563599 -0.28867512941360474
v 0 1.8475209474563599 0.28867512941360474
v 0.5 1.8475209474563599 -0.5773502588272095
v -0.5 1.8475209474563599 -0.5773502588272095
v -1.414100461966271e-16 1.8475209474563599 0.28867512941360474
v 0 0 -0.28867512941360474
v 0 0 -0.28867512941360474
v 0 0 -0.28867512941360474
v 0 0 0.866025447845459
v 1 0 -0.866025447845459
v -1 0 -0.866025447845459
v -2.828200923932542e-16 0 0.866025447845459
vt 0 1
vt 0.3333333432674408 1
vt 0.6666666865348816 1
vt 1 1
vt 0 0
vt 0.3333333432674408 0
vt 0.6666666865348816 0
vt 1 0
vt 0.5 0.5
vt 0.5 0.5
vt 0.5 0.5
vt 1 0.5
vt 0.25 0.9330127239227295
vt 0.25 0.0669872984290123
vt 1 0.5
vt 0.5 0.5
vt 0.5 0.5
vt 0.5 0.5
vt 1 0.5
vt 0.25 0.0669872984290123
vt 0.25 0.9330127239227295
vt 1 0.5
vn 0.8556435218007635 0.15437688131589464 0.49400601425039825
vn 0.9556773786053859 0.2299002232321406 0.1839201875264091
vn -0.31855914336570096 0.22990024335095874 -0.919600973403835
vn -0.8556435237690814 0.15437686676986098 0.4940060153868071
vn 0.8556435237690814 0.15437686676986098 0.4940060153868071
vn 0.627853446384742 0.28319635681710603 -0.7249826710676057
vn -0.9417801475947876 0.2831963293662822 -0.18124566927186042
vn -0.8556435218007635 0.15437688131589464 0.49400601425039825
vn 0 1 0
vn 0 1 0
vn 0 1 0
vn 0 1 0
vn 0 1 0
vn 0 1 0
vn 0 1 0
vn 0 -1 0
vn 0 -1 0
vn 0 -1 0
vn 0 -1 0
vn 0 -1 0
vn 0 -1 0
vn 0 -1 0
f 1/1/1 5/5/5 2/2/2
f 5/5/5 6/6/6 2/2/2
f 2/2/2 6/6/6 3/3/3
f 6/6/6 7/7/7 3/3/3
f 3/3/3 7/7/7 4/4/4
f 7/7/7 8/8/8 4/4/4
f 12/12/12 13/13/13 9/9/9
f 13/13/13 14/14/14 10/10/10
f 14/14/14 15/15/15 11/11/11
f 20/20/20 19/19/19 16/16/16
f 21/21/21 20/20/20 17/17/17
f 22/22/22 21/21/21 18/18/18
