o shape_042
v 0 1.600000023841858 0.5
v 0.5 1.600000023841858 3.0616171314629196e-17
v 6.123234262925839e-17 1.600000023841858 -0.5
v -0.5 1.600000023841858 -9.184850732644269e-17
v -1.2246468525851679e-16 1.600000023841858 0.5
v 0 0 1
v 1 0 6.123234262925839e-17
v 1.2246468525851679e-16 0 -1
v -1 0 -1.8369701465288538e-16
v -2.4492937051703357e-16 0 1
v 0 1.600000023841858 0
v 0 1.600000023841858 0
v 0 1.600000023841858 0
v 0 1.600000023841858 0
v 0 1.600000023841858 0.5
v 0.5 1.600000023841858 3.0616171314629196e-17
v 6.123234262925839e-17 1.600000023841858 -0.5
v -0.5 1.600000023841858 -9.184850732644269e-17
v -1.2246468525851679e-16 1.600000023841858 0.5
v 0 0 0
v 0 0 0
v 0 0 0
v 0 0 0
v 0 0 1
v 1 0 6.123234262925839e-17
v 1.2246468525851679e-16 0 -1
v -1 0 -1.8369701465288538e-16
v -2.4492937051703357e-16 0 1
vt 0 1
vt 0.25 1
vt 0.5 1
vt 0.75 1
vt 1 1
vt 0 0
vt 0.25 0
vt 0.5 0
vt 0.75 0
vt 1 0
vt 0.5 0.5
vt 0.5 0.5
vt 0.5 0.5
vt 0.5 0.5
vt 1 0.5
vt 0.5 1
vt 0 0.5
vt 0.5 0
vt 1 0.5
vt 0.5 0.5
vt 0.5 0.5
vt 0.5 0.5
vt 0.5 0.5
vt 1 0.5
vt 0.5 0
vt 0 0.5
vt 0.5 1
vt 1 0.5
vn 0.6904509637583429 0.2157659224491919 0.6904509637583429
vn 0.8614110348274772 0.26919093720771575 0.43070554721606097
vn 0.43070554721606097 0.26919093720771575 -0.8614110348274772
vn -0.8614110348274772 0.26919093720771575 -0.43070554721606097
vn -0.6904509637583429 0.2157659224491919 0.6904509637583429
vn 0.6904509637583429 0.2157659224491919 0.6904509637583429
vn 0.93755007191284 0.2929843974727625 -0.187510014382568
vn -0.187510014382568 0.2929843974727625 -0.93755007191284
vn -0.93755007191284 0.2929843974727625 0.187510014382568
vn -0.6904509637583429 0.2157659224491919 0.6904509637583429
vn 0 1 0
vn 0 1 0
vn 0 1 0
vn 0 1 0
vn 0 1 0
vn 0 1 0
vn 0 1 0
vn 0 1 0
vn 0 1 0
vn 0 -1 0
vn 0 -1 0
vn 0 -1 0
vn 0 -1 0
vn 0 -1 0
vn 0 -1 0
vn 0 -1 0
vn 0 -1 0
vn 0 -1 0
f 1/1/1 6/6/6 2/2/2
f 6/6/6 7/7/7 2/2/2
f 2/2/2 7/7/7 3/3/3
f 7/7/7 8/8/8 3/3/3
f 3/3/3 8/8/8 4/4/4
f 8/8/8 9/9/9 4/4/4
f 4/4/4 9/9/9 5/5/5
f 9/9/9 10/10/10 5/5/5
f 15/15/15 16/16/16 11/11/11
f 16/16/16 17/17/17 12/12/12
f 17/17/17 18/18/18 13/13/13
f 18/18/18 19/19/19 14/14/14
f 25/25/25 24/24/24 20/20/20
f 26/26/26 25/25/25 21/21/21
f 27/27/27 26/26/26 22/22/22
f 28/28/28 27/27/27 23/23/23
