o shape_043
v 0 1.6823395490646362 0.4253253936767578
v 0.5 1.6823395490646362 0.06205414608120918
v 0.30901697278022766 1.6823395490646362 -0.525731086730957
v -0.30901697278022766 1.6823395490646362 -0.525731086730957
v -0.5 1.6823395490646362 0.06205414608120918
v -1.287669809630032e-16 1.6823395490646362 0.4253253936767578
v 0 0 0.9510564804077148
v 1 0 0.22451399266719818
v 0.6180339455604553 0 -0.9510564804077148
v -0.6180339455604553 0 -0.9510564804077148
v -1 0 0.22451399266719818
v -2.575339619260064e-16 0 0.9510564804077148
v 0 1.6823395490646362 -0.10040570050477982
v 0 1.6823395490646362 -0.10040570050477982
v 0 1.6823395490646362 -0.10040570050477982
v 0 1.6823395490646362 -0.10040570050477982
v 0 1.6823395490646362 -0.10040570050477982
v 0 1.6823395490646362 0.4253253936767578
v 0.5 1.6823395490646362 0.06205414608120918
v 0.30901697278022766 1.6823395490646362 -0.525731086730957
v -0.30901697278022766 1.6823395490646362 -0.525731086730957
v -0.5 1.6823395490646362 0.06205414608120918
v -1.287669809630032e-16 1.6823395490646362 0.4253253936767578
v 0 0 -0.10040570050477982
v 0 0 -0.10040570050477982
v 0 0 -0.10040570050477982
v 0 0 -0.10040570050477982
v 0 0 -0.10040570050477982
v 0 0 0.9510564804077148
v 1 0 0.22451399266719818
v 0.6180339455604553 0 -0.9510564804077148
v -0.6180339455604553 0 -0.9510564804077148
v -1 0 0.22451399266719818
v -2.575339619260064e-16 0 0.9510564804077148
vt 0 1
vt 0.20000000298023224 1
vt 0.4000000059604645 1
vt 0.6000000238418579 1
vt 0.800000011920929 1
vt 1 1
vt 0 0
vt 0.20000000298023224 0
vt 0.4000000059604645 0
vt 0.6000000238418579 0
vt 0.800000011920929 0
vt 1 0
vt 0.5 0.5
vt 0.5 0.5
vt 0.5 0.5
vt 0.5 0.5
vt 0.5 0.5
vt 1 0.5
vt 0.6545084714889526 0.9755282402038574
vt 0.09549150615930557 0.7938926219940186
vt 0.09549150615930557 0.20610737800598145
vt 0.6545084714889526 0.024471741169691086
vt 1 0.5
vt 0.5 0.5
vt 0.5 0.5
vt 0.5 0.5
vt 0.5 0.5
vt 0.5 0.5
vt 1 0.5
vt 0.6545084714889526 0.024471741169691086
vt 0.09549150615930557 0.20610737800598145
vt 0.09549150615930557 0.7938926219940186
vt 0.6545084714889526 0.9755282402038574
vt 1 0.5
vn 0.5698556179637451 0.24510593177517237 0.7843389936014803
vn 0.7564361699005201 0.28181505231301623 0.5902411347542997
vn 0.7951042711306718 0.28181502432759054 -0.5370190779599944
vn -0.26503477195992836 0.28181505942762136 -0.9221371058210136
vn -0.9589047520086107 0.28181505462284945 -0.03289303213790117
vn -0.5698555777148387 0.24510594010045048 0.7843390202423707
vn 0.5698555777148387 0.24510594010045048 0.7843390202423707
vn 0.9416099319563891 0.29544693635878544 0.16149874252542062
vn 0.444567908115775 0.2954469252303762 -0.8456184065200332
vn -0.6668518776663992 0.29544693209439155 -0.6841196412681116
vn -0.8567050229588098 0.2954469368064844 0.42280919002407047
vn -0.5698556179637451 0.24510593177517237 0.7843389936014803
vn 0 1 0
vn 0 1 0
vn 0 1 0
vn 0 1 0
vn 0 1 0
vn 0 1 0
vn 0 1 0
vn 0 1 0
vn 0 1 0
vn 0 1 0
vn 0 1 0
vn 0 -1 0
vn 0 -1 0
vn 0 -1 0
vn 0 -1 0
vn 0 -1 0
vn 0 -1 0
vn 0 -1 0
vn 0 -1 0
vn 0 -1 0
vn 0 -1 0
vn 0 -1 0
f 1/1/1 7/7/7 2/2/2
f 7/7/7 8/8/8 2/2/2
f 2/2/2 8/8/8 3/3/3
f 8/8/8 9/9/9 3/3/3
f 3/3/3 9/9/9 4/4/4
f 9/9/9 10/10/10 4/4/4
f 4/4/4 10/10/10 5/5/5
f 10/10/10 11/11/11 5/5/5
f 5/5/5 11/11/11 6/6/6
f 11/11/11 12/12/12 6/6/6
f 18/18/18 19/19/19 13/13/13
f 19/19/19 20/20/20 14/14/14
f 20/20/20 21/21/21 15/15/15
f 21/21/21 22/22/22 16/16/16
f 22/22/22 23/23/23 17/17/17
f 30/30/30 29/29/29 24/24/24
f 31/31/31 30/30/30 25/25/25
f 32/32/32 31/31/31 26/26/26
f 33/33/33 32/32/32 27/27/27
f 34/34/34 33/33/33 28/28/28
