o shape_044
v 0 1.600000023841858 0.5
v 0.4330126941204071 1.600000023841858 0.25
v 0.4330126941204071 1.600000023841858 -0.25
v 6.123234262925839e-17 1.600000023841858 -0.5
v -0.4330126941204071 1.600000023841858 -0.25
v -0.4330126941204071 1.600000023841858 0.25
v -1.2246468525851679e-16 1.600000023841858 0.5
v 0 0 1
v 0.8660253882408142 0 0.5
v 0.8660253882408142 0 -0.5
v 1.2246468525851679e-16 0 -1
v -0.8660253882408142 0 -0.5
v -0.8660253882408142 0 0.5
v -2.4492937051703357e-16 0 1
v 0 1.600000023841858 0
v 0 1.600000023841858 0
v 0 1.600000023841858 0
v 0 1.600000023841858 0
v 0 1.600000023841858 0
v 0 1.600000023841858 0
v 0 1.600000023841858 0.5
v 0.4330126941204071 1.600000023841858 0.25
v 0.4330126941204071 1.600000023841858 -0.25
v 6.123234262925839e-17 1.600000023841858 -0.5
v -0.4330126941204071 1.600000023841858 -0.25
v -0.4330126941204071 1.600000023841858 0.25
v -1.2246468525851679e-16 1.600000023841858 0.5
v 0 0 0
v 0 0 0
v 0 0 0
v 0 0 0
v 0 0 0
v 0 0 0
v 0 0 1
v 0.8660253882408142 0 0.5
v 0.8660253882408142 0 -0.5
v 1.2246468525851679e-16 0 -1
v -0.8660253882408142 0 -0.5
v -0.8660253882408142 0 0.5
v -2.4492937051703357e-16 0 1
vt 0 1
vt 0.1666666716337204 1
vt 0.3333333432674408 1
vt 0.5 1
vt 0.6666666865348816 1
vt 0.8333333134651184 1
vt 1 1
vt 0 0
vt 0.1666666716337204 0
vt 0.3333333432674408 0
vt 0.5 0
vt 0.6666666865348816 0
vt 0.8333333134651184 0
vt 1 0
vt 0.5 0.5
vt 0.5 0.5
vt 0.5 0.5
vt 0.5 0.5
vt 0.5 0.5
vt 0.5 0.5
vt 1 0.5
vt 0.75 0.9330127239227295
vt 0.25 0.9330127239227295
vt 0 0.5
vt 0.25 0.0669872984290123
vt 0.75 0.0669872984290123
vt 1 0.5
vt 0.5 0.5
vt 0.5 0.5
vt 0.5 0.5
vt 0.5 0.5
vt 0.5 0.5
vt 0.5 0.5
vt 1 0.5
vt 0.75 0.0669872984290123
vt 0.25 0.0669872984290123
vt 0 0.5
vt 0.25 0.9330127239227295
vt 0.75 0.9330127239227295
vt 1 0.5
vn 0.4826375801174688 0.2612352647090588 0.8359528113062016
vn 0.6640891021687619 0.28755901064738215 0.6901416374746464
vn 0.9297247488981976 0.2875590013992035 -0.23004719515889832
vn 0.2656356695284614 0.2875590029594255 -0.9201888452329484
vn -0.6640891021687619 0.28755901064738215 -0.6901416374746464
vn -0.9297247488981976 0.2875590013992035 0.23004719515889832
vn -0.48263760673520134 0.2612352331830272 0.8359528057903309
vn 0.48263760673520134 0.2612352331830272 0.8359528057903309
vn 0.8764040317120678 0.29647972662222905 0.37949406438156763
vn 0.7668535203238663 0.296479735274027 -0.5692411131838041
vn -0.10955050687547652 0.29647973450161996 -0.9487351861679711
vn -0.8764040317120678 0.29647972662222905 -0.37949406438156763
vn -0.7668535203238663 0.296479735274027 0.5692411131838041
vn -0.4826375801174688 0.2612352647090588 0.8359528113062016
vn 0 1 0
vn 0 1 0
vn 0 1 0
vn 0 1 0
vn 0 1 0
vn 0 1 0
vn 0 1 0
vn 0 1 0
vn 0 1 0
vn 0 1 0
vn 0 1 0
vn 0 1 0
vn 0 1 0
vn 0 -1 0
vn 0 -1 0
vn 0 -1 0
vn 0 -1 0
vn 0 -1 0
vn 0 -1 0
vn 0 -1 0
vn 0 -1 0
vn 0 -1 0
vn 0 -1 0
vn 0 -1 0
vn 0 -1 0
vn 0 -1 0
f 1/1/1 8/8/8 2/2/2
f 8/8/8 9/9/9 2/2/2
f 2/2/2 9/9/9 3/3/3
f 9/9/9 10/10/10 3/3/3
f 3/3/3 10/10/10 4/4/4
f 10/10/10 11/11/11 4/4/4
f 4/4/4 11/11/11 5/5/5
f 11/11/11 12/12/12 5/5/5
f 5/5/5 12/12/12 6/6/6
f 12/12/12 13/13/13 6/6/6
f 6/6/6 13/13/13 7/7/7
f 13/13/13 14/14/14 7/7/7
f 21/21/21 22/22/22 15/15/15
f 22/22/22 23/23/23 16/16/16
f 23/23/23 24/24/24 17/17/17
f 24/24/24 25/25/25 18/18/18
f 25/25/25 26/26/26 19/19/19
f 26/26/26 27/27/27 20/20/20
f 35/35/35 34/34/34 28/28/28
f 36/36/36 35/35/35 29/29/29
f 37/37/37 36/36/36 30/30/30
f 38/38/38 37/37/37 31/31/31
f 39/39/39 38/38/38 32/32/32
f 40/40/40 39/39/39 33/33/33
