o shape_045
v 0 1.6411470174789429 0.46206948161125183
v 0.40096887946128845 1.6411470174789429 0.26897305250167847
v 0.5 1.6411470174789429 -0.1649107038974762
v 0.22252093255519867 1.6411470174789429 -0.5128584504127502
v -0.22252093255519867 1.6411470174789429 -0.5128584504127502
v -0.5 1.6411470174789429 -0.1649107038974762
v -0.40096887946128845 1.6411470174789429 0.26897305250167847
v -1.2561409934019608e-16 1.6411470174789429 0.46206948161125183
v 0 0 0.9749279022216797
v 0.8019377589225769 0 0.5887351036071777
v 1 0 -0.2790324091911316
v 0.44504186511039734 0 -0.9749279022216797
v -0.44504186511039734 0 -0.9749279022216797
v -1 0 -0.2790324091911316
v -0.8019377589225769 0 0.5887351036071777
v -2.5122819868039217e-16 0 0.9749279022216797
v 0 1.6411470174789429 -0.050788961350917816
v 0 1.6411470174789429 -0.050788961350917816
v 0 1.6411470174789429 -0.050788961350917816
v 0 1.6411470174789429 -0.050788961350917816
v 0 1.6411470174789429 -0.050788961350917816
v 0 1.6411470174789429 -0.050788961350917816
v 0 1.6411470174789429 -0.050788961350917816
v 0 1.6411470174789429 0.46206948161125183
v 0.40096887946128845 1.6411470174789429 0.26897305250167847
v 0.5 1.6411470174789429 -0.1649107038974762
v 0.22252093255519867 1.6411470174789429 -0.5128584504127502
v -0.22252093255519867 1.6411470174789429 -0.5128584504127502
v -0.5 1.6411470174789429 -0.1649107038974762
v -0.40096887946128845 1.6411470174789429 0.26897305250167847
v -1.2561409934019608e-16 1.6411470174789429 0.46206948161125183
v 0 0 -0.050788961350917816
v 0 0 -0.050788961350917816
v 0 0 -0.050788961350917816
v 0 0 -0.050788961350917816
v 0 0 -0.050788961350917816
v 0 0 -0.050788961350917816
v 0 0 -0.050788961350917816
v 0 0 0.9749279022216797
v 0.8019377589225769 0 0.5887351036071777
v 1 0 -0.2790324091911316
v 0.44504186511039734 0 -0.9749279022216797
v -0.44504186511039734 0 -0.9749279022216797
v -1 0 -0.2790324091911316
v -0.8019377589225769 0 0.5887351036071777
v -2.5122819868039217e-16 0 0.9749279022216797
vt 0 1
vt 0.1428571492433548 1
vt 0.2857142984867096 1
vt 0.4285714328289032 1
vt 0.5714285969734192 1
vt 0.7142857313156128 1
vt 0.8571428656578064 1
vt 1 1
vt 0 0
vt 0.1428571492433548 0
vt 0.2857142984867096 0
vt 0.4285714328289032 0
vt 0.5714285969734192 0
vt 0.7142857313156128 0
vt 0.8571428656578064 0
vt 1 0
vt 0.5 0.5
vt 0.5 0.5
vt 0.5 0.5
vt 0.5 0.5
vt 0.5 0.5
vt 0.5 0.5
vt 0.5 0.5
vt 1 0.5
vt 0.8117449283599854 0.8909157514572144
vt 0.38873952627182007 0.9874639511108398
vt 0.04951556771993637 0.7169418931007385
vt 0.04951556771993637 0.28305813670158386
vt 0.38873952627182007 0.012536044232547283
vt 0.8117449283599854 0.10908425599336624
vt 1 0.5
vt 0.5 0.5
vt 0.5 0.5
vt 0.5 0.5
vt 0.5 0.5
vt 0.5 0.5
vt 0.5 0.5
vt 0.5 0.5
vt 1 0.5
vt 0.8117449283599854 0.10908425599336624
vt 0.38873952627182007 0.012536044232547283
vt 0.04951556771993637 0.28305813670158386
vt 0.04951556771993637 0.7169418931007385
vt 0.38873952627182007 0.9874639511108398
vt 0.8117449283599854 0.8909157514572144
vt 1 0.5
vn 0.4176455952520356 0.27101563877425894 0.8672500679194861
vn 0.5876282435254331 0.29069644122279487 0.7551083541264899
vn 0.9567476938717607 0.2906964668150293 0.011376047306777985
vn 0.6054165900333357 0.29069643929309397 -0.7409226226096247
vn -0.2018055436122589 0.29069643742045237 -0.9352914539534816
vn -0.857063990813996 0.2906964360563749 -0.4253667802192698
vn -0.8669358024178339 0.29069644643022946 0.40486774447834584
vn -0.4176455952520356 0.27101563877425894 0.8672500679194861
vn 0.4176455952520356 0.27101563877425894 0.8672500679194861
vn 0.8001861549441928 0.29702255045094456 0.5210371598640968
vn 0.9062711564004671 0.29702255023349716 -0.3007493902393648
vn 0.32991552949371916 0.2970225268658006 -0.8960654897568222
vn -0.4948732650713727 0.2970225272457968 -0.8166260281341264
vn -0.9470123701351549 0.29702252314896327 -0.12225052782389058
vn -0.6860318419515029 0.29702253169699155 0.6641821493332517
vn -0.4176455952520356 0.27101563877425894 0.8672500679194861
vn 0 1 0
vn 0 1 0
vn 0 1 0
vn 0 1 0
vn 0 1 0
vn 0 1 0
vn 0 1 0
vn 0 1 0
vn 0 1 0
vn 0 1 0
vn 0 1 0
vn 0 1 0
vn 0 1 0
vn 0 1 0
vn 0 1 0
vn 0 -1 0
vn 0 -1 0
vn 0 -1 0
vn 0 -1 0
vn 0 -1 0
vn 0 -1 0
vn 0 -1 0
vn 0 -1 0
vn 0 -1 0
vn 0 -1 0
vn 0 -1 0
vn 0 -1 0
vn 0 -1 0
vn 0 -1 0
vn 0 -1 0
f 1/1/1 9/9/9 2/2/2
f 9/9/9 10/10/10 2/2/2
f 2/2/2 10/10/10 3/3/3
f 10/10/10 11/11/11 3/3/3
f 3/3/3 11/11/11 4/4/4
f 11/11/11 12/12/12 4/4/4
f 4/4/4 12/12/12 5/5/5
f 12/12/12 13/13/13 5/5/5
f 5/5/5 13/13/13 6/6/6
f 13/13/13 14/14/14 6/6/6
f 6/6/6 14/14/14 7/7/7
f 14/14/14 15/15/15 7/7/7
f 7/7/7 15/15/15 8/8/8
f 15/15/15 16/16/16 8/8/8
f 24/24/24 25/25/25 17/17/17
f 25/25/25 26/26/26 18/18/18
f 26/26/26 27/27/27 19/19/19
f 27/27/27 28/28/28 20/20/20
f 28/28/28 29/29/29 21/21/21
f 29/29/29 30/30/30 22/22/22
f 30/30/30 31/31/31 23/23/23
f 40/40/40 39/39/39 32/32/32
f 41/41/41 40/40/40 33/33/33
f 42/42/42 41/41/41 34/34/34
f 43/43/43 42/42/42 35/35/35
f 44/44/44 43/43/43 36/36/36
f 45/45/45 44/44/44 37/37/37
f 46/46/46 45/45/45 38/38/38
