o shape_046
v 0 1.600000023841858 0.5
v 0.3535533845424652 1.600000023841858 0.3535533845424652
v 0.5 1.600000023841858 3.0616171314629196e-17
v 0.3535533845424652 1.600000023841858 -0.3535533845424652
v 6.123234262925839e-17 1.600000023841858 -0.5
v -0.3535533845424652 1.600000023841858 -0.3535533845424652
v -0.5 1.600000023841858 -9.184850732644269e-17
v -0.3535533845424652 1.600000023841858 0.3535533845424652
v -1.2246468525851679e-16 1.600000023841858 0.5
v 0 0 1
v 0.7071067690849304 0 0.7071067690849304
v 1 0 6.123234262925839e-17
v 0.7071067690849304 0 -0.7071067690849304
v 1.2246468525851679e-16 0 -1
v -0.7071067690849304 0 -0.7071067690849304
v -1 0 -1.8369701465288538e-16
v -0.7071067690849304 0 0.7071067690849304
v -2.4492937051703357e-16 0 1
v 0 1.600000023841858 0
v 0 1.600000023841858 0
v 0 1.600000023841858 0
v 0 1.600000023841858 0
v 0 1.600000023841858 0
v 0 1.600000023841858 0
v 0 1.600000023841858 0
v 0 1.600000023841858 0
v 0 1.600000023841858 0.5
v 0.3535533845424652 1.600000023841858 0.3535533845424652
v 0.5 1.600000023841858 3.0616171314629196e-17
v 0.3535533845424652 1.600000023841858 -0.3535533845424652
v 6.123234262925839e-17 1.600000023841858 -0.5
v -0.3535533845424652 1.600000023841858 -0.3535533845424652
v -0.5 1.600000023841858 -9.184850732644269e-17
v -0.3535533845424652 1.600000023841858 0.3535533845424652
v -1.2246468525851679e-16 1.600000023841858 0.5
v 0 0 0
v 0 0 0
v 0 0 0
v 0 0 0
v 0 0 0
v 0 0 0
v 0 0 0
v 0 0 0
v 0 0 1
v 0.7071067690849304 0 0.7071067690849304
v 1 0 6.123234262925839e-17
v 0.7071067690849304 0 -0.7071067690849304
v 1.2246468525851679e-16 0 -1
v -0.7071067690849304 0 -0.7071067690849304
v -1 0 -1.8369701465288538e-16
v -0.7071067690849304 0 0.7071067690849304
v -2.4492937051703357e-16 0 1
vt 0 1
vt 0.125 1
vt 0.25 1
vt 0.375 1
vt 0.5 1
vt 0.625 1
vt 0.75 1
vt 0.875 1
vt 1 1
vt 0 0
vt 0.125 0
vt 0.25 0
vt 0.375 0
vt 0.5 0
vt 0.625 0
vt 0.75 0
vt 0.875 0
vt 1 0
vt 0.5 0.5
vt 0.5 0.5
vt 0.5 0.5
vt 0.5 0.5
vt 0.5 0.5
vt 0.5 0.5
vt 0.5 0.5
vt 0.5 0.5
vt 1 0.5
vt 0.8535534143447876 0.8535534143447876
vt 0.5 1
vt 0.1464466154575348 0.8535534143447876
vt 0 0.5
vt 0.1464466154575348 0.1464466154575348
vt 0.5 0
vt 0.8535534143447876 0.1464466154575348
vt 1 0.5
vt 0.5 0.5
vt 0.5 0.5
vt 0.5 0.5
vt 0.5 0.5
vt 0.5 0.5
vt 0.5 0.5
vt 0.5 0.5
vt 0.5 0.5
vt 1 0.5
vt 0.8535534143447876 0.1464466154575348
vt 0.5 0
vt 0.1464466154575348 0.1464466154575348
vt 0 0.5
vt 0.1464466154575348 0.8535534143447876
vt 0.5 1
vt 0.8535534143447876 0.8535534143447876
vt 1 0.5
vn 0.3676667227276411 0.2773830901094327 0.8876259360339006
vn 0.524979894351377 0.2926125554065976 0.799233384528723
vn 0.9363601815762664 0.29261255301729294 0.19392654324553757
vn 0.799233384528723 0.2926125554065976 -0.524979894351377
vn 0.19392654324553757 0.29261255301729294 -0.9363601815762664
vn -0.524979894351377 0.2926125554065976 -0.799233384528723
vn -0.9363601815762664 0.29261255301729294 -0.19392654324553757
vn -0.799233384528723 0.2926125554065976 0.524979894351377
vn -0.3676667227276411 0.2773830901094327 0.8876259360339006
vn 0.3676667227276411 0.2773830901094327 0.8876259360339006
vn 0.728557348204425 0.29734688995353814 0.6170810460646922
vn 0.9515100296436775 0.2973468954395203 -0.07882567640031596
vn 0.6170810460646922 0.29734688995353814 -0.728557348204425
vn -0.07882567640031596 0.2973468954395203 -0.9515100296436775
vn -0.7285573546606288 0.2973468627861929 -0.6170810515330345
vn -0.9515100296436775 0.2973468954395203 0.07882567640031596
vn -0.6170810460646922 0.29734688995353814 0.728557348204425
vn -0.3676667227276411 0.2773830901094327 0.8876259360339006
vn 0 1 0
vn 0 1 0
vn 0 1 0
vn 0 1 0
vn 0 1 0
vn 0 1 0
vn 0 1 0
vn 0 1 0
vn 0 1 0
vn 0 1 0
vn 0 1 0
vn 0 1 0
vn 0 1 0
vn 0 1 0
vn 0 1 0
vn 0 1 0
vn 0 1 0
vn 0 -1 0
vn 0 -1 0
vn 0 -1 0
vn 0 -1 0
vn 0 -1 0
vn 0 -1 0
vn 0 -1 0
vn 0 -1 0
vn 0 -1 0
vn 0 -1 0
vn 0 -1 0
vn 0 -1 0
vn 0 -1 0
vn 0 -1 0
vn 0 -1 0
vn 0 -1 0
vn 0 -1 0
f 1/1/1 10/10/10 2/2/2
f 10/10/10 11/11/11 2/2/2
f 2/2/2 11/11/11 3/3/3
f 11/11/11 12/12/12 3/3/3
f 3/3/3 12/12/12 4/4/4
f 12/12/12 13/13/13 4/4/4
f 4/4/4 13/13/13 5/5/5
f 13/13/13 14/14/14 5/5/5
f 5/5/5 14/14/14 6/6/6
f 14/14/14 15/15/15 6/6/6
f 6/6/6 15/15/15 7/7/7
f 15/15/15 16/16/16 7/7/7
f 7/7/7 16/16/16 8/8/8
f 16/16/16 17/17/17 8/8/8
f 8/8/8 17/17/17 9/9/9
f 17/17/17 18/18/18 9/9/9
f 27/27/27 28/28/28 19/19/19
f 28/28/28 29/29/29 20/20/20
f 29/29/29 30/30/30 21/21/21
f 30/30/30 31/31/31 22/22/22
f 31/31/31 32/32/32 23/23/23
f 32/32/32 33/33/33 24/24/24
f 33/33/33 34/34/34 25/25/25
f 34/34/34 35/35/35 26/26/26
f 45/45/45 44/44/44 36/36/36
f 46/46/46 45/45/45 37/37/37
f 47/47/47 46/46/46 38/38/38
f 48/48/48 47/47/47 39/39/39
f 49/49/49 48/48/48 40/40/40
f 50/50/50 49/49/49 41/41/41
f 51/51/51 50/50/50 42/42/42
f 52/52/52 51/51/51 43/43/43
