o shape_047
v 0 1.6246826648712158 0.477094441652298
v 0.3263518512248993 1.6246826648712158 0.35831210017204285
v 0.5 1.6246826648712158 0.05754463002085686
v 0.4396926164627075 1.6246826648712158 -0.28447553515434265
v 0.1736481934785843 1.6246826648712158 -0.5077133178710938
v -0.1736481934785843 1.6246826648712158 -0.5077133178710938
v -0.4396926164627075 1.6246826648712158 -0.28447553515434265
v -0.5 1.6246826648712158 0.05754463002085686
v -0.3263518512248993 1.6246826648712158 0.35831210017204285
v -1.243538996031389e-16 1.6246826648712158 0.477094441652298
v 0 0 0.9848077893257141
v 0.6527037024497986 0 0.7472430467605591
v 1 0 0.1457081288099289
v 0.879385232925415 0 -0.5383321642875671
v 0.3472963869571686 0 -0.9848077893257141
v -0.3472963869571686 0 -0.9848077893257141
v -0.879385232925415 0 -0.5383321642875671
v -1 0 0.1457081288099289
v -0.6527037024497986 0 0.7472430467605591
v -2.487077992062778e-16 0 0.9848077893257141
v 0 1.6246826648712158 -0.030618861317634583
v 0 1.6246826648712158 -0.030618861317634583
v 0 1.6246826648712158 -0.030618861317634583
v 0 1.6246826648712158 -0.030618861317634583
v 0 1.6246826648712158 -0.030618861317634583
v 0 1.6246826648712158 -0.030618861317634583
v 0 1.6246826648712158 -0.030618861317634583
v 0 1.6246826648712158 -0.030618861317634583
v 0 1.6246826648712158 -0.030618861317634583
v 0 1.6246826648712158 0.477094441652298
v 0.3263518512248993 1.6246826648712158 0.35831210017204285
v 0.5 1.6246826648712158 0.05754463002085686
v 0.4396926164627075 1.6246826648712158 -0.28447553515434265
v 0.1736481934785843 1.6246826648712158 -0.5077133178710938
v -0.1736481934785843 1.6246826648712158 -0.5077133178710938
v -0.4396926164627075 1.6246826648712158 -0.28447553515434265
v -0.5 1.6246826648712158 0.05754463002085686
v -0.3263518512248993 1.6246826648712158 0.35831210017204285
v -1.243538996031389e-16 1.6246826648712158 0.477094441652298
v 0 0 -0.030618861317634583
v 0 0 -0.030618861317634583
v 0 0 -0.030618861317634583
v 0 0 -0.030618861317634583
v 0 0 -0.030618861317634583
v 0 0 -0.030618861317634583
v 0 0 -0.030618861317634583
v 0 0 -0.030618861317634583
v 0 0 -0.030618861317634583
v 0 0 0.9848077893257141
v 0.6527037024497986 0 0.7472430467605591
v 1 0 0.1457081288099289
v 0.879385232925415 0 -0.5383321642875671
v 0.3472963869571686 0 -0.9848077893257141
v -0.3472963869571686 0 -0.9848077893257141
v -0.879385232925415 0 -0.5383321642875671
v -1 0 0.1457081288099289
v -0.6527037024497986 0 0.7472430467605591
v -2.487077992062778e-16 0 0.9848077893257141
vt 0 1
vt 0.1111111119389534 1
vt 0.2222222238779068 1
vt 0.3333333432674408 1
vt 0.4444444477558136 1
vt 0.5555555820465088 1
vt 0.6666666865348816 1
vt 0.7777777910232544 1
vt 0.8888888955116272 1
vt 1 1
vt 0 0
vt 0.1111111119389534 0
vt 0.2222222238779068 0
vt 0.3333333432674408 0
vt 0.4444444477558136 0
vt 0.5555555820465088 0
vt 0.6666666865348816 0
vt 0.7777777910232544 0
vt 0.8888888955116272 0
vt 1 0
vt 0.5 0.5
vt 0.5 0.5
vt 0.5 0.5
vt 0.5 0.5
vt 0.5 0.5
vt 0.5 0.5
vt 0.5 0.5
vt 0.5 0.5
vt 0.5 0.5
vt 1 0.5
vt 0.8830222487449646 0.8213937878608704
vt 0.5868240594863892 0.9924038648605347
vt 0.25 0.9330127239227295
vt 0.03015368990600109 0.6710100769996643
vt 0.03015368990600109 0.3289899230003357
vt 0.25 0.0669872984290123
vt 0.5868240594863892 0.007596123497933149
vt 0.8830222487449646 0.17860619723796844
vt 1 0.5
vt 0.5 0.5
vt 0.5 0.5
vt 0.5 0.5
vt 0.5 0.5
vt 0.5 0.5
vt 0.5 0.5
vt 0.5 0.5
vt 0.5 0.5
vt 0.5 0.5
vt 1 0.5
vt 0.8830222487449646 0.17860619723796844
vt 0.5868240594863892 0.007596123497933149
vt 0.25 0.0669872984290123
vt 0.03015368990600109 0.3289899230003357
vt 0.03015368990600109 0.6710100769996643
vt 0.25 0.9330127239227295
vt 0.5868240594863892 0.9924038648605347
vt 0.8830222487449646 0.8213937878608704
vt 1 0.5
vn 0.32816348296238057 0.2817567955018573 0.9016217813687311
vn 0.4733767848378675 0.2938745345231102 0.8303927850935293
vn 0.8963938730268857 0.2938745247317209 0.33183699027318275
vn 0.8999782698174262 0.2938745286373383 -0.3219889365717616
vn 0.482452873729089 0.29387453461198004 -0.8251527025570089
vn -0.16081760921988228 0.29387453377993944 -0.942218369042137
vn -0.7288397439957172 0.29387452752380416 -0.6184095646454043
vn -0.955829646825493 0.29387451031854406 -0.005240079626237365
vn -0.7355762608838755 0.29387452753894294 0.6103812959846165
vn -0.3281634653265978 0.2817567803600091 0.9016217925194581
vn 0.3281634653265978 0.2817567803600091 0.9016217925194581
vn 0.6651494548285102 0.2975576242191895 0.6848617838734815
vn 0.9497547125981155 0.2975576214524896 0.09708474552270353
vn 0.7899591872624262 0.2975576203058035 -0.5361193384477323
vn 0.2605330015954793 0.29755761830690797 -0.9184672116451248
vn -0.3907994863791414 0.2975575876572032 -0.8710540990509288
vn -0.8592725499762663 0.2975576257820762 -0.4160650720695247
vn -0.9256824438915362 0.29755762810652353 0.23360537456705194
vn -0.5589551914375609 0.29755762159361365 0.7739693506829269
vn -0.32816348296238057 0.2817567955018573 0.9016217813687311
vn 0 1 0
vn 0 1 0
vn 0 1 0
vn 0 1 0
vn 0 1 0
vn 0 1 0
vn 0 1 0
vn 0 1 0
vn 0 1 0
vn 0 1 0
vn 0 1 0
vn 0 1 0
vn 0 1 0
vn 0 1 0
vn 0 1 0
vn 0 1 0
vn 0 1 0
vn 0 1 0
vn 0 1 0
vn 0 -1 0
vn 0 -1 0
vn 0 -1 0
vn 0 -1 0
vn 0 -1 0
vn 0 -1 0
vn 0 -1 0
vn 0 -1 0
vn 0 -1 0
vn 0 -1 0
vn 0 -1 0
vn 0 -1 0
vn 0 -1 0
vn 0 -1 0
vn 0 -1 0
vn 0 -1 0
vn 0 -1 0
vn 0 -1 0
vn 0 -1 0
f 1/1/1 11/11/11 2/2/2
f 11/11/11 12/12/12 2/2/2
f 2/2/2 12/12/12 3/3/3
f 12/12/12 13/13/13 3/3/3
f 3/3/3 13/13/13 4/4/4
f 13/13/13 14/14/14 4/4/4
f 4/4/4 14/14/14 5/5/5
f 14/14/14 15/15/15 5/5/5
f 5/5/5 15/15/15 6/6/6
f 15/15/15 16/16/16 6/6/6
f 6/6/6 16/16/16 7/7/7
f 16/16/16 17/17/17 7/7/7
f 7/7/7 17/17/17 8/8/8
f 17/17/17 18/18/18 8/8/8
f 8/8/8 18/18/18 9/9/9
f 18/18/18 19/19/19 9/9/9
f 9/9/9 19/19/19 10/10/10
f 19/19/19 20/20/20 10/10/10
f 30/30/30 31/31/31 21/21/21
f 31/31/31 32/32/32 22/22/22
f 32/32/32 33/33/33 23/23/23
f 33/33/33 34/34/34 24/24/24
f 34/34/34 35/35/35 25/25/25
f 35/35/35 36/36/36 26/26/26
f 36/36/36 37/37/37 27/27/27
f 37/37/37 38/38/38 28/28/28
f 38/38/38 39/39/39 29/29/29
f 50/50/50 49/49/49 40/40/40
f 51/51/51 50/50/50 41/41/41
f 52/52/52 51/51/51 42/42/42
f 53/53/53 52/52/52 43/43/43
f 54/54/54 53/53/53 44/44/44
f 55/55/55 54/54/54 45/45/45
f 56/56/56 55/55/55 46/46/46
f 57/57/57 56/56/56 47/47/47
f 58/58/58 57/57/57 48/48/48
