o shape_048
v 0 1.600000023841858 0.5
v 0.29389262199401855 1.600000023841858 0.404508501291275
v 0.4755282700061798 1.600000023841858 0.15450850129127502
v 0.4755282700061798 1.600000023841858 -0.15450850129127502
v 0.29389262199401855 1.600000023841858 -0.404508501291275
v 6.123234262925839e-17 1.600000023841858 -0.5
v -0.29389262199401855 1.600000023841858 -0.404508501291275
v -0.4755282700061798 1.600000023841858 -0.15450850129127502
v -0.4755282700061798 1.600000023841858 0.15450850129127502
v -0.29389262199401855 1.600000023841858 0.404508501291275
v -1.2246468525851679e-16 1.600000023841858 0.5
v 0 0 1
v 0.5877852439880371 0 0.80901700258255
v 0.9510565400123596 0 0.30901700258255005
v 0.9510565400123596 0 -0.30901700258255005
v 0.5877852439880371 0 -0.80901700258255
v 1.2246468525851679e-16 0 -1
v -0.5877852439880371 0 -0.80901700258255
v -0.9510565400123596 0 -0.30901700258255005
v -0.9510565400123596 0 0.30901700258255005
v -0.5877852439880371 0 0.80901700258255
v -2.4492937051703357e-16 0 1
v 0 1.600000023841858 0
v 0 1.600000023841858 0
v 0 1.600000023841858 0
v 0 1.600000023841858 0
v 0 1.600000023841858 0
v 0 1.600000023841858 0
v 0 1.600000023841858 0
v 0 1.600000023841858 0
v 0 1.600000023841858 0
v 0 1.600000023841858 0
v 0 1.600000023841858 0.5
v 0.29389262199401855 1.600000023841858 0.404508501291275
v 0.4755282700061798 1.600000023841858 0.15450850129127502
v 0.4755282700061798 1.600000023841858 -0.15450850129127502
v 0.29389262199401855 1.600000023841858 -0.404508501291275
v 6.123234262925839e-17 1.600000023841858 -0.5
v -0.29389262199401855 1.600000023841858 -0.404508501291275
v -0.4755282700061798 1.600000023841858 -0.15450850129127502
v -0.4755282700061798 1.600000023841858 0.15450850129127502
v -0.29389262199401855 1.600000023841858 0.404508501291275
v -1.2246468525851679e-16 1.600000023841858 0.5
v 0 0 0
v 0 0 0
v 0 0 0
v 0 0 0
v 0 0 0
v 0 0 0
v 0 0 0
v 0 0 0
v 0 0 0
v 0 0 0
v 0 0 1
v 0.5877852439880371 0 0.80901700258255
v 0.9510565400123596 0 0.30901700258255005
v 0.9510565400123596 0 -0.30901700258255005
v 0.5877852439880371 0 -0.80901700258255
v 1.2246468525851679e-16 0 -1
v -0.5877852439880371 0 -0.80901700258255
v -0.9510565400123596 0 -0.30901700258255005
v -0.9510565400123596 0 0.30901700258255005
v -0.5877852439880371 0 0.80901700258255
v -2.4492937051703357e-16 0 1
vt 0 1
vt 0.10000000149011612 1
vt 0.20000000298023224 1
vt 0.30000001192092896 1
vt 0.4000000059604645 1
vt 0.5 1
vt 0.6000000238418579 1
vt 0.699999988079071 1
vt 0.800000011920929 1
vt 0.8999999761581421 1
vt 1 1
vt 0 0
vt 0.10000000149011612 0
vt 0.20000000298023224 0
vt 0.30000001192092896 0
vt 0.4000000059604645 0
vt 0.5 0
vt 0.6000000238418579 0
vt 0.699999988079071 0
vt 0.800000011920929 0
vt 0.8999999761581421 0
vt 1 0
vt 0.5 0.5
vt 0.5 0.5
vt 0.5 0.5
vt 0.5 0.5
vt 0.5 0.5
vt 0.5 0.5
vt 0.5 0.5
vt 0.5 0.5
vt 0.5 0.5
vt 0.5 0.5
vt 1 0.5
vt 0.9045084714889526 0.7938926219940186
vt 0.6545084714889526 0.9755282402038574
vt 0.345491498708725 0.9755282402038574
vt 0.09549150615930557 0.7938926219940186
vt 0 0.5
vt 0.09549150615930557 0.20610737800598145
vt 0.345491498708725 0.024471741169691086
vt 0.6545084714889526 0.024471741169691086
vt 0.9045084714889526 0.20610737800598145
vt 1 0.5
vt 0.5 0.5
vt 0.5 0.5
vt 0.5 0.5
vt 0.5 0.5
vt 0.5 0.5
vt 0.5 0.5
vt 0.5 0.5
vt 0.5 0.5
vt 0.5 0.5
vt 0.5 0.5
vt 1 0.5
vt 0.9045084714889526 0.20610737800598145
vt 0.6545084714889526 0.024471741169691086
vt 0.345491498708725 0.024471741169691086
vt 0.09549150615930557 0.20610737800598145
vt 0 0.5
vt 0.09549150615930557 0.7938926219940186
vt 0.345491498708725 0.9755282402038574
vt 0.6545084714889526 0.9755282402038574
vt 0.9045084714889526 0.7938926219940186
vt 1 0.5
vn 0.29621148372074996 0.28488913431043794 0.9116451821096851
vn 0.43043512157013103 0.29475238954230626 0.8531392822851419
vn 0.8496919998262162 0.2947523936288451 0.43720079126345596
vn 0.9443954367140843 0.2947523934929777 -0.14573361192180356
vn 0.6783718867564588 0.294752350907062 -0.6730027005096209
vn 0.15323336022180137 0.2947523814933082 -0.943207596936729
vn -0.43043512157013103 0.29475238954230626 -0.8531392822851419
vn -0.8496919998262162 0.2947523936288451 -0.43720079126345596
vn -0.9443954367140843 0.2947523934929777 0.14573361192180356
vn -0.6783718867564588 0.294752350907062 0.6730027005096209
vn -0.29621148372074996 0.28488913431043794 0.9116451821096851
vn 0.29621148372074996 0.28488913431043794 0.9116451821096851
vn 0.6100368901403923 0.29770286922681155 0.7343214516286194
vn 0.9251535317483331 0.2977028717187393 0.2355078403450758
vn 0.8868929520458332 0.2977028712178252 -0.35326178972553796
vn 0.5098694020304927 0.2977028818338302 -0.8070973838520975
vn -0.06190689918520255 0.29770287356007674 -0.9526492192341031
vn -0.6100368901403923 0.29770286922681155 -0.7343214516286194
vn -0.9251535317483331 0.2977028717187393 -0.2355078403450758
vn -0.8868929520458332 0.2977028712178252 0.35326178972553796
vn -0.5098694020304927 0.2977028818338302 0.8070973838520975
vn -0.29621148372074996 0.28488913431043794 0.9116451821096851
vn 0 1 0
vn 0 1 0
vn 0 1 0
vn 0 1 0
vn 0 1 0
vn 0 1 0
vn 0 1 0
vn 0 1 0
vn 0 1 0
vn 0 1 0
vn 0 1 0
vn 0 1 0
vn 0 1 0
vn 0 1 0
vn 0 1 0
vn 0 1 0
vn 0 1 0
vn 0 1 0
vn 0 1 0
vn 0 1 0
vn 0 1 0
vn 0 -1 0
vn 0 -1 0
vn 0 -1 0
vn 0 -1 0
vn 0 -1 0
vn 0 -1 0
vn 0 -1 0
vn 0 -1 0
vn 0 -1 0
vn 0 -1 0
vn 0 -1 0
vn 0 -1 0
vn 0 -1 0
vn 0 -1 0
vn 0 -1 0
vn 0 -1 0
vn 0 -1 0
vn 0 -1 0
vn 0 -1 0
vn 0 -1 0
vn 0 -1 0
f 1/1/1 12/12/12 2/2/2
f 12/12/12 13/13/13 2/2/2
f 2/2/2 13/13/13 3/3/3
f 13/13/13 14/14/14 3/3/3
f 3/3/3 14/14/14 4/4/4
f 14/14/14 15/15/15 4/4/4
f 4/4/4 15/15/15 5/5/5
f 15/15/15 16/16/16 5/5/5
f 5/5/5 16/16/16 6/6/6
f 16/16/16 17/17/17 6/6/6
f 6/6/6 17/17/17 7/7/7
f 17/17/17 18/18/18 7/7/7
f 7/7/7 18/18/18 8/8/8
f 18/18/18 19/19/19 8/8/8
f 8/8/8 19/19/19 9/9/9
f 19/19/19 20/20/20 9/9/9
f 9/9/9 20/20/20 10/10/10
f 20/20/20 21/21/21 10/10/10
f 10/10/10 21/21/21 11/11/11
f 21/21/21 22/22/22 11/11/11
f 33/33/33 34/34/34 23/23/23
f 34/34/34 35/35/35 24/24/24
f 35/35/35 36/36/36 25/25/25
f 36/36/36 37/37/37 26/26/26
f 37/37/37 38/38/38 27/27/27
f 38/38/38 39/39/39 28/28/28
f 39/39/39 40/40/40 29/29/29
f 40/40/40 41/41/41 30/30/30
f 41/41/41 42/42/42 31/31/31
f 42/42/42 43/43/43 32/32/32
f 55/55/55 54/54/54 44/44/44
f 56/56/56 55/55/55 45/45/45
f 57/57/57 56/56/56 46/46/46
f 58/58/58 57/57/57 47/47/47
f 59/59/59 58/58/58 48/48/48
f 60/60/60 59/59/59 49/49/49
f 61/61/61 60/60/60 50/50/50
f 62/62/62 61/61/61 51/51/51
f 63/63/63 62/62/62 52/52/52
f 64/64/64 63/63/63 53/53/53
