o shape_049
v 0 1.6164531707763672 0.48467984795570374
v 0.27310019731521606 1.6164531707763672 0.4044903814792633
v 0.459492951631546 1.6164531707763672 0.18938162922859192
v 0.5 1.6164531707763672 -0.09235092997550964
v 0.3817605674266815 1.6164531707763672 -0.3512592017650604
v 0.1423148363828659 1.6164531707763672 -0.5051416158676147
v -0.1423148363828659 1.6164531707763672 -0.5051416158676147
v -0.3817605674266815 1.6164531707763672 -0.3512592017650604
v -0.5 1.6164531707763672 -0.09235092997550964
v -0.459492951631546 1.6164531707763672 0.18938162922859192
v -0.27310019731521606 1.6164531707763672 0.4044903814792633
v -1.2372402472773692e-16 1.6164531707763672 0.48467984795570374
v 0 0 0.9898214340209961
v 0.5462003946304321 0 0.8294425010681152
v 0.918985903263092 0 0.39922505617141724
v 1 0 -0.16424007713794708
v 0.763521134853363 0 -0.6820566058158875
v 0.2846296727657318 0 -0.9898214340209961
v -0.2846296727657318 0 -0.9898214340209961
v -0.763521134853363 0 -0.6820566058158875
v -1 0 -0.16424007713794708
v -0.918985903263092 0 0.39922505617141724
v -0.5462003946304321 0 0.8294425010681152
v -2.4744804945547383e-16 0 0.9898214340209961
v 0 1.6164531707763672 -0.020461780950427055
v 0 1.6164531707763672 -0.020461780950427055
v 0 1.6164531707763672 -0.020461780950427055
v 0 1.6164531707763672 -0.020461780950427055
v 0 1.6164531707763672 -0.020461780950427055
v 0 1.6164531707763672 -0.020461780950427055
v 0 1.6164531707763672 -0.020461780950427055
v 0 1.6164531707763672 -0.020461780950427055
v 0 1.6164531707763672 -0.020461780950427055
v 0 1.6164531707763672 -0.020461780950427055
v 0 1.6164531707763672 -0.020461780950427055
v 0 1.6164531707763672 0.48467984795570374
v 0.27310019731521606 1.6164531707763672 0.4044903814792633
v 0.459492951631546 1.6164531707763672 0.18938162922859192
v 0.5 1.6164531707763672 -0.09235092997550964
v 0.3817605674266815 1.6164531707763672 -0.3512592017650604
v 0.1423148363828659 1.6164531707763672 -0.5051416158676147
v -0.1423148363828659 1.6164531707763672 -0.5051416158676147
v -0.3817605674266815 1.6164531707763672 -0.3512592017650604
v -0.5 1.6164531707763672 -0.09235092997550964
v -0.459492951631546 1.6164531707763672 0.18938162922859192
v -0.27310019731521606 1.6164531707763672 0.4044903814792633
v -1.2372402472773692e-16 1.6164531707763672 0.48467984795570374
v 0 0 -0.020461780950427055
v 0 0 -0.020461780950427055
v 0 0 -0.020461780950427055
v 0 0 -0.020461780950427055
v 0 0 -0.020461780950427055
v 0 0 -0.020461780950427055
v 0 0 -0.020461780950427055
v 0 0 -0.020461780950427055
v 0 0 -0.020461780950427055
v 0 0 -0.020461780950427055
v 0 0 -0.020461780950427055
v 0 0 0.9898214340209961
v 0.5462003946304321 0 0.8294425010681152
v 0.918985903263092 0 0.39922505617141724
v 1 0 -0.16424007713794708
v 0.763521134853363 0 -0.6820566058158875
v 0.2846296727657318 0 -0.9898214340209961
v -0.2846296727657318 0 -0.9898214340209961
v -0.763521134853363 0 -0.6820566058158875
v -1 0 -0.16424007713794708
v -0.918985903263092 0 0.39922505617141724
v -0.5462003946304321 0 0.8294425010681152
v -2.4744804945547383e-16 0 0.9898214340209961
vt 0 1
vt 0.09090909361839294 1
vt 0.1818181872367859 1
vt 0.27272728085517883 1
vt 0.3636363744735718 1
vt 0.4545454680919647 1
vt 0.5454545617103577 1
vt 0.6363636255264282 1
vt 0.7272727489471436 1
vt 0.8181818127632141 1
vt 0.9090909361839294 1
vt 1 1
vt 0 0
vt 0.09090909361839294 0
vt 0.1818181872367859 0
vt 0.27272728085517883 0
vt 0.3636363744735718 0
vt 0.4545454680919647 0
vt 0.5454545617103577 0
vt 0.6363636255264282 0
vt 0.7272727489471436 0
vt 0.8181818127632141 0
vt 0.9090909361839294 0
vt 1 0
vt 0.5 0.5
vt 0.5 0.5
vt 0.5 0.5
vt 0.5 0.5
vt 0.5 0.5
vt 0.5 0.5
vt 0.5 0.5
vt 0.5 0.5
vt 0.5 0.5
vt 0.5 0.5
vt 0.5 0.5
vt 1 0.5
vt 0.9206267595291138 0.7703204154968262
vt 0.7077075242996216 0.9548159837722778
vt 0.42884257435798645 0.994910717010498
vt 0.1725696325302124 0.8778747916221619
vt 0.020253513008356094 0.6408662796020508
vt 0.020253513008356094 0.3591337203979492
vt 0.1725696325302124 0.12212521582841873
vt 0.42884257435798645 0.005089279264211655
vt 0.7077075242996216 0.045184001326560974
vt 0.9206267595291138 0.22967958450317383
vt 1 0.5
vt 0.5 0.5
vt 0.5 0.5
vt 0.5 0.5
vt 0.5 0.5
vt 0.5 0.5
vt 0.5 0.5
vt 0.5 0.5
vt 0.5 0.5
vt 0.5 0.5
vt 0.5 0.5
vt 0.5 0.5
vt 1 0.5
vt 0.9206267595291138 0.22967958450317383
vt 0.7077075242996216 0.045184001326560974
vt 0.42884257435798645 0.005089279264211655
vt 0.1725696325302124 0.12212521582841873
vt 0.020253513008356094 0.3591337203979492
vt 0.020253513008356094 0.6408662796020508
vt 0.1725696325302124 0.8778747916221619
vt 0.42884257435798645 0.994910717010498
vt 0.7077075242996216 0.9548159837722778
vt 0.9206267595291138 0.7703204154968262
vt 1 0.5
vn 0.2698626161711097 0.28720864030823484 0.9190676609072801
vn 0.3942932595758314 0.2953888855744591 0.8702173474093383
vn 0.8021756375881297 0.29538887611339804 0.518902359147211
vn 0.9553728744901914 0.2953889085922124 0.0028396072000553196
vn 0.805246003782879 0.2953889102246479 -0.5141247563656103
vn 0.3994592186753568 0.29538891137728596 -0.8678581241485357
vn -0.13315306598522073 0.2953889070746433 -0.9460526700961123
vn -0.6234901495621387 0.2953889047395255 -0.7238821923184501
vn -0.9158735779251369 0.2953888744225655 -0.2718841704218506
vn -0.9174735540495572 0.29538890701330967 0.2664351163663614
vn -0.6277822162391805 0.29538890278546026 0.7201630961699058
vn -0.2698626161711097 0.28720864030823484 0.9190676609072801
vn 0.2698626161711097 0.28720864030823484 0.9190676609072801
vn 0.5623022913445119 0.29780754444400476 0.771444618635028
vn 0.8901132114703663 0.2978075069557486 0.3449770420864452
vn 0.9353195513812717 0.29780751737279515 -0.1910183745093355
vn 0.6835685332944768 0.2978075427529682 -0.6663668117254016
vn 0.21478931788353597 0.2978075470007371 -0.9301484902275169
vn -0.3221839642212723 0.2978075422371959 -0.8986145786627917
vn -0.756866154305243 0.29780751358559066 -0.5817768552625314
vn -0.95124863269828 0.297807540373564 -0.08022909501110402
vn -0.8436164205302297 0.29780754254208996 0.44679078170526737
vn -0.4681419189652404 0.2978075181989202 0.831957826943014
vn -0.2698626161711097 0.28720864030823484 0.9190676609072801
vn 0 1 0
vn 0 1 0
vn 0 1 0
vn 0 1 0
vn 0 1 0
vn 0 1 0
vn 0 1 0
vn 0 1 0
vn 0 1 0
vn 0 1 0
vn 0 1 0
vn 0 1 0
vn 0 1 0
vn 0 1 0
vn 0 1 0
vn 0 1 0
vn 0 1 0
vn 0 1 0
vn 0 1 0
vn 0 1 0
vn 0 1 0
vn 0 1 0
vn 0 1 0
vn 0 -1 0
vn 0 -1 0
vn 0 -1 0
vn 0 -1 0
vn 0 -1 0
vn 0 -1 0
vn 0 -1 0
vn 0 -1 0
vn 0 -1 0
vn 0 -1 0
vn 0 -1 0
vn 0 -1 0
vn 0 -1 0
vn 0 -1 0
vn 0 -1 0
vn 0 -1 0
vn 0 -1 0
vn 0 -1 0
vn 0 -1 0
vn 0 -1 0
vn 0 -1 0
vn 0 -1 0
vn 0 -1 0
f 1/1/1 13/13/13 2/2/2
f 13/13/13 14/14/14 2/2/2
f 2/2/2 14/14/14 3/3/3
f 14/14/14 15/15/15 3/3/3
f 3/3/3 15/15/15 4/4/4
f 15/15/15 16/16/16 4/4/4
f 4/4/4 16/16/16 5/5/5
f 16/16/16 17/17/17 5/5/5
f 5/5/5 17/17/17 6/6/6
f 17/17/17 18/18/18 6/6/6
f 6/6/6 18/18/18 7/7/7
f 18/18/18 19/19/19 7/7/7
f 7/7/7 19/19/19 8/8/8
f 19/19/19 20/20/20 8/8/8
f 8/8/8 20/20/20 9/9/9
f 20/20/20 21/21/21 9/9/9
f 9/9/9 21/21/21 10/10/10
f 21/21/21 22/22/22 10/10/10
f 10/10/10 22/22/22 11/11/11
f 22/22/22 23/23/23 11/11/11
f 11/11/11 23/23/23 12/12/12
f 23/23/23 24/24/24 12/12/12
f 36/36/36 37/37/37 25/25/25
f 37/37/37 38/38/38 26/26/26
f 38/38/38 39/39/39 27/27/27
f 39/39/39 40/40/40 28/28/28
f 40/40/40 41/41/41 29/29/29
f 41/41/41 42/42/42 30/30/30
f 42/42/42 43/43/43 31/31/31
f 43/43/43 44/44/44 32/32/32
f 44/44/44 45/45/45 33/33/33
f 45/45/45 46/46/46 34/34/34
f 46/46/46 47/47/47 35/35/35
f 60/60/60 59/59/59 48/48/48
f 61/61/61 60/60/60 49/49/49
f 62/62/62 61/61/61 50/50/50
f 63/63/63 62/62/62 51/51/51
f 64/64/64 63/63/63 52/52/52
f 65/65/65 64/64/64 53/53/53
f 66/66/66 65/65/65 54/54/54
f 67/67/67 66/66/66 55/55/55
f 68/68/68 67/67/67 56/56/56
f 69/69/69 68/68/68 57/57/57
f 70/70/70 69/69/69 58/58/58
