o shape_051
v 0 0.23094011843204498 0.866025447845459
v 1 0.23094011843204498 -0.866025447845459
v -1 0.23094011843204498 -0.866025447845459
v -2.828200923932542e-16 0.23094011843204498 0.866025447845459
v 0 0 0.866025447845459
v 1 0 -0.866025447845459
v -1 0 -0.866025447845459
v -2.828200923932542e-16 0 0.866025447845459
v 0 0.23094011843204498 -0.28867512941360474
v 0 0.23094011843204498 -0.28867512941360474
v 0 0.23094011843204498 -0.28867512941360474
v 0 0.23094011843204498 0.866025447845459
v 1 0.23094011843204498 -0.866025447845459
v -1 0.23094011843204498 -0.866025447845459
v -2.828200923932542e-16 0.23094011843204498 0.866025447845459
v 0 0 -0.28867512941360474
v 0 0 -0.28867512941360474
v 0 0 -0.28867512941360474
v 0 0 0.866025447845459
v 1 0 -0.866025447845459
v -1 0 -0.866025447845459
v -2.828200923932542e-16 0 0.866025447845459
vt 0 1
vt 0.3333333432674408 1
vt 0.6666666865348816 1
vt 1 1
vt 0 0
vt 0.3333333432674408 0
vt 0.6666666865348816 0
vt 1 0
vt 0.5 0.5
vt 0.5 0.5
vt 0.5 0.5
vt 1 0.5
vt 0.25 0.9330127239227295
vt 0.25 0.0669872984290123
vt 1 0.5
vt 0.5 0.5
vt 0.5 0.5
vt 0.5 0.5
vt 1 0.5
vt 0.25 0.0669872984290123
vt 0.25 0.9330127239227295
vt 1 0.5
vn 0.8660254128033169 0 0.4999999843788446
vn 1 0 -8.603189272093914e-9
vn -0.5000000067305869 0 -0.8660253998985324
vn -0.8660254128033169 0 0.4999999843788446
vn 0.8660254128033169 0 0.4999999843788446
vn 0.5000000067305869 0 -0.8660253998985324
vn -1 0 4.301594636046957e-9
vn -0.8660254128033169 0 0.4999999843788446
vn 0 1 0
vn 0 1 0
vn 0 1 0
vn 0 1 0
vn 0 1 0
vn 0 1 0
vn 0 1 0
vn 0 -1 0
vn 0 -1 0
vn 0 -1 0
vn 0 -1 0
vn 0 -1 0
vn 0 -1 0
vn 0 -1 0
f 1/1/1 5/5/5 2/2/2
f 5/5/5 6/6/6 2/2/2
f 2/2/2 6/6/6 3/3/3
f 6/6/6 7/7/7 3/3/3
f 3/3/3 7/7/7 4/4/4
f 7/7/7 8/8/8 4/4/4
f 12/12/12 13/13/13 9/9/9
f 13/13/13 14/14/14 10/10/10
f 14/14/14 15/15/15 11/11/11
f 20/20/20 19/19/19 16/16/16
f 21/21/21 20/20/20 17/17/17
f 22/22/22 21/21/21 18/18/18
