o shape_055
v 0 0.20514337718486786 0.9749279022216797
v 0.8019377589225769 0.20514337718486786 0.5887351036071777
v 1 0.20514337718486786 -0.2790324091911316
v 0.44504186511039734 0.20514337718486786 -0.9749279022216797
v -0.44504186511039734 0.20514337718486786 -0.9749279022216797
v -1 0.20514337718486786 -0.2790324091911316
v -0.8019377589225769 0.20514337718486786 0.5887351036071777
v -2.5122819868039217e-16 0.20514337718486786 0.9749279022216797
v 0 0 0.9749279022216797
v 0.8019377589225769 0 0.5887351036071777
v 1 0 -0.2790324091911316
v 0.44504186511039734 0 -0.9749279022216797
v -0.44504186511039734 0 -0.9749279022216797
v -1 0 -0.2790324091911316
v -0.8019377589225769 0 0.5887351036071777
v -2.5122819868039217e-16 0 0.9749279022216797
v 0 0.20514337718486786 -0.050788961350917816
v 0 0.20514337718486786 -0.050788961350917816
v 0 0.20514337718486786 -0.050788961350917816
v 0 0.20514337718486786 -0.050788961350917816
v 0 0.20514337718486786 -0.050788961350917816
v 0 0.20514337718486786 -0.050788961350917816
v 0 0.20514337718486786 -0.050788961350917816
v 0 0.20514337718486786 0.9749279022216797
v 0.8019377589225769 0.20514337718486786 0.5887351036071777
v 1 0.20514337718486786 -0.2790324091911316
v 0.44504186511039734 0.20514337718486786 -0.9749279022216797
v -0.44504186511039734 0.20514337718486786 -0.9749279022216797
v -1 0.20514337718486786 -0.2790324091911316
v -0.8019377589225769 0.20514337718486786 0.5887351036071777
v -2.5122819868039217e-16 0.20514337718486786 0.9749279022216797
v 0 0 -0.050788961350917816
v 0 0 -0.050788961350917816
v 0 0 -0.050788961350917816
v 0 0 -0.050788961350917816
v 0 0 -0.050788961350917816
v 0 0 -0.050788961350917816
v 0 0 -0.050788961350917816
v 0 0 0.9749279022216797
v 0.8019377589225769 0 0.5887351036071777
v 1 0 -0.2790324091911316
v 0.44504186511039734 0 -0.9749279022216797
v -0.44504186511039734 0 -0.9749279022216797
v -1 0 -0.2790324091911316
v -0.8019377589225769 0 0.5887351036071777
v -2.5122819868039217e-16 0 0.9749279022216797
vt 0 1
vt 0.1428571492433548 1
vt 0.2857142984867096 1
vt 0.4285714328289032 1
vt 0.5714285969734192 1
vt 0.7142857313156128 1
vt 0.8571428656578064 1
vt 1 1
vt 0 0
vt 0.1428571492433548 0
vt 0.2857142984867096 0
vt 0.4285714328289032 0
vt 0.5714285969734192 0
vt 0.7142857313156128 0
vt 0.8571428656578064 0
vt 1 0
vt 0.5 0.5
vt 0.5 0.5
vt 0.5 0.5
vt 0.5 0.5
vt 0.5 0.5
vt 0.5 0.5
vt 0.5 0.5
vt 1 0.5
vt 0.8117449283599854 0.8909157514572144
vt 0.38873952627182007 0.9874639511108398
vt 0.04951556771993637 0.7169418931007385
vt 0.04951556771993637 0.28305813670158386
vt 0.38873952627182007 0.012536044232547283
vt 0.8117449283599854 0.10908425599336624
vt 1 0.5
vt 0.5 0.5
vt 0.5 0.5
vt 0.5 0.5
vt 0.5 0.5
vt 0.5 0.5
vt 0.5 0.5
vt 0.5 0.5
vt 1 0.5
vt 0.8117449283599854 0.10908425599336624
vt 0.38873952627182007 0.012536044232547283
vt 0.04951556771993637 0.28305813670158386
vt 0.04951556771993637 0.7169418931007385
vt 0.38873952627182007 0.9874639511108398
vt 0.8117449283599854 0.8909157514572144
vt 1 0.5
vn 0.4338837360855756 0 0.9009688693625448
vn 0.6731283587712783 0 0.7395256673151277
vn 0.9978731138503207 0 -0.06518626124165093
vn 0.5711990599158584 0 -0.8208115703078506
vn -0.2855995309878648 0 -0.9583490532679164
vn -0.9273358495543579 0 -0.3742301726628911
vn -0.8707693716127316 0 0.49169167316639445
vn -0.4338837360855756 0 0.9009688693625448
vn 0.4338837360855756 0 0.9009688693625448
vn 0.8707693716127316 0 0.49169167316639445
vn 0.9273358495543579 0 -0.3742301726628911
vn 0.2855995309878648 0 -0.9583490532679164
vn -0.5711990599158584 0 -0.8208115703078506
vn -0.9978731143349633 0 -0.06518625382272981
vn -0.6731283587712783 0 0.7395256673151277
vn -0.4338837360855756 0 0.9009688693625448
vn 0 1 0
vn 0 1 0
vn 0 1 0
vn 0 1 0
vn 0 1 0
vn 0 1 0
vn 0 1 0
vn 0 1 0
vn 0 1 0
vn 0 1 0
vn 0 1 0
vn 0 1 0
vn 0 1 0
vn 0 1 0
vn 0 1 0
vn 0 -1 0
vn 0 -1 0
vn 0 -1 0
vn 0 -1 0
vn 0 -1 0
vn 0 -1 0
vn 0 -1 0
vn 0 -1 0
vn 0 -1 0
vn 0 -1 0
vn 0 -1 0
vn 0 -1 0
vn 0 -1 0
vn 0 -1 0
vn 0 -1 0
f 1/1/1 9/9/9 2/2/2
f 9/9/9 10/10/10 2/2/2
f 2/2/2 10/10/10 3/3/3
f 10/10/10 11/11/11 3/3/3
f 3/3/3 11/11/11 4/4/4
f 11/11/11 12/12/12 4/4/4
f 4/4/4 12/12/12 5/5/5
f 12/12/12 13/13/13 5/5/5
f 5/5/5 13/13/13 6/6/6
f 13/13/13 14/14/14 6/6/6
f 6/6/6 14/14/14 7/7/7
f 14/14/14 15/15/15 7/7/7
f 7/7/7 15/15/15 8/8/8
f 15/15/15 16/16/16 8/8/8
f 24/24/24 25/25/25 17/17/17
f 25/25/25 26/26/26 18/18/18
f 26/26/26 27/27/27 19/19/19
f 27/27/27 28/28/28 20/20/20
f 28/28/28 29/29/29 21/21/21
f 29/29/29 30/30/30 22/22/22
f 30/30/30 31/31/31 23/23/23
f 40/40/40 39/39/39 32/32/32
f 41/41/41 40/40/40 33/33/33
f 42/42/42 41/41/41 34/34/34
f 43/43/43 42/42/42 35/35/35
f 44/44/44 43/43/43 36/36/36
f 45/45/45 44/44/44 37/37/37
f 46/46/46 45/45/45 38/38/38
