o shape_057
v 0 0.20308533310890198 0.9848077893257141
v 0.6527037024497986 0.20308533310890198 0.7472430467605591
v 1 0.20308533310890198 0.1457081288099289
v 0.879385232925415 0.20308533310890198 -0.5383321642875671
v 0.3472963869571686 0.20308533310890198 -0.9848077893257141
v -0.3472963869571686 0.20308533310890198 -0.9848077893257141
v -0.879385232925415 0.20308533310890198 -0.5383321642875671
v -1 0.20308533310890198 0.1457081288099289
v -0.6527037024497986 0.20308533310890198 0.7472430467605591
v -2.487077992062778e-16 0.20308533310890198 0.9848077893257141
v 0 0 0.9848077893257141
v 0.6527037024497986 0 0.7472430467605591
v 1 0 0.1457081288099289
v 0.879385232925415 0 -0.5383321642875671
v 0.3472963869571686 0 -0.9848077893257141
v -0.3472963869571686 0 -0.9848077893257141
v -0.879385232925415 0 -0.5383321642875671
v -1 0 0.1457081288099289
v -0.6527037024497986 0 0.7472430467605591
v -2.487077992062778e-16 0 0.9848077893257141
v 0 0.20308533310890198 -0.030618861317634583
v 0 0.20308533310890198 -0.030618861317634583
v 0 0.20308533310890198 -0.030618861317634583
v 0 0.20308533310890198 -0.030618861317634583
v 0 0.20308533310890198 -0.030618861317634583
v 0 0.20308533310890198 -0.030618861317634583
v 0 0.20308533310890198 -0.030618861317634583
v 0 0.20308533310890198 -0.030618861317634583
v 0 0.20308533310890198 -0.030618861317634583
v 0 0.20308533310890198 0.9848077893257141
v 0.6527037024497986 0.20308533310890198 0.7472430467605591
v 1 0.20308533310890198 0.1457081288099289
v 0.879385232925415 0.20308533310890198 -0.5383321642875671
v 0.3472963869571686 0.20308533310890198 -0.9848077893257141
v -0.3472963869571686 0.20308533310890198 -0.9848077893257141
v -0.879385232925415 0.20308533310890198 -0.5383321642875671
v -1 0.20308533310890198 0.1457081288099289
v -0.6527037024497986 0.20308533310890198 0.7472430467605591
v -2.487077992062778e-16 0.20308533310890198 0.9848077893257141
v 0 0 -0.030618861317634583
v 0 0 -0.030618861317634583
v 0 0 -0.030618861317634583
v 0 0 -0.030618861317634583
v 0 0 -0.030618861317634583
v 0 0 -0.030618861317634583
v 0 0 -0.030618861317634583
v 0 0 -0.030618861317634583
v 0 0 -0.030618861317634583
v 0 0 0.9848077893257141
v 0.6527037024497986 0 0.7472430467605591
v 1 0 0.1457081288099289
v 0.879385232925415 0 -0.5383321642875671
v 0.3472963869571686 0 -0.9848077893257141
v -0.3472963869571686 0 -0.9848077893257141
v -0.879385232925415 0 -0.5383321642875671
v -1 0 0.1457081288099289
v -0.6527037024497986 0 0.7472430467605591
v -2.487077992062778e-16 0 0.9848077893257141
vt 0 1
vt 0.1111111119389534 1
vt 0.2222222238779068 1
vt 0.3333333432674408 1
vt 0.4444444477558136 1
vt 0.5555555820465088 1
vt 0.6666666865348816 1
vt 0.7777777910232544 1
vt 0.8888888955116272 1
vt 1 1
vt 0 0
vt 0.1111111119389534 0
vt 0.2222222238779068 0
vt 0.3333333432674408 0
vt 0.4444444477558136 0
vt 0.5555555820465088 0
vt 0.6666666865348816 0
vt 0.7777777910232544 0
vt 0.8888888955116272 0
vt 1 0
vt 0.5 0.5
vt 0.5 0.5
vt 0.5 0.5
vt 0.5 0.5
vt 0.5 0.5
vt 0.5 0.5
vt 0.5 0.5
vt 0.5 0.5
vt 0.5 0.5
vt 1 0.5
vt 0.8830222487449646 0.8213937878608704
vt 0.5868240594863892 0.9924038648605347
vt 0.25 0.9330127239227295
vt 0.03015368990600109 0.6710100769996643
vt 0.03015368990600109 0.3289899230003357
vt 0.25 0.0669872984290123
vt 0.5868240594863892 0.007596123497933149
vt 0.8830222487449646 0.17860619723796844
vt 1 0.5
vt 0.5 0.5
vt 0.5 0.5
vt 0.5 0.5
vt 0.5 0.5
vt 0.5 0.5
vt 0.5 0.5
vt 0.5 0.5
vt 0.5 0.5
vt 0.5 0.5
vt 1 0.5
vt 0.8830222487449646 0.17860619723796844
vt 0.5868240594863892 0.007596123497933149
vt 0.25 0.0669872984290123
vt 0.03015368990600109 0.3289899230003357
vt 0.03015368990600109 0.6710100769996643
vt 0.25 0.9330127239227295
vt 0.5868240594863892 0.9924038648605347
vt 0.8830222487449646 0.8213937878608704
vt 1 0.5
vn 0.3420201278240845 0 0.9396926264280235
vn 0.5458459301637272 0 0.8378855652914038
vn 0.9567247003600617 0 0.2909945836625657
vn 0.9199413591266502 0 -0.3920559855023406
vn 0.4527072623614386 0 -0.8916592031741789
vn -0.2263536105320681 0 -0.9740451955628634
vn -0.7995011118410503 0 -0.6006646087168147
vn -0.9985531524663398 0 0.05377361527305822
vn -0.7303710698753355 0 0.6830505839900569
vn -0.3420201278240845 0 0.9396926264280235
vn 0.3420201278240845 0 0.9396926264280235
vn 0.730371097684364 0 0.683050554254469
vn 0.9985531522663073 0 0.05377361898757644
vn 0.7995011404651093 0 -0.6006645706174033
vn 0.22635362466975367 0 -0.9740451922774755
vn -0.4527072623614386 0 -0.8916592031741789
vn -0.9199413591266502 0 -0.3920559855023406
vn -0.9567247086570788 0 0.29099455638383953
vn -0.5458458610575855 0 0.8378856103110395
vn -0.3420201278240845 0 0.9396926264280235
vn 0 1 0
vn 0 1 0
vn 0 1 0
vn 0 1 0
vn 0 1 0
vn 0 1 0
vn 0 1 0
vn 0 1 0
vn 0 1 0
vn 0 1 0
vn 0 1 0
vn 0 1 0
vn 0 1 0
vn 0 1 0
vn 0 1 0
vn 0 1 0
vn 0 1 0
vn 0 1 0
vn 0 1 0
vn 0 -1 0
vn 0 -1 0
vn 0 -1 0
vn 0 -1 0
vn 0 -1 0
vn 0 -1 0
vn 0 -1 0
vn 0 -1 0
vn 0 -1 0
vn 0 -1 0
vn 0 -1 0
vn 0 -1 0
vn 0 -1 0
vn 0 -1 0
vn 0 -1 0
vn 0 -1 0
vn 0 -1 0
vn 0 -1 0
vn 0 -1 0
f 1/1/1 11/11/11 2/2/2
f 11/11/11 12/12/12 2/2/2
f 2/2/2 12/12/12 3/3/3
f 12/12/12 13/13/13 3/3/3
f 3/3/3 13/13/13 4/4/4
f 13/13/13 14/14/14 4/4/4
f 4/4/4 14/14/14 5/5/5
f 14/14/14 15/15/15 5/5/5
f 5/5/5 15/15/15 6/6/6
f 15/15/15 16/16/16 6/6/6
f 6/6/6 16/16/16 7/7/7
f 16/16/16 17/17/17 7/7/7
f 7/7/7 17/17/17 8/8/8
f 17/17/17 18/18/18 8/8/8
f 8/8/8 18/18/18 9/9/9
f 18/18/18 19/19/19 9/9/9
f 9/9/9 19/19/19 10/10/10
f 19/19/19 20/20/20 10/10/10
f 30/30/30 31/31/31 21/21/21
f 31/31/31 32/32/32 22/22/22
f 32/32/32 33/33/33 23/23/23
f 33/33/33 34/34/34 24/24/24
f 34/34/34 35/35/35 25/25/25
f 35/35/35 36/36/36 26/26/26
f 36/36/36 37/37/37 27/27/27
f 37/37/37 38/38/38 28/28/28
f 38/38/38 39/39/39 29/29/29
f 50/50/50 49/49/49 40/40/40
f 51/51/51 50/50/50 41/41/41
f 52/52/52 51/51/51 42/42/42
f 53/53/53 52/52/52 43/43/43
f 54/54/54 53/53/53 44/44/44
f 55/55/55 54/54/54 45/45/45
f 56/56/56 55/55/55 46/46/46
f 57/57/57 56/56/56 47/47/47
f 58/58/58 57/57/57 48/48/48
