o shape_065
v 0.365073561668396 1.2002688646316528 -0.17950044572353363
v 0.9749279022216797 1 -0.17950044572353363
v 0.365073561668396 0.7997311949729919 -0.17950044572353363
v 0.05192060023546219 1.4500000476837158 -0.17950044572353363
v 0.5887351036071777 1.8019378185272217 -0.17950044572353363
v 0.365073561668396 1.2002688646316528 -0.17950044572353363
v -0.33857476711273193 1.3608720302581787 -0.17950044572353363
v -0.2790324091911316 2 -0.17950044572353363
v 0.05192060023546219 1.4500000476837158 -0.17950044572353363
v -0.5123615264892578 1 -0.17950044572353363
v -0.9749279022216797 1.4450417757034302 -0.17950044572353363
v -0.33857476711273193 1.3608720302581787 -0.17950044572353363
v -0.33857476711273193 0.6391280293464661 -0.17950044572353363
v -0.9749279022216797 0.554958164691925 -0.17950044572353363
v -0.5123615264892578 1 -0.17950044572353363
v 0.05192060023546219 0.5499999523162842 -0.17950044572353363
v -0.2790324091911316 0 -0.17950044572353363
v -0.33857476711273193 0.6391280293464661 -0.17950044572353363
v 0.365073561668396 0.7997311949729919 -0.17950044572353363
v 0.5887351036071777 0.1980622410774231 -0.17950044572353363
v 0.05192060023546219 0.5499999523162842 -0.17950044572353363
v 0.05192060023546219 1.4500000476837158 -0.17950044572353363
v 0.365073561668396 1.2002688646316528 -0.17950044572353363
v 0.365073561668396 0.7997311949729919 -0.17950044572353363
v -0.5123615264892578 1 -0.17950044572353363
v -0.33857476711273193 1.3608720302581787 -0.17950044572353363
v 0.05192060023546219 1.4500000476837158 -0.17950044572353363
v 0.05192060023546219 0.5499999523162842 -0.17950044572353363
v -0.33857476711273193 0.6391280293464661 -0.17950044572353363
v -0.5123615264892578 1 -0.17950044572353363
v 0.05192060023546219 1.4500000476837158 -0.17950044572353363
v 0.365073561668396 0.7997311949729919 -0.17950044572353363
v 0.05192060023546219 0.5499999523162842 -0.17950044572353363
v 0.05192060023546219 0.5499999523162842 -0.17950044572353363
v -0.5123615264892578 1 -0.17950044572353363
v 0.05192060023546219 1.4500000476837158 -0.17950044572353363
v 0.365073561668396 0.7997311949729919 0.17950044572353363
v 0.9749279022216797 1 0.17950044572353363
v 0.365073561668396 1.2002688646316528 0.17950044572353363
v 0.365073561668396 1.2002688646316528 0.17950044572353363
v 0.5887351036071777 1.8019378185272217 0.17950044572353363
v 0.05192060023546219 1.4500000476837158 0.17950044572353363
v 0.05192060023546219 1.4500000476837158 0.17950044572353363
v -0.2790324091911316 2 0.17950044572353363
v -0.33857476711273193 1.3608720302581787 0.17950044572353363
v -0.33857476711273193 1.3608720302581787 0.17950044572353363
v -0.9749279022216797 1.4450417757034302 0.17950044572353363
v -0.5123615264892578 1 0.17950044572353363
v -0.5123615264892578 1 0.17950044572353363
v -0.9749279022216797 0.554958164691925 0.17950044572353363
v -0.33857476711273193 0.6391280293464661 0.17950044572353363
v -0.33857476711273193 0.6391280293464661 0.17950044572353363
v -0.2790324091911316 0 0.17950044572353363
v 0.05192060023546219 0.5499999523162842 0.17950044572353363
v 0.05192060023546219 0.5499999523162842 0.17950044572353363
v 0.5887351036071777 0.1980622410774231 0.17950044572353363
v 0.365073561668396 0.7997311949729919 0.17950044572353363
v 0.365073561668396 0.7997311949729919 0.17950044572353363
v 0.365073561668396 1.2002688646316528 0.17950044572353363
v 0.05192060023546219 1.4500000476837158 0.17950044572353363
v 0.05192060023546219 1.4500000476837158 0.17950044572353363
v -0.33857476711273193 1.3608720302581787 0.17950044572353363
v -0.5123615264892578 1 0.17950044572353363
v -0.5123615264892578 1 0.17950044572353363
v -0.33857476711273193 0.6391280293464661 0.17950044572353363
v 0.05192060023546219 0.5499999523162842 0.17950044572353363
v 0.05192060023546219 0.5499999523162842 0.17950044572353363
v 0.365073561668396 0.7997311949729919 0.17950044572353363
v 0.05192060023546219 1.4500000476837158 0.17950044572353363
v 0.05192060023546219 1.4500000476837158 0.17950044572353363
v -0.5123615264892578 1 0.17950044572353363
v 0.05192060023546219 0.5499999523162842 0.17950044572353363
v 0.9749279022216797 1 -0.17950044572353363
v 0.365073561668396 1.2002688646316528 -0.17950044572353363
v 0.9749279022216797 1 0.17950044572353363
v 0.365073561668396 1.2002688646316528 -0.17950044572353363
v 0.365073561668396 1.2002688646316528 0.17950044572353363
v 0.9749279022216797 1 0.17950044572353363
v 0.365073561668396 1.2002688646316528 -0.17950044572353363
v 0.5887351036071777 1.8019378185272217 -0.17950044572353363
v 0.365073561668396 1.2002688646316528 0.17950044572353363
v 0.5887351036071777 1.8019378185272217 -0.17950044572353363
v 0.5887351036071777 1.8019378185272217 0.17950044572353363
v 0.365073561668396 1.2002688646316528 0.17950044572353363
v 0.5887351036071777 1.8019378185272217 -0.17950044572353363
v 0.05192060023546219 1.4500000476837158 -0.17950044572353363
v 0.5887351036071777 1.8019378185272217 0.17950044572353363
v 0.05192060023546219 1.4500000476837158 -0.17950044572353363
v 0.05192060023546219 1.4500000476837158 0.17950044572353363
v 0.5887351036071777 1.8019378185272217 0.17950044572353363
v 0.05192060023546219 1.4500000476837158 -0.17950044572353363
v -0.2790324091911316 2 -0.17950044572353363
v 0.05192060023546219 1.4500000476837158 0.17950044572353363
v -0.2790324091911316 2 -0.17950044572353363
v -0.2790324091911316 2 0.17950044572353363
v 0.05192060023546219 1.4500000476837158 0.17950044572353363
v -0.2790324091911316 2 -0.17950044572353363
v -0.33857476711273193 1.3608720302581787 -0.17950044572353363
v -0.2790324091911316 2 0.17950044572353363
v -0.33857476711273193 1.3608720302581787 -0.17950044572353363
v -0.33857476711273193 1.3608720302581787 0.17950044572353363
v -0.2790324091911316 2 0.17950044572353363
v -0.33857476711273193 1.3608720302581787 -0.17950044572353363
v -0.9749279022216797 1.4450417757034302 -0.17950044572353363
v -0.33857476711273193 1.3608720302581787 0.17950044572353363
v -0.9749279022216797 1.4450417757034302 -0.17950044572353363
v -0.9749279022216797 1.4450417757034302 0.17950044572353363
v -0.33857476711273193 1.3608720302581787 0.17950044572353363
v -0.9749279022216797 1.4450417757034302 -0.17950044572353363
v -0.5123615264892578 1 -0.17950044572353363
v -0.9749279022216797 1.4450417757034302 0.17950044572353363
v -0.5123615264892578 1 -0.17950044572353363
v -0.5123615264892578 1 0.17950044572353363
v -0.9749279022216797 1.4450417757034302 0.17950044572353363
v -0.5123615264892578 1 -0.17950044572353363
v -0.9749279022216797 0.554958164691925 -0.17950044572353363
v -0.5123615264892578 1 0.17950044572353363
v -0.9749279022216797 0.554958164691925 -0.17950044572353363
v -0.9749279022216797 0.554958164691925 0.17950044572353363
v -0.5123615264892578 1 0.17950044572353363
v -0.9749279022216797 0.554958164691925 -0.17950044572353363
v -0.33857476711273193 0.6391280293464661 -0.17950044572353363
v -0.9749279022216797 0.554958164691925 0.17950044572353363
v -0.33857476711273193 0.6391280293464661 -0.17950044572353363
v -0.33857476711273193 0.6391280293464661 0.17950044572353363
v -0.9749279022216797 0.554958164691925 0.17950044572353363
v -0.33857476711273193 0.6391280293464661 -0.17950044572353363
v -0.2790324091911316 0 -0.17950044572353363
v -0.33857476711273193 0.6391280293464661 0.17950044572353363
v -0.2790324091911316 0 -0.17950044572353363
v -0.2790324091911316 0 0.17950044572353363
v -0.33857476711273193 0.6391280293464661 0.17950044572353363
v -0.2790324091911316 0 -0.17950044572353363
v 0.05192060023546219 0.5499999523162842 -0.17950044572353363
v -0.2790324091911316 0 0.17950044572353363
v 0.05192060023546219 0.5499999523162842 -0.17950044572353363
v 0.05192060023546219 0.5499999523162842 0.17950044572353363
v -0.2790324091911316 0 0.17950044572353363
v 0.05192060023546219 0.5499999523162842 -0.17950044572353363
v 0.5887351036071777 0.1980622410774231 -0.17950044572353363
v 0.05192060023546219 0.5499999523162842 0.17950044572353363
v 0.5887351036071777 0.1980622410774231 -0.17950044572353363
v 0.5887351036071777 0.1980622410774231 0.17950044572353363
v 0.05192060023546219 0.5499999523162842 0.17950044572353363
v 0.5887351036071777 0.1980622410774231 -0.17950044572353363
v 0.365073561668396 0.7997311949729919 -0.17950044572353363
v 0.5887351036071777 0.1980622410774231 0.17950044572353363
v 0.365073561668396 0.7997311949729919 -0.17950044572353363
v 0.365073561668396 0.7997311949729919 0.17950044572353363
v 0.5887351036071777 0.1980622410774231 0.17950044572353363
v 0.365073561668396 0.7997311949729919 -0.17950044572353363
v 0.9749279022216797 1 -0.17950044572353363
v 0.365073561668396 0.7997311949729919 0.17950044572353363
v 0.9749279022216797 1 -0.17950044572353363
v 0.9749279022216797 1 0.17950044572353363
v 0.365073561668396 0.7997311949729919 0.17950044572353363
vt 0.4054359793663025 0.19524767994880676
vt 1 0
vt 0.4054359793663025 -0.19524767994880676
vt 0.10013441741466522 0.4387175738811493
vt 0.6234897971153259 0.7818315029144287
vt 0.4054359793663025 0.19524767994880676
vt -0.2805704176425934 0.35182416439056396
vt -0.22252093255519867 0.9749279022216797
vt 0.10013441741466522 0.4387175738811493
vt -0.44999998807907104 5.5109105057610103e-17
vt -0.9009688496589661 0.4338837265968323
vt -0.2805704176425934 0.35182416439056396
vt -0.2805704176425934 -0.35182416439056396
vt -0.9009688496589661 -0.4338837265968323
vt -0.44999998807907104 5.5109105057610103e-17
vt 0.10013441741466522 -0.4387175738811493
vt -0.22252093255519867 -0.9749279022216797
vt -0.2805704176425934 -0.35182416439056396
vt 0.4054359793663025 -0.19524767994880676
vt 0.6234897971153259 -0.7818315029144287
vt 0.10013441741466522 -0.4387175738811493
vt 0.10013441741466522 0.4387175738811493
vt 0.4054359793663025 0.19524767994880676
vt 0.4054359793663025 -0.19524767994880676
vt -0.44999998807907104 5.5109105057610103e-17
vt -0.2805704176425934 0.35182416439056396
vt 0.10013441741466522 0.4387175738811493
vt 0.10013441741466522 -0.4387175738811493
vt -0.2805704176425934 -0.35182416439056396
vt -0.44999998807907104 5.5109105057610103e-17
vt 0.10013441741466522 0.4387175738811493
vt 0.4054359793663025 -0.19524767994880676
vt 0.10013441741466522 -0.4387175738811493
vt 0.10013441741466522 -0.4387175738811493
vt -0.44999998807907104 5.5109105057610103e-17
vt 0.10013441741466522 0.4387175738811493
vt 0.4054359793663025 -0.19524767994880676
vt 1 0
vt 0.4054359793663025 0.19524767994880676
vt 0.4054359793663025 0.19524767994880676
vt 0.6234897971153259 0.7818315029144287
vt 0.10013441741466522 0.4387175738811493
vt 0.10013441741466522 0.4387175738811493
vt -0.22252093255519867 0.9749279022216797
vt -0.2805704176425934 0.35182416439056396
vt -0.2805704176425934 0.35182416439056396
vt -0.9009688496589661 0.4338837265968323
vt -0.44999998807907104 5.5109105057610103e-17
vt -0.44999998807907104 5.5109105057610103e-17
vt -0.9009688496589661 -0.4338837265968323
vt -0.2805704176425934 -0.35182416439056396
vt -0.2805704176425934 -0.35182416439056396
vt -0.22252093255519867 -0.9749279022216797
vt 0.10013441741466522 -0.4387175738811493
vt 0.10013441741466522 -0.4387175738811493
vt 0.6234897971153259 -0.7818315029144287
vt 0.4054359793663025 -0.19524767994880676
vt 0.4054359793663025 -0.19524767994880676
vt 0.4054359793663025 0.19524767994880676
vt 0.10013441741466522 0.4387175738811493
vt 0.10013441741466522 0.4387175738811493
vt -0.2805704176425934 0.35182416439056396
vt -0.44999998807907104 5.5109105057610103e-17
vt -0.44999998807907104 5.5109105057610103e-17
vt -0.2805704176425934 -0.35182416439056396
vt 0.10013441741466522 -0.4387175738811493
vt 0.10013441741466522 -0.4387175738811493
vt 0.4054359793663025 -0.19524767994880676
vt 0.10013441741466522 0.4387175738811493
vt 0.10013441741466522 0.4387175738811493
vt -0.44999998807907104 5.5109105057610103e-17
vt 0.10013441741466522 -0.4387175738811493
vt 1 1
vt 0.4054359793663025 1
vt 1 0.6499999761581421
vt 0.4054359793663025 1
vt 0.4054359793663025 0.6499999761581421
vt 1 0.6499999761581421
vt 0.19524767994880676 1
vt 0.7818315029144287 1
vt 0.19524767994880676 0.6499999761581421
vt 0.7818315029144287 1
vt 0.7818315029144287 0.6499999761581421
vt 0.19524767994880676 0.6499999761581421
vt 0.6234897971153259 1
vt 0.10013441741466522 1
vt 0.6234897971153259 0.6499999761581421
vt 0.10013441741466522 1
vt 0.10013441741466522 0.6499999761581421
vt 0.6234897971153259 0.6499999761581421
vt 0.4387175738811493 1
vt 0.9749279022216797 1
vt 0.4387175738811493 0.6499999761581421
vt 0.9749279022216797 1
vt 0.9749279022216797 0.6499999761581421
vt 0.4387175738811493 0.6499999761581421
vt 0.9749279022216797 1
vt 0.35182416439056396 1
vt 0.9749279022216797 0.6499999761581421
vt 0.35182416439056396 1
vt 0.35182416439056396 0.6499999761581421
vt 0.9749279022216797 0.6499999761581421
vt -0.2805704176425934 1
vt -0.9009688496589661 1
vt -0.2805704176425934 0.6499999761581421
vt -0.9009688496589661 1
vt -0.9009688496589661 0.6499999761581421
vt -0.2805704176425934 0.6499999761581421
vt -0.9009688496589661 1
vt -0.44999998807907104 1
vt -0.9009688496589661 0.6499999761581421
vt -0.44999998807907104 1
vt -0.44999998807907104 0.6499999761581421
vt -0.9009688496589661 0.6499999761581421
vt -0.44999998807907104 1
vt -0.9009688496589661 1
vt -0.44999998807907104 0.6499999761581421
vt -0.9009688496589661 1
vt -0.9009688496589661 0.6499999761581421
vt -0.44999998807907104 0.6499999761581421
vt -0.9009688496589661 1
vt -0.2805704176425934 1
vt -0.9009688496589661 0.6499999761581421
vt -0.2805704176425934 1
vt -0.2805704176425934 0.6499999761581421
vt -0.9009688496589661 0.6499999761581421
vt -0.35182416439056396 1
vt -0.9749279022216797 1
vt -0.35182416439056396 0.6499999761581421
vt -0.9749279022216797 1
vt -0.9749279022216797 0.6499999761581421
vt -0.35182416439056396 0.6499999761581421
vt -0.9749279022216797 1
vt -0.4387175738811493 1
vt -0.9749279022216797 0.6499999761581421
vt -0.4387175738811493 1
vt -0.4387175738811493 0.6499999761581421
vt -0.9749279022216797 0.6499999761581421
vt 0.10013441741466522 1
vt 0.6234897971153259 1
vt 0.10013441741466522 0.6499999761581421
vt 0.6234897971153259 1
vt 0.6234897971153259 0.6499999761581421
vt 0.10013441741466522 0.6499999761581421
vt -0.7818315029144287 1
vt -0.19524767994880676 1
vt -0.7818315029144287 0.6499999761581421
vt -0.19524767994880676 1
vt -0.19524767994880676 0.6499999761581421
vt -0.7818315029144287 0.6499999761581421
vt 0.4054359793663025 1
vt 1 1
vt 0.4054359793663025 0.6499999761581421
vt 1 1
vt 1 0.6499999761581421
vt 0.4054359793663025 0.6499999761581421
vn 0 0 -1
vn 0 0 -1
vn 0 0 -1
vn 0 0 -1
vn 0 0 -1
vn 0 0 -1
vn 0 0 -1
vn 0 0 -1
vn 0 0 -1
vn 0 0 -1
vn 0 0 -1
vn 0 0 -1
vn 0 0 -1
vn 0 0 -1
vn 0 0 -1
vn 0 0 -1
vn 0 0 -1
vn 0 0 -1
vn 0 0 -1
vn 0 0 -1
vn 0 0 -1
vn 0 0 -1
vn 0 0 -1
vn 0 0 -1
vn 0 0 -1
vn 0 0 -1
vn 0 0 -1
vn 0 0 -1
vn 0 0 -1
vn 0 0 -1
vn 0 0 -1
vn 0 0 -1
vn 0 0 -1
vn 0 0 -1
vn 0 0 -1
vn 0 0 -1
vn 0 0 1
vn 0 0 1
vn 0 0 1
vn 0 0 1
vn 0 0 1
vn 0 0 1
vn 0 0 1
vn 0 0 1
vn 0 0 1
vn 0 0 1
vn 0 0 1
vn 0 0 1
vn 0 0 1
vn 0 0 1
vn 0 0 1
vn 0 0 1
vn 0 0 1
vn 0 0 1
vn 0 0 1
vn 0 0 1
vn 0 0 1
vn 0 0 1
vn 0 0 1
vn 0 0 1
vn 0 0 1
vn 0 0 1
vn 0 0 1
vn 0 0 1
vn 0 0 1
vn 0 0 1
vn 0 0 1
vn 0 0 1
vn 0 0 1
vn 0 0 1
vn 0 0 1
vn 0 0 1
vn 0.3119959790441136 0.9500834221584465 0
vn 0.3119959790441136 0.9500834221584465 0
vn 0.3119959790441136 0.9500834221584465 0
vn 0.3119959790441136 0.9500834221584465 0
vn 0.3119959790441136 0.9500834221584465 0
vn 0.3119959790441136 0.9500834221584465 0
vn 0.9373314437602324 -0.34843903991711117 0
vn 0.9373314437602324 -0.34843903991711117 0
vn 0.9373314437602324 -0.34843903991711117 0
vn 0.9373314437602324 -0.34843903991711117 0
vn 0.9373314437602324 -0.34843903991711117 0
vn 0.9373314437602324 -0.34843903991711117 0
vn -0.5482788112246003 0.8362956087186749 0
vn -0.5482788112246003 0.8362956087186749 0
vn -0.5482788112246003 0.8362956087186749 0
vn -0.5482788112246003 0.8362956087186749 0
vn -0.5482788112246003 0.8362956087186749 0
vn -0.5482788112246003 0.8362956087186749 0
vn 0.8568371879705747 0.5155870763611885 0
vn 0.8568371879705747 0.5155870763611885 0
vn 0.8568371879705747 0.5155870763611885 0
vn 0.8568371879705747 0.5155870763611885 0
vn 0.8568371879705747 0.5155870763611885 0
vn 0.8568371879705747 0.5155870763611885 0
vn -0.995688481163159 0.09276016644552659 0
vn -0.995688481163159 0.09276016644552659 0
vn -0.995688481163159 0.09276016644552659 0
vn -0.995688481163159 0.09276016644552659 0
vn -0.995688481163159 0.09276016644552659 0
vn -0.995688481163159 0.09276016644552659 0
vn 0.1311270618650292 0.9913655701337651 0
vn 0.1311270618650292 0.9913655701337651 0
vn 0.1311270618650292 0.9913655701337651 0
vn 0.1311270618650292 0.9913655701337651 0
vn 0.1311270618650292 0.9913655701337651 0
vn 0.1311270618650292 0.9913655701337651 0
vn -0.693324381097075 -0.7206256327500139 0
vn -0.693324381097075 -0.7206256327500139 0
vn -0.693324381097075 -0.7206256327500139 0
vn -0.693324381097075 -0.7206256327500139 0
vn -0.693324381097075 -0.7206256327500139 0
vn -0.693324381097075 -0.7206256327500139 0
vn -0.693324381097075 0.7206256327500139 0
vn -0.693324381097075 0.7206256327500139 0
vn -0.693324381097075 0.7206256327500139 0
vn -0.693324381097075 0.7206256327500139 0
vn -0.693324381097075 0.7206256327500139 0
vn -0.693324381097075 0.7206256327500139 0
vn 0.1311270618650292 -0.9913655701337651 0
vn 0.1311270618650292 -0.9913655701337651 0
vn 0.1311270618650292 -0.9913655701337651 0
vn 0.1311270618650292 -0.9913655701337651 0
vn 0.1311270618650292 -0.9913655701337651 0
vn 0.1311270618650292 -0.9913655701337651 0
vn -0.995688481163159 -0.09276016644552659 0
vn -0.995688481163159 -0.09276016644552659 0
vn -0.995688481163159 -0.09276016644552659 0
vn -0.995688481163159 -0.09276016644552659 0
vn -0.995688481163159 -0.09276016644552659 0
vn -0.995688481163159 -0.09276016644552659 0
vn 0.8568371879705747 -0.5155870763611885 0
vn 0.8568371879705747 -0.5155870763611885 0
vn 0.8568371879705747 -0.5155870763611885 0
vn 0.8568371879705747 -0.5155870763611885 0
vn 0.8568371879705747 -0.5155870763611885 0
vn 0.8568371879705747 -0.5155870763611885 0
vn -0.5482788112246003 -0.8362956087186749 0
vn -0.5482788112246003 -0.8362956087186749 0
vn -0.5482788112246003 -0.8362956087186749 0
vn -0.5482788112246003 -0.8362956087186749 0
vn -0.5482788112246003 -0.8362956087186749 0
vn -0.5482788112246003 -0.8362956087186749 0
vn 0.9373314437602324 0.34843903991711117 0
vn 0.9373314437602324 0.34843903991711117 0
vn 0.9373314437602324 0.34843903991711117 0
vn 0.9373314437602324 0.34843903991711117 0
vn 0.9373314437602324 0.34843903991711117 0
vn 0.9373314437602324 0.34843903991711117 0
vn 0.3119959790441136 -0.9500834221584465 0
vn 0.3119959790441136 -0.9500834221584465 0
vn 0.3119959790441136 -0.9500834221584465 0
vn 0.3119959790441136 -0.9500834221584465 0
vn 0.3119959790441136 -0.9500834221584465 0
vn 0.3119959790441136 -0.9500834221584465 0
f 1/1/1 2/2/2 3/3/3
f 4/4/4 5/5/5 6/6/6
f 7/7/7 8/8/8 9/9/9
f 10/10/10 11/11/11 12/12/12
f 13/13/13 14/14/14 15/15/15
f 16/16/16 17/17/17 18/18/18
f 19/19/19 20/20/20 21/21/21
f 22/22/22 23/23/23 24/24/24
f 25/25/25 26/26/26 27/27/27
f 28/28/28 29/29/29 30/30/30
f 31/31/31 32/32/32 33/33/33
f 34/34/34 35/35/35 36/36/36
f 37/37/37 38/38/38 39/39/39
f 40/40/40 41/41/41 42/42/42
f 43/43/43 44/44/44 45/45/45
f 46/46/46 47/47/47 48/48/48
f 49/49/49 50/50/50 51/51/51
f 52/52/52 53/53/53 54/54/54
f 55/55/55 56/56/56 57/57/57
f 58/58/58 59/59/59 60/60/60
f 61/61/61 62/62/62 63/63/63
f 64/64/64 65/65/65 66/66/66
f 67/67/67 68/68/68 69/69/69
f 70/70/70 71/71/71 72/72/72
f 73/73/73 74/74/74 75/75/75
f 76/76/76 77/77/77 78/78/78
f 79/79/79 80/80/80 81/81/81
f 82/82/82 83/83/83 84/84/84
f 85/85/85 86/86/86 87/87/87
f 88/88/88 89/89/89 90/90/90
f 91/91/91 92/92/92 93/93/93
f 94/94/94 95/95/95 96/96/96
f 97/97/97 98/98/98 99/99/99
f 100/100/100 101/101/101 102/102/102
f 103/103/103 104/104/104 105/105/105
f 106/106/106 107/107/107 108/108/108
f 109/109/109 110/110/110 111/111/111
f 112/112/112 113/113/113 114/114/114
f 115/115/115 116/116/116 117/117/117
f 118/118/118 119/119/119 120/120/120
f 121/121/121 122/122/122 123/123/123
f 124/124/124 125/125/125 126/126/126
f 127/127/127 128/128/128 129/129/129
f 130/130/130 131/131/131 132/132/132
f 133/133/133 134/134/134 135/135/135
f 136/136/136 137/137/137 138/138/138
f 139/139/139 140/140/140 141/141/141
f 142/142/142 143/143/143 144/144/144
f 145/145/145 146/146/146 147/147/147
f 148/148/148 149/149/149 150/150/150
f 151/151/151 152/152/152 153/153/153
f 154/154/154 155/155/155 156/156/156
