o shape_071
v 0 0 0
v 0 0 0.6666666865348816
v 0 0.5555555820465088 1
v 0 1.1111111640930176 0.8333333730697632
v 0 1.5555555820465088 0.3888888955116272
v 0 1.888888955116272 0.3888888955116272
v 0 1.888888955116272 0
v 0 0 0
v 0.17254602909088135 0 0.6439505815505981
v 0.258819043636322 0.5555555820465088 0.9659258723258972
v 0.21568253636360168 1.1111111640930176 0.8049382567405701
v 0.10065185278654099 1.5555555820465088 0.37563782930374146
v 0.10065185278654099 1.888888955116272 0.37563782930374146
v 0 1.888888955116272 0
v 0 0 0
v 0.3333333432674408 0 0.5773502588272095
v 0.5 0.5555555820465088 0.866025447845459
v 0.4166666865348816 1.1111111640930176 0.7216878533363342
v 0.1944444477558136 1.5555555820465088 0.3367876708507538
v 0.1944444477558136 1.888888955116272 0.3367876708507538
v 0 1.888888955116272 0
v 0 0 0
v 0.4714045524597168 0 0.4714045524597168
v 0.7071068286895752 0.5555555820465088 0.7071068286895752
v 0.5892556309700012 1.1111111640930176 0.5892556309700012
v 0.2749859690666199 1.5555555820465088 0.2749859690666199
v 0.2749859690666199 1.888888955116272 0.2749859690666199
v 0 1.888888955116272 0
v 0 0 0
v 0.5773502588272095 0 0.3333333432674408
v 0.866025447845459 0.5555555820465088 0.5
v 0.7216878533363342 1.1111111640930176 0.4166666865348816
v 0.3367876708507538 1.5555555820465088 0.1944444477558136
v 0.3367876708507538 1.888888955116272 0.1944444477558136
v 0 1.888888955116272 0
v 0 0 0
v 0.6439505815505981 0 0.17254602909088135
v 0.9659258723258972 0.5555555820465088 0.258819043636322
v 0.8049382567405701 1.1111111640930176 0.21568253636360168
v 0.37563782930374146 1.5555555820465088 0.10065185278654099
v 0.37563782930374146 1.888888955116272 0.10065185278654099
v 0 1.888888955116272 0
v 0 0 0
v 0.6666666865348816 0 4.082156175283893e-17
v 1 0.5555555820465088 6.123234262925839e-17
v 0.8333333730697632 1.1111111640930176 5.102694888232621e-17
v 0.3888888955116272 1.5555555820465088 2.3812576034794817e-17
v 0.3888888955116272 1.888888955116272 2.3812576034794817e-17
v 0 1.888888955116272 0
v 0 0 0
v 0.6439505815505981 0 -0.17254602909088135
v 0.9659258723258972 0.5555555820465088 -0.258819043636322
v 0.8049382567405701 1.1111111640930176 -0.21568253636360168
v 0.37563782930374146 1.5555555820465088 -0.10065185278654099
v 0.37563782930374146 1.888888955116272 -0.10065185278654099
v 0 1.888888955116272 0
v 0 0 0
v 0.5773502588272095 0 -0.3333333432674408
v 0.866025447845459 0.5555555820465088 -0.5
v 0.7216878533363342 1.1111111640930176 -0.4166666865348816
v 0.3367876708507538 1.5555555820465088 -0.1944444477558136
v 0.3367876708507538 1.888888955116272 -0.1944444477558136
v 0 1.888888955116272 0
v 0 0 0
v 0.4714045524597168 0 -0.4714045524597168
v 0.7071068286895752 0.5555555820465088 -0.7071068286895752
v 0.5892556309700012 1.1111111640930176 -0.5892556309700012
v 0.2749859690666199 1.5555555820465088 -0.2749859690666199
v 0.2749859690666199 1.888888955116272 -0.2749859690666199
v 0 1.888888955116272 0
v 0 0 0
v 0.3333333432674408 0 -0.5773502588272095
v 0.5 0.5555555820465088 -0.866025447845459
v 0.4166666865348816 1.1111111640930176 -0.7216878533363342
v 0.1944444477558136 1.5555555820465088 -0.3367876708507538
v 0.1944444477558136 1.888888955116272 -0.3367876708507538
v 0 1.888888955116272 0
v 0 0 0
v 0.17254602909088135 0 -0.6439505815505981
v 0.258819043636322 0.5555555820465088 -0.9659258723258972
v 0.21568253636360168 1.1111111640930176 -0.8049382567405701
v 0.10065185278654099 1.5555555820465088 -0.37563782930374146
v 0.10065185278654099 1.888888955116272 -0.37563782930374146
v 0 1.888888955116272 0
v 0 0 0
v 8.164312350567786e-17 0 -0.6666666865348816
v 1.2246468525851679e-16 0.5555555820465088 -1
v 1.0205389776465242e-16 1.1111111640930176 -0.8333333730697632
v 4.762515206958963e-17 1.5555555820465088 -0.3888888955116272
v 4.762515206958963e-17 1.888888955116272 -0.3888888955116272
v 0 1.888888955116272 0
v 0 0 0
v -0.17254602909088135 0 -0.6439505815505981
v -0.258819043636322 0.5555555820465088 -0.9659258723258972
v -0.21568253636360168 1.1111111640930176 -0.8049382567405701
v -0.10065185278654099 1.5555555820465088 -0.37563782930374146
v -0.10065185278654099 1.888888955116272 -0.37563782930374146
v 0 1.888888955116272 0
v 0 0 0
v -0.3333333432674408 0 -0.5773502588272095
v -0.5 0.5555555820465088 -0.866025447845459
v -0.4166666865348816 1.1111111640930176 -0.7216878533363342
v -0.1944444477558136 1.5555555820465088 -0.3367876708507538
v -0.1944444477558136 1.888888955116272 -0.3367876708507538
v 0 1.888888955116272 0
v 0 0 0
v -0.4714045524597168 0 -0.4714045524597168
v -0.7071068286895752 0.5555555820465088 -0.7071068286895752
v -0.5892556309700012 1.1111111640930176 -0.5892556309700012
v -0.2749859690666199 1.5555555820465088 -0.2749859690666199
v -0.2749859690666199 1.888888955116272 -0.2749859690666199
v 0 1.888888955116272 0
v 0 0 0
v -0.5773502588272095 0 -0.3333333432674408
v -0.866025447845459 0.5555555820465088 -0.5
v -0.7216878533363342 1.1111111640930176 -0.4166666865348816
v -0.3367876708507538 1.5555555820465088 -0.1944444477558136
v -0.3367876708507538 1.888888955116272 -0.1944444477558136
v 0 1.888888955116272 0
v 0 0 0
v -0.6439505815505981 0 -0.17254602909088135
v -0.9659258723258972 0.5555555820465088 -0.258819043636322
v -0.8049382567405701 1.1111111640930176 -0.21568253636360168
v -0.37563782930374146 1.5555555820465088 -0.10065185278654099
v -0.37563782930374146 1.888888955116272 -0.10065185278654099
v 0 1.888888955116272 0
v 0 0 0
v -0.6666666865348816 0 -1.2246468525851679e-16
v -1 0.5555555820465088 -1.8369702788777518e-16
v -0.8333333730697632 1.1111111640930176 -1.5308086319059088e-16
v -0.3888888955116272 1.5555555820465088 -7.143773306746812e-17
v -0.3888888955116272 1.888888955116272 -7.143773306746812e-17
v 0 1.888888955116272 0
v 0 0 0
v -0.6439505815505981 0 0.17254602909088135
v -0.9659258723258972 0.5555555820465088 0.258819043636322
v -0.8049382567405701 1.1111111640930176 0.21568253636360168
v -0.37563782930374146 1.5555555820465088 0.10065185278654099
v -0.37563782930374146 1.888888955116272 0.10065185278654099
v 0 1.888888955116272 0
v 0 0 0
v -0.5773502588272095 0 0.3333333432674408
v -0.866025447845459 0.5555555820465088 0.5
v -0.7216878533363342 1.1111111640930176 0.4166666865348816
v -0.3367876708507538 1.5555555820465088 0.1944444477558136
v -0.3367876708507538 1.888888955116272 0.1944444477558136
v 0 1.888888955116272 0
v 0 0 0
v -0.4714045524597168 0 0.4714045524597168
v -0.7071068286895752 0.5555555820465088 0.7071068286895752
v -0.5892556309700012 1.1111111640930176 0.5892556309700012
v -0.2749859690666199 1.5555555820465088 0.2749859690666199
v -0.2749859690666199 1.888888955116272 0.2749859690666199
v 0 1.888888955116272 0
v 0 0 0
v -0.3333333432674408 0 0.5773502588272095
v -0.5 0.5555555820465088 0.866025447845459
v -0.4166666865348816 1.1111111640930176 0.7216878533363342
v -0.1944444477558136 1.5555555820465088 0.3367876708507538
v -0.1944444477558136 1.888888955116272 0.3367876708507538
v 0 1.888888955116272 0
v 0 0 0
v -0.17254602909088135 0 0.6439505815505981
v -0.258819043636322 0.5555555820465088 0.9659258723258972
v -0.21568253636360168 1.1111111640930176 0.8049382567405701
v -0.10065185278654099 1.5555555820465088 0.37563782930374146
v -0.10065185278654099 1.888888955116272 0.37563782930374146
v 0 1.888888955116272 0
v 0 0 0
v -1.6328624701135571e-16 0 0.6666666865348816
v -2.4492937051703357e-16 0.5555555820465088 1
v -2.0410779552930484e-16 1.1111111640930176 0.8333333730697632
v -9.525030413917927e-17 1.5555555820465088 0.3888888955116272
v -9.525030413917927e-17 1.888888955116272 0.3888888955116272
v 0 1.888888955116272 0
vt 0 0
vt 0 0.1666666716337204
vt 0 0.3333333432674408
vt 0 0.5
vt 0 0.6666666865348816
vt 0 0.8333333134651184
vt 0 1
vt 0.0416666679084301 0
vt 0.0416666679084301 0.1666666716337204
vt 0.0416666679084301 0.3333333432674408
vt 0.0416666679084301 0.5
vt 0.0416666679084301 0.6666666865348816
vt 0.0416666679084301 0.8333333134651184
vt 0.0416666679084301 1
vt 0.0833333358168602 0
vt 0.0833333358168602 0.1666666716337204
vt 0.0833333358168602 0.3333333432674408
vt 0.0833333358168602 0.5
vt 0.0833333358168602 0.6666666865348816
vt 0.0833333358168602 0.8333333134651184
vt 0.0833333358168602 1
vt 0.125 0
vt 0.125 0.1666666716337204
vt 0.125 0.3333333432674408
vt 0.125 0.5
vt 0.125 0.6666666865348816
vt 0.125 0.8333333134651184
vt 0.125 1
vt 0.1666666716337204 0
vt 0.1666666716337204 0.1666666716337204
vt 0.1666666716337204 0.3333333432674408
vt 0.1666666716337204 0.5
vt 0.1666666716337204 0.6666666865348816
vt 0.1666666716337204 0.8333333134651184
vt 0.1666666716337204 1
vt 0.2083333283662796 0
vt 0.2083333283662796 0.1666666716337204
vt 0.2083333283662796 0.3333333432674408
vt 0.2083333283662796 0.5
vt 0.2083333283662796 0.6666666865348816
vt 0.2083333283662796 0.8333333134651184
vt 0.2083333283662796 1
vt 0.25 0
vt 0.25 0.1666666716337204
vt 0.25 0.3333333432674408
vt 0.25 0.5
vt 0.25 0.6666666865348816
vt 0.25 0.8333333134651184
vt 0.25 1
vt 0.2916666567325592 0
vt 0.2916666567325592 0.1666666716337204
vt 0.2916666567325592 0.3333333432674408
vt 0.2916666567325592 0.5
vt 0.2916666567325592 0.6666666865348816
vt 0.2916666567325592 0.8333333134651184
vt 0.2916666567325592 1
vt 0.3333333432674408 0
vt 0.3333333432674408 0.1666666716337204
vt 0.3333333432674408 0.3333333432674408
vt 0.3333333432674408 0.5
vt 0.3333333432674408 0.6666666865348816
vt 0.3333333432674408 0.8333333134651184
vt 0.3333333432674408 1
vt 0.375 0
vt 0.375 0.1666666716337204
vt 0.375 0.3333333432674408
vt 0.375 0.5
vt 0.375 0.6666666865348816
vt 0.375 0.8333333134651184
vt 0.375 1
vt 0.4166666567325592 0
vt 0.4166666567325592 0.1666666716337204
vt 0.4166666567325592 0.3333333432674408
vt 0.4166666567325592 0.5
vt 0.4166666567325592 0.6666666865348816
vt 0.4166666567325592 0.8333333134651184
vt 0.4166666567325592 1
vt 0.4583333432674408 0
vt 0.4583333432674408 0.1666666716337204
vt 0.4583333432674408 0.3333333432674408
vt 0.4583333432674408 0.5
vt 0.4583333432674408 0.6666666865348816
vt 0.4583333432674408 0.8333333134651184
vt 0.4583333432674408 1
vt 0.5 0
vt 0.5 0.1666666716337204
vt 0.5 0.3333333432674408
vt 0.5 0.5
vt 0.5 0.6666666865348816
vt 0.5 0.8333333134651184
vt 0.5 1
vt 0.5416666865348816 0
vt 0.5416666865348816 0.1666666716337204
vt 0.5416666865348816 0.3333333432674408
vt 0.5416666865348816 0.5
vt 0.5416666865348816 0.6666666865348816
vt 0.5416666865348816 0.8333333134651184
vt 0.5416666865348816 1
vt 0.5833333134651184 0
vt 0.5833333134651184 0.1666666716337204
vt 0.5833333134651184 0.3333333432674408
vt 0.5833333134651184 0.5
vt 0.5833333134651184 0.6666666865348816
vt 0.5833333134651184 0.8333333134651184
vt 0.5833333134651184 1
vt 0.625 0
vt 0.625 0.1666666716337204
vt 0.625 0.3333333432674408
vt 0.625 0.5
vt 0.625 0.6666666865348816
vt 0.625 0.8333333134651184
vt 0.625 1
vt 0.6666666865348816 0
vt 0.6666666865348816 0.1666666716337204
vt 0.6666666865348816 0.3333333432674408
vt 0.6666666865348816 0.5
vt 0.6666666865348816 0.6666666865348816
vt 0.6666666865348816 0.8333333134651184
vt 0.6666666865348816 1
vt 0.7083333134651184 0
vt 0.7083333134651184 0.1666666716337204
vt 0.7083333134651184 0.3333333432674408
vt 0.7083333134651184 0.5
vt 0.7083333134651184 0.6666666865348816
vt 0.7083333134651184 0.8333333134651184
vt 0.7083333134651184 1
vt 0.75 0
vt 0.75 0.1666666716337204
vt 0.75 0.3333333432674408
vt 0.75 0.5
vt 0.75 0.6666666865348816
vt 0.75 0.8333333134651184
vt 0.75 1
vt 0.7916666865348816 0
vt 0.7916666865348816 0.1666666716337204
vt 0.7916666865348816 0.3333333432674408
vt 0.7916666865348816 0.5
vt 0.7916666865348816 0.6666666865348816
vt 0.7916666865348816 0.8333333134651184
vt 0.7916666865348816 1
vt 0.8333333134651184 0
vt 0.8333333134651184 0.1666666716337204
vt 0.8333333134651184 0.3333333432674408
vt 0.8333333134651184 0.5
vt 0.8333333134651184 0.6666666865348816
vt 0.8333333134651184 0.8333333134651184
vt 0.8333333134651184 1
vt 0.875 0
vt 0.875 0.1666666716337204
vt 0.875 0.3333333432674408
vt 0.875 0.5
vt 0.875 0.6666666865348816
vt 0.875 0.8333333134651184
vt 0.875 1
vt 0.9166666865348816 0
vt 0.9166666865348816 0.1666666716337204
vt 0.9166666865348816 0.3333333432674408
vt 0.9166666865348816 0.5
vt 0.9166666865348816 0.6666666865348816
vt 0.9166666865348816 0.8333333134651184
vt 0.9166666865348816 1
vt 0.9583333134651184 0
vt 0.9583333134651184 0.1666666716337204
vt 0.9583333134651184 0.3333333432674408
vt 0.9583333134651184 0.5
vt 0.9583333134651184 0.6666666865348816
vt 0.9583333134651184 0.8333333134651184
vt 0.9583333134651184 1
vt 1 0
vt 1 0.1666666716337204
vt 1 0.3333333432674408
vt 1 0.5
vt 1 0.6666666865348816
vt 1 0.8333333134651184
vt 1 1
vn 0 0 0
vn 0.06380584874160226 -0.8723760299396106 0.4846533565891887
vn 0.12631823334861486 -0.2518643481158288 0.9594832224024937
vn 0.11755720586276268 0.43456247671812664 0.8929365919136407
vn 0.10190231358794424 0.6249009374329884 0.7740250234203004
vn 0.11299045364508763 0.5006441465355519 0.8582473978549345
vn 0 1 0
vn 0 -1 0
vn 0.12536457542047874 -0.7888790596244216 0.6016257578559377
vn 0.25262549732116407 -0.1351121824428178 0.9580840549026861
vn 0.24278112247406258 0.49315626427645687 0.8353766968111592
vn 0.24038065481447643 0.5436768421314486 0.8041347101829017
vn 0.23761652419606952 0.6135724785416588 0.7530386450941443
vn 0 1 0
vn 0 -1 0
vn 0.276805103113314 -0.7888790973292353 0.548679054354582
vn 0.491987985264599 -0.13511212494537964 0.8600537983452111
vn 0.45071995245826413 0.4931562839570343 0.7440755365214671
vn 0.4403152457026224 0.5436767924894417 0.7145194397007206
vn 0.42442077752333623 0.613572543017174 0.6658796723597474
vn 0 1 0
vn 0 -1 0
vn 0.4093818142379923 -0.7888790511392128 0.45834089152606194
vn 0.697822160838239 -0.13511210820768887 0.7034123613206725
vn 0.6279429800205312 0.49315625482930125 0.6020668751606187
vn 0.6102431324390637 0.5436767853680673 0.576210788134693
vn 0.582301272626286 0.6135724926094032 0.5333423142887609
vn 0 1 0
vn 0 -1 0
vn 0.5140597733204808 -0.7888790831451128 0.3367674889739542
vn 0.8561009549422248 -0.13511213320528345 0.4988345080362108
vn 0.7623726578672891 0.4931562745909809 0.41902842310267013
vn 0.7385838664737621 0.5436767962931689 0.398634435739142
vn 0.7004990630535011 0.6135724829224283 0.36445832527406136
vn 0 1 0
vn 0 -1 0
vn 0.5837054237035869 -0.7888790944012178 0.19224399276890453
vn 0.9560379033349344 -0.13511212514176563 0.26026187009744345
vn 0.844847981422965 0.49315628658142135 0.20743376121249954
vn 0.8165914524325271 0.543676800766603 0.19389155763551746
vn 0.7709588922011298 0.6135724717281362 0.17073724981219626
vn 0 1 0
vn 0 -1 0
vn 0.6135726098664578 -0.788879052798404 0.03461925010101553
vn 0.990822429017063 -0.13511213586490758 0.003952834267944885
vn 0.8697483075405887 0.4931562617687582 -0.01829707650270061
vn 0.8389496124896968 0.5436767882392696 -0.02406444749459464
vn 0.788879153588518 0.6135724763311432 -0.03461932007322199
vn 0 1 0
vn 0 -1 0
vn 0.6016257578559377 -0.7888790596244216 -0.12536457542047874
vn 0.9580840549026861 -0.1351121824428178 -0.25262549732116407
vn 0.8353766968111592 0.49315626427645687 -0.24278112247406258
vn 0.8041347101829017 0.5436768421314486 -0.24038065481447643
vn 0.7530386450941443 0.6135724785416588 -0.23761652419606952
vn 0 1 0
vn 0 -1 0
vn 0.548679054354582 -0.7888790973292353 -0.276805103113314
vn 0.8600537983452111 -0.13511212494537964 -0.491987985264599
vn 0.7440755365214671 0.4931562839570343 -0.45071995245826413
vn 0.7145194397007206 0.5436767924894417 -0.4403152457026224
vn 0.6658796723597474 0.613572543017174 -0.42442077752333623
vn 0 1 0
vn 0 -1 0
vn 0.45834089152606194 -0.7888790511392128 -0.4093818142379923
vn 0.7034123613206725 -0.13511210820768887 -0.697822160838239
vn 0.6020668751606187 0.49315625482930125 -0.6279429800205312
vn 0.576210788134693 0.5436767853680673 -0.6102431324390637
vn 0.5333423142887609 0.6135724926094032 -0.582301272626286
vn 0 1 0
vn 0 -1 0
vn 0.3367674889739542 -0.7888790831451128 -0.5140597733204808
vn 0.4988345080362108 -0.13511213320528345 -0.8561009549422248
vn 0.41902842310267013 0.4931562745909809 -0.7623726578672891
vn 0.398634435739142 0.5436767962931689 -0.7385838664737621
vn 0.36445832527406136 0.6135724829224283 -0.7004990630535011
vn 0 1 0
vn 0 -1 0
vn 0.19224399276890453 -0.7888790944012178 -0.5837054237035869
vn 0.26026187009744345 -0.13511212514176563 -0.9560379033349344
vn 0.20743376121249954 0.49315628658142135 -0.844847981422965
vn 0.19389155763551746 0.543676800766603 -0.8165914524325271
vn 0.17073724981219626 0.6135724717281362 -0.7709588922011298
vn 0 1 0
vn 0 -1 0
vn 0.03461925010101553 -0.788879052798404 -0.6135726098664578
vn 0.003952834267944885 -0.13511213586490758 -0.990822429017063
vn -0.01829707650270061 0.4931562617687582 -0.8697483075405887
vn -0.02406444749459464 0.5436767882392696 -0.8389496124896968
vn -0.03461932007322199 0.6135724763311432 -0.788879153588518
vn 0 1 0
vn 0 -1 0
vn -0.12536457542047874 -0.7888790596244216 -0.6016257578559377
vn -0.25262549732116407 -0.1351121824428178 -0.9580840549026861
vn -0.24278112247406258 0.49315626427645687 -0.8353766968111592
vn -0.24038065481447643 0.5436768421314486 -0.8041347101829017
vn -0.23761652419606952 0.6135724785416588 -0.7530386450941443
vn 0 1 0
vn 0 -1 0
vn -0.276805103113314 -0.7888790973292353 -0.548679054354582
vn -0.491987985264599 -0.13511212494537964 -0.8600537983452111
vn -0.45071995245826413 0.4931562839570343 -0.7440755365214671
vn -0.4403152457026224 0.5436767924894417 -0.7145194397007206
vn -0.42442077752333623 0.613572543017174 -0.6658796723597474
vn 0 1 0
vn 0 -1 0
vn -0.4093818142379923 -0.7888790511392128 -0.45834089152606194
vn -0.697822160838239 -0.13511210820768887 -0.7034123613206725
vn -0.6279429800205312 0.49315625482930125 -0.6020668751606187
vn -0.6102431324390637 0.5436767853680673 -0.576210788134693
vn -0.582301272626286 0.6135724926094032 -0.5333423142887609
vn 0 1 0
vn 0 -1 0
vn -0.5140597733204808 -0.7888790831451128 -0.3367674889739542
vn -0.8561009549422248 -0.13511213320528345 -0.4988345080362108
vn -0.7623726578672891 0.4931562745909809 -0.41902842310267013
vn -0.7385838664737621 0.5436767962931689 -0.398634435739142
vn -0.7004990630535011 0.6135724829224283 -0.36445832527406136
vn 0 1 0
vn 0 -1 0
vn -0.5837054237035869 -0.7888790944012178 -0.19224399276890453
vn -0.9560379033349344 -0.13511212514176563 -0.26026187009744345
vn -0.844847981422965 0.49315628658142135 -0.20743376121249954
vn -0.8165914524325271 0.543676800766603 -0.19389155763551746
vn -0.7709588922011298 0.6135724717281362 -0.17073724981219626
vn 0 1 0
vn 0 -1 0
vn -0.6135726098664578 -0.788879052798404 -0.03461925010101553
vn -0.990822429017063 -0.13511213586490758 -0.003952834267944885
vn -0.8697483075405887 0.4931562617687582 0.01829707650270061
vn -0.8389496124896968 0.5436767882392696 0.02406444749459464
vn -0.788879153588518 0.6135724763311432 0.03461932007322199
vn 0 1 0
vn 0 -1 0
vn -0.6016257578559377 -0.7888790596244216 0.12536457542047874
vn -0.9580840549026861 -0.1351121824428178 0.25262549732116407
vn -0.8353766968111592 0.49315626427645687 0.24278112247406258
vn -0.8041347101829017 0.5436768421314486 0.24038065481447643
vn -0.7530386450941443 0.6135724785416588 0.23761652419606952
vn 0 1 0
vn 0 -1 0
vn -0.548679054354582 -0.7888790973292353 0.276805103113314
vn -0.8600537983452111 -0.13511212494537964 0.491987985264599
vn -0.7440755365214671 0.4931562839570343 0.45071995245826413
vn -0.7145194397007206 0.5436767924894417 0.4403152457026224
vn -0.6658796723597474 0.613572543017174 0.42442077752333623
vn 0 1 0
vn 0 -1 0
vn -0.45834089152606194 -0.7888790511392128 0.4093818142379923
vn -0.7034123613206725 -0.13511210820768887 0.697822160838239
vn -0.6020668751606187 0.49315625482930125 0.6279429800205312
vn -0.576210788134693 0.5436767853680673 0.6102431324390637
vn -0.5333423142887609 0.6135724926094032 0.582301272626286
vn 0 1 0
vn 0 -1 0
vn -0.3367674889739542 -0.7888790831451128 0.5140597733204808
vn -0.4988345080362108 -0.13511213320528345 0.8561009549422248
vn -0.41902842310267013 0.4931562745909809 0.7623726578672891
vn -0.398634435739142 0.5436767962931689 0.7385838664737621
vn -0.36445832527406136 0.6135724829224283 0.7004990630535011
vn 0 1 0
vn 0 -1 0
vn -0.19224399276890453 -0.7888790944012178 0.5837054237035869
vn -0.26026187009744345 -0.13511212514176563 0.9560379033349344
vn -0.20743376121249954 0.49315628658142135 0.844847981422965
vn -0.19389155763551746 0.543676800766603 0.8165914524325271
vn -0.17073724981219626 0.6135724717281362 0.7709588922011298
vn 0 1 0
vn 0 -1 0
vn -0.08909002882072474 -0.730842903988113 0.6767064477710732
vn -0.13050605086885103 -0.01749339849843847 0.9912931714157985
vn -0.10833113457306963 0.557826509576933 0.8228571871809395
vn -0.12133321839574311 0.3686467387403301 0.9216169660601141
vn -0.08536561037455677 0.7564850034295811 0.6484158790093949
vn 0 0 0
f 1/1/1 8/8/8 2/2/2
f 9/9/9 2/2/2 8/8/8
f 2/2/2 9/9/9 3/3/3
f 10/10/10 3/3/3 9/9/9
f 3/3/3 10/10/10 4/4/4
f 11/11/11 4/4/4 10/10/10
f 4/4/4 11/11/11 5/5/5
f 12/12/12 5/5/5 11/11/11
f 5/5/5 12/12/12 6/6/6
f 13/13/13 6/6/6 12/12/12
f 6/6/6 13/13/13 7/7/7
f 14/14/14 7/7/7 13/13/13
f 8/8/8 15/15/15 9/9/9
f 16/16/16 9/9/9 15/15/15
f 9/9/9 16/16/16 10/10/10
f 17/17/17 10/10/10 16/16/16
f 10/10/10 17/17/17 11/11/11
f 18/18/18 11/11/11 17/17/17
f 11/11/11 18/18/18 12/12/12
f 19/19/19 12/12/12 18/18/18
f 12/12/12 19/19/19 13/13/13
f 20/20/20 13/13/13 19/19/19
f 13/13/13 20/20/20 14/14/14
f 21/21/21 14/14/14 20/20/20
f 15/15/15 22/22/22 16/16/16
f 23/23/23 16/16/16 22/22/22
f 16/16/16 23/23/23 17/17/17
f 24/24/24 17/17/17 23/23/23
f 17/17/17 24/24/24 18/18/18
f 25/25/25 18/18/18 24/24/24
f 18/18/18 25/25/25 19/19/19
f 26/26/26 19/19/19 25/25/25
f 19/19/19 26/26/26 20/20/20
f 27/27/27 20/20/20 26/26/26
f 20/20/20 27/27/27 21/21/21
f 28/28/28 21/21/21 27/27/27
f 22/22/22 29/29/29 23/23/23
f 30/30/30 23/23/23 29/29/29
f 23/23/23 30/30/30 24/24/24
f 31/31/31 24/24/24 30/30/30
f 24/24/24 31/31/31 25/25/25
f 32/32/32 25/25/25 31/31/31
f 25/25/25 32/32/32 26/26/26
f 33/33/33 26/26/26 32/32/32
f 26/26/26 33/33/33 27/27/27
f 34/34/34 27/27/27 33/33/33
f 27/27/27 34/34/34 28/28/28
f 35/35/35 28/28/28 34/34/34
f 29/29/29 36/36/36 30/30/30
f 37/37/37 30/30/30 36/36/36
f 30/30/30 37/37/37 31/31/31
f 38/38/38 31/31/31 37/37/37
f 31/31/31 38/38/38 32/32/32
f 39/39/39 32/32/32 38/38/38
f 32/32/32 39/39/39 33/33/33
f 40/40/40 33/33/33 39/39/39
f 33/33/33 40/40/40 34/34/34
f 41/41/41 34/34/34 40/40/40
f 34/34/34 41/41/41 35/35/35
f 42/42/42 35/35/35 41/41/41
f 36/36/36 43/43/43 37/37/37
f 44/44/44 37/37/37 43/43/43
f 37/37/37 44/44/44 38/38/38
f 45/45/45 38/38/38 44/44/44
f 38/38/38 45/45/45 39/39/39
f 46/46/46 39/39/39 45/45/45
f 39/39/39 46/46/46 40/40/40
f 47/47/47 40/40/40 46/46/46
f 40/40/40 47/47/47 41/41/41
f 48/48/48 41/41/41 47/47/47
f 41/41/41 48/48/48 42/42/42
f 49/49/49 42/42/42 48/48/48
f 43/43/43 50/50/50 44/44/44
f 51/51/51 44/44/44 50/50/50
f 44/44/44 51/51/51 45/45/45
f 52/52/52 45/45/45 51/51/51
f 45/45/45 52/52/52 46/46/46
f 53/53/53 46/46/46 52/52/52
f 46/46/46 53/53/53 47/47/47
f 54/54/54 47/47/47 53/53/53
f 47/47/47 54/54/54 48/48/48
f 55/55/55 48/48/48 54/54/54
f 48/48/48 55/55/55 49/49/49
f 56/56/56 49/49/49 55/55/55
f 50/50/50 57/57/57 51/51/51
f 58/58/58 51/51/51 57/57/57
f 51/51/51 58/58/58 52/52/52
f 59/59/59 52/52/52 58/58/58
f 52/52/52 59/59/59 53/53/53
f 60/60/60 53/53/53 59/59/59
f 53/53/53 60/60/60 54/54/54
f 61/61/61 54/54/54 60/60/60
f 54/54/54 61/61/61 55/55/55
f 62/62/62 55/55/55 61/61/61
f 55/55/55 62/62/62 56/56/56
f 63/63/63 56/56/56 62/62/62
f 57/57/57 64/64/64 58/58/58
f 65/65/65 58/58/58 64/64/64
f 58/58/58 65/65/65 59/59/59
f 66/66/66 59/59/59 65/65/65
f 59/59/59 66/66/66 60/60/60
f 67/67/67 60/60/60 66/66/66
f 60/60/60 67/67/67 61/61/61
f 68/68/68 61/61/61 67/67/67
f 61/61/61 68/68/68 62/62/62
f 69/69/69 62/62/62 68/68/68
f 62/62/62 69/69/69 63/63/63
f 70/70/70 63/63/63 69/69/69
f 64/64/64 71/71/71 65/65/65
f 72/72/72 65/65/65 71/71/71
f 65/65/65 72/72/72 66/66/66
f 73/73/73 66/66/66 72/72/72
f 66/66/66 73/73/73 67/67/67
f 74/74/74 67/67/67 73/73/73
f 67/67/67 74/74/74 68/68/68
f 75/75/75 68/68/68 74/74/74
f 68/68/68 75/75/75 69/69/69
f 76/76/76 69/69/69 75/75/75
f 69/69/69 76/76/76 70/70/70
f 77/77/77 70/70/70 76/76/76
f 71/71/71 78/78/78 72/72/72
f 79/79/79 72/72/72 78/78/78
f 72/72/72 79/79/79 73/73/73
f 80/80/80 73/73/73 79/79/79
f 73/73/73 80/80/80 74/74/74
f 81/81/81 74/74/74 80/80/80
f 74/74/74 81/81/81 75/75/75
f 82/82/82 75/75/75 81/81/81
f 75/75/75 82/82/82 76/76/76
f 83/83/83 76/76/76 82/82/82
f 76/76/76 83/83/83 77/77/77
f 84/84/84 77/77/77 83/83/83
f 78/78/78 85/85/85 79/79/79
f 86/86/86 79/79/79 85/85/85
f 79/79/79 86/86/86 80/80/80
f 87/87/87 80/80/80 86/86/86
f 80/80/80 87/87/87 81/81/81
f 88/88/88 81/81/81 87/87/87
f 81/81/81 88/88/88 82/82/82
f 89/89/89 82/82/82 88/88/88
f 82/82/82 89/89/89 83/83/83
f 90/90/90 83/83/83 89/89/89
f 83/83/83 90/90/90 84/84/84
f 91/91/91 84/84/84 90/90/90
f 85/85/85 92/92/92 86/86/86
f 93/93/93 86/86/86 92/92/92
f 86/86/86 93/93/93 87/87/87
f 94/94/94 87/87/87 93/93/93
f 87/87/87 94/94/94 88/88/88
f 95/95/95 88/88/88 94/94/94
f 88/88/88 95/95/95 89/89/89
f 96/96/96 89/89/89 95/95/95
f 89/89/89 96/96/96 90/90/90
f 97/97/97 90/90/90 96/96/96
f 90/90/90 97/97/97 91/91/91
f 98/98/98 91/91/91 97/97/97
f 92/92/92 99/99/99 93/93/93
f 100/100/100 93/93/93 99/99/99
f 93/93/93 100/100/100 94/94/94
f 101/101/101 94/94/94 100/100/100
f 94/94/94 101/101/101 95/95/95
f 102/102/102 95/95/95 101/101/101
f 95/95/95 102/102/102 96/96/96
f 103/103/103 96/96/96 102/102/102
f 96/96/96 103/103/103 97/97/97
f 104/104/104 97/97/97 103/103/103
f 97/97/97 104/104/104 98/98/98
f 105/105/105 98/98/98 104/104/104
f 99/99/99 106/106/106 100/100/100
f 107/107/107 100/100/100 106/106/106
f 100/100/100 107/107/107 101/101/101
f 108/108/108 101/101/101 107/107/107
f 101/101/101 108/108/108 102/102/102
f 109/109/109 102/102/102 108/108/108
f 102/102/102 109/109/109 103/103/103
f 110/110/110 103/103/103 109/109/109
f 103/103/103 110/110/110 104/104/104
f 111/111/111 104/104/104 110/110/110
f 104/104/104 111/111/111 105/105/105
f 112/112/112 105/105/105 111/111/111
f 106/106/106 113/113/113 107/107/107
f 114/114/114 107/107/107 113/113/113
f 107/107/107 114/114/114 108/108/108
f 115/115/115 108/108/108 114/114/114
f 108/108/108 115/115/115 109/109/109
f 116/116/116 109/109/109 115/115/115
f 109/109/109 116/116/116 110/110/110
f 117/117/117 110/110/110 116/116/116
f 110/110/110 117/117/117 111/111/111
f 118/118/118 111/111/111 117/117/117
f 111/111/111 118/118/118 112/112/112
f 119/119/119 112/112/112 118/118/118
f 113/113/113 120/120/120 114/114/114
f 121/121/121 114/114/114 120/120/120
f 114/114/114 121/121/121 115/115/115
f 122/122/122 115/115/115 121/121/121
f 115/115/115 122/122/122 116/116/116
f 123/123/123 116/116/116 122/122/122
f 116/116/116 123/123/123 117/117/117
f 124/124/124 117/117/117 123/123/123
f 117/117/117 124/124/124 118/118/118
f 125/125/125 118/118/118 124/124/124
f 118/118/118 125/125/125 119/119/119
f 126/126/126 119/119/119 125/125/125
f 120/120/120 127/127/127 121/121/121
f 128/128/128 121/121/121 127/127/127
f 121/121/121 128/128/128 122/122/122
f 129/129/129 122/122/122 128/128/128
f 122/122/122 129/129/129 123/123/123
f 130/130/130 123/123/123 129/129/129
f 123/123/123 130/130/130 124/124/124
f 131/131/131 124/124/124 130/130/130
f 124/124/124 131/131/131 125/125/125
f 132/132/132 125/125/125 131/131/131
f 125/125/125 132/132/132 126/126/126
f 133/133/133 126/126/126 132/132/132
f 127/127/127 134/134/134 128/128/128
f 135/135/135 128/128/128 134/134/134
f 128/128/128 135/135/135 129/129/129
f 136/136/136 129/129/129 135/135/135
f 129/129/129 136/136/136 130/130/130
f 137/137/137 130/130/130 136/136/136
f 130/130/130 137/137/137 131/131/131
f 138/138/138 131/131/131 137/137/137
f 131/131/131 138/138/138 132/132/132
f 139/139/139 132/132/132 138/138/138
f 132/132/132 139/139/139 133/133/133
f 140/140/140 133/133/133 139/139/139
f 134/134/134 141/141/141 135/135/135
f 142/142/142 135/135/135 141/141/141
f 135/135/135 142/142/142 136/136/136
f 143/143/143 136/136/136 142/142/142
f 136/136/136 143/143/143 137/137/137
f 144/144/144 137/137/137 143/143/143
f 137/137/137 144/144/144 138/138/138
f 145/145/145 138/138/138 144/144/144
f 138/138/138 145/145/145 139/139/139
f 146/146/146 139/139/139 145/145/145
f 139/139/139 146/146/146 140/140/140
f 147/147/147 140/140/140 146/146/146
f 141/141/141 148/148/148 142/142/142
f 149/149/149 142/142/142 148/148/148
f 142/142/142 149/149/149 143/143/143
f 150/150/150 143/143/143 149/149/149
f 143/143/143 150/150/150 144/144/144
f 151/151/151 144/144/144 150/150/150
f 144/144/144 151/151/151 145/145/145
f 152/152/152 145/145/145 151/151/151
f 145/145/145 152/152/152 146/146/146
f 153/153/153 146/146/146 152/152/152
f 146/146/146 153/153/153 147/147/147
f 154/154/154 147/147/147 153/153/153
f 148/148/148 155/155/155 149/149/149
f 156/156/156 149/149/149 155/155/155
f 149/149/149 156/156/156 150/150/150
f 157/157/157 150/150/150 156/156/156
f 150/150/150 157/157/157 151/151/151
f 158/158/158 151/151/151 157/157/157
f 151/151/151 158/158/158 152/152/152
f 159/159/159 152/152/152 158/158/158
f 152/152/152 159/159/159 153/153/153
f 160/160/160 153/153/153 159/159/159
f 153/153/153 160/160/160 154/154/154
f 161/161/161 154/154/154 160/160/160
f 155/155/155 162/162/162 156/156/156
f 163/163/163 156/156/156 162/162/162
f 156/156/156 163/163/163 157/157/157
f 164/164/164 157/157/157 163/163/163
f 157/157/157 164/164/164 158/158/158
f 165/165/165 158/158/158 164/164/164
f 158/158/158 165/165/165 159/159/159
f 166/166/166 159/159/159 165/165/165
f 159/159/159 166/166/166 160/160/160
f 167/167/167 160/160/160 166/166/166
f 160/160/160 167/167/167 161/161/161
f 168/168/168 161/161/161 167/167/167
f 162/162/162 169/169/169 163/163/163
f 170/170/170 163/163/163 169/169/169
f 163/163/163 170/170/170 164/164/164
f 171/171/171 164/164/164 170/170/170
f 164/164/164 171/171/171 165/165/165
f 172/172/172 165/165/165 171/171/171
f 165/165/165 172/172/172 166/166/166
f 173/173/173 166/166/166 172/172/172
f 166/166/166 173/173/173 167/167/167
f 174/174/174 167/167/167 173/173/173
f 167/167/167 174/174/174 168/168/168
f 175/175/175 168/168/168 174/174/174
