o shape_072
v 0 0 0
v 0 0 0.5294117331504822
v 0 0.8235293626785278 0.7647058367729187
v 0 1.4117647409439087 0.29411762952804565
v 0 2 0.47058823704719543
v 0 2 0
v 0 0 0
v 0.13702183961868286 0 0.5113725066184998
v 0.19792044162750244 0.8235293626785278 0.7386491298675537
v 0.07612324506044388 1.4117647409439087 0.284095823764801
v 0.12179719656705856 2 0.4545533061027527
v 0 2 0
v 0 0 0
v 0.2647058665752411 0 0.458484023809433
v 0.38235291838645935 0.8235293626785278 0.6622546911239624
v 0.14705881476402283 1.4117647409439087 0.25471335649490356
v 0.23529411852359772 2 0.40754133462905884
v 0 2 0
v 0 0 0
v 0.3743506371974945 0 0.3743506371974945
v 0.5407286882400513 0.8235293626785278 0.5407286882400513
v 0.20797257125377655 1.4117647409439087 0.20797257125377655
v 0.3327561318874359 2 0.3327561318874359
v 0 2 0
v 0 0 0
v 0.458484023809433 0 0.2647058665752411
v 0.6622546911239624 0.8235293626785278 0.38235291838645935
v 0.25471335649490356 1.4117647409439087 0.14705881476402283
v 0.40754133462905884 2 0.23529411852359772
v 0 2 0
v 0 0 0
v 0.5113725066184998 0 0.13702183961868286
v 0.7386491298675537 0.8235293626785278 0.19792044162750244
v 0.284095823764801 1.4117647409439087 0.07612324506044388
v 0.4545533061027527 2 0.12179719656705856
v 0 2 0
v 0 0 0
v 0.5294117331504822 0 3.2417118870447e-17
v 0.7647058367729187 0.8235293626785278 4.682472578676902e-17
v 0.29411762952804565 1.4117647409439087 1.8009511954124977e-17
v 0.47058823704719543 2 2.8815217141366493e-17
v 0 2 0
v 0 0 0
v 0.5113725066184998 0 -0.13702183961868286
v 0.7386491298675537 0.8235293626785278 -0.19792044162750244
v 0.284095823764801 1.4117647409439087 -0.07612324506044388
v 0.4545533061027527 2 -0.12179719656705856
v 0 2 0
v 0 0 0
v 0.458484023809433 0 -0.2647058665752411
v 0.6622546911239624 0.8235293626785278 -0.38235291838645935
v 0.25471335649490356 1.4117647409439087 -0.14705881476402283
v 0.40754133462905884 2 -0.23529411852359772
v 0 2 0
v 0 0 0
v 0.3743506371974945 0 -0.3743506371974945
v 0.5407286882400513 0.8235293626785278 -0.5407286882400513
v 0.20797257125377655 1.4117647409439087 -0.20797257125377655
v 0.3327561318874359 2 -0.3327561318874359
v 0 2 0
v 0 0 0
v 0.2647058665752411 0 -0.458484023809433
v 0.38235291838645935 0.8235293626785278 -0.6622546911239624
v 0.14705881476402283 1.4117647409439087 -0.25471335649490356
v 0.23529411852359772 2 -0.40754133462905884
v 0 2 0
v 0 0 0
v 0.13702183961868286 0 -0.5113725066184998
v 0.19792044162750244 0.8235293626785278 -0.7386491298675537
v 0.07612324506044388 1.4117647409439087 -0.284095823764801
v 0.12179719656705856 2 -0.4545533061027527
v 0 2 0
v 0 0 0
v 6.4834237740894e-17 0 -0.5294117331504822
v 9.364945157353804e-17 0.8235293626785278 -0.7647058367729187
v 3.6019023908249954e-17 1.4117647409439087 -0.29411762952804565
v 5.763043428273299e-17 2 -0.47058823704719543
v 0 2 0
v 0 0 0
v -0.13702183961868286 0 -0.5113725066184998
v -0.19792044162750244 0.8235293626785278 -0.7386491298675537
v -0.07612324506044388 1.4117647409439087 -0.284095823764801
v -0.12179719656705856 2 -0.4545533061027527
v 0 2 0
v 0 0 0
v -0.2647058665752411 0 -0.458484023809433
v -0.38235291838645935 0.8235293626785278 -0.6622546911239624
v -0.14705881476402283 1.4117647409439087 -0.25471335649490356
v -0.23529411852359772 2 -0.40754133462905884
v 0 2 0
v 0 0 0
v -0.3743506371974945 0 -0.3743506371974945
v -0.5407286882400513 0.8235293626785278 -0.5407286882400513
v -0.20797257125377655 1.4117647409439087 -0.20797257125377655
v -0.3327561318874359 2 -0.3327561318874359
v 0 2 0
v 0 0 0
v -0.458484023809433 0 -0.2647058665752411
v -0.6622546911239624 0.8235293626785278 -0.38235291838645935
v -0.25471335649490356 1.4117647409439087 -0.14705881476402283
v -0.40754133462905884 2 -0.23529411852359772
v 0 2 0
v 0 0 0
v -0.5113725066184998 0 -0.13702183961868286
v -0.7386491298675537 0.8235293626785278 -0.19792044162750244
v -0.284095823764801 1.4117647409439087 -0.07612324506044388
v -0.4545533061027527 2 -0.12179719656705856
v 0 2 0
v 0 0 0
v -0.5294117331504822 0 -9.725135992006345e-17
v -0.7647058367729187 0.8235293626785278 -1.404741806690295e-16
v -0.29411762952804565 1.4117647409439087 -5.402853255365248e-17
v -0.47058823704719543 2 -8.644565473282193e-17
v 0 2 0
v 0 0 0
v -0.5113725066184998 0 0.13702183961868286
v -0.7386491298675537 0.8235293626785278 0.19792044162750244
v -0.284095823764801 1.4117647409439087 0.07612324506044388
v -0.4545533061027527 2 0.12179719656705856
v 0 2 0
v 0 0 0
v -0.458484023809433 0 0.2647058665752411
v -0.6622546911239624 0.8235293626785278 0.38235291838645935
v -0.25471335649490356 1.4117647409439087 0.14705881476402283
v -0.40754133462905884 2 0.23529411852359772
v 0 2 0
v 0 0 0
v -0.3743506371974945 0 0.3743506371974945
v -0.5407286882400513 0.8235293626785278 0.5407286882400513
v -0.20797257125377655 1.4117647409439087 0.20797257125377655
v -0.3327561318874359 2 0.3327561318874359
v 0 2 0
v 0 0 0
v -0.2647058665752411 0 0.458484023809433
v -0.38235291838645935 0.8235293626785278 0.6622546911239624
v -0.14705881476402283 1.4117647409439087 0.25471335649490356
v -0.23529411852359772 2 0.40754133462905884
v 0 2 0
v 0 0 0
v -0.13702183961868286 0 0.5113725066184998
v -0.19792044162750244 0.8235293626785278 0.7386491298675537
v -0.07612324506044388 1.4117647409439087 0.284095823764801
v -0.12179719656705856 2 0.4545533061027527
v 0 2 0
v 0 0 0
v -1.29668475481788e-16 0 0.5294117331504822
v -1.8729890314707608e-16 0.8235293626785278 0.7647058367729187
v -7.203804781649991e-17 1.4117647409439087 0.29411762952804565
v -1.1526086856546597e-16 2 0.47058823704719543
v 0 2 0
vt 0 0
vt 0 0.20000000298023224
vt 0 0.4000000059604645
vt 0 0.6000000238418579
vt 0 0.800000011920929
vt 0 1
vt 0.0416666679084301 0
vt 0.0416666679084301 0.20000000298023224
vt 0.0416666679084301 0.4000000059604645
vt 0.0416666679084301 0.6000000238418579
vt 0.0416666679084301 0.800000011920929
vt 0.0416666679084301 1
vt 0.0833333358168602 0
vt 0.0833333358168602 0.20000000298023224
vt 0.0833333358168602 0.4000000059604645
vt 0.0833333358168602 0.6000000238418579
vt 0.0833333358168602 0.800000011920929
vt 0.0833333358168602 1
vt 0.125 0
vt 0.125 0.20000000298023224
vt 0.125 0.4000000059604645
vt 0.125 0.6000000238418579
vt 0.125 0.800000011920929
vt 0.125 1
vt 0.1666666716337204 0
vt 0.1666666716337204 0.20000000298023224
vt 0.1666666716337204 0.4000000059604645
vt 0.1666666716337204 0.6000000238418579
vt 0.1666666716337204 0.800000011920929
vt 0.1666666716337204 1
vt 0.2083333283662796 0
vt 0.2083333283662796 0.20000000298023224
vt 0.2083333283662796 0.4000000059604645
vt 0.2083333283662796 0.6000000238418579
vt 0.2083333283662796 0.800000011920929
vt 0.2083333283662796 1
vt 0.25 0
vt 0.25 0.20000000298023224
vt 0.25 0.4000000059604645
vt 0.25 0.6000000238418579
vt 0.25 0.800000011920929
vt 0.25 1
vt 0.2916666567325592 0
vt 0.2916666567325592 0.20000000298023224
vt 0.2916666567325592 0.4000000059604645
vt 0.2916666567325592 0.6000000238418579
vt 0.2916666567325592 0.800000011920929
vt 0.2916666567325592 1
vt 0.3333333432674408 0
vt 0.3333333432674408 0.20000000298023224
vt 0.3333333432674408 0.4000000059604645
vt 0.3333333432674408 0.6000000238418579
vt 0.3333333432674408 0.800000011920929
vt 0.3333333432674408 1
vt 0.375 0
vt 0.375 0.20000000298023224
vt 0.375 0.4000000059604645
vt 0.375 0.6000000238418579
vt 0.375 0.800000011920929
vt 0.375 1
vt 0.4166666567325592 0
vt 0.4166666567325592 0.20000000298023224
vt 0.4166666567325592 0.4000000059604645
vt 0.4166666567325592 0.6000000238418579
vt 0.4166666567325592 0.800000011920929
vt 0.4166666567325592 1
vt 0.4583333432674408 0
vt 0.4583333432674408 0.20000000298023224
vt 0.4583333432674408 0.4000000059604645
vt 0.4583333432674408 0.6000000238418579
vt 0.4583333432674408 0.800000011920929
vt 0.4583333432674408 1
vt 0.5 0
vt 0.5 0.20000000298023224
vt 0.5 0.4000000059604645
vt 0.5 0.6000000238418579
vt 0.5 0.800000011920929
vt 0.5 1
vt 0.5416666865348816 0
vt 0.5416666865348816 0.20000000298023224
vt 0.5416666865348816 0.4000000059604645
vt 0.5416666865348816 0.6000000238418579
vt 0.5416666865348816 0.800000011920929
vt 0.5416666865348816 1
vt 0.5833333134651184 0
vt 0.5833333134651184 0.20000000298023224
vt 0.5833333134651184 0.4000000059604645
vt 0.5833333134651184 0.6000000238418579
vt 0.5833333134651184 0.800000011920929
vt 0.5833333134651184 1
vt 0.625 0
vt 0.625 0.20000000298023224
vt 0.625 0.4000000059604645
vt 0.625 0.6000000238418579
vt 0.625 0.800000011920929
vt 0.625 1
vt 0.6666666865348816 0
vt 0.6666666865348816 0.20000000298023224
vt 0.6666666865348816 0.4000000059604645
vt 0.6666666865348816 0.6000000238418579
vt 0.6666666865348816 0.800000011920929
vt 0.6666666865348816 1
vt 0.7083333134651184 0
vt 0.7083333134651184 0.20000000298023224
vt 0.7083333134651184 0.4000000059604645
vt 0.7083333134651184 0.6000000238418579
vt 0.7083333134651184 0.800000011920929
vt 0.7083333134651184 1
vt 0.75 0
vt 0.75 0.20000000298023224
vt 0.75 0.4000000059604645
vt 0.75 0.6000000238418579
vt 0.75 0.800000011920929
vt 0.75 1
vt 0.7916666865348816 0
vt 0.7916666865348816 0.20000000298023224
vt 0.7916666865348816 0.4000000059604645
vt 0.7916666865348816 0.6000000238418579
vt 0.7916666865348816 0.800000011920929
vt 0.7916666865348816 1
vt 0.8333333134651184 0
vt 0.8333333134651184 0.20000000298023224
vt 0.8333333134651184 0.4000000059604645
vt 0.8333333134651184 0.6000000238418579
vt 0.8333333134651184 0.800000011920929
vt 0.8333333134651184 1
vt 0.875 0
vt 0.875 0.20000000298023224
vt 0.875 0.4000000059604645
vt 0.875 0.6000000238418579
vt 0.875 0.800000011920929
vt 0.875 1
vt 0.9166666865348816 0
vt 0.9166666865348816 0.20000000298023224
vt 0.9166666865348816 0.4000000059604645
vt 0.9166666865348816 0.6000000238418579
vt 0.9166666865348816 0.800000011920929
vt 0.9166666865348816 1
vt 0.9583333134651184 0
vt 0.9583333134651184 0.20000000298023224
vt 0.9583333134651184 0.4000000059604645
vt 0.9583333134651184 0.6000000238418579
vt 0.9583333134651184 0.800000011920929
vt 0.9583333134651184 1
vt 1 0
vt 1 0.20000000298023224
vt 1 0.4000000059604645
vt 1 0.6000000238418579
vt 1 0.800000011920929
vt 1 1
vn 0 0 0
vn 0.09602810224548684 -0.677306457886283 0.7294069959115195
vn 0.13044052975474507 0.0361934332038454 0.9907952884376371
vn 0.11407540133485727 0.4859872519991951 0.8664890037989876
vn 0.1282165649983239 0.18728868713416663 0.973901155216273
vn 0 1 0
vn 0 -1 0
vn 0.1714026493253656 -0.5496686736580777 0.8176096140599226
vn 0.26844385378244157 0.133776099047603 0.9539611379348936
vn 0.26146644796238666 0.3022083989252089 0.9166817224145981
vn 0.2760463981204644 0.2955512434619883 0.9145752284928726
vn 0 1 0
vn 0 -1 0
vn 0.3771752725909463 -0.5496686116697017 0.7453879735352912
vn 0.5062001989663014 0.1337760997074024 0.8519772964777592
vn 0.48981183900089437 0.30220845423600484 0.8177740596050027
vn 0.5033497230898714 0.2955512712201134 0.811965825848308
vn 0 1 0
vn 0 -1 0
vn 0.5572439456981597 -0.5496686721506013 0.6223692921722127
vn 0.7094597919260538 0.13377608552687476 0.6919326286433867
vn 0.6847774369931068 0.3022084526897491 0.6631364210387025
vn 0.6963507646496092 0.2955512452581668 0.6540222274496881
vn 0 1 0
vn 0 -1 0
vn 0.6993373065897337 -0.5496686720202809 0.456937285205834
vn 0.8643708803301765 0.13377611305338147 0.48473387834312226
vn 0.8330765850170532 0.3022084195359639 0.4633071062026777
vn 0.8418966425535008 0.2955512367153386 0.4515080395000476
vn 0 1 0
vn 0 -1 0
vn 0.7937721038391805 -0.5496686117834725 0.2603656359559597
vn 0.9603765415665451 0.13377611072738768 0.24450122823277573
vn 0.9246028813106898 0.3022084285623567 0.23190424225925985
vn 0.9300685594363245 0.2955512426502553 0.2182245121793839
vn 0 1 0
vn 0 -1 0
vn 0.8341125681441443 -0.5496685992577863 0.0460505662719078
vn 0.990934081964032 0.13377609957502817 -0.012393562223722971
vn 0.9531190395141588 0.3022084236077281 -0.015302457846358149
vn 0.9548578906292297 0.29555127172964324 -0.029930828289385
vn 0 1 0
vn 0 -1 0
vn 0.8176096140599226 -0.5496686736580777 -0.1714026493253656
vn 0.9539611379348936 0.133776099047603 -0.26844385378244157
vn 0.9166817224145981 0.3022083989252089 -0.26146644796238666
vn 0.9145752284928726 0.2955512434619883 -0.2760463981204644
vn 0 1 0
vn 0 -1 0
vn 0.7453879735352912 -0.5496686116697017 -0.3771752725909463
vn 0.8519772964777592 0.1337760997074024 -0.5062001989663014
vn 0.8177740596050027 0.30220845423600484 -0.48981183900089437
vn 0.811965825848308 0.2955512712201134 -0.5033497230898714
vn 0 1 0
vn 0 -1 0
vn 0.6223692921722127 -0.5496686721506013 -0.5572439456981597
vn 0.6919326286433867 0.13377608552687476 -0.7094597919260538
vn 0.6631364210387025 0.3022084526897491 -0.6847774369931068
vn 0.6540222274496881 0.2955512452581668 -0.6963507646496092
vn 0 1 0
vn 0 -1 0
vn 0.456937285205834 -0.5496686720202809 -0.6993373065897337
vn 0.48473387834312226 0.13377611305338147 -0.8643708803301765
vn 0.4633071062026777 0.3022084195359639 -0.8330765850170532
vn 0.4515080395000476 0.2955512367153386 -0.8418966425535008
vn 0 1 0
vn 0 -1 0
vn 0.2603656359559597 -0.5496686117834725 -0.7937721038391805
vn 0.24450122823277573 0.13377611072738768 -0.9603765415665451
vn 0.23190424225925985 0.3022084285623567 -0.9246028813106898
vn 0.2182245121793839 0.2955512426502553 -0.9300685594363245
vn 0 1 0
vn 0 -1 0
vn 0.0460505662719078 -0.5496685992577863 -0.8341125681441443
vn -0.012393562223722971 0.13377609957502817 -0.990934081964032
vn -0.015302457846358149 0.3022084236077281 -0.9531190395141588
vn -0.029930826692042632 0.29555124454704684 -0.9548578990929606
vn 0 1 0
vn 0 -1 0
vn -0.1714026493253656 -0.5496686736580777 -0.8176096140599226
vn -0.26844385378244157 0.133776099047603 -0.9539611379348936
vn -0.26146644796238666 0.3022083989252089 -0.9166817224145981
vn -0.2760463981204644 0.2955512434619883 -0.9145752284928726
vn 0 1 0
vn 0 -1 0
vn -0.3771752725909463 -0.5496686116697017 -0.7453879735352912
vn -0.5062001989663014 0.1337760997074024 -0.8519772964777592
vn -0.48981183900089437 0.30220845423600484 -0.8177740596050027
vn -0.5033497230898714 0.2955512712201134 -0.811965825848308
vn 0 1 0
vn 0 -1 0
vn -0.5572439456981597 -0.5496686721506013 -0.6223692921722127
vn -0.7094597919260538 0.13377608552687476 -0.6919326286433867
vn -0.6847774369931068 0.3022084526897491 -0.6631364210387025
vn -0.6963507646496092 0.2955512452581668 -0.6540222274496881
vn 0 1 0
vn 0 -1 0
vn -0.6993373065897337 -0.5496686720202809 -0.456937285205834
vn -0.8643708803301765 0.13377611305338147 -0.48473387834312226
vn -0.8330765850170532 0.3022084195359639 -0.4633071062026777
vn -0.8418966425535008 0.2955512367153386 -0.4515080395000476
vn 0 1 0
vn 0 -1 0
vn -0.7937721038391805 -0.5496686117834725 -0.2603656359559597
vn -0.9603765415665451 0.13377611072738768 -0.24450122823277573
vn -0.9246028813106898 0.3022084285623567 -0.23190424225925985
vn -0.9300685594363245 0.2955512426502553 -0.2182245121793839
vn 0 1 0
vn 0 -1 0
vn -0.8341125681441443 -0.5496685992577863 -0.0460505662719078
vn -0.990934081964032 0.13377609957502817 0.012393562223722971
vn -0.9531190395141588 0.3022084236077281 0.015302457846358149
vn -0.9548578990929606 0.29555124454704684 0.029930826692042632
vn 0 1 0
vn 0 -1 0
vn -0.8176096140599226 -0.5496686736580777 0.1714026493253656
vn -0.9539611379348936 0.133776099047603 0.26844385378244157
vn -0.9166817224145981 0.3022083989252089 0.26146644796238666
vn -0.9145752284928726 0.2955512434619883 0.2760463981204644
vn 0 1 0
vn 0 -1 0
vn -0.7453879735352912 -0.5496686116697017 0.3771752725909463
vn -0.8519772964777592 0.1337760997074024 0.5062001989663014
vn -0.8177740596050027 0.30220845423600484 0.48981183900089437
vn -0.811965825848308 0.2955512712201134 0.5033497230898714
vn 0 1 0
vn 0 -1 0
vn -0.6223692921722127 -0.5496686721506013 0.5572439456981597
vn -0.6919326286433867 0.13377608552687476 0.7094597919260538
vn -0.6631364210387025 0.3022084526897491 0.6847774369931068
vn -0.6540222274496881 0.2955512452581668 0.6963507646496092
vn 0 1 0
vn 0 -1 0
vn -0.456937285205834 -0.5496686720202809 0.6993373065897337
vn -0.48473387834312226 0.13377611305338147 0.8643708803301765
vn -0.4633071062026777 0.3022084195359639 0.8330765850170532
vn -0.4515080395000476 0.2955512367153386 0.8418966425535008
vn 0 1 0
vn 0 -1 0
vn -0.2603656359559597 -0.5496686117834725 0.7937721038391805
vn -0.24450122823277573 0.13377611072738768 0.9603765415665451
vn -0.23190424225925985 0.3022084285623567 0.9246028813106898
vn -0.2182245121793839 0.2955512426502553 0.9300685594363245
vn 0 1 0
vn 0 -1 0
vn -0.11465793356187355 -0.47787187558730565 0.8709144784615718
vn -0.12657004373178748 0.2443325625790755 0.9613956640703533
vn -0.13052426408573287 0.005507918595238759 0.9914298156287342
vn -0.11694563022335987 0.4441449582223491 0.8882899164446982
vn 0 0 0
f 1/1/1 7/7/7 2/2/2
f 8/8/8 2/2/2 7/7/7
f 2/2/2 8/8/8 3/3/3
f 9/9/9 3/3/3 8/8/8
f 3/3/3 9/9/9 4/4/4
f 10/10/10 4/4/4 9/9/9
f 4/4/4 10/10/10 5/5/5
f 11/11/11 5/5/5 10/10/10
f 5/5/5 11/11/11 6/6/6
f 12/12/12 6/6/6 11/11/11
f 7/7/7 13/13/13 8/8/8
f 14/14/14 8/8/8 13/13/13
f 8/8/8 14/14/14 9/9/9
f 15/15/15 9/9/9 14/14/14
f 9/9/9 15/15/15 10/10/10
f 16/16/16 10/10/10 15/15/15
f 10/10/10 16/16/16 11/11/11
f 17/17/17 11/11/11 16/16/16
f 11/11/11 17/17/17 12/12/12
f 18/18/18 12/12/12 17/17/17
f 13/13/13 19/19/19 14/14/14
f 20/20/20 14/14/14 19/19/19
f 14/14/14 20/20/20 15/15/15
f 21/21/21 15/15/15 20/20/20
f 15/15/15 21/21/21 16/16/16
f 22/22/22 16/16/16 21/21/21
f 16/16/16 22/22/22 17/17/17
f 23/23/23 17/17/17 22/22/22
f 17/17/17 23/23/23 18/18/18
f 24/24/24 18/18/18 23/23/23
f 19/19/19 25/25/25 20/20/20
f 26/26/26 20/20/20 25/25/25
f 20/20/20 26/26/26 21/21/21
f 27/27/27 21/21/21 26/26/26
f 21/21/21 27/27/27 22/22/22
f 28/28/28 22/22/22 27/27/27
f 22/22/22 28/28/28 23/23/23
f 29/29/29 23/23/23 28/28/28
f 23/23/23 29/29/29 24/24/24
f 30/30/30 24/24/24 29/29/29
f 25/25/25 31/31/31 26/26/26
f 32/32/32 26/26/26 31/31/31
f 26/26/26 32/32/32 27/27/27
f 33/33/33 27/27/27 32/32/32
f 27/27/27 33/33/33 28/28/28
f 34/34/34 28/28/28 33/33/33
f 28/28/28 34/34/34 29/29/29
f 35/35/35 29/29/29 34/34/34
f 29/29/29 35/35/35 30/30/30
f 36/36/36 30/30/30 35/35/35
f 31/31/31 37/37/37 32/32/32
f 38/38/38 32/32/32 37/37/37
f 32/32/32 38/38/38 33/33/33
f 39/39/39 33/33/33 38/38/38
f 33/33/33 39/39/39 34/34/34
f 40/40/40 34/34/34 39/39/39
f 34/34/34 40/40/40 35/35/35
f 41/41/41 35/35/35 40/40/40
f 35/35/35 41/41/41 36/36/36
f 42/42/42 36/36/36 41/41/41
f 37/37/37 43/43/43 38/38/38
f 44/44/44 38/38/38 43/43/43
f 38/38/38 44/44/44 39/39/39
f 45/45/45 39/39/39 44/44/44
f 39/39/39 45/45/45 40/40/40
f 46/46/46 40/40/40 45/45/45
f 40/40/40 46/46/46 41/41/41
f 47/47/47 41/41/41 46/46/46
f 41/41/41 47/47/47 42/42/42
f 48/48/48 42/42/42 47/47/47
f 43/43/43 49/49/49 44/44/44
f 50/50/50 44/44/44 49/49/49
f 44/44/44 50/50/50 45/45/45
f 51/51/51 45/45/45 50/50/50
f 45/45/45 51/51/51 46/46/46
f 52/52/52 46/46/46 51/51/51
f 46/46/46 52/52/52 47/47/47
f 53/53/53 47/47/47 52/52/52
f 47/47/47 53/53/53 48/48/48
f 54/54/54 48/48/48 53/53/53
f 49/49/49 55/55/55 50/50/50
f 56/56/56 50/50/50 55/55/55
f 50/50/50 56/56/56 51/51/51
f 57/57/57 51/51/51 56/56/56
f 51/51/51 57/57/57 52/52/52
f 58/58/58 52/52/52 57/57/57
f 52/52/52 58/58/58 53/53/53
f 59/59/59 53/53/53 58/58/58
f 53/53/53 59/59/59 54/54/54
f 60/60/60 54/54/54 59/59/59
f 55/55/55 61/61/61 56/56/56
f 62/62/62 56/56/56 61/61/61
f 56/56/56 62/62/62 57/57/57
f 63/63/63 57/57/57 62/62/62
f 57/57/57 63/63/63 58/58/58
f 64/64/64 58/58/58 63/63/63
f 58/58/58 64/64/64 59/59/59
f 65/65/65 59/59/59 64/64/64
f 59/59/59 65/65/65 60/60/60
f 66/66/66 60/60/60 65/65/65
f 61/61/61 67/67/67 62/62/62
f 68/68/68 62/62/62 67/67/67
f 62/62/62 68/68/68 63/63/63
f 69/69/69 63/63/63 68/68/68
f 63/63/63 69/69/69 64/64/64
f 70/70/70 64/64/64 69/69/69
f 64/64/64 70/70/70 65/65/65
f 71/71/71 65/65/65 70/70/70
f 65/65/65 71/71/71 66/66/66
f 72/72/72 66/66/66 71/71/71
f 67/67/67 73/73/73 68/68/68
f 74/74/74 68/68/68 73/73/73
f 68/68/68 74/74/74 69/69/69
f 75/75/75 69/69/69 74/74/74
f 69/69/69 75/75/75 70/70/70
f 76/76/76 70/70/70 75/75/75
f 70/70/70 76/76/76 71/71/71
f 77/77/77 71/71/71 76/76/76
f 71/71/71 77/77/77 72/72/72
f 78/78/78 72/72/72 77/77/77
f 73/73/73 79/79/79 74/74/74
f 80/80/80 74/74/74 79/79/79
f 74/74/74 80/80/80 75/75/75
f 81/81/81 75/75/75 80/80/80
f 75/75/75 81/81/81 76/76/76
f 82/82/82 76/76/76 81/81/81
f 76/76/76 82/82/82 77/77/77
f 83/83/83 77/77/77 82/82/82
f 77/77/77 83/83/83 78/78/78
f 84/84/84 78/78/78 83/83/83
f 79/79/79 85/85/85 80/80/80
f 86/86/86 80/80/80 85/85/85
f 80/80/80 86/86/86 81/81/81
f 87/87/87 81/81/81 86/86/86
f 81/81/81 87/87/87 82/82/82
f 88/88/88 82/82/82 87/87/87
f 82/82/82 88/88/88 83/83/83
f 89/89/89 83/83/83 88/88/88
f 83/83/83 89/89/89 84/84/84
f 90/90/90 84/84/84 89/89/89
f 85/85/85 91/91/91 86/86/86
f 92/92/92 86/86/86 91/91/91
f 86/86/86 92/92/92 87/87/87
f 93/93/93 87/87/87 92/92/92
f 87/87/87 93/93/93 88/88/88
f 94/94/94 88/88/88 93/93/93
f 88/88/88 94/94/94 89/89/89
f 95/95/95 89/89/89 94/94/94
f 89/89/89 95/95/95 90/90/90
f 96/96/96 90/90/90 95/95/95
f 91/91/91 97/97/97 92/92/92
f 98/98/98 92/92/92 97/97/97
f 92/92/92 98/98/98 93/93/93
f 99/99/99 93/93/93 98/98/98
f 93/93/93 99/99/99 94/94/94
f 100/100/100 94/94/94 99/99/99
f 94/94/94 100/100/100 95/95/95
f 101/101/101 95/95/95 100/100/100
f 95/95/95 101/101/101 96/96/96
f 102/102/102 96/96/96 101/101/101
f 97/97/97 103/103/103 98/98/98
f 104/104/104 98/98/98 103/103/103
f 98/98/98 104/104/104 99/99/99
f 105/105/105 99/99/99 104/104/104
f 99/99/99 105/105/105 100/100/100
f 106/106/106 100/100/100 105/105/105
f 100/100/100 106/106/106 101/101/101
f 107/107/107 101/101/101 106/106/106
f 101/101/101 107/107/107 102/102/102
f 108/108/108 102/102/102 107/107/107
f 103/103/103 109/109/109 104/104/104
f 110/110/110 104/104/104 109/109/109
f 104/104/104 110/110/110 105/105/105
f 111/111/111 105/105/105 110/110/110
f 105/105/105 111/111/111 106/106/106
f 112/112/112 106/106/106 111/111/111
f 106/106/106 112/112/112 107/107/107
f 113/113/113 107/107/107 112/112/112
f 107/107/107 113/113/113 108/108/108
f 114/114/114 108/108/108 113/113/113
f 109/109/109 115/115/115 110/110/110
f 116/116/116 110/110/110 115/115/115
f 110/110/110 116/116/116 111/111/111
f 117/117/117 111/111/111 116/116/116
f 111/111/111 117/117/117 112/112/112
f 118/118/118 112/112/112 117/117/117
f 112/112/112 118/118/118 113/113/113
f 119/119/119 113/113/113 118/118/118
f 113/113/113 119/119/119 114/114/114
f 120/120/120 114/114/114 119/119/119
f 115/115/115 121/121/121 116/116/116
f 122/122/122 116/116/116 121/121/121
f 116/116/116 122/122/122 117/117/117
f 123/123/123 117/117/117 122/122/122
f 117/117/117 123/123/123 118/118/118
f 124/124/124 118/118/118 123/123/123
f 118/118/118 124/124/124 119/119/119
f 125/125/125 119/119/119 124/124/124
f 119/119/119 125/125/125 120/120/120
f 126/126/126 120/120/120 125/125/125
f 121/121/121 127/127/127 122/122/122
f 128/128/128 122/122/122 127/127/127
f 122/122/122 128/128/128 123/123/123
f 129/129/129 123/123/123 128/128/128
f 123/123/123 129/129/129 124/124/124
f 130/130/130 124/124/124 129/129/129
f 124/124/124 130/130/130 125/125/125
f 131/131/131 125/125/125 130/130/130
f 125/125/125 131/131/131 126/126/126
f 132/132/132 126/126/126 131/131/131
f 127/127/127 133/133/133 128/128/128
f 134/134/134 128/128/128 133/133/133
f 128/128/128 134/134/134 129/129/129
f 135/135/135 129/129/129 134/134/134
f 129/129/129 135/135/135 130/130/130
f 136/136/136 130/130/130 135/135/135
f 130/130/130 136/136/136 131/131/131
f 137/137/137 131/131/131 136/136/136
f 131/131/131 137/137/137 132/132/132
f 138/138/138 132/132/132 137/137/137
f 133/133/133 139/139/139 134/134/134
f 140/140/140 134/134/134 139/139/139
f 134/134/134 140/140/140 135/135/135
f 141/141/141 135/135/135 140/140/140
f 135/135/135 141/141/141 136/136/136
f 142/142/142 136/136/136 141/141/141
f 136/136/136 142/142/142 137/137/137
f 143/143/143 137/137/137 142/142/142
f 137/137/137 143/143/143 138/138/138
f 144/144/144 138/138/138 143/143/143
f 139/139/139 145/145/145 140/140/140
f 146/146/146 140/140/140 145/145/145
f 140/140/140 146/146/146 141/141/141
f 147/147/147 141/141/141 146/146/146
f 141/141/141 147/147/147 142/142/142
f 148/148/148 142/142/142 147/147/147
f 142/142/142 148/148/148 143/143/143
f 149/149/149 143/143/143 148/148/148
f 143/143/143 149/149/149 144/144/144
f 150/150/150 144/144/144 149/149/149
