o shape_073
v 0 0 0
v 0 0 0.6111111640930176
v 0 1.2222223281860352 0.6111111640930176
v 0 1.4444444179534912 0.2777777910232544
v 0 2 0.2777777910232544
v 0 2 0
v 0 0 0
v 0.15816719830036163 0 0.590287983417511
v 0.15816719830036163 1.2222223281860352 0.590287983417511
v 0.07189418375492096 1.4444444179534912 0.2683127224445343
v 0.07189418375492096 2 0.2683127224445343
v 0 2 0
v 0 0 0
v 0.3055555820465088 0 0.5292377471923828
v 0.3055555820465088 1.2222223281860352 0.5292377471923828
v 0.1388888955116272 1.4444444179534912 0.24056261777877808
v 0.1388888955116272 2 0.24056261777877808
v 0 2 0
v 0 0 0
v 0.43212082982063293 0 0.43212082982063293
v 0.43212082982063293 1.2222223281860352 0.43212082982063293
v 0.19641855359077454 1.4444444179534912 0.19641855359077454
v 0.19641855359077454 2 0.19641855359077454
v 0 2 0
v 0 0 0
v 0.5292377471923828 0 0.3055555820465088
v 0.5292377471923828 1.2222223281860352 0.3055555820465088
v 0.24056261777877808 1.4444444179534912 0.1388888955116272
v 0.24056261777877808 2 0.1388888955116272
v 0 2 0
v 0 0 0
v 0.590287983417511 0 0.15816719830036163
v 0.590287983417511 1.2222223281860352 0.15816719830036163
v 0.2683127224445343 1.4444444179534912 0.07189418375492096
v 0.2683127224445343 2 0.07189418375492096
v 0 2 0
v 0 0 0
v 0.6111111640930176 0 3.741976494010235e-17
v 0.6111111640930176 1.2222223281860352 3.741976494010235e-17
v 0.2777777910232544 1.4444444179534912 1.7008984063682887e-17
v 0.2777777910232544 2 1.7008984063682887e-17
v 0 2 0
v 0 0 0
v 0.590287983417511 0 -0.15816719830036163
v 0.590287983417511 1.2222223281860352 -0.15816719830036163
v 0.2683127224445343 1.4444444179534912 -0.07189418375492096
v 0.2683127224445343 2 -0.07189418375492096
v 0 2 0
v 0 0 0
v 0.5292377471923828 0 -0.3055555820465088
v 0.5292377471923828 1.2222223281860352 -0.3055555820465088
v 0.24056261777877808 1.4444444179534912 -0.1388888955116272
v 0.24056261777877808 2 -0.1388888955116272
v 0 2 0
v 0 0 0
v 0.43212082982063293 0 -0.43212082982063293
v 0.43212082982063293 1.2222223281860352 -0.43212082982063293
v 0.19641855359077454 1.4444444179534912 -0.19641855359077454
v 0.19641855359077454 2 -0.19641855359077454
v 0 2 0
v 0 0 0
v 0.3055555820465088 0 -0.5292377471923828
v 0.3055555820465088 1.2222223281860352 -0.5292377471923828
v 0.1388888955116272 1.4444444179534912 -0.24056261777877808
v 0.1388888955116272 2 -0.24056261777877808
v 0 2 0
v 0 0 0
v 0.15816719830036163 0 -0.590287983417511
v 0.15816719830036163 1.2222223281860352 -0.590287983417511
v 0.07189418375492096 1.4444444179534912 -0.2683127224445343
v 0.07189418375492096 2 -0.2683127224445343
v 0 2 0
v 0 0 0
v 7.48395298802047e-17 0 -0.6111111640930176
v 7.48395298802047e-17 1.2222223281860352 -0.6111111640930176
v 3.4017968127365774e-17 1.4444444179534912 -0.2777777910232544
v 3.4017968127365774e-17 2 -0.2777777910232544
v 0 2 0
v 0 0 0
v -0.15816719830036163 0 -0.590287983417511
v -0.15816719830036163 1.2222223281860352 -0.590287983417511
v -0.07189418375492096 1.4444444179534912 -0.2683127224445343
v -0.07189418375492096 2 -0.2683127224445343
v 0 2 0
v 0 0 0
v -0.3055555820465088 0 -0.5292377471923828
v -0.3055555820465088 1.2222223281860352 -0.5292377471923828
v -0.1388888955116272 1.4444444179534912 -0.24056261777877808
v -0.1388888955116272 2 -0.24056261777877808
v 0 2 0
v 0 0 0
v -0.43212082982063293 0 -0.43212082982063293
v -0.43212082982063293 1.2222223281860352 -0.43212082982063293
v -0.19641855359077454 1.4444444179534912 -0.19641855359077454
v -0.19641855359077454 2 -0.19641855359077454
v 0 2 0
v 0 0 0
v -0.5292377471923828 0 -0.3055555820465088
v -0.5292377471923828 1.2222223281860352 -0.3055555820465088
v -0.24056261777877808 1.4444444179534912 -0.1388888955116272
v -0.24056261777877808 2 -0.1388888955116272
v 0 2 0
v 0 0 0
v -0.590287983417511 0 -0.15816719830036163
v -0.590287983417511 1.2222223281860352 -0.15816719830036163
v -0.2683127224445343 1.4444444179534912 -0.07189418375492096
v -0.2683127224445343 2 -0.07189418375492096
v 0 2 0
v 0 0 0
v -0.6111111640930176 0 -1.1225928820286215e-16
v -0.6111111640930176 1.2222223281860352 -1.1225928820286215e-16
v -0.2777777910232544 1.4444444179534912 -5.102694888232621e-17
v -0.2777777910232544 2 -5.102694888232621e-17
v 0 2 0
v 0 0 0
v -0.590287983417511 0 0.15816719830036163
v -0.590287983417511 1.2222223281860352 0.15816719830036163
v -0.2683127224445343 1.4444444179534912 0.07189418375492096
v -0.2683127224445343 2 0.07189418375492096
v 0 2 0
v 0 0 0
v -0.5292377471923828 0 0.3055555820465088
v -0.5292377471923828 1.2222223281860352 0.3055555820465088
v -0.24056261777877808 1.4444444179534912 0.1388888955116272
v -0.24056261777877808 2 0.1388888955116272
v 0 2 0
v 0 0 0
v -0.43212082982063293 0 0.43212082982063293
v -0.43212082982063293 1.2222223281860352 0.43212082982063293
v -0.19641855359077454 1.4444444179534912 0.19641855359077454
v -0.19641855359077454 2 0.19641855359077454
v 0 2 0
v 0 0 0
v -0.3055555820465088 0 0.5292377471923828
v -0.3055555820465088 1.2222223281860352 0.5292377471923828
v -0.1388888955116272 1.4444444179534912 0.24056261777877808
v -0.1388888955116272 2 0.24056261777877808
v 0 2 0
v 0 0 0
v -0.15816719830036163 0 0.590287983417511
v -0.15816719830036163 1.2222223281860352 0.590287983417511
v -0.07189418375492096 1.4444444179534912 0.2683127224445343
v -0.07189418375492096 2 0.2683127224445343
v 0 2 0
v 0 0 0
v -1.496790597604094e-16 0 0.6111111640930176
v -1.496790597604094e-16 1.2222223281860352 0.6111111640930176
v -6.803593625473155e-17 1.4444444179534912 0.2777777910232544
v -6.803593625473155e-17 2 0.2777777910232544
v 0 2 0
vt 0 0
vt 0 0.20000000298023224
vt 0 0.4000000059604645
vt 0 0.6000000238418579
vt 0 0.800000011920929
vt 0 1
vt 0.0416666679084301 0
vt 0.0416666679084301 0.20000000298023224
vt 0.0416666679084301 0.4000000059604645
vt 0.0416666679084301 0.6000000238418579
vt 0.0416666679084301 0.800000011920929
vt 0.0416666679084301 1
vt 0.0833333358168602 0
vt 0.0833333358168602 0.20000000298023224
vt 0.0833333358168602 0.4000000059604645
vt 0.0833333358168602 0.6000000238418579
vt 0.0833333358168602 0.800000011920929
vt 0.0833333358168602 1
vt 0.125 0
vt 0.125 0.20000000298023224
vt 0.125 0.4000000059604645
vt 0.125 0.6000000238418579
vt 0.125 0.800000011920929
vt 0.125 1
vt 0.1666666716337204 0
vt 0.1666666716337204 0.20000000298023224
vt 0.1666666716337204 0.4000000059604645
vt 0.1666666716337204 0.6000000238418579
vt 0.1666666716337204 0.800000011920929
vt 0.1666666716337204 1
vt 0.2083333283662796 0
vt 0.2083333283662796 0.20000000298023224
vt 0.2083333283662796 0.4000000059604645
vt 0.2083333283662796 0.6000000238418579
vt 0.2083333283662796 0.800000011920929
vt 0.2083333283662796 1
vt 0.25 0
vt 0.25 0.20000000298023224
vt 0.25 0.4000000059604645
vt 0.25 0.6000000238418579
vt 0.25 0.800000011920929
vt 0.25 1
vt 0.2916666567325592 0
vt 0.2916666567325592 0.20000000298023224
vt 0.2916666567325592 0.4000000059604645
vt 0.2916666567325592 0.6000000238418579
vt 0.2916666567325592 0.800000011920929
vt 0.2916666567325592 1
vt 0.3333333432674408 0
vt 0.3333333432674408 0.20000000298023224
vt 0.3333333432674408 0.4000000059604645
vt 0.3333333432674408 0.6000000238418579
vt 0.3333333432674408 0.800000011920929
vt 0.3333333432674408 1
vt 0.375 0
vt 0.375 0.20000000298023224
vt 0.375 0.4000000059604645
vt 0.375 0.6000000238418579
vt 0.375 0.800000011920929
vt 0.375 1
vt 0.4166666567325592 0
vt 0.4166666567325592 0.20000000298023224
vt 0.4166666567325592 0.4000000059604645
vt 0.4166666567325592 0.6000000238418579
vt 0.4166666567325592 0.800000011920929
vt 0.4166666567325592 1
vt 0.4583333432674408 0
vt 0.4583333432674408 0.20000000298023224
vt 0.4583333432674408 0.4000000059604645
vt 0.4583333432674408 0.6000000238418579
vt 0.4583333432674408 0.800000011920929
vt 0.4583333432674408 1
vt 0.5 0
vt 0.5 0.20000000298023224
vt 0.5 0.4000000059604645
vt 0.5 0.6000000238418579
vt 0.5 0.800000011920929
vt 0.5 1
vt 0.5416666865348816 0
vt 0.5416666865348816 0.20000000298023224
vt 0.5416666865348816 0.4000000059604645
vt 0.5416666865348816 0.6000000238418579
vt 0.5416666865348816 0.800000011920929
vt 0.5416666865348816 1
vt 0.5833333134651184 0
vt 0.5833333134651184 0.20000000298023224
vt 0.5833333134651184 0.4000000059604645
vt 0.5833333134651184 0.6000000238418579
vt 0.5833333134651184 0.800000011920929
vt 0.5833333134651184 1
vt 0.625 0
vt 0.625 0.20000000298023224
vt 0.625 0.4000000059604645
vt 0.625 0.6000000238418579
vt 0.625 0.800000011920929
vt 0.625 1
vt 0.6666666865348816 0
vt 0.6666666865348816 0.20000000298023224
vt 0.6666666865348816 0.4000000059604645
vt 0.6666666865348816 0.6000000238418579
vt 0.6666666865348816 0.800000011920929
vt 0.6666666865348816 1
vt 0.7083333134651184 0
vt 0.7083333134651184 0.20000000298023224
vt 0.7083333134651184 0.4000000059604645
vt 0.7083333134651184 0.6000000238418579
vt 0.7083333134651184 0.800000011920929
vt 0.7083333134651184 1
vt 0.75 0
vt 0.75 0.20000000298023224
vt 0.75 0.4000000059604645
vt 0.75 0.6000000238418579
vt 0.75 0.800000011920929
vt 0.75 1
vt 0.7916666865348816 0
vt 0.7916666865348816 0.20000000298023224
vt 0.7916666865348816 0.4000000059604645
vt 0.7916666865348816 0.6000000238418579
vt 0.7916666865348816 0.800000011920929
vt 0.7916666865348816 1
vt 0.8333333134651184 0
vt 0.8333333134651184 0.20000000298023224
vt 0.8333333134651184 0.4000000059604645
vt 0.8333333134651184 0.6000000238418579
vt 0.8333333134651184 0.800000011920929
vt 0.8333333134651184 1
vt 0.875 0
vt 0.875 0.20000000298023224
vt 0.875 0.4000000059604645
vt 0.875 0.6000000238418579
vt 0.875 0.800000011920929
vt 0.875 1
vt 0.9166666865348816 0
vt 0.9166666865348816 0.20000000298023224
vt 0.9166666865348816 0.4000000059604645
vt 0.9166666865348816 0.6000000238418579
vt 0.9166666865348816 0.800000011920929
vt 0.9166666865348816 1
vt 0.9583333134651184 0
vt 0.9583333134651184 0.20000000298023224
vt 0.9583333134651184 0.4000000059604645
vt 0.9583333134651184 0.6000000238418579
vt 0.9583333134651184 0.800000011920929
vt 0.9583333134651184 1
vt 1 0
vt 1 0.20000000298023224
vt 1 0.4000000059604645
vt 1 0.6000000238418579
vt 1 0.800000011920929
vt 1 1
vn 0 0 0
vn 0.11694581433157265 -0.4441449485270153 0.8882898970540306
vn 0.1295354681728846 0.1229897157980312 0.9839177263842496
vn 0.10019579551773214 0.6408943547976524 0.7610619084864709
vn 0.12669256673811943 0.24058128057016984 0.9623251222806793
vn 0 1 0
vn 0 -1 0
vn 0.20514609287735938 -0.3159540352295879 0.9263304638190919
vn 0.2871293653721784 0.19056789113336614 0.9387441645144601
vn 0.2250107657885887 0.47409775475900745 0.8512352637266041
vn 0.28550359007821224 0.3159540527344137 0.9047987271283882
vn 0 1 0
vn 0 -1 0
vn 0.4379076736106212 -0.3159540946789922 0.841670885470391
vn 0.5203104731849892 0.19056791494320996 0.832442719523818
vn 0.43765955953498137 0.47409775625772493 0.7639930807664667
vn 0.509954439728985 0.31595408124308005 0.8000746764812258
vn 0 1 0
vn 0 -1 0
vn 0.6408268737653955 -0.31595408563137406 0.699652723594293
vn 0.7180334491043162 0.19056792985700308 0.6694115550820554
vn 0.62048268300443 0.4740977881983966 0.6246859429481444
vn 0.699652723594293 0.31595408563137406 0.6408268737653955
vn 0 1 0
vn 0 -1 0
vn 0.8000747541029888 -0.3159540585558212 0.5099543320035107
vn 0.8668235978396149 0.19056789229561638 0.46076103204849234
vn 0.7610208545498294 0.47409776808522247 0.44280759392410846
vn 0.8416708320781076 0.3159540672087225 0.4379077960521051
vn 0 1 0
vn 0 -1 0
vn 0.90479873400592 -0.31595408493835714 0.2855035326437305
vn 0.9565409787814314 0.19056789118482717 0.2207107490840195
vn 0.8496967168580106 0.4740977702785582 0.23075266754171533
vn 0.9263304635917515 0.31595406495436934 0.205146048123528
vn 0 1 0
vn 0 -1 0
vn 0.9478622180728336 -0.31595406275683696 0.04159622311577165
vn 0.9810717750371687 0.19056789671137764 -0.03438093902761748
vn 0.8804671784169225 0.47409778939980163 0.0029721737440443325
vn 0.947862220569772 0.31595406358914974 -0.041596159895412
vn 0 1 0
vn 0 -1 0
vn 0.9263304638190919 -0.3159540352295879 -0.20514609287735938
vn 0.9387441645144601 0.19056789113336614 -0.2871293653721784
vn 0.8512352637266041 0.47409775475900745 -0.2250107657885887
vn 0.9047987271283882 0.3159540527344137 -0.28550359007821224
vn 0 1 0
vn 0 -1 0
vn 0.841670885470391 -0.3159540946789922 -0.4379076736106212
vn 0.832442719523818 0.19056791494320996 -0.5203104731849892
vn 0.7639930807664667 0.47409775625772493 -0.43765955953498137
vn 0.8000746764812258 0.31595408124308005 -0.509954439728985
vn 0 1 0
vn 0 -1 0
vn 0.699652723594293 -0.31595408563137406 -0.6408268737653955
vn 0.6694115550820554 0.19056792985700308 -0.7180334491043162
vn 0.6246859429481444 0.4740977881983966 -0.62048268300443
vn 0.6408268737653955 0.31595408563137406 -0.699652723594293
vn 0 1 0
vn 0 -1 0
vn 0.5099543320035107 -0.3159540585558212 -0.8000747541029888
vn 0.46076103204849234 0.19056789229561638 -0.8668235978396149
vn 0.44280759392410846 0.47409776808522247 -0.7610208545498294
vn 0.4379077960521051 0.3159540672087225 -0.8416708320781076
vn 0 1 0
vn 0 -1 0
vn 0.2855035326437305 -0.31595408493835714 -0.90479873400592
vn 0.2207107490840195 0.19056789118482717 -0.9565409787814314
vn 0.23075266754171533 0.4740977702785582 -0.8496967168580106
vn 0.205146048123528 0.31595406495436934 -0.9263304635917515
vn 0 1 0
vn 0 -1 0
vn 0.04159622311577165 -0.31595406275683696 -0.9478622180728336
vn -0.03438093902761748 0.19056789671137764 -0.9810717750371687
vn 0.0029721737440443325 0.47409778939980163 -0.8804671784169225
vn -0.041596159895412 0.31595406358914974 -0.947862220569772
vn 0 1 0
vn 0 -1 0
vn -0.20514609287735938 -0.3159540352295879 -0.9263304638190919
vn -0.2871293653721784 0.19056789113336614 -0.9387441645144601
vn -0.225010754821096 0.47409773324492593 -0.8512352786080141
vn -0.28550359007821224 0.3159540527344137 -0.9047987271283882
vn 0 1 0
vn 0 -1 0
vn -0.4379076736106212 -0.3159540946789922 -0.841670885470391
vn -0.5203104731849892 0.19056791494320996 -0.832442719523818
vn -0.43765955953498137 0.47409775625772493 -0.7639930807664667
vn -0.509954439728985 0.31595408124308005 -0.8000746764812258
vn 0 1 0
vn 0 -1 0
vn -0.6408268737653955 -0.31595408563137406 -0.699652723594293
vn -0.7180334491043162 0.19056792985700308 -0.6694115550820554
vn -0.62048268300443 0.4740977881983966 -0.6246859429481444
vn -0.699652723594293 0.31595408563137406 -0.6408268737653955
vn 0 1 0
vn 0 -1 0
vn -0.8000747541029888 -0.3159540585558212 -0.5099543320035107
vn -0.8668235978396149 0.19056789229561638 -0.46076103204849234
vn -0.7610208545498294 0.47409776808522247 -0.44280759392410846
vn -0.8416708320781076 0.3159540672087225 -0.4379077960521051
vn 0 1 0
vn 0 -1 0
vn -0.90479873400592 -0.31595408493835714 -0.2855035326437305
vn -0.9565409787814314 0.19056789118482717 -0.2207107490840195
vn -0.8496967168580106 0.4740977702785582 -0.23075266754171533
vn -0.9263304635917515 0.31595406495436934 -0.205146048123528
vn 0 1 0
vn 0 -1 0
vn -0.9478622180728336 -0.31595406275683696 -0.04159622311577165
vn -0.9810717750371687 0.19056789671137764 0.03438093902761748
vn -0.8804671784169225 0.47409778939980163 -0.0029721737440443325
vn -0.947862220569772 0.31595406358914974 0.041596159895412
vn 0 1 0
vn 0 -1 0
vn -0.9263304638190919 -0.3159540352295879 0.20514609287735938
vn -0.9387441645144601 0.19056789113336614 0.2871293653721784
vn -0.8512352786080141 0.47409773324492593 0.225010754821096
vn -0.9047987271283882 0.3159540527344137 0.28550359007821224
vn 0 1 0
vn 0 -1 0
vn -0.841670885470391 -0.3159540946789922 0.4379076736106212
vn -0.832442719523818 0.19056791494320996 0.5203104731849892
vn -0.7639930807664667 0.47409775625772493 0.43765955953498137
vn -0.8000746764812258 0.31595408124308005 0.509954439728985
vn 0 1 0
vn 0 -1 0
vn -0.699652723594293 -0.31595408563137406 0.6408268737653955
vn -0.6694115550820554 0.19056792985700308 0.7180334491043162
vn -0.6246859429481444 0.4740977881983966 0.62048268300443
vn -0.6408268737653955 0.31595408563137406 0.699652723594293
vn 0 1 0
vn 0 -1 0
vn -0.5099543320035107 -0.3159540585558212 0.8000747541029888
vn -0.46076103204849234 0.19056789229561638 0.8668235978396149
vn -0.44280759392410846 0.47409776808522247 0.7610208545498294
vn -0.4379077960521051 0.3159540672087225 0.8416708320781076
vn 0 1 0
vn 0 -1 0
vn -0.2855035326437305 -0.31595408493835714 0.90479873400592
vn -0.2207107490840195 0.19056789118482717 0.9565409787814314
vn -0.23075266754171533 0.4740977702785582 0.8496967168580106
vn -0.205146048123528 0.31595406495436934 0.9263304635917515
vn 0 1 0
vn 0 -1 0
vn -0.12669275734389088 -0.2405812746657564 0.9623250986630256
vn -0.12463651836965901 0.2970059869133155 0.9467064920165791
vn -0.12669256537556337 0.24058132268624516 0.9623251119310434
vn -0.11694563022335987 0.4441449582223491 0.8882899164446982
vn 0 0 0
f 1/1/1 7/7/7 2/2/2
f 8/8/8 2/2/2 7/7/7
f 2/2/2 8/8/8 3/3/3
f 9/9/9 3/3/3 8/8/8
f 3/3/3 9/9/9 4/4/4
f 10/10/10 4/4/4 9/9/9
f 4/4/4 10/10/10 5/5/5
f 11/11/11 5/5/5 10/10/10
f 5/5/5 11/11/11 6/6/6
f 12/12/12 6/6/6 11/11/11
f 7/7/7 13/13/13 8/8/8
f 14/14/14 8/8/8 13/13/13
f 8/8/8 14/14/14 9/9/9
f 15/15/15 9/9/9 14/14/14
f 9/9/9 15/15/15 10/10/10
f 16/16/16 10/10/10 15/15/15
f 10/10/10 16/16/16 11/11/11
f 17/17/17 11/11/11 16/16/16
f 11/11/11 17/17/17 12/12/12
f 18/18/18 12/12/12 17/17/17
f 13/13/13 19/19/19 14/14/14
f 20/20/20 14/14/14 19/19/19
f 14/14/14 20/20/20 15/15/15
f 21/21/21 15/15/15 20/20/20
f 15/15/15 21/21/21 16/16/16
f 22/22/22 16/16/16 21/21/21
f 16/16/16 22/22/22 17/17/17
f 23/23/23 17/17/17 22/22/22
f 17/17/17 23/23/23 18/18/18
f 24/24/24 18/18/18 23/23/23
f 19/19/19 25/25/25 20/20/20
f 26/26/26 20/20/20 25/25/25
f 20/20/20 26/26/26 21/21/21
f 27/27/27 21/21/21 26/26/26
f 21/21/21 27/27/27 22/22/22
f 28/28/28 22/22/22 27/27/27
f 22/22/22 28/28/28 23/23/23
f 29/29/29 23/23/23 28/28/28
f 23/23/23 29/29/29 24/24/24
f 30/30/30 24/24/24 29/29/29
f 25/25/25 31/31/31 26/26/26
f 32/32/32 26/26/26 31/31/31
f 26/26/26 32/32/32 27/27/27
f 33/33/33 27/27/27 32/32/32
f 27/27/27 33/33/33 28/28/28
f 34/34/34 28/28/28 33/33/33
f 28/28/28 34/34/34 29/29/29
f 35/35/35 29/29/29 34/34/34
f 29/29/29 35/35/35 30/30/30
f 36/36/36 30/30/30 35/35/35
f 31/31/31 37/37/37 32/32/32
f 38/38/38 32/32/32 37/37/37
f 32/32/32 38/38/38 33/33/33
f 39/39/39 33/33/33 38/38/38
f 33/33/33 39/39/39 34/34/34
f 40/40/40 34/34/34 39/39/39
f 34/34/34 40/40/40 35/35/35
f 41/41/41 35/35/35 40/40/40
f 35/35/35 41/41/41 36/36/36
f 42/42/42 36/36/36 41/41/41
f 37/37/37 43/43/43 38/38/38
f 44/44/44 38/38/38 43/43/43
f 38/38/38 44/44/44 39/39/39
f 45/45/45 39/39/39 44/44/44
f 39/39/39 45/45/45 40/40/40
f 46/46/46 40/40/40 45/45/45
f 40/40/40 46/46/46 41/41/41
f 47/47/47 41/41/41 46/46/46
f 41/41/41 47/47/47 42/42/42
f 48/48/48 42/42/42 47/47/47
f 43/43/43 49/49/49 44/44/44
f 50/50/50 44/44/44 49/49/49
f 44/44/44 50/50/50 45/45/45
f 51/51/51 45/45/45 50/50/50
f 45/45/45 51/51/51 46/46/46
f 52/52/52 46/46/46 51/51/51
f 46/46/46 52/52/52 47/47/47
f 53/53/53 47/47/47 52/52/52
f 47/47/47 53/53/53 48/48/48
f 54/54/54 48/48/48 53/53/53
f 49/49/49 55/55/55 50/50/50
f 56/56/56 50/50/50 55/55/55
f 50/50/50 56/56/56 51/51/51
f 57/57/57 51/51/51 56/56/56
f 51/51/51 57/57/57 52/52/52
f 58/58/58 52/52/52 57/57/57
f 52/52/52 58/58/58 53/53/53
f 59/59/59 53/53/53 58/58/58
f 53/53/53 59/59/59 54/54/54
f 60/60/60 54/54/54 59/59/59
f 55/55/55 61/61/61 56/56/56
f 62/62/62 56/56/56 61/61/61
f 56/56/56 62/62/62 57/57/57
f 63/63/63 57/57/57 62/62/62
f 57/57/57 63/63/63 58/58/58
f 64/64/64 58/58/58 63/63/63
f 58/58/58 64/64/64 59/59/59
f 65/65/65 59/59/59 64/64/64
f 59/59/59 65/65/65 60/60/60
f 66/66/66 60/60/60 65/65/65
f 61/61/61 67/67/67 62/62/62
f 68/68/68 62/62/62 67/67/67
f 62/62/62 68/68/68 63/63/63
f 69/69/69 63/63/63 68/68/68
f 63/63/63 69/69/69 64/64/64
f 70/70/70 64/64/64 69/69/69
f 64/64/64 70/70/70 65/65/65
f 71/71/71 65/65/65 70/70/70
f 65/65/65 71/71/71 66/66/66
f 72/72/72 66/66/66 71/71/71
f 67/67/67 73/73/73 68/68/68
f 74/74/74 68/68/68 73/73/73
f 68/68/68 74/74/74 69/69/69
f 75/75/75 69/69/69 74/74/74
f 69/69/69 75/75/75 70/70/70
f 76/76/76 70/70/70 75/75/75
f 70/70/70 76/76/76 71/71/71
f 77/77/77 71/71/71 76/76/76
f 71/71/71 77/77/77 72/72/72
f 78/78/78 72/72/72 77/77/77
f 73/73/73 79/79/79 74/74/74
f 80/80/80 74/74/74 79/79/79
f 74/74/74 80/80/80 75/75/75
f 81/81/81 75/75/75 80/80/80
f 75/75/75 81/81/81 76/76/76
f 82/82/82 76/76/76 81/81/81
f 76/76/76 82/82/82 77/77/77
f 83/83/83 77/77/77 82/82/82
f 77/77/77 83/83/83 78/78/78
f 84/84/84 78/78/78 83/83/83
f 79/79/79 85/85/85 80/80/80
f 86/86/86 80/80/80 85/85/85
f 80/80/80 86/86/86 81/81/81
f 87/87/87 81/81/81 86/86/86
f 81/81/81 87/87/87 82/82/82
f 88/88/88 82/82/82 87/87/87
f 82/82/82 88/88/88 83/83/83
f 89/89/89 83/83/83 88/88/88
f 83/83/83 89/89/89 84/84/84
f 90/90/90 84/84/84 89/89/89
f 85/85/85 91/91/91 86/86/86
f 92/92/92 86/86/86 91/91/91
f 86/86/86 92/92/92 87/87/87
f 93/93/93 87/87/87 92/92/92
f 87/87/87 93/93/93 88/88/88
f 94/94/94 88/88/88 93/93/93
f 88/88/88 94/94/94 89/89/89
f 95/95/95 89/89/89 94/94/94
f 89/89/89 95/95/95 90/90/90
f 96/96/96 90/90/90 95/95/95
f 91/91/91 97/97/97 92/92/92
f 98/98/98 92/92/92 97/97/97
f 92/92/92 98/98/98 93/93/93
f 99/99/99 93/93/93 98/98/98
f 93/93/93 99/99/99 94/94/94
f 100/100/100 94/94/94 99/99/99
f 94/94/94 100/100/100 95/95/95
f 101/101/101 95/95/95 100/100/100
f 95/95/95 101/101/101 96/96/96
f 102/102/102 96/96/96 101/101/101
f 97/97/97 103/103/103 98/98/98
f 104/104/104 98/98/98 103/103/103
f 98/98/98 104/104/104 99/99/99
f 105/105/105 99/99/99 104/104/104
f 99/99/99 105/105/105 100/100/100
f 106/106/106 100/100/100 105/105/105
f 100/100/100 106/106/106 101/101/101
f 107/107/107 101/101/101 106/106/106
f 101/101/101 107/107/107 102/102/102
f 108/108/108 102/102/102 107/107/107
f 103/103/103 109/109/109 104/104/104
f 110/110/110 104/104/104 109/109/109
f 104/104/104 110/110/110 105/105/105
f 111/111/111 105/105/105 110/110/110
f 105/105/105 111/111/111 106/106/106
f 112/112/112 106/106/106 111/111/111
f 106/106/106 112/112/112 107/107/107
f 113/113/113 107/107/107 112/112/112
f 107/107/107 113/113/113 108/108/108
f 114/114/114 108/108/108 113/113/113
f 109/109/109 115/115/115 110/110/110
f 116/116/116 110/110/110 115/115/115
f 110/110/110 116/116/116 111/111/111
f 117/117/117 111/111/111 116/116/116
f 111/111/111 117/117/117 112/112/112
f 118/118/118 112/112/112 117/117/117
f 112/112/112 118/118/118 113/113/113
f 119/119/119 113/113/113 118/118/118
f 113/113/113 119/119/119 114/114/114
f 120/120/120 114/114/114 119/119/119
f 115/115/115 121/121/121 116/116/116
f 122/122/122 116/116/116 121/121/121
f 116/116/116 122/122/122 117/117/117
f 123/123/123 117/117/117 122/122/122
f 117/117/117 123/123/123 118/118/118
f 124/124/124 118/118/118 123/123/123
f 118/118/118 124/124/124 119/119/119
f 125/125/125 119/119/119 124/124/124
f 119/119/119 125/125/125 120/120/120
f 126/126/126 120/120/120 125/125/125
f 121/121/121 127/127/127 122/122/122
f 128/128/128 122/122/122 127/127/127
f 122/122/122 128/128/128 123/123/123
f 129/129/129 123/123/123 128/128/128
f 123/123/123 129/129/129 124/124/124
f 130/130/130 124/124/124 129/129/129
f 124/124/124 130/130/130 125/125/125
f 131/131/131 125/125/125 130/130/130
f 125/125/125 131/131/131 126/126/126
f 132/132/132 126/126/126 131/131/131
f 127/127/127 133/133/133 128/128/128
f 134/134/134 128/128/128 133/133/133
f 128/128/128 134/134/134 129/129/129
f 135/135/135 129/129/129 134/134/134
f 129/129/129 135/135/135 130/130/130
f 136/136/136 130/130/130 135/135/135
f 130/130/130 136/136/136 131/131/131
f 137/137/137 131/131/131 136/136/136
f 131/131/131 137/137/137 132/132/132
f 138/138/138 132/132/132 137/137/137
f 133/133/133 139/139/139 134/134/134
f 140/140/140 134/134/134 139/139/139
f 134/134/134 140/140/140 135/135/135
f 141/141/141 135/135/135 140/140/140
f 135/135/135 141/141/141 136/136/136
f 142/142/142 136/136/136 141/141/141
f 136/136/136 142/142/142 137/137/137
f 143/143/143 137/137/137 142/142/142
f 137/137/137 143/143/143 138/138/138
f 144/144/144 138/138/138 143/143/143
f 139/139/139 145/145/145 140/140/140
f 146/146/146 140/140/140 145/145/145
f 140/140/140 146/146/146 141/141/141
f 147/147/147 141/141/141 146/146/146
f 141/141/141 147/147/147 142/142/142
f 148/148/148 142/142/142 147/147/147
f 142/142/142 148/148/148 143/143/143
f 149/149/149 143/143/143 148/148/148
f 143/143/143 149/149/149 144/144/144
f 150/150/150 144/144/144 149/149/149
