o shape_078
v 0 0 0
v 0 0 1
v 0 0.20000000298023224 1
v 0 0.4000000059604645 0.6000000238418579
v 0 0.8999999761581421 0.6000000238418579
v 0 1.100000023841858 1
v 0 1.2999999523162842 1
v 0 1.2999999523162842 0
v 0 0 0
v 0.258819043636322 0 0.9659258127212524
v 0.258819043636322 0.20000000298023224 0.9659258127212524
v 0.15529142320156097 0.4000000059604645 0.5795555114746094
v 0.15529142320156097 0.8999999761581421 0.5795555114746094
v 0.258819043636322 1.100000023841858 0.9659258127212524
v 0.258819043636322 1.2999999523162842 0.9659258127212524
v 0 1.2999999523162842 0
v 0 0 0
v 0.5 0 0.8660253882408142
v 0.5 0.20000000298023224 0.8660253882408142
v 0.30000001192092896 0.4000000059604645 0.5196152329444885
v 0.30000001192092896 0.8999999761581421 0.5196152329444885
v 0.5 1.100000023841858 0.8660253882408142
v 0.5 1.2999999523162842 0.8660253882408142
v 0 1.2999999523162842 0
v 0 0 0
v 0.7071067690849304 0 0.7071067690849304
v 0.7071067690849304 0.20000000298023224 0.7071067690849304
v 0.4242640733718872 0.4000000059604645 0.4242640733718872
v 0.4242640733718872 0.8999999761581421 0.4242640733718872
v 0.7071067690849304 1.100000023841858 0.7071067690849304
v 0.7071067690849304 1.2999999523162842 0.7071067690849304
v 0 1.2999999523162842 0
v 0 0 0
v 0.8660253882408142 0 0.5
v 0.8660253882408142 0.20000000298023224 0.5
v 0.5196152329444885 0.4000000059604645 0.30000001192092896
v 0.5196152329444885 0.8999999761581421 0.30000001192092896
v 0.8660253882408142 1.100000023841858 0.5
v 0.8660253882408142 1.2999999523162842 0.5
v 0 1.2999999523162842 0
v 0 0 0
v 0.9659258127212524 0 0.258819043636322
v 0.9659258127212524 0.20000000298023224 0.258819043636322
v 0.5795555114746094 0.4000000059604645 0.15529142320156097
v 0.5795555114746094 0.8999999761581421 0.15529142320156097
v 0.9659258127212524 1.100000023841858 0.258819043636322
v 0.9659258127212524 1.2999999523162842 0.258819043636322
v 0 1.2999999523162842 0
v 0 0 0
v 1 0 6.123234262925839e-17
v 1 0.20000000298023224 6.123234262925839e-17
v 0.6000000238418579 0.4000000059604645 3.6739405577555036e-17
v 0.6000000238418579 0.8999999761581421 3.6739405577555036e-17
v 1 1.100000023841858 6.123234262925839e-17
v 1 1.2999999523162842 6.123234262925839e-17
v 0 1.2999999523162842 0
v 0 0 0
v 0.9659258127212524 0 -0.258819043636322
v 0.9659258127212524 0.20000000298023224 -0.258819043636322
v 0.5795555114746094 0.4000000059604645 -0.15529142320156097
v 0.5795555114746094 0.8999999761581421 -0.15529142320156097
v 0.9659258127212524 1.100000023841858 -0.258819043636322
v 0.9659258127212524 1.2999999523162842 -0.258819043636322
v 0 1.2999999523162842 0
v 0 0 0
v 0.8660253882408142 0 -0.5
v 0.8660253882408142 0.20000000298023224 -0.5
v 0.5196152329444885 0.4000000059604645 -0.30000001192092896
v 0.5196152329444885 0.8999999761581421 -0.30000001192092896
v 0.8660253882408142 1.100000023841858 -0.5
v 0.8660253882408142 1.2999999523162842 -0.5
v 0 1.2999999523162842 0
v 0 0 0
v 0.7071067690849304 0 -0.7071067690849304
v 0.7071067690849304 0.20000000298023224 -0.7071067690849304
v 0.4242640733718872 0.4000000059604645 -0.4242640733718872
v 0.4242640733718872 0.8999999761581421 -0.4242640733718872
v 0.7071067690849304 1.100000023841858 -0.7071067690849304
v 0.7071067690849304 1.2999999523162842 -0.7071067690849304
v 0 1.2999999523162842 0
v 0 0 0
v 0.5 0 -0.8660253882408142
v 0.5 0.20000000298023224 -0.8660253882408142
v 0.30000001192092896 0.4000000059604645 -0.5196152329444885
v 0.30000001192092896 0.8999999761581421 -0.5196152329444885
v 0.5 1.100000023841858 -0.8660253882408142
v 0.5 1.2999999523162842 -0.8660253882408142
v 0 1.2999999523162842 0
v 0 0 0
v 0.258819043636322 0 -0.9659258127212524
v 0.258819043636322 0.20000000298023224 -0.9659258127212524
v 0.15529142320156097 0.4000000059604645 -0.5795555114746094
v 0.15529142320156097 0.8999999761581421 -0.5795555114746094
v 0.258819043636322 1.100000023841858 -0.9659258127212524
v 0.258819043636322 1.2999999523162842 -0.9659258127212524
v 0 1.2999999523162842 0
v 0 0 0
v 1.2246468525851679e-16 0 -1
v 1.2246468525851679e-16 0.20000000298023224 -1
v 7.347881115511007e-17 0.4000000059604645 -0.6000000238418579
v 7.347881115511007e-17 0.8999999761581421 -0.6000000238418579
v 1.2246468525851679e-16 1.100000023841858 -1
v 1.2246468525851679e-16 1.2999999523162842 -1
v 0 1.2999999523162842 0
v 0 0 0
v -0.258819043636322 0 -0.9659258127212524
v -0.258819043636322 0.20000000298023224 -0.9659258127212524
v -0.15529142320156097 0.4000000059604645 -0.5795555114746094
v -0.15529142320156097 0.8999999761581421 -0.5795555114746094
v -0.258819043636322 1.100000023841858 -0.9659258127212524
v -0.258819043636322 1.2999999523162842 -0.9659258127212524
v 0 1.2999999523162842 0
v 0 0 0
v -0.5 0 -0.8660253882408142
v -0.5 0.20000000298023224 -0.8660253882408142
v -0.30000001192092896 0.4000000059604645 -0.5196152329444885
v -0.30000001192092896 0.8999999761581421 -0.5196152329444885
v -0.5 1.100000023841858 -0.8660253882408142
v -0.5 1.2999999523162842 -0.8660253882408142
v 0 1.2999999523162842 0
v 0 0 0
v -0.7071067690849304 0 -0.7071067690849304
v -0.7071067690849304 0.20000000298023224 -0.7071067690849304
v -0.4242640733718872 0.4000000059604645 -0.4242640733718872
v -0.4242640733718872 0.8999999761581421 -0.4242640733718872
v -0.7071067690849304 1.100000023841858 -0.7071067690849304
v -0.7071067690849304 1.2999999523162842 -0.7071067690849304
v 0 1.2999999523162842 0
v 0 0 0
v -0.8660253882408142 0 -0.5
v -0.8660253882408142 0.20000000298023224 -0.5
v -0.5196152329444885 0.4000000059604645 -0.30000001192092896
v -0.5196152329444885 0.8999999761581421 -0.30000001192092896
v -0.8660253882408142 1.100000023841858 -0.5
v -0.8660253882408142 1.2999999523162842 -0.5
v 0 1.2999999523162842 0
v 0 0 0
v -0.9659258127212524 0 -0.258819043636322
v -0.9659258127212524 0.20000000298023224 -0.258819043636322
v -0.5795555114746094 0.4000000059604645 -0.15529142320156097
v -0.5795555114746094 0.8999999761581421 -0.15529142320156097
v -0.9659258127212524 1.100000023841858 -0.258819043636322
v -0.9659258127212524 1.2999999523162842 -0.258819043636322
v 0 1.2999999523162842 0
v 0 0 0
v -1 0 -1.8369701465288538e-16
v -1 0.20000000298023224 -1.8369701465288538e-16
v -0.6000000238418579 0.4000000059604645 -1.1021821011522021e-16
v -0.6000000238418579 0.8999999761581421 -1.1021821011522021e-16
v -1 1.100000023841858 -1.8369701465288538e-16
v -1 1.2999999523162842 -1.8369701465288538e-16
v 0 1.2999999523162842 0
v 0 0 0
v -0.9659258127212524 0 0.258819043636322
v -0.9659258127212524 0.20000000298023224 0.258819043636322
v -0.5795555114746094 0.4000000059604645 0.15529142320156097
v -0.5795555114746094 0.8999999761581421 0.15529142320156097
v -0.9659258127212524 1.100000023841858 0.258819043636322
v -0.9659258127212524 1.2999999523162842 0.258819043636322
v 0 1.2999999523162842 0
v 0 0 0
v -0.8660253882408142 0 0.5
v -0.8660253882408142 0.20000000298023224 0.5
v -0.5196152329444885 0.4000000059604645 0.30000001192092896
v -0.5196152329444885 0.8999999761581421 0.30000001192092896
v -0.8660253882408142 1.100000023841858 0.5
v -0.8660253882408142 1.2999999523162842 0.5
v 0 1.2999999523162842 0
v 0 0 0
v -0.7071067690849304 0 0.7071067690849304
v -0.7071067690849304 0.20000000298023224 0.7071067690849304
v -0.4242640733718872 0.4000000059604645 0.4242640733718872
v -0.4242640733718872 0.8999999761581421 0.4242640733718872
v -0.7071067690849304 1.100000023841858 0.7071067690849304
v -0.7071067690849304 1.2999999523162842 0.7071067690849304
v 0 1.2999999523162842 0
v 0 0 0
v -0.5 0 0.8660253882408142
v -0.5 0.20000000298023224 0.8660253882408142
v -0.30000001192092896 0.4000000059604645 0.5196152329444885
v -0.30000001192092896 0.8999999761581421 0.5196152329444885
v -0.5 1.100000023841858 0.8660253882408142
v -0.5 1.2999999523162842 0.8660253882408142
v 0 1.2999999523162842 0
v 0 0 0
v -0.258819043636322 0 0.9659258127212524
v -0.258819043636322 0.20000000298023224 0.9659258127212524
v -0.15529142320156097 0.4000000059604645 0.5795555114746094
v -0.15529142320156097 0.8999999761581421 0.5795555114746094
v -0.258819043636322 1.100000023841858 0.9659258127212524
v -0.258819043636322 1.2999999523162842 0.9659258127212524
v 0 1.2999999523162842 0
v 0 0 0
v -2.4492937051703357e-16 0 1
v -2.4492937051703357e-16 0.20000000298023224 1
v -1.4695762231022014e-16 0.4000000059604645 0.6000000238418579
v -1.4695762231022014e-16 0.8999999761581421 0.6000000238418579
v -2.4492937051703357e-16 1.100000023841858 1
v -2.4492937051703357e-16 1.2999999523162842 1
v 0 1.2999999523162842 0
vt 0 0
vt 0 0.1428571492433548
vt 0 0.2857142984867096
vt 0 0.4285714328289032
vt 0 0.5714285969734192
vt 0 0.7142857313156128
vt 0 0.8571428656578064
vt 0 1
vt 0.0416666679084301 0
vt 0.0416666679084301 0.1428571492433548
vt 0.0416666679084301 0.2857142984867096
vt 0.0416666679084301 0.4285714328289032
vt 0.0416666679084301 0.5714285969734192
vt 0.0416666679084301 0.7142857313156128
vt 0.0416666679084301 0.8571428656578064
vt 0.0416666679084301 1
vt 0.0833333358168602 0
vt 0.0833333358168602 0.1428571492433548
vt 0.0833333358168602 0.2857142984867096
vt 0.0833333358168602 0.4285714328289032
vt 0.0833333358168602 0.5714285969734192
vt 0.0833333358168602 0.7142857313156128
vt 0.0833333358168602 0.8571428656578064
vt 0.0833333358168602 1
vt 0.125 0
vt 0.125 0.1428571492433548
vt 0.125 0.2857142984867096
vt 0.125 0.4285714328289032
vt 0.125 0.5714285969734192
vt 0.125 0.7142857313156128
vt 0.125 0.8571428656578064
vt 0.125 1
vt 0.1666666716337204 0
vt 0.1666666716337204 0.1428571492433548
vt 0.1666666716337204 0.2857142984867096
vt 0.1666666716337204 0.4285714328289032
vt 0.1666666716337204 0.5714285969734192
vt 0.1666666716337204 0.7142857313156128
vt 0.1666666716337204 0.8571428656578064
vt 0.1666666716337204 1
vt 0.2083333283662796 0
vt 0.2083333283662796 0.1428571492433548
vt 0.2083333283662796 0.2857142984867096
vt 0.2083333283662796 0.4285714328289032
vt 0.2083333283662796 0.5714285969734192
vt 0.2083333283662796 0.7142857313156128
vt 0.2083333283662796 0.8571428656578064
vt 0.2083333283662796 1
vt 0.25 0
vt 0.25 0.1428571492433548
vt 0.25 0.2857142984867096
vt 0.25 0.4285714328289032
vt 0.25 0.5714285969734192
vt 0.25 0.7142857313156128
vt 0.25 0.8571428656578064
vt 0.25 1
vt 0.2916666567325592 0
vt 0.2916666567325592 0.1428571492433548
vt 0.2916666567325592 0.2857142984867096
vt 0.2916666567325592 0.4285714328289032
vt 0.2916666567325592 0.5714285969734192
vt 0.2916666567325592 0.7142857313156128
vt 0.2916666567325592 0.8571428656578064
vt 0.2916666567325592 1
vt 0.3333333432674408 0
vt 0.3333333432674408 0.1428571492433548
vt 0.3333333432674408 0.2857142984867096
vt 0.3333333432674408 0.4285714328289032
vt 0.3333333432674408 0.5714285969734192
vt 0.3333333432674408 0.7142857313156128
vt 0.3333333432674408 0.8571428656578064
vt 0.3333333432674408 1
vt 0.375 0
vt 0.375 0.1428571492433548
vt 0.375 0.2857142984867096
vt 0.375 0.4285714328289032
vt 0.375 0.5714285969734192
vt 0.375 0.7142857313156128
vt 0.375 0.8571428656578064
vt 0.375 1
vt 0.4166666567325592 0
vt 0.4166666567325592 0.1428571492433548
vt 0.4166666567325592 0.2857142984867096
vt 0.4166666567325592 0.4285714328289032
vt 0.4166666567325592 0.5714285969734192
vt 0.4166666567325592 0.7142857313156128
vt 0.4166666567325592 0.8571428656578064
vt 0.4166666567325592 1
vt 0.4583333432674408 0
vt 0.4583333432674408 0.1428571492433548
vt 0.4583333432674408 0.2857142984867096
vt 0.4583333432674408 0.4285714328289032
vt 0.4583333432674408 0.5714285969734192
vt 0.4583333432674408 0.7142857313156128
vt 0.4583333432674408 0.8571428656578064
vt 0.4583333432674408 1
vt 0.5 0
vt 0.5 0.1428571492433548
vt 0.5 0.2857142984867096
vt 0.5 0.4285714328289032
vt 0.5 0.5714285969734192
vt 0.5 0.7142857313156128
vt 0.5 0.8571428656578064
vt 0.5 1
vt 0.5416666865348816 0
vt 0.5416666865348816 0.1428571492433548
vt 0.5416666865348816 0.2857142984867096
vt 0.5416666865348816 0.4285714328289032
vt 0.5416666865348816 0.5714285969734192
vt 0.5416666865348816 0.7142857313156128
vt 0.5416666865348816 0.8571428656578064
vt 0.5416666865348816 1
vt 0.5833333134651184 0
vt 0.5833333134651184 0.1428571492433548
vt 0.5833333134651184 0.2857142984867096
vt 0.5833333134651184 0.4285714328289032
vt 0.5833333134651184 0.5714285969734192
vt 0.5833333134651184 0.7142857313156128
vt 0.5833333134651184 0.8571428656578064
vt 0.5833333134651184 1
vt 0.625 0
vt 0.625 0.1428571492433548
vt 0.625 0.2857142984867096
vt 0.625 0.4285714328289032
vt 0.625 0.5714285969734192
vt 0.625 0.7142857313156128
vt 0.625 0.8571428656578064
vt 0.625 1
vt 0.6666666865348816 0
vt 0.6666666865348816 0.1428571492433548
vt 0.6666666865348816 0.2857142984867096
vt 0.6666666865348816 0.4285714328289032
vt 0.6666666865348816 0.5714285969734192
vt 0.6666666865348816 0.7142857313156128
vt 0.6666666865348816 0.8571428656578064
vt 0.6666666865348816 1
vt 0.7083333134651184 0
vt 0.7083333134651184 0.1428571492433548
vt 0.7083333134651184 0.2857142984867096
vt 0.7083333134651184 0.4285714328289032
vt 0.7083333134651184 0.5714285969734192
vt 0.7083333134651184 0.7142857313156128
vt 0.7083333134651184 0.8571428656578064
vt 0.7083333134651184 1
vt 0.75 0
vt 0.75 0.1428571492433548
vt 0.75 0.2857142984867096
vt 0.75 0.4285714328289032
vt 0.75 0.5714285969734192
vt 0.75 0.7142857313156128
vt 0.75 0.8571428656578064
vt 0.75 1
vt 0.7916666865348816 0
vt 0.7916666865348816 0.1428571492433548
vt 0.7916666865348816 0.2857142984867096
vt 0.7916666865348816 0.4285714328289032
vt 0.7916666865348816 0.5714285969734192
vt 0.7916666865348816 0.7142857313156128
vt 0.7916666865348816 0.8571428656578064
vt 0.7916666865348816 1
vt 0.8333333134651184 0
vt 0.8333333134651184 0.1428571492433548
vt 0.8333333134651184 0.2857142984867096
vt 0.8333333134651184 0.4285714328289032
vt 0.8333333134651184 0.5714285969734192
vt 0.8333333134651184 0.7142857313156128
vt 0.8333333134651184 0.8571428656578064
vt 0.8333333134651184 1
vt 0.875 0
vt 0.875 0.1428571492433548
vt 0.875 0.2857142984867096
vt 0.875 0.4285714328289032
vt 0.875 0.5714285969734192
vt 0.875 0.7142857313156128
vt 0.875 0.8571428656578064
vt 0.875 1
vt 0.9166666865348816 0
vt 0.9166666865348816 0.1428571492433548
vt 0.9166666865348816 0.2857142984867096
vt 0.9166666865348816 0.4285714328289032
vt 0.9166666865348816 0.5714285969734192
vt 0.9166666865348816 0.7142857313156128
vt 0.9166666865348816 0.8571428656578064
vt 0.9166666865348816 1
vt 0.9583333134651184 0
vt 0.9583333134651184 0.1428571492433548
vt 0.9583333134651184 0.2857142984867096
vt 0.9583333134651184 0.4285714328289032
vt 0.9583333134651184 0.5714285969734192
vt 0.9583333134651184 0.7142857313156128
vt 0.9583333134651184 0.8571428656578064
vt 0.9583333134651184 1
vt 1 0
vt 1 0.1428571492433548
vt 1 0.2857142984867096
vt 1 0.4285714328289032
vt 1 0.5714285969734192
vt 1 0.7142857313156128
vt 1 0.8571428656578064
vt 1 1
vn 0 0 0
vn 0.025810588159252783 -0.980253994770082 0.19605080789471313
vn 0.10889019692510199 0.5514017876470343 0.8271027708775176
vn 0.09122129529298294 0.7152456044824352 0.6928942203205525
vn 0.12393368164584008 -0.3137898179775276 0.94136942413026
vn 0.08273451072693057 -0.7734531799890063 0.6284307273675193
vn 0.04883617537190286 0.9273688796898193 0.3709474207457092
vn 0 1 0
vn 0 -1 0
vn 0.062185823783102986 -0.9577501395524416 0.28079813658159386
vn 0.1963124717265669 0.6804349405205236 0.7060238701088212
vn 0.20839942484224885 0.5489104256469892 0.8094856541912655
vn 0.2242637715841504 -0.5489103774901763 0.8052348466369574
vn 0.1830003908084597 -0.6804349610120579 0.7095908122266453
vn 0.08654455328619721 0.9577501674156902 0.2742711379487643
vn 0 1 0
vn 0 -1 0
vn 0.13274279217739218 -0.9577501402458527 0.2551352974090397
vn 0.37235570168748566 0.6804349461712434 0.6311572826560407
vn 0.41080865295768293 0.548910379835085 0.7279654150881049
vn 0.42503219954363813 -0.5489103808491571 0.7197534460821499
vn 0.36042037012423733 -0.680434990639527 0.6380481018801754
vn 0.15458220682554835 0.9577501688261552 0.24252619538188996
vn 0 1 0
vn 0 -1 0
vn 0.19425356426233056 -0.9577501435011453 0.2120853964678292
vn 0.5230235023853326 0.6804349037788316 0.5132784406850457
vn 0.5852220035922686 0.5489103772976642 0.5968354917449084
vn 0.5968354917449084 -0.5489103772976642 0.5852220035922686
vn 0.5132783759664499 -0.680434956604097 0.5230234971742898
vn 0.21208534199982476 0.9577501666975539 0.19425350936244473
vn 0 1 0
vn 0 -1 0
vn 0.24252626327074922 -0.9577501426954441 0.15458226221266017
vn 0.6380481752671717 0.6804348861281789 0.36042043751425173
vn 0.7197534225335384 0.5489104224947651 0.42503218563760103
vn 0.727965438905392 -0.5489103381894729 0.4108086663983595
vn 0.6311572896600337 -0.680434953722074 0.37235567601721803
vn 0.2551352153359175 0.9577501677763177 0.13274275128959026
vn 0 1 0
vn 0 -1 0
vn 0.27427121992271386 -0.9577501414597188 0.0865445807430771
vn 0.709590810291649 0.6804349591565673 0.18300040521059413
vn 0.8052348466369574 0.5489103774901763 0.2242637715841504
vn 0.8094856831894729 -0.5489103857059638 0.20839941740658083
vn 0.7060238721741412 -0.6804349425109887 0.19631245739967534
vn 0.28079805454939666 0.9577501647064156 0.06218580678987513
vn 0 1 0
vn 0 -1 0
vn 0.2873250258922796 -0.9577501459122438 0.012609024588639411
vn 0.7327760998990652 0.6804349371338511 -0.006890844967604213
vn 0.8358408727699952 0.5489103740898464 0.008211980494243907
vn 0.8358408727955652 -0.5489103741066387 -0.008211976769204864
vn 0.732776099941389 -0.6804349371731518 0.006890836586099108
vn 0.28732497122183087 0.9577501623595692 -0.01260902107988226
vn 0 1 0
vn 0 -1 0
vn 0.28079813658159386 -0.9577501395524416 -0.062185823783102986
vn 0.7060238701088212 0.6804349405205236 -0.1963124717265669
vn 0.8094856541912655 0.5489104256469892 -0.20839942484224885
vn 0.8052348466369574 -0.5489103774901763 -0.2242637715841504
vn 0.7095908122266453 -0.6804349610120579 -0.1830003908084597
vn 0.2742711379487643 0.9577501674156902 -0.08654455328619721
vn 0 1 0
vn 0 -1 0
vn 0.2551352974090397 -0.9577501402458527 -0.13274279217739218
vn 0.6311572826560407 0.6804349461712434 -0.37235570168748566
vn 0.7279654150881049 0.548910379835085 -0.41080865295768293
vn 0.7197534460821499 -0.5489103808491571 -0.42503219954363813
vn 0.6380481018801754 -0.680434990639527 -0.36042037012423733
vn 0.24252619538188996 0.9577501688261552 -0.15458220682554835
vn 0 1 0
vn 0 -1 0
vn 0.2120853964678292 -0.9577501435011453 -0.19425356426233056
vn 0.5132784406850457 0.6804349037788316 -0.5230235023853326
vn 0.5968354917449084 0.5489103772976642 -0.5852220035922686
vn 0.5852220035922686 -0.5489103772976642 -0.5968354917449084
vn 0.5230234971742898 -0.680434956604097 -0.5132783759664499
vn 0.19425350936244473 0.9577501666975539 -0.21208534199982476
vn 0 1 0
vn 0 -1 0
vn 0.15458226221266017 -0.9577501426954441 -0.24252626327074922
vn 0.36042043751425173 0.6804348861281789 -0.6380481752671717
vn 0.42503218563760103 0.5489104224947651 -0.7197534225335384
vn 0.4108086663983595 -0.5489103381894729 -0.727965438905392
vn 0.37235567601721803 -0.680434953722074 -0.6311572896600337
vn 0.13274275128959026 0.9577501677763177 -0.2551352153359175
vn 0 1 0
vn 0 -1 0
vn 0.0865445807430771 -0.9577501414597188 -0.27427121992271386
vn 0.18300040521059413 0.6804349591565673 -0.709590810291649
vn 0.2242637715841504 0.5489103774901763 -0.8052348466369574
vn 0.20839941740658083 -0.5489103857059638 -0.8094856831894729
vn 0.19631245739967534 -0.6804349425109887 -0.7060238721741412
vn 0.06218580678987513 0.9577501647064156 -0.28079805454939666
vn 0 1 0
vn 0 -1 0
vn 0.012609024588639411 -0.9577501459122438 -0.2873250258922796
vn -0.006890844967604213 0.6804349371338511 -0.7327760998990652
vn 0.008211980494243905 0.5489103740898463 -0.835840872769995
vn -0.008211976769204864 -0.5489103741066387 -0.8358408727955652
vn 0.006890836586099108 -0.6804349371731518 -0.732776099941389
vn -0.01260902107988226 0.9577501623595692 -0.28732497122183087
vn 0 1 0
vn 0 -1 0
vn -0.062185823783102986 -0.9577501395524416 -0.28079813658159386
vn -0.1963124717265669 0.6804349405205236 -0.7060238701088212
vn -0.20839942484224885 0.5489104256469892 -0.8094856541912655
vn -0.2242637715841504 -0.5489103774901763 -0.8052348466369574
vn -0.1830003908084597 -0.6804349610120579 -0.7095908122266453
vn -0.08654455328619721 0.9577501674156902 -0.2742711379487643
vn 0 1 0
vn 0 -1 0
vn -0.13274279217739218 -0.9577501402458527 -0.2551352974090397
vn -0.37235570168748566 0.6804349461712434 -0.6311572826560407
vn -0.41080865295768293 0.548910379835085 -0.7279654150881049
vn -0.42503219954363813 -0.5489103808491571 -0.7197534460821499
vn -0.36042037012423733 -0.680434990639527 -0.6380481018801754
vn -0.15458220682554835 0.9577501688261552 -0.24252619538188996
vn 0 1 0
vn 0 -1 0
vn -0.19425356426233056 -0.9577501435011453 -0.2120853964678292
vn -0.5230235023853326 0.6804349037788316 -0.5132784406850457
vn -0.5852220035922686 0.5489103772976642 -0.5968354917449084
vn -0.5968354917449084 -0.5489103772976642 -0.5852220035922686
vn -0.5132783759664499 -0.680434956604097 -0.5230234971742898
vn -0.21208534199982476 0.9577501666975539 -0.19425350936244473
vn 0 1 0
vn 0 -1 0
vn -0.24252626327074922 -0.9577501426954441 -0.15458226221266017
vn -0.6380481752671717 0.6804348861281789 -0.36042043751425173
vn -0.7197534225335384 0.5489104224947651 -0.42503218563760103
vn -0.727965438905392 -0.5489103381894729 -0.4108086663983595
vn -0.6311572896600337 -0.680434953722074 -0.37235567601721803
vn -0.2551352153359175 0.9577501677763177 -0.13274275128959026
vn 0 1 0
vn 0 -1 0
vn -0.27427121992271386 -0.9577501414597188 -0.0865445807430771
vn -0.709590810291649 0.6804349591565673 -0.18300040521059413
vn -0.8052348466369574 0.5489103774901763 -0.2242637715841504
vn -0.8094856831894729 -0.5489103857059638 -0.20839941740658083
vn -0.7060238721741412 -0.6804349425109887 -0.19631245739967534
vn -0.28079805454939666 0.9577501647064156 -0.06218580678987513
vn 0 1 0
vn 0 -1 0
vn -0.2873250258922796 -0.9577501459122438 -0.012609024588639411
vn -0.7327760998990652 0.6804349371338511 0.006890844967604213
vn -0.8358408727699952 0.5489103740898464 -0.008211980494243907
vn -0.8358408727955652 -0.5489103741066387 0.008211976769204864
vn -0.732776099941389 -0.6804349371731518 -0.006890836586099108
vn -0.28732497122183087 0.9577501623595692 0.01260902107988226
vn 0 1 0
vn 0 -1 0
vn -0.28079813658159386 -0.9577501395524416 0.062185823783102986
vn -0.7060238701088212 0.6804349405205236 0.1963124717265669
vn -0.8094856541912655 0.5489104256469892 0.20839942484224885
vn -0.8052348466369574 -0.5489103774901763 0.2242637715841504
vn -0.7095908122266453 -0.6804349610120579 0.1830003908084597
vn -0.2742711379487643 0.9577501674156902 0.08654455328619721
vn 0 1 0
vn 0 -1 0
vn -0.2551352974090397 -0.9577501402458527 0.13274279217739218
vn -0.6311572826560407 0.6804349461712434 0.37235570168748566
vn -0.7279654150881049 0.548910379835085 0.41080865295768293
vn -0.7197534460821499 -0.5489103808491571 0.42503219954363813
vn -0.6380481018801754 -0.680434990639527 0.36042037012423733
vn -0.24252619538188996 0.9577501688261552 0.15458220682554835
vn 0 1 0
vn 0 -1 0
vn -0.2120853964678292 -0.9577501435011453 0.19425356426233056
vn -0.5132784406850457 0.6804349037788316 0.5230235023853326
vn -0.5968354917449084 0.5489103772976642 0.5852220035922686
vn -0.5852220035922686 -0.5489103772976642 0.5968354917449084
vn -0.5230234971742898 -0.680434956604097 0.5132783759664499
vn -0.19425350936244473 0.9577501666975539 0.21208534199982476
vn 0 1 0
vn 0 -1 0
vn -0.15458226221266017 -0.9577501426954441 0.24252626327074922
vn -0.36042043751425173 0.6804348861281789 0.6380481752671717
vn -0.42503218563760103 0.5489104224947651 0.7197534225335384
vn -0.4108086663983595 -0.5489103381894729 0.727965438905392
vn -0.37235567601721803 -0.680434953722074 0.6311572896600337
vn -0.13274275128959026 0.9577501677763177 0.2551352153359175
vn 0 1 0
vn 0 -1 0
vn -0.0865445807430771 -0.9577501414597188 0.27427121992271386
vn -0.18300040521059413 0.6804349591565673 0.709590810291649
vn -0.2242637715841504 0.5489103774901763 0.8052348466369574
vn -0.20839941740658083 -0.5489103857059638 0.8094856831894729
vn -0.19631245739967534 -0.6804349425109887 0.7060238721741412
vn -0.06218580678987513 0.9577501647064156 0.28079805454939666
vn 0 1 0
vn 0 -1 0
vn -0.04883619077741442 -0.9273688296624736 0.37094754378591854
vn -0.08273451072693057 0.7734531799890063 0.6284307273675193
vn -0.12393368164584008 0.3137898179775276 0.94136942413026
vn -0.09122129529298294 -0.7152456044824352 0.6928942203205525
vn -0.10889017662778498 -0.5514018576549446 0.8271027268777718
vn -0.02581057922924446 0.9802540093242079 0.19605073629973133
vn 0 0 0
f 1/1/1 9/9/9 2/2/2
f 10/10/10 2/2/2 9/9/9
f 2/2/2 10/10/10 3/3/3
f 11/11/11 3/3/3 10/10/10
f 3/3/3 11/11/11 4/4/4
f 12/12/12 4/4/4 11/11/11
f 4/4/4 12/12/12 5/5/5
f 13/13/13 5/5/5 12/12/12
f 5/5/5 13/13/13 6/6/6
f 14/14/14 6/6/6 13/13/13
f 6/6/6 14/14/14 7/7/7
f 15/15/15 7/7/7 14/14/14
f 7/7/7 15/15/15 8/8/8
f 16/16/16 8/8/8 15/15/15
f 9/9/9 17/17/17 10/10/10
f 18/18/18 10/10/10 17/17/17
f 10/10/10 18/18/18 11/11/11
f 19/19/19 11/11/11 18/18/18
f 11/11/11 19/19/19 12/12/12
f 20/20/20 12/12/12 19/19/19
f 12/12/12 20/20/20 13/13/13
f 21/21/21 13/13/13 20/20/20
f 13/13/13 21/21/21 14/14/14
f 22/22/22 14/14/14 21/21/21
f 14/14/14 22/22/22 15/15/15
f 23/23/23 15/15/15 22/22/22
f 15/15/15 23/23/23 16/16/16
f 24/24/24 16/16/16 23/23/23
f 17/17/17 25/25/25 18/18/18
f 26/26/26 18/18/18 25/25/25
f 18/18/18 26/26/26 19/19/19
f 27/27/27 19/19/19 26/26/26
f 19/19/19 27/27/27 20/20/20
f 28/28/28 20/20/20 27/27/27
f 20/20/20 28/28/28 21/21/21
f 29/29/29 21/21/21 28/28/28
f 21/21/21 29/29/29 22/22/22
f 30/30/30 22/22/22 29/29/29
f 22/22/22 30/30/30 23/23/23
f 31/31/31 23/23/23 30/30/30
f 23/23/23 31/31/31 24/24/24
f 32/32/32 24/24/24 31/31/31
f 25/25/25 33/33/33 26/26/26
f 34/34/34 26/26/26 33/33/33
f 26/26/26 34/34/34 27/27/27
f 35/35/35 27/27/27 34/34/34
f 27/27/27 35/35/35 28/28/28
f 36/36/36 28/28/28 35/35/35
f 28/28/28 36/36/36 29/29/29
f 37/37/37 29/29/29 36/36/36
f 29/29/29 37/37/37 30/30/30
f 38/38/38 30/30/30 37/37/37
f 30/30/30 38/38/38 31/31/31
f 39/39/39 31/31/31 38/38/38
f 31/31/31 39/39/39 32/32/32
f 40/40/40 32/32/32 39/39/39
f 33/33/33 41/41/41 34/34/34
f 42/42/42 34/34/34 41/41/41
f 34/34/34 42/42/42 35/35/35
f 43/43/43 35/35/35 42/42/42
f 35/35/35 43/43/43 36/36/36
f 44/44/44 36/36/36 43/43/43
f 36/36/36 44/44/44 37/37/37
f 45/45/45 37/37/37 44/44/44
f 37/37/37 45/45/45 38/38/38
f 46/46/46 38/38/38 45/45/45
f 38/38/38 46/46/46 39/39/39
f 47/47/47 39/39/39 46/46/46
f 39/39/39 47/47/47 40/40/40
f 48/48/48 40/40/40 47/47/47
f 41/41/41 49/49/49 42/42/42
f 50/50/50 42/42/42 49/49/49
f 42/42/42 50/50/50 43/43/43
f 51/51/51 43/43/43 50/50/50
f 43/43/43 51/51/51 44/44/44
f 52/52/52 44/44/44 51/51/51
f 44/44/44 52/52/52 45/45/45
f 53/53/53 45/45/45 52/52/52
f 45/45/45 53/53/53 46/46/46
f 54/54/54 46/46/46 53/53/53
f 46/46/46 54/54/54 47/47/47
f 55/55/55 47/47/47 54/54/54
f 47/47/47 55/55/55 48/48/48
f 56/56/56 48/48/48 55/55/55
f 49/49/49 57/57/57 50/50/50
f 58/58/58 50/50/50 57/57/57
f 50/50/50 58/58/58 51/51/51
f 59/59/59 51/51/51 58/58/58
f 51/51/51 59/59/59 52/52/52
f 60/60/60 52/52/52 59/59/59
f 52/52/52 60/60/60 53/53/53
f 61/61/61 53/53/53 60/60/60
f 53/53/53 61/61/61 54/54/54
f 62/62/62 54/54/54 61/61/61
f 54/54/54 62/62/62 55/55/55
f 63/63/63 55/55/55 62/62/62
f 55/55/55 63/63/63 56/56/56
f 64/64/64 56/56/56 63/63/63
f 57/57/57 65/65/65 58/58/58
f 66/66/66 58/58/58 65/65/65
f 58/58/58 66/66/66 59/59/59
f 67/67/67 59/59/59 66/66/66
f 59/59/59 67/67/67 60/60/60
f 68/68/68 60/60/60 67/67/67
f 60/60/60 68/68/68 61/61/61
f 69/69/69 61/61/61 68/68/68
f 61/61/61 69/69/69 62/62/62
f 70/70/70 62/62/62 69/69/69
f 62/62/62 70/70/70 63/63/63
f 71/71/71 63/63/63 70/70/70
f 63/63/63 71/71/71 64/64/64
f 72/72/72 64/64/64 71/71/71
f 65/65/65 73/73/73 66/66/66
f 74/74/74 66/66/66 73/73/73
f 66/66/66 74/74/74 67/67/67
f 75/75/75 67/67/67 74/74/74
f 67/67/67 75/75/75 68/68/68
f 76/76/76 68/68/68 75/75/75
f 68/68/68 76/76/76 69/69/69
f 77/77/77 69/69/69 76/76/76
f 69/69/69 77/77/77 70/70/70
f 78/78/78 70/70/70 77/77/77
f 70/70/70 78/78/78 71/71/71
f 79/79/79 71/71/71 78/78/78
f 71/71/71 79/79/79 72/72/72
f 80/80/80 72/72/72 79/79/79
f 73/73/73 81/81/81 74/74/74
f 82/82/82 74/74/74 81/81/81
f 74/74/74 82/82/82 75/75/75
f 83/83/83 75/75/75 82/82/82
f 75/75/75 83/83/83 76/76/76
f 84/84/84 76/76/76 83/83/83
f 76/76/76 84/84/84 77/77/77
f 85/85/85 77/77/77 84/84/84
f 77/77/77 85/85/85 78/78/78
f 86/86/86 78/78/78 85/85/85
f 78/78/78 86/86/86 79/79/79
f 87/87/87 79/79/79 86/86/86
f 79/79/79 87/87/87 80/80/80
f 88/88/88 80/80/80 87/87/87
f 81/81/81 89/89/89 82/82/82
f 90/90/90 82/82/82 89/89/89
f 82/82/82 90/90/90 83/83/83
f 91/91/91 83/83/83 90/90/90
f 83/83/83 91/91/91 84/84/84
f 92/92/92 84/84/84 91/91/91
f 84/84/84 92/92/92 85/85/85
f 93/93/93 85/85/85 92/92/92
f 85/85/85 93/93/93 86/86/86
f 94/94/94 86/86/86 93/93/93
f 86/86/86 94/94/94 87/87/87
f 95/95/95 87/87/87 94/94/94
f 87/87/87 95/95/95 88/88/88
f 96/96/96 88/88/88 95/95/95
f 89/89/89 97/97/97 90/90/90
f 98/98/98 90/90/90 97/97/97
f 90/90/90 98/98/98 91/91/91
f 99/99/99 91/91/91 98/98/98
f 91/91/91 99/99/99 92/92/92
f 100/100/100 92/92/92 99/99/99
f 92/92/92 100/100/100 93/93/93
f 101/101/101 93/93/93 100/100/100
f 93/93/93 101/101/101 94/94/94
f 102/102/102 94/94/94 101/101/101
f 94/94/94 102/102/102 95/95/95
f 103/103/103 95/95/95 102/102/102
f 95/95/95 103/103/103 96/96/96
f 104/104/104 96/96/96 103/103/103
f 97/97/97 105/105/105 98/98/98
f 106/106/106 98/98/98 105/105/105
f 98/98/98 106/106/106 99/99/99
f 107/107/107 99/99/99 106/106/106
f 99/99/99 107/107/107 100/100/100
f 108/108/108 100/100/100 107/107/107
f 100/100/100 108/108/108 101/101/101
f 109/109/109 101/101/101 108/108/108
f 101/101/101 109/109/109 102/102/102
f 110/110/110 102/102/102 109/109/109
f 102/102/102 110/110/110 103/103/103
f 111/111/111 103/103/103 110/110/110
f 103/103/103 111/111/111 104/104/104
f 112/112/112 104/104/104 111/111/111
f 105/105/105 113/113/113 106/106/106
f 114/114/114 106/106/106 113/113/113
f 106/106/106 114/114/114 107/107/107
f 115/115/115 107/107/107 114/114/114
f 107/107/107 115/115/115 108/108/108
f 116/116/116 108/108/108 115/115/115
f 108/108/108 116/116/116 109/109/109
f 117/117/117 109/109/109 116/116/116
f 109/109/109 117/117/117 110/110/110
f 118/118/118 110/110/110 117/117/117
f 110/110/110 118/118/118 111/111/111
f 119/119/119 111/111/111 118/118/118
f 111/111/111 119/119/119 112/112/112
f 120/120/120 112/112/112 119/119/119
f 113/113/113 121/121/121 114/114/114
f 122/122/122 114/114/114 121/121/121
f 114/114/114 122/122/122 115/115/115
f 123/123/123 115/115/115 122/122/122
f 115/115/115 123/123/123 116/116/116
f 124/124/124 116/116/116 123/123/123
f 116/116/116 124/124/124 117/117/117
f 125/125/125 117/117/117 124/124/124
f 117/117/117 125/125/125 118/118/118
f 126/126/126 118/118/118 125/125/125
f 118/118/118 126/126/126 119/119/119
f 127/127/127 119/119/119 126/126/126
f 119/119/119 127/127/127 120/120/120
f 128/128/128 120/120/120 127/127/127
f 121/121/121 129/129/129 122/122/122
f 130/130/130 122/122/122 129/129/129
f 122/122/122 130/130/130 123/123/123
f 131/131/131 123/123/123 130/130/130
f 123/123/123 131/131/131 124/124/124
f 132/132/132 124/124/124 131/131/131
f 124/124/124 132/132/132 125/125/125
f 133/133/133 125/125/125 132/132/132
f 125/125/125 133/133/133 126/126/126
f 134/134/134 126/126/126 133/133/133
f 126/126/126 134/134/134 127/127/127
f 135/135/135 127/127/127 134/134/134
f 127/127/127 135/135/135 128/128/128
f 136/136/136 128/128/128 135/135/135
f 129/129/129 137/137/137 130/130/130
f 138/138/138 130/130/130 137/137/137
f 130/130/130 138/138/138 131/131/131
f 139/139/139 131/131/131 138/138/138
f 131/131/131 139/139/139 132/132/132
f 140/140/140 132/132/132 139/139/139
f 132/132/132 140/140/140 133/133/133
f 141/141/141 133/133/133 140/140/140
f 133/133/133 141/141/141 134/134/134
f 142/142/142 134/134/134 141/141/141
f 134/134/134 142/142/142 135/135/135
f 143/143/143 135/135/135 142/142/142
f 135/135/135 143/143/143 136/136/136
f 144/144/144 136/136/136 143/143/143
f 137/137/137 145/145/145 138/138/138
f 146/146/146 138/138/138 145/145/145
f 138/138/138 146/146/146 139/139/139
f 147/147/147 139/139/139 146/146/146
f 139/139/139 147/147/147 140/140/140
f 148/148/148 140/140/140 147/147/147
f 140/140/140 148/148/148 141/141/141
f 149/149/149 141/141/141 148/148/148
f 141/141/141 149/149/149 142/142/142
f 150/150/150 142/142/142 149/149/149
f 142/142/142 150/150/150 143/143/143
f 151/151/151 143/143/143 150/150/150
f 143/143/143 151/151/151 144/144/144
f 152/152/152 144/144/144 151/151/151
f 145/145/145 153/153/153 146/146/146
f 154/154/154 146/146/146 153/153/153
f 146/146/146 154/154/154 147/147/147
f 155/155/155 147/147/147 154/154/154
f 147/147/147 155/155/155 148/148/148
f 156/156/156 148/148/148 155/155/155
f 148/148/148 156/156/156 149/149/149
f 157/157/157 149/149/149 156/156/156
f 149/149/149 157/157/157 150/150/150
f 158/158/158 150/150/150 157/157/157
f 150/150/150 158/158/158 151/151/151
f 159/159/159 151/151/151 158/158/158
f 151/151/151 159/159/159 152/152/152
f 160/160/160 152/152/152 159/159/159
f 153/153/153 161/161/161 154/154/154
f 162/162/162 154/154/154 161/161/161
f 154/154/154 162/162/162 155/155/155
f 163/163/163 155/155/155 162/162/162
f 155/155/155 163/163/163 156/156/156
f 164/164/164 156/156/156 163/163/163
f 156/156/156 164/164/164 157/157/157
f 165/165/165 157/157/157 164/164/164
f 157/157/157 165/165/165 158/158/158
f 166/166/166 158/158/158 165/165/165
f 158/158/158 166/166/166 159/159/159
f 167/167/167 159/159/159 166/166/166
f 159/159/159 167/167/167 160/160/160
f 168/168/168 160/160/160 167/167/167
f 161/161/161 169/169/169 162/162/162
f 170/170/170 162/162/162 169/169/169
f 162/162/162 170/170/170 163/163/163
f 171/171/171 163/163/163 170/170/170
f 163/163/163 171/171/171 164/164/164
f 172/172/172 164/164/164 171/171/171
f 164/164/164 172/172/172 165/165/165
f 173/173/173 165/165/165 172/172/172
f 165/165/165 173/173/173 166/166/166
f 174/174/174 166/166/166 173/173/173
f 166/166/166 174/174/174 167/167/167
f 175/175/175 167/167/167 174/174/174
f 167/167/167 175/175/175 168/168/168
f 176/176/176 168/168/168 175/175/175
f 169/169/169 177/177/177 170/170/170
f 178/178/178 170/170/170 177/177/177
f 170/170/170 178/178/178 171/171/171
f 179/179/179 171/171/171 178/178/178
f 171/171/171 179/179/179 172/172/172
f 180/180/180 172/172/172 179/179/179
f 172/172/172 180/180/180 173/173/173
f 181/181/181 173/173/173 180/180/180
f 173/173/173 181/181/181 174/174/174
f 182/182/182 174/174/174 181/181/181
f 174/174/174 182/182/182 175/175/175
f 183/183/183 175/175/175 182/182/182
f 175/175/175 183/183/183 176/176/176
f 184/184/184 176/176/176 183/183/183
f 177/177/177 185/185/185 178/178/178
f 186/186/186 178/178/178 185/185/185
f 178/178/178 186/186/186 179/179/179
f 187/187/187 179/179/179 186/186/186
f 179/179/179 187/187/187 180/180/180
f 188/188/188 180/180/180 187/187/187
f 180/180/180 188/188/188 181/181/181
f 189/189/189 181/181/181 188/188/188
f 181/181/181 189/189/189 182/182/182
f 190/190/190 182/182/182 189/189/189
f 182/182/182 190/190/190 183/183/183
f 191/191/191 183/183/183 190/190/190
f 183/183/183 191/191/191 184/184/184
f 192/192/192 184/184/184 191/191/191
f 185/185/185 193/193/193 186/186/186
f 194/194/194 186/186/186 193/193/193
f 186/186/186 194/194/194 187/187/187
f 195/195/195 187/187/187 194/194/194
f 187/187/187 195/195/195 188/188/188
f 196/196/196 188/188/188 195/195/195
f 188/188/188 196/196/196 189/189/189
f 197/197/197 189/189/189 196/196/196
f 189/189/189 197/197/197 190/190/190
f 198/198/198 190/190/190 197/197/197
f 190/190/190 198/198/198 191/191/191
f 199/199/199 191/191/191 198/198/198
f 191/191/191 199/199/199 192/192/192
f 200/200/200 192/192/192 199/199/199
