o shape_079
v 0 0 0
v 0 0 0.30000001192092896
v 0 0.30000001192092896 0.30000001192092896
v 0 0.5 0.8999999761581421
v 0 0.75 1
v 0 1 0.8999999761581421
v 0 1.2000000476837158 0.30000001192092896
v 0 1.5 0.30000001192092896
v 0 1.5 0
v 0 0 0
v 0.07764571160078049 0 0.2897777557373047
v 0.07764571160078049 0.30000001192092896 0.2897777557373047
v 0.23293714225292206 0.5 0.8693332672119141
v 0.258819043636322 0.75 0.9659258127212524
v 0.23293714225292206 1 0.8693332672119141
v 0.07764571160078049 1.2000000476837158 0.2897777557373047
v 0.07764571160078049 1.5 0.2897777557373047
v 0 1.5 0
v 0 0 0
v 0.15000000596046448 0 0.25980761647224426
v 0.15000000596046448 0.30000001192092896 0.25980761647224426
v 0.44999998807907104 0.5 0.7794228792190552
v 0.5 0.75 0.8660253882408142
v 0.44999998807907104 1 0.7794228792190552
v 0.15000000596046448 1.2000000476837158 0.25980761647224426
v 0.15000000596046448 1.5 0.25980761647224426
v 0 1.5 0
v 0 0 0
v 0.2121320366859436 0 0.2121320366859436
v 0.2121320366859436 0.30000001192092896 0.2121320366859436
v 0.6363961100578308 0.5 0.6363961100578308
v 0.7071067690849304 0.75 0.7071067690849304
v 0.6363961100578308 1 0.6363961100578308
v 0.2121320366859436 1.2000000476837158 0.2121320366859436
v 0.2121320366859436 1.5 0.2121320366859436
v 0 1.5 0
v 0 0 0
v 0.25980761647224426 0 0.15000000596046448
v 0.25980761647224426 0.30000001192092896 0.15000000596046448
v 0.7794228792190552 0.5 0.44999998807907104
v 0.8660253882408142 0.75 0.5
v 0.7794228792190552 1 0.44999998807907104
v 0.25980761647224426 1.2000000476837158 0.15000000596046448
v 0.25980761647224426 1.5 0.15000000596046448
v 0 1.5 0
v 0 0 0
v 0.2897777557373047 0 0.07764571160078049
v 0.2897777557373047 0.30000001192092896 0.07764571160078049
v 0.8693332672119141 0.5 0.23293714225292206
v 0.9659258127212524 0.75 0.258819043636322
v 0.8693332672119141 1 0.23293714225292206
v 0.2897777557373047 1.2000000476837158 0.07764571160078049
v 0.2897777557373047 1.5 0.07764571160078049
v 0 1.5 0
v 0 0 0
v 0.30000001192092896 0 1.8369702788777518e-17
v 0.30000001192092896 0.30000001192092896 1.8369702788777518e-17
v 0.8999999761581421 0.5 5.5109105057610103e-17
v 1 0.75 6.123234262925839e-17
v 0.8999999761581421 1 5.5109105057610103e-17
v 0.30000001192092896 1.2000000476837158 1.8369702788777518e-17
v 0.30000001192092896 1.5 1.8369702788777518e-17
v 0 1.5 0
v 0 0 0
v 0.2897777557373047 0 -0.07764571160078049
v 0.2897777557373047 0.30000001192092896 -0.07764571160078049
v 0.8693332672119141 0.5 -0.23293714225292206
v 0.9659258127212524 0.75 -0.258819043636322
v 0.8693332672119141 1 -0.23293714225292206
v 0.2897777557373047 1.2000000476837158 -0.07764571160078049
v 0.2897777557373047 1.5 -0.07764571160078049
v 0 1.5 0
v 0 0 0
v 0.25980761647224426 0 -0.15000000596046448
v 0.25980761647224426 0.30000001192092896 -0.15000000596046448
v 0.7794228792190552 0.5 -0.44999998807907104
v 0.8660253882408142 0.75 -0.5
v 0.7794228792190552 1 -0.44999998807907104
v 0.25980761647224426 1.2000000476837158 -0.15000000596046448
v 0.25980761647224426 1.5 -0.15000000596046448
v 0 1.5 0
v 0 0 0
v 0.2121320366859436 0 -0.2121320366859436
v 0.2121320366859436 0.30000001192092896 -0.2121320366859436
v 0.6363961100578308 0.5 -0.6363961100578308
v 0.7071067690849304 0.75 -0.7071067690849304
v 0.6363961100578308 1 -0.6363961100578308
v 0.2121320366859436 1.2000000476837158 -0.2121320366859436
v 0.2121320366859436 1.5 -0.2121320366859436
v 0 1.5 0
v 0 0 0
v 0.15000000596046448 0 -0.25980761647224426
v 0.15000000596046448 0.30000001192092896 -0.25980761647224426
v 0.44999998807907104 0.5 -0.7794228792190552
v 0.5 0.75 -0.8660253882408142
v 0.44999998807907104 1 -0.7794228792190552
v 0.15000000596046448 1.2000000476837158 -0.25980761647224426
v 0.15000000596046448 1.5 -0.25980761647224426
v 0 1.5 0
v 0 0 0
v 0.07764571160078049 0 -0.2897777557373047
v 0.07764571160078049 0.30000001192092896 -0.2897777557373047
v 0.23293714225292206 0.5 -0.8693332672119141
v 0.258819043636322 0.75 -0.9659258127212524
v 0.23293714225292206 1 -0.8693332672119141
v 0.07764571160078049 1.2000000476837158 -0.2897777557373047
v 0.07764571160078049 1.5 -0.2897777557373047
v 0 1.5 0
v 0 0 0
v 3.6739405577555036e-17 0 -0.30000001192092896
v 3.6739405577555036e-17 0.30000001192092896 -0.30000001192092896
v 1.1021821011522021e-16 0.5 -0.8999999761581421
v 1.2246468525851679e-16 0.75 -1
v 1.1021821011522021e-16 1 -0.8999999761581421
v 3.6739405577555036e-17 1.2000000476837158 -0.30000001192092896
v 3.6739405577555036e-17 1.5 -0.30000001192092896
v 0 1.5 0
v 0 0 0
v -0.07764571160078049 0 -0.2897777557373047
v -0.07764571160078049 0.30000001192092896 -0.2897777557373047
v -0.23293714225292206 0.5 -0.8693332672119141
v -0.258819043636322 0.75 -0.9659258127212524
v -0.23293714225292206 1 -0.8693332672119141
v -0.07764571160078049 1.2000000476837158 -0.2897777557373047
v -0.07764571160078049 1.5 -0.2897777557373047
v 0 1.5 0
v 0 0 0
v -0.15000000596046448 0 -0.25980761647224426
v -0.15000000596046448 0.30000001192092896 -0.25980761647224426
v -0.44999998807907104 0.5 -0.7794228792190552
v -0.5 0.75 -0.8660253882408142
v -0.44999998807907104 1 -0.7794228792190552
v -0.15000000596046448 1.2000000476837158 -0.25980761647224426
v -0.15000000596046448 1.5 -0.25980761647224426
v 0 1.5 0
v 0 0 0
v -0.2121320366859436 0 -0.2121320366859436
v -0.2121320366859436 0.30000001192092896 -0.2121320366859436
v -0.6363961100578308 0.5 -0.6363961100578308
v -0.7071067690849304 0.75 -0.7071067690849304
v -0.6363961100578308 1 -0.6363961100578308
v -0.2121320366859436 1.2000000476837158 -0.2121320366859436
v -0.2121320366859436 1.5 -0.2121320366859436
v 0 1.5 0
v 0 0 0
v -0.25980761647224426 0 -0.15000000596046448
v -0.25980761647224426 0.30000001192092896 -0.15000000596046448
v -0.7794228792190552 0.5 -0.44999998807907104
v -0.8660253882408142 0.75 -0.5
v -0.7794228792190552 1 -0.44999998807907104
v -0.25980761647224426 1.2000000476837158 -0.15000000596046448
v -0.25980761647224426 1.5 -0.15000000596046448
v 0 1.5 0
v 0 0 0
v -0.2897777557373047 0 -0.07764571160078049
v -0.2897777557373047 0.30000001192092896 -0.07764571160078049
v -0.8693332672119141 0.5 -0.23293714225292206
v -0.9659258127212524 0.75 -0.258819043636322
v -0.8693332672119141 1 -0.23293714225292206
v -0.2897777557373047 1.2000000476837158 -0.07764571160078049
v -0.2897777557373047 1.5 -0.07764571160078049
v 0 1.5 0
v 0 0 0
v -0.30000001192092896 0 -5.5109105057610103e-17
v -0.30000001192092896 0.30000001192092896 -5.5109105057610103e-17
v -0.8999999761581421 0.5 -1.6532731848155276e-16
v -1 0.75 -1.8369701465288538e-16
v -0.8999999761581421 1 -1.6532731848155276e-16
v -0.30000001192092896 1.2000000476837158 -5.5109105057610103e-17
v -0.30000001192092896 1.5 -5.5109105057610103e-17
v 0 1.5 0
v 0 0 0
v -0.2897777557373047 0 0.07764571160078049
v -0.2897777557373047 0.30000001192092896 0.07764571160078049
v -0.8693332672119141 0.5 0.23293714225292206
v -0.9659258127212524 0.75 0.258819043636322
v -0.8693332672119141 1 0.23293714225292206
v -0.2897777557373047 1.2000000476837158 0.07764571160078049
v -0.2897777557373047 1.5 0.07764571160078049
v 0 1.5 0
v 0 0 0
v -0.25980761647224426 0 0.15000000596046448
v -0.25980761647224426 0.30000001192092896 0.15000000596046448
v -0.7794228792190552 0.5 0.44999998807907104
v -0.8660253882408142 0.75 0.5
v -0.7794228792190552 1 0.44999998807907104
v -0.25980761647224426 1.2000000476837158 0.15000000596046448
v -0.25980761647224426 1.5 0.15000000596046448
v 0 1.5 0
v 0 0 0
v -0.2121320366859436 0 0.2121320366859436
v -0.2121320366859436 0.30000001192092896 0.2121320366859436
v -0.6363961100578308 0.5 0.6363961100578308
v -0.7071067690849304 0.75 0.7071067690849304
v -0.6363961100578308 1 0.6363961100578308
v -0.2121320366859436 1.2000000476837158 0.2121320366859436
v -0.2121320366859436 1.5 0.2121320366859436
v 0 1.5 0
v 0 0 0
v -0.15000000596046448 0 0.25980761647224426
v -0.15000000596046448 0.30000001192092896 0.25980761647224426
v -0.44999998807907104 0.5 0.7794228792190552
v -0.5 0.75 0.8660253882408142
v -0.44999998807907104 1 0.7794228792190552
v -0.15000000596046448 1.2000000476837158 0.25980761647224426
v -0.15000000596046448 1.5 0.25980761647224426
v 0 1.5 0
v 0 0 0
v -0.07764571160078049 0 0.2897777557373047
v -0.07764571160078049 0.30000001192092896 0.2897777557373047
v -0.23293714225292206 0.5 0.8693332672119141
v -0.258819043636322 0.75 0.9659258127212524
v -0.23293714225292206 1 0.8693332672119141
v -0.07764571160078049 1.2000000476837158 0.2897777557373047
v -0.07764571160078049 1.5 0.2897777557373047
v 0 1.5 0
v 0 0 0
v -7.347881115511007e-17 0 0.30000001192092896
v -7.347881115511007e-17 0.30000001192092896 0.30000001192092896
v -2.2043642023044041e-16 0.5 0.8999999761581421
v -2.4492937051703357e-16 0.75 1
v -2.2043642023044041e-16 1 0.8999999761581421
v -7.347881115511007e-17 1.2000000476837158 0.30000001192092896
v -7.347881115511007e-17 1.5 0.30000001192092896
v 0 1.5 0
vt 0 0
vt 0 0.125
vt 0 0.25
vt 0 0.375
vt 0 0.5
vt 0 0.625
vt 0 0.75
vt 0 0.875
vt 0 1
vt 0.0416666679084301 0
vt 0.0416666679084301 0.125
vt 0.0416666679084301 0.25
vt 0.0416666679084301 0.375
vt 0.0416666679084301 0.5
vt 0.0416666679084301 0.625
vt 0.0416666679084301 0.75
vt 0.0416666679084301 0.875
vt 0.0416666679084301 1
vt 0.0833333358168602 0
vt 0.0833333358168602 0.125
vt 0.0833333358168602 0.25
vt 0.0833333358168602 0.375
vt 0.0833333358168602 0.5
vt 0.0833333358168602 0.625
vt 0.0833333358168602 0.75
vt 0.0833333358168602 0.875
vt 0.0833333358168602 1
vt 0.125 0
vt 0.125 0.125
vt 0.125 0.25
vt 0.125 0.375
vt 0.125 0.5
vt 0.125 0.625
vt 0.125 0.75
vt 0.125 0.875
vt 0.125 1
vt 0.1666666716337204 0
vt 0.1666666716337204 0.125
vt 0.1666666716337204 0.25
vt 0.1666666716337204 0.375
vt 0.1666666716337204 0.5
vt 0.1666666716337204 0.625
vt 0.1666666716337204 0.75
vt 0.1666666716337204 0.875
vt 0.1666666716337204 1
vt 0.2083333283662796 0
vt 0.2083333283662796 0.125
vt 0.2083333283662796 0.25
vt 0.2083333283662796 0.375
vt 0.2083333283662796 0.5
vt 0.2083333283662796 0.625
vt 0.2083333283662796 0.75
vt 0.2083333283662796 0.875
vt 0.2083333283662796 1
vt 0.25 0
vt 0.25 0.125
vt 0.25 0.25
vt 0.25 0.375
vt 0.25 0.5
vt 0.25 0.625
vt 0.25 0.75
vt 0.25 0.875
vt 0.25 1
vt 0.2916666567325592 0
vt 0.2916666567325592 0.125
vt 0.2916666567325592 0.25
vt 0.2916666567325592 0.375
vt 0.2916666567325592 0.5
vt 0.2916666567325592 0.625
vt 0.2916666567325592 0.75
vt 0.2916666567325592 0.875
vt 0.2916666567325592 1
vt 0.3333333432674408 0
vt 0.3333333432674408 0.125
vt 0.3333333432674408 0.25
vt 0.3333333432674408 0.375
vt 0.3333333432674408 0.5
vt 0.3333333432674408 0.625
vt 0.3333333432674408 0.75
vt 0.3333333432674408 0.875
vt 0.3333333432674408 1
vt 0.375 0
vt 0.375 0.125
vt 0.375 0.25
vt 0.375 0.375
vt 0.375 0.5
vt 0.375 0.625
vt 0.375 0.75
vt 0.375 0.875
vt 0.375 1
vt 0.4166666567325592 0
vt 0.4166666567325592 0.125
vt 0.4166666567325592 0.25
vt 0.4166666567325592 0.375
vt 0.4166666567325592 0.5
vt 0.4166666567325592 0.625
vt 0.4166666567325592 0.75
vt 0.4166666567325592 0.875
vt 0.4166666567325592 1
vt 0.4583333432674408 0
vt 0.4583333432674408 0.125
vt 0.4583333432674408 0.25
vt 0.4583333432674408 0.375
vt 0.4583333432674408 0.5
vt 0.4583333432674408 0.625
vt 0.4583333432674408 0.75
vt 0.4583333432674408 0.875
vt 0.4583333432674408 1
vt 0.5 0
vt 0.5 0.125
vt 0.5 0.25
vt 0.5 0.375
vt 0.5 0.5
vt 0.5 0.625
vt 0.5 0.75
vt 0.5 0.875
vt 0.5 1
vt 0.5416666865348816 0
vt 0.5416666865348816 0.125
vt 0.5416666865348816 0.25
vt 0.5416666865348816 0.375
vt 0.5416666865348816 0.5
vt 0.5416666865348816 0.625
vt 0.5416666865348816 0.75
vt 0.5416666865348816 0.875
vt 0.5416666865348816 1
vt 0.5833333134651184 0
vt 0.5833333134651184 0.125
vt 0.5833333134651184 0.25
vt 0.5833333134651184 0.375
vt 0.5833333134651184 0.5
vt 0.5833333134651184 0.625
vt 0.5833333134651184 0.75
vt 0.5833333134651184 0.875
vt 0.5833333134651184 1
vt 0.625 0
vt 0.625 0.125
vt 0.625 0.25
vt 0.625 0.375
vt 0.625 0.5
vt 0.625 0.625
vt 0.625 0.75
vt 0.625 0.875
vt 0.625 1
vt 0.6666666865348816 0
vt 0.6666666865348816 0.125
vt 0.6666666865348816 0.25
vt 0.6666666865348816 0.375
vt 0.6666666865348816 0.5
vt 0.6666666865348816 0.625
vt 0.6666666865348816 0.75
vt 0.6666666865348816 0.875
vt 0.6666666865348816 1
vt 0.7083333134651184 0
vt 0.7083333134651184 0.125
vt 0.7083333134651184 0.25
vt 0.7083333134651184 0.375
vt 0.7083333134651184 0.5
vt 0.7083333134651184 0.625
vt 0.7083333134651184 0.75
vt 0.7083333134651184 0.875
vt 0.7083333134651184 1
vt 0.75 0
vt 0.75 0.125
vt 0.75 0.25
vt 0.75 0.375
vt 0.75 0.5
vt 0.75 0.625
vt 0.75 0.75
vt 0.75 0.875
vt 0.75 1
vt 0.7916666865348816 0
vt 0.7916666865348816 0.125
vt 0.7916666865348816 0.25
vt 0.7916666865348816 0.375
vt 0.7916666865348816 0.5
vt 0.7916666865348816 0.625
vt 0.7916666865348816 0.75
vt 0.7916666865348816 0.875
vt 0.7916666865348816 1
vt 0.8333333134651184 0
vt 0.8333333134651184 0.125
vt 0.8333333134651184 0.25
vt 0.8333333134651184 0.375
vt 0.8333333134651184 0.5
vt 0.8333333134651184 0.625
vt 0.8333333134651184 0.75
vt 0.8333333134651184 0.875
vt 0.8333333134651184 1
vt 0.875 0
vt 0.875 0.125
vt 0.875 0.25
vt 0.875 0.375
vt 0.875 0.5
vt 0.875 0.625
vt 0.875 0.75
vt 0.875 0.875
vt 0.875 1
vt 0.9166666865348816 0
vt 0.9166666865348816 0.125
vt 0.9166666865348816 0.25
vt 0.9166666865348816 0.375
vt 0.9166666865348816 0.5
vt 0.9166666865348816 0.625
vt 0.9166666865348816 0.75
vt 0.9166666865348816 0.875
vt 0.9166666865348816 1
vt 0.9583333134651184 0
vt 0.9583333134651184 0.125
vt 0.9583333134651184 0.25
vt 0.9583333134651184 0.375
vt 0.9583333134651184 0.5
vt 0.9583333134651184 0.625
vt 0.9583333134651184 0.75
vt 0.9583333134651184 0.875
vt 0.9583333134651184 1
vt 1 0
vt 1 0.125
vt 1 0.25
vt 1 0.375
vt 1 0.5
vt 1 0.625
vt 1 0.75
vt 1 0.875
vt 1 1
vn 0 0 0
vn 0.09269163131152178 -0.7040625900744936 0.7040625900744936
vn 0.10474270382206216 -0.5966995840581348 0.79559950501549
vn 0.06540507070800337 -0.8653961410307133 0.4968014651898995
vn 0.12954867107024398 -0.12215417086739411 0.9840200711182843
vn 0.08758451553578256 0.7414468923067555 0.6652709662438434
vn 0.05477126247101314 0.9077002293203507 0.4160293288929446
vn 0.11694563177131603 0.4441450535082612 0.8882898685979435
vn 0 1 0
vn 0 -1 0
vn 0.17996093505862606 -0.554330762352879 0.8126078191613103
vn 0.12773050585603285 -0.8447668100378751 0.5196671574500301
vn 0.13952940454883803 -0.8086663341098924 0.5714808005029693
vn 0.25881904712649256 2.882725741464469e-8 0.9659258257467461
vn 0.1649043577913743 0.808666297623555 0.5646816553326541
vn 0.14921576167284245 0.8447668172957128 0.5139101875468758
vn 0.25045329441659264 0.5543308878296249 0.7937193547557571
vn 0 1 0
vn 0 -1 0
vn 0.3841472845212064 -0.5543307634681 0.7383415662603973
vn 0.25787794142567383 -0.844766840582812 0.46890079161565795
vn 0.2826852005491567 -0.8086663177737735 0.5158952063052046
vn 0.49999998437884446 -1.2139084748631756e-8 0.8660254128033167
vn 0.30543578116060877 0.8086663006346927 0.5027601792153087
vn 0.27714109772610096 0.8447668063596327 0.45777926430116783
vn 0.4473488870201263 0.5543308783860512 0.701852014707946
vn 0 1 0
vn 0 -1 0
vn 0.5621546030262359 -0.5543307779775151 0.6137585770343726
vn 0.37045141234738976 -0.8447668365449534 0.38617967704639244
vn 0.40657641859364935 -0.8086663360393058 0.4251521760503247
vn 0.7071067811865476 1.6725665583449004e-9 0.7071067811865476
vn 0.4251522158066602 0.8086662953678229 0.40657645791507396
vn 0.38617967704639244 0.8447668365449534 0.37045141234738976
vn 0.6137585567553658 0.5543308192666877 0.5621545844522599
vn 0 1 0
vn 0 -1 0
vn 0.7018520819738003 -0.5543307652276744 0.4473489217055773
vn 0.45777926808217195 -0.8447668133369404 0.2771410702128105
vn 0.5027601792153087 -0.8086663006346927 0.30543578116060877
vn 0.8660253740889633 1.1808198670190658e-8 0.5000000514340687
vn 0.5158951976127042 0.8086663041482693 0.2826852553907399
vn 0.46890083847551045 0.8447668117088358 0.2578779508066787
vn 0.7383415063009158 0.5543308228063404 0.38414731413891257
vn 0 1 0
vn 0 -1 0
vn 0.7937194292601211 -0.5543307790262446 0.25045329911810754
vn 0.5139101886895489 -0.8447668191740417 0.14921574710346028
vn 0.5646816539450807 -0.8086662956364464 0.16490437228732166
vn 0.9659258257467461 -3.1883125903030115e-8 0.25881904712649256
vn 0.5714808681868414 0.8086662859376517 0.13952940652141488
vn 0.5196671574500301 0.8447668100378751 0.12773050585603285
vn 0.8126077452172397 0.5543308717803429 0.17996093188300225
vn 0 1 0
vn 0 -1 0
vn 0.8314961598944918 -0.5543308129994234 0.03648953055483245
vn 0.5350189704556931 -0.8447668393755687 0.011121526151655072
vn 0.5881209570415007 -0.8086663159320634 0.013135043412708818
vn 1 -4.323793822980093e-10 0
vn 0.5881210350395126 0.8086662592665627 -0.013135039698332126
vn 0.535019039893744 0.8447667952973554 -0.011121533806644273
vn 0.831496114139474 0.554330881837153 -0.036489527437321735
vn 0 1 0
vn 0 -1 0
vn 0.8126078191613103 -0.554330762352879 -0.17996093505862606
vn 0.5196671574500301 -0.8447668100378751 -0.12773050585603285
vn 0.5714808005029693 -0.8086663341098924 -0.13952940454883803
vn 0.9659258257467461 2.882725741464469e-8 -0.25881904712649256
vn 0.5646816553326541 0.808666297623555 -0.1649043577913743
vn 0.5139101875468758 0.8447668172957128 -0.14921576167284245
vn 0.7937193547557571 0.5543308878296249 -0.25045329441659264
vn 0 1 0
vn 0 -1 0
vn 0.7383415662603973 -0.5543307634681 -0.3841472845212064
vn 0.46890079161565795 -0.844766840582812 -0.25787794142567383
vn 0.5158952063052046 -0.8086663177737735 -0.2826852005491567
vn 0.8660254128033167 -1.2139084748631756e-8 -0.49999998437884446
vn 0.5027601792153087 0.8086663006346927 -0.30543578116060877
vn 0.45777926430116783 0.8447668063596327 -0.27714109772610096
vn 0.701852014707946 0.5543308783860512 -0.4473488870201263
vn 0 1 0
vn 0 -1 0
vn 0.6137585770343726 -0.5543307779775151 -0.5621546030262359
vn 0.38617967704639244 -0.8447668365449534 -0.37045141234738976
vn 0.4251521760503247 -0.8086663360393058 -0.40657641859364935
vn 0.7071067811865476 1.6725665583449004e-9 -0.7071067811865476
vn 0.40657645791507396 0.8086662953678229 -0.4251522158066602
vn 0.37045141234738976 0.8447668365449534 -0.38617967704639244
vn 0.5621545844522599 0.5543308192666877 -0.6137585567553658
vn 0 1 0
vn 0 -1 0
vn 0.4473489217055773 -0.5543307652276744 -0.7018520819738003
vn 0.2771410702128105 -0.8447668133369404 -0.45777926808217195
vn 0.30543578116060877 -0.8086663006346927 -0.5027601792153087
vn 0.5000000514340686 1.1808198670190657e-8 -0.8660253740889631
vn 0.2826852553907399 0.8086663041482693 -0.5158951976127042
vn 0.2578779508066787 0.8447668117088358 -0.46890083847551045
vn 0.38414731413891257 0.5543308228063404 -0.7383415063009158
vn 0 1 0
vn 0 -1 0
vn 0.25045329911810754 -0.5543307790262446 -0.7937194292601211
vn 0.14921574710346028 -0.8447668191740417 -0.5139101886895489
vn 0.16490437228732166 -0.8086662956364464 -0.5646816539450807
vn 0.25881904712649256 -3.1883125903030115e-8 -0.9659258257467461
vn 0.13952940652141488 0.8086662859376517 -0.5714808681868414
vn 0.12773050585603285 0.8447668100378751 -0.5196671574500301
vn 0.17996093188300225 0.5543308717803429 -0.8126077452172397
vn 0 1 0
vn 0 -1 0
vn 0.03648953055483245 -0.5543308129994234 -0.8314961598944918
vn 0.011121526151655072 -0.8447668393755687 -0.5350189704556931
vn 0.013135043412708818 -0.8086663159320634 -0.5881209570415007
vn 0 -4.323793545424337e-10 -1
vn -0.013135039698332126 0.8086662592665627 -0.5881210350395126
vn -0.011121533806644273 0.8447667952973554 -0.535019039893744
vn -0.036489527437321735 0.554330881837153 -0.831496114139474
vn 0 1 0
vn 0 -1 0
vn -0.17996093505862606 -0.554330762352879 -0.8126078191613103
vn -0.12773050585603285 -0.8447668100378751 -0.5196671574500301
vn -0.13952940454883803 -0.8086663341098924 -0.5714808005029693
vn -0.25881904712649256 2.882725741464469e-8 -0.9659258257467461
vn -0.1649043577913743 0.808666297623555 -0.5646816553326541
vn -0.14921576167284245 0.8447668172957128 -0.5139101875468758
vn -0.25045329441659264 0.5543308878296249 -0.7937193547557571
vn 0 1 0
vn 0 -1 0
vn -0.3841472845212064 -0.5543307634681 -0.7383415662603973
vn -0.25787794142567383 -0.844766840582812 -0.46890079161565795
vn -0.2826852005491567 -0.8086663177737735 -0.5158952063052046
vn -0.49999998437884446 -1.2139084748631756e-8 -0.8660254128033167
vn -0.30543578116060877 0.8086663006346927 -0.5027601792153087
vn -0.27714109772610096 0.8447668063596327 -0.45777926430116783
vn -0.4473488870201263 0.5543308783860512 -0.701852014707946
vn 0 1 0
vn 0 -1 0
vn -0.5621546030262359 -0.5543307779775151 -0.6137585770343726
vn -0.37045141234738976 -0.8447668365449534 -0.38617967704639244
vn -0.40657641859364935 -0.8086663360393058 -0.4251521760503247
vn -0.7071067811865476 1.6725665583449004e-9 -0.7071067811865476
vn -0.4251522158066602 0.8086662953678229 -0.40657645791507396
vn -0.38617967704639244 0.8447668365449534 -0.37045141234738976
vn -0.6137585567553658 0.5543308192666877 -0.5621545844522599
vn 0 1 0
vn 0 -1 0
vn -0.7018520819738003 -0.5543307652276744 -0.4473489217055773
vn -0.45777926808217195 -0.8447668133369404 -0.2771410702128105
vn -0.5027601792153087 -0.8086663006346927 -0.30543578116060877
vn -0.8660253740889633 1.1808198670190658e-8 -0.5000000514340687
vn -0.5158951976127042 0.8086663041482693 -0.2826852553907399
vn -0.46890083847551045 0.8447668117088358 -0.2578779508066787
vn -0.7383415063009158 0.5543308228063404 -0.38414731413891257
vn 0 1 0
vn 0 -1 0
vn -0.7937194292601211 -0.5543307790262446 -0.25045329911810754
vn -0.5139101886895489 -0.8447668191740417 -0.14921574710346028
vn -0.5646816539450807 -0.8086662956364464 -0.16490437228732166
vn -0.9659258257467461 -3.188312945574384e-8 -0.25881904712649256
vn -0.5714808681868414 0.8086662859376517 -0.13952940652141488
vn -0.5196671574500301 0.8447668100378751 -0.12773050585603285
vn -0.8126077452172397 0.5543308717803429 -0.17996093188300225
vn 0 1 0
vn 0 -1 0
vn -0.8314961598944918 -0.5543308129994234 -0.03648953055483245
vn -0.5350189704556931 -0.8447668393755687 -0.011121526151655072
vn -0.5881209570415007 -0.8086663159320634 -0.013135043412708818
vn -1 -4.323793545424337e-10 0
vn -0.5881210350395126 0.8086662592665627 0.013135039698332126
vn -0.535019039893744 0.8447667952973554 0.011121533806644273
vn -0.831496114139474 0.554330881837153 0.036489527437321735
vn 0 1 0
vn 0 -1 0
vn -0.8126078191613103 -0.554330762352879 0.17996093505862606
vn -0.5196671574500301 -0.8447668100378751 0.12773050585603285
vn -0.5714808005029693 -0.8086663341098924 0.13952940454883803
vn -0.9659258257467461 2.882725741464469e-8 0.25881904712649256
vn -0.5646816553326541 0.808666297623555 0.1649043577913743
vn -0.5139101875468758 0.8447668172957128 0.14921576167284245
vn -0.7937193547557571 0.5543308878296249 0.25045329441659264
vn 0 1 0
vn 0 -1 0
vn -0.7383415662603973 -0.5543307634681 0.3841472845212064
vn -0.46890079161565795 -0.844766840582812 0.25787794142567383
vn -0.5158952063052046 -0.8086663177737735 0.2826852005491567
vn -0.8660254128033167 -1.2139084748631756e-8 0.49999998437884446
vn -0.5027601792153087 0.8086663006346927 0.30543578116060877
vn -0.45777926430116783 0.8447668063596327 0.27714109772610096
vn -0.701852014707946 0.5543308783860512 0.4473488870201263
vn 0 1 0
vn 0 -1 0
vn -0.6137585770343726 -0.5543307779775151 0.5621546030262359
vn -0.38617967704639244 -0.8447668365449534 0.37045141234738976
vn -0.4251521760503247 -0.8086663360393058 0.40657641859364935
vn -0.7071067811865476 1.6725665583449004e-9 0.7071067811865476
vn -0.40657645791507396 0.8086662953678229 0.4251522158066602
vn -0.37045141234738976 0.8447668365449534 0.38617967704639244
vn -0.5621545844522599 0.5543308192666877 0.6137585567553658
vn 0 1 0
vn 0 -1 0
vn -0.4473489217055773 -0.5543307652276744 0.7018520819738003
vn -0.2771410702128105 -0.8447668133369404 0.45777926808217195
vn -0.30543578116060877 -0.8086663006346927 0.5027601792153087
vn -0.5000000514340686 1.1808198670190657e-8 0.8660253740889631
vn -0.2826852553907399 0.8086663041482693 0.5158951976127042
vn -0.2578779508066787 0.8447668117088358 0.46890083847551045
vn -0.38414731413891257 0.5543308228063404 0.7383415063009158
vn 0 1 0
vn 0 -1 0
vn -0.25045329911810754 -0.5543307790262446 0.7937194292601211
vn -0.14921574710346028 -0.8447668191740417 0.5139101886895489
vn -0.16490437228732166 -0.8086662956364464 0.5646816539450807
vn -0.25881904712649256 -3.188312945574384e-8 0.9659258257467461
vn -0.13952940652141488 0.8086662859376517 0.5714808681868414
vn -0.12773050585603285 0.8447668100378751 0.5196671574500301
vn -0.17996093188300225 0.5543308717803429 0.8126077452172397
vn 0 1 0
vn 0 -1 0
vn -0.11694563022335987 -0.4441449582223491 0.8882899164446982
vn -0.05477125640096168 -0.9077002521992591 0.41602927977446685
vn -0.08758450035125685 -0.7414469495125718 0.6652709044868281
vn -0.12954867118814872 0.12215416352798825 0.98402007201386
vn -0.06540507859528097 0.8653960872041501 0.49680155791391406
vn -0.10474270382206216 0.5966995840581348 0.79559950501549
vn -0.09269162742167972 0.7040626797375064 0.7040625009235773
vn 0 0 0
f 1/1/1 10/10/10 2/2/2
f 11/11/11 2/2/2 10/10/10
f 2/2/2 11/11/11 3/3/3
f 12/12/12 3/3/3 11/11/11
f 3/3/3 12/12/12 4/4/4
f 13/13/13 4/4/4 12/12/12
f 4/4/4 13/13/13 5/5/5
f 14/14/14 5/5/5 13/13/13
f 5/5/5 14/14/14 6/6/6
f 15/15/15 6/6/6 14/14/14
f 6/6/6 15/15/15 7/7/7
f 16/16/16 7/7/7 15/15/15
f 7/7/7 16/16/16 8/8/8
f 17/17/17 8/8/8 16/16/16
f 8/8/8 17/17/17 9/9/9
f 18/18/18 9/9/9 17/17/17
f 10/10/10 19/19/19 11/11/11
f 20/20/20 11/11/11 19/19/19
f 11/11/11 20/20/20 12/12/12
f 21/21/21 12/12/12 20/20/20
f 12/12/12 21/21/21 13/13/13
f 22/22/22 13/13/13 21/21/21
f 13/13/13 22/22/22 14/14/14
f 23/23/23 14/14/14 22/22/22
f 14/14/14 23/23/23 15/15/15
f 24/24/24 15/15/15 23/23/23
f 15/15/15 24/24/24 16/16/16
f 25/25/25 16/16/16 24/24/24
f 16/16/16 25/25/25 17/17/17
f 26/26/26 17/17/17 25/25/25
f 17/17/17 26/26/26 18/18/18
f 27/27/27 18/18/18 26/26/26
f 19/19/19 28/28/28 20/20/20
f 29/29/29 20/20/20 28/28/28
f 20/20/20 29/29/29 21/21/21
f 30/30/30 21/21/21 29/29/29
f 21/21/21 30/30/30 22/22/22
f 31/31/31 22/22/22 30/30/30
f 22/22/22 31/31/31 23/23/23
f 32/32/32 23/23/23 31/31/31
f 23/23/23 32/32/32 24/24/24
f 33/33/33 24/24/24 32/32/32
f 24/24/24 33/33/33 25/25/25
f 34/34/34 25/25/25 33/33/33
f 25/25/25 34/34/34 26/26/26
f 35/35/35 26/26/26 34/34/34
f 26/26/26 35/35/35 27/27/27
f 36/36/36 27/27/27 35/35/35
f 28/28/28 37/37/37 29/29/29
f 38/38/38 29/29/29 37/37/37
f 29/29/29 38/38/38 30/30/30
f 39/39/39 30/30/30 38/38/38
f 30/30/30 39/39/39 31/31/31
f 40/40/40 31/31/31 39/39/39
f 31/31/31 40/40/40 32/32/32
f 41/41/41 32/32/32 40/40/40
f 32/32/32 41/41/41 33/33/33
f 42/42/42 33/33/33 41/41/41
f 33/33/33 42/42/42 34/34/34
f 43/43/43 34/34/34 42/42/42
f 34/34/34 43/43/43 35/35/35
f 44/44/44 35/35/35 43/43/43
f 35/35/35 44/44/44 36/36/36
f 45/45/45 36/36/36 44/44/44
f 37/37/37 46/46/46 38/38/38
f 47/47/47 38/38/38 46/46/46
f 38/38/38 47/47/47 39/39/39
f 48/48/48 39/39/39 47/47/47
f 39/39/39 48/48/48 40/40/40
f 49/49/49 40/40/40 48/48/48
f 40/40/40 49/49/49 41/41/41
f 50/50/50 41/41/41 49/49/49
f 41/41/41 50/50/50 42/42/42
f 51/51/51 42/42/42 50/50/50
f 42/42/42 51/51/51 43/43/43
f 52/52/52 43/43/43 51/51/51
f 43/43/43 52/52/52 44/44/44
f 53/53/53 44/44/44 52/52/52
f 44/44/44 53/53/53 45/45/45
f 54/54/54 45/45/45 53/53/53
f 46/46/46 55/55/55 47/47/47
f 56/56/56 47/47/47 55/55/55
f 47/47/47 56/56/56 48/48/48
f 57/57/57 48/48/48 56/56/56
f 48/48/48 57/57/57 49/49/49
f 58/58/58 49/49/49 57/57/57
f 49/49/49 58/58/58 50/50/50
f 59/59/59 50/50/50 58/58/58
f 50/50/50 59/59/59 51/51/51
f 60/60/60 51/51/51 59/59/59
f 51/51/51 60/60/60 52/52/52
f 61/61/61 52/52/52 60/60/60
f 52/52/52 61/61/61 53/53/53
f 62/62/62 53/53/53 61/61/61
f 53/53/53 62/62/62 54/54/54
f 63/63/63 54/54/54 62/62/62
f 55/55/55 64/64/64 56/56/56
f 65/65/65 56/56/56 64/64/64
f 56/56/56 65/65/65 57/57/57
f 66/66/66 57/57/57 65/65/65
f 57/57/57 66/66/66 58/58/58
f 67/67/67 58/58/58 66/66/66
f 58/58/58 67/67/67 59/59/59
f 68/68/68 59/59/59 67/67/67
f 59/59/59 68/68/68 60/60/60
f 69/69/69 60/60/60 68/68/68
f 60/60/60 69/69/69 61/61/61
f 70/70/70 61/61/61 69/69/69
f 61/61/61 70/70/70 62/62/62
f 71/71/71 62/62/62 70/70/70
f 62/62/62 71/71/71 63/63/63
f 72/72/72 63/63/63 71/71/71
f 64/64/64 73/73/73 65/65/65
f 74/74/74 65/65/65 73/73/73
f 65/65/65 74/74/74 66/66/66
f 75/75/75 66/66/66 74/74/74
f 66/66/66 75/75/75 67/67/67
f 76/76/76 67/67/67 75/75/75
f 67/67/67 76/76/76 68/68/68
f 77/77/77 68/68/68 76/76/76
f 68/68/68 77/77/77 69/69/69
f 78/78/78 69/69/69 77/77/77
f 69/69/69 78/78/78 70/70/70
f 79/79/79 70/70/70 78/78/78
f 70/70/70 79/79/79 71/71/71
f 80/80/80 71/71/71 79/79/79
f 71/71/71 80/80/80 72/72/72
f 81/81/81 72/72/72 80/80/80
f 73/73/73 82/82/82 74/74/74
f 83/83/83 74/74/74 82/82/82
f 74/74/74 83/83/83 75/75/75
f 84/84/84 75/75/75 83/83/83
f 75/75/75 84/84/84 76/76/76
f 85/85/85 76/76/76 84/84/84
f 76/76/76 85/85/85 77/77/77
f 86/86/86 77/77/77 85/85/85
f 77/77/77 86/86/86 78/78/78
f 87/87/87 78/78/78 86/86/86
f 78/78/78 87/87/87 79/79/79
f 88/88/88 79/79/79 87/87/87
f 79/79/79 88/88/88 80/80/80
f 89/89/89 80/80/80 88/88/88
f 80/80/80 89/89/89 81/81/81
f 90/90/90 81/81/81 89/89/89
f 82/82/82 91/91/91 83/83/83
f 92/92/92 83/83/83 91/91/91
f 83/83/83 92/92/92 84/84/84
f 93/93/93 84/84/84 92/92/92
f 84/84/84 93/93/93 85/85/85
f 94/94/94 85/85/85 93/93/93
f 85/85/85 94/94/94 86/86/86
f 95/95/95 86/86/86 94/94/94
f 86/86/86 95/95/95 87/87/87
f 96/96/96 87/87/87 95/95/95
f 87/87/87 96/96/96 88/88/88
f 97/97/97 88/88/88 96/96/96
f 88/88/88 97/97/97 89/89/89
f 98/98/98 89/89/89 97/97/97
f 89/89/89 98/98/98 90/90/90
f 99/99/99 90/90/90 98/98/98
f 91/91/91 100/100/100 92/92/92
f 101/101/101 92/92/92 100/100/100
f 92/92/92 101/101/101 93/93/93
f 102/102/102 93/93/93 101/101/101
f 93/93/93 102/102/102 94/94/94
f 103/103/103 94/94/94 102/102/102
f 94/94/94 103/103/103 95/95/95
f 104/104/104 95/95/95 103/103/103
f 95/95/95 104/104/104 96/96/96
f 105/105/105 96/96/96 104/104/104
f 96/96/96 105/105/105 97/97/97
f 106/106/106 97/97/97 105/105/105
f 97/97/97 106/106/106 98/98/98
f 107/107/107 98/98/98 106/106/106
f 98/98/98 107/107/107 99/99/99
f 108/108/108 99/99/99 107/107/107
f 100/100/100 109/109/109 101/101/101
f 110/110/110 101/101/101 109/109/109
f 101/101/101 110/110/110 102/102/102
f 111/111/111 102/102/102 110/110/110
f 102/102/102 111/111/111 103/103/103
f 112/112/112 103/103/103 111/111/111
f 103/103/103 112/112/112 104/104/104
f 113/113/113 104/104/104 112/112/112
f 104/104/104 113/113/113 105/105/105
f 114/114/114 105/105/105 113/113/113
f 105/105/105 114/114/114 106/106/106
f 115/115/115 106/106/106 114/114/114
f 106/106/106 115/115/115 107/107/107
f 116/116/116 107/107/107 115/115/115
f 107/107/107 116/116/116 108/108/108
f 117/117/117 108/108/108 116/116/116
f 109/109/109 118/118/118 110/110/110
f 119/119/119 110/110/110 118/118/118
f 110/110/110 119/119/119 111/111/111
f 120/120/120 111/111/111 119/119/119
f 111/111/111 120/120/120 112/112/112
f 121/121/121 112/112/112 120/120/120
f 112/112/112 121/121/121 113/113/113
f 122/122/122 113/113/113 121/121/121
f 113/113/113 122/122/122 114/114/114
f 123/123/123 114/114/114 122/122/122
f 114/114/114 123/123/123 115/115/115
f 124/124/124 115/115/115 123/123/123
f 115/115/115 124/124/124 116/116/116
f 125/125/125 116/116/116 124/124/124
f 116/116/116 125/125/125 117/117/117
f 126/126/126 117/117/117 125/125/125
f 118/118/118 127/127/127 119/119/119
f 128/128/128 119/119/119 127/127/127
f 119/119/119 128/128/128 120/120/120
f 129/129/129 120/120/120 128/128/128
f 120/120/120 129/129/129 121/121/121
f 130/130/130 121/121/121 129/129/129
f 121/121/121 130/130/130 122/122/122
f 131/131/131 122/122/122 130/130/130
f 122/122/122 131/131/131 123/123/123
f 132/132/132 123/123/123 131/131/131
f 123/123/123 132/132/132 124/124/124
f 133/133/133 124/124/124 132/132/132
f 124/124/124 133/133/133 125/125/125
f 134/134/134 125/125/125 133/133/133
f 125/125/125 134/134/134 126/126/126
f 135/135/135 126/126/126 134/134/134
f 127/127/127 136/136/136 128/128/128
f 137/137/137 128/128/128 136/136/136
f 128/128/128 137/137/137 129/129/129
f 138/138/138 129/129/129 137/137/137
f 129/129/129 138/138/138 130/130/130
f 139/139/139 130/130/130 138/138/138
f 130/130/130 139/139/139 131/131/131
f 140/140/140 131/131/131 139/139/139
f 131/131/131 140/140/140 132/132/132
f 141/141/141 132/132/132 140/140/140
f 132/132/132 141/141/141 133/133/133
f 142/142/142 133/133/133 141/141/141
f 133/133/133 142/142/142 134/134/134
f 143/143/143 134/134/134 142/142/142
f 134/134/134 143/143/143 135/135/135
f 144/144/144 135/135/135 143/143/143
f 136/136/136 145/145/145 137/137/137
f 146/146/146 137/137/137 145/145/145
f 137/137/137 146/146/146 138/138/138
f 147/147/147 138/138/138 146/146/146
f 138/138/138 147/147/147 139/139/139
f 148/148/148 139/139/139 147/147/147
f 139/139/139 148/148/148 140/140/140
f 149/149/149 140/140/140 148/148/148
f 140/140/140 149/149/149 141/141/141
f 150/150/150 141/141/141 149/149/149
f 141/141/141 150/150/150 142/142/142
f 151/151/151 142/142/142 150/150/150
f 142/142/142 151/151/151 143/143/143
f 152/152/152 143/143/143 151/151/151
f 143/143/143 152/152/152 144/144/144
f 153/153/153 144/144/144 152/152/152
f 145/145/145 154/154/154 146/146/146
f 155/155/155 146/146/146 154/154/154
f 146/146/146 155/155/155 147/147/147
f 156/156/156 147/147/147 155/155/155
f 147/147/147 156/156/156 148/148/148
f 157/157/157 148/148/148 156/156/156
f 148/148/148 157/157/157 149/149/149
f 158/158/158 149/149/149 157/157/157
f 149/149/149 158/158/158 150/150/150
f 159/159/159 150/150/150 158/158/158
f 150/150/150 159/159/159 151/151/151
f 160/160/160 151/151/151 159/159/159
f 151/151/151 160/160/160 152/152/152
f 161/161/161 152/152/152 160/160/160
f 152/152/152 161/161/161 153/153/153
f 162/162/162 153/153/153 161/161/161
f 154/154/154 163/163/163 155/155/155
f 164/164/164 155/155/155 163/163/163
f 155/155/155 164/164/164 156/156/156
f 165/165/165 156/156/156 164/164/164
f 156/156/156 165/165/165 157/157/157
f 166/166/166 157/157/157 165/165/165
f 157/157/157 166/166/166 158/158/158
f 167/167/167 158/158/158 166/166/166
f 158/158/158 167/167/167 159/159/159
f 168/168/168 159/159/159 167/167/167
f 159/159/159 168/168/168 160/160/160
f 169/169/169 160/160/160 168/168/168
f 160/160/160 169/169/169 161/161/161
f 170/170/170 161/161/161 169/169/169
f 161/161/161 170/170/170 162/162/162
f 171/171/171 162/162/162 170/170/170
f 163/163/163 172/172/172 164/164/164
f 173/173/173 164/164/164 172/172/172
f 164/164/164 173/173/173 165/165/165
f 174/174/174 165/165/165 173/173/173
f 165/165/165 174/174/174 166/166/166
f 175/175/175 166/166/166 174/174/174
f 166/166/166 175/175/175 167/167/167
f 176/176/176 167/167/167 175/175/175
f 167/167/167 176/176/176 168/168/168
f 177/177/177 168/168/168 176/176/176
f 168/168/168 177/177/177 169/169/169
f 178/178/178 169/169/169 177/177/177
f 169/169/169 178/178/178 170/170/170
f 179/179/179 170/170/170 178/178/178
f 170/170/170 179/179/179 171/171/171
f 180/180/180 171/171/171 179/179/179
f 172/172/172 181/181/181 173/173/173
f 182/182/182 173/173/173 181/181/181
f 173/173/173 182/182/182 174/174/174
f 183/183/183 174/174/174 182/182/182
f 174/174/174 183/183/183 175/175/175
f 184/184/184 175/175/175 183/183/183
f 175/175/175 184/184/184 176/176/176
f 185/185/185 176/176/176 184/184/184
f 176/176/176 185/185/185 177/177/177
f 186/186/186 177/177/177 185/185/185
f 177/177/177 186/186/186 178/178/178
f 187/187/187 178/178/178 186/186/186
f 178/178/178 187/187/187 179/179/179
f 188/188/188 179/179/179 187/187/187
f 179/179/179 188/188/188 180/180/180
f 189/189/189 180/180/180 188/188/188
f 181/181/181 190/190/190 182/182/182
f 191/191/191 182/182/182 190/190/190
f 182/182/182 191/191/191 183/183/183
f 192/192/192 183/183/183 191/191/191
f 183/183/183 192/192/192 184/184/184
f 193/193/193 184/184/184 192/192/192
f 184/184/184 193/193/193 185/185/185
f 194/194/194 185/185/185 193/193/193
f 185/185/185 194/194/194 186/186/186
f 195/195/195 186/186/186 194/194/194
f 186/186/186 195/195/195 187/187/187
f 196/196/196 187/187/187 195/195/195
f 187/187/187 196/196/196 188/188/188
f 197/197/197 188/188/188 196/196/196
f 188/188/188 197/197/197 189/189/189
f 198/198/198 189/189/189 197/197/197
f 190/190/190 199/199/199 191/191/191
f 200/200/200 191/191/191 199/199/199
f 191/191/191 200/200/200 192/192/192
f 201/201/201 192/192/192 200/200/200
f 192/192/192 201/201/201 193/193/193
f 202/202/202 193/193/193 201/201/201
f 193/193/193 202/202/202 194/194/194
f 203/203/203 194/194/194 202/202/202
f 194/194/194 203/203/203 195/195/195
f 204/204/204 195/195/195 203/203/203
f 195/195/195 204/204/204 196/196/196
f 205/205/205 196/196/196 204/204/204
f 196/196/196 205/205/205 197/197/197
f 206/206/206 197/197/197 205/205/205
f 197/197/197 206/206/206 198/198/198
f 207/207/207 198/198/198 206/206/206
f 199/199/199 208/208/208 200/200/200
f 209/209/209 200/200/200 208/208/208
f 200/200/200 209/209/209 201/201/201
f 210/210/210 201/201/201 209/209/209
f 201/201/201 210/210/210 202/202/202
f 211/211/211 202/202/202 210/210/210
f 202/202/202 211/211/211 203/203/203
f 212/212/212 203/203/203 211/211/211
f 203/203/203 212/212/212 204/204/204
f 213/213/213 204/204/204 212/212/212
f 204/204/204 213/213/213 205/205/205
f 214/214/214 205/205/205 213/213/213
f 205/205/205 214/214/214 206/206/206
f 215/215/215 206/206/206 214/214/214
f 206/206/206 215/215/215 207/207/207
f 216/216/216 207/207/207 215/215/215
f 208/208/208 217/217/217 209/209/209
f 218/218/218 209/209/209 217/217/217
f 209/209/209 218/218/218 210/210/210
f 219/219/219 210/210/210 218/218/218
f 210/210/210 219/219/219 211/211/211
f 220/220/220 211/211/211 219/219/219
f 211/211/211 220/220/220 212/212/212
f 221/221/221 212/212/212 220/220/220
f 212/212/212 221/221/221 213/213/213
f 222/222/222 213/213/213 221/221/221
f 213/213/213 222/222/222 214/214/214
f 223/223/223 214/214/214 222/222/222
f 214/214/214 223/223/223 215/215/215
f 224/224/224 215/215/215 223/223/223
f 215/215/215 224/224/224 216/216/216
f 225/225/225 216/216/216 224/224/224
