o shape_080
v 0 0 0
v 0 0 0.5
v 0 1.100000023841858 0.5
v 0 2 0
v 0 0 0
v 0.129409521818161 0 0.4829629063606262
v 0.129409521818161 1.100000023841858 0.4829629063606262
v 0 2 0
v 0 0 0
v 0.25 0 0.4330126941204071
v 0.25 1.100000023841858 0.4330126941204071
v 0 2 0
v 0 0 0
v 0.3535533845424652 0 0.3535533845424652
v 0.3535533845424652 1.100000023841858 0.3535533845424652
v 0 2 0
v 0 0 0
v 0.4330126941204071 0 0.25
v 0.4330126941204071 1.100000023841858 0.25
v 0 2 0
v 0 0 0
v 0.4829629063606262 0 0.129409521818161
v 0.4829629063606262 1.100000023841858 0.129409521818161
v 0 2 0
v 0 0 0
v 0.5 0 3.0616171314629196e-17
v 0.5 1.100000023841858 3.0616171314629196e-17
v 0 2 0
v 0 0 0
v 0.4829629063606262 0 -0.129409521818161
v 0.4829629063606262 1.100000023841858 -0.129409521818161
v 0 2 0
v 0 0 0
v 0.4330126941204071 0 -0.25
v 0.4330126941204071 1.100000023841858 -0.25
v 0 2 0
v 0 0 0
v 0.3535533845424652 0 -0.3535533845424652
v 0.3535533845424652 1.100000023841858 -0.3535533845424652
v 0 2 0
v 0 0 0
v 0.25 0 -0.4330126941204071
v 0.25 1.100000023841858 -0.4330126941204071
v 0 2 0
v 0 0 0
v 0.129409521818161 0 -0.4829629063606262
v 0.129409521818161 1.100000023841858 -0.4829629063606262
v 0 2 0
v 0 0 0
v 6.123234262925839e-17 0 -0.5
v 6.123234262925839e-17 1.100000023841858 -0.5
v 0 2 0
v 0 0 0
v -0.129409521818161 0 -0.4829629063606262
v -0.129409521818161 1.100000023841858 -0.4829629063606262
v 0 2 0
v 0 0 0
v -0.25 0 -0.4330126941204071
v -0.25 1.100000023841858 -0.4330126941204071
v 0 2 0
v 0 0 0
v -0.3535533845424652 0 -0.3535533845424652
v -0.3535533845424652 1.100000023841858 -0.3535533845424652
v 0 2 0
v 0 0 0
v -0.4330126941204071 0 -0.25
v -0.4330126941204071 1.100000023841858 -0.25
v 0 2 0
v 0 0 0
v -0.4829629063606262 0 -0.129409521818161
v -0.4829629063606262 1.100000023841858 -0.129409521818161
v 0 2 0
v 0 0 0
v -0.5 0 -9.184850732644269e-17
v -0.5 1.100000023841858 -9.184850732644269e-17
v 0 2 0
v 0 0 0
v -0.4829629063606262 0 0.129409521818161
v -0.4829629063606262 1.100000023841858 0.129409521818161
v 0 2 0
v 0 0 0
v -0.4330126941204071 0 0.25
v -0.4330126941204071 1.100000023841858 0.25
v 0 2 0
v 0 0 0
v -0.3535533845424652 0 0.3535533845424652
v -0.3535533845424652 1.100000023841858 0.3535533845424652
v 0 2 0
v 0 0 0
v -0.25 0 0.4330126941204071
v -0.25 1.100000023841858 0.4330126941204071
v 0 2 0
v 0 0 0
v -0.129409521818161 0 0.4829629063606262
v -0.129409521818161 1.100000023841858 0.4829629063606262
v 0 2 0
v 0 0 0
v -1.2246468525851679e-16 0 0.5
v -1.2246468525851679e-16 1.100000023841858 0.5
v 0 2 0
vt 0 0
vt 0 0.3333333432674408
vt 0 0.6666666865348816
vt 0 1
vt 0.0416666679084301 0
vt 0.0416666679084301 0.3333333432674408
vt 0.0416666679084301 0.6666666865348816
vt 0.0416666679084301 1
vt 0.0833333358168602 0
vt 0.0833333358168602 0.3333333432674408
vt 0.0833333358168602 0.6666666865348816
vt 0.0833333358168602 1
vt 0.125 0
vt 0.125 0.3333333432674408
vt 0.125 0.6666666865348816
vt 0.125 1
vt 0.1666666716337204 0
vt 0.1666666716337204 0.3333333432674408
vt 0.1666666716337204 0.6666666865348816
vt 0.1666666716337204 1
vt 0.2083333283662796 0
vt 0.2083333283662796 0.3333333432674408
vt 0.2083333283662796 0.6666666865348816
vt 0.2083333283662796 1
vt 0.25 0
vt 0.25 0.3333333432674408
vt 0.25 0.6666666865348816
vt 0.25 1
vt 0.2916666567325592 0
vt 0.2916666567325592 0.3333333432674408
vt 0.2916666567325592 0.6666666865348816
vt 0.2916666567325592 1
vt 0.3333333432674408 0
vt 0.3333333432674408 0.3333333432674408
vt 0.3333333432674408 0.6666666865348816
vt 0.3333333432674408 1
vt 0.375 0
vt 0.375 0.3333333432674408
vt 0.375 0.6666666865348816
vt 0.375 1
vt 0.4166666567325592 0
vt 0.4166666567325592 0.3333333432674408
vt 0.4166666567325592 0.6666666865348816
vt 0.4166666567325592 1
vt 0.4583333432674408 0
vt 0.4583333432674408 0.3333333432674408
vt 0.4583333432674408 0.6666666865348816
vt 0.4583333432674408 1
vt 0.5 0
vt 0.5 0.3333333432674408
vt 0.5 0.6666666865348816
vt 0.5 1
vt 0.5416666865348816 0
vt 0.5416666865348816 0.3333333432674408
vt 0.5416666865348816 0.6666666865348816
vt 0.5416666865348816 1
vt 0.5833333134651184 0
vt 0.5833333134651184 0.3333333432674408
vt 0.5833333134651184 0.6666666865348816
vt 0.5833333134651184 1
vt 0.625 0
vt 0.625 0.3333333432674408
vt 0.625 0.6666666865348816
vt 0.625 1
vt 0.6666666865348816 0
vt 0.6666666865348816 0.3333333432674408
vt 0.6666666865348816 0.6666666865348816
vt 0.6666666865348816 1
vt 0.7083333134651184 0
vt 0.7083333134651184 0.3333333432674408
vt 0.7083333134651184 0.6666666865348816
vt 0.7083333134651184 1
vt 0.75 0
vt 0.75 0.3333333432674408
vt 0.75 0.6666666865348816
vt 0.75 1
vt 0.7916666865348816 0
vt 0.7916666865348816 0.3333333432674408
vt 0.7916666865348816 0.6666666865348816
vt 0.7916666865348816 1
vt 0.8333333134651184 0
vt 0.8333333134651184 0.3333333432674408
vt 0.8333333134651184 0.6666666865348816
vt 0.8333333134651184 1
vt 0.875 0
vt 0.875 0.3333333432674408
vt 0.875 0.6666666865348816
vt 0.875 1
vt 0.9166666865348816 0
vt 0.9166666865348816 0.3333333432674408
vt 0.9166666865348816 0.6666666865348816
vt 0.9166666865348816 1
vt 0.9583333134651184 0
vt 0.9583333134651184 0.3333333432674408
vt 0.9583333134651184 0.6666666865348816
vt 0.9583333134651184 1
vt 1 0
vt 1 0.3333333432674408
vt 1 0.6666666865348816
vt 1 1
vn 0 0 0
vn 0.11900042210170532 -0.4108625425832822 0.9038975996436854
vn 0.12888871375017805 0.15790428517325653 0.9790066068172103
vn 0.11433040158920822 0.4824584641601067 0.8684252354881921
vn 0 -1 0
vn 0.20694658276104116 -0.2897519485487891 0.9344607643960806
vn 0.28078927845527746 0.19233978774924854 0.9402993072171959
vn 0.3351996229177472 0.4824584702623879 0.8092434968956356
vn 0 -1 0
vn 0.44175126715990665 -0.28975194408837573 0.8490580833250594
vn 0.5145889599056165 0.19233979577843086 0.8355857857235051
vn 0.5332255964546216 0.4824584727074925 0.6949131495362328
vn 0 -1 0
vn 0.6464513457173162 -0.28975197300397076 0.7057934908743327
vn 0.7133203095356626 0.1923398063066179 0.6739284345639968
vn 0.6949131495362328 0.4824584727074925 0.5332255964546216
vn 0 -1 0
vn 0.8070968503517878 -0.28975198082134185 0.514430232162081
vn 0.86343999921559 0.19233981265988268 0.4663440406186648
vn 0.8092434968956356 0.4824584702623879 0.3351996229177472
vn 0 -1 0
vn 0.9127400235152029 -0.28975196776637396 0.2880094558325839
vn 0.954717704550987 0.19233980952930876 0.22697907896350955
vn 0.8684252354881921 0.4824584641601067 0.11433040158920822
vn 0 -1 0
vn 0.9561814899341557 -0.28975198380562717 0.041961246263683784
vn 0.9809329953590492 0.19233980476465604 -0.02785422982273212
vn 0.8684252354881921 0.4824584641601067 -0.11433040158920822
vn 0 -1 0
vn 0.9344607643960806 -0.2897519485487891 -0.20694658276104116
vn 0.9402993072171959 0.19233978774924854 -0.28078927845527746
vn 0.8092434968956356 0.4824584702623879 -0.3351996229177472
vn 0 -1 0
vn 0.8490580833250594 -0.28975194408837573 -0.44175126715990665
vn 0.8355857857235051 0.19233979577843086 -0.5145889599056165
vn 0.6949131495362328 0.4824584727074925 -0.5332255964546216
vn 0 -1 0
vn 0.7057934908743327 -0.28975197300397076 -0.6464513457173162
vn 0.6739284345639968 0.1923398063066179 -0.7133203095356626
vn 0.5332255964546216 0.4824584727074925 -0.6949131495362328
vn 0 -1 0
vn 0.514430232162081 -0.28975198082134185 -0.8070968503517878
vn 0.4663440406186648 0.19233981265988268 -0.86343999921559
vn 0.3351996229177472 0.4824584702623879 -0.8092434968956356
vn 0 -1 0
vn 0.2880094558325839 -0.28975196776637396 -0.9127400235152029
vn 0.22697907896350955 0.19233980952930876 -0.954717704550987
vn 0.11433040158920822 0.4824584641601067 -0.8684252354881921
vn 0 -1 0
vn 0.041961246263683784 -0.28975198380562717 -0.9561814899341557
vn -0.02785422982273212 0.19233980476465604 -0.9809329953590492
vn -0.11433040158920822 0.4824584641601067 -0.8684252354881921
vn 0 -1 0
vn -0.20694658276104116 -0.2897519485487891 -0.9344607643960806
vn -0.28078927845527746 0.19233978774924854 -0.9402993072171959
vn -0.3351996229177472 0.4824584702623879 -0.8092434968956356
vn 0 -1 0
vn -0.44175126715990665 -0.28975194408837573 -0.8490580833250594
vn -0.5145889599056165 0.19233979577843086 -0.8355857857235051
vn -0.5332255964546216 0.4824584727074925 -0.6949131495362328
vn 0 -1 0
vn -0.6464513457173162 -0.28975197300397076 -0.7057934908743327
vn -0.7133203095356626 0.1923398063066179 -0.6739284345639968
vn -0.6949131495362328 0.4824584727074925 -0.5332255964546216
vn 0 -1 0
vn -0.8070968503517878 -0.28975198082134185 -0.514430232162081
vn -0.86343999921559 0.19233981265988268 -0.4663440406186648
vn -0.8092434968956356 0.4824584702623879 -0.3351996229177472
vn 0 -1 0
vn -0.9127400235152029 -0.28975196776637396 -0.2880094558325839
vn -0.954717704550987 0.19233980952930876 -0.22697907896350955
vn -0.8684252354881921 0.4824584641601067 -0.11433040158920822
vn 0 -1 0
vn -0.9561814899341557 -0.28975198380562717 -0.041961246263683784
vn -0.9809329953590492 0.19233980476465604 0.02785422982273212
vn -0.8684252354881921 0.4824584641601067 0.11433040158920822
vn 0 -1 0
vn -0.9344607643960806 -0.2897519485487891 0.20694658276104116
vn -0.9402993072171959 0.19233978774924854 0.28078927845527746
vn -0.8092434968956356 0.4824584702623879 0.3351996229177472
vn 0 -1 0
vn -0.8490580833250594 -0.28975194408837573 0.44175126715990665
vn -0.8355857857235051 0.19233979577843086 0.5145889599056165
vn -0.6949131495362328 0.4824584727074925 0.5332255964546216
vn 0 -1 0
vn -0.7057934908743327 -0.28975197300397076 0.6464513457173162
vn -0.6739284345639968 0.1923398063066179 0.7133203095356626
vn -0.5332255964546216 0.4824584727074925 0.6949131495362328
vn 0 -1 0
vn -0.514430232162081 -0.28975198082134185 0.8070968503517878
vn -0.4663440406186648 0.19233981265988268 0.86343999921559
vn -0.3351996229177472 0.4824584702623879 0.8092434968956356
vn 0 -1 0
vn -0.2880094558325839 -0.28975196776637396 0.9127400235152029
vn -0.22697907896350955 0.19233980952930876 0.954717704550987
vn -0.11433040158920822 0.4824584641601067 0.8684252354881921
vn 0 -1 0
vn -0.12733371513648523 -0.21981708632649885 0.9671952096389171
vn -0.12669256673811943 0.24058128057016984 0.9623251222806793
vn 0 0 0
f 1/1/1 5/5/5 2/2/2
f 6/6/6 2/2/2 5/5/5
f 2/2/2 6/6/6 3/3/3
f 7/7/7 3/3/3 6/6/6
f 3/3/3 7/7/7 4/4/4
f 8/8/8 4/4/4 7/7/7
f 5/5/5 9/9/9 6/6/6
f 10/10/10 6/6/6 9/9/9
f 6/6/6 10/10/10 7/7/7
f 11/11/11 7/7/7 10/10/10
f 7/7/7 11/11/11 8/8/8
f 12/12/12 8/8/8 11/11/11
f 9/9/9 13/13/13 10/10/10
f 14/14/14 10/10/10 13/13/13
f 10/10/10 14/14/14 11/11/11
f 15/15/15 11/11/11 14/14/14
f 11/11/11 15/15/15 12/12/12
f 16/16/16 12/12/12 15/15/15
f 13/13/13 17/17/17 14/14/14
f 18/18/18 14/14/14 17/17/17
f 14/14/14 18/18/18 15/15/15
f 19/19/19 15/15/15 18/18/18
f 15/15/15 19/19/19 16/16/16
f 20/20/20 16/16/16 19/19/19
f 17/17/17 21/21/21 18/18/18
f 22/22/22 18/18/18 21/21/21
f 18/18/18 22/22/22 19/19/19
f 23/23/23 19/19/19 22/22/22
f 19/19/19 23/23/23 20/20/20
f 24/24/24 20/20/20 23/23/23
f 21/21/21 25/25/25 22/22/22
f 26/26/26 22/22/22 25/25/25
f 22/22/22 26/26/26 23/23/23
f 27/27/27 23/23/23 26/26/26
f 23/23/23 27/27/27 24/24/24
f 28/28/28 24/24/24 27/27/27
f 25/25/25 29/29/29 26/26/26
f 30/30/30 26/26/26 29/29/29
f 26/26/26 30/30/30 27/27/27
f 31/31/31 27/27/27 30/30/30
f 27/27/27 31/31/31 28/28/28
f 32/32/32 28/28/28 31/31/31
f 29/29/29 33/33/33 30/30/30
f 34/34/34 30/30/30 33/33/33
f 30/30/30 34/34/34 31/31/31
f 35/35/35 31/31/31 34/34/34
f 31/31/31 35/35/35 32/32/32
f 36/36/36 32/32/32 35/35/35
f 33/33/33 37/37/37 34/34/34
f 38/38/38 34/34/34 37/37/37
f 34/34/34 38/38/38 35/35/35
f 39/39/39 35/35/35 38/38/38
f 35/35/35 39/39/39 36/36/36
f 40/40/40 36/36/36 39/39/39
f 37/37/37 41/41/41 38/38/38
f 42/42/42 38/38/38 41/41/41
f 38/38/38 42/42/42 39/39/39
f 43/43/43 39/39/39 42/42/42
f 39/39/39 43/43/43 40/40/40
f 44/44/44 40/40/40 43/43/43
f 41/41/41 45/45/45 42/42/42
f 46/46/46 42/42/42 45/45/45
f 42/42/42 46/46/46 43/43/43
f 47/47/47 43/43/43 46/46/46
f 43/43/43 47/47/47 44/44/44
f 48/48/48 44/44/44 47/47/47
f 45/45/45 49/49/49 46/46/46
f 50/50/50 46/46/46 49/49/49
f 46/46/46 50/50/50 47/47/47
f 51/51/51 47/47/47 50/50/50
f 47/47/47 51/51/51 48/48/48
f 52/52/52 48/48/48 51/51/51
f 49/49/49 53/53/53 50/50/50
f 54/54/54 50/50/50 53/53/53
f 50/50/50 54/54/54 51/51/51
f 55/55/55 51/51/51 54/54/54
f 51/51/51 55/55/55 52/52/52
f 56/56/56 52/52/52 55/55/55
f 53/53/53 57/57/57 54/54/54
f 58/58/58 54/54/54 57/57/57
f 54/54/54 58/58/58 55/55/55
f 59/59/59 55/55/55 58/58/58
f 55/55/55 59/59/59 56/56/56
f 60/60/60 56/56/56 59/59/59
f 57/57/57 61/61/61 58/58/58
f 62/62/62 58/58/58 61/61/61
f 58/58/58 62/62/62 59/59/59
f 63/63/63 59/59/59 62/62/62
f 59/59/59 63/63/63 60/60/60
f 64/64/64 60/60/60 63/63/63
f 61/61/61 65/65/65 62/62/62
f 66/66/66 62/62/62 65/65/65
f 62/62/62 66/66/66 63/63/63
f 67/67/67 63/63/63 66/66/66
f 63/63/63 67/67/67 64/64/64
f 68/68/68 64/64/64 67/67/67
f 65/65/65 69/69/69 66/66/66
f 70/70/70 66/66/66 69/69/69
f 66/66/66 70/70/70 67/67/67
f 71/71/71 67/67/67 70/70/70
f 67/67/67 71/71/71 68/68/68
f 72/72/72 68/68/68 71/71/71
f 69/69/69 73/73/73 70/70/70
f 74/74/74 70/70/70 73/73/73
f 70/70/70 74/74/74 71/71/71
f 75/75/75 71/71/71 74/74/74
f 71/71/71 75/75/75 72/72/72
f 76/76/76 72/72/72 75/75/75
f 73/73/73 77/77/77 74/74/74
f 78/78/78 74/74/74 77/77/77
f 74/74/74 78/78/78 75/75/75
f 79/79/79 75/75/75 78/78/78
f 75/75/75 79/79/79 76/76/76
f 80/80/80 76/76/76 79/79/79
f 77/77/77 81/81/81 78/78/78
f 82/82/82 78/78/78 81/81/81
f 78/78/78 82/82/82 79/79/79
f 83/83/83 79/79/79 82/82/82
f 79/79/79 83/83/83 80/80/80
f 84/84/84 80/80/80 83/83/83
f 81/81/81 85/85/85 82/82/82
f 86/86/86 82/82/82 85/85/85
f 82/82/82 86/86/86 83/83/83
f 87/87/87 83/83/83 86/86/86
f 83/83/83 87/87/87 84/84/84
f 88/88/88 84/84/84 87/87/87
f 85/85/85 89/89/89 86/86/86
f 90/90/90 86/86/86 89/89/89
f 86/86/86 90/90/90 87/87/87
f 91/91/91 87/87/87 90/90/90
f 87/87/87 91/91/91 88/88/88
f 92/92/92 88/88/88 91/91/91
f 89/89/89 93/93/93 90/90/90
f 94/94/94 90/90/90 93/93/93
f 90/90/90 94/94/94 91/91/91
f 95/95/95 91/91/91 94/94/94
f 91/91/91 95/95/95 92/92/92
f 96/96/96 92/92/92 95/95/95
f 93/93/93 97/97/97 94/94/94
f 98/98/98 94/94/94 97/97/97
f 94/94/94 98/98/98 95/95/95
f 99/99/99 95/95/95 98/98/98
f 95/95/95 99/99/99 96/96/96
f 100/100/100 96/96/96 99/99/99
