o shape_091
v 0.7963714599609375 0 0
v 0.7958359718322754 0.06544693559408188 0
v 0.7942301034927368 0.1308763325214386 0
v 0.7915533781051636 0.19627070426940918 0
v 0.7878073453903198 0.26161253452301025 0
v 0.7829924821853638 0.32688429951667786 0
v 0.7771104574203491 0.3920685946941376 0
v 0.7701627612113953 0.45714789628982544 0
v 0.7621510624885559 0.522104799747467 0
v 0.7530778646469116 0.5869219303131104 0
v 0.7429450750350952 0.6515819430351257 0
v 0.7317555546760559 0.7160674333572388 0
v 0.7195125222206116 0.7803612947463989 0
v 0.7062197327613831 0.8444462418556213 0
v 0.6918794512748718 0.9083051085472107 0
v 0.6764965653419495 0.9719207286834717 0
v 0.660074770450592 1.0352762937545776 0
v 0.6426188945770264 1.0983545780181885 0
v 0.6241329908370972 1.1611387729644775 0
v 0.6046222448348999 1.2236120700836182 0
v 0.5840920209884644 1.2857578992843628 0
v 0.5625478625297546 1.3475594520568848 0
v 0.5399954915046692 1.409000277519226 0
v 0.5164405107498169 1.4700638055801392 0
v 0.4918898642063141 1.5307338237762451 0
v 0.46634960174560547 1.590993881225586 0
v 0.43982693552970886 1.650828242301941 0
v 0.4123287796974182 1.7102203369140625 0
v 0.3838624060153961 1.7691547870635986 0
v 0.35443589091300964 1.827615737915039 0
v 0.3240565359592438 1.8855869770050049 0
v 0.29273277521133423 1.9430537223815918 0
v 0.2604731321334839 2 0
v 0.6798396706581116 0 0.3586486279964447
v 0.6793196201324463 0.0635402649641037 0.3586486279964447
v 0.6777601838111877 0.12706352770328522 0.3586486279964447
v 0.6751618385314941 0.1905527561903 0.3586486279964447
v 0.6715249419212341 0.25399094820022583 0.3586486279964447
v 0.6668503284454346 0.31736117601394653 0.3586486279964447
v 0.6611396074295044 0.3806464374065399 0.3586486279964447
v 0.6543943881988525 0.44382980465888977 0.3586486279964447
v 0.6466158628463745 0.5068942904472351 0.3586486279964447
v 0.6378068923950195 0.5698230862617493 0.3586486279964447
v 0.62796950340271 0.6325993537902832 0.3586486279964447
v 0.6171060800552368 0.6952062845230103 0.3586486279964447
v 0.6052199602127075 0.7576270699501038 0.3586486279964447
v 0.592313826084137 0.8198450207710266 0.3586486279964447
v 0.5783917903900146 0.8818435072898865 0.3586486279964447
v 0.5634570717811584 0.9436058402061462 0.3586486279964447
v 0.5475137233734131 1.0051155090332031 0.3586486279964447
v 0.5305662155151367 1.0663561820983887 0.3586486279964447
v 0.5126189589500427 1.1273112297058105 0.3586486279964447
v 0.49367639422416687 1.187964677810669 0.3586486279964447
v 0.47374460101127625 1.2482999563217163 0.3586486279964447
v 0.4528280198574066 1.3083009719848633 0.3586486279964447
v 0.43093231320381165 1.3679518699645996 0.3586486279964447
v 0.40806353092193604 1.4272364377975464 0.3586486279964447
v 0.3842281401157379 1.486138939857483 0.3586486279964447
v 0.359432190656662 1.544643521308899 0.3586486279964447
v 0.33368217945098877 1.6027345657348633 0.3586486279964447
v 0.30698496103286743 1.6603965759277344 0.3586486279964447
v 0.2793481945991516 1.717613935470581 0.3586486279964447
v 0.25077876448631287 1.7743715047836304 0.3586486279964447
v 0.22128477692604065 1.830654263496399 0.3586486279964447
v 0.19087347388267517 1.8864467144012451 0.3586486279964447
v 0.15955355763435364 1.9417340755462646 0.3586486279964447
v 0.37475481629371643 0 0.5803056955337524
v 0.37427598237991333 0.05854854732751846 0.5803056955337524
v 0.3728390038013458 0.117081418633461 0.5803056955337524
v 0.37044471502304077 0.17558296024799347 0.5803056955337524
v 0.36709311604499817 0.23403747379779816 0.5803056955337524
v 0.36278581619262695 0.2924293279647827 0.5803056955337524
v 0.357524037361145 0.350742906332016 0.5803056955337524
v 0.35130858421325684 0.40896257758140564 0.5803056955337524
v 0.34414148330688477 0.4670727849006653 0.5803056955337524
v 0.33602434396743774 0.5250579118728638 0.5803056955337524
v 0.3269595801830292 0.5829024314880371 0.5803056955337524
v 0.31694963574409485 0.6405909657478333 0.5803056955337524
v 0.3059973418712616 0.6981079578399658 0.5803056955337524
v 0.29410508275032043 0.7554380893707275 0.5803056955337524
v 0.28127655386924744 0.8125659227371216 0.5803056955337524
v 0.2675153613090515 0.8694761991500854 0.5803056955337524
v 0.2528243362903595 0.9261537790298462 0.5803056955337524
v 0.2372083067893982 0.9825833439826965 0.5803056955337524
v 0.22067095339298248 1.0387499332427979 0.5803056955337524
v 0.20321668684482574 1.0946383476257324 0.5803056955337524
v 0.1848505735397339 1.1502336263656616 0.5803056955337524
v 0.16557706892490387 1.2055211067199707 0.5803056955337524
v 0.14540159702301025 1.2604857683181763 0.5803056955337524
v 0.12432963401079178 1.3151129484176636 0.5803056955337524
v 0.10236664116382599 1.3693881034851074 0.5803056955337524
v 0.07951845973730087 1.423296570777893 0.5803056955337524
v 0.05579136312007904 1.4768239259719849 0.5803056955337524
v 0.031191818416118622 1.5299559831619263 0.5803056955337524
v 0.005725885275751352 1.5826784372329712 0.5803056955337524
v -0.020598962903022766 1.6349772214889526 0.5803056955337524
v -0.047776054590940475 1.6868382692337036 0.5803056955337524
v -0.07579811662435532 1.7382477521896362 0.5803056955337524
v -0.10465767979621887 1.789191722869873 0.5803056955337524
v -0.0023506456054747105 0 0.5803056955337524
v -0.002779192989692092 0.05237844958901405 0.5803056955337524
v -0.004064633045345545 0.1047428771853447 0.5803056955337524
v -0.006206763442605734 0.15707926452159882 0.5803056955337524
v -0.009204776026308537 0.2093735933303833 0.5803056955337524
v -0.01305826660245657 0.2616118788719177 0.5803056955337524
v -0.017765618860721588 0.3137800991535187 0.5803056955337524
v -0.023326227441430092 0.3658643364906311 0.5803056955337524
v -0.02973807230591774 0.4178506135940552 0.5803056955337524
v -0.03699973598122597 0.4697250425815582 0.5803056955337524
v -0.04510900005698204 0.5214737057685852 0.5803056955337524
v -0.05406404286623001 0.5730827450752258 0.5803056955337524
v -0.06386223435401917 0.6245383620262146 0.5803056955337524
v -0.0745011642575264 0.6758267283439636 0.5803056955337524
v -0.08597778528928757 0.7269342541694641 0.5803056955337524
v -0.0982888713479042 0.7778470516204834 0.5803056955337524
v -0.11143159866333008 0.8285516500473022 0.5803056955337524
v -0.12540212273597717 0.8790345191955566 0.5803056955337524
v -0.14019659161567688 0.9292818903923035 0.5803056955337524
v -0.1558113992214203 0.9792805910110474 0.5803056955337524
v -0.17224207520484924 1.0290170907974243 0.5803056955337524
v -0.1894843876361847 1.0784779787063599 0.5803056955337524
v -0.20753368735313416 1.1276503801345825 0.5803056955337524
v -0.22638492286205292 1.1765207052230835 0.5803056955337524
v -0.2460334300994873 1.2250760793685913 0.5803056955337524
v -0.26647379994392395 1.2733033895492554 0.5803056955337524
v -0.2877003252506256 1.3211899995803833 0.5803056955337524
v -0.30970755219459534 1.368722677230835 0.5803056955337524
v -0.33248966932296753 1.415889024734497 0.5803056955337524
v -0.3560403883457184 1.4626762866973877 0.5803056955337524
v -0.3803534209728241 1.509071946144104 0.5803056955337524
v -0.40542253851890564 1.5550636053085327 0.5803056955337524
v -0.43124064803123474 1.60063898563385 0.5803056955337524
v -0.3074355125427246 0 0.3586486279964447
v -0.3078230619430542 0.047386735677719116 0.3586486279964447
v -0.30898603796958923 0.09476078301668167 0.3586486279964447
v -0.31092411279678345 0.1421094685792923 0.3586486279964447
v -0.3136364221572876 0.18942010402679443 0.3586486279964447
v -0.31712257862091064 0.23668000102043152 0.3586486279964447
v -0.3213813900947571 0.28387656807899475 0.3586486279964447
v -0.32641181349754333 0.33099713921546936 0.3586486279964447
v -0.3322126567363739 0.37802907824516296 0.3586486279964447
v -0.33878231048583984 0.42495980858802795 0.3586486279964447
v -0.3461189270019531 0.4717767536640167 0.3586486279964447
v -0.35422050952911377 0.518467366695404 0.3586486279964447
v -0.3630850315093994 0.5650192499160767 0.3586486279964447
v -0.37270987033843994 0.6114197969436646 0.3586486279964447
v -0.38309282064437866 0.657656729221344 0.3586486279964447
v -0.39423078298568726 0.7037175297737122 0.3586486279964447
v -0.40612080693244934 0.7495899796485901 0.3586486279964447
v -0.418759822845459 0.7952616810798645 0.3586486279964447
v -0.4321446120738983 0.8407204747200012 0.3586486279964447
v -0.4462711215019226 0.8859542012214661 0.3586486279964447
v -0.4611361026763916 0.9309507608413696 0.3586486279964447
v -0.4767351448535919 0.9756980538368225 0.3586486279964447
v -0.49306419491767883 1.0201841592788696 0.3586486279964447
v -0.5101190209388733 1.0643972158432007 0.3586486279964447
v -0.527894914150238 1.1083251237869263 0.3586486279964447
v -0.5463873147964478 1.1519564390182495 0.3586486279964447
v -0.5655909180641174 1.1952792406082153 0.3586486279964447
v -0.5855008959770203 1.2382820844650269 0.3586486279964447
v -0.6061117649078369 1.2809535264968872 0.3586486279964447
v -0.6274181008338928 1.3232818841934204 0.3586486279964447
v -0.6494142413139343 1.3652559518814087 0.3586486279964447
v -0.6720941066741943 1.4068646430969238 0.3586486279964447
v -0.6954516768455505 1.448096513748169 0.3586486279964447
v -0.4239674508571625 0 7.472421428536991e-17
v -0.4243394136428833 0.045480068773031235 7.472421428536991e-17
v -0.4254557490348816 0.0909479632973671 7.472421428536991e-17
v -0.4273156225681305 0.1363915055990219 7.472421428536991e-17
v -0.4299188256263733 0.1817985326051712 7.472421428536991e-17
v -0.43326476216316223 0.2271568924188614 7.472421428536991e-17
v -0.4373522400856018 0.2724544405937195 7.472421428536991e-17
v -0.44218042492866516 0.3176790177822113 7.472421428536991e-17
v -0.4477478861808777 0.3628185987472534 7.472421428536991e-17
v -0.45405304431915283 0.40786099433898926 7.472421428536991e-17
v -0.461094468832016 0.45279422402381897 7.472421428536991e-17
v -0.4688699543476105 0.49760621786117554 7.472421428536991e-17
v -0.47737786173820496 0.5422850251197815 7.472421428536991e-17
v -0.4866155683994293 0.5868185758590698 7.472421428536991e-17
v -0.49658066034317017 0.631195068359375 7.472421428536991e-17
v -0.5072702765464783 0.6754025816917419 7.472421428536991e-17
v -0.518682062625885 0.7194292545318604 7.472421428536991e-17
v -0.5308125019073486 0.7632633447647095 7.472421428536991e-17
v -0.5436586141586304 0.806892991065979 7.472421428536991e-17
v -0.557217001914978 0.8503067493438721 7.472421428536991e-17
v -0.5714837312698364 0.8934927582740784 7.472421428536991e-17
v -0.5864551663398743 0.9364396333694458 7.472421428536991e-17
v -0.6021271347999573 0.9791357517242432 7.472421428536991e-17
v -0.6184958219528198 1.021569848060608 7.472421428536991e-17
v -0.6355564594268799 1.063730239868164 7.472421428536991e-17
v -0.6533046960830688 1.105605959892273 7.472421428536991e-17
v -0.6717358827590942 1.1471856832504272 7.472421428536991e-17
v -0.690844714641571 1.1884583234786987 7.472421428536991e-17
v -0.7106261849403381 1.2294126749038696 7.472421428536991e-17
v -0.7310752272605896 1.2700378894805908 7.472421428536991e-17
v -0.7521861791610718 1.3103232383728027 7.472421428536991e-17
v -0.7739536166191101 1.3502576351165771 7.472421428536991e-17
v -0.7963714599609375 1.3898305892944336 7.472421428536991e-17
v -0.3074355125427246 0 -0.3586486279964447
v -0.3078230619430542 0.047386735677719116 -0.3586486279964447
v -0.30898603796958923 0.09476078301668167 -0.3586486279964447
v -0.31092411279678345 0.1421094685792923 -0.3586486279964447
v -0.3136364221572876 0.18942010402679443 -0.3586486279964447
v -0.31712257862091064 0.23668000102043152 -0.3586486279964447
v -0.3213813900947571 0.28387656807899475 -0.3586486279964447
v -0.32641181349754333 0.33099713921546936 -0.3586486279964447
v -0.3322126567363739 0.37802907824516296 -0.3586486279964447
v -0.33878231048583984 0.42495980858802795 -0.3586486279964447
v -0.3461189270019531 0.4717767536640167 -0.3586486279964447
v -0.35422050952911377 0.518467366695404 -0.3586486279964447
v -0.3630850315093994 0.5650192499160767 -0.3586486279964447
v -0.37270987033843994 0.6114197969436646 -0.3586486279964447
v -0.38309282064437866 0.657656729221344 -0.3586486279964447
v -0.39423078298568726 0.7037175297737122 -0.3586486279964447
v -0.40612080693244934 0.7495899796485901 -0.3586486279964447
v -0.418759822845459 0.7952616810798645 -0.3586486279964447
v -0.4321446120738983 0.8407204747200012 -0.3586486279964447
v -0.4462711215019226 0.8859542012214661 -0.3586486279964447
v -0.4611361026763916 0.9309507608413696 -0.3586486279964447
v -0.4767351448535919 0.9756980538368225 -0.3586486279964447
v -0.49306419491767883 1.0201841592788696 -0.3586486279964447
v -0.5101190209388733 1.0643972158432007 -0.3586486279964447
v -0.527894914150238 1.1083251237869263 -0.3586486279964447
v -0.5463873147964478 1.1519564390182495 -0.3586486279964447
v -0.5655909180641174 1.1952792406082153 -0.3586486279964447
v -0.5855008959770203 1.2382820844650269 -0.3586486279964447
v -0.6061117649078369 1.2809535264968872 -0.3586486279964447
v -0.6274181008338928 1.3232818841934204 -0.3586486279964447
v -0.6494142413139343 1.3652559518814087 -0.3586486279964447
v -0.6720941066741943 1.4068646430969238 -0.3586486279964447
v -0.6954516768455505 1.448096513748169 -0.3586486279964447
v -0.0023506456054747105 0 -0.5803056955337524
v -0.002779192989692092 0.05237844958901405 -0.5803056955337524
v -0.004064633045345545 0.1047428771853447 -0.5803056955337524
v -0.006206763442605734 0.15707926452159882 -0.5803056955337524
v -0.009204776026308537 0.2093735933303833 -0.5803056955337524
v -0.01305826660245657 0.2616118788719177 -0.5803056955337524
v -0.017765618860721588 0.3137800991535187 -0.5803056955337524
v -0.023326227441430092 0.3658643364906311 -0.5803056955337524
v -0.02973807230591774 0.4178506135940552 -0.5803056955337524
v -0.03699973598122597 0.4697250425815582 -0.5803056955337524
v -0.04510900005698204 0.5214737057685852 -0.5803056955337524
v -0.05406404286623001 0.5730827450752258 -0.5803056955337524
v -0.06386223435401917 0.6245383620262146 -0.5803056955337524
v -0.0745011642575264 0.6758267283439636 -0.5803056955337524
v -0.08597778528928757 0.7269342541694641 -0.5803056955337524
v -0.0982888713479042 0.7778470516204834 -0.5803056955337524
v -0.11143159866333008 0.8285516500473022 -0.5803056955337524
v -0.12540212273597717 0.8790345191955566 -0.5803056955337524
v -0.14019659161567688 0.9292818903923035 -0.5803056955337524
v -0.1558113992214203 0.9792805910110474 -0.5803056955337524
v -0.17224207520484924 1.0290170907974243 -0.5803056955337524
v -0.1894843876361847 1.0784779787063599 -0.5803056955337524
v -0.20753368735313416 1.1276503801345825 -0.5803056955337524
v -0.22638492286205292 1.1765207052230835 -0.5803056955337524
v -0.2460334300994873 1.2250760793685913 -0.5803056955337524
v -0.26647379994392395 1.2733033895492554 -0.5803056955337524
v -0.2877003252506256 1.3211899995803833 -0.5803056955337524
v -0.30970755219459534 1.368722677230835 -0.5803056955337524
v -0.33248966932296753 1.415889024734497 -0.5803056955337524
v -0.3560403883457184 1.4626762866973877 -0.5803056955337524
v -0.3803534209728241 1.509071946144104 -0.5803056955337524
v -0.40542253851890564 1.5550636053085327 -0.5803056955337524
v -0.43124064803123474 1.60063898563385 -0.5803056955337524
v 0.37475481629371643 0 -0.5803056955337524
v 0.37427598237991333 0.05854854732751846 -0.5803056955337524
v 0.3728390038013458 0.117081418633461 -0.5803056955337524
v 0.37044471502304077 0.17558296024799347 -0.5803056955337524
v 0.36709311604499817 0.23403747379779816 -0.5803056955337524
v 0.36278581619262695 0.2924293279647827 -0.5803056955337524
v 0.357524037361145 0.350742906332016 -0.5803056955337524
v 0.35130858421325684 0.40896257758140564 -0.5803056955337524
v 0.34414148330688477 0.4670727849006653 -0.5803056955337524
v 0.33602434396743774 0.5250579118728638 -0.5803056955337524
v 0.3269595801830292 0.5829024314880371 -0.5803056955337524
v 0.31694963574409485 0.6405909657478333 -0.5803056955337524
v 0.3059973418712616 0.6981079578399658 -0.5803056955337524
v 0.29410508275032043 0.7554380893707275 -0.5803056955337524
v 0.28127655386924744 0.8125659227371216 -0.5803056955337524
v 0.2675153613090515 0.8694761991500854 -0.5803056955337524
v 0.2528243362903595 0.9261537790298462 -0.5803056955337524
v 0.2372083067893982 0.9825833439826965 -0.5803056955337524
v 0.22067095339298248 1.0387499332427979 -0.5803056955337524
v 0.20321668684482574 1.0946383476257324 -0.5803056955337524
v 0.1848505735397339 1.1502336263656616 -0.5803056955337524
v 0.16557706892490387 1.2055211067199707 -0.5803056955337524
v 0.14540159702301025 1.2604857683181763 -0.5803056955337524
v 0.12432963401079178 1.3151129484176636 -0.5803056955337524
v 0.10236664116382599 1.3693881034851074 -0.5803056955337524
v 0.07951845973730087 1.423296570777893 -0.5803056955337524
v 0.05579136312007904 1.4768239259719849 -0.5803056955337524
v 0.031191818416118622 1.5299559831619263 -0.5803056955337524
v 0.005725885275751352 1.5826784372329712 -0.5803056955337524
v -0.020598962903022766 1.6349772214889526 -0.5803056955337524
v -0.047776054590940475 1.6868382692337036 -0.5803056955337524
v -0.07579811662435532 1.7382477521896362 -0.5803056955337524
v -0.10465767979621887 1.789191722869873 -0.5803056955337524
v 0.6798396706581116 0 -0.3586486279964447
v 0.6793196201324463 0.0635402649641037 -0.3586486279964447
v 0.6777601838111877 0.12706352770328522 -0.3586486279964447
v 0.6751618385314941 0.1905527561903 -0.3586486279964447
v 0.6715249419212341 0.25399094820022583 -0.3586486279964447
v 0.6668503284454346 0.31736117601394653 -0.3586486279964447
v 0.6611396074295044 0.3806464374065399 -0.3586486279964447
v 0.6543943881988525 0.44382980465888977 -0.3586486279964447
v 0.6466158628463745 0.5068942904472351 -0.3586486279964447
v 0.6378068923950195 0.5698230862617493 -0.3586486279964447
v 0.62796950340271 0.6325993537902832 -0.3586486279964447
v 0.6171060800552368 0.6952062845230103 -0.3586486279964447
v 0.6052199602127075 0.7576270699501038 -0.3586486279964447
v 0.592313826084137 0.8198450207710266 -0.3586486279964447
v 0.5783917903900146 0.8818435072898865 -0.3586486279964447
v 0.5634570717811584 0.9436058402061462 -0.3586486279964447
v 0.5475137233734131 1.0051155090332031 -0.3586486279964447
v 0.5305662155151367 1.0663561820983887 -0.3586486279964447
v 0.5126189589500427 1.1273112297058105 -0.3586486279964447
v 0.49367639422416687 1.187964677810669 -0.3586486279964447
v 0.47374460101127625 1.2482999563217163 -0.3586486279964447
v 0.4528280198574066 1.3083009719848633 -0.3586486279964447
v 0.43093231320381165 1.3679518699645996 -0.3586486279964447
v 0.40806353092193604 1.4272364377975464 -0.3586486279964447
v 0.3842281401157379 1.486138939857483 -0.3586486279964447
v 0.359432190656662 1.544643521308899 -0.3586486279964447
v 0.33368217945098877 1.6027345657348633 -0.3586486279964447
v 0.30698496103286743 1.6603965759277344 -0.3586486279964447
v 0.2793481945991516 1.717613935470581 -0.3586486279964447
v 0.25077876448631287 1.7743715047836304 -0.3586486279964447
v 0.22128477692604065 1.830654263496399 -0.3586486279964447
v 0.19087347388267517 1.8864467144012451 -0.3586486279964447
v 0.15955355763435364 1.9417340755462646 -0.3586486279964447
v 0.7963714599609375 0 -1.4944842857073982e-16
v 0.7958359718322754 0.06544693559408188 -1.4944842857073982e-16
v 0.7942301034927368 0.1308763325214386 -1.4944842857073982e-16
v 0.7915533781051636 0.19627070426940918 -1.4944842857073982e-16
v 0.7878073453903198 0.26161253452301025 -1.4944842857073982e-16
v 0.7829924821853638 0.32688429951667786 -1.4944842857073982e-16
v 0.7771104574203491 0.3920685946941376 -1.4944842857073982e-16
v 0.7701627612113953 0.45714789628982544 -1.4944842857073982e-16
v 0.7621510624885559 0.522104799747467 -1.4944842857073982e-16
v 0.7530778646469116 0.5869219303131104 -1.4944842857073982e-16
v 0.7429450750350952 0.6515819430351257 -1.4944842857073982e-16
v 0.7317555546760559 0.7160674333572388 -1.4944842857073982e-16
v 0.7195125222206116 0.7803612947463989 -1.4944842857073982e-16
v 0.7062197327613831 0.8444462418556213 -1.4944842857073982e-16
v 0.6918794512748718 0.9083051085472107 -1.4944842857073982e-16
v 0.6764965653419495 0.9719207286834717 -1.4944842857073982e-16
v 0.660074770450592 1.0352762937545776 -1.4944842857073982e-16
v 0.6426188945770264 1.0983545780181885 -1.4944842857073982e-16
v 0.6241329908370972 1.1611387729644775 -1.4944842857073982e-16
v 0.6046222448348999 1.2236120700836182 -1.4944842857073982e-16
v 0.5840920209884644 1.2857578992843628 -1.4944842857073982e-16
v 0.5625478625297546 1.3475594520568848 -1.4944842857073982e-16
v 0.5399954915046692 1.409000277519226 -1.4944842857073982e-16
v 0.5164405107498169 1.4700638055801392 -1.4944842857073982e-16
v 0.4918898642063141 1.5307338237762451 -1.4944842857073982e-16
v 0.46634960174560547 1.590993881225586 -1.4944842857073982e-16
v 0.43982693552970886 1.650828242301941 -1.4944842857073982e-16
v 0.4123287796974182 1.7102203369140625 -1.4944842857073982e-16
v 0.3838624060153961 1.7691547870635986 -1.4944842857073982e-16
v 0.35443589091300964 1.827615737915039 -1.4944842857073982e-16
v 0.3240565359592438 1.8855869770050049 -1.4944842857073982e-16
v 0.29273277521133423 1.9430537223815918 -1.4944842857073982e-16
v 0.2604731321334839 2 -1.4944842857073982e-16
vt 0 0
vt 0.03125 0
vt 0.0625 0
vt 0.09375 0
vt 0.125 0
vt 0.15625 0
vt 0.1875 0
vt 0.21875 0
vt 0.25 0
vt 0.28125 0
vt 0.3125 0
vt 0.34375 0
vt 0.375 0
vt 0.40625 0
vt 0.4375 0
vt 0.46875 0
vt 0.5 0
vt 0.53125 0
vt 0.5625 0
vt 0.59375 0
vt 0.625 0
vt 0.65625 0
vt 0.6875 0
vt 0.71875 0
vt 0.75 0
vt 0.78125 0
vt 0.8125 0
vt 0.84375 0
vt 0.875 0
vt 0.90625 0
vt 0.9375 0
vt 0.96875 0
vt 1 0
vt 0 0.10000000149011612
vt 0.03125 0.10000000149011612
vt 0.0625 0.10000000149011612
vt 0.09375 0.10000000149011612
vt 0.125 0.10000000149011612
vt 0.15625 0.10000000149011612
vt 0.1875 0.10000000149011612
vt 0.21875 0.10000000149011612
vt 0.25 0.10000000149011612
vt 0.28125 0.10000000149011612
vt 0.3125 0.10000000149011612
vt 0.34375 0.10000000149011612
vt 0.375 0.10000000149011612
vt 0.40625 0.10000000149011612
vt 0.4375 0.10000000149011612
vt 0.46875 0.10000000149011612
vt 0.5 0.10000000149011612
vt 0.53125 0.10000000149011612
vt 0.5625 0.10000000149011612
vt 0.59375 0.10000000149011612
vt 0.625 0.10000000149011612
vt 0.65625 0.10000000149011612
vt 0.6875 0.10000000149011612
vt 0.71875 0.10000000149011612
vt 0.75 0.10000000149011612
vt 0.78125 0.10000000149011612
vt 0.8125 0.10000000149011612
vt 0.84375 0.10000000149011612
vt 0.875 0.10000000149011612
vt 0.90625 0.10000000149011612
vt 0.9375 0.10000000149011612
vt 0.96875 0.10000000149011612
vt 1 0.10000000149011612
vt 0 0.20000000298023224
vt 0.03125 0.20000000298023224
vt 0.0625 0.20000000298023224
vt 0.09375 0.20000000298023224
vt 0.125 0.20000000298023224
vt 0.15625 0.20000000298023224
vt 0.1875 0.20000000298023224
vt 0.21875 0.20000000298023224
vt 0.25 0.20000000298023224
vt 0.28125 0.20000000298023224
vt 0.3125 0.20000000298023224
vt 0.34375 0.20000000298023224
vt 0.375 0.20000000298023224
vt 0.40625 0.20000000298023224
vt 0.4375 0.20000000298023224
vt 0.46875 0.20000000298023224
vt 0.5 0.20000000298023224
vt 0.53125 0.20000000298023224
vt 0.5625 0.20000000298023224
vt 0.59375 0.20000000298023224
vt 0.625 0.20000000298023224
vt 0.65625 0.20000000298023224
vt 0.6875 0.20000000298023224
vt 0.71875 0.20000000298023224
vt 0.75 0.20000000298023224
vt 0.78125 0.20000000298023224
vt 0.8125 0.20000000298023224
vt 0.84375 0.20000000298023224
vt 0.875 0.20000000298023224
vt 0.90625 0.20000000298023224
vt 0.9375 0.20000000298023224
vt 0.96875 0.20000000298023224
vt 1 0.20000000298023224
vt 0 0.30000001192092896
vt 0.03125 0.30000001192092896
vt 0.0625 0.30000001192092896
vt 0.09375 0.30000001192092896
vt 0.125 0.30000001192092896
vt 0.15625 0.30000001192092896
vt 0.1875 0.30000001192092896
vt 0.21875 0.30000001192092896
vt 0.25 0.30000001192092896
vt 0.28125 0.30000001192092896
vt 0.3125 0.30000001192092896
vt 0.34375 0.30000001192092896
vt 0.375 0.30000001192092896
vt 0.40625 0.30000001192092896
vt 0.4375 0.30000001192092896
vt 0.46875 0.30000001192092896
vt 0.5 0.30000001192092896
vt 0.53125 0.30000001192092896
vt 0.5625 0.30000001192092896
vt 0.59375 0.30000001192092896
vt 0.625 0.30000001192092896
vt 0.65625 0.30000001192092896
vt 0.6875 0.30000001192092896
vt 0.71875 0.30000001192092896
vt 0.75 0.30000001192092896
vt 0.78125 0.30000001192092896
vt 0.8125 0.30000001192092896
vt 0.84375 0.30000001192092896
vt 0.875 0.30000001192092896
vt 0.90625 0.30000001192092896
vt 0.9375 0.30000001192092896
vt 0.96875 0.30000001192092896
vt 1 0.30000001192092896
vt 0 0.4000000059604645
vt 0.03125 0.4000000059604645
vt 0.0625 0.4000000059604645
vt 0.09375 0.4000000059604645
vt 0.125 0.4000000059604645
vt 0.15625 0.4000000059604645
vt 0.1875 0.4000000059604645
vt 0.21875 0.4000000059604645
vt 0.25 0.4000000059604645
vt 0.28125 0.4000000059604645
vt 0.3125 0.4000000059604645
vt 0.34375 0.4000000059604645
vt 0.375 0.4000000059604645
vt 0.40625 0.4000000059604645
vt 0.4375 0.4000000059604645
vt 0.46875 0.4000000059604645
vt 0.5 0.4000000059604645
vt 0.53125 0.4000000059604645
vt 0.5625 0.4000000059604645
vt 0.59375 0.4000000059604645
vt 0.625 0.4000000059604645
vt 0.65625 0.4000000059604645
vt 0.6875 0.4000000059604645
vt 0.71875 0.4000000059604645
vt 0.75 0.4000000059604645
vt 0.78125 0.4000000059604645
vt 0.8125 0.4000000059604645
vt 0.84375 0.4000000059604645
vt 0.875 0.4000000059604645
vt 0.90625 0.4000000059604645
vt 0.9375 0.4000000059604645
vt 0.96875 0.4000000059604645
vt 1 0.4000000059604645
vt 0 0.5
vt 0.03125 0.5
vt 0.0625 0.5
vt 0.09375 0.5
vt 0.125 0.5
vt 0.15625 0.5
vt 0.1875 0.5
vt 0.21875 0.5
vt 0.25 0.5
vt 0.28125 0.5
vt 0.3125 0.5
vt 0.34375 0.5
vt 0.375 0.5
vt 0.40625 0.5
vt 0.4375 0.5
vt 0.46875 0.5
vt 0.5 0.5
vt 0.53125 0.5
vt 0.5625 0.5
vt 0.59375 0.5
vt 0.625 0.5
vt 0.65625 0.5
vt 0.6875 0.5
vt 0.71875 0.5
vt 0.75 0.5
vt 0.78125 0.5
vt 0.8125 0.5
vt 0.84375 0.5
vt 0.875 0.5
vt 0.90625 0.5
vt 0.9375 0.5
vt 0.96875 0.5
vt 1 0.5
vt 0 0.6000000238418579
vt 0.03125 0.6000000238418579
vt 0.0625 0.6000000238418579
vt 0.09375 0.6000000238418579
vt 0.125 0.6000000238418579
vt 0.15625 0.6000000238418579
vt 0.1875 0.6000000238418579
vt 0.21875 0.6000000238418579
vt 0.25 0.6000000238418579
vt 0.28125 0.6000000238418579
vt 0.3125 0.6000000238418579
vt 0.34375 0.6000000238418579
vt 0.375 0.6000000238418579
vt 0.40625 0.6000000238418579
vt 0.4375 0.6000000238418579
vt 0.46875 0.6000000238418579
vt 0.5 0.6000000238418579
vt 0.53125 0.6000000238418579
vt 0.5625 0.6000000238418579
vt 0.59375 0.6000000238418579
vt 0.625 0.6000000238418579
vt 0.65625 0.6000000238418579
vt 0.6875 0.6000000238418579
vt 0.71875 0.6000000238418579
vt 0.75 0.6000000238418579
vt 0.78125 0.6000000238418579
vt 0.8125 0.6000000238418579
vt 0.84375 0.6000000238418579
vt 0.875 0.6000000238418579
vt 0.90625 0.6000000238418579
vt 0.9375 0.6000000238418579
vt 0.96875 0.6000000238418579
vt 1 0.6000000238418579
vt 0 0.699999988079071
vt 0.03125 0.699999988079071
vt 0.0625 0.699999988079071
vt 0.09375 0.699999988079071
vt 0.125 0.699999988079071
vt 0.15625 0.699999988079071
vt 0.1875 0.699999988079071
vt 0.21875 0.699999988079071
vt 0.25 0.699999988079071
vt 0.28125 0.699999988079071
vt 0.3125 0.699999988079071
vt 0.34375 0.699999988079071
vt 0.375 0.699999988079071
vt 0.40625 0.699999988079071
vt 0.4375 0.699999988079071
vt 0.46875 0.699999988079071
vt 0.5 0.699999988079071
vt 0.53125 0.699999988079071
vt 0.5625 0.699999988079071
vt 0.59375 0.699999988079071
vt 0.625 0.699999988079071
vt 0.65625 0.699999988079071
vt 0.6875 0.699999988079071
vt 0.71875 0.699999988079071
vt 0.75 0.699999988079071
vt 0.78125 0.699999988079071
vt 0.8125 0.699999988079071
vt 0.84375 0.699999988079071
vt 0.875 0.699999988079071
vt 0.90625 0.699999988079071
vt 0.9375 0.699999988079071
vt 0.96875 0.699999988079071
vt 1 0.699999988079071
vt 0 0.800000011920929
vt 0.03125 0.800000011920929
vt 0.0625 0.800000011920929
vt 0.09375 0.800000011920929
vt 0.125 0.800000011920929
vt 0.15625 0.800000011920929
vt 0.1875 0.800000011920929
vt 0.21875 0.800000011920929
vt 0.25 0.800000011920929
vt 0.28125 0.800000011920929
vt 0.3125 0.800000011920929
vt 0.34375 0.800000011920929
vt 0.375 0.800000011920929
vt 0.40625 0.800000011920929
vt 0.4375 0.800000011920929
vt 0.46875 0.800000011920929
vt 0.5 0.800000011920929
vt 0.53125 0.800000011920929
vt 0.5625 0.800000011920929
vt 0.59375 0.800000011920929
vt 0.625 0.800000011920929
vt 0.65625 0.800000011920929
vt 0.6875 0.800000011920929
vt 0.71875 0.800000011920929
vt 0.75 0.800000011920929
vt 0.78125 0.800000011920929
vt 0.8125 0.800000011920929
vt 0.84375 0.800000011920929
vt 0.875 0.800000011920929
vt 0.90625 0.800000011920929
vt 0.9375 0.800000011920929
vt 0.96875 0.800000011920929
vt 1 0.800000011920929
vt 0 0.8999999761581421
vt 0.03125 0.8999999761581421
vt 0.0625 0.8999999761581421
vt 0.09375 0.8999999761581421
vt 0.125 0.8999999761581421
vt 0.15625 0.8999999761581421
vt 0.1875 0.8999999761581421
vt 0.21875 0.8999999761581421
vt 0.25 0.8999999761581421
vt 0.28125 0.8999999761581421
vt 0.3125 0.8999999761581421
vt 0.34375 0.8999999761581421
vt 0.375 0.8999999761581421
vt 0.40625 0.8999999761581421
vt 0.4375 0.8999999761581421
vt 0.46875 0.8999999761581421
vt 0.5 0.8999999761581421
vt 0.53125 0.8999999761581421
vt 0.5625 0.8999999761581421
vt 0.59375 0.8999999761581421
vt 0.625 0.8999999761581421
vt 0.65625 0.8999999761581421
vt 0.6875 0.8999999761581421
vt 0.71875 0.8999999761581421
vt 0.75 0.8999999761581421
vt 0.78125 0.8999999761581421
vt 0.8125 0.8999999761581421
vt 0.84375 0.8999999761581421
vt 0.875 0.8999999761581421
vt 0.90625 0.8999999761581421
vt 0.9375 0.8999999761581421
vt 0.96875 0.8999999761581421
vt 1 0.8999999761581421
vt 0 1
vt 0.03125 1
vt 0.0625 1
vt 0.09375 1
vt 0.125 1
vt 0.15625 1
vt 0.1875 1
vt 0.21875 1
vt 0.25 1
vt 0.28125 1
vt 0.3125 1
vt 0.34375 1
vt 0.375 1
vt 0.40625 1
vt 0.4375 1
vt 0.46875 1
vt 0.5 1
vt 0.53125 1
vt 0.5625 1
vt 0.59375 1
vt 0.625 1
vt 0.65625 1
vt 0.6875 1
vt 0.71875 1
vt 0.75 1
vt 0.78125 1
vt 0.8125 1
vt 0.84375 1
vt 0.875 1
vt 0.90625 1
vt 0.9375 1
vt 0.96875 1
vt 1 1
vn 0.9510278364070485 0.007782298817285405 0.30900726561692154
vn 0.9508845026186821 0.018101773806029096 0.309016162141557
vn 0.9504609623939925 0.033657680913357184 0.30901637413027216
vn 0.9497831805765975 0.049205681855355926 0.30901571281563034
vn 0.9488508824270537 0.06473984653196925 0.30901578469136254
vn 0.9476645581257253 0.08025620871291572 0.309015899648227
vn 0.9462247640255764 0.09574888052695625 0.30901593457713
vn 0.9445312395879043 0.11121979092837782 0.30901601179936394
vn 0.9425851788715927 0.12665709968766933 0.3090164391586883
vn 0.9403866616960236 0.1420627398595694 0.30901634980660936
vn 0.9379360539913598 0.15743283699335175 0.30901595502391405
vn 0.9352348300296851 0.1727575036634739 0.3090156268335161
vn 0.9322833192869356 0.18803469380933338 0.3090158029993999
vn 0.9290819586879582 0.2032624742351704 0.30901631123347484
vn 0.9256315817780203 0.218438938033777 0.3090155419486148
vn 0.9219337629492698 0.23355409319812895 0.30901556964754934
vn 0.9179893236401211 0.24860595438519192 0.30901566485694726
vn 0.9137987081776489 0.2635926955184188 0.30901587629472105
vn 0.9093626268442505 0.27851179630775236 0.3090158446040482
vn 0.9046848584246643 0.29335043378768544 0.3090159056322542
vn 0.8997640688977622 0.30811375650898265 0.3090154257807628
vn 0.894602259478502 0.3227940573197907 0.3090158473201438
vn 0.8892004539371077 0.3373890835936672 0.3090164380576977
vn 0.8835616716195247 0.35189142856647365 0.30901649623662086
vn 0.8776858354178947 0.3663011451732634 0.3090162541866493
vn 0.871574711067175 0.3806136001332394 0.30901587406116365
vn 0.8652303345069363 0.39482343772873874 0.3090160534164459
vn 0.8586548034721894 0.40892660922384977 0.3090161108143402
vn 0.8518493248895644 0.4229206777291896 0.30901590255887473
vn 0.8448161295537524 0.43680073842709743 0.3090158930465545
vn 0.8375549264708047 0.45056771953942065 0.30901533174509455
vn 0.8300716896385879 0.4642093788507064 0.3090156025956961
vn 0.8275047622207695 0.4687754260003496 0.30900723046579043
vn 0.7448648165822358 0.006095508073799479 0.6671875671797506
vn 0.8123882881606574 0.012661798658665565 0.5829793719456327
vn 0.8120722546615887 0.025949291168880558 0.5829796630215129
vn 0.8115388305374417 0.039234400522607314 0.5829797495158415
vn 0.8107881655060659 0.0525073974935592 0.5829798657618989
vn 0.809820595962153 0.0657669606714732 0.582979681669559
vn 0.8086363675172275 0.07900713386068542 0.5829795004351898
vn 0.8072353767537488 0.09222762476413533 0.5829795122880383
vn 0.8056182185926888 0.10542388156520184 0.5829794945512827
vn 0.8037855028724636 0.11858899890813632 0.5829798578939301
vn 0.8017374166602275 0.13172577139956765 0.5829797902810815
vn 0.7994749177513241 0.14482634181648274 0.5829795764883784
vn 0.7969982661848891 0.15788835361967307 0.5829794434536689
vn 0.7943084249322835 0.1709054710495428 0.5829797990041583
vn 0.7914058032158813 0.1838791533834825 0.5829796836830591
vn 0.788291087877602 0.19680429775117136 0.5829796129878085
vn 0.7849656768151982 0.20967547137788634 0.5829794875675464
vn 0.7814300709006156 0.22248985023307383 0.5829796830383743
vn 0.7776844567486696 0.23524804612941147 0.5829796244499639
vn 0.7737317468931931 0.2479395798337427 0.5829795438962461
vn 0.7695717197898867 0.26056489288688145 0.5829796777714331
vn 0.765204921383175 0.27312288220775544 0.5829796904742889
vn 0.760633527429044 0.2856068310104656 0.5829797380964532
vn 0.7558588869118126 0.2980133846746085 0.5829797300346037
vn 0.7508823107127264 0.3103389372351401 0.5829798448441252
vn 0.7457036522395679 0.32258436717089917 0.5829797501573448
vn 0.7403256763841483 0.33474268924603295 0.5829796093198178
vn 0.7347494219266789 0.34681107911797376 0.5829797272456716
vn 0.7289771308912479 0.35878571234351275 0.5829795496033481
vn 0.7230097705704203 0.3706636754654388 0.5829796834797589
vn 0.7168474865272746 0.3824453392208453 0.5829796253453298
vn 0.7104939155642004 0.3941236399370789 0.5829793756120354
vn 0.7558129369305499 0.42816236272386715 0.49540265997987165
vn 0.2124427580393115 0.0017375297802976124 0.977171968256823
vn 0.31882372598607733 0.004299738923548332 0.9478042751504893
vn 0.3187108129347416 0.009515350951707063 0.947804239183779
vn 0.318512378096306 0.014728817995044054 0.9478042661435455
vn 0.31822866644110687 0.019938718804936785 0.9478042853603967
vn 0.31785986495000224 0.025142198956536178 0.9478042920801721
vn 0.3174060290959838 0.030339265298312455 0.947804273927206
vn 0.3168670628698309 0.03552848205622554 0.9478043001754249
vn 0.3162433458240762 0.04070914476447627 0.9478042581432827
vn 0.31553497537944053 0.04587768709135481 0.947804260984009
vn 0.3147421154213375 0.05103408501494868 0.9478042640475872
vn 0.3138649478642426 0.056176930934247096 0.9478042767011473
vn 0.31290376489673893 0.06130479708133099 0.9478042813620663
vn 0.31185876592117073 0.06641696982858722 0.9478042499571908
vn 0.3107305766545797 0.07150922718871543 0.9478042725999842
vn 0.309518718025529 0.07658427044011655 0.9478043114024055
vn 0.3082241342136182 0.08163868440310965 0.9478043090729198
vn 0.3068473129356802 0.08667027454633539 0.9478042994491088
vn 0.30538797038273896 0.09167963909280426 0.9478043212189552
vn 0.3038471960693131 0.09666458592118007 0.9478042199048826
vn 0.3022250147848266 0.10162204955755208 0.9478043044226134
vn 0.30052155199261466 0.10655397156528926 0.9478043299814649
vn 0.2987381148247031 0.11145691306422796 0.9478042494530058
vn 0.29687461619163064 0.11632976822914444 0.9478042241332466
vn 0.2949315285116819 0.12117124248600894 0.9478042643310695
vn 0.29290928900726515 0.12598067291533077 0.9478043144368246
vn 0.2908091026834727 0.13075623265926015 0.9478042379189866
vn 0.2886304259133168 0.13549737631490347 0.9478042721199746
vn 0.28637499025136687 0.1402012874787342 0.9478042856770774
vn 0.2840428608252792 0.14486801409444383 0.9478042581179528
vn 0.28163463382488957 0.14949569374277552 0.9478042891771943
vn 0.279150370500507 0.15408474412114645 0.9478042847964713
vn 0.3611078919589619 0.20456546891802746 0.9098099028320709
vn -0.4032019780164497 -0.003298189344409003 0.9151050687602332
vn -0.2980106446842276 -0.005636270574240591 0.954545906758237
vn -0.2978785032085328 -0.010511748471865444 0.9545459132332548
vn -0.29766664069864196 -0.015383662739107044 0.9545459202866644
vn -0.2973751094812915 -0.020252415686253817 0.954545904563977
vn -0.29700400781207276 -0.02511483190127844 0.9545458944242214
vn -0.29655333674534806 -0.029970920889886076 0.9545458932739758
vn -0.2960231857223658 -0.03481947580075469 0.9545459012639163
vn -0.29541384937714543 -0.039658140074179206 0.9545459074984473
vn -0.2947254192621177 -0.04448613169587594 0.9545459189203557
vn -0.2939581282569428 -0.049302231647598026 0.9545459175892176
vn -0.2931121222211768 -0.054105653112541466 0.9545458931388597
vn -0.292187572652661 -0.058894068229879366 0.9545459188088754
vn -0.2911847803519479 -0.06366738619521688 0.9545459065055263
vn -0.2901042366263679 -0.06842258488786304 0.9545459034371764
vn -0.28894593795099877 -0.07315991688100272 0.954545898060215
vn -0.28771004304229736 -0.07787819267200713 0.9545459225405246
vn -0.28639746335282673 -0.08257519633390363 0.9545458762864588
vn -0.28500797548035967 -0.08724956715629938 0.9545459480525939
vn -0.28354218465854913 -0.09190176383178474 0.9545459105373949
vn -0.28200075870867963 -0.09652837653581493 0.9545458839736773
vn -0.28038350113931276 -0.1011294437744691 0.9545459275963244
vn -0.2786915371306393 -0.10570331924712408 0.9545458791655339
vn -0.27692473367416937 -0.11024914109117348 0.9545458704369053
vn -0.2750833932894224 -0.11476593482591002 0.9545459166220931
vn -0.2731691281409893 -0.11925072883058348 0.9545459083271304
vn -0.2711814566914882 -0.12370434061121723 0.9545458887139091
vn -0.26912111350190937 -0.12812499847783526 0.9545458663849251
vn -0.26698863272311174 -0.1325110632487977 0.954545906760548
vn -0.26478484911507044 -0.1368617895468331 0.9545458785418058
vn -0.26250999769113625 -0.14117586399291596 0.9545459006973177
vn -0.2601648047576972 -0.1454521161254947 0.954545942466891
vn -0.1713223266137102 -0.09705290704393715 0.9804230686994192
vn -0.8661310164986845 -0.007083513846170648 0.4997668317231012
vn -0.8042946606556008 -0.013534438115235388 0.5940765252270087
vn -0.8039655261104104 -0.026692938629725296 0.5940765269334589
vn -0.8034212153256537 -0.03984347810242015 0.5940764664732577
vn -0.8026617496542233 -0.05298334182633293 0.5940764943430561
vn -0.8016873875851358 -0.06610902627866017 0.5940765348264545
vn -0.800498523121446 -0.07921589692797186 0.5940765574858856
vn -0.7990951009989179 -0.09230405170728556 0.5940765789003533
vn -0.7974779377048962 -0.10536628659240682 0.5940764971985278
vn -0.7956471458906121 -0.11840124451680036 0.5940763962092721
vn -0.7936034878378082 -0.1314021362158963 0.5940765798191042
vn -0.7913471175378537 -0.1443705655800668 0.5940764928514021
vn -0.7888790698957174 -0.15729818707550952 0.5940766730172341
vn -0.7861998091859415 -0.1701848509233307 0.5940765746536325
vn -0.7833100874545444 -0.18302556220867228 0.5940765527018832
vn -0.7802108671795434 -0.19581681855283997 0.5940764061185979
vn -0.7769024942353364 -0.20855584671396177 0.5940765718763328
vn -0.7733858313649251 -0.22124085076072086 0.5940764612393392
vn -0.7696626412248357 -0.23386471659828467 0.59407635286486
vn -0.7657329648300656 -0.24642638041989026 0.5940766496048376
vn -0.7615985253467734 -0.25892248678858426 0.5940764530132764
vn -0.7572606458364819 -0.2713473529667293 0.5940765340469726
vn -0.7527194096978372 -0.2837016908344984 0.5940764604676623
vn -0.7479768535475461 -0.2959793563472153 0.5940764657629531
vn -0.7430335064335191 -0.3081791608123757 0.5940764371342205
vn -0.7378916789665734 -0.3202953360000149 0.5940763989997656
vn -0.7325527695831314 -0.33232411868471057 0.5940766953151032
vn -0.7270174066600046 -0.3442656714836466 0.5940764579170558
vn -0.7212869368642125 -0.3561154228759389 0.5940765609742003
vn -0.7153636376570233 -0.36786956414989347 0.5940764678812638
vn -0.7092487693717927 -0.37952517829971105 0.5940764447284292
vn -0.7029443395506592 -0.39107835361189264 0.5940765748873618
vn -0.6405070388717384 -0.36284255781119273 0.6768279038254766
vn -0.9938311725740393 -0.008128107647184676 -0.11060530858049314
vn -0.9998661417091761 -0.016361499430090718 -7.0515157349782e-8
vn -0.999464555043784 -0.032720073519628246 2.8537209459278334e-8
vn -0.998795490388383 -0.049066978507126116 1.0277326172723456e-7
vn -0.9978588897097999 -0.0654036407788165 -2.9846237713565424e-8
vn -0.9966552185255803 -0.08172132760622895 -5.79947925473697e-8
vn -0.9951848012194456 -0.09801638343567502 -5.679916396512218e-8
vn -0.9934477374693007 -0.11428732614387489 -1.0408047218936418e-7
vn -0.9914448665752076 -0.13052615271150983 1.875320840132798e-8
vn -0.9891764850338448 -0.14673064252592402 1.321496760724867e-7
vn -0.986643407032756 -0.16289501944133797 3.8155383603310916e-8
vn -0.9838459934134252 -0.17901693004950464 -4.064733197612054e-8
vn -0.9807850526018846 -0.1950914672473353 1.5266056563486723e-8
vn -0.9774618826963478 -0.21111197946990023 -1.0812957731218652e-7
vn -0.973877158681435 -0.22707549361071372 1.5981003271012805e-7
vn -0.9700314990265462 -0.2429791984847917 3.0350910647443245e-9
vn -0.9659259529414312 -0.25881857242900363 -2.4511820662374468e-8
vn -0.9615617987055411 -0.27458861460403705 -9.494546478963076e-9
vn -0.956940089125359 -0.2902854902070518 4.269900231197094e-8
vn -0.9520624784023475 -0.3059036404136935 -1.711134257738836e-7
vn -0.9469299519436086 -0.3214399883525181 9.086737601787694e-8
vn -0.9415444325319962 -0.33688882671884535 3.087151929659867e-8
vn -0.9359062989293712 -0.3522490590822304 -9.900064496497237e-8
vn -0.9300173094106181 -0.3675157196592197 1.6243497509329055e-8
vn -0.9238794480801277 -0.38268363619986395 9.427983407301775e-8
vn -0.9174940277600583 -0.39774955565609404 -7.087574482957936e-8
vn -0.9108635696914449 -0.4127075931079384 -1.0396502760131415e-7
vn -0.903989836460359 -0.42755394463900454 1.842631616659829e-8
vn -0.8968731314757771 -0.4422878994917558 6.22087280977492e-8
vn -0.8895159864705453 -0.45690404880382834 3.846320198969781e-8
vn -0.8819209780189953 -0.4713972725101582 -4.9655496629624904e-8
vn -0.8740900086765413 -0.4857639928317313 1.3408822386156048e-7
vn -0.8647484363640248 -0.48987410494015815 0.11060516766884339
vn -0.7361167670093451 -0.0060208090587520165 -0.6768277884262642
vn -0.8043069837505842 -0.012787217271173516 -0.5940763948891568
vn -0.8039898800529971 -0.025948092109547717 -0.5940765685399837
vn -0.8034578347095519 -0.039097594915197605 -0.5940764983701053
vn -0.8027105382592177 -0.052238706832350025 -0.594076518031205
vn -0.801748447604913 -0.06536512020063315 -0.594076449477901
vn -0.8005716751101452 -0.07847351532250917 -0.5940765105643077
vn -0.7991805444539306 -0.09156223870242469 -0.5940764376829966
vn -0.7975752437510906 -0.10462704410866458 -0.59407652048913
vn -0.7957566411828814 -0.11766218440363305 -0.5940765761875353
vn -0.7937248921031169 -0.13066683669773924 -0.5940765720370582
vn -0.7914808413479452 -0.14363530316233822 -0.5940765754215629
vn -0.7890246621525352 -0.156566815791115 -0.5940765226030303
vn -0.7863573481108393 -0.16945542501008096 -0.5940765775611265
vn -0.7834795209100335 -0.18229900513920577 -0.5940765211989449
vn -0.7803921617420079 -0.19509255680824034 -0.5940765675985371
vn -0.7770956843997591 -0.20783533394787376 -0.5940764018626276
vn -0.7735909719351127 -0.22052268398128794 -0.5940763873359863
vn -0.7698791256153086 -0.23315060832461593 -0.5940765319213253
vn -0.7659614037661197 -0.24571603381052928 -0.5940763912739321
vn -0.7618383213527343 -0.25821578652984606 -0.5940765773073542
vn -0.7575119356403214 -0.2706451792154655 -0.5940764717861516
vn -0.7529825653129473 -0.2830024989577243 -0.5940764613401346
vn -0.7482509555081756 -0.29528587827852326 -0.594076390433405
vn -0.7433190999499278 -0.3074896359465943 -0.5940764592500363
vn -0.7381888444755393 -0.31960978310631516 -0.5940764398918729
vn -0.7328605672912213 -0.33164522147100406 -0.5940764563463511
vn -0.7273361204911135 -0.34359148702461123 -0.5940766430967919
vn -0.7216173570096094 -0.35544545244923687 -0.5940765273898836
vn -0.7157044301401921 -0.36720594202952395 -0.5940765647758821
vn -0.7096005482817436 -0.3788668707015785 -0.5940765574932598
vn -0.7033069096323784 -0.3904261270245944 -0.5940764514773572
vn -0.7536346782900105 -0.4269286916813985 -0.49976660942676226
vn -0.19689595167405413 -0.00161095331727685 -0.980423066356447
vn -0.298035473043634 -0.004117062321038659 -0.9545459164469262
vn -0.29792824050501915 -0.008993333103838465 -0.9545459043279516
vn -0.2977411746700226 -0.01386683061589218 -0.9545459150375037
vn -0.29747449814851623 -0.018736375157648994 -0.9545458978997501
vn -0.29712810610844625 -0.02360117023086961 -0.9545458990138409
vn -0.2967021472244463 -0.028459224916535075 -0.9545459173604763
vn -0.29619678730625565 -0.03331015990104934 -0.9545459111204758
vn -0.29561212534302644 -0.03815199791207907 -0.9545459111040681
vn -0.2949483920622735 -0.042983545832260606 -0.9545458924575421
vn -0.29420560178060523 -0.04780361733091882 -0.9545459014898083
vn -0.29338404249208155 -0.05261100032116359 -0.9545459057877788
vn -0.29248386710284435 -0.05740451085116272 -0.9545459180251648
vn -0.291505515339647 -0.06218224758841104 -0.9545459143547891
vn -0.29044926505454477 -0.06694335568580169 -0.9545458666605807
vn -0.28931484399306795 -0.07168659759352743 -0.9545459406287005
vn -0.2881033772360836 -0.07641086124944553 -0.954545873338878
vn -0.28681448715183305 -0.08111415976847908 -0.9545459355342124
vn -0.28544887929367113 -0.085796453145928 -0.9545459160970549
vn -0.28400706624380134 -0.09045508306289436 -0.9545458942720741
vn -0.28248879650748215 -0.095090241375433 -0.954545926523662
vn -0.2808952900604229 -0.09969929509942817 -0.9545459059566219
vn -0.27922663941922715 -0.10428153295608103 -0.9545458845560933
vn -0.2774829223927674 -0.1088363585292426 -0.954545899809152
vn -0.2756648607386415 -0.1133623176159196 -0.9545458970100352
vn -0.27377325881019804 -0.11785742892169092 -0.9545458759056125
vn -0.2718084830067482 -0.12232050648448736 -0.9545458827416045
vn -0.26977038579106594 -0.12675181123140583 -0.9545459220486447
vn -0.26766065013234586 -0.13114865246801943 -0.9545458644436906
vn -0.26547890640465244 -0.13551038370371468 -0.9545459057387767
vn -0.2632258852851887 -0.13983638692972122 -0.9545459225235159
vn -0.26090281862088666 -0.1441243868183585 -0.954545902699241
vn -0.3508324415045024 -0.19874406370519743 -0.9151051279115062
vn 0.4150114246762111 0.003395632982940993 -0.9098098631389234
vn 0.3187937942838113 0.00613433384387152 -0.9478042449126416
vn 0.31865074508178387 0.011349230747414077 -0.9478042506869581
vn 0.3184222356027646 0.01656197981828067 -0.9478042945135016
vn 0.3181085940320763 0.021770451599424864 -0.9478042887854499
vn 0.3177099806487595 0.0269710904367366 -0.947804266964872
vn 0.3172262267681699 0.032165310837869665 -0.947804259237704
vn 0.3166572800108419 0.037352376281784165 -0.9478042872883828
vn 0.3160038839476339 0.042528047498540916 -0.9478042574846202
vn 0.3152656027145666 0.047693003997969524 -0.947804292623045
vn 0.31444308195312887 0.05284513166229348 -0.9478042731869344
vn 0.31353649211404117 0.057982291498069514 -0.9478042635404501
vn 0.3125457133825549 0.06310513547363929 -0.9478042619249205
vn 0.3114714018123219 0.0682102067434936 -0.9478042696406663
vn 0.3103136660305375 0.0732967318313389 -0.9478043140741305
vn 0.30907285383540245 0.07836467815843029 -0.9478042773902033
vn 0.3077492201676437 0.08341121155639881 -0.9478042979818676
vn 0.3063433408446471 0.0884349552387762 -0.9478043132482865
vn 0.30485529513274073 0.09343648203812185 -0.9478042376218148
vn 0.30328580510619524 0.09841078446327801 -0.9478043247012589
vn 0.3016350294822109 0.10336031852141112 -0.9478042801889102
vn 0.2999033328836501 0.10828229028951057 -0.9478042712158121
vn 0.29809159041162575 0.11317449063332809 -0.9478042721974587
vn 0.29620033967315507 0.11803603357500161 -0.9478042274411889
vn 0.29422908382845997 0.12286673219589209 -0.9478043112103722
vn 0.292179320009024 0.1276647315811778 -0.9478042842640934
vn 0.2900514869782042 0.13242815293842708 -0.9478042620768538
vn 0.2878460530987602 0.13715591764243268 -0.9478042540372605
vn 0.2855631466878261 0.14184750893738513 -0.947804290696136
vn 0.2832045832961469 0.14649996057089099 -0.9478042654223408
vn 0.2807691975432297 0.15111495468887265 -0.947804266808454
vn 0.2782590449135625 0.15568855739909973 -0.9478042925724588
vn 0.18484963658871217 0.10471656276690754 -0.9771719671251858
vn 0.8686344702896411 0.007108464436333249 -0.4954024896566343
vn 0.8123674214899306 0.01392661563373581 -0.5829796067434878
vn 0.8120307994012881 0.027216503636775316 -0.5829796246469464
vn 0.8114770079715391 0.04049734783677301 -0.582979442477817
vn 0.810705372022272 0.05377189869909114 -0.5829797446605878
vn 0.8097170099362713 0.06702917155334281 -0.5829798058086891
vn 0.8085122609982298 0.08026640023328527 -0.5829796126873739
vn 0.8070905374129175 0.09348590118706077 -0.5829796314604578
vn 0.8054529588885102 0.10667839858785592 -0.5829796311128499
vn 0.8035998343851105 0.11984214185817925 -0.5829795598570048
vn 0.8015311809885701 0.13297545666802393 -0.5829796684507949
vn 0.7992482737509782 0.14607201436395062 -0.5829795566962356
vn 0.7967514795050684 0.1591284384779404 -0.5829796051098672
vn 0.794040755203062 0.17214496773384558 -0.5829797502147601
vn 0.791118402163444 0.18511191449338862 -0.5829796333243142
vn 0.7879836475284189 0.1980320194111888 -0.5829794940782522
vn 0.7846378278998986 0.2108982852775585 -0.5829797529035762
vn 0.7810822205228635 0.2237079612319994 -0.5829796847785479
vn 0.7773169315225446 0.2364594649337423 -0.5829796818171489
vn 0.773344344631713 0.24914524174737118 -0.5829795649427089
vn 0.7691651088057908 0.26176324831772174 -0.5829794483735518
vn 0.7647783065986212 0.2743148471891136 -0.5829798507390785
vn 0.7601870786843485 0.2867926616610356 -0.5829799092753838
vn 0.7553938688570951 0.2991902256460362 -0.5829796838406837
vn 0.7503976225375971 0.3115092813770646 -0.5829797386752533
vn 0.7452002777269312 0.3237456387195094 -0.5829796801654423
vn 0.7398027219200514 0.3358964341057935 -0.5829798608825998
vn 0.7342083812054051 0.3479554242292747 -0.5829794813860636
vn 0.7284172211400443 0.3599209802303632 -0.5829796222310264
vn 0.7224308788781995 0.371790793451129 -0.5829796146935605
vn 0.7162510822076663 0.3835614062756699 -0.5829794463376706
vn 0.7098787797314926 0.3952301018950917 -0.5829796605739538
vn 0.6481186725733854 0.36715486522106083 -0.6671877480936063
vn 0.9510279398703264 0.007780508220766463 -0.3090069922798343
vn 0.9509678334785913 0.013017941063393027 -0.3090157162661871
vn 0.9506273031372622 0.02857581826942979 -0.309016428592734
vn 0.950032639557618 0.044125798538497976 -0.30901601524601424
vn 0.9491835869993445 0.05966391810440395 -0.30901575210252485
vn 0.9480801362500436 0.07518818338713724 -0.30901584478314514
vn 0.9467231520535165 0.0906887490869794 -0.30901589628187937
vn 0.9451127264464055 0.10616562753815587 -0.30901584722869996
vn 0.9432488267679625 0.12161676077648599 -0.3090162039426046
vn 0.9411328206297743 0.13703226710234598 -0.3090164586332516
vn 0.9387645555756425 0.15241424470370485 -0.3090161924661319
vn 0.9361450629757466 0.16775467915863249 -0.30901583889263623
vn 0.9332757609755904 0.18304580484488417 -0.3090155130476807
vn 0.9301552160965002 0.1982932385475922 -0.30901628681152193
vn 0.9267864345825493 0.2134854969863744 -0.3090159336510774
vn 0.9231695770177522 0.22862047544878125 -0.3090155502146092
vn 0.9193054895451566 0.24369413784281954 -0.3090155078198907
vn 0.915195171246171 0.25870254754011407 -0.3090158417038627
vn 0.9108394009217565 0.27364364929985335 -0.3090157583786861
vn 0.9062396756241943 0.2885113019812512 -0.30901598494841387
vn 0.9013991130574527 0.30329685645127646 -0.3090156239513001
vn 0.8963159594649216 0.31800491582466545 -0.3090154920385456
vn 0.8909919598923837 0.33262946234612123 -0.30901612933058903
vn 0.8854301359397727 0.3471632218509776 -0.30901645872626987
vn 0.8796319444382711 0.3616026076318749 -0.3090164987141859
vn 0.8735976931422672 0.37594700359673777 -0.30901605301851803
vn 0.8673296405623877 0.3901903256981015 -0.30901586421012234
vn 0.860828498840161 0.40433069122908294 -0.309016160928206
vn 0.8540989865541214 0.4183588081323958 -0.3090159038387245
vn 0.8471389508367685 0.43227842937397165 -0.3090161119960438
vn 0.8399532293487918 0.44608067702301957 -0.3090155369770601
vn 0.8325415798369832 0.4597651036057102 -0.30901548075941204
vn 0.8275048272532255 0.46877530986587307 -0.30900723249264594
f 34/34/34 1/1/1 35/35/35
f 1/1/1 2/2/2 35/35/35
f 35/35/35 2/2/2 36/36/36
f 2/2/2 3/3/3 36/36/36
f 36/36/36 3/3/3 37/37/37
f 3/3/3 4/4/4 37/37/37
f 37/37/37 4/4/4 38/38/38
f 4/4/4 5/5/5 38/38/38
f 38/38/38 5/5/5 39/39/39
f 5/5/5 6/6/6 39/39/39
f 39/39/39 6/6/6 40/40/40
f 6/6/6 7/7/7 40/40/40
f 40/40/40 7/7/7 41/41/41
f 7/7/7 8/8/8 41/41/41
f 41/41/41 8/8/8 42/42/42
f 8/8/8 9/9/9 42/42/42
f 42/42/42 9/9/9 43/43/43
f 9/9/9 10/10/10 43/43/43
f 43/43/43 10/10/10 44/44/44
f 10/10/10 11/11/11 44/44/44
f 44/44/44 11/11/11 45/45/45
f 11/11/11 12/12/12 45/45/45
f 45/45/45 12/12/12 46/46/46
f 12/12/12 13/13/13 46/46/46
f 46/46/46 13/13/13 47/47/47
f 13/13/13 14/14/14 47/47/47
f 47/47/47 14/14/14 48/48/48
f 14/14/14 15/15/15 48/48/48
f 48/48/48 15/15/15 49/49/49
f 15/15/15 16/16/16 49/49/49
f 49/49/49 16/16/16 50/50/50
f 16/16/16 17/17/17 50/50/50
f 50/50/50 17/17/17 51/51/51
f 17/17/17 18/18/18 51/51/51
f 51/51/51 18/18/18 52/52/52
f 18/18/18 19/19/19 52/52/52
f 52/52/52 19/19/19 53/53/53
f 19/19/19 20/20/20 53/53/53
f 53/53/53 20/20/20 54/54/54
f 20/20/20 21/21/21 54/54/54
f 54/54/54 21/21/21 55/55/55
f 21/21/21 22/22/22 55/55/55
f 55/55/55 22/22/22 56/56/56
f 22/22/22 23/23/23 56/56/56
f 56/56/56 23/23/23 57/57/57
f 23/23/23 24/24/24 57/57/57
f 57/57/57 24/24/24 58/58/58
f 24/24/24 25/25/25 58/58/58
f 58/58/58 25/25/25 59/59/59
f 25/25/25 26/26/26 59/59/59
f 59/59/59 26/26/26 60/60/60
f 26/26/26 27/27/27 60/60/60
f 60/60/60 27/27/27 61/61/61
f 27/27/27 28/28/28 61/61/61
f 61/61/61 28/28/28 62/62/62
f 28/28/28 29/29/29 62/62/62
f 62/62/62 29/29/29 63/63/63
f 29/29/29 30/30/30 63/63/63
f 63/63/63 30/30/30 64/64/64
f 30/30/30 31/31/31 64/64/64
f 64/64/64 31/31/31 65/65/65
f 31/31/31 32/32/32 65/65/65
f 65/65/65 32/32/32 66/66/66
f 32/32/32 33/33/33 66/66/66
f 67/67/67 34/34/34 68/68/68
f 34/34/34 35/35/35 68/68/68
f 68/68/68 35/35/35 69/69/69
f 35/35/35 36/36/36 69/69/69
f 69/69/69 36/36/36 70/70/70
f 36/36/36 37/37/37 70/70/70
f 70/70/70 37/37/37 71/71/71
f 37/37/37 38/38/38 71/71/71
f 71/71/71 38/38/38 72/72/72
f 38/38/38 39/39/39 72/72/72
f 72/72/72 39/39/39 73/73/73
f 39/39/39 40/40/40 73/73/73
f 73/73/73 40/40/40 74/74/74
f 40/40/40 41/41/41 74/74/74
f 74/74/74 41/41/41 75/75/75
f 41/41/41 42/42/42 75/75/75
f 75/75/75 42/42/42 76/76/76
f 42/42/42 43/43/43 76/76/76
f 76/76/76 43/43/43 77/77/77
f 43/43/43 44/44/44 77/77/77
f 77/77/77 44/44/44 78/78/78
f 44/44/44 45/45/45 78/78/78
f 78/78/78 45/45/45 79/79/79
f 45/45/45 46/46/46 79/79/79
f 79/79/79 46/46/46 80/80/80
f 46/46/46 47/47/47 80/80/80
f 80/80/80 47/47/47 81/81/81
f 47/47/47 48/48/48 81/81/81
f 81/81/81 48/48/48 82/82/82
f 48/48/48 49/49/49 82/82/82
f 82/82/82 49/49/49 83/83/83
f 49/49/49 50/50/50 83/83/83
f 83/83/83 50/50/50 84/84/84
f 50/50/50 51/51/51 84/84/84
f 84/84/84 51/51/51 85/85/85
f 51/51/51 52/52/52 85/85/85
f 85/85/85 52/52/52 86/86/86
f 52/52/52 53/53/53 86/86/86
f 86/86/86 53/53/53 87/87/87
f 53/53/53 54/54/54 87/87/87
f 87/87/87 54/54/54 88/88/88
f 54/54/54 55/55/55 88/88/88
f 88/88/88 55/55/55 89/89/89
f 55/55/55 56/56/56 89/89/89
f 89/89/89 56/56/56 90/90/90
f 56/56/56 57/57/57 90/90/90
f 90/90/90 57/57/57 91/91/91
f 57/57/57 58/58/58 91/91/91
f 91/91/91 58/58/58 92/92/92
f 58/58/58 59/59/59 92/92/92
f 92/92/92 59/59/59 93/93/93
f 59/59/59 60/60/60 93/93/93
f 93/93/93 60/60/60 94/94/94
f 60/60/60 61/61/61 94/94/94
f 94/94/94 61/61/61 95/95/95
f 61/61/61 62/62/62 95/95/95
f 95/95/95 62/62/62 96/96/96
f 62/62/62 63/63/63 96/96/96
f 96/96/96 63/63/63 97/97/97
f 63/63/63 64/64/64 97/97/97
f 97/97/97 64/64/64 98/98/98
f 64/64/64 65/65/65 98/98/98
f 98/98/98 65/65/65 99/99/99
f 65/65/65 66/66/66 99/99/99
f 100/100/100 67/67/67 101/101/101
f 67/67/67 68/68/68 101/101/101
f 101/101/101 68/68/68 102/102/102
f 68/68/68 69/69/69 102/102/102
f 102/102/102 69/69/69 103/103/103
f 69/69/69 70/70/70 103/103/103
f 103/103/103 70/70/70 104/104/104
f 70/70/70 71/71/71 104/104/104
f 104/104/104 71/71/71 105/105/105
f 71/71/71 72/72/72 105/105/105
f 105/105/105 72/72/72 106/106/106
f 72/72/72 73/73/73 106/106/106
f 106/106/106 73/73/73 107/107/107
f 73/73/73 74/74/74 107/107/107
f 107/107/107 74/74/74 108/108/108
f 74/74/74 75/75/75 108/108/108
f 108/108/108 75/75/75 109/109/109
f 75/75/75 76/76/76 109/109/109
f 109/109/109 76/76/76 110/110/110
f 76/76/76 77/77/77 110/110/110
f 110/110/110 77/77/77 111/111/111
f 77/77/77 78/78/78 111/111/111
f 111/111/111 78/78/78 112/112/112
f 78/78/78 79/79/79 112/112/112
f 112/112/112 79/79/79 113/113/113
f 79/79/79 80/80/80 113/113/113
f 113/113/113 80/80/80 114/114/114
f 80/80/80 81/81/81 114/114/114
f 114/114/114 81/81/81 115/115/115
f 81/81/81 82/82/82 115/115/115
f 115/115/115 82/82/82 116/116/116
f 82/82/82 83/83/83 116/116/116
f 116/116/116 83/83/83 117/117/117
f 83/83/83 84/84/84 117/117/117
f 117/117/117 84/84/84 118/118/118
f 84/84/84 85/85/85 118/118/118
f 118/118/118 85/85/85 119/119/119
f 85/85/85 86/86/86 119/119/119
f 119/119/119 86/86/86 120/120/120
f 86/86/86 87/87/87 120/120/120
f 120/120/120 87/87/87 121/121/121
f 87/87/87 88/88/88 121/121/121
f 121/121/121 88/88/88 122/122/122
f 88/88/88 89/89/89 122/122/122
f 122/122/122 89/89/89 123/123/123
f 89/89/89 90/90/90 123/123/123
f 123/123/123 90/90/90 124/124/124
f 90/90/90 91/91/91 124/124/124
f 124/124/124 91/91/91 125/125/125
f 91/91/91 92/92/92 125/125/125
f 125/125/125 92/92/92 126/126/126
f 92/92/92 93/93/93 126/126/126
f 126/126/126 93/93/93 127/127/127
f 93/93/93 94/94/94 127/127/127
f 127/127/127 94/94/94 128/128/128
f 94/94/94 95/95/95 128/128/128
f 128/128/128 95/95/95 129/129/129
f 95/95/95 96/96/96 129/129/129
f 129/129/129 96/96/96 130/130/130
f 96/96/96 97/97/97 130/130/130
f 130/130/130 97/97/97 131/131/131
f 97/97/97 98/98/98 131/131/131
f 131/131/131 98/98/98 132/132/132
f 98/98/98 99/99/99 132/132/132
f 133/133/133 100/100/100 134/134/134
f 100/100/100 101/101/101 134/134/134
f 134/134/134 101/101/101 135/135/135
f 101/101/101 102/102/102 135/135/135
f 135/135/135 102/102/102 136/136/136
f 102/102/102 103/103/103 136/136/136
f 136/136/136 103/103/103 137/137/137
f 103/103/103 104/104/104 137/137/137
f 137/137/137 104/104/104 138/138/138
f 104/104/104 105/105/105 138/138/138
f 138/138/138 105/105/105 139/139/139
f 105/105/105 106/106/106 139/139/139
f 139/139/139 106/106/106 140/140/140
f 106/106/106 107/107/107 140/140/140
f 140/140/140 107/107/107 141/141/141
f 107/107/107 108/108/108 141/141/141
f 141/141/141 108/108/108 142/142/142
f 108/108/108 109/109/109 142/142/142
f 142/142/142 109/109/109 143/143/143
f 109/109/109 110/110/110 143/143/143
f 143/143/143 110/110/110 144/144/144
f 110/110/110 111/111/111 144/144/144
f 144/144/144 111/111/111 145/145/145
f 111/111/111 112/112/112 145/145/145
f 145/145/145 112/112/112 146/146/146
f 112/112/112 113/113/113 146/146/146
f 146/146/146 113/113/113 147/147/147
f 113/113/113 114/114/114 147/147/147
f 147/147/147 114/114/114 148/148/148
f 114/114/114 115/115/115 148/148/148
f 148/148/148 115/115/115 149/149/149
f 115/115/115 116/116/116 149/149/149
f 149/149/149 116/116/116 150/150/150
f 116/116/116 117/117/117 150/150/150
f 150/150/150 117/117/117 151/151/151
f 117/117/117 118/118/118 151/151/151
f 151/151/151 118/118/118 152/152/152
f 118/118/118 119/119/119 152/152/152
f 152/152/152 119/119/119 153/153/153
f 119/119/119 120/120/120 153/153/153
f 153/153/153 120/120/120 154/154/154
f 120/120/120 121/121/121 154/154/154
f 154/154/154 121/121/121 155/155/155
f 121/121/121 122/122/122 155/155/155
f 155/155/155 122/122/122 156/156/156
f 122/122/122 123/123/123 156/156/156
f 156/156/156 123/123/123 157/157/157
f 123/123/123 124/124/124 157/157/157
f 157/157/157 124/124/124 158/158/158
f 124/124/124 125/125/125 158/158/158
f 158/158/158 125/125/125 159/159/159
f 125/125/125 126/126/126 159/159/159
f 159/159/159 126/126/126 160/160/160
f 126/126/126 127/127/127 160/160/160
f 160/160/160 127/127/127 161/161/161
f 127/127/127 128/128/128 161/161/161
f 161/161/161 128/128/128 162/162/162
f 128/128/128 129/129/129 162/162/162
f 162/162/162 129/129/129 163/163/163
f 129/129/129 130/130/130 163/163/163
f 163/163/163 130/130/130 164/164/164
f 130/130/130 131/131/131 164/164/164
f 164/164/164 131/131/131 165/165/165
f 131/131/131 132/132/132 165/165/165
f 166/166/166 133/133/133 167/167/167
f 133/133/133 134/134/134 167/167/167
f 167/167/167 134/134/134 168/168/168
f 134/134/134 135/135/135 168/168/168
f 168/168/168 135/135/135 169/169/169
f 135/135/135 136/136/136 169/169/169
f 169/169/169 136/136/136 170/170/170
f 136/136/136 137/137/137 170/170/170
f 170/170/170 137/137/137 171/171/171
f 137/137/137 138/138/138 171/171/171
f 171/171/171 138/138/138 172/172/172
f 138/138/138 139/139/139 172/172/172
f 172/172/172 139/139/139 173/173/173
f 139/139/139 140/140/140 173/173/173
f 173/173/173 140/140/140 174/174/174
f 140/140/140 141/141/141 174/174/174
f 174/174/174 141/141/141 175/175/175
f 141/141/141 142/142/142 175/175/175
f 175/175/175 142/142/142 176/176/176
f 142/142/142 143/143/143 176/176/176
f 176/176/176 143/143/143 177/177/177
f 143/143/143 144/144/144 177/177/177
f 177/177/177 144/144/144 178/178/178
f 144/144/144 145/145/145 178/178/178
f 178/178/178 145/145/145 179/179/179
f 145/145/145 146/146/146 179/179/179
f 179/179/179 146/146/146 180/180/180
f 146/146/146 147/147/147 180/180/180
f 180/180/180 147/147/147 181/181/181
f 147/147/147 148/148/148 181/181/181
f 181/181/181 148/148/148 182/182/182
f 148/148/148 149/149/149 182/182/182
f 182/182/182 149/149/149 183/183/183
f 149/149/149 150/150/150 183/183/183
f 183/183/183 150/150/150 184/184/184
f 150/150/150 151/151/151 184/184/184
f 184/184/184 151/151/151 185/185/185
f 151/151/151 152/152/152 185/185/185
f 185/185/185 152/152/152 186/186/186
f 152/152/152 153/153/153 186/186/186
f 186/186/186 153/153/153 187/187/187
f 153/153/153 154/154/154 187/187/187
f 187/187/187 154/154/154 188/188/188
f 154/154/154 155/155/155 188/188/188
f 188/188/188 155/155/155 189/189/189
f 155/155/155 156/156/156 189/189/189
f 189/189/189 156/156/156 190/190/190
f 156/156/156 157/157/157 190/190/190
f 190/190/190 157/157/157 191/191/191
f 157/157/157 158/158/158 191/191/191
f 191/191/191 158/158/158 192/192/192
f 158/158/158 159/159/159 192/192/192
f 192/192/192 159/159/159 193/193/193
f 159/159/159 160/160/160 193/193/193
f 193/193/193 160/160/160 194/194/194
f 160/160/160 161/161/161 194/194/194
f 194/194/194 161/161/161 195/195/195
f 161/161/161 162/162/162 195/195/195
f 195/195/195 162/162/162 196/196/196
f 162/162/162 163/163/163 196/196/196
f 196/196/196 163/163/163 197/197/197
f 163/163/163 164/164/164 197/197/197
f 197/197/197 164/164/164 198/198/198
f 164/164/164 165/165/165 198/198/198
f 199/199/199 166/166/166 200/200/200
f 166/166/166 167/167/167 200/200/200
f 200/200/200 167/167/167 201/201/201
f 167/167/167 168/168/168 201/201/201
f 201/201/201 168/168/168 202/202/202
f 168/168/168 169/169/169 202/202/202
f 202/202/202 169/169/169 203/203/203
f 169/169/169 170/170/170 203/203/203
f 203/203/203 170/170/170 204/204/204
f 170/170/170 171/171/171 204/204/204
f 204/204/204 171/171/171 205/205/205
f 171/171/171 172/172/172 205/205/205
f 205/205/205 172/172/172 206/206/206
f 172/172/172 173/173/173 206/206/206
f 206/206/206 173/173/173 207/207/207
f 173/173/173 174/174/174 207/207/207
f 207/207/207 174/174/174 208/208/208
f 174/174/174 175/175/175 208/208/208
f 208/208/208 175/175/175 209/209/209
f 175/175/175 176/176/176 209/209/209
f 209/209/209 176/176/176 210/210/210
f 176/176/176 177/177/177 210/210/210
f 210/210/210 177/177/177 211/211/211
f 177/177/177 178/178/178 211/211/211
f 211/211/211 178/178/178 212/212/212
f 178/178/178 179/179/179 212/212/212
f 212/212/212 179/179/179 213/213/213
f 179/179/179 180/180/180 213/213/213
f 213/213/213 180/180/180 214/214/214
f 180/180/180 181/181/181 214/214/214
f 214/214/214 181/181/181 215/215/215
f 181/181/181 182/182/182 215/215/215
f 215/215/215 182/182/182 216/216/216
f 182/182/182 183/183/183 216/216/216
f 216/216/216 183/183/183 217/217/217
f 183/183/183 184/184/184 217/217/217
f 217/217/217 184/184/184 218/218/218
f 184/184/184 185/185/185 218/218/218
f 218/218/218 185/185/185 219/219/219
f 185/185/185 186/186/186 219/219/219
f 219/219/219 186/186/186 220/220/220
f 186/186/186 187/187/187 220/220/220
f 220/220/220 187/187/187 221/221/221
f 187/187/187 188/188/188 221/221/221
f 221/221/221 188/188/188 222/222/222
f 188/188/188 189/189/189 222/222/222
f 222/222/222 189/189/189 223/223/223
f 189/189/189 190/190/190 223/223/223
f 223/223/223 190/190/190 224/224/224
f 190/190/190 191/191/191 224/224/224
f 224/224/224 191/191/191 225/225/225
f 191/191/191 192/192/192 225/225/225
f 225/225/225 192/192/192 226/226/226
f 192/192/192 193/193/193 226/226/226
f 226/226/226 193/193/193 227/227/227
f 193/193/193 194/194/194 227/227/227
f 227/227/227 194/194/194 228/228/228
f 194/194/194 195/195/195 228/228/228
f 228/228/228 195/195/195 229/229/229
f 195/195/195 196/196/196 229/229/229
f 229/229/229 196/196/196 230/230/230
f 196/196/196 197/197/197 230/230/230
f 230/230/230 197/197/197 231/231/231
f 197/197/197 198/198/198 231/231/231
f 232/232/232 199/199/199 233/233/233
f 199/199/199 200/200/200 233/233/233
f 233/233/233 200/200/200 234/234/234
f 200/200/200 201/201/201 234/234/234
f 234/234/234 201/201/201 235/235/235
f 201/201/201 202/202/202 235/235/235
f 235/235/235 202/202/202 236/236/236
f 202/202/202 203/203/203 236/236/236
f 236/236/236 203/203/203 237/237/237
f 203/203/203 204/204/204 237/237/237
f 237/237/237 204/204/204 238/238/238
f 204/204/204 205/205/205 238/238/238
f 238/238/238 205/205/205 239/239/239
f 205/205/205 206/206/206 239/239/239
f 239/239/239 206/206/206 240/240/240
f 206/206/206 207/207/207 240/240/240
f 240/240/240 207/207/207 241/241/241
f 207/207/207 208/208/208 241/241/241
f 241/241/241 208/208/208 242/242/242
f 208/208/208 209/209/209 242/242/242
f 242/242/242 209/209/209 243/243/243
f 209/209/209 210/210/210 243/243/243
f 243/243/243 210/210/210 244/244/244
f 210/210/210 211/211/211 244/244/244
f 244/244/244 211/211/211 245/245/245
f 211/211/211 212/212/212 245/245/245
f 245/245/245 212/212/212 246/246/246
f 212/212/212 213/213/213 246/246/246
f 246/246/246 213/213/213 247/247/247
f 213/213/213 214/214/214 247/247/247
f 247/247/247 214/214/214 248/248/248
f 214/214/214 215/215/215 248/248/248
f 248/248/248 215/215/215 249/249/249
f 215/215/215 216/216/216 249/249/249
f 249/249/249 216/216/216 250/250/250
f 216/216/216 217/217/217 250/250/250
f 250/250/250 217/217/217 251/251/251
f 217/217/217 218/218/218 251/251/251
f 251/251/251 218/218/218 252/252/252
f 218/218/218 219/219/219 252/252/252
f 252/252/252 219/219/219 253/253/253
f 219/219/219 220/220/220 253/253/253
f 253/253/253 220/220/220 254/254/254
f 220/220/220 221/221/221 254/254/254
f 254/254/254 221/221/221 255/255/255
f 221/221/221 222/222/222 255/255/255
f 255/255/255 222/222/222 256/256/256
f 222/222/222 223/223/223 256/256/256
f 256/256/256 223/223/223 257/257/257
f 223/223/223 224/224/224 257/257/257
f 257/257/257 224/224/224 258/258/258
f 224/224/224 225/225/225 258/258/258
f 258/258/258 225/225/225 259/259/259
f 225/225/225 226/226/226 259/259/259
f 259/259/259 226/226/226 260/260/260
f 226/226/226 227/227/227 260/260/260
f 260/260/260 227/227/227 261/261/261
f 227/227/227 228/228/228 261/261/261
f 261/261/261 228/228/228 262/262/262
f 228/228/228 229/229/229 262/262/262
f 262/262/262 229/229/229 263/263/263
f 229/229/229 230/230/230 263/263/263
f 263/263/263 230/230/230 264/264/264
f 230/230/230 231/231/231 264/264/264
f 265/265/265 232/232/232 266/266/266
f 232/232/232 233/233/233 266/266/266
f 266/266/266 233/233/233 267/267/267
f 233/233/233 234/234/234 267/267/267
f 267/267/267 234/234/234 268/268/268
f 234/234/234 235/235/235 268/268/268
f 268/268/268 235/235/235 269/269/269
f 235/235/235 236/236/236 269/269/269
f 269/269/269 236/236/236 270/270/270
f 236/236/236 237/237/237 270/270/270
f 270/270/270 237/237/237 271/271/271
f 237/237/237 238/238/238 271/271/271
f 271/271/271 238/238/238 272/272/272
f 238/238/238 239/239/239 272/272/272
f 272/272/272 239/239/239 273/273/273
f 239/239/239 240/240/240 273/273/273
f 273/273/273 240/240/240 274/274/274
f 240/240/240 241/241/241 274/274/274
f 274/274/274 241/241/241 275/275/275
f 241/241/241 242/242/242 275/275/275
f 275/275/275 242/242/242 276/276/276
f 242/242/242 243/243/243 276/276/276
f 276/276/276 243/243/243 277/277/277
f 243/243/243 244/244/244 277/277/277
f 277/277/277 244/244/244 278/278/278
f 244/244/244 245/245/245 278/278/278
f 278/278/278 245/245/245 279/279/279
f 245/245/245 246/246/246 279/279/279
f 279/279/279 246/246/246 280/280/280
f 246/246/246 247/247/247 280/280/280
f 280/280/280 247/247/247 281/281/281
f 247/247/247 248/248/248 281/281/281
f 281/281/281 248/248/248 282/282/282
f 248/248/248 249/249/249 282/282/282
f 282/282/282 249/249/249 283/283/283
f 249/249/249 250/250/250 283/283/283
f 283/283/283 250/250/250 284/284/284
f 250/250/250 251/251/251 284/284/284
f 284/284/284 251/251/251 285/285/285
f 251/251/251 252/252/252 285/285/285
f 285/285/285 252/252/252 286/286/286
f 252/252/252 253/253/253 286/286/286
f 286/286/286 253/253/253 287/287/287
f 253/253/253 254/254/254 287/287/287
f 287/287/287 254/254/254 288/288/288
f 254/254/254 255/255/255 288/288/288
f 288/288/288 255/255/255 289/289/289
f 255/255/255 256/256/256 289/289/289
f 289/289/289 256/256/256 290/290/290
f 256/256/256 257/257/257 290/290/290
f 290/290/290 257/257/257 291/291/291
f 257/257/257 258/258/258 291/291/291
f 291/291/291 258/258/258 292/292/292
f 258/258/258 259/259/259 292/292/292
f 292/292/292 259/259/259 293/293/293
f 259/259/259 260/260/260 293/293/293
f 293/293/293 260/260/260 294/294/294
f 260/260/260 261/261/261 294/294/294
f 294/294/294 261/261/261 295/295/295
f 261/261/261 262/262/262 295/295/295
f 295/295/295 262/262/262 296/296/296
f 262/262/262 263/263/263 296/296/296
f 296/296/296 263/263/263 297/297/297
f 263/263/263 264/264/264 297/297/297
f 298/298/298 265/265/265 299/299/299
f 265/265/265 266/266/266 299/299/299
f 299/299/299 266/266/266 300/300/300
f 266/266/266 267/267/267 300/300/300
f 300/300/300 267/267/267 301/301/301
f 267/267/267 268/268/268 301/301/301
f 301/301/301 268/268/268 302/302/302
f 268/268/268 269/269/269 302/302/302
f 302/302/302 269/269/269 303/303/303
f 269/269/269 270/270/270 303/303/303
f 303/303/303 270/270/270 304/304/304
f 270/270/270 271/271/271 304/304/304
f 304/304/304 271/271/271 305/305/305
f 271/271/271 272/272/272 305/305/305
f 305/305/305 272/272/272 306/306/306
f 272/272/272 273/273/273 306/306/306
f 306/306/306 273/273/273 307/307/307
f 273/273/273 274/274/274 307/307/307
f 307/307/307 274/274/274 308/308/308
f 274/274/274 275/275/275 308/308/308
f 308/308/308 275/275/275 309/309/309
f 275/275/275 276/276/276 309/309/309
f 309/309/309 276/276/276 310/310/310
f 276/276/276 277/277/277 310/310/310
f 310/310/310 277/277/277 311/311/311
f 277/277/277 278/278/278 311/311/311
f 311/311/311 278/278/278 312/312/312
f 278/278/278 279/279/279 312/312/312
f 312/312/312 279/279/279 313/313/313
f 279/279/279 280/280/280 313/313/313
f 313/313/313 280/280/280 314/314/314
f 280/280/280 281/281/281 314/314/314
f 314/314/314 281/281/281 315/315/315
f 281/281/281 282/282/282 315/315/315
f 315/315/315 282/282/282 316/316/316
f 282/282/282 283/283/283 316/316/316
f 316/316/316 283/283/283 317/317/317
f 283/283/283 284/284/284 317/317/317
f 317/317/317 284/284/284 318/318/318
f 284/284/284 285/285/285 318/318/318
f 318/318/318 285/285/285 319/319/319
f 285/285/285 286/286/286 319/319/319
f 319/319/319 286/286/286 320/320/320
f 286/286/286 287/287/287 320/320/320
f 320/320/320 287/287/287 321/321/321
f 287/287/287 288/288/288 321/321/321
f 321/321/321 288/288/288 322/322/322
f 288/288/288 289/289/289 322/322/322
f 322/322/322 289/289/289 323/323/323
f 289/289/289 290/290/290 323/323/323
f 323/323/323 290/290/290 324/324/324
f 290/290/290 291/291/291 324/324/324
f 324/324/324 291/291/291 325/325/325
f 291/291/291 292/292/292 325/325/325
f 325/325/325 292/292/292 326/326/326
f 292/292/292 293/293/293 326/326/326
f 326/326/326 293/293/293 327/327/327
f 293/293/293 294/294/294 327/327/327
f 327/327/327 294/294/294 328/328/328
f 294/294/294 295/295/295 328/328/328
f 328/328/328 295/295/295 329/329/329
f 295/295/295 296/296/296 329/329/329
f 329/329/329 296/296/296 330/330/330
f 296/296/296 297/297/297 330/330/330
f 331/331/331 298/298/298 332/332/332
f 298/298/298 299/299/299 332/332/332
f 332/332/332 299/299/299 333/333/333
f 299/299/299 300/300/300 333/333/333
f 333/333/333 300/300/300 334/334/334
f 300/300/300 301/301/301 334/334/334
f 334/334/334 301/301/301 335/335/335
f 301/301/301 302/302/302 335/335/335
f 335/335/335 302/302/302 336/336/336
f 302/302/302 303/303/303 336/336/336
f 336/336/336 303/303/303 337/337/337
f 303/303/303 304/304/304 337/337/337
f 337/337/337 304/304/304 338/338/338
f 304/304/304 305/305/305 338/338/338
f 338/338/338 305/305/305 339/339/339
f 305/305/305 306/306/306 339/339/339
f 339/339/339 306/306/306 340/340/340
f 306/306/306 307/307/307 340/340/340
f 340/340/340 307/307/307 341/341/341
f 307/307/307 308/308/308 341/341/341
f 341/341/341 308/308/308 342/342/342
f 308/308/308 309/309/309 342/342/342
f 342/342/342 309/309/309 343/343/343
f 309/309/309 310/310/310 343/343/343
f 343/343/343 310/310/310 344/344/344
f 310/310/310 311/311/311 344/344/344
f 344/344/344 311/311/311 345/345/345
f 311/311/311 312/312/312 345/345/345
f 345/345/345 312/312/312 346/346/346
f 312/312/312 313/313/313 346/346/346
f 346/346/346 313/313/313 347/347/347
f 313/313/313 314/314/314 347/347/347
f 347/347/347 314/314/314 348/348/348
f 314/314/314 315/315/315 348/348/348
f 348/348/348 315/315/315 349/349/349
f 315/315/315 316/316/316 349/349/349
f 349/349/349 316/316/316 350/350/350
f 316/316/316 317/317/317 350/350/350
f 350/350/350 317/317/317 351/351/351
f 317/317/317 318/318/318 351/351/351
f 351/351/351 318/318/318 352/352/352
f 318/318/318 319/319/319 352/352/352
f 352/352/352 319/319/319 353/353/353
f 319/319/319 320/320/320 353/353/353
f 353/353/353 320/320/320 354/354/354
f 320/320/320 321/321/321 354/354/354
f 354/354/354 321/321/321 355/355/355
f 321/321/321 322/322/322 355/355/355
f 355/355/355 322/322/322 356/356/356
f 322/322/322 323/323/323 356/356/356
f 356/356/356 323/323/323 357/357/357
f 323/323/323 324/324/324 357/357/357
f 357/357/357 324/324/324 358/358/358
f 324/324/324 325/325/325 358/358/358
f 358/358/358 325/325/325 359/359/359
f 325/325/325 326/326/326 359/359/359
f 359/359/359 326/326/326 360/360/360
f 326/326/326 327/327/327 360/360/360
f 360/360/360 327/327/327 361/361/361
f 327/327/327 328/328/328 361/361/361
f 361/361/361 328/328/328 362/362/362
f 328/328/328 329/329/329 362/362/362
f 362/362/362 329/329/329 363/363/363
f 329/329/329 330/330/330 363/363/363
