o shape_092
v 0.7534910440444946 0 0
v 0.7522547245025635 0.07556148618459702 0
v 0.7485465407371521 0.15104205906391144 0
v 0.7423706650733948 0.22636090219020844 0
v 0.7337338924407959 0.3014373481273651 0
v 0.7226452827453613 0.37619099020957947 0
v 0.709116518497467 0.45054179430007935 0
v 0.6931625604629517 0.5244101881980896 0
v 0.6748001575469971 0.5977169871330261 0
v 0.6540490984916687 0.6703837513923645 0
v 0.6309314370155334 0.7423326373100281 0
v 0.6054723262786865 0.813486635684967 0
v 0.5776985287666321 0.8837695717811584 0
v 0.5476399660110474 0.9531061053276062 0
v 0.5153288245201111 1.021422028541565 0
v 0.4807998538017273 1.0886441469192505 0
v 0.44408997893333435 1.154700517654419 0
v 0.405238538980484 1.2195204496383667 0
v 0.36428678035736084 1.2830345630645752 0
v 0.32127898931503296 1.3451746702194214 0
v 0.2762610614299774 1.4058743715286255 0
v 0.2292812168598175 1.4650685787200928 0
v 0.1803896725177765 1.5226939916610718 0
v 0.1296388953924179 1.5786887407302856 0
v 0.07708314806222916 1.632993221282959 0
v 0.022778768092393875 1.6855489015579224 0
v -0.03321604058146477 1.736299753189087 0
v -0.09084142744541168 1.785191297531128 0
v -0.15003569424152374 1.832171082496643 0
v -0.21073536574840546 1.877189040184021 0
v -0.27287548780441284 1.920196771621704 0
v -0.3363895118236542 1.9611486196517944 0
v -0.4012095034122467 2 0
v 0.6862114071846008 0 0.2070658802986145
v 0.6850107908248901 0.0733601525425911 0.2070658802986145
v 0.6814109086990356 0.14664174616336823 0.2070658802986145
v 0.6754149198532104 0.21976631879806519 0.2070658802986145
v 0.667029619216919 0.2926555573940277 0.2070658802986145
v 0.6562641263008118 0.3652314245700836 0.2070658802986145
v 0.6431296467781067 0.4374161660671234 0.2070658802986145
v 0.627640426158905 0.5091325640678406 0.2070658802986145
v 0.6098129749298096 0.5803036689758301 0.2070658802986145
v 0.589666485786438 0.6508534550666809 0.2070658802986145
v 0.5672223567962646 0.7207062840461731 0.2070658802986145
v 0.5425046682357788 0.7897873520851135 0.2070658802986145
v 0.5155400037765503 0.8580226898193359 0.2070658802986145
v 0.4863572418689728 0.9253392219543457 0.2070658802986145
v 0.454987496137619 0.9916648864746094 0.2070658802986145
v 0.42146456241607666 1.0569287538528442 0.2070658802986145
v 0.3858240246772766 1.1210607290267944 0.2070658802986145
v 0.3481042683124542 1.1839921474456787 0.2070658802986145
v 0.308345764875412 1.24565589427948 0.2070658802986145
v 0.26659083366394043 1.305985689163208 0.2070658802986145
v 0.222884401679039 1.3649169206619263 0.2070658802986145
v 0.17727315425872803 1.4223867654800415 0.2070658802986145
v 0.1298060566186905 1.4783333539962769 0.2070658802986145
v 0.08053375780582428 1.5326969623565674 0.2070658802986145
v 0.029509203508496284 1.5854191780090332 0.2070658802986145
v -0.02321312576532364 1.6364437341690063 0.2070658802986145
v -0.0775766521692276 1.6857160329818726 0.2070658802986145
v -0.13352328538894653 1.7331831455230713 0.2070658802986145
v -0.1909930557012558 1.7787944078445435 0.2070658802986145
v -0.24992437660694122 1.8225008249282837 0.2070658802986145
v -0.31025415658950806 1.8642557859420776 0.2070658802986145
v -0.37191784381866455 1.9040143489837646 0.2070658802986145
v -0.4348493218421936 1.9417340755462646 0.2070658802986145
v 0.5100705623626709 0 0.3350396454334259
v 0.508964478969574 0.06759698688983917 0.3350396454334259
v 0.5056470632553101 0.13512159883975983 0.3350396454334259
v 0.5001223683357239 0.20250150561332703 0.3350396454334259
v 0.49239593744277954 0.26966458559036255 0.3350396454334259
v 0.4824759364128113 0.3365388810634613 0.3350396454334259
v 0.47037339210510254 0.40305280685424805 0.3350396454334259
v 0.45610085129737854 0.4691351354122162 0.3350396454334259
v 0.43967393040657043 0.5347151160240173 0.3350396454334259
v 0.4211101830005646 0.5997225046157837 0.3350396454334259
v 0.40042927861213684 0.6640876531600952 0.3350396454334259
v 0.3776533901691437 0.7277417778968811 0.3350396454334259
v 0.3528071641921997 0.7906165719032288 0.3350396454334259
v 0.32591691613197327 0.852644681930542 0.3350396454334259
v 0.2970115840435028 0.9137598276138306 0.3350396454334259
v 0.2661222219467163 0.9738965034484863 0.3350396454334259
v 0.23328161239624023 1.0329903364181519 0.3350396454334259
v 0.19852519035339355 1.0909779071807861 0.3350396454334259
v 0.16189007461071014 1.1477973461151123 0.3350396454334259
v 0.12341544032096863 1.2033876180648804 0.3350396454334259
v 0.08314259350299835 1.2576892375946045 0.3350396454334259
v 0.04111458361148834 1.3106441497802734 0.3350396454334259
v -0.002623564563691616 1.3621957302093506 0.3350396454334259
v -0.04802507534623146 1.4122884273529053 0.3350396454334259
v -0.0950411856174469 1.4608688354492188 0.3350396454334259
v -0.14362162351608276 1.5078849792480469 0.3350396454334259
v -0.19371435046195984 1.5532864332199097 0.3350396454334259
v -0.24526582658290863 1.5970245599746704 0.3350396454334259
v -0.29822075366973877 1.6390526294708252 0.3350396454334259
v -0.35252246260643005 1.6793254613876343 0.3350396454334259
v -0.40811270475387573 1.7178001403808594 0.3350396454334259
v -0.4649321436882019 1.7544351816177368 0.3350396454334259
v -0.5229197144508362 1.7891916036605835 0.3350396454334259
v 0.29234859347343445 0 0.3350396454334259
v 0.2913590371608734 0.060473326593637466 0.3350396454334259
v 0.2883913815021515 0.12088190019130707 0.3350396454334259
v 0.2834487557411194 0.181161031126976 0.3350396454334259
v 0.2765364646911621 0.24124616384506226 0.3350396454334259
v 0.26766204833984375 0.30107295513153076 0.3350396454334259
v 0.25683486461639404 0.36057737469673157 0.3350396454334259
v 0.24406644701957703 0.4196956753730774 0.3350396454334259
v 0.22937068343162537 0.4783645272254944 0.3350396454334259
v 0.2127632051706314 0.5365211367607117 0.3350396454334259
v 0.19426174461841583 0.5941032767295837 0.3350396454334259
v 0.17388612031936646 0.6510491967201233 0.3350396454334259
v 0.15165828168392181 0.7072979807853699 0.3350396454334259
v 0.12760189175605774 0.7627893686294556 0.3350396454334259
v 0.10174275189638138 0.8174638748168945 0.3350396454334259
v 0.07410860806703568 0.8712630867958069 0.3350396454334259
v 0.04472885653376579 0.92412930727005 0.3350396454334259
v 0.013635238632559776 0.9760059714317322 0.3350396454334259
v -0.0191391222178936 1.0268374681472778 0.3350396454334259
v -0.053559113293886185 1.0765694379806519 0.3350396454334259
v -0.08958787471055984 1.1251485347747803 0.3350396454334259
v -0.12718679010868073 1.172522783279419 0.3350396454334259
v -0.16631561517715454 1.2186416387557983 0.3350396454334259
v -0.2069324553012848 1.2634552717208862 0.3350396454334259
v -0.24899382889270782 1.3069162368774414 0.3350396454334259
v -0.29245468974113464 1.3489775657653809 0.3350396454334259
v -0.3372683823108673 1.3895944356918335 0.3350396454334259
v -0.3833872079849243 1.4287232160568237 0.3350396454334259
v -0.430761456489563 1.4663221836090088 0.3350396454334259
v -0.4793405830860138 1.502350926399231 0.3350396454334259
v -0.5290724635124207 1.5367709398269653 0.3350396454334259
v -0.5799040794372559 1.5695452690124512 0.3350396454334259
v -0.6317806839942932 1.6006388664245605 0.3350396454334259
v 0.11620777100324631 0 0.2070658802986145
v 0.11531257629394531 0.054710160940885544 0.2070658802986145
v 0.11262767761945724 0.10936173796653748 0.2070658802986145
v 0.10815612226724625 0.16389621794223785 0.2070658802986145
v 0.10190267860889435 0.2182551771402359 0.2070658802986145
v 0.09387389570474625 0.27238041162490845 0.2070658802986145
v 0.08407850563526154 0.3262140154838562 0.2070658802986145
v 0.07252702116966248 0.3796982765197754 0.2070658802986145
v 0.059231795370578766 0.43277597427368164 0.2070658802986145
v 0.044206950813531876 0.48539018630981445 0.2070658802986145
v 0.02746870182454586 0.5374846458435059 0.2070658802986145
v 0.009035011753439903 0.5890035629272461 0.2070658802986145
v -0.011074521578848362 0.6398918032646179 0.2070658802986145
v -0.03283831477165222 0.6900947690010071 0.2070658802986145
v -0.05623304471373558 0.7395588159561157 0.2070658802986145
v -0.08123373985290527 0.7882308959960938 0.2070658802986145
v -0.10781345516443253 0.8360589146614075 0.2070658802986145
v -0.13594384491443634 0.8829916715621948 0.2070658802986145
v -0.16559480130672455 0.9289789199829102 0.2070658802986145
v -0.19673462212085724 0.9739713668823242 0.2070658802986145
v -0.2293296903371811 1.0179208517074585 0.2070658802986145
v -0.26334547996520996 1.06078040599823 0.2070658802986145
v -0.2987452447414398 1.1025038957595825 0.2070658802986145
v -0.3354912996292114 1.1430469751358032 0.2070658802986145
v -0.3735440969467163 1.182365894317627 0.2070658802986145
v -0.4128630757331848 1.2204186916351318 0.2070658802986145
v -0.45340609550476074 1.2571648359298706 0.2070658802986145
v -0.49512961506843567 1.2925645112991333 0.2070658802986145
v -0.5379891395568848 1.326580286026001 0.2070658802986145
v -0.581938624382019 1.359175443649292 0.2070658802986145
v -0.6269311904907227 1.3903151750564575 0.2070658802986145
v -0.6729183793067932 1.419966220855713 0.2070658802986145
v -0.7198510766029358 1.4480966329574585 0.2070658802986145
v 0.04892802983522415 0 4.3142044907789037e-17
v 0.04806876182556152 0.05250883102416992 4.3142044907789037e-17
v 0.04549200460314751 0.10496143251657486 4.3142044907789037e-17
v 0.04120032489299774 0.1573016345500946 4.3142044907789037e-17
v 0.0351983904838562 0.2094734013080597 4.3142044907789037e-17
v 0.02749273180961609 0.261420875787735 4.3142044907789037e-17
v 0.018091516569256783 0.31308838725090027 4.3142044907789037e-17
v 0.007004775106906891 0.36442065238952637 4.3142044907789037e-17
v -0.005755475722253323 0.4153626561164856 4.3142044907789037e-17
v -0.02017570473253727 0.46585988998413086 4.3142044907789037e-17
v -0.03624051436781883 0.5158582925796509 4.3142044907789037e-17
v -0.05393252149224281 0.5653042793273926 4.3142044907789037e-17
v -0.07323294878005981 0.6141449809074402 4.3142044907789037e-17
v -0.09412114322185516 0.6623279452323914 4.3142044907789037e-17
v -0.1165744736790657 0.7098017334938049 4.3142044907789037e-17
v -0.14056915044784546 0.7565154433250427 4.3142044907789037e-17
v -0.16607950627803802 0.8024190068244934 4.3142044907789037e-17
v -0.19307799637317657 0.8474634289741516 4.3142044907789037e-17
v -0.22153595089912415 0.8916002511978149 4.3142044907789037e-17
v -0.2514226734638214 0.9347823858261108 4.3142044907789037e-17
v -0.28270643949508667 0.9769635200500488 4.3142044907789037e-17
v -0.3153534233570099 1.0180985927581787 4.3142044907789037e-17
v -0.3493288457393646 1.0581432580947876 4.3142044907789037e-17
v -0.3845963180065155 1.0970549583435059 4.3142044907789037e-17
v -0.4211181700229645 1.1347918510437012 4.3142044907789037e-17
v -0.4588550925254822 1.171313762664795 4.3142044907789037e-17
v -0.49776679277420044 1.2065812349319458 4.3142044907789037e-17
v -0.5378114581108093 1.2405565977096558 4.3142044907789037e-17
v -0.5789464712142944 1.2732036113739014 4.3142044907789037e-17
v -0.6211276650428772 1.3044873476028442 4.3142044907789037e-17
v -0.6643097400665283 1.3343740701675415 4.3142044907789037e-17
v -0.7084466218948364 1.3628320693969727 4.3142044907789037e-17
v -0.7534910440444946 1.389830470085144 4.3142044907789037e-17
v 0.11620777100324631 0 -0.2070658802986145
v 0.11531257629394531 0.054710160940885544 -0.2070658802986145
v 0.11262767761945724 0.10936173796653748 -0.2070658802986145
v 0.10815612226724625 0.16389621794223785 -0.2070658802986145
v 0.10190267860889435 0.2182551771402359 -0.2070658802986145
v 0.09387389570474625 0.27238041162490845 -0.2070658802986145
v 0.08407850563526154 0.3262140154838562 -0.2070658802986145
v 0.07252702116966248 0.3796982765197754 -0.2070658802986145
v 0.059231795370578766 0.43277597427368164 -0.2070658802986145
v 0.044206950813531876 0.48539018630981445 -0.2070658802986145
v 0.02746870182454586 0.5374846458435059 -0.2070658802986145
v 0.009035011753439903 0.5890035629272461 -0.2070658802986145
v -0.011074521578848362 0.6398918032646179 -0.2070658802986145
v -0.03283831477165222 0.6900947690010071 -0.2070658802986145
v -0.05623304471373558 0.7395588159561157 -0.2070658802986145
v -0.08123373985290527 0.7882308959960938 -0.2070658802986145
v -0.10781345516443253 0.8360589146614075 -0.2070658802986145
v -0.13594384491443634 0.8829916715621948 -0.2070658802986145
v -0.16559480130672455 0.9289789199829102 -0.2070658802986145
v -0.19673462212085724 0.9739713668823242 -0.2070658802986145
v -0.2293296903371811 1.0179208517074585 -0.2070658802986145
v -0.26334547996520996 1.06078040599823 -0.2070658802986145
v -0.2987452447414398 1.1025038957595825 -0.2070658802986145
v -0.3354912996292114 1.1430469751358032 -0.2070658802986145
v -0.3735440969467163 1.182365894317627 -0.2070658802986145
v -0.4128630757331848 1.2204186916351318 -0.2070658802986145
v -0.45340609550476074 1.2571648359298706 -0.2070658802986145
v -0.49512961506843567 1.2925645112991333 -0.2070658802986145
v -0.5379891395568848 1.326580286026001 -0.2070658802986145
v -0.581938624382019 1.359175443649292 -0.2070658802986145
v -0.6269311904907227 1.3903151750564575 -0.2070658802986145
v -0.6729183793067932 1.419966220855713 -0.2070658802986145
v -0.7198510766029358 1.4480966329574585 -0.2070658802986145
v 0.29234859347343445 0 -0.3350396454334259
v 0.2913590371608734 0.060473326593637466 -0.3350396454334259
v 0.2883913815021515 0.12088190019130707 -0.3350396454334259
v 0.2834487557411194 0.181161031126976 -0.3350396454334259
v 0.2765364646911621 0.24124616384506226 -0.3350396454334259
v 0.26766204833984375 0.30107295513153076 -0.3350396454334259
v 0.25683486461639404 0.36057737469673157 -0.3350396454334259
v 0.24406644701957703 0.4196956753730774 -0.3350396454334259
v 0.22937068343162537 0.4783645272254944 -0.3350396454334259
v 0.2127632051706314 0.5365211367607117 -0.3350396454334259
v 0.19426174461841583 0.5941032767295837 -0.3350396454334259
v 0.17388612031936646 0.6510491967201233 -0.3350396454334259
v 0.15165828168392181 0.7072979807853699 -0.3350396454334259
v 0.12760189175605774 0.7627893686294556 -0.3350396454334259
v 0.10174275189638138 0.8174638748168945 -0.3350396454334259
v 0.07410860806703568 0.8712630867958069 -0.3350396454334259
v 0.04472885653376579 0.92412930727005 -0.3350396454334259
v 0.013635238632559776 0.9760059714317322 -0.3350396454334259
v -0.0191391222178936 1.0268374681472778 -0.3350396454334259
v -0.053559113293886185 1.0765694379806519 -0.3350396454334259
v -0.08958787471055984 1.1251485347747803 -0.3350396454334259
v -0.12718679010868073 1.172522783279419 -0.3350396454334259
v -0.16631561517715454 1.2186416387557983 -0.3350396454334259
v -0.2069324553012848 1.2634552717208862 -0.3350396454334259
v -0.24899382889270782 1.3069162368774414 -0.3350396454334259
v -0.29245468974113464 1.3489775657653809 -0.3350396454334259
v -0.3372683823108673 1.3895944356918335 -0.3350396454334259
v -0.3833872079849243 1.4287232160568237 -0.3350396454334259
v -0.430761456489563 1.4663221836090088 -0.3350396454334259
v -0.4793405830860138 1.502350926399231 -0.3350396454334259
v -0.5290724635124207 1.5367709398269653 -0.3350396454334259
v -0.5799040794372559 1.5695452690124512 -0.3350396454334259
v -0.6317806839942932 1.6006388664245605 -0.3350396454334259
v 0.5100705623626709 0 -0.3350396454334259
v 0.508964478969574 0.06759698688983917 -0.3350396454334259
v 0.5056470632553101 0.13512159883975983 -0.3350396454334259
v 0.5001223683357239 0.20250150561332703 -0.3350396454334259
v 0.49239593744277954 0.26966458559036255 -0.3350396454334259
v 0.4824759364128113 0.3365388810634613 -0.3350396454334259
v 0.47037339210510254 0.40305280685424805 -0.3350396454334259
v 0.45610085129737854 0.4691351354122162 -0.3350396454334259
v 0.43967393040657043 0.5347151160240173 -0.3350396454334259
v 0.4211101830005646 0.5997225046157837 -0.3350396454334259
v 0.40042927861213684 0.6640876531600952 -0.3350396454334259
v 0.3776533901691437 0.7277417778968811 -0.3350396454334259
v 0.3528071641921997 0.7906165719032288 -0.3350396454334259
v 0.32591691613197327 0.852644681930542 -0.3350396454334259
v 0.2970115840435028 0.9137598276138306 -0.3350396454334259
v 0.2661222219467163 0.9738965034484863 -0.3350396454334259
v 0.23328161239624023 1.0329903364181519 -0.3350396454334259
v 0.19852519035339355 1.0909779071807861 -0.3350396454334259
v 0.16189007461071014 1.1477973461151123 -0.3350396454334259
v 0.12341544032096863 1.2033876180648804 -0.3350396454334259
v 0.08314259350299835 1.2576892375946045 -0.3350396454334259
v 0.04111458361148834 1.3106441497802734 -0.3350396454334259
v -0.002623564563691616 1.3621957302093506 -0.3350396454334259
v -0.04802507534623146 1.4122884273529053 -0.3350396454334259
v -0.0950411856174469 1.4608688354492188 -0.3350396454334259
v -0.14362162351608276 1.5078849792480469 -0.3350396454334259
v -0.19371435046195984 1.5532864332199097 -0.3350396454334259
v -0.24526582658290863 1.5970245599746704 -0.3350396454334259
v -0.29822075366973877 1.6390526294708252 -0.3350396454334259
v -0.35252246260643005 1.6793254613876343 -0.3350396454334259
v -0.40811270475387573 1.7178001403808594 -0.3350396454334259
v -0.4649321436882019 1.7544351816177368 -0.3350396454334259
v -0.5229197144508362 1.7891916036605835 -0.3350396454334259
v 0.6862114071846008 0 -0.2070658802986145
v 0.6850107908248901 0.0733601525425911 -0.2070658802986145
v 0.6814109086990356 0.14664174616336823 -0.2070658802986145
v 0.6754149198532104 0.21976631879806519 -0.2070658802986145
v 0.667029619216919 0.2926555573940277 -0.2070658802986145
v 0.6562641263008118 0.3652314245700836 -0.2070658802986145
v 0.6431296467781067 0.4374161660671234 -0.2070658802986145
v 0.627640426158905 0.5091325640678406 -0.2070658802986145
v 0.6098129749298096 0.5803036689758301 -0.2070658802986145
v 0.589666485786438 0.6508534550666809 -0.2070658802986145
v 0.5672223567962646 0.7207062840461731 -0.2070658802986145
v 0.5425046682357788 0.7897873520851135 -0.2070658802986145
v 0.5155400037765503 0.8580226898193359 -0.2070658802986145
v 0.4863572418689728 0.9253392219543457 -0.2070658802986145
v 0.454987496137619 0.9916648864746094 -0.2070658802986145
v 0.42146456241607666 1.0569287538528442 -0.2070658802986145
v 0.3858240246772766 1.1210607290267944 -0.2070658802986145
v 0.3481042683124542 1.1839921474456787 -0.2070658802986145
v 0.308345764875412 1.24565589427948 -0.2070658802986145
v 0.26659083366394043 1.305985689163208 -0.2070658802986145
v 0.222884401679039 1.3649169206619263 -0.2070658802986145
v 0.17727315425872803 1.4223867654800415 -0.2070658802986145
v 0.1298060566186905 1.4783333539962769 -0.2070658802986145
v 0.08053375780582428 1.5326969623565674 -0.2070658802986145
v 0.029509203508496284 1.5854191780090332 -0.2070658802986145
v -0.02321312576532364 1.6364437341690063 -0.2070658802986145
v -0.0775766521692276 1.6857160329818726 -0.2070658802986145
v -0.13352328538894653 1.7331831455230713 -0.2070658802986145
v -0.1909930557012558 1.7787944078445435 -0.2070658802986145
v -0.24992437660694122 1.8225008249282837 -0.2070658802986145
v -0.31025415658950806 1.8642557859420776 -0.2070658802986145
v -0.37191784381866455 1.9040143489837646 -0.2070658802986145
v -0.4348493218421936 1.9417340755462646 -0.2070658802986145
v 0.7534910440444946 0 -8.628408981557807e-17
v 0.7522547245025635 0.07556148618459702 -8.628408981557807e-17
v 0.7485465407371521 0.15104205906391144 -8.628408981557807e-17
v 0.7423706650733948 0.22636090219020844 -8.628408981557807e-17
v 0.7337338924407959 0.3014373481273651 -8.628408981557807e-17
v 0.7226452827453613 0.37619099020957947 -8.628408981557807e-17
v 0.709116518497467 0.45054179430007935 -8.628408981557807e-17
v 0.6931625604629517 0.5244101881980896 -8.628408981557807e-17
v 0.6748001575469971 0.5977169871330261 -8.628408981557807e-17
v 0.6540490984916687 0.6703837513923645 -8.628408981557807e-17
v 0.6309314370155334 0.7423326373100281 -8.628408981557807e-17
v 0.6054723262786865 0.813486635684967 -8.628408981557807e-17
v 0.5776985287666321 0.8837695717811584 -8.628408981557807e-17
v 0.5476399660110474 0.9531061053276062 -8.628408981557807e-17
v 0.5153288245201111 1.021422028541565 -8.628408981557807e-17
v 0.4807998538017273 1.0886441469192505 -8.628408981557807e-17
v 0.44408997893333435 1.154700517654419 -8.628408981557807e-17
v 0.405238538980484 1.2195204496383667 -8.628408981557807e-17
v 0.36428678035736084 1.2830345630645752 -8.628408981557807e-17
v 0.32127898931503296 1.3451746702194214 -8.628408981557807e-17
v 0.2762610614299774 1.4058743715286255 -8.628408981557807e-17
v 0.2292812168598175 1.4650685787200928 -8.628408981557807e-17
v 0.1803896725177765 1.5226939916610718 -8.628408981557807e-17
v 0.1296388953924179 1.5786887407302856 -8.628408981557807e-17
v 0.07708314806222916 1.632993221282959 -8.628408981557807e-17
v 0.022778768092393875 1.6855489015579224 -8.628408981557807e-17
v -0.03321604058146477 1.736299753189087 -8.628408981557807e-17
v -0.09084142744541168 1.785191297531128 -8.628408981557807e-17
v -0.15003569424152374 1.832171082496643 -8.628408981557807e-17
v -0.21073536574840546 1.877189040184021 -8.628408981557807e-17
v -0.27287548780441284 1.920196771621704 -8.628408981557807e-17
v -0.3363895118236542 1.9611486196517944 -8.628408981557807e-17
v -0.4012095034122467 2 -8.628408981557807e-17
vt 0 0
vt 0.03125 0
vt 0.0625 0
vt 0.09375 0
vt 0.125 0
vt 0.15625 0
vt 0.1875 0
vt 0.21875 0
vt 0.25 0
vt 0.28125 0
vt 0.3125 0
vt 0.34375 0
vt 0.375 0
vt 0.40625 0
vt 0.4375 0
vt 0.46875 0
vt 0.5 0
vt 0.53125 0
vt 0.5625 0
vt 0.59375 0
vt 0.625 0
vt 0.65625 0
vt 0.6875 0
vt 0.71875 0
vt 0.75 0
vt 0.78125 0
vt 0.8125 0
vt 0.84375 0
vt 0.875 0
vt 0.90625 0
vt 0.9375 0
vt 0.96875 0
vt 1 0
vt 0 0.10000000149011612
vt 0.03125 0.10000000149011612
vt 0.0625 0.10000000149011612
vt 0.09375 0.10000000149011612
vt 0.125 0.10000000149011612
vt 0.15625 0.10000000149011612
vt 0.1875 0.10000000149011612
vt 0.21875 0.10000000149011612
vt 0.25 0.10000000149011612
vt 0.28125 0.10000000149011612
vt 0.3125 0.10000000149011612
vt 0.34375 0.10000000149011612
vt 0.375 0.10000000149011612
vt 0.40625 0.10000000149011612
vt 0.4375 0.10000000149011612
vt 0.46875 0.10000000149011612
vt 0.5 0.10000000149011612
vt 0.53125 0.10000000149011612
vt 0.5625 0.10000000149011612
vt 0.59375 0.10000000149011612
vt 0.625 0.10000000149011612
vt 0.65625 0.10000000149011612
vt 0.6875 0.10000000149011612
vt 0.71875 0.10000000149011612
vt 0.75 0.10000000149011612
vt 0.78125 0.10000000149011612
vt 0.8125 0.10000000149011612
vt 0.84375 0.10000000149011612
vt 0.875 0.10000000149011612
vt 0.90625 0.10000000149011612
vt 0.9375 0.10000000149011612
vt 0.96875 0.10000000149011612
vt 1 0.10000000149011612
vt 0 0.20000000298023224
vt 0.03125 0.20000000298023224
vt 0.0625 0.20000000298023224
vt 0.09375 0.20000000298023224
vt 0.125 0.20000000298023224
vt 0.15625 0.20000000298023224
vt 0.1875 0.20000000298023224
vt 0.21875 0.20000000298023224
vt 0.25 0.20000000298023224
vt 0.28125 0.20000000298023224
vt 0.3125 0.20000000298023224
vt 0.34375 0.20000000298023224
vt 0.375 0.20000000298023224
vt 0.40625 0.20000000298023224
vt 0.4375 0.20000000298023224
vt 0.46875 0.20000000298023224
vt 0.5 0.20000000298023224
vt 0.53125 0.20000000298023224
vt 0.5625 0.20000000298023224
vt 0.59375 0.20000000298023224
vt 0.625 0.20000000298023224
vt 0.65625 0.20000000298023224
vt 0.6875 0.20000000298023224
vt 0.71875 0.20000000298023224
vt 0.75 0.20000000298023224
vt 0.78125 0.20000000298023224
vt 0.8125 0.20000000298023224
vt 0.84375 0.20000000298023224
vt 0.875 0.20000000298023224
vt 0.90625 0.20000000298023224
vt 0.9375 0.20000000298023224
vt 0.96875 0.20000000298023224
vt 1 0.20000000298023224
vt 0 0.30000001192092896
vt 0.03125 0.30000001192092896
vt 0.0625 0.30000001192092896
vt 0.09375 0.30000001192092896
vt 0.125 0.30000001192092896
vt 0.15625 0.30000001192092896
vt 0.1875 0.30000001192092896
vt 0.21875 0.30000001192092896
vt 0.25 0.30000001192092896
vt 0.28125 0.30000001192092896
vt 0.3125 0.30000001192092896
vt 0.34375 0.30000001192092896
vt 0.375 0.30000001192092896
vt 0.40625 0.30000001192092896
vt 0.4375 0.30000001192092896
vt 0.46875 0.30000001192092896
vt 0.5 0.30000001192092896
vt 0.53125 0.30000001192092896
vt 0.5625 0.30000001192092896
vt 0.59375 0.30000001192092896
vt 0.625 0.30000001192092896
vt 0.65625 0.30000001192092896
vt 0.6875 0.30000001192092896
vt 0.71875 0.30000001192092896
vt 0.75 0.30000001192092896
vt 0.78125 0.30000001192092896
vt 0.8125 0.30000001192092896
vt 0.84375 0.30000001192092896
vt 0.875 0.30000001192092896
vt 0.90625 0.30000001192092896
vt 0.9375 0.30000001192092896
vt 0.96875 0.30000001192092896
vt 1 0.30000001192092896
vt 0 0.4000000059604645
vt 0.03125 0.4000000059604645
vt 0.0625 0.4000000059604645
vt 0.09375 0.4000000059604645
vt 0.125 0.4000000059604645
vt 0.15625 0.4000000059604645
vt 0.1875 0.4000000059604645
vt 0.21875 0.4000000059604645
vt 0.25 0.4000000059604645
vt 0.28125 0.4000000059604645
vt 0.3125 0.4000000059604645
vt 0.34375 0.4000000059604645
vt 0.375 0.4000000059604645
vt 0.40625 0.4000000059604645
vt 0.4375 0.4000000059604645
vt 0.46875 0.4000000059604645
vt 0.5 0.4000000059604645
vt 0.53125 0.4000000059604645
vt 0.5625 0.4000000059604645
vt 0.59375 0.4000000059604645
vt 0.625 0.4000000059604645
vt 0.65625 0.4000000059604645
vt 0.6875 0.4000000059604645
vt 0.71875 0.4000000059604645
vt 0.75 0.4000000059604645
vt 0.78125 0.4000000059604645
vt 0.8125 0.4000000059604645
vt 0.84375 0.4000000059604645
vt 0.875 0.4000000059604645
vt 0.90625 0.4000000059604645
vt 0.9375 0.4000000059604645
vt 0.96875 0.4000000059604645
vt 1 0.4000000059604645
vt 0 0.5
vt 0.03125 0.5
vt 0.0625 0.5
vt 0.09375 0.5
vt 0.125 0.5
vt 0.15625 0.5
vt 0.1875 0.5
vt 0.21875 0.5
vt 0.25 0.5
vt 0.28125 0.5
vt 0.3125 0.5
vt 0.34375 0.5
vt 0.375 0.5
vt 0.40625 0.5
vt 0.4375 0.5
vt 0.46875 0.5
vt 0.5 0.5
vt 0.53125 0.5
vt 0.5625 0.5
vt 0.59375 0.5
vt 0.625 0.5
vt 0.65625 0.5
vt 0.6875 0.5
vt 0.71875 0.5
vt 0.75 0.5
vt 0.78125 0.5
vt 0.8125 0.5
vt 0.84375 0.5
vt 0.875 0.5
vt 0.90625 0.5
vt 0.9375 0.5
vt 0.96875 0.5
vt 1 0.5
vt 0 0.6000000238418579
vt 0.03125 0.6000000238418579
vt 0.0625 0.6000000238418579
vt 0.09375 0.6000000238418579
vt 0.125 0.6000000238418579
vt 0.15625 0.6000000238418579
vt 0.1875 0.6000000238418579
vt 0.21875 0.6000000238418579
vt 0.25 0.6000000238418579
vt 0.28125 0.6000000238418579
vt 0.3125 0.6000000238418579
vt 0.34375 0.6000000238418579
vt 0.375 0.6000000238418579
vt 0.40625 0.6000000238418579
vt 0.4375 0.6000000238418579
vt 0.46875 0.6000000238418579
vt 0.5 0.6000000238418579
vt 0.53125 0.6000000238418579
vt 0.5625 0.6000000238418579
vt 0.59375 0.6000000238418579
vt 0.625 0.6000000238418579
vt 0.65625 0.6000000238418579
vt 0.6875 0.6000000238418579
vt 0.71875 0.6000000238418579
vt 0.75 0.6000000238418579
vt 0.78125 0.6000000238418579
vt 0.8125 0.6000000238418579
vt 0.84375 0.6000000238418579
vt 0.875 0.6000000238418579
vt 0.90625 0.6000000238418579
vt 0.9375 0.6000000238418579
vt 0.96875 0.6000000238418579
vt 1 0.6000000238418579
vt 0 0.699999988079071
vt 0.03125 0.699999988079071
vt 0.0625 0.699999988079071
vt 0.09375 0.699999988079071
vt 0.125 0.699999988079071
vt 0.15625 0.699999988079071
vt 0.1875 0.699999988079071
vt 0.21875 0.699999988079071
vt 0.25 0.699999988079071
vt 0.28125 0.699999988079071
vt 0.3125 0.699999988079071
vt 0.34375 0.699999988079071
vt 0.375 0.699999988079071
vt 0.40625 0.699999988079071
vt 0.4375 0.699999988079071
vt 0.46875 0.699999988079071
vt 0.5 0.699999988079071
vt 0.53125 0.699999988079071
vt 0.5625 0.699999988079071
vt 0.59375 0.699999988079071
vt 0.625 0.699999988079071
vt 0.65625 0.699999988079071
vt 0.6875 0.699999988079071
vt 0.71875 0.699999988079071
vt 0.75 0.699999988079071
vt 0.78125 0.699999988079071
vt 0.8125 0.699999988079071
vt 0.84375 0.699999988079071
vt 0.875 0.699999988079071
vt 0.90625 0.699999988079071
vt 0.9375 0.699999988079071
vt 0.96875 0.699999988079071
vt 1 0.699999988079071
vt 0 0.800000011920929
vt 0.03125 0.800000011920929
vt 0.0625 0.800000011920929
vt 0.09375 0.800000011920929
vt 0.125 0.800000011920929
vt 0.15625 0.800000011920929
vt 0.1875 0.800000011920929
vt 0.21875 0.800000011920929
vt 0.25 0.800000011920929
vt 0.28125 0.800000011920929
vt 0.3125 0.800000011920929
vt 0.34375 0.800000011920929
vt 0.375 0.800000011920929
vt 0.40625 0.800000011920929
vt 0.4375 0.800000011920929
vt 0.46875 0.800000011920929
vt 0.5 0.800000011920929
vt 0.53125 0.800000011920929
vt 0.5625 0.800000011920929
vt 0.59375 0.800000011920929
vt 0.625 0.800000011920929
vt 0.65625 0.800000011920929
vt 0.6875 0.800000011920929
vt 0.71875 0.800000011920929
vt 0.75 0.800000011920929
vt 0.78125 0.800000011920929
vt 0.8125 0.800000011920929
vt 0.84375 0.800000011920929
vt 0.875 0.800000011920929
vt 0.90625 0.800000011920929
vt 0.9375 0.800000011920929
vt 0.96875 0.800000011920929
vt 1 0.800000011920929
vt 0 0.8999999761581421
vt 0.03125 0.8999999761581421
vt 0.0625 0.8999999761581421
vt 0.09375 0.8999999761581421
vt 0.125 0.8999999761581421
vt 0.15625 0.8999999761581421
vt 0.1875 0.8999999761581421
vt 0.21875 0.8999999761581421
vt 0.25 0.8999999761581421
vt 0.28125 0.8999999761581421
vt 0.3125 0.8999999761581421
vt 0.34375 0.8999999761581421
vt 0.375 0.8999999761581421
vt 0.40625 0.8999999761581421
vt 0.4375 0.8999999761581421
vt 0.46875 0.8999999761581421
vt 0.5 0.8999999761581421
vt 0.53125 0.8999999761581421
vt 0.5625 0.8999999761581421
vt 0.59375 0.8999999761581421
vt 0.625 0.8999999761581421
vt 0.65625 0.8999999761581421
vt 0.6875 0.8999999761581421
vt 0.71875 0.8999999761581421
vt 0.75 0.8999999761581421
vt 0.78125 0.8999999761581421
vt 0.8125 0.8999999761581421
vt 0.84375 0.8999999761581421
vt 0.875 0.8999999761581421
vt 0.90625 0.8999999761581421
vt 0.9375 0.8999999761581421
vt 0.96875 0.8999999761581421
vt 1 0.8999999761581421
vt 0 1
vt 0.03125 1
vt 0.0625 1
vt 0.09375 1
vt 0.125 1
vt 0.15625 1
vt 0.1875 1
vt 0.21875 1
vt 0.25 1
vt 0.28125 1
vt 0.3125 1
vt 0.34375 1
vt 0.375 1
vt 0.40625 1
vt 0.4375 1
vt 0.46875 1
vt 0.5 1
vt 0.53125 1
vt 0.5625 1
vt 0.59375 1
vt 0.625 1
vt 0.65625 1
vt 0.6875 1
vt 0.71875 1
vt 0.75 1
vt 0.78125 1
vt 0.8125 1
vt 0.84375 1
vt 0.875 1
vt 0.90625 1
vt 0.9375 1
vt 0.96875 1
vt 1 1
vn 0.9509413700041158 0.015560796257968723 0.3089795663705175
vn 0.9503685291894297 0.03619914895733075 0.3090133983196927
vn 0.9486753111189216 0.06727725846985794 0.3090128226565966
vn 0.9459661190764025 0.09828025045907861 0.30901309669531823
vn 0.9422441150125916 0.12917748128166612 0.30901327811901985
vn 0.9375129308017373 0.15993928851192496 0.309012829134708
vn 0.9317780548357446 0.19052813569425428 0.3090124367001884
vn 0.9250453608644529 0.2209124689798375 0.3090125586321478
vn 0.9173221153796582 0.25106049026561256 0.3090125674838795
vn 0.9086163263116799 0.2809405692624005 0.30901256948930944
vn 0.8989376592645559 0.31051928381476657 0.30901271678545195
vn 0.8882964914183267 0.3397647167161687 0.30901339875266276
vn 0.8767039290926256 0.36864752044646854 0.30901331101139146
vn 0.8641724729069465 0.3971359795291613 0.3090128651582427
vn 0.850716398333963 0.42519744544261734 0.3090125272456808
vn 0.836348670984097 0.452804903078756 0.309012330321903
vn 0.8210857475513771 0.4799262562767254 0.3090129183451771
vn 0.8049432726188898 0.5065344033210744 0.3090133105834682
vn 0.7879384298590398 0.5326011870575034 0.3090129549002909
vn 0.7700907986275711 0.5580959176737381 0.3090131203445212
vn 0.7514181388031802 0.5829937056690974 0.30901313860057567
vn 0.7319409138897753 0.607267132023733 0.30901315334119794
vn 0.7116792173112553 0.6308912013198562 0.30901291841026285
vn 0.6906563633876109 0.6538385147359381 0.3090129194064592
vn 0.6688934568952384 0.6760862474081991 0.3090128304589265
vn 0.6464148692134724 0.6976093576794756 0.3090129462300224
vn 0.6232432104740521 0.7183862898919504 0.30901300796774733
vn 0.5994045235963673 0.7383935571744582 0.30901322271945286
vn 0.5749238863807509 0.7576103387464365 0.3090131056983877
vn 0.5498281774936064 0.7760154090211044 0.30901304211289665
vn 0.5241432845159497 0.7935897797529177 0.3090130721645088
vn 0.4978970522957838 0.81031434681677 0.3090132434994993
vn 0.48894536180260045 0.8157599515820738 0.30897918144518516
vn 0.744823278619025 0.012189134050634615 0.6671504392851002
vn 0.812092400235591 0.02531786190649818 0.5829793644273182
vn 0.8108291585948892 0.05187533770224631 0.5829794378111307
vn 0.8086978799492542 0.07837810373498529 0.5829790835188596
vn 0.8057004264544398 0.10479503191561274 0.5829792655806375
vn 0.8018401829026792 0.13110032625062523 0.582979438350597
vn 0.797121304498961 0.15726684391105067 0.582979215512982
vn 0.791549006137636 0.18326292449803852 0.5829793061395462
vn 0.7851290808517133 0.20906354768392246 0.5829792101188139
vn 0.7778682953295555 0.23464030765079133 0.5829792802035362
vn 0.7697743303297451 0.25996676512510924 0.5829792118041421
vn 0.7608563907643467 0.28501319913908835 0.5829794412752084
vn 0.7511237186361202 0.3097549645009944 0.5829794346880808
vn 0.7405865862706762 0.3341653380516891 0.5829794465337061
vn 0.7292566849441782 0.3582175351414255 0.5829793177990358
vn 0.7171456698326582 0.3818865654960199 0.5829791928824924
vn 0.7042664801020985 0.40514695158271513 0.582979135671109
vn 0.6906336615077179 0.42797217201436605 0.582979386920111
vn 0.676260711301161 0.4503405700439055 0.582979263201512
vn 0.66116404383889 0.4722258139899946 0.5829793201616102
vn 0.6453593352020964 0.4936055524764198 0.582979319557698
vn 0.6288636911884244 0.5144565096478646 0.5829793800691466
vn 0.6116940947368018 0.5347573732849691 0.5829793188282794
vn 0.5938698019763113 0.5544850794894659 0.5829793777863651
vn 0.5754096934622004 0.5736190507765903 0.5829793043118257
vn 0.5563334791340968 0.5921386447002338 0.5829793181984432
vn 0.5366612767673733 0.6100244033884945 0.5829793317853764
vn 0.516414345567378 0.6272569910054016 0.5829793228983908
vn 0.4956145093398678 0.6438177960238998 0.5829793338144418
vn 0.4742844281545713 0.6596888731162682 0.5829793065767251
vn 0.4524458308435387 0.674853974527869 0.5829793162850962
vn 0.4301232580656982 0.68929604834405 0.5829793655080993
vn 0.44659311261113704 0.7450959200171958 0.49536518018732906
vn 0.21244181434901255 0.003476242492648286 0.9771675348957474
vn 0.31874038915231934 0.008598479211935649 0.9478030546892482
vn 0.31828835623998303 0.019022163014095934 0.9478030806007727
vn 0.3174955265130683 0.02942622654344183 0.947803084947292
vn 0.31636276311006023 0.03979891471925364 0.9478030641987489
vn 0.31489124309179817 0.05012843292216965 0.9478030624749371
vn 0.31308236969411124 0.06040477428628401 0.947803087687597
vn 0.3109384131949654 0.07061622929745039 0.9478030657048999
vn 0.3084614052258303 0.08075171901201922 0.9478031026340387
vn 0.3056541173121957 0.09080104790920077 0.9478031073322631
vn 0.3025194469191523 0.10075350314524054 0.9478030997204493
vn 0.2990609702195758 0.11059773701322406 0.9478030790511707
vn 0.29528227071463703 0.12032341803470135 0.9478030679809251
vn 0.2911872864198344 0.12992030384069625 0.9478030802215165
vn 0.28678053719821106 0.1393780415263764 0.947803083464375
vn 0.28206670715685583 0.14868647087535114 0.9478030945783634
vn 0.2770506135261597 0.1578362579380792 0.9478030772396144
vn 0.2717380849293075 0.1668164150961611 0.9478030897045111
vn 0.26613464543755044 0.1756180497918601 0.9478030655601053
vn 0.2602459745727232 0.18423187431158858 0.9478030645689708
vn 0.25407888884520347 0.19264807841588352 0.9478030576685508
vn 0.24763953442959033 0.20085815888404546 0.9478030707890788
vn 0.2409350363357772 0.20885323943764092 0.9478030558308415
vn 0.2339723558315515 0.21662469218255534 0.9478030805201294
vn 0.22675948346064131 0.22416382033260493 0.9478031010260278
vn 0.21930369578984035 0.23146322205158046 0.9478030733493207
vn 0.21161303335696502 0.23851459192171312 0.9478030985146032
vn 0.20369556313321258 0.2453109444943052 0.9478030692454817
vn 0.1955602434246953 0.25184428269293424 0.947803064178712
vn 0.18721551062516456 0.25810802478466305 0.9478030386758205
vn 0.17867024224673161 0.2640951869181069 0.9478030791162184
vn 0.16993342113655224 0.2697998845404908 0.9478030674579847
vn 0.21338353974588808 0.3560085283863562 0.9097941485202552
vn -0.4031953782855135 -0.006597562180287926 0.9150901371463245
vn -0.29785343842357714 -0.011270675746787608 0.9545450754613233
vn -0.2973252203270554 -0.02101006707667381 0.9545450698835031
vn -0.2964785956292782 -0.030727088069923077 0.9545450688115432
vn -0.29531443222206877 -0.04041124521901104 0.9545450839961444
vn -0.29383412163550265 -0.05005185333332358 0.9545450858605853
vn -0.29203909908865544 -0.059639219752818856 0.9545450895954372
vn -0.28993144598621656 -0.0691624730043843 0.9545450795830753
vn -0.2875132860122614 -0.07861169431377515 0.9545450811164181
vn -0.2847872393084436 -0.0879767393246603 0.9545450862399724
vn -0.28175625332537996 -0.09724759354489612 0.9545450849812024
vn -0.2784235764015225 -0.10641432509746442 0.9545450767343765
vn -0.2747927297899476 -0.11546710090763444 0.9545450771244777
vn -0.2708676405955747 -0.12439632179489697 0.9545450625308828
vn -0.2666524865548428 -0.1331923265458473 0.9545450516153879
vn -0.2621517464757093 -0.14184555332002058 0.9545450753228328
vn -0.2573703207096538 -0.15034700799669606 0.9545450723796397
vn -0.2523134000345488 -0.15868734983806382 0.9545450608349392
vn -0.24698608764569424 -0.16685798528368992 0.9545450671689322
vn -0.24139449018332437 -0.17484961463118975 0.954545081372513
vn -0.23554429669927446 -0.18265450200861372 0.9545450315141919
vn -0.2294418837505167 -0.19026321385888476 0.9545450913566643
vn -0.22309377577208234 -0.19766859522121197 0.9545450715786179
vn -0.21650676476769884 -0.204862162920253 0.9545450827558958
vn -0.20968795919458594 -0.2118364532786952 0.9545450627556107
vn -0.202644813013246 -0.21858375090794957 0.9545450348715024
vn -0.19538421954444785 -0.22509707539920873 0.9545450819106083
vn -0.18791473994408212 -0.23136935626354085 0.954545059959949
vn -0.1802437620417348 -0.2373938880825105 0.954545089634906
vn -0.17238020571640944 -0.2431641175162898 0.9545450626501047
vn -0.16433168596203077 -0.24867413406149486 0.9545450602447441
vn -0.156107155386727 -0.25391783971679655 0.9545450679305925
vn -0.10123783478770075 -0.1689053944377168 0.9804192310115799
vn -0.8660657445234412 -0.014171607856817625 0.49972921837111944
vn -0.8039531511767273 -0.0270649951803721 0.5940764401563965
vn -0.8026371582477092 -0.05335569743761959 0.5940763938678147
vn -0.8004616024866176 -0.0795883622971406 0.5940765232959602
vn -0.7974289756245418 -0.10573639854017497 0.5940764621310519
vn -0.7935424392057564 -0.13177116123895719 0.5940763909171237
vn -0.7888060744751993 -0.15766444675502517 0.5940765094669693
vn -0.7832251920095871 -0.1833886088258761 0.5940765243253221
vn -0.7768056332496179 -0.2089170201330752 0.5940763308282668
vn -0.7695540153724093 -0.2342219639782641 0.594076332649573
vn -0.7614786779460269 -0.2592748456172335 0.5940764070923293
vn -0.7525877943896636 -0.2840509113373875 0.5940763347450402
vn -0.7428907269641003 -0.30852336163443433 0.5940763445185634
vn -0.7323984697284471 -0.3326644389322041 0.5940764703380793
vn -0.7211217109713138 -0.3564502808628302 0.594076321055312
vn -0.7090728265585973 -0.37985387351591543 0.5940763935817988
vn -0.6962649251698658 -0.4028502419449557 0.5940764568160329
vn -0.6827112418556841 -0.4254159618292087 0.594076274282014
vn -0.6684262773269917 -0.447525949674441 0.594076456482471
vn -0.6534258151172425 -0.46915662460696717 0.5940763972131569
vn -0.6377258923443305 -0.4902843853431775 0.5940765167234688
vn -0.6213423651137325 -0.5108883414933427 0.5940763989934751
vn -0.6042942183684534 -0.5309441491446969 0.5940764329069735
vn -0.5865983819297509 -0.5504322513193829 0.5940763208754188
vn -0.5682750442127777 -0.5693301060481141 0.594076345659553
vn -0.5493424562950332 -0.5876191288544745 0.5940762788700185
vn -0.5298222979383628 -0.6052780838746091 0.5940764039990097
vn -0.5097340879106795 -0.622289590379741 0.5940764473759935
vn -0.4891007391195127 -0.6386343432168867 0.594076293632966
vn -0.46794294187944724 -0.6542954883905492 0.5940764403820277
vn -0.44628515065681573 -0.6692553642566832 0.5940764443376607
vn -0.42414818472237764 -0.6834994757278166 0.5940764126579271
vn -0.3784694011586055 -0.6314387810743685 0.6767909412381068
vn -0.9937325818725646 -0.016261132602077014 -0.1105944451199251
vn -0.999464602862519 -0.03271861282003011 8.79518388822883e-9
vn -0.9978589376171689 -0.06540290985523492 5.325660957866532e-8
vn -0.9951846974459727 -0.0980174370678802 -1.0951251750753131e-7
vn -0.991444826992641 -0.13052645337068974 -4.073681484592077e-8
vn -0.9866433104681253 -0.16289560432525976 8.389782346828773e-8
vn -0.9807852333322599 -0.1950905586577253 3.5797224107434196e-8
vn -0.9738770501584242 -0.22707595904173833 -3.3084044971870974e-8
vn -0.9659259529414278 -0.2588185724290027 8.7318769227179e-8
vn -0.9569402316290967 -0.2902850204362099 1.0672480653808526e-8
vn -0.9469302095177855 -0.3214392295638502 -4.058458371845077e-8
vn -0.9359061760629569 -0.3522493855313385 -8.956939764058398e-8
vn -0.9238793463285474 -0.3826838818496741 -2.4220395127761283e-8
vn -0.9108638557220567 -0.41270696182539474 -2.2163003374845007e-8
vn -0.8968729781156003 -0.44228821047597733 1.0731049597169475e-7
vn -0.8819210408235478 -0.4713971550112596 2.4213105854263882e-8
vn -0.8660254406092567 -0.4999999362175326 -8.038526932431528e-8
vn -0.8492022015530005 -0.5280678184452606 -1.3821582759444612e-8
vn -0.831469528193601 -0.5555703588975118 1.8895040025658068e-8
vn -0.8128466036172225 -0.5824778098674193 2.6673301875090765e-8
vn -0.7933534338389436 -0.6087613070949287 -1.7475714642005733e-7
vn -0.7730105560903985 -0.63439315898958 1.8541874269192898e-7
vn -0.7518398161183932 -0.6593458052486932 -1.1422343242158141e-7
vn -0.7298640008689924 -0.683592378713737 5.0031005088809675e-8
vn -0.7071067811865476 -0.7071067811865476 3.5581265210295e-9
vn -0.6835924402037293 -0.729863943277312 -6.193373294537507e-8
vn -0.6593458052486938 -0.7518398161183939 1.0494650120394517e-7
vn -0.6343930941434253 -0.7730106093082424 -1.76245691311124e-7
vn -0.6087613070949294 -0.7933534338389445 1.688588459391263e-7
vn -0.5824778098674191 -0.8128466036172224 -3.2727424431139256e-8
vn -0.5555704276384387 -0.8314694822623632 -1.5816034819009916e-8
vn -0.5280677754617048 -0.8492022282818895 1.3149394657439044e-8
vn -0.510948375446496 -0.8524673839395646 0.11059438027233492
vn -0.7360766603503545 -0.012044360981395026 -0.6767910190420813
vn -0.8040019757835303 -0.02557340042441144 -0.5940764463660481
vn -0.8027347968389296 -0.051865969150863105 -0.5940763984438401
vn -0.8006079927562804 -0.07810292524264266 -0.5940764050215276
vn -0.7976238408794281 -0.10425651435873806 -0.5940764156861599
vn -0.7937854469953382 -0.13029847943166623 -0.5940765694724939
vn -0.7890973064085135 -0.15620054251073817 -0.5940764526036862
vn -0.783564261000394 -0.18193505506060054 -0.5940763289536142
vn -0.777191945013677 -0.2074750832335214 -0.594076401183468
vn -0.7699872982265376 -0.23279343941172917 -0.5940764051337626
vn -0.7619584260866701 -0.2578617056004898 -0.5940763399600516
vn -0.7531137233524323 -0.2826537104454946 -0.5940762574532251
vn -0.7434620609182224 -0.3071440951865373 -0.5940763156087547
vn -0.7330142915695865 -0.33130541715244216 -0.5940763999017158
vn -0.7217819959905004 -0.3551111949804579 -0.5940764171918629
vn -0.7097764580412176 -0.3785374744184432 -0.5940763924541776
vn -0.6970112975387797 -0.40155774675140765 -0.5940762805627229
vn -0.683499516126711 -0.4241481430018541 -0.5940763959648883
vn -0.6692553790535041 -0.446285190326226 -0.5940763978676773
vn -0.6542955456467044 -0.46794294019984173 -0.5940763786450433
vn -0.6386343206030315 -0.4891007218005986 -0.5940763322015428
vn -0.622289590379741 -0.5097340879106795 -0.5940764473759935
vn -0.6052781407570048 -0.5298222359508316 -0.5940764013271398
vn -0.587619127287678 -0.5493423952256506 -0.5940763368906498
vn -0.5693301454571386 -0.5682749644499406 -0.5940763841907641
vn -0.5504321905281879 -0.58659844026988 -0.5940763195947848
vn -0.5309441063427017 -0.604294237492393 -0.5940764517075535
vn -0.5108883414933427 -0.6213423651137325 -0.5940763989934751
vn -0.4902843440682925 -0.6377259370263072 -0.5940765028221892
vn -0.46915662460696717 -0.6534258151172425 -0.5940763972131569
vn -0.447525997341497 -0.6684262594969707 -0.5940764406357036
vn -0.42541596407670346 -0.6827111858578383 -0.594076337025195
vn -0.4453059695211234 -0.7429491218606098 -0.4997291224607598
vn -0.1968952025832309 -0.003221945695117647 -0.9804192461725983
vn -0.29795283132547346 -0.008233834072803266 -0.9545450823725381
vn -0.2975239681029763 -0.017978373475695374 -0.9545450573395827
vn -0.2967763272281858 -0.027703499675161124 -0.9545450894026416
vn -0.2957110408806554 -0.037398755598927635 -0.9545450819007613
vn -0.2943290746205272 -0.047054219609702644 -0.9545450729273847
vn -0.29263183673122484 -0.056659374770566186 -0.9545450871393757
vn -0.29062134125067696 -0.06620361678180803 -0.9545450838670037
vn -0.28829970823642037 -0.07567678357230061 -0.9545450762844813
vn -0.28566917978835094 -0.08506935894970767 -0.9545450874039091
vn -0.2827327903103653 -0.09437066502262885 -0.9545450994408289
vn -0.2794938374054992 -0.10357070671873729 -0.9545450767575776
vn -0.27595556346521455 -0.11266007504727768 -0.954545040573224
vn -0.2721215436927702 -0.12162889318506086 -0.9545450632635637
vn -0.2679963338388085 -0.13046724746177452 -0.9545450551905372
vn -0.26358389813954947 -0.13916616120425618 -0.9545450791959649
vn -0.2588894920359535 -0.14771577471069072 -0.9545450648424025
vn -0.2539178403074546 -0.15610714084869898 -0.9545450701510341
vn -0.24867413345255832 -0.16433170046078718 -0.9545450579073181
vn -0.2431641175162898 -0.17238020571640944 -0.9545450626501047
vn -0.23739390150630166 -0.18024377582118759 -0.9545450836944989
vn -0.23136935626354085 -0.18791473994408212 -0.954545059959949
vn -0.22509704776228998 -0.1953842065228567 -0.9545450910932052
vn -0.218583738698883 -0.202644770805551 -0.9545450466277556
vn -0.21183645195488934 -0.20968798768652805 -0.9545450567904789
vn -0.20486220508667077 -0.2165067769875848 -0.9545450709345656
vn -0.19766859522121197 -0.22309377577208234 -0.9545450715786179
vn -0.19026321385888476 -0.2294418837505167 -0.9545450913566643
vn -0.18265448888678665 -0.23554426919151347 -0.9545450408129217
vn -0.17484961463118975 -0.24139449018332437 -0.954545081372513
vn -0.16685798528368992 -0.24698608764569424 -0.9545450671689322
vn -0.1586873721993031 -0.2523134416984196 -0.9545450461045712
vn -0.20731142618921616 -0.34587869808317306 -0.9150901041884795
vn 0.41500421799951254 0.006791369898108085 -0.9097941395379069
vn 0.3186202606857539 0.012266725153733945 -0.9478030686458789
vn 0.3180482673358182 0.022685412230440148 -0.9478030764439515
vn 0.31713587740334537 0.03307915178873423 -0.9478030412382882
vn 0.3158836360998732 0.04343790928336713 -0.9478030789575507
vn 0.31429320699223107 0.05375029540648976 -0.9478030838640766
vn 0.3123663044074085 0.06400489758477472 -0.9478030728774943
vn 0.3101047217213142 0.07419100259670694 -0.9478031212756379
vn 0.3075114491375636 0.08429726220820938 -0.9478030809369191
vn 0.3045886170726659 0.0943137783480561 -0.9478030837486627
vn 0.3013395397416192 0.10422948845978347 -0.9478030890030485
vn 0.297768024914529 0.11403304274278175 -0.947803074747768
vn 0.2938775732152856 0.12371452956473801 -0.947803084578052
vn 0.2896722872426343 0.13326393156362457 -0.9478030863780865
vn 0.28515722718212966 0.14266995770716678 -0.947803059160306
vn 0.2803362328045238 0.15192401507307304 -0.9478030862056972
vn 0.2752152691941428 0.16101512374850274 -0.9478030837292364
vn 0.2697998845404908 0.16993342113655224 -0.9478030674579847
vn 0.2640951869181069 0.17867024224673161 -0.9478030791162184
vn 0.25810802478466305 0.18721551062516456 -0.9478030386758205
vn 0.2518443098711342 0.19556025628819276 -0.9478030543029646
vn 0.24531095775415965 0.20369557667150384 -0.9478030629039982
vn 0.23851459041750647 0.21161306182473746 -0.9478030925372258
vn 0.23146320946154011 0.219303668177228 -0.9478030828129732
vn 0.22416381957515993 0.2267594975955871 -0.9478030978234203
vn 0.21662469218255534 0.2339723558315515 -0.9478030805201294
vn 0.20885319743393646 0.24093502454910581 -0.9478030680827864
vn 0.20085817466641406 0.2476395057137154 -0.9478030749472924
vn 0.19264807841588352 0.25407888884520347 -0.9478030576685508
vn 0.18423187431158858 0.2602459745727232 -0.9478030645689708
vn 0.1756180353502762 0.26613464613400156 -0.9478030680404231
vn 0.16681642688075587 0.2717381394571747 -0.947803071997074
vn 0.10923151579954993 0.18224181081458188 -0.9771675385250754
vn 0.8685685606508403 0.014213333250525007 -0.4953651548169664
vn 0.8120094886274903 0.027849287808440627 -0.5829794229194406
vn 0.8106635359054426 0.054402762142165786 -0.5829793915950957
vn 0.8084495178724849 0.08089795074799516 -0.582979329493355
vn 0.805369959313179 0.10730559194068448 -0.5829791922308616
vn 0.801427711051336 0.13359971162333928 -0.5829791943227278
vn 0.7966275337181082 0.15974986797906512 -0.582979032386994
vn 0.7909738692217477 0.18572962919904049 -0.5829792818325232
vn 0.784473597597481 0.21150954056763024 -0.5829793211781492
vn 0.7771331606328253 0.23706392756034655 -0.5829791976515958
vn 0.7689604204919381 0.26236421012273875 -0.5829793246449937
vn 0.7599640990954324 0.2873837316359635 -0.5829795527092319
vn 0.7501546218439687 0.3120946616899994 -0.5829793868317616
vn 0.7395414719199465 0.33647227328943563 -0.5829792625968084
vn 0.7281366623160656 0.3604888040004377 -0.5829792647955447
vn 0.7159520526097505 0.3841197266948464 -0.5829791539392827
vn 0.7030001902045343 0.40733987228019364 -0.5829793830172247
vn 0.6892960571799095 0.43012323377698486 -0.5829793729811201
vn 0.6748539329691514 0.4524458727444864 -0.5829793318742509
vn 0.6596888731162682 0.4742844281545713 -0.5829793065767251
vn 0.6438178404318243 0.4956144678390261 -0.5829793200537571
vn 0.6272569910054016 0.516414345567378 -0.5829793228983908
vn 0.610024440812475 0.5366612572542147 -0.58297931058808
vn 0.5921386652760303 0.5563334984657257 -0.5829792788513224
vn 0.5736190107841862 0.5754097131356642 -0.5829793242440972
vn 0.5544850382104881 0.5938698216036405 -0.582979397053767
vn 0.534757392782121 0.6116940574344052 -0.5829793400835942
vn 0.5144565096478646 0.6288636911884244 -0.5829793800691466
vn 0.4936055281000311 0.6453594019008214 -0.5829792663614233
vn 0.4722258139899946 0.66116404383889 -0.5829793201616102
vn 0.45034054628569115 0.6762607203773878 -0.5829792710257903
vn 0.42797217201436605 0.6906336615077179 -0.582979386920111
vn 0.38296738258794283 0.6389414666723348 -0.6671504972945355
vn 0.9509416069722899 0.015558751049894 -0.30897894005049353
vn 0.9507013313736393 0.02603416822649025 -0.309013269309175
vn 0.9493405679181021 0.05712612261715872 -0.30901309392914794
vn 0.946963178818452 0.08815777188082188 -0.3090128560740817
vn 0.9435716917769101 0.11909355286693378 -0.30901324913794675
vn 0.9391698606924428 0.14990278710807992 -0.30901315050361045
vn 0.9337623820533679 0.18055196309718632 -0.3090126251203546
vn 0.9273551572829142 0.2110063702165774 -0.3090124981110085
vn 0.91995470827233 0.2412355518879099 -0.3090125292490708
vn 0.9115690833090074 0.27120656501423146 -0.3090126299172211
vn 0.9022074439542304 0.3008870515050591 -0.3090124759781816
vn 0.8918794863620904 0.33024525175971753 -0.30901303450931394
vn 0.880596284336277 0.35925039821917154 -0.3090134873957922
vn 0.868370537185622 0.3878704626229312 -0.30901312977384576
vn 0.8552148443864994 0.4160753240011833 -0.3090127743286449
vn 0.8411440054454662 0.44383343005228637 -0.30901237591912006
vn 0.8261717074806175 0.47111741352413383 -0.3090124470517184
vn 0.81031434681677 0.4978970522957838 -0.3090132434994993
vn 0.7935898018194655 0.524143259723115 -0.309013057547685
vn 0.7760153835892841 0.5498282190791084 -0.3090130319858243
vn 0.7576103387464365 0.5749238863807509 -0.3090131056983877
vn 0.7383935571744582 0.5994045235963673 -0.30901322271945286
vn 0.7183862343612497 0.623243273613088 -0.30901300972014956
vn 0.6976094151554115 0.6464148076363369 -0.3090129452870901
vn 0.6760862474081991 0.6688934568952384 -0.3090128304589265
vn 0.6538385147359381 0.6906563633876109 -0.3090129194064592
vn 0.6308911444873206 0.7116792800429884 -0.3090128899657301
vn 0.607267132023733 0.7319409138897753 -0.30901315334119794
vn 0.5829937056690974 0.7514181388031802 -0.30901313860057567
vn 0.5580959381512143 0.7700907672788501 -0.30901316148505414
vn 0.5326011870575034 0.7879384298590398 -0.3090129549002909
vn 0.5065344033210744 0.8049432726188898 -0.3090133105834682
vn 0.48894655347693106 0.8157590568140866 -0.3089796580178417
f 34/34/34 1/1/1 35/35/35
f 1/1/1 2/2/2 35/35/35
f 35/35/35 2/2/2 36/36/36
f 2/2/2 3/3/3 36/36/36
f 36/36/36 3/3/3 37/37/37
f 3/3/3 4/4/4 37/37/37
f 37/37/37 4/4/4 38/38/38
f 4/4/4 5/5/5 38/38/38
f 38/38/38 5/5/5 39/39/39
f 5/5/5 6/6/6 39/39/39
f 39/39/39 6/6/6 40/40/40
f 6/6/6 7/7/7 40/40/40
f 40/40/40 7/7/7 41/41/41
f 7/7/7 8/8/8 41/41/41
f 41/41/41 8/8/8 42/42/42
f 8/8/8 9/9/9 42/42/42
f 42/42/42 9/9/9 43/43/43
f 9/9/9 10/10/10 43/43/43
f 43/43/43 10/10/10 44/44/44
f 10/10/10 11/11/11 44/44/44
f 44/44/44 11/11/11 45/45/45
f 11/11/11 12/12/12 45/45/45
f 45/45/45 12/12/12 46/46/46
f 12/12/12 13/13/13 46/46/46
f 46/46/46 13/13/13 47/47/47
f 13/13/13 14/14/14 47/47/47
f 47/47/47 14/14/14 48/48/48
f 14/14/14 15/15/15 48/48/48
f 48/48/48 15/15/15 49/49/49
f 15/15/15 16/16/16 49/49/49
f 49/49/49 16/16/16 50/50/50
f 16/16/16 17/17/17 50/50/50
f 50/50/50 17/17/17 51/51/51
f 17/17/17 18/18/18 51/51/51
f 51/51/51 18/18/18 52/52/52
f 18/18/18 19/19/19 52/52/52
f 52/52/52 19/19/19 53/53/53
f 19/19/19 20/20/20 53/53/53
f 53/53/53 20/20/20 54/54/54
f 20/20/20 21/21/21 54/54/54
f 54/54/54 21/21/21 55/55/55
f 21/21/21 22/22/22 55/55/55
f 55/55/55 22/22/22 56/56/56
f 22/22/22 23/23/23 56/56/56
f 56/56/56 23/23/23 57/57/57
f 23/23/23 24/24/24 57/57/57
f 57/57/57 24/24/24 58/58/58
f 24/24/24 25/25/25 58/58/58
f 58/58/58 25/25/25 59/59/59
f 25/25/25 26/26/26 59/59/59
f 59/59/59 26/26/26 60/60/60
f 26/26/26 27/27/27 60/60/60
f 60/60/60 27/27/27 61/61/61
f 27/27/27 28/28/28 61/61/61
f 61/61/61 28/28/28 62/62/62
f 28/28/28 29/29/29 62/62/62
f 62/62/62 29/29/29 63/63/63
f 29/29/29 30/30/30 63/63/63
f 63/63/63 30/30/30 64/64/64
f 30/30/30 31/31/31 64/64/64
f 64/64/64 31/31/31 65/65/65
f 31/31/31 32/32/32 65/65/65
f 65/65/65 32/32/32 66/66/66
f 32/32/32 33/33/33 66/66/66
f 67/67/67 34/34/34 68/68/68
f 34/34/34 35/35/35 68/68/68
f 68/68/68 35/35/35 69/69/69
f 35/35/35 36/36/36 69/69/69
f 69/69/69 36/36/36 70/70/70
f 36/36/36 37/37/37 70/70/70
f 70/70/70 37/37/37 71/71/71
f 37/37/37 38/38/38 71/71/71
f 71/71/71 38/38/38 72/72/72
f 38/38/38 39/39/39 72/72/72
f 72/72/72 39/39/39 73/73/73
f 39/39/39 40/40/40 73/73/73
f 73/73/73 40/40/40 74/74/74
f 40/40/40 41/41/41 74/74/74
f 74/74/74 41/41/41 75/75/75
f 41/41/41 42/42/42 75/75/75
f 75/75/75 42/42/42 76/76/76
f 42/42/42 43/43/43 76/76/76
f 76/76/76 43/43/43 77/77/77
f 43/43/43 44/44/44 77/77/77
f 77/77/77 44/44/44 78/78/78
f 44/44/44 45/45/45 78/78/78
f 78/78/78 45/45/45 79/79/79
f 45/45/45 46/46/46 79/79/79
f 79/79/79 46/46/46 80/80/80
f 46/46/46 47/47/47 80/80/80
f 80/80/80 47/47/47 81/81/81
f 47/47/47 48/48/48 81/81/81
f 81/81/81 48/48/48 82/82/82
f 48/48/48 49/49/49 82/82/82
f 82/82/82 49/49/49 83/83/83
f 49/49/49 50/50/50 83/83/83
f 83/83/83 50/50/50 84/84/84
f 50/50/50 51/51/51 84/84/84
f 84/84/84 51/51/51 85/85/85
f 51/51/51 52/52/52 85/85/85
f 85/85/85 52/52/52 86/86/86
f 52/52/52 53/53/53 86/86/86
f 86/86/86 53/53/53 87/87/87
f 53/53/53 54/54/54 87/87/87
f 87/87/87 54/54/54 88/88/88
f 54/54/54 55/55/55 88/88/88
f 88/88/88 55/55/55 89/89/89
f 55/55/55 56/56/56 89/89/89
f 89/89/89 56/56/56 90/90/90
f 56/56/56 57/57/57 90/90/90
f 90/90/90 57/57/57 91/91/91
f 57/57/57 58/58/58 91/91/91
f 91/91/91 58/58/58 92/92/92
f 58/58/58 59/59/59 92/92/92
f 92/92/92 59/59/59 93/93/93
f 59/59/59 60/60/60 93/93/93
f 93/93/93 60/60/60 94/94/94
f 60/60/60 61/61/61 94/94/94
f 94/94/94 61/61/61 95/95/95
f 61/61/61 62/62/62 95/95/95
f 95/95/95 62/62/62 96/96/96
f 62/62/62 63/63/63 96/96/96
f 96/96/96 63/63/63 97/97/97
f 63/63/63 64/64/64 97/97/97
f 97/97/97 64/64/64 98/98/98
f 64/64/64 65/65/65 98/98/98
f 98/98/98 65/65/65 99/99/99
f 65/65/65 66/66/66 99/99/99
f 100/100/100 67/67/67 101/101/101
f 67/67/67 68/68/68 101/101/101
f 101/101/101 68/68/68 102/102/102
f 68/68/68 69/69/69 102/102/102
f 102/102/102 69/69/69 103/103/103
f 69/69/69 70/70/70 103/103/103
f 103/103/103 70/70/70 104/104/104
f 70/70/70 71/71/71 104/104/104
f 104/104/104 71/71/71 105/105/105
f 71/71/71 72/72/72 105/105/105
f 105/105/105 72/72/72 106/106/106
f 72/72/72 73/73/73 106/106/106
f 106/106/106 73/73/73 107/107/107
f 73/73/73 74/74/74 107/107/107
f 107/107/107 74/74/74 108/108/108
f 74/74/74 75/75/75 108/108/108
f 108/108/108 75/75/75 109/109/109
f 75/75/75 76/76/76 109/109/109
f 109/109/109 76/76/76 110/110/110
f 76/76/76 77/77/77 110/110/110
f 110/110/110 77/77/77 111/111/111
f 77/77/77 78/78/78 111/111/111
f 111/111/111 78/78/78 112/112/112
f 78/78/78 79/79/79 112/112/112
f 112/112/112 79/79/79 113/113/113
f 79/79/79 80/80/80 113/113/113
f 113/113/113 80/80/80 114/114/114
f 80/80/80 81/81/81 114/114/114
f 114/114/114 81/81/81 115/115/115
f 81/81/81 82/82/82 115/115/115
f 115/115/115 82/82/82 116/116/116
f 82/82/82 83/83/83 116/116/116
f 116/116/116 83/83/83 117/117/117
f 83/83/83 84/84/84 117/117/117
f 117/117/117 84/84/84 118/118/118
f 84/84/84 85/85/85 118/118/118
f 118/118/118 85/85/85 119/119/119
f 85/85/85 86/86/86 119/119/119
f 119/119/119 86/86/86 120/120/120
f 86/86/86 87/87/87 120/120/120
f 120/120/120 87/87/87 121/121/121
f 87/87/87 88/88/88 121/121/121
f 121/121/121 88/88/88 122/122/122
f 88/88/88 89/89/89 122/122/122
f 122/122/122 89/89/89 123/123/123
f 89/89/89 90/90/90 123/123/123
f 123/123/123 90/90/90 124/124/124
f 90/90/90 91/91/91 124/124/124
f 124/124/124 91/91/91 125/125/125
f 91/91/91 92/92/92 125/125/125
f 125/125/125 92/92/92 126/126/126
f 92/92/92 93/93/93 126/126/126
f 126/126/126 93/93/93 127/127/127
f 93/93/93 94/94/94 127/127/127
f 127/127/127 94/94/94 128/128/128
f 94/94/94 95/95/95 128/128/128
f 128/128/128 95/95/95 129/129/129
f 95/95/95 96/96/96 129/129/129
f 129/129/129 96/96/96 130/130/130
f 96/96/96 97/97/97 130/130/130
f 130/130/130 97/97/97 131/131/131
f 97/97/97 98/98/98 131/131/131
f 131/131/131 98/98/98 132/132/132
f 98/98/98 99/99/99 132/132/132
f 133/133/133 100/100/100 134/134/134
f 100/100/100 101/101/101 134/134/134
f 134/134/134 101/101/101 135/135/135
f 101/101/101 102/102/102 135/135/135
f 135/135/135 102/102/102 136/136/136
f 102/102/102 103/103/103 136/136/136
f 136/136/136 103/103/103 137/137/137
f 103/103/103 104/104/104 137/137/137
f 137/137/137 104/104/104 138/138/138
f 104/104/104 105/105/105 138/138/138
f 138/138/138 105/105/105 139/139/139
f 105/105/105 106/106/106 139/139/139
f 139/139/139 106/106/106 140/140/140
f 106/106/106 107/107/107 140/140/140
f 140/140/140 107/107/107 141/141/141
f 107/107/107 108/108/108 141/141/141
f 141/141/141 108/108/108 142/142/142
f 108/108/108 109/109/109 142/142/142
f 142/142/142 109/109/109 143/143/143
f 109/109/109 110/110/110 143/143/143
f 143/143/143 110/110/110 144/144/144
f 110/110/110 111/111/111 144/144/144
f 144/144/144 111/111/111 145/145/145
f 111/111/111 112/112/112 145/145/145
f 145/145/145 112/112/112 146/146/146
f 112/112/112 113/113/113 146/146/146
f 146/146/146 113/113/113 147/147/147
f 113/113/113 114/114/114 147/147/147
f 147/147/147 114/114/114 148/148/148
f 114/114/114 115/115/115 148/148/148
f 148/148/148 115/115/115 149/149/149
f 115/115/115 116/116/116 149/149/149
f 149/149/149 116/116/116 150/150/150
f 116/116/116 117/117/117 150/150/150
f 150/150/150 117/117/117 151/151/151
f 117/117/117 118/118/118 151/151/151
f 151/151/151 118/118/118 152/152/152
f 118/118/118 119/119/119 152/152/152
f 152/152/152 119/119/119 153/153/153
f 119/119/119 120/120/120 153/153/153
f 153/153/153 120/120/120 154/154/154
f 120/120/120 121/121/121 154/154/154
f 154/154/154 121/121/121 155/155/155
f 121/121/121 122/122/122 155/155/155
f 155/155/155 122/122/122 156/156/156
f 122/122/122 123/123/123 156/156/156
f 156/156/156 123/123/123 157/157/157
f 123/123/123 124/124/124 157/157/157
f 157/157/157 124/124/124 158/158/158
f 124/124/124 125/125/125 158/158/158
f 158/158/158 125/125/125 159/159/159
f 125/125/125 126/126/126 159/159/159
f 159/159/159 126/126/126 160/160/160
f 126/126/126 127/127/127 160/160/160
f 160/160/160 127/127/127 161/161/161
f 127/127/127 128/128/128 161/161/161
f 161/161/161 128/128/128 162/162/162
f 128/128/128 129/129/129 162/162/162
f 162/162/162 129/129/129 163/163/163
f 129/129/129 130/130/130 163/163/163
f 163/163/163 130/130/130 164/164/164
f 130/130/130 131/131/131 164/164/164
f 164/164/164 131/131/131 165/165/165
f 131/131/131 132/132/132 165/165/165
f 166/166/166 133/133/133 167/167/167
f 133/133/133 134/134/134 167/167/167
f 167/167/167 134/134/134 168/168/168
f 134/134/134 135/135/135 168/168/168
f 168/168/168 135/135/135 169/169/169
f 135/135/135 136/136/136 169/169/169
f 169/169/169 136/136/136 170/170/170
f 136/136/136 137/137/137 170/170/170
f 170/170/170 137/137/137 171/171/171
f 137/137/137 138/138/138 171/171/171
f 171/171/171 138/138/138 172/172/172
f 138/138/138 139/139/139 172/172/172
f 172/172/172 139/139/139 173/173/173
f 139/139/139 140/140/140 173/173/173
f 173/173/173 140/140/140 174/174/174
f 140/140/140 141/141/141 174/174/174
f 174/174/174 141/141/141 175/175/175
f 141/141/141 142/142/142 175/175/175
f 175/175/175 142/142/142 176/176/176
f 142/142/142 143/143/143 176/176/176
f 176/176/176 143/143/143 177/177/177
f 143/143/143 144/144/144 177/177/177
f 177/177/177 144/144/144 178/178/178
f 144/144/144 145/145/145 178/178/178
f 178/178/178 145/145/145 179/179/179
f 145/145/145 146/146/146 179/179/179
f 179/179/179 146/146/146 180/180/180
f 146/146/146 147/147/147 180/180/180
f 180/180/180 147/147/147 181/181/181
f 147/147/147 148/148/148 181/181/181
f 181/181/181 148/148/148 182/182/182
f 148/148/148 149/149/149 182/182/182
f 182/182/182 149/149/149 183/183/183
f 149/149/149 150/150/150 183/183/183
f 183/183/183 150/150/150 184/184/184
f 150/150/150 151/151/151 184/184/184
f 184/184/184 151/151/151 185/185/185
f 151/151/151 152/152/152 185/185/185
f 185/185/185 152/152/152 186/186/186
f 152/152/152 153/153/153 186/186/186
f 186/186/186 153/153/153 187/187/187
f 153/153/153 154/154/154 187/187/187
f 187/187/187 154/154/154 188/188/188
f 154/154/154 155/155/155 188/188/188
f 188/188/188 155/155/155 189/189/189
f 155/155/155 156/156/156 189/189/189
f 189/189/189 156/156/156 190/190/190
f 156/156/156 157/157/157 190/190/190
f 190/190/190 157/157/157 191/191/191
f 157/157/157 158/158/158 191/191/191
f 191/191/191 158/158/158 192/192/192
f 158/158/158 159/159/159 192/192/192
f 192/192/192 159/159/159 193/193/193
f 159/159/159 160/160/160 193/193/193
f 193/193/193 160/160/160 194/194/194
f 160/160/160 161/161/161 194/194/194
f 194/194/194 161/161/161 195/195/195
f 161/161/161 162/162/162 195/195/195
f 195/195/195 162/162/162 196/196/196
f 162/162/162 163/163/163 196/196/196
f 196/196/196 163/163/163 197/197/197
f 163/163/163 164/164/164 197/197/197
f 197/197/197 164/164/164 198/198/198
f 164/164/164 165/165/165 198/198/198
f 199/199/199 166/166/166 200/200/200
f 166/166/166 167/167/167 200/200/200
f 200/200/200 167/167/167 201/201/201
f 167/167/167 168/168/168 201/201/201
f 201/201/201 168/168/168 202/202/202
f 168/168/168 169/169/169 202/202/202
f 202/202/202 169/169/169 203/203/203
f 169/169/169 170/170/170 203/203/203
f 203/203/203 170/170/170 204/204/204
f 170/170/170 171/171/171 204/204/204
f 204/204/204 171/171/171 205/205/205
f 171/171/171 172/172/172 205/205/205
f 205/205/205 172/172/172 206/206/206
f 172/172/172 173/173/173 206/206/206
f 206/206/206 173/173/173 207/207/207
f 173/173/173 174/174/174 207/207/207
f 207/207/207 174/174/174 208/208/208
f 174/174/174 175/175/175 208/208/208
f 208/208/208 175/175/175 209/209/209
f 175/175/175 176/176/176 209/209/209
f 209/209/209 176/176/176 210/210/210
f 176/176/176 177/177/177 210/210/210
f 210/210/210 177/177/177 211/211/211
f 177/177/177 178/178/178 211/211/211
f 211/211/211 178/178/178 212/212/212
f 178/178/178 179/179/179 212/212/212
f 212/212/212 179/179/179 213/213/213
f 179/179/179 180/180/180 213/213/213
f 213/213/213 180/180/180 214/214/214
f 180/180/180 181/181/181 214/214/214
f 214/214/214 181/181/181 215/215/215
f 181/181/181 182/182/182 215/215/215
f 215/215/215 182/182/182 216/216/216
f 182/182/182 183/183/183 216/216/216
f 216/216/216 183/183/183 217/217/217
f 183/183/183 184/184/184 217/217/217
f 217/217/217 184/184/184 218/218/218
f 184/184/184 185/185/185 218/218/218
f 218/218/218 185/185/185 219/219/219
f 185/185/185 186/186/186 219/219/219
f 219/219/219 186/186/186 220/220/220
f 186/186/186 187/187/187 220/220/220
f 220/220/220 187/187/187 221/221/221
f 187/187/187 188/188/188 221/221/221
f 221/221/221 188/188/188 222/222/222
f 188/188/188 189/189/189 222/222/222
f 222/222/222 189/189/189 223/223/223
f 189/189/189 190/190/190 223/223/223
f 223/223/223 190/190/190 224/224/224
f 190/190/190 191/191/191 224/224/224
f 224/224/224 191/191/191 225/225/225
f 191/191/191 192/192/192 225/225/225
f 225/225/225 192/192/192 226/226/226
f 192/192/192 193/193/193 226/226/226
f 226/226/226 193/193/193 227/227/227
f 193/193/193 194/194/194 227/227/227
f 227/227/227 194/194/194 228/228/228
f 194/194/194 195/195/195 228/228/228
f 228/228/228 195/195/195 229/229/229
f 195/195/195 196/196/196 229/229/229
f 229/229/229 196/196/196 230/230/230
f 196/196/196 197/197/197 230/230/230
f 230/230/230 197/197/197 231/231/231
f 197/197/197 198/198/198 231/231/231
f 232/232/232 199/199/199 233/233/233
f 199/199/199 200/200/200 233/233/233
f 233/233/233 200/200/200 234/234/234
f 200/200/200 201/201/201 234/234/234
f 234/234/234 201/201/201 235/235/235
f 201/201/201 202/202/202 235/235/235
f 235/235/235 202/202/202 236/236/236
f 202/202/202 203/203/203 236/236/236
f 236/236/236 203/203/203 237/237/237
f 203/203/203 204/204/204 237/237/237
f 237/237/237 204/204/204 238/238/238
f 204/204/204 205/205/205 238/238/238
f 238/238/238 205/205/205 239/239/239
f 205/205/205 206/206/206 239/239/239
f 239/239/239 206/206/206 240/240/240
f 206/206/206 207/207/207 240/240/240
f 240/240/240 207/207/207 241/241/241
f 207/207/207 208/208/208 241/241/241
f 241/241/241 208/208/208 242/242/242
f 208/208/208 209/209/209 242/242/242
f 242/242/242 209/209/209 243/243/243
f 209/209/209 210/210/210 243/243/243
f 243/243/243 210/210/210 244/244/244
f 210/210/210 211/211/211 244/244/244
f 244/244/244 211/211/211 245/245/245
f 211/211/211 212/212/212 245/245/245
f 245/245/245 212/212/212 246/246/246
f 212/212/212 213/213/213 246/246/246
f 246/246/246 213/213/213 247/247/247
f 213/213/213 214/214/214 247/247/247
f 247/247/247 214/214/214 248/248/248
f 214/214/214 215/215/215 248/248/248
f 248/248/248 215/215/215 249/249/249
f 215/215/215 216/216/216 249/249/249
f 249/249/249 216/216/216 250/250/250
f 216/216/216 217/217/217 250/250/250
f 250/250/250 217/217/217 251/251/251
f 217/217/217 218/218/218 251/251/251
f 251/251/251 218/218/218 252/252/252
f 218/218/218 219/219/219 252/252/252
f 252/252/252 219/219/219 253/253/253
f 219/219/219 220/220/220 253/253/253
f 253/253/253 220/220/220 254/254/254
f 220/220/220 221/221/221 254/254/254
f 254/254/254 221/221/221 255/255/255
f 221/221/221 222/222/222 255/255/255
f 255/255/255 222/222/222 256/256/256
f 222/222/222 223/223/223 256/256/256
f 256/256/256 223/223/223 257/257/257
f 223/223/223 224/224/224 257/257/257
f 257/257/257 224/224/224 258/258/258
f 224/224/224 225/225/225 258/258/258
f 258/258/258 225/225/225 259/259/259
f 225/225/225 226/226/226 259/259/259
f 259/259/259 226/226/226 260/260/260
f 226/226/226 227/227/227 260/260/260
f 260/260/260 227/227/227 261/261/261
f 227/227/227 228/228/228 261/261/261
f 261/261/261 228/228/228 262/262/262
f 228/228/228 229/229/229 262/262/262
f 262/262/262 229/229/229 263/263/263
f 229/229/229 230/230/230 263/263/263
f 263/263/263 230/230/230 264/264/264
f 230/230/230 231/231/231 264/264/264
f 265/265/265 232/232/232 266/266/266
f 232/232/232 233/233/233 266/266/266
f 266/266/266 233/233/233 267/267/267
f 233/233/233 234/234/234 267/267/267
f 267/267/267 234/234/234 268/268/268
f 234/234/234 235/235/235 268/268/268
f 268/268/268 235/235/235 269/269/269
f 235/235/235 236/236/236 269/269/269
f 269/269/269 236/236/236 270/270/270
f 236/236/236 237/237/237 270/270/270
f 270/270/270 237/237/237 271/271/271
f 237/237/237 238/238/238 271/271/271
f 271/271/271 238/238/238 272/272/272
f 238/238/238 239/239/239 272/272/272
f 272/272/272 239/239/239 273/273/273
f 239/239/239 240/240/240 273/273/273
f 273/273/273 240/240/240 274/274/274
f 240/240/240 241/241/241 274/274/274
f 274/274/274 241/241/241 275/275/275
f 241/241/241 242/242/242 275/275/275
f 275/275/275 242/242/242 276/276/276
f 242/242/242 243/243/243 276/276/276
f 276/276/276 243/243/243 277/277/277
f 243/243/243 244/244/244 277/277/277
f 277/277/277 244/244/244 278/278/278
f 244/244/244 245/245/245 278/278/278
f 278/278/278 245/245/245 279/279/279
f 245/245/245 246/246/246 279/279/279
f 279/279/279 246/246/246 280/280/280
f 246/246/246 247/247/247 280/280/280
f 280/280/280 247/247/247 281/281/281
f 247/247/247 248/248/248 281/281/281
f 281/281/281 248/248/248 282/282/282
f 248/248/248 249/249/249 282/282/282
f 282/282/282 249/249/249 283/283/283
f 249/249/249 250/250/250 283/283/283
f 283/283/283 250/250/250 284/284/284
f 250/250/250 251/251/251 284/284/284
f 284/284/284 251/251/251 285/285/285
f 251/251/251 252/252/252 285/285/285
f 285/285/285 252/252/252 286/286/286
f 252/252/252 253/253/253 286/286/286
f 286/286/286 253/253/253 287/287/287
f 253/253/253 254/254/254 287/287/287
f 287/287/287 254/254/254 288/288/288
f 254/254/254 255/255/255 288/288/288
f 288/288/288 255/255/255 289/289/289
f 255/255/255 256/256/256 289/289/289
f 289/289/289 256/256/256 290/290/290
f 256/256/256 257/257/257 290/290/290
f 290/290/290 257/257/257 291/291/291
f 257/257/257 258/258/258 291/291/291
f 291/291/291 258/258/258 292/292/292
f 258/258/258 259/259/259 292/292/292
f 292/292/292 259/259/259 293/293/293
f 259/259/259 260/260/260 293/293/293
f 293/293/293 260/260/260 294/294/294
f 260/260/260 261/261/261 294/294/294
f 294/294/294 261/261/261 295/295/295
f 261/261/261 262/262/262 295/295/295
f 295/295/295 262/262/262 296/296/296
f 262/262/262 263/263/263 296/296/296
f 296/296/296 263/263/263 297/297/297
f 263/263/263 264/264/264 297/297/297
f 298/298/298 265/265/265 299/299/299
f 265/265/265 266/266/266 299/299/299
f 299/299/299 266/266/266 300/300/300
f 266/266/266 267/267/267 300/300/300
f 300/300/300 267/267/267 301/301/301
f 267/267/267 268/268/268 301/301/301
f 301/301/301 268/268/268 302/302/302
f 268/268/268 269/269/269 302/302/302
f 302/302/302 269/269/269 303/303/303
f 269/269/269 270/270/270 303/303/303
f 303/303/303 270/270/270 304/304/304
f 270/270/270 271/271/271 304/304/304
f 304/304/304 271/271/271 305/305/305
f 271/271/271 272/272/272 305/305/305
f 305/305/305 272/272/272 306/306/306
f 272/272/272 273/273/273 306/306/306
f 306/306/306 273/273/273 307/307/307
f 273/273/273 274/274/274 307/307/307
f 307/307/307 274/274/274 308/308/308
f 274/274/274 275/275/275 308/308/308
f 308/308/308 275/275/275 309/309/309
f 275/275/275 276/276/276 309/309/309
f 309/309/309 276/276/276 310/310/310
f 276/276/276 277/277/277 310/310/310
f 310/310/310 277/277/277 311/311/311
f 277/277/277 278/278/278 311/311/311
f 311/311/311 278/278/278 312/312/312
f 278/278/278 279/279/279 312/312/312
f 312/312/312 279/279/279 313/313/313
f 279/279/279 280/280/280 313/313/313
f 313/313/313 280/280/280 314/314/314
f 280/280/280 281/281/281 314/314/314
f 314/314/314 281/281/281 315/315/315
f 281/281/281 282/282/282 315/315/315
f 315/315/315 282/282/282 316/316/316
f 282/282/282 283/283/283 316/316/316
f 316/316/316 283/283/283 317/317/317
f 283/283/283 284/284/284 317/317/317
f 317/317/317 284/284/284 318/318/318
f 284/284/284 285/285/285 318/318/318
f 318/318/318 285/285/285 319/319/319
f 285/285/285 286/286/286 319/319/319
f 319/319/319 286/286/286 320/320/320
f 286/286/286 287/287/287 320/320/320
f 320/320/320 287/287/287 321/321/321
f 287/287/287 288/288/288 321/321/321
f 321/321/321 288/288/288 322/322/322
f 288/288/288 289/289/289 322/322/322
f 322/322/322 289/289/289 323/323/323
f 289/289/289 290/290/290 323/323/323
f 323/323/323 290/290/290 324/324/324
f 290/290/290 291/291/291 324/324/324
f 324/324/324 291/291/291 325/325/325
f 291/291/291 292/292/292 325/325/325
f 325/325/325 292/292/292 326/326/326
f 292/292/292 293/293/293 326/326/326
f 326/326/326 293/293/293 327/327/327
f 293/293/293 294/294/294 327/327/327
f 327/327/327 294/294/294 328/328/328
f 294/294/294 295/295/295 328/328/328
f 328/328/328 295/295/295 329/329/329
f 295/295/295 296/296/296 329/329/329
f 329/329/329 296/296/296 330/330/330
f 296/296/296 297/297/297 330/330/330
f 331/331/331 298/298/298 332/332/332
f 298/298/298 299/299/299 332/332/332
f 332/332/332 299/299/299 333/333/333
f 299/299/299 300/300/300 333/333/333
f 333/333/333 300/300/300 334/334/334
f 300/300/300 301/301/301 334/334/334
f 334/334/334 301/301/301 335/335/335
f 301/301/301 302/302/302 335/335/335
f 335/335/335 302/302/302 336/336/336
f 302/302/302 303/303/303 336/336/336
f 336/336/336 303/303/303 337/337/337
f 303/303/303 304/304/304 337/337/337
f 337/337/337 304/304/304 338/338/338
f 304/304/304 305/305/305 338/338/338
f 338/338/338 305/305/305 339/339/339
f 305/305/305 306/306/306 339/339/339
f 339/339/339 306/306/306 340/340/340
f 306/306/306 307/307/307 340/340/340
f 340/340/340 307/307/307 341/341/341
f 307/307/307 308/308/308 341/341/341
f 341/341/341 308/308/308 342/342/342
f 308/308/308 309/309/309 342/342/342
f 342/342/342 309/309/309 343/343/343
f 309/309/309 310/310/310 343/343/343
f 343/343/343 310/310/310 344/344/344
f 310/310/310 311/311/311 344/344/344
f 344/344/344 311/311/311 345/345/345
f 311/311/311 312/312/312 345/345/345
f 345/345/345 312/312/312 346/346/346
f 312/312/312 313/313/313 346/346/346
f 346/346/346 313/313/313 347/347/347
f 313/313/313 314/314/314 347/347/347
f 347/347/347 314/314/314 348/348/348
f 314/314/314 315/315/315 348/348/348
f 348/348/348 315/315/315 349/349/349
f 315/315/315 316/316/316 349/349/349
f 349/349/349 316/316/316 350/350/350
f 316/316/316 317/317/317 350/350/350
f 350/350/350 317/317/317 351/351/351
f 317/317/317 318/318/318 351/351/351
f 351/351/351 318/318/318 352/352/352
f 318/318/318 319/319/319 352/352/352
f 352/352/352 319/319/319 353/353/353
f 319/319/319 320/320/320 353/353/353
f 353/353/353 320/320/320 354/354/354
f 320/320/320 321/321/321 354/354/354
f 354/354/354 321/321/321 355/355/355
f 321/321/321 322/322/322 355/355/355
f 355/355/355 322/322/322 356/356/356
f 322/322/322 323/323/323 356/356/356
f 356/356/356 323/323/323 357/357/357
f 323/323/323 324/324/324 357/357/357
f 357/357/357 324/324/324 358/358/358
f 324/324/324 325/325/325 358/358/358
f 358/358/358 325/325/325 359/359/359
f 325/325/325 326/326/326 359/359/359
f 359/359/359 326/326/326 360/360/360
f 326/326/326 327/327/327 360/360/360
f 360/360/360 327/327/327 361/361/361
f 327/327/327 328/328/328 361/361/361
f 361/361/361 328/328/328 362/362/362
f 328/328/328 329/329/329 362/362/362
f 362/362/362 329/329/329 363/363/363
f 329/329/329 330/330/330 363/363/363
