o shape_093
v 1 0 0
v 0.997590959072113 0.09813535213470459 0
v 0.9903694987297058 0.1960342973470688 0
v 0.9783532023429871 0.2934609651565552 0
v 0.9615705609321594 0.39018064737319946 0
v 0.9400625824928284 0.48596036434173584 0
v 0.9138807654380798 0.5805693864822388 0
v 0.883088231086731 0.6737797260284424 0
v 0.8477592468261719 0.7653669118881226 0
v 0.8079786896705627 0.8551101684570312 0
v 0.7638425230979919 0.9427934885025024 0
v 0.7154573202133179 1.0282055139541626 0
v 0.6629392504692078 1.111140489578247 0
v 0.6064151525497437 1.1913987398147583 0
v 0.5460209846496582 1.2687866687774658 0
v 0.4819023609161377 1.3431179523468018 0
v 0.4142135977745056 1.4142136573791504 0
v 0.34311798214912415 1.4819023609161377 0
v 0.26878663897514343 1.5460209846496582 0
v 0.1913987100124359 1.6064151525497437 0
v 0.11114054173231125 1.6629393100738525 0
v 0.028205525130033493 1.7154573202133179 0
v -0.057206518948078156 1.7638425827026367 0
v -0.14488980174064636 1.807978630065918 0
v -0.23463308811187744 1.8477592468261719 0
v -0.3262202739715576 1.883088231086731 0
v -0.4194306433200836 1.9138808250427246 0
v -0.5140396356582642 1.9400625228881836 0
v -0.6098193526268005 1.9615705013275146 0
v -0.7065390348434448 1.9783532619476318 0
v -0.8039657473564148 1.9903695583343506 0
v -0.9018647074699402 1.9975910186767578 0
v -1 2 0
v 0.9417341351509094 0 0.17932431399822235
v 0.9393951892852783 0.09527637809515 0.17932431399822235
v 0.9323840737342834 0.19032321870326996 0.17932431399822235
v 0.920717716217041 0.28491154313087463 0.17932431399822235
v 0.904424250125885 0.3788135349750519 0.17932431399822235
v 0.8835428357124329 0.4718029201030731 0.17932431399822235
v 0.858123779296875 0.5636556148529053 0.17932431399822235
v 0.8282282948493958 0.6541504859924316 0.17932431399822235
v 0.793928325176239 0.7430694699287415 0.17932431399822235
v 0.7553067803382874 0.8301982879638672 0.17932431399822235
v 0.7124567031860352 0.9153271317481995 0.17932431399822235
v 0.6654808521270752 0.9982508420944214 0.17932431399822235
v 0.6144928932189941 1.0787696838378906 0.17932431399822235
v 0.559615433216095 1.1566896438598633 0.17932431399822235
v 0.5009806752204895 1.2318230867385864 0.17932431399822235
v 0.43873000144958496 1.3039889335632324 0.17932431399822235
v 0.37301334738731384 1.3730133771896362 0.17932431399822235
v 0.3039889633655548 1.438730001449585 0.17932431399822235
v 0.23182308673858643 1.5009807348251343 0.17932431399822235
v 0.1566895991563797 1.5596153736114502 0.17932431399822235
v 0.07876966148614883 1.6144928932189941 0.17932431399822235
v -0.0017491438193246722 1.6654808521270752 0.17932431399822235
v -0.08467284590005875 1.7124567031860352 0.17932431399822235
v -0.169801726937294 1.7553067207336426 0.17932431399822235
v -0.25693053007125854 1.7939283847808838 0.17932431399822235
v -0.34584951400756836 1.8282283544540405 0.17932431399822235
v -0.43634435534477234 1.858123779296875 0.17932431399822235
v -0.5281971096992493 1.883542776107788 0.17932431399822235
v -0.6211864948272705 1.9044243097305298 0.17932431399822235
v -0.7150884866714478 1.920717716217041 0.17932431399822235
v -0.8096768260002136 1.9323841333389282 0.17932431399822235
v -0.904723584651947 1.9393951892852783 0.17932431399822235
v -1 1.9417340755462646 0.17932431399822235
v 0.789191722869873 0 0.2901528477668762
v 0.787036657333374 0.08779148012399673 0.2901528477668762
v 0.7805762887001038 0.175371453166008 0.2901528477668762
v 0.7698264718055725 0.2625289559364319 0.2901528477668762
v 0.7548129558563232 0.3490539789199829 0.2901528477668762
v 0.7355719804763794 0.4347380995750427 0.2901528477668762
v 0.7121497392654419 0.5193749666213989 0.2901528477668762
v 0.6846027970314026 0.6027605533599854 0.2901528477668762
v 0.652997612953186 0.6846940517425537 0.2901528477668762
v 0.6174101829528809 0.7649779915809631 0.2901528477668762
v 0.5779262781143188 0.8434191346168518 0.2901528477668762
v 0.5346409678459167 0.9198284149169922 0.2901528477668762
v 0.4876585602760315 0.9940216541290283 0.2901528477668762
v 0.43709230422973633 1.065820336341858 0.2901528477668762
v 0.3830639123916626 1.1350512504577637 0.2901528477668762
v 0.32570362091064453 1.2015477418899536 0.2901528477668762
v 0.2651495635509491 1.2651495933532715 0.2901528477668762
v 0.2015477567911148 1.3257036209106445 0.2901528477668762
v 0.1350512057542801 1.3830639123916626 0.2901528477668762
v 0.06582029908895493 1.4370923042297363 0.2901528477668762
v -0.005978346336632967 1.4876585006713867 0.2901528477668762
v -0.08017158508300781 1.534640908241272 0.2901528477668762
v -0.156580850481987 1.5779262781143188 0.2901528477668762
v -0.23502197861671448 1.6174101829528809 0.2901528477668762
v -0.3153059482574463 1.652997612953186 0.2901528477668762
v -0.39723947644233704 1.6846028566360474 0.2901528477668762
v -0.48062506318092346 1.712149739265442 0.2901528477668762
v -0.5652619004249573 1.7355719804763794 0.2901528477668762
v -0.6509460210800171 1.7548129558563232 0.2901528477668762
v -0.7374710440635681 1.7698264122009277 0.2901528477668762
v -0.8246285319328308 1.7805763483047485 0.2901528477668762
v -0.9122084975242615 1.787036657333374 0.2901528477668762
v -1 1.789191722869873 0.2901528477668762
v 0.6006389856338501 0 0.2901528477668762
v 0.5987108945846558 0.07853963226079941 0.2901528477668762
v 0.5929314494132996 0.15689004957675934 0.2901528477668762
v 0.5833144187927246 0.2348625212907791 0.2901528477668762
v 0.5698831677436829 0.3122691810131073 0.2901528477668762
v 0.5526698231697083 0.3889235258102417 0.2901528477668762
v 0.531715989112854 0.46464094519615173 0.2901528477668762
v 0.5070720911026001 0.5392389893531799 0.2901528477668762
v 0.4787975549697876 0.6125380396842957 0.2901528477668762
v 0.4469605088233948 0.6843613386154175 0.2901528477668762
v 0.4116375744342804 0.754535973072052 0.2901528477668762
v 0.37291383743286133 0.8228928446769714 0.2901528477668762
v 0.3308826684951782 0.8892673850059509 0.2901528477668762
v 0.2856452763080597 0.9534994959831238 0.2901528477668762
v 0.23731064796447754 1.0154346227645874 0.2901528477668762
v 0.1859951913356781 1.0749233961105347 0.2901528477668762
v 0.1318226456642151 1.1318227052688599 0.2901528477668762
v 0.07492344826459885 1.1859952211380005 0.2901528477668762
v 0.015434572473168373 1.2373106479644775 0.2901528477668762
v -0.046500515192747116 1.2856452465057373 0.2901528477668762
v -0.11073260754346848 1.3308826684951782 0.2901528477668762
v -0.17710712552070618 1.3729138374328613 0.2901528477668762
v -0.2454640120267868 1.411637544631958 0.2901528477668762
v -0.3156386911869049 1.44696044921875 0.2901528477668762
v -0.38746199011802673 1.4787975549697876 0.2901528477668762
v -0.46076101064682007 1.5070720911026 0.2901528477668762
v -0.5353590250015259 1.531715989112854 0.2901528477668762
v -0.6110764145851135 1.552669882774353 0.2901528477668762
v -0.6877308487892151 1.569883108139038 0.2901528477668762
v -0.7651374936103821 1.5833144187927246 0.2901528477668762
v -0.8431099653244019 1.5929315090179443 0.2901528477668762
v -0.9214603900909424 1.5987108945846558 0.2901528477668762
v -1 1.60063898563385 0.2901528477668762
v 0.44809651374816895 0 0.17932431399822235
v 0.4463522434234619 0.07105473428964615 0.17932431399822235
v 0.4411236047744751 0.14193828403949738 0.17932431399822235
v 0.4324231445789337 0.21247990429401398 0.17932431399822235
v 0.42027175426483154 0.28250962495803833 0.17932431399822235
v 0.4046988785266876 0.3518587648868561 0.17932431399822235
v 0.3857419788837433 0.4203602373600006 0.17932431399822235
v 0.3634467124938965 0.48784902691841125 0.17932431399822235
v 0.33786681294441223 0.5541625618934631 0.17932431399822235
v 0.3090638220310211 0.6191410422325134 0.17932431399822235
v 0.2771071493625641 0.6826279759407043 0.17932431399822235
v 0.24207386374473572 0.7444704174995422 0.17932431399822235
v 0.20404832065105438 0.8045193552970886 0.17932431399822235
v 0.1631220579147339 0.8626300692558289 0.17932431399822235
v 0.11939376592636108 0.9186627864837646 0.17932431399822235
v 0.07296881824731827 0.9724822640419006 0.17932431399822235
v 0.023958947509527206 1.0239589214324951 0.17932431399822235
v -0.02751774899661541 1.07296884059906 0.17932431399822235
v -0.08133720606565475 1.1193938255310059 0.17932431399822235
v -0.13736991584300995 1.1631220579147339 0.17932431399822235
v -0.19548065960407257 1.2040482759475708 0.17932431399822235
v -0.25552958250045776 1.242073893547058 0.17932431399822235
v -0.31737202405929565 1.2771071195602417 0.17932431399822235
v -0.3808589577674866 1.3090637922286987 0.17932431399822235
v -0.4458374083042145 1.3378667831420898 0.17932431399822235
v -0.5121509432792664 1.3634467124938965 0.17932431399822235
v -0.579639732837677 1.385741949081421 0.17932431399822235
v -0.6481412649154663 1.4046988487243652 0.17932431399822235
v -0.7174903154373169 1.4202717542648315 0.17932431399822235
v -0.7875201106071472 1.4324231147766113 0.17932431399822235
v -0.8580617308616638 1.441123604774475 0.17932431399822235
v -0.9289453029632568 1.446352243423462 0.17932431399822235
v -1 1.448096513748169 0.17932431399822235
v 0.3898305594921112 0 3.7362107142684955e-17
v 0.3881564736366272 0.06819575279951096 3.7362107142684955e-17
v 0.38313817977905273 0.13622722029685974 3.7362107142684955e-17
v 0.37478774785995483 0.20393049716949463 3.7362107142684955e-17
v 0.36312535405158997 0.27114251255989075 3.7362107142684955e-17
v 0.3481791317462921 0.33770129084587097 3.7362107142684955e-17
v 0.32998496294021606 0.4034464955329895 3.7362107142684955e-17
v 0.3085866868495941 0.4682198166847229 3.7362107142684955e-17
v 0.2840360403060913 0.531865119934082 3.7362107142684955e-17
v 0.2563919126987457 0.5942291617393494 3.7362107142684955e-17
v 0.22572118043899536 0.6551616191864014 3.7362107142684955e-17
v 0.19209739565849304 0.7145156860351562 3.7362107142684955e-17
v 0.1556018739938736 0.7721484899520874 3.7362107142684955e-17
v 0.11632241308689117 0.8279210925102234 3.7362107142684955e-17
v 0.07435356825590134 0.8816992044448853 3.7362107142684955e-17
v 0.02979656495153904 0.9333531856536865 3.7362107142684955e-17
v -0.017241401597857475 0.9827585816383362 3.7362107142684955e-17
v -0.06664678454399109 1.0297966003417969 3.7362107142684955e-17
v -0.11830078065395355 1.074353575706482 3.7362107142684955e-17
v -0.1720789223909378 1.11632239818573 3.7362107142684955e-17
v -0.2278514951467514 1.1556018590927124 3.7362107142684955e-17
v -0.28548428416252136 1.1920974254608154 3.7362107142684955e-17
v -0.34483838081359863 1.2257212400436401 3.7362107142684955e-17
v -0.405770868062973 1.2563918828964233 3.7362107142684955e-17
v -0.4681348502635956 1.2840360403060913 3.7362107142684955e-17
v -0.5317801833152771 1.3085867166519165 3.7362107142684955e-17
v -0.5965535044670105 1.3299850225448608 3.7362107142684955e-17
v -0.6622986793518066 1.3481791019439697 3.7362107142684955e-17
v -0.7288575172424316 1.3631253242492676 3.7362107142684955e-17
v -0.7960695028305054 1.3747878074645996 3.7362107142684955e-17
v -0.8637727499008179 1.3831381797790527 3.7362107142684955e-17
v -0.9318041801452637 1.388156533241272 3.7362107142684955e-17
v -1 1.3898305892944336 3.7362107142684955e-17
v 0.44809651374816895 0 -0.17932431399822235
v 0.4463522434234619 0.07105473428964615 -0.17932431399822235
v 0.4411236047744751 0.14193828403949738 -0.17932431399822235
v 0.4324231445789337 0.21247990429401398 -0.17932431399822235
v 0.42027175426483154 0.28250962495803833 -0.17932431399822235
v 0.4046988785266876 0.3518587648868561 -0.17932431399822235
v 0.3857419788837433 0.4203602373600006 -0.17932431399822235
v 0.3634467124938965 0.48784902691841125 -0.17932431399822235
v 0.33786681294441223 0.5541625618934631 -0.17932431399822235
v 0.3090638220310211 0.6191410422325134 -0.17932431399822235
v 0.2771071493625641 0.6826279759407043 -0.17932431399822235
v 0.24207386374473572 0.7444704174995422 -0.17932431399822235
v 0.20404832065105438 0.8045193552970886 -0.17932431399822235
v 0.1631220579147339 0.8626300692558289 -0.17932431399822235
v 0.11939376592636108 0.9186627864837646 -0.17932431399822235
v 0.07296881824731827 0.9724822640419006 -0.17932431399822235
v 0.023958947509527206 1.0239589214324951 -0.17932431399822235
v -0.02751774899661541 1.07296884059906 -0.17932431399822235
v -0.08133720606565475 1.1193938255310059 -0.17932431399822235
v -0.13736991584300995 1.1631220579147339 -0.17932431399822235
v -0.19548065960407257 1.2040482759475708 -0.17932431399822235
v -0.25552958250045776 1.242073893547058 -0.17932431399822235
v -0.31737202405929565 1.2771071195602417 -0.17932431399822235
v -0.3808589577674866 1.3090637922286987 -0.17932431399822235
v -0.4458374083042145 1.3378667831420898 -0.17932431399822235
v -0.5121509432792664 1.3634467124938965 -0.17932431399822235
v -0.579639732837677 1.385741949081421 -0.17932431399822235
v -0.6481412649154663 1.4046988487243652 -0.17932431399822235
v -0.7174903154373169 1.4202717542648315 -0.17932431399822235
v -0.7875201106071472 1.4324231147766113 -0.17932431399822235
v -0.8580617308616638 1.441123604774475 -0.17932431399822235
v -0.9289453029632568 1.446352243423462 -0.17932431399822235
v -1 1.448096513748169 -0.17932431399822235
v 0.6006389856338501 0 -0.2901528477668762
v 0.5987108945846558 0.07853963226079941 -0.2901528477668762
v 0.5929314494132996 0.15689004957675934 -0.2901528477668762
v 0.5833144187927246 0.2348625212907791 -0.2901528477668762
v 0.5698831677436829 0.3122691810131073 -0.2901528477668762
v 0.5526698231697083 0.3889235258102417 -0.2901528477668762
v 0.531715989112854 0.46464094519615173 -0.2901528477668762
v 0.5070720911026001 0.5392389893531799 -0.2901528477668762
v 0.4787975549697876 0.6125380396842957 -0.2901528477668762
v 0.4469605088233948 0.6843613386154175 -0.2901528477668762
v 0.4116375744342804 0.754535973072052 -0.2901528477668762
v 0.37291383743286133 0.8228928446769714 -0.2901528477668762
v 0.3308826684951782 0.8892673850059509 -0.2901528477668762
v 0.2856452763080597 0.9534994959831238 -0.2901528477668762
v 0.23731064796447754 1.0154346227645874 -0.2901528477668762
v 0.1859951913356781 1.0749233961105347 -0.2901528477668762
v 0.1318226456642151 1.1318227052688599 -0.2901528477668762
v 0.07492344826459885 1.1859952211380005 -0.2901528477668762
v 0.015434572473168373 1.2373106479644775 -0.2901528477668762
v -0.046500515192747116 1.2856452465057373 -0.2901528477668762
v -0.11073260754346848 1.3308826684951782 -0.2901528477668762
v -0.17710712552070618 1.3729138374328613 -0.2901528477668762
v -0.2454640120267868 1.411637544631958 -0.2901528477668762
v -0.3156386911869049 1.44696044921875 -0.2901528477668762
v -0.38746199011802673 1.4787975549697876 -0.2901528477668762
v -0.46076101064682007 1.5070720911026 -0.2901528477668762
v -0.5353590250015259 1.531715989112854 -0.2901528477668762
v -0.6110764145851135 1.552669882774353 -0.2901528477668762
v -0.6877308487892151 1.569883108139038 -0.2901528477668762
v -0.7651374936103821 1.5833144187927246 -0.2901528477668762
v -0.8431099653244019 1.5929315090179443 -0.2901528477668762
v -0.9214603900909424 1.5987108945846558 -0.2901528477668762
v -1 1.60063898563385 -0.2901528477668762
v 0.789191722869873 0 -0.2901528477668762
v 0.787036657333374 0.08779148012399673 -0.2901528477668762
v 0.7805762887001038 0.175371453166008 -0.2901528477668762
v 0.7698264718055725 0.2625289559364319 -0.2901528477668762
v 0.7548129558563232 0.3490539789199829 -0.2901528477668762
v 0.7355719804763794 0.4347380995750427 -0.2901528477668762
v 0.7121497392654419 0.5193749666213989 -0.2901528477668762
v 0.6846027970314026 0.6027605533599854 -0.2901528477668762
v 0.652997612953186 0.6846940517425537 -0.2901528477668762
v 0.6174101829528809 0.7649779915809631 -0.2901528477668762
v 0.5779262781143188 0.8434191346168518 -0.2901528477668762
v 0.5346409678459167 0.9198284149169922 -0.2901528477668762
v 0.4876585602760315 0.9940216541290283 -0.2901528477668762
v 0.43709230422973633 1.065820336341858 -0.2901528477668762
v 0.3830639123916626 1.1350512504577637 -0.2901528477668762
v 0.32570362091064453 1.2015477418899536 -0.2901528477668762
v 0.2651495635509491 1.2651495933532715 -0.2901528477668762
v 0.2015477567911148 1.3257036209106445 -0.2901528477668762
v 0.1350512057542801 1.3830639123916626 -0.2901528477668762
v 0.06582029908895493 1.4370923042297363 -0.2901528477668762
v -0.005978346336632967 1.4876585006713867 -0.2901528477668762
v -0.08017158508300781 1.534640908241272 -0.2901528477668762
v -0.156580850481987 1.5779262781143188 -0.2901528477668762
v -0.23502197861671448 1.6174101829528809 -0.2901528477668762
v -0.3153059482574463 1.652997612953186 -0.2901528477668762
v -0.39723947644233704 1.6846028566360474 -0.2901528477668762
v -0.48062506318092346 1.712149739265442 -0.2901528477668762
v -0.5652619004249573 1.7355719804763794 -0.2901528477668762
v -0.6509460210800171 1.7548129558563232 -0.2901528477668762
v -0.7374710440635681 1.7698264122009277 -0.2901528477668762
v -0.8246285319328308 1.7805763483047485 -0.2901528477668762
v -0.9122084975242615 1.787036657333374 -0.2901528477668762
v -1 1.789191722869873 -0.2901528477668762
v 0.9417341351509094 0 -0.17932431399822235
v 0.9393951892852783 0.09527637809515 -0.17932431399822235
v 0.9323840737342834 0.19032321870326996 -0.17932431399822235
v 0.920717716217041 0.28491154313087463 -0.17932431399822235
v 0.904424250125885 0.3788135349750519 -0.17932431399822235
v 0.8835428357124329 0.4718029201030731 -0.17932431399822235
v 0.858123779296875 0.5636556148529053 -0.17932431399822235
v 0.8282282948493958 0.6541504859924316 -0.17932431399822235
v 0.793928325176239 0.7430694699287415 -0.17932431399822235
v 0.7553067803382874 0.8301982879638672 -0.17932431399822235
v 0.7124567031860352 0.9153271317481995 -0.17932431399822235
v 0.6654808521270752 0.9982508420944214 -0.17932431399822235
v 0.6144928932189941 1.0787696838378906 -0.17932431399822235
v 0.559615433216095 1.1566896438598633 -0.17932431399822235
v 0.5009806752204895 1.2318230867385864 -0.17932431399822235
v 0.43873000144958496 1.3039889335632324 -0.17932431399822235
v 0.37301334738731384 1.3730133771896362 -0.17932431399822235
v 0.3039889633655548 1.438730001449585 -0.17932431399822235
v 0.23182308673858643 1.5009807348251343 -0.17932431399822235
v 0.1566895991563797 1.5596153736114502 -0.17932431399822235
v 0.07876966148614883 1.6144928932189941 -0.17932431399822235
v -0.0017491438193246722 1.6654808521270752 -0.17932431399822235
v -0.08467284590005875 1.7124567031860352 -0.17932431399822235
v -0.169801726937294 1.7553067207336426 -0.17932431399822235
v -0.25693053007125854 1.7939283847808838 -0.17932431399822235
v -0.34584951400756836 1.8282283544540405 -0.17932431399822235
v -0.43634435534477234 1.858123779296875 -0.17932431399822235
v -0.5281971096992493 1.883542776107788 -0.17932431399822235
v -0.6211864948272705 1.9044243097305298 -0.17932431399822235
v -0.7150884866714478 1.920717716217041 -0.17932431399822235
v -0.8096768260002136 1.9323841333389282 -0.17932431399822235
v -0.904723584651947 1.9393951892852783 -0.17932431399822235
v -1 1.9417340755462646 -0.17932431399822235
v 1 0 -7.472421428536991e-17
v 0.997590959072113 0.09813535213470459 -7.472421428536991e-17
v 0.9903694987297058 0.1960342973470688 -7.472421428536991e-17
v 0.9783532023429871 0.2934609651565552 -7.472421428536991e-17
v 0.9615705609321594 0.39018064737319946 -7.472421428536991e-17
v 0.9400625824928284 0.48596036434173584 -7.472421428536991e-17
v 0.9138807654380798 0.5805693864822388 -7.472421428536991e-17
v 0.883088231086731 0.6737797260284424 -7.472421428536991e-17
v 0.8477592468261719 0.7653669118881226 -7.472421428536991e-17
v 0.8079786896705627 0.8551101684570312 -7.472421428536991e-17
v 0.7638425230979919 0.9427934885025024 -7.472421428536991e-17
v 0.7154573202133179 1.0282055139541626 -7.472421428536991e-17
v 0.6629392504692078 1.111140489578247 -7.472421428536991e-17
v 0.6064151525497437 1.1913987398147583 -7.472421428536991e-17
v 0.5460209846496582 1.2687866687774658 -7.472421428536991e-17
v 0.4819023609161377 1.3431179523468018 -7.472421428536991e-17
v 0.4142135977745056 1.4142136573791504 -7.472421428536991e-17
v 0.34311798214912415 1.4819023609161377 -7.472421428536991e-17
v 0.26878663897514343 1.5460209846496582 -7.472421428536991e-17
v 0.1913987100124359 1.6064151525497437 -7.472421428536991e-17
v 0.11114054173231125 1.6629393100738525 -7.472421428536991e-17
v 0.028205525130033493 1.7154573202133179 -7.472421428536991e-17
v -0.057206518948078156 1.7638425827026367 -7.472421428536991e-17
v -0.14488980174064636 1.807978630065918 -7.472421428536991e-17
v -0.23463308811187744 1.8477592468261719 -7.472421428536991e-17
v -0.3262202739715576 1.883088231086731 -7.472421428536991e-17
v -0.4194306433200836 1.9138808250427246 -7.472421428536991e-17
v -0.5140396356582642 1.9400625228881836 -7.472421428536991e-17
v -0.6098193526268005 1.9615705013275146 -7.472421428536991e-17
v -0.7065390348434448 1.9783532619476318 -7.472421428536991e-17
v -0.8039657473564148 1.9903695583343506 -7.472421428536991e-17
v -0.9018647074699402 1.9975910186767578 -7.472421428536991e-17
v -1 2 -7.472421428536991e-17
vt 0 0
vt 0.03125 0
vt 0.0625 0
vt 0.09375 0
vt 0.125 0
vt 0.15625 0
vt 0.1875 0
vt 0.21875 0
vt 0.25 0
vt 0.28125 0
vt 0.3125 0
vt 0.34375 0
vt 0.375 0
vt 0.40625 0
vt 0.4375 0
vt 0.46875 0
vt 0.5 0
vt 0.53125 0
vt 0.5625 0
vt 0.59375 0
vt 0.625 0
vt 0.65625 0
vt 0.6875 0
vt 0.71875 0
vt 0.75 0
vt 0.78125 0
vt 0.8125 0
vt 0.84375 0
vt 0.875 0
vt 0.90625 0
vt 0.9375 0
vt 0.96875 0
vt 1 0
vt 0 0.10000000149011612
vt 0.03125 0.10000000149011612
vt 0.0625 0.10000000149011612
vt 0.09375 0.10000000149011612
vt 0.125 0.10000000149011612
vt 0.15625 0.10000000149011612
vt 0.1875 0.10000000149011612
vt 0.21875 0.10000000149011612
vt 0.25 0.10000000149011612
vt 0.28125 0.10000000149011612
vt 0.3125 0.10000000149011612
vt 0.34375 0.10000000149011612
vt 0.375 0.10000000149011612
vt 0.40625 0.10000000149011612
vt 0.4375 0.10000000149011612
vt 0.46875 0.10000000149011612
vt 0.5 0.10000000149011612
vt 0.53125 0.10000000149011612
vt 0.5625 0.10000000149011612
vt 0.59375 0.10000000149011612
vt 0.625 0.10000000149011612
vt 0.65625 0.10000000149011612
vt 0.6875 0.10000000149011612
vt 0.71875 0.10000000149011612
vt 0.75 0.10000000149011612
vt 0.78125 0.10000000149011612
vt 0.8125 0.10000000149011612
vt 0.84375 0.10000000149011612
vt 0.875 0.10000000149011612
vt 0.90625 0.10000000149011612
vt 0.9375 0.10000000149011612
vt 0.96875 0.10000000149011612
vt 1 0.10000000149011612
vt 0 0.20000000298023224
vt 0.03125 0.20000000298023224
vt 0.0625 0.20000000298023224
vt 0.09375 0.20000000298023224
vt 0.125 0.20000000298023224
vt 0.15625 0.20000000298023224
vt 0.1875 0.20000000298023224
vt 0.21875 0.20000000298023224
vt 0.25 0.20000000298023224
vt 0.28125 0.20000000298023224
vt 0.3125 0.20000000298023224
vt 0.34375 0.20000000298023224
vt 0.375 0.20000000298023224
vt 0.40625 0.20000000298023224
vt 0.4375 0.20000000298023224
vt 0.46875 0.20000000298023224
vt 0.5 0.20000000298023224
vt 0.53125 0.20000000298023224
vt 0.5625 0.20000000298023224
vt 0.59375 0.20000000298023224
vt 0.625 0.20000000298023224
vt 0.65625 0.20000000298023224
vt 0.6875 0.20000000298023224
vt 0.71875 0.20000000298023224
vt 0.75 0.20000000298023224
vt 0.78125 0.20000000298023224
vt 0.8125 0.20000000298023224
vt 0.84375 0.20000000298023224
vt 0.875 0.20000000298023224
vt 0.90625 0.20000000298023224
vt 0.9375 0.20000000298023224
vt 0.96875 0.20000000298023224
vt 1 0.20000000298023224
vt 0 0.30000001192092896
vt 0.03125 0.30000001192092896
vt 0.0625 0.30000001192092896
vt 0.09375 0.30000001192092896
vt 0.125 0.30000001192092896
vt 0.15625 0.30000001192092896
vt 0.1875 0.30000001192092896
vt 0.21875 0.30000001192092896
vt 0.25 0.30000001192092896
vt 0.28125 0.30000001192092896
vt 0.3125 0.30000001192092896
vt 0.34375 0.30000001192092896
vt 0.375 0.30000001192092896
vt 0.40625 0.30000001192092896
vt 0.4375 0.30000001192092896
vt 0.46875 0.30000001192092896
vt 0.5 0.30000001192092896
vt 0.53125 0.30000001192092896
vt 0.5625 0.30000001192092896
vt 0.59375 0.30000001192092896
vt 0.625 0.30000001192092896
vt 0.65625 0.30000001192092896
vt 0.6875 0.30000001192092896
vt 0.71875 0.30000001192092896
vt 0.75 0.30000001192092896
vt 0.78125 0.30000001192092896
vt 0.8125 0.30000001192092896
vt 0.84375 0.30000001192092896
vt 0.875 0.30000001192092896
vt 0.90625 0.30000001192092896
vt 0.9375 0.30000001192092896
vt 0.96875 0.30000001192092896
vt 1 0.30000001192092896
vt 0 0.4000000059604645
vt 0.03125 0.4000000059604645
vt 0.0625 0.4000000059604645
vt 0.09375 0.4000000059604645
vt 0.125 0.4000000059604645
vt 0.15625 0.4000000059604645
vt 0.1875 0.4000000059604645
vt 0.21875 0.4000000059604645
vt 0.25 0.4000000059604645
vt 0.28125 0.4000000059604645
vt 0.3125 0.4000000059604645
vt 0.34375 0.4000000059604645
vt 0.375 0.4000000059604645
vt 0.40625 0.4000000059604645
vt 0.4375 0.4000000059604645
vt 0.46875 0.4000000059604645
vt 0.5 0.4000000059604645
vt 0.53125 0.4000000059604645
vt 0.5625 0.4000000059604645
vt 0.59375 0.4000000059604645
vt 0.625 0.4000000059604645
vt 0.65625 0.4000000059604645
vt 0.6875 0.4000000059604645
vt 0.71875 0.4000000059604645
vt 0.75 0.4000000059604645
vt 0.78125 0.4000000059604645
vt 0.8125 0.4000000059604645
vt 0.84375 0.4000000059604645
vt 0.875 0.4000000059604645
vt 0.90625 0.4000000059604645
vt 0.9375 0.4000000059604645
vt 0.96875 0.4000000059604645
vt 1 0.4000000059604645
vt 0 0.5
vt 0.03125 0.5
vt 0.0625 0.5
vt 0.09375 0.5
vt 0.125 0.5
vt 0.15625 0.5
vt 0.1875 0.5
vt 0.21875 0.5
vt 0.25 0.5
vt 0.28125 0.5
vt 0.3125 0.5
vt 0.34375 0.5
vt 0.375 0.5
vt 0.40625 0.5
vt 0.4375 0.5
vt 0.46875 0.5
vt 0.5 0.5
vt 0.53125 0.5
vt 0.5625 0.5
vt 0.59375 0.5
vt 0.625 0.5
vt 0.65625 0.5
vt 0.6875 0.5
vt 0.71875 0.5
vt 0.75 0.5
vt 0.78125 0.5
vt 0.8125 0.5
vt 0.84375 0.5
vt 0.875 0.5
vt 0.90625 0.5
vt 0.9375 0.5
vt 0.96875 0.5
vt 1 0.5
vt 0 0.6000000238418579
vt 0.03125 0.6000000238418579
vt 0.0625 0.6000000238418579
vt 0.09375 0.6000000238418579
vt 0.125 0.6000000238418579
vt 0.15625 0.6000000238418579
vt 0.1875 0.6000000238418579
vt 0.21875 0.6000000238418579
vt 0.25 0.6000000238418579
vt 0.28125 0.6000000238418579
vt 0.3125 0.6000000238418579
vt 0.34375 0.6000000238418579
vt 0.375 0.6000000238418579
vt 0.40625 0.6000000238418579
vt 0.4375 0.6000000238418579
vt 0.46875 0.6000000238418579
vt 0.5 0.6000000238418579
vt 0.53125 0.6000000238418579
vt 0.5625 0.6000000238418579
vt 0.59375 0.6000000238418579
vt 0.625 0.6000000238418579
vt 0.65625 0.6000000238418579
vt 0.6875 0.6000000238418579
vt 0.71875 0.6000000238418579
vt 0.75 0.6000000238418579
vt 0.78125 0.6000000238418579
vt 0.8125 0.6000000238418579
vt 0.84375 0.6000000238418579
vt 0.875 0.6000000238418579
vt 0.90625 0.6000000238418579
vt 0.9375 0.6000000238418579
vt 0.96875 0.6000000238418579
vt 1 0.6000000238418579
vt 0 0.699999988079071
vt 0.03125 0.699999988079071
vt 0.0625 0.699999988079071
vt 0.09375 0.699999988079071
vt 0.125 0.699999988079071
vt 0.15625 0.699999988079071
vt 0.1875 0.699999988079071
vt 0.21875 0.699999988079071
vt 0.25 0.699999988079071
vt 0.28125 0.699999988079071
vt 0.3125 0.699999988079071
vt 0.34375 0.699999988079071
vt 0.375 0.699999988079071
vt 0.40625 0.699999988079071
vt 0.4375 0.699999988079071
vt 0.46875 0.699999988079071
vt 0.5 0.699999988079071
vt 0.53125 0.699999988079071
vt 0.5625 0.699999988079071
vt 0.59375 0.699999988079071
vt 0.625 0.699999988079071
vt 0.65625 0.699999988079071
vt 0.6875 0.699999988079071
vt 0.71875 0.699999988079071
vt 0.75 0.699999988079071
vt 0.78125 0.699999988079071
vt 0.8125 0.699999988079071
vt 0.84375 0.699999988079071
vt 0.875 0.699999988079071
vt 0.90625 0.699999988079071
vt 0.9375 0.699999988079071
vt 0.96875 0.699999988079071
vt 1 0.699999988079071
vt 0 0.800000011920929
vt 0.03125 0.800000011920929
vt 0.0625 0.800000011920929
vt 0.09375 0.800000011920929
vt 0.125 0.800000011920929
vt 0.15625 0.800000011920929
vt 0.1875 0.800000011920929
vt 0.21875 0.800000011920929
vt 0.25 0.800000011920929
vt 0.28125 0.800000011920929
vt 0.3125 0.800000011920929
vt 0.34375 0.800000011920929
vt 0.375 0.800000011920929
vt 0.40625 0.800000011920929
vt 0.4375 0.800000011920929
vt 0.46875 0.800000011920929
vt 0.5 0.800000011920929
vt 0.53125 0.800000011920929
vt 0.5625 0.800000011920929
vt 0.59375 0.800000011920929
vt 0.625 0.800000011920929
vt 0.65625 0.800000011920929
vt 0.6875 0.800000011920929
vt 0.71875 0.800000011920929
vt 0.75 0.800000011920929
vt 0.78125 0.800000011920929
vt 0.8125 0.800000011920929
vt 0.84375 0.800000011920929
vt 0.875 0.800000011920929
vt 0.90625 0.800000011920929
vt 0.9375 0.800000011920929
vt 0.96875 0.800000011920929
vt 1 0.800000011920929
vt 0 0.8999999761581421
vt 0.03125 0.8999999761581421
vt 0.0625 0.8999999761581421
vt 0.09375 0.8999999761581421
vt 0.125 0.8999999761581421
vt 0.15625 0.8999999761581421
vt 0.1875 0.8999999761581421
vt 0.21875 0.8999999761581421
vt 0.25 0.8999999761581421
vt 0.28125 0.8999999761581421
vt 0.3125 0.8999999761581421
vt 0.34375 0.8999999761581421
vt 0.375 0.8999999761581421
vt 0.40625 0.8999999761581421
vt 0.4375 0.8999999761581421
vt 0.46875 0.8999999761581421
vt 0.5 0.8999999761581421
vt 0.53125 0.8999999761581421
vt 0.5625 0.8999999761581421
vt 0.59375 0.8999999761581421
vt 0.625 0.8999999761581421
vt 0.65625 0.8999999761581421
vt 0.6875 0.8999999761581421
vt 0.71875 0.8999999761581421
vt 0.75 0.8999999761581421
vt 0.78125 0.8999999761581421
vt 0.8125 0.8999999761581421
vt 0.84375 0.8999999761581421
vt 0.875 0.8999999761581421
vt 0.90625 0.8999999761581421
vt 0.9375 0.8999999761581421
vt 0.96875 0.8999999761581421
vt 1 0.8999999761581421
vt 0 1
vt 0.03125 1
vt 0.0625 1
vt 0.09375 1
vt 0.125 1
vt 0.15625 1
vt 0.1875 1
vt 0.21875 1
vt 0.25 1
vt 0.28125 1
vt 0.3125 1
vt 0.34375 1
vt 0.375 1
vt 0.40625 1
vt 0.4375 1
vt 0.46875 1
vt 0.5 1
vt 0.53125 1
vt 0.5625 1
vt 0.59375 1
vt 0.625 1
vt 0.65625 1
vt 0.6875 1
vt 0.71875 1
vt 0.75 1
vt 0.78125 1
vt 0.8125 1
vt 0.84375 1
vt 0.875 1
vt 0.90625 1
vt 0.9375 1
vt 0.96875 1
vt 1 1
vn 0.9507975728068282 0.023340639094588223 0.30893233905064155
vn 0.9495089916901795 0.05428509194171306 0.30900777254363426
vn 0.945701558581408 0.10080941969728166 0.3090081277199568
vn 0.9396158428795571 0.1470918501999581 0.30900818017407355
vn 0.93126677011112 0.19301971491461112 0.30900743120689617
vn 0.9206741009162691 0.23848167458100106 0.3090075901835762
vn 0.9078632335620466 0.2833701291762728 0.30900763588767083
vn 0.8928652153388993 0.3275756743355029 0.3090079041407542
vn 0.8757161935714995 0.3709918193468633 0.3090084437266211
vn 0.856457893031505 0.41351416897822757 0.3090079441022205
vn 0.8351359940166622 0.4550409006324905 0.3090075245837447
vn 0.8118024308555202 0.49547033526308953 0.3090080259982741
vn 0.7865127652632407 0.5347071107496695 0.3090080513380053
vn 0.7593286715944214 0.5726550283625672 0.3090083930667881
vn 0.7303150811007494 0.609223895447658 0.3090082968665837
vn 0.6995421180651755 0.6443250893853375 0.309008097372003
vn 0.6670839913478579 0.6778739223736602 0.30900791875477934
vn 0.6330188571484916 0.7097894019123021 0.30900830316901473
vn 0.5974284548399829 0.7399953178534383 0.3090083670428667
vn 0.5603990996913166 0.7684183505687794 0.3090082322112447
vn 0.5220194513863174 0.7949904287025434 0.30900794592643416
vn 0.4823827494769011 0.8196469033022032 0.3090078266229089
vn 0.44158279691900865 0.8423294982166236 0.30900752401732323
vn 0.3997207254384422 0.8629815514578603 0.30900838742394965
vn 0.3568945305815028 0.8815555762116356 0.3090081877413281
vn 0.3132082760297802 0.8980060644813594 0.3090075791645791
vn 0.2687680737991868 0.9122927245589166 0.3090076167720521
vn 0.22367986661171577 0.9243817770259841 0.30900752025614064
vn 0.17805381071858703 0.9342435573506671 0.30900779284244684
vn 0.13199809529070766 0.9418547392835621 0.3090083379598652
vn 0.0856240475998123 0.9471972692703957 0.30900785679223536
vn 0.03904434714503847 0.9502577899634058 0.30900755908210664
vn 0.023340292797933065 0.9507976387397821 0.30893216229289155
vn 0.7447540887778369 0.018282605648694397 0.667088520047668
vn 0.8115999277874661 0.037969668284530106 0.5829784400007798
vn 0.808759162511643 0.07774717453236363 0.5829785535555317
vn 0.8039700233692938 0.11733691167796977 0.582978773782934
vn 0.7972441846497771 0.15664501360102537 0.5829786014563888
vn 0.7885977660068717 0.19557498480314348 0.582978549149299
vn 0.7780513160002286 0.23403424002386217 0.5829786652758107
vn 0.7656304589812137 0.2719298215591442 0.582978706666914
vn 0.751365343168678 0.30916988009024754 0.5829786499778503
vn 0.7352901236232895 0.3456648055655159 0.5829787957510995
vn 0.7174435154881343 0.3813276236132011 0.5829785978520445
vn 0.6978684001694354 0.41607176863853873 0.5829785411033163
vn 0.6766120706409477 0.4498133602837457 0.5829785988981191
vn 0.6537257912317878 0.4824712190355238 0.5829786554246638
vn 0.6292647033872591 0.5139666126612172 0.5829787767496334
vn 0.603287514687265 0.5442241400177981 0.5829787818131558
vn 0.5758569641882464 0.5731706425437061 0.5829787057191128
vn 0.5470391478207712 0.6007362567122935 0.5829786622362998
vn 0.516903461510322 0.626854540717853 0.5829787271076508
vn 0.48552264083817265 0.6514625723850149 0.5829788006566157
vn 0.45297204524699125 0.6745014053166591 0.5829787135484534
vn 0.41933045212991193 0.6959151099583096 0.5829786716924017
vn 0.38467794910818054 0.7156527685701388 0.5829785504697572
vn 0.34909916920814027 0.733666023697899 0.5829785036598694
vn 0.31268003596868116 0.7499111894129818 0.5829789045066992
vn 0.275506757940598 0.7643505148702667 0.5829788304446557
vn 0.237669840686177 0.776948512356037 0.5829786067909769
vn 0.19926021996556645 0.7876746655853092 0.5829785467187841
vn 0.1603706925274701 0.7965031858123164 0.582978486712066
vn 0.12109547999310895 0.803412566324134 0.5829786728497943
vn 0.08152779061143053 0.8083867301201411 0.5829786564906859
vn 0.04176410631950334 0.8114134018474295 0.5829786022880387
vn 0.021319430105908314 0.8684590371065771 0.49530231451899753
vn 0.21244017842437515 0.005214876045009726 0.9771601586530506
vn 0.3186013052318826 0.01289521509947296 0.947801098191007
vn 0.31758487685216713 0.028512854542637894 0.9478010672713045
vn 0.3158032670342955 0.04406151651597516 0.9478010758027118
vn 0.3132609168308634 0.05950410366310661 0.9478010654317378
vn 0.3099637561709648 0.07480346252449686 0.9478010929803431
vn 0.3059199101317315 0.08992268734177829 0.9478010966897149
vn 0.3011390867410672 0.10482508698081859 0.9478011139348909
vn 0.29563293442581157 0.11947508391341986 0.9478010721700335
vn 0.28941452695780795 0.13383714943772507 0.9478010598306864
vn 0.2824988605103775 0.14787657254826064 0.9478010936381732
vn 0.2749024678419494 0.16156040419000062 0.947801070358316
vn 0.2666440371713234 0.17485444664911842 0.9478010761378195
vn 0.257743096053097 0.18772751505298743 0.9478010743447141
vn 0.24822135703545167 0.2001481687246723 0.947801070092052
vn 0.23810152904414406 0.21208679849688325 0.9478010612835286
vn 0.22740810621319482 0.22351429876638798 0.9478010927802828
vn 0.2161668247949419 0.2344033874630395 0.9478011161651612
vn 0.204404849487626 0.2447279884454235 0.9478010704664759
vn 0.1921504268674538 0.2544629547021985 0.9478010435417774
vn 0.17943311263107833 0.26358465132186054 0.9478010812818564
vn 0.16628341792126208 0.2720715769538417 0.9478010771983079
vn 0.1527333145390262 0.2799029414091593 0.947801075131498
vn 0.13881485328645127 0.28706023437171624 0.9478010647543695
vn 0.12456245973212546 0.2935256719561875 0.9478010727616587
vn 0.11000995846464078 0.29928397488766617 0.947801092747865
vn 0.09519220198212767 0.304321350414456 0.9478011185706186
vn 0.08014508905751466 0.30862575091334044 0.9478010923042554
vn 0.06490492953070262 0.3121866051427443 0.9478010728481282
vn 0.04950848833612115 0.3149952505701932 0.9478010876238188
vn 0.033992894613690317 0.31704512816611313 0.9478010708064828
vn 0.018395236275030345 0.31833116107873205 0.9478010799575258
vn 0.010187316574271348 0.4149922385035946 0.9097679157690665
vn -0.40318436224428456 -0.009897669040844445 0.9150652469574109
vn -0.2975913906737139 -0.01690134233729287 0.9545437176075712
vn -0.29640364531469815 -0.0314832067753548 0.9545437060372348
vn -0.29450180903127954 -0.04598917777212621 0.954543702511911
vn -0.2918904469068052 -0.060384144082150024 0.9545437245867849
vn -0.2885759211339725 -0.07463391219642812 0.9545437218335969
vn -0.28456619780236253 -0.0887037751574303 0.954543723116509
vn -0.27987107152700486 -0.1025598404035492 0.9545436933209107
vn -0.2745015035108323 -0.1161689464496633 0.9545437132216983
vn -0.26847075929973874 -0.12949822608630104 0.9545436924738033
vn -0.26179316682351755 -0.14251540624363354 0.9545437113028016
vn -0.2544848660756028 -0.15518933777722646 0.9545437247076473
vn -0.24656356631041362 -0.16748949722278542 0.9545437004602508
vn -0.23804829771781938 -0.1793859880738041 0.9545437000140086
vn -0.22895951469309114 -0.19085034644885418 0.9545437055954309
vn -0.21931914767160984 -0.20185498692602663 0.9545437002660968
vn -0.20915043904739594 -0.21237341128687595 0.9545436752839846
vn -0.19847777248253684 -0.22238008411752672 0.9545436983282913
vn -0.18732702468172638 -0.23185106785290113 0.9545436963069638
vn -0.17572510333672337 -0.24076333766974217 0.9545437147095064
vn -0.1636996287201275 -0.24909580027397857 0.9545437202364063
vn -0.15127989502057018 -0.256828186388408 0.9545437004344046
vn -0.13849575759723756 -0.2639417339265157 0.9545437057670182
vn -0.12537784917722664 -0.2704194793499954 0.9545437130502564
vn -0.11195790525102427 -0.2762458562604354 0.954543689073864
vn -0.0982684035977642 -0.2814065487208439 0.954543699990404
vn -0.08434213040571746 -0.28588930069714363 0.9545437196826151
vn -0.07021259723698858 -0.28968335052952215 0.9545437379267786
vn -0.05591386885918574 -0.2927797116051536 0.9545437023738624
vn -0.04148048884765224 -0.2951706035635576 0.9545437045190152
vn -0.02694719663647466 -0.29685038398073516 0.9545437120027166
vn -0.012348965975926027 -0.29781500069930966 0.9545437278604871
vn -0.00483352173744671 -0.19689388370999567 0.9804128903809907
vn -0.8659570771289177 -0.021257903324052547 0.49966633078145967
vn -0.803384139629977 -0.04058856589814419 0.5940761672625267
vn -0.8004248193418079 -0.07995969853263908 0.5940762200191181
vn -0.7955372382177571 -0.11913894934795814 0.5940761006446297
vn -0.7887331236445874 -0.15803031601556672 0.5940761557964369
vn -0.7800288698620045 -0.19654132179349457 0.5940761491673185
vn -0.7694454093580151 -0.2345788150483093 0.5940762085359148
vn -0.7570085063250146 -0.2720506537355602 0.5940762267197911
vn -0.742747701596701 -0.30886792202627805 0.5940761386522664
vn -0.726697523624376 -0.34494088006834983 0.5940761722337229
vn -0.7088966204205402 -0.380182913014743 0.59407620235788
vn -0.6893881434220959 -0.41450851403189876 0.5940763246453297
vn -0.6682186581524456 -0.44783615119457443 0.5940762632694353
vn -0.6454396350492462 -0.4800846355003726 0.5940761064577251
vn -0.621105806227678 -0.5111762417650177 0.5940761124008089
vn -0.5952750283568485 -0.5410370680532581 0.5940762001688735
vn -0.5680108545166017 -0.569593894243398 0.5940761439343955
vn -0.5393777493909329 -0.5967791681220449 0.5940759782700628
vn -0.5094453564620736 -0.6225263916231666 0.594076022502062
vn -0.47828596665346496 -0.6467735745049071 0.5940761545664881
vn -0.4459743447708292 -0.6694626730036666 0.5940762688923159
vn -0.41258808807481556 -0.6905392977141535 0.5940762138742907
vn -0.3782077699867637 -0.7099523488307985 0.5940762115345736
vn -0.34291687057109727 -0.7276546838261947 0.5940763258904752
vn -0.30679891183757707 -0.7436047358861512 0.5940761099917803
vn -0.26994254962439035 -0.7577629026844066 0.5940760921107548
vn -0.23243589975614337 -0.7700955363278523 0.5940761040746124
vn -0.19436906822275027 -0.7805729726923547 0.5940761732475394
vn -0.15583438952547832 -0.7891698368865658 0.5940762674856256
vn -0.11692372160031755 -0.7958657874670281 0.5940761665532618
vn -0.07773143009006885 -0.8006443335939546 0.5940761532497707
vn -0.03835185920345094 -0.8034940812641863 0.5940760862625761
vn -0.01806807338211797 -0.7360098388328618 0.6767296815313211
vn -0.9935683487487317 -0.024390447588824193 -0.11057595774459807
vn -0.9987954672411348 -0.04906744968472358 -1.2082006718154992e-8
vn -0.9951847359647233 -0.09801704598087946 -7.888601191284184e-8
vn -0.9891764828710615 -0.14673065710626582 9.062480279063999e-9
vn -0.9807852897739072 -0.19509027490650868 1.246674630790176e-7
vn -0.9700313023244527 -0.24297998376558747 3.0214692386594014e-8
vn -0.9569402399077419 -0.29028499314519013 -1.0275120909637522e-7
vn -0.9415441502369435 -0.33688961568232695 -7.82994128801233e-8
vn -0.9238795709050674 -0.38268333967428975 -2.427265695985164e-8
vn -0.9039892782704232 -0.427555124834352 3.018903958716668e-8
vn -0.8819212168472481 -0.47139682569430763 -2.366235167797727e-9
vn -0.8577285335324705 -0.5141028717720189 -3.363683702667506e-8
vn -0.8314696751235617 -0.5555701390012914 6.734875220346738e-8
vn -0.8032076227854063 -0.5956991813821938 -2.5382138643441848e-8
vn -0.7730107449735916 -0.6343929288346182 9.011020717834124e-8
vn -0.7409509996329405 -0.6715590935598498 -1.3806818761890318e-7
vn -0.7071067513842252 -0.7071068109888685 -1.2706710920681808e-8
vn -0.6715590935598506 -0.7409509996329413 1.309108338176005e-7
vn -0.6343929288346188 -0.7730107449735923 -7.655533237269172e-8
vn -0.5956991813821938 -0.8032076227854063 2.8447633118357118e-8
vn -0.5555701114675385 -0.8314696935210217 -7.219808922724458e-8
vn -0.5141028717720186 -0.85772853353247 4.208529666373017e-8
vn -0.4713967793347058 -0.8819212416269758 -8.20647914380281e-9
vn -0.4275551491887093 -0.9039892667516691 -1.183467827461772e-8
vn -0.38268333967428986 -0.9238795709050677 1.7145074825000313e-8
vn -0.3368896874285467 -0.9415441245657522 8.559346380418243e-8
vn -0.2902849385631517 -0.956940256465041 9.565986630498884e-8
vn -0.24297999778699453 -0.9700312988122756 -4.102397261113522e-8
vn -0.19509028924052832 -0.9807852869226952 -1.1552358083831193e-7
vn -0.14673068033777537 -0.9891764794249878 -6.273706172074036e-9
vn -0.09801704598087951 -0.995184735964724 6.931441845935527e-8
vn -0.04906744596840228 -0.9987954674237051 2.4100318612408443e-8
vn -0.024390447548635806 -0.9935683471116191 0.11057597246356193
vn -0.7360098388328618 -0.01806807338211797 -0.6767296815313211
vn -0.8034940812641863 -0.03835185920345094 -0.5940760862625761
vn -0.800644333130266 -0.07773143749563169 -0.5940761529057148
vn -0.7958657874670281 -0.11692372160031755 -0.5940761665532618
vn -0.789169788291308 -0.15583437679829923 -0.5940763353779864
vn -0.7805729473132924 -0.19436904700199462 -0.594076213536762
vn -0.7700955336605763 -0.2324359138522478 -0.5940761020169911
vn -0.7577629087805443 -0.2699425219937327 -0.5940760968900463
vn -0.7436047027563177 -0.30679892797108205 -0.5940761431285414
vn -0.7276547634033673 -0.34291687998341425 -0.5940762229872781
vn -0.7099523112666134 -0.3782078115305419 -0.5940762299776616
vn -0.6905392902442179 -0.4125880240069841 -0.5940762670524921
vn -0.6694626730036666 -0.4459743447708292 -0.5940762688923159
vn -0.6467735077126521 -0.47828599114058284 -0.5940762075691487
vn -0.6225263551176515 -0.5094453753652798 -0.5940760445455284
vn -0.5967791681220449 -0.5393777493909329 -0.5940759782700628
vn -0.5695939144125451 -0.5680108746296939 -0.594076105365806
vn -0.541037025857488 -0.5952751071155759 -0.5940761596797361
vn -0.5111762236644221 -0.6211057842345098 -0.5940761509693983
vn -0.4800846355003726 -0.6454396350492462 -0.5940761064577251
vn -0.4478361035440705 -0.668218675989282 -0.5940762791271803
vn -0.4145084869952957 -0.6893882076265342 -0.5940762690045321
vn -0.3801829009821824 -0.7088966535543928 -0.594076170520376
vn -0.34494088006834983 -0.726697523624376 -0.5940761722337229
vn -0.30886792202627805 -0.742747701596701 -0.5940761386522664
vn -0.2720506537355602 -0.7570085063250146 -0.5940762267197911
vn -0.23457878443391558 -0.7694454662989701 -0.5940761468746806
vn -0.1965413239718883 -0.7800288189029209 -0.5940762153564908
vn -0.15803031601556672 -0.7887331236445874 -0.5940761557964369
vn -0.11913895981893662 -0.7955372086357021 -0.5940761381585506
vn -0.07995969853263908 -0.8004248193418079 -0.5940762200191181
vn -0.04058856589814419 -0.803384139629977 -0.5940761672625267
vn -0.021257904869299876 -0.8659570641994745 -0.49966635312335683
vn -0.1968938980334803 -0.00483352172326541 -0.9804128875045106
vn -0.29781500069930966 -0.012348965975926027 -0.9545437278604871
vn -0.29685038398073516 -0.02694719663647466 -0.9545437120027166
vn -0.2951706035635576 -0.04148048884765224 -0.9545437045190152
vn -0.2927796843574849 -0.055913869347063036 -0.9545437107027478
vn -0.2896833340479187 -0.07021259324222608 -0.9545437432224276
vn -0.28588930069714363 -0.08434213040571746 -0.9545437196826151
vn -0.2814065487208439 -0.0982684035977642 -0.954543699990404
vn -0.27624585649086625 -0.11195789789383367 -0.954543689870098
vn -0.27041950697297223 -0.12537784816679037 -0.9545437053574656
vn -0.26394173447122476 -0.13849574298189665 -0.9545437077369553
vn -0.256828186388408 -0.15127989502057018 -0.9545437004344046
vn -0.24909582761948199 -0.16369964200672774 -0.9545437108217909
vn -0.24076335107668717 -0.17572511714730615 -0.9545437087854539
vn -0.23185106785290113 -0.18732702468172638 -0.9545436963069638
vn -0.2223800706109713 -0.19847775882608357 -0.9545437043144932
vn -0.21237341128687595 -0.20915043904739594 -0.9545436752839846
vn -0.20185497263201985 -0.21931914833129412 -0.9545437031372437
vn -0.19085034644885418 -0.22895951469309114 -0.9545437055954309
vn -0.1793859880738041 -0.23804829771781938 -0.9545437000140086
vn -0.16748951232129855 -0.24656355169977723 -0.9545437015849851
vn -0.15518933777722646 -0.2544848660756028 -0.9545437247076473
vn -0.1425153916451244 -0.2617931673794733 -0.9545437133299134
vn -0.12949819678375774 -0.26847076033586065 -0.9545436961577192
vn -0.11616895189899065 -0.27450155838661355 -0.9545436967776858
vn -0.1025598338867696 -0.27987104427289133 -0.9545437020119716
vn -0.0887037751574303 -0.28456619780236253 -0.954543723116509
vn -0.07463391219642812 -0.2885759211339725 -0.9545437218335969
vn -0.060384144082150024 -0.2918904469068052 -0.9545437245867849
vn -0.04598917777212621 -0.29450180903127954 -0.954543702511911
vn -0.0314832104969526 -0.2964036452799347 -0.954543705925282
vn -0.01690134419940596 -0.2975913906643453 -0.9545437175775209
vn -0.009897669040844445 -0.40318436224428456 -0.9150652469574109
vn 0.4149922138337851 0.010187316700265351 -0.9097679270208324
vn 0.31833116107873205 0.018395236275030345 -0.9478010799575258
vn 0.31704512816611313 0.033992894613690317 -0.9478010708064828
vn 0.3149952952106059 0.04950849066825597 -0.9478010726660604
vn 0.3121866051427443 0.06490492953070262 -0.9478010728481282
vn 0.3086257239496851 0.08014508979467024 -0.9478011010219057
vn 0.30432135019862 0.09519220936519446 -0.9478011178984028
vn 0.29928401892812223 0.11000996369825346 -0.9478010782338985
vn 0.2935256719561875 0.12456245973212546 -0.9478010727616587
vn 0.28706023437171624 0.13881485328645127 -0.9478010647543695
vn 0.2799029414091593 0.1527333145390262 -0.947801075131498
vn 0.2720715762796983 0.16628343241040383 -0.9478010748498309
vn 0.26358465132186054 0.17943311263107833 -0.9478010812818564
vn 0.2544629268296181 0.19215042832464319 -0.9478010507295087
vn 0.2447279884454235 0.204404849487626 -0.9478010704664759
vn 0.2344034023005025 0.21616680983503817 -0.9478011159075997
vn 0.22351428385225824 0.2274081211011609 -0.9478010927252891
vn 0.21208682695867304 0.2381015275391806 -0.9478010552927818
vn 0.2001481687246723 0.24822135703545167 -0.947801070092052
vn 0.18772751505298743 0.257743096053097 -0.9478010743447141
vn 0.17485445970519004 0.2666440641599792 -0.9478010661364835
vn 0.16156038967778574 0.27490246850376 -0.9478010726400881
vn 0.14787658712357063 0.282498859887882 -0.9478010915496625
vn 0.13383714943772507 0.28941452695780795 -0.9478010598306864
vn 0.11947508286077886 0.295632961623446 -0.9478010638193863
vn 0.10482508698081859 0.3011390867410672 -0.9478011139348909
vn 0.08992267995144386 0.3059199103366905 -0.9478010973247191
vn 0.07480346993338714 0.3099637559982129 -0.9478010924521058
vn 0.059504099951006535 0.3132609169003039 -0.9478010656418369
vn 0.04406151072342726 0.3158032224152634 -0.9478010909388662
vn 0.02851285268150702 0.3175848768690339 -0.9478010673216418
vn 0.01289521509947296 0.3186013052318826 -0.947801098191007
vn 0.005214876494150109 0.21244019265251868 -0.9771601555573741
vn 0.8684590371065771 0.021319430105908314 -0.49530231451899753
vn 0.8114134299163683 0.04176411148952481 -0.5829785628501662
vn 0.8083867306111788 0.08152778321037242 -0.5829786568448041
vn 0.803412566324134 0.12109547999310895 -0.5829786728497943
vn 0.7965031858123164 0.1603706925274701 -0.582978486712066
vn 0.7876746655853092 0.19926021996556645 -0.5829785467187841
vn 0.776948515107644 0.23766982662673686 -0.5829786088556285
vn 0.7643505211461508 0.27550673040039064 -0.5829788352313439
vn 0.7499111964010974 0.31268000908009574 -0.5829789099392411
vn 0.7336659982043049 0.34909915707756284 -0.582978543007044
vn 0.7156527685701388 0.38467794910818054 -0.5829785504697572
vn 0.6959151186551756 0.41933042756797045 -0.5829786789778986
vn 0.6745014144221707 0.4529720215596188 -0.5829787214184435
vn 0.6514626066932396 0.4855226219852334 -0.5829787780194347
vn 0.626854540717853 0.516903461510322 -0.5829787271076508
vn 0.6007362186180125 0.5470391674084222 -0.582978683110825
vn 0.5731706425437061 0.5758569641882464 -0.5829787057191128
vn 0.5442242015383555 0.6032874572064627 -0.5829787838655022
vn 0.5139666319386138 0.6292646673845064 -0.582978798615476
vn 0.4824712190355238 0.6537257912317878 -0.5829786554246638
vn 0.44981328896667094 0.6766120978518808 -0.5829786223434467
vn 0.4160717859455426 0.6978683695934612 -0.5829785653530074
vn 0.38132764908194444 0.7174435073347841 -0.5829785912268141
vn 0.34566476731285334 0.7352901056479224 -0.5829788411038758
vn 0.30916988009024754 0.751365343168678 -0.5829786499778503
vn 0.2719298215591442 0.7656304589812137 -0.582978706666914
vn 0.23403422593886772 0.7780513187135907 -0.5829786673088799
vn 0.19557497286888414 0.7885977183653733 -0.5829786175978179
vn 0.15664501360102537 0.7972441846497771 -0.5829786014563888
vn 0.11733690432996854 0.8039700240721471 -0.5829787742925905
vn 0.07774718193790836 0.80875916204316 -0.5829785532178348
vn 0.037969674404990605 0.8115998993562119 -0.5829784791830362
vn 0.018282605648694397 0.7447540887778369 -0.667088520047668
vn 0.9507976387397821 0.023340292797933065 -0.30893216229289155
vn 0.9502577810741291 0.03904435050508472 -0.3090075859937886
vn 0.9471972692703957 0.0856240475998123 -0.30900785679223536
vn 0.9418547324624222 0.13199807943358405 -0.30900836552427496
vn 0.9342435634755125 0.17805382678705853 -0.3090077650659611
vn 0.9243817685132211 0.22367986455181613 -0.30900754721276813
vn 0.9122927245589166 0.2687680737991868 -0.3090076167720521
vn 0.8980060362906302 0.3132083167887091 -0.3090076197765598
vn 0.8815555762116356 0.3568945305815028 -0.3090081877413281
vn 0.8629815514578603 0.3997207254384422 -0.30900838742394965
vn 0.8423295015447098 0.4415827688614021 -0.30900755504054983
vn 0.8196469033022032 0.4823827494769011 -0.3090078266229089
vn 0.7949904287025434 0.5220194513863174 -0.30900794592643416
vn 0.7684183505687794 0.5603990996913166 -0.3090082322112447
vn 0.7399953178534383 0.5974284548399829 -0.3090083670428667
vn 0.7097893816679016 0.6330188986983611 -0.3090082645532507
vn 0.6778739016631528 0.6670840305716502 -0.3090078795116003
vn 0.6443250893853375 0.6995421180651755 -0.309008097372003
vn 0.609223895447658 0.7303150811007494 -0.3090082968665837
vn 0.5726550283625672 0.7593286715944214 -0.3090083930667881
vn 0.5347070731108906 0.7865127975733296 -0.30900803422979023
vn 0.49547037716076936 0.8118023910684903 -0.3090080633440603
vn 0.4550409048230265 0.8351360017075476 -0.30900749762711616
vn 0.41351416897822757 0.856457893031505 -0.3090079441022205
vn 0.37099176794589883 0.8757162129360665 -0.3090084505596736
vn 0.3275756773521972 0.8928652235614314 -0.3090078771841333
vn 0.2833701291762728 0.9078632335620466 -0.30900763588767083
vn 0.23848167458100106 0.9206741009162691 -0.3090075901835762
vn 0.19301971491461112 0.93126677011112 -0.30900743120689617
vn 0.14709185155455065 0.9396158515326307 -0.30900815321745706
vn 0.10080941969728166 0.945701558581408 -0.3090081277199568
vn 0.05428508515512818 0.9495089977492408 -0.30900775511778455
vn 0.023340639094588223 0.9507975728068282 -0.30893233905064155
f 34/34/34 1/1/1 35/35/35
f 1/1/1 2/2/2 35/35/35
f 35/35/35 2/2/2 36/36/36
f 2/2/2 3/3/3 36/36/36
f 36/36/36 3/3/3 37/37/37
f 3/3/3 4/4/4 37/37/37
f 37/37/37 4/4/4 38/38/38
f 4/4/4 5/5/5 38/38/38
f 38/38/38 5/5/5 39/39/39
f 5/5/5 6/6/6 39/39/39
f 39/39/39 6/6/6 40/40/40
f 6/6/6 7/7/7 40/40/40
f 40/40/40 7/7/7 41/41/41
f 7/7/7 8/8/8 41/41/41
f 41/41/41 8/8/8 42/42/42
f 8/8/8 9/9/9 42/42/42
f 42/42/42 9/9/9 43/43/43
f 9/9/9 10/10/10 43/43/43
f 43/43/43 10/10/10 44/44/44
f 10/10/10 11/11/11 44/44/44
f 44/44/44 11/11/11 45/45/45
f 11/11/11 12/12/12 45/45/45
f 45/45/45 12/12/12 46/46/46
f 12/12/12 13/13/13 46/46/46
f 46/46/46 13/13/13 47/47/47
f 13/13/13 14/14/14 47/47/47
f 47/47/47 14/14/14 48/48/48
f 14/14/14 15/15/15 48/48/48
f 48/48/48 15/15/15 49/49/49
f 15/15/15 16/16/16 49/49/49
f 49/49/49 16/16/16 50/50/50
f 16/16/16 17/17/17 50/50/50
f 50/50/50 17/17/17 51/51/51
f 17/17/17 18/18/18 51/51/51
f 51/51/51 18/18/18 52/52/52
f 18/18/18 19/19/19 52/52/52
f 52/52/52 19/19/19 53/53/53
f 19/19/19 20/20/20 53/53/53
f 53/53/53 20/20/20 54/54/54
f 20/20/20 21/21/21 54/54/54
f 54/54/54 21/21/21 55/55/55
f 21/21/21 22/22/22 55/55/55
f 55/55/55 22/22/22 56/56/56
f 22/22/22 23/23/23 56/56/56
f 56/56/56 23/23/23 57/57/57
f 23/23/23 24/24/24 57/57/57
f 57/57/57 24/24/24 58/58/58
f 24/24/24 25/25/25 58/58/58
f 58/58/58 25/25/25 59/59/59
f 25/25/25 26/26/26 59/59/59
f 59/59/59 26/26/26 60/60/60
f 26/26/26 27/27/27 60/60/60
f 60/60/60 27/27/27 61/61/61
f 27/27/27 28/28/28 61/61/61
f 61/61/61 28/28/28 62/62/62
f 28/28/28 29/29/29 62/62/62
f 62/62/62 29/29/29 63/63/63
f 29/29/29 30/30/30 63/63/63
f 63/63/63 30/30/30 64/64/64
f 30/30/30 31/31/31 64/64/64
f 64/64/64 31/31/31 65/65/65
f 31/31/31 32/32/32 65/65/65
f 65/65/65 32/32/32 66/66/66
f 32/32/32 33/33/33 66/66/66
f 67/67/67 34/34/34 68/68/68
f 34/34/34 35/35/35 68/68/68
f 68/68/68 35/35/35 69/69/69
f 35/35/35 36/36/36 69/69/69
f 69/69/69 36/36/36 70/70/70
f 36/36/36 37/37/37 70/70/70
f 70/70/70 37/37/37 71/71/71
f 37/37/37 38/38/38 71/71/71
f 71/71/71 38/38/38 72/72/72
f 38/38/38 39/39/39 72/72/72
f 72/72/72 39/39/39 73/73/73
f 39/39/39 40/40/40 73/73/73
f 73/73/73 40/40/40 74/74/74
f 40/40/40 41/41/41 74/74/74
f 74/74/74 41/41/41 75/75/75
f 41/41/41 42/42/42 75/75/75
f 75/75/75 42/42/42 76/76/76
f 42/42/42 43/43/43 76/76/76
f 76/76/76 43/43/43 77/77/77
f 43/43/43 44/44/44 77/77/77
f 77/77/77 44/44/44 78/78/78
f 44/44/44 45/45/45 78/78/78
f 78/78/78 45/45/45 79/79/79
f 45/45/45 46/46/46 79/79/79
f 79/79/79 46/46/46 80/80/80
f 46/46/46 47/47/47 80/80/80
f 80/80/80 47/47/47 81/81/81
f 47/47/47 48/48/48 81/81/81
f 81/81/81 48/48/48 82/82/82
f 48/48/48 49/49/49 82/82/82
f 82/82/82 49/49/49 83/83/83
f 49/49/49 50/50/50 83/83/83
f 83/83/83 50/50/50 84/84/84
f 50/50/50 51/51/51 84/84/84
f 84/84/84 51/51/51 85/85/85
f 51/51/51 52/52/52 85/85/85
f 85/85/85 52/52/52 86/86/86
f 52/52/52 53/53/53 86/86/86
f 86/86/86 53/53/53 87/87/87
f 53/53/53 54/54/54 87/87/87
f 87/87/87 54/54/54 88/88/88
f 54/54/54 55/55/55 88/88/88
f 88/88/88 55/55/55 89/89/89
f 55/55/55 56/56/56 89/89/89
f 89/89/89 56/56/56 90/90/90
f 56/56/56 57/57/57 90/90/90
f 90/90/90 57/57/57 91/91/91
f 57/57/57 58/58/58 91/91/91
f 91/91/91 58/58/58 92/92/92
f 58/58/58 59/59/59 92/92/92
f 92/92/92 59/59/59 93/93/93
f 59/59/59 60/60/60 93/93/93
f 93/93/93 60/60/60 94/94/94
f 60/60/60 61/61/61 94/94/94
f 94/94/94 61/61/61 95/95/95
f 61/61/61 62/62/62 95/95/95
f 95/95/95 62/62/62 96/96/96
f 62/62/62 63/63/63 96/96/96
f 96/96/96 63/63/63 97/97/97
f 63/63/63 64/64/64 97/97/97
f 97/97/97 64/64/64 98/98/98
f 64/64/64 65/65/65 98/98/98
f 98/98/98 65/65/65 99/99/99
f 65/65/65 66/66/66 99/99/99
f 100/100/100 67/67/67 101/101/101
f 67/67/67 68/68/68 101/101/101
f 101/101/101 68/68/68 102/102/102
f 68/68/68 69/69/69 102/102/102
f 102/102/102 69/69/69 103/103/103
f 69/69/69 70/70/70 103/103/103
f 103/103/103 70/70/70 104/104/104
f 70/70/70 71/71/71 104/104/104
f 104/104/104 71/71/71 105/105/105
f 71/71/71 72/72/72 105/105/105
f 105/105/105 72/72/72 106/106/106
f 72/72/72 73/73/73 106/106/106
f 106/106/106 73/73/73 107/107/107
f 73/73/73 74/74/74 107/107/107
f 107/107/107 74/74/74 108/108/108
f 74/74/74 75/75/75 108/108/108
f 108/108/108 75/75/75 109/109/109
f 75/75/75 76/76/76 109/109/109
f 109/109/109 76/76/76 110/110/110
f 76/76/76 77/77/77 110/110/110
f 110/110/110 77/77/77 111/111/111
f 77/77/77 78/78/78 111/111/111
f 111/111/111 78/78/78 112/112/112
f 78/78/78 79/79/79 112/112/112
f 112/112/112 79/79/79 113/113/113
f 79/79/79 80/80/80 113/113/113
f 113/113/113 80/80/80 114/114/114
f 80/80/80 81/81/81 114/114/114
f 114/114/114 81/81/81 115/115/115
f 81/81/81 82/82/82 115/115/115
f 115/115/115 82/82/82 116/116/116
f 82/82/82 83/83/83 116/116/116
f 116/116/116 83/83/83 117/117/117
f 83/83/83 84/84/84 117/117/117
f 117/117/117 84/84/84 118/118/118
f 84/84/84 85/85/85 118/118/118
f 118/118/118 85/85/85 119/119/119
f 85/85/85 86/86/86 119/119/119
f 119/119/119 86/86/86 120/120/120
f 86/86/86 87/87/87 120/120/120
f 120/120/120 87/87/87 121/121/121
f 87/87/87 88/88/88 121/121/121
f 121/121/121 88/88/88 122/122/122
f 88/88/88 89/89/89 122/122/122
f 122/122/122 89/89/89 123/123/123
f 89/89/89 90/90/90 123/123/123
f 123/123/123 90/90/90 124/124/124
f 90/90/90 91/91/91 124/124/124
f 124/124/124 91/91/91 125/125/125
f 91/91/91 92/92/92 125/125/125
f 125/125/125 92/92/92 126/126/126
f 92/92/92 93/93/93 126/126/126
f 126/126/126 93/93/93 127/127/127
f 93/93/93 94/94/94 127/127/127
f 127/127/127 94/94/94 128/128/128
f 94/94/94 95/95/95 128/128/128
f 128/128/128 95/95/95 129/129/129
f 95/95/95 96/96/96 129/129/129
f 129/129/129 96/96/96 130/130/130
f 96/96/96 97/97/97 130/130/130
f 130/130/130 97/97/97 131/131/131
f 97/97/97 98/98/98 131/131/131
f 131/131/131 98/98/98 132/132/132
f 98/98/98 99/99/99 132/132/132
f 133/133/133 100/100/100 134/134/134
f 100/100/100 101/101/101 134/134/134
f 134/134/134 101/101/101 135/135/135
f 101/101/101 102/102/102 135/135/135
f 135/135/135 102/102/102 136/136/136
f 102/102/102 103/103/103 136/136/136
f 136/136/136 103/103/103 137/137/137
f 103/103/103 104/104/104 137/137/137
f 137/137/137 104/104/104 138/138/138
f 104/104/104 105/105/105 138/138/138
f 138/138/138 105/105/105 139/139/139
f 105/105/105 106/106/106 139/139/139
f 139/139/139 106/106/106 140/140/140
f 106/106/106 107/107/107 140/140/140
f 140/140/140 107/107/107 141/141/141
f 107/107/107 108/108/108 141/141/141
f 141/141/141 108/108/108 142/142/142
f 108/108/108 109/109/109 142/142/142
f 142/142/142 109/109/109 143/143/143
f 109/109/109 110/110/110 143/143/143
f 143/143/143 110/110/110 144/144/144
f 110/110/110 111/111/111 144/144/144
f 144/144/144 111/111/111 145/145/145
f 111/111/111 112/112/112 145/145/145
f 145/145/145 112/112/112 146/146/146
f 112/112/112 113/113/113 146/146/146
f 146/146/146 113/113/113 147/147/147
f 113/113/113 114/114/114 147/147/147
f 147/147/147 114/114/114 148/148/148
f 114/114/114 115/115/115 148/148/148
f 148/148/148 115/115/115 149/149/149
f 115/115/115 116/116/116 149/149/149
f 149/149/149 116/116/116 150/150/150
f 116/116/116 117/117/117 150/150/150
f 150/150/150 117/117/117 151/151/151
f 117/117/117 118/118/118 151/151/151
f 151/151/151 118/118/118 152/152/152
f 118/118/118 119/119/119 152/152/152
f 152/152/152 119/119/119 153/153/153
f 119/119/119 120/120/120 153/153/153
f 153/153/153 120/120/120 154/154/154
f 120/120/120 121/121/121 154/154/154
f 154/154/154 121/121/121 155/155/155
f 121/121/121 122/122/122 155/155/155
f 155/155/155 122/122/122 156/156/156
f 122/122/122 123/123/123 156/156/156
f 156/156/156 123/123/123 157/157/157
f 123/123/123 124/124/124 157/157/157
f 157/157/157 124/124/124 158/158/158
f 124/124/124 125/125/125 158/158/158
f 158/158/158 125/125/125 159/159/159
f 125/125/125 126/126/126 159/159/159
f 159/159/159 126/126/126 160/160/160
f 126/126/126 127/127/127 160/160/160
f 160/160/160 127/127/127 161/161/161
f 127/127/127 128/128/128 161/161/161
f 161/161/161 128/128/128 162/162/162
f 128/128/128 129/129/129 162/162/162
f 162/162/162 129/129/129 163/163/163
f 129/129/129 130/130/130 163/163/163
f 163/163/163 130/130/130 164/164/164
f 130/130/130 131/131/131 164/164/164
f 164/164/164 131/131/131 165/165/165
f 131/131/131 132/132/132 165/165/165
f 166/166/166 133/133/133 167/167/167
f 133/133/133 134/134/134 167/167/167
f 167/167/167 134/134/134 168/168/168
f 134/134/134 135/135/135 168/168/168
f 168/168/168 135/135/135 169/169/169
f 135/135/135 136/136/136 169/169/169
f 169/169/169 136/136/136 170/170/170
f 136/136/136 137/137/137 170/170/170
f 170/170/170 137/137/137 171/171/171
f 137/137/137 138/138/138 171/171/171
f 171/171/171 138/138/138 172/172/172
f 138/138/138 139/139/139 172/172/172
f 172/172/172 139/139/139 173/173/173
f 139/139/139 140/140/140 173/173/173
f 173/173/173 140/140/140 174/174/174
f 140/140/140 141/141/141 174/174/174
f 174/174/174 141/141/141 175/175/175
f 141/141/141 142/142/142 175/175/175
f 175/175/175 142/142/142 176/176/176
f 142/142/142 143/143/143 176/176/176
f 176/176/176 143/143/143 177/177/177
f 143/143/143 144/144/144 177/177/177
f 177/177/177 144/144/144 178/178/178
f 144/144/144 145/145/145 178/178/178
f 178/178/178 145/145/145 179/179/179
f 145/145/145 146/146/146 179/179/179
f 179/179/179 146/146/146 180/180/180
f 146/146/146 147/147/147 180/180/180
f 180/180/180 147/147/147 181/181/181
f 147/147/147 148/148/148 181/181/181
f 181/181/181 148/148/148 182/182/182
f 148/148/148 149/149/149 182/182/182
f 182/182/182 149/149/149 183/183/183
f 149/149/149 150/150/150 183/183/183
f 183/183/183 150/150/150 184/184/184
f 150/150/150 151/151/151 184/184/184
f 184/184/184 151/151/151 185/185/185
f 151/151/151 152/152/152 185/185/185
f 185/185/185 152/152/152 186/186/186
f 152/152/152 153/153/153 186/186/186
f 186/186/186 153/153/153 187/187/187
f 153/153/153 154/154/154 187/187/187
f 187/187/187 154/154/154 188/188/188
f 154/154/154 155/155/155 188/188/188
f 188/188/188 155/155/155 189/189/189
f 155/155/155 156/156/156 189/189/189
f 189/189/189 156/156/156 190/190/190
f 156/156/156 157/157/157 190/190/190
f 190/190/190 157/157/157 191/191/191
f 157/157/157 158/158/158 191/191/191
f 191/191/191 158/158/158 192/192/192
f 158/158/158 159/159/159 192/192/192
f 192/192/192 159/159/159 193/193/193
f 159/159/159 160/160/160 193/193/193
f 193/193/193 160/160/160 194/194/194
f 160/160/160 161/161/161 194/194/194
f 194/194/194 161/161/161 195/195/195
f 161/161/161 162/162/162 195/195/195
f 195/195/195 162/162/162 196/196/196
f 162/162/162 163/163/163 196/196/196
f 196/196/196 163/163/163 197/197/197
f 163/163/163 164/164/164 197/197/197
f 197/197/197 164/164/164 198/198/198
f 164/164/164 165/165/165 198/198/198
f 199/199/199 166/166/166 200/200/200
f 166/166/166 167/167/167 200/200/200
f 200/200/200 167/167/167 201/201/201
f 167/167/167 168/168/168 201/201/201
f 201/201/201 168/168/168 202/202/202
f 168/168/168 169/169/169 202/202/202
f 202/202/202 169/169/169 203/203/203
f 169/169/169 170/170/170 203/203/203
f 203/203/203 170/170/170 204/204/204
f 170/170/170 171/171/171 204/204/204
f 204/204/204 171/171/171 205/205/205
f 171/171/171 172/172/172 205/205/205
f 205/205/205 172/172/172 206/206/206
f 172/172/172 173/173/173 206/206/206
f 206/206/206 173/173/173 207/207/207
f 173/173/173 174/174/174 207/207/207
f 207/207/207 174/174/174 208/208/208
f 174/174/174 175/175/175 208/208/208
f 208/208/208 175/175/175 209/209/209
f 175/175/175 176/176/176 209/209/209
f 209/209/209 176/176/176 210/210/210
f 176/176/176 177/177/177 210/210/210
f 210/210/210 177/177/177 211/211/211
f 177/177/177 178/178/178 211/211/211
f 211/211/211 178/178/178 212/212/212
f 178/178/178 179/179/179 212/212/212
f 212/212/212 179/179/179 213/213/213
f 179/179/179 180/180/180 213/213/213
f 213/213/213 180/180/180 214/214/214
f 180/180/180 181/181/181 214/214/214
f 214/214/214 181/181/181 215/215/215
f 181/181/181 182/182/182 215/215/215
f 215/215/215 182/182/182 216/216/216
f 182/182/182 183/183/183 216/216/216
f 216/216/216 183/183/183 217/217/217
f 183/183/183 184/184/184 217/217/217
f 217/217/217 184/184/184 218/218/218
f 184/184/184 185/185/185 218/218/218
f 218/218/218 185/185/185 219/219/219
f 185/185/185 186/186/186 219/219/219
f 219/219/219 186/186/186 220/220/220
f 186/186/186 187/187/187 220/220/220
f 220/220/220 187/187/187 221/221/221
f 187/187/187 188/188/188 221/221/221
f 221/221/221 188/188/188 222/222/222
f 188/188/188 189/189/189 222/222/222
f 222/222/222 189/189/189 223/223/223
f 189/189/189 190/190/190 223/223/223
f 223/223/223 190/190/190 224/224/224
f 190/190/190 191/191/191 224/224/224
f 224/224/224 191/191/191 225/225/225
f 191/191/191 192/192/192 225/225/225
f 225/225/225 192/192/192 226/226/226
f 192/192/192 193/193/193 226/226/226
f 226/226/226 193/193/193 227/227/227
f 193/193/193 194/194/194 227/227/227
f 227/227/227 194/194/194 228/228/228
f 194/194/194 195/195/195 228/228/228
f 228/228/228 195/195/195 229/229/229
f 195/195/195 196/196/196 229/229/229
f 229/229/229 196/196/196 230/230/230
f 196/196/196 197/197/197 230/230/230
f 230/230/230 197/197/197 231/231/231
f 197/197/197 198/198/198 231/231/231
f 232/232/232 199/199/199 233/233/233
f 199/199/199 200/200/200 233/233/233
f 233/233/233 200/200/200 234/234/234
f 200/200/200 201/201/201 234/234/234
f 234/234/234 201/201/201 235/235/235
f 201/201/201 202/202/202 235/235/235
f 235/235/235 202/202/202 236/236/236
f 202/202/202 203/203/203 236/236/236
f 236/236/236 203/203/203 237/237/237
f 203/203/203 204/204/204 237/237/237
f 237/237/237 204/204/204 238/238/238
f 204/204/204 205/205/205 238/238/238
f 238/238/238 205/205/205 239/239/239
f 205/205/205 206/206/206 239/239/239
f 239/239/239 206/206/206 240/240/240
f 206/206/206 207/207/207 240/240/240
f 240/240/240 207/207/207 241/241/241
f 207/207/207 208/208/208 241/241/241
f 241/241/241 208/208/208 242/242/242
f 208/208/208 209/209/209 242/242/242
f 242/242/242 209/209/209 243/243/243
f 209/209/209 210/210/210 243/243/243
f 243/243/243 210/210/210 244/244/244
f 210/210/210 211/211/211 244/244/244
f 244/244/244 211/211/211 245/245/245
f 211/211/211 212/212/212 245/245/245
f 245/245/245 212/212/212 246/246/246
f 212/212/212 213/213/213 246/246/246
f 246/246/246 213/213/213 247/247/247
f 213/213/213 214/214/214 247/247/247
f 247/247/247 214/214/214 248/248/248
f 214/214/214 215/215/215 248/248/248
f 248/248/248 215/215/215 249/249/249
f 215/215/215 216/216/216 249/249/249
f 249/249/249 216/216/216 250/250/250
f 216/216/216 217/217/217 250/250/250
f 250/250/250 217/217/217 251/251/251
f 217/217/217 218/218/218 251/251/251
f 251/251/251 218/218/218 252/252/252
f 218/218/218 219/219/219 252/252/252
f 252/252/252 219/219/219 253/253/253
f 219/219/219 220/220/220 253/253/253
f 253/253/253 220/220/220 254/254/254
f 220/220/220 221/221/221 254/254/254
f 254/254/254 221/221/221 255/255/255
f 221/221/221 222/222/222 255/255/255
f 255/255/255 222/222/222 256/256/256
f 222/222/222 223/223/223 256/256/256
f 256/256/256 223/223/223 257/257/257
f 223/223/223 224/224/224 257/257/257
f 257/257/257 224/224/224 258/258/258
f 224/224/224 225/225/225 258/258/258
f 258/258/258 225/225/225 259/259/259
f 225/225/225 226/226/226 259/259/259
f 259/259/259 226/226/226 260/260/260
f 226/226/226 227/227/227 260/260/260
f 260/260/260 227/227/227 261/261/261
f 227/227/227 228/228/228 261/261/261
f 261/261/261 228/228/228 262/262/262
f 228/228/228 229/229/229 262/262/262
f 262/262/262 229/229/229 263/263/263
f 229/229/229 230/230/230 263/263/263
f 263/263/263 230/230/230 264/264/264
f 230/230/230 231/231/231 264/264/264
f 265/265/265 232/232/232 266/266/266
f 232/232/232 233/233/233 266/266/266
f 266/266/266 233/233/233 267/267/267
f 233/233/233 234/234/234 267/267/267
f 267/267/267 234/234/234 268/268/268
f 234/234/234 235/235/235 268/268/268
f 268/268/268 235/235/235 269/269/269
f 235/235/235 236/236/236 269/269/269
f 269/269/269 236/236/236 270/270/270
f 236/236/236 237/237/237 270/270/270
f 270/270/270 237/237/237 271/271/271
f 237/237/237 238/238/238 271/271/271
f 271/271/271 238/238/238 272/272/272
f 238/238/238 239/239/239 272/272/272
f 272/272/272 239/239/239 273/273/273
f 239/239/239 240/240/240 273/273/273
f 273/273/273 240/240/240 274/274/274
f 240/240/240 241/241/241 274/274/274
f 274/274/274 241/241/241 275/275/275
f 241/241/241 242/242/242 275/275/275
f 275/275/275 242/242/242 276/276/276
f 242/242/242 243/243/243 276/276/276
f 276/276/276 243/243/243 277/277/277
f 243/243/243 244/244/244 277/277/277
f 277/277/277 244/244/244 278/278/278
f 244/244/244 245/245/245 278/278/278
f 278/278/278 245/245/245 279/279/279
f 245/245/245 246/246/246 279/279/279
f 279/279/279 246/246/246 280/280/280
f 246/246/246 247/247/247 280/280/280
f 280/280/280 247/247/247 281/281/281
f 247/247/247 248/248/248 281/281/281
f 281/281/281 248/248/248 282/282/282
f 248/248/248 249/249/249 282/282/282
f 282/282/282 249/249/249 283/283/283
f 249/249/249 250/250/250 283/283/283
f 283/283/283 250/250/250 284/284/284
f 250/250/250 251/251/251 284/284/284
f 284/284/284 251/251/251 285/285/285
f 251/251/251 252/252/252 285/285/285
f 285/285/285 252/252/252 286/286/286
f 252/252/252 253/253/253 286/286/286
f 286/286/286 253/253/253 287/287/287
f 253/253/253 254/254/254 287/287/287
f 287/287/287 254/254/254 288/288/288
f 254/254/254 255/255/255 288/288/288
f 288/288/288 255/255/255 289/289/289
f 255/255/255 256/256/256 289/289/289
f 289/289/289 256/256/256 290/290/290
f 256/256/256 257/257/257 290/290/290
f 290/290/290 257/257/257 291/291/291
f 257/257/257 258/258/258 291/291/291
f 291/291/291 258/258/258 292/292/292
f 258/258/258 259/259/259 292/292/292
f 292/292/292 259/259/259 293/293/293
f 259/259/259 260/260/260 293/293/293
f 293/293/293 260/260/260 294/294/294
f 260/260/260 261/261/261 294/294/294
f 294/294/294 261/261/261 295/295/295
f 261/261/261 262/262/262 295/295/295
f 295/295/295 262/262/262 296/296/296
f 262/262/262 263/263/263 296/296/296
f 296/296/296 263/263/263 297/297/297
f 263/263/263 264/264/264 297/297/297
f 298/298/298 265/265/265 299/299/299
f 265/265/265 266/266/266 299/299/299
f 299/299/299 266/266/266 300/300/300
f 266/266/266 267/267/267 300/300/300
f 300/300/300 267/267/267 301/301/301
f 267/267/267 268/268/268 301/301/301
f 301/301/301 268/268/268 302/302/302
f 268/268/268 269/269/269 302/302/302
f 302/302/302 269/269/269 303/303/303
f 269/269/269 270/270/270 303/303/303
f 303/303/303 270/270/270 304/304/304
f 270/270/270 271/271/271 304/304/304
f 304/304/304 271/271/271 305/305/305
f 271/271/271 272/272/272 305/305/305
f 305/305/305 272/272/272 306/306/306
f 272/272/272 273/273/273 306/306/306
f 306/306/306 273/273/273 307/307/307
f 273/273/273 274/274/274 307/307/307
f 307/307/307 274/274/274 308/308/308
f 274/274/274 275/275/275 308/308/308
f 308/308/308 275/275/275 309/309/309
f 275/275/275 276/276/276 309/309/309
f 309/309/309 276/276/276 310/310/310
f 276/276/276 277/277/277 310/310/310
f 310/310/310 277/277/277 311/311/311
f 277/277/277 278/278/278 311/311/311
f 311/311/311 278/278/278 312/312/312
f 278/278/278 279/279/279 312/312/312
f 312/312/312 279/279/279 313/313/313
f 279/279/279 280/280/280 313/313/313
f 313/313/313 280/280/280 314/314/314
f 280/280/280 281/281/281 314/314/314
f 314/314/314 281/281/281 315/315/315
f 281/281/281 282/282/282 315/315/315
f 315/315/315 282/282/282 316/316/316
f 282/282/282 283/283/283 316/316/316
f 316/316/316 283/283/283 317/317/317
f 283/283/283 284/284/284 317/317/317
f 317/317/317 284/284/284 318/318/318
f 284/284/284 285/285/285 318/318/318
f 318/318/318 285/285/285 319/319/319
f 285/285/285 286/286/286 319/319/319
f 319/319/319 286/286/286 320/320/320
f 286/286/286 287/287/287 320/320/320
f 320/320/320 287/287/287 321/321/321
f 287/287/287 288/288/288 321/321/321
f 321/321/321 288/288/288 322/322/322
f 288/288/288 289/289/289 322/322/322
f 322/322/322 289/289/289 323/323/323
f 289/289/289 290/290/290 323/323/323
f 323/323/323 290/290/290 324/324/324
f 290/290/290 291/291/291 324/324/324
f 324/324/324 291/291/291 325/325/325
f 291/291/291 292/292/292 325/325/325
f 325/325/325 292/292/292 326/326/326
f 292/292/292 293/293/293 326/326/326
f 326/326/326 293/293/293 327/327/327
f 293/293/293 294/294/294 327/327/327
f 327/327/327 294/294/294 328/328/328
f 294/294/294 295/295/295 328/328/328
f 328/328/328 295/295/295 329/329/329
f 295/295/295 296/296/296 329/329/329
f 329/329/329 296/296/296 330/330/330
f 296/296/296 297/297/297 330/330/330
f 331/331/331 298/298/298 332/332/332
f 298/298/298 299/299/299 332/332/332
f 332/332/332 299/299/299 333/333/333
f 299/299/299 300/300/300 333/333/333
f 333/333/333 300/300/300 334/334/334
f 300/300/300 301/301/301 334/334/334
f 334/334/334 301/301/301 335/335/335
f 301/301/301 302/302/302 335/335/335
f 335/335/335 302/302/302 336/336/336
f 302/302/302 303/303/303 336/336/336
f 336/336/336 303/303/303 337/337/337
f 303/303/303 304/304/304 337/337/337
f 337/337/337 304/304/304 338/338/338
f 304/304/304 305/305/305 338/338/338
f 338/338/338 305/305/305 339/339/339
f 305/305/305 306/306/306 339/339/339
f 339/339/339 306/306/306 340/340/340
f 306/306/306 307/307/307 340/340/340
f 340/340/340 307/307/307 341/341/341
f 307/307/307 308/308/308 341/341/341
f 341/341/341 308/308/308 342/342/342
f 308/308/308 309/309/309 342/342/342
f 342/342/342 309/309/309 343/343/343
f 309/309/309 310/310/310 343/343/343
f 343/343/343 310/310/310 344/344/344
f 310/310/310 311/311/311 344/344/344
f 344/344/344 311/311/311 345/345/345
f 311/311/311 312/312/312 345/345/345
f 345/345/345 312/312/312 346/346/346
f 312/312/312 313/313/313 346/346/346
f 346/346/346 313/313/313 347/347/347
f 313/313/313 314/314/314 347/347/347
f 347/347/347 314/314/314 348/348/348
f 314/314/314 315/315/315 348/348/348
f 348/348/348 315/315/315 349/349/349
f 315/315/315 316/316/316 349/349/349
f 349/349/349 316/316/316 350/350/350
f 316/316/316 317/317/317 350/350/350
f 350/350/350 317/317/317 351/351/351
f 317/317/317 318/318/318 351/351/351
f 351/351/351 318/318/318 352/352/352
f 318/318/318 319/319/319 352/352/352
f 352/352/352 319/319/319 353/353/353
f 319/319/319 320/320/320 353/353/353
f 353/353/353 320/320/320 354/354/354
f 320/320/320 321/321/321 354/354/354
f 354/354/354 321/321/321 355/355/355
f 321/321/321 322/322/322 355/355/355
f 355/355/355 322/322/322 356/356/356
f 322/322/322 323/323/323 356/356/356
f 356/356/356 323/323/323 357/357/357
f 323/323/323 324/324/324 357/357/357
f 357/357/357 324/324/324 358/358/358
f 324/324/324 325/325/325 358/358/358
f 358/358/358 325/325/325 359/359/359
f 325/325/325 326/326/326 359/359/359
f 359/359/359 326/326/326 360/360/360
f 326/326/326 327/327/327 360/360/360
f 360/360/360 327/327/327 361/361/361
f 327/327/327 328/328/328 361/361/361
f 361/361/361 328/328/328 362/362/362
f 328/328/328 329/329/329 362/362/362
f 362/362/362 329/329/329 363/363/363
f 329/329/329 330/330/330 363/363/363
