o shape_094
v 1 0 0
v 0.9971453547477722 0.08720417320728302 0
v 0.9885932803153992 0.17403492331504822 0
v 0.9743804335594177 0.2601204514503479 0
v 0.9545678496360779 0.3450920879840851 0
v 0.9292402267456055 0.4285859763622284 0
v 0.8985061645507812 0.510244607925415 0
v 0.8624970316886902 0.5897182822227478 0
v 0.8213672637939453 0.6666666865348816 0
v 0.7752928137779236 0.7407603859901428 0
v 0.7244710922241211 0.8116819262504578 0
v 0.6691197752952576 0.8791278004646301 0
v 0.6094757914543152 0.9428090453147888 0
v 0.5457944869995117 1.002453088760376 0
v 0.47834861278533936 1.0578044652938843 0
v 0.407427042722702 1.108626127243042 0
v 0.3333333432674408 1.154700517654419 0
v 0.256384938955307 1.1958303451538086 0
v 0.17691127955913544 1.2318395376205444 0
v 0.0952526405453682 1.262573480606079 0
v 0.01175875123590231 1.2879011631011963 0
v -0.0732128918170929 1.3077137470245361 0
v -0.15929840505123138 1.3219265937805176 0
v -0.24612915515899658 1.3304786682128906 0
v -0.3333333432674408 1.3333333730697632 0
v -0.420537531375885 1.3304786682128906 0
v -0.507368266582489 1.3219265937805176 0
v -0.5934537649154663 1.3077137470245361 0
v -0.6784254312515259 1.2879011631011963 0
v -0.7619192600250244 1.262573480606079 0
v -0.8435779213905334 1.2318395376205444 0
v -0.9230515956878662 1.1958303451538086 0
v -1 1.154700517654419 0
v 0.9611561298370361 0 0.11954955011606216
v 0.9583845138549805 0.08466365188360214 0.11954955011606216
v 0.9500815272331238 0.16896475851535797 0.11954955011606216
v 0.9362828731536865 0.2525423467159271 0.11954955011606216
v 0.9170475006103516 0.3350384831428528 0.11954955011606216
v 0.8924577832221985 0.4160999655723572 0.11954955011606216
v 0.8626189231872559 0.49537965655326843 0.11954955011606216
v 0.8276589512825012 0.5725380182266235 0.11954955011606216
v 0.7877273559570312 0.6472446918487549 0.11954955011606216
v 0.7429953217506409 0.7191797494888306 0.11954955011606216
v 0.6936541199684143 0.7880352139472961 0.11954955011606216
v 0.6399153470993042 0.853516161441803 0.11954955011606216
v 0.5820088982582092 0.9153422117233276 0.11954955011606216
v 0.5201828479766846 0.9732486605644226 0.11954955011606216
v 0.45470187067985535 1.0269874334335327 0.11954955011606216
v 0.38584643602371216 1.0763286352157593 0.11954955011606216
v 0.3139113783836365 1.1210607290267944 0.11954955011606216
v 0.23920466005802155 1.1609922647476196 0.11954955011606216
v 0.16204631328582764 1.1959521770477295 0.11954955011606216
v 0.08276664465665817 1.225791096687317 0.11954955011606216
v 0.001705164322629571 1.2503807544708252 0.11954955011606216
v -0.08079098165035248 1.2696161270141602 0.11954955011606216
v -0.16436856985092163 1.2834148406982422 0.11954955011606216
v -0.24866968393325806 1.2917178869247437 0.11954955011606216
v -0.3333333432674408 1.2944893836975098 0.11954955011606216
v -0.41799697279930115 1.2917178869247437 0.11954955011606216
v -0.50229811668396 1.2834148406982422 0.11954955011606216
v -0.5858756899833679 1.2696161270141602 0.11954955011606216
v -0.668371856212616 1.2503807544708252 0.11954955011606216
v -0.7494332790374756 1.225791096687317 0.11954955011606216
v -0.8287129998207092 1.1959521770477295 0.11954955011606216
v -0.9058712720870972 1.1609922647476196 0.11954955011606216
v -0.9805780649185181 1.1210607290267944 0.11954955011606216
v 0.8594611883163452 0 0.19343523681163788
v 0.8569072484970093 0.07801248878240585 0.19343523681163788
v 0.849256694316864 0.15569092333316803 0.19343523681163788
v 0.836542010307312 0.23270265758037567 0.19343523681163788
v 0.818817675113678 0.3087179362773895 0.19343523681163788
v 0.7961596846580505 0.3834111988544464 0.19343523681163788
v 0.7686650156974792 0.45646268129348755 0.19343523681163788
v 0.7364514470100403 0.5275594592094421 0.19343523681163788
v 0.6996570229530334 0.5963972210884094 0.19343523681163788
v 0.6584389805793762 0.6626811027526855 0.19343523681163788
v 0.6129741668701172 0.7261272668838501 0.19343523681163788
v 0.5634570717811584 0.7864640355110168 0.19343523681163788
v 0.5100997090339661 0.8434330224990845 0.19343523681163788
v 0.45313072204589844 0.8967903852462769 0.19343523681163788
v 0.3927939236164093 0.9463074803352356 0.19343523681163788
v 0.32934775948524475 0.9917723536491394 0.19343523681163788
v 0.263063907623291 1.0329903364181519 0.19343523681163788
v 0.19422616064548492 1.0697847604751587 0.19343523681163788
v 0.12312936037778854 1.1019984483718872 0.19343523681163788
v 0.05007787048816681 1.129492998123169 0.19343523681163788
v -0.02461540699005127 1.1521509885787964 0.19343523681163788
v -0.10063067823648453 1.1698752641677856 0.19343523681163788
v -0.17764240503311157 1.1825900077819824 0.19343523681163788
v -0.25532084703445435 1.190240502357483 0.19343523681163788
v -0.3333333432674408 1.1927944421768188 0.19343523681163788
v -0.41134580969810486 1.190240502357483 0.19343523681163788
v -0.48902428150177 1.1825900077819824 0.19343523681163788
v -0.5660359859466553 1.1698752641677856 0.19343523681163788
v -0.6420512795448303 1.1521509885787964 0.19343523681163788
v -0.7167445421218872 1.129492998123169 0.19343523681163788
v -0.7897960543632507 1.1019984483718872 0.19343523681163788
v -0.8608928322792053 1.0697847604751587 0.19343523681163788
v -0.9297305345535278 1.0329903364181519 0.19343523681163788
v 0.733759343624115 0 0.19343523681163788
v 0.7314745783805847 0.06979119777679443 0.19343523681163788
v 0.7246301770210266 0.13928353786468506 0.19343523681163788
v 0.7132554650306702 0.20817944407463074 0.19343523681163788
v 0.6973990201950073 0.2761839032173157 0.19343523681163788
v 0.6771288514137268 0.3430056869983673 0.19343523681163788
v 0.6525317430496216 0.40835869312286377 0.19343523681163788
v 0.6237130165100098 0.47196298837661743 0.19343523681163788
v 0.5907959938049316 0.5335463285446167 0.19343523681163788
v 0.5539217591285706 0.5928449034690857 0.19343523681163788
v 0.5132482051849365 0.649604856967926 0.19343523681163788
v 0.46894940733909607 0.7035830616950989 0.19343523681163788
v 0.42121508717536926 0.7545484304428101 0.19343523681163788
v 0.37024974822998047 0.8022827506065369 0.19343523681163788
v 0.31627151370048523 0.8465815186500549 0.19343523681163788
v 0.2595115900039673 0.8872551321983337 0.19343523681163788
v 0.2002129852771759 0.92412930727005 0.19343523681163788
v 0.13862967491149902 0.9570462703704834 0.19343523681163788
v 0.07502534985542297 0.98586505651474 0.19343523681163788
v 0.00967235304415226 1.0104621648788452 0.19343523681163788
v -0.05714944005012512 1.030732274055481 0.19343523681163788
v -0.12515388429164886 1.0465887784957886 0.19343523681163788
v -0.19404980540275574 1.057963490486145 0.19343523681163788
v -0.26354214549064636 1.0648078918457031 0.19343523681163788
v -0.3333333432674408 1.0670926570892334 0.19343523681163788
v -0.40312454104423523 1.0648078918457031 0.19343523681163788
v -0.47261688113212585 1.057963490486145 0.19343523681163788
v -0.5415127873420715 1.0465887784957886 0.19343523681163788
v -0.6095172762870789 1.030732274055481 0.19343523681163788
v -0.6763389706611633 1.0104621648788452 0.19343523681163788
v -0.7416920065879822 0.98586505651474 0.19343523681163788
v -0.8052963614463806 0.9570462703704834 0.19343523681163788
v -0.8668796420097351 0.92412930727005 0.19343523681163788
v 0.6320644021034241 0 0.11954955011606216
v 0.6299974322319031 0.06314003467559814 0.11954955011606216
v 0.6238052845001221 0.12600968778133392 0.11954955011606216
v 0.6135144829750061 0.18833975493907928 0.11954955011606216
v 0.5991691946983337 0.24986332654953003 0.11954955011606216
v 0.5808308124542236 0.31031692028045654 0.11954955011606216
v 0.5585778951644897 0.3694417178630829 0.11954955011606216
v 0.5325055718421936 0.4269844889640808 0.11954955011606216
v 0.5027256608009338 0.48269882798194885 0.11954955011606216
v 0.46936553716659546 0.5363461971282959 0.11954955011606216
v 0.43256819248199463 0.58769690990448 0.11954955011606216
v 0.39249110221862793 0.6365309357643127 0.11954955011606216
v 0.3493059575557709 0.6826393008232117 0.11954955011606216
v 0.30319762229919434 0.7258244752883911 0.11954955011606216
v 0.2543635666370392 0.765901505947113 0.11954955011606216
v 0.2030128836631775 0.8026989102363586 0.11954955011606216
v 0.14936551451683044 0.8360589742660522 0.11954955011606216
v 0.09365116059780121 0.8658389449119568 0.11954955011606216
v 0.03610839322209358 0.8919112086296082 0.11954955011606216
v -0.023016419261693954 0.914164125919342 0.11954955011606216
v -0.08347000926733017 0.9325025677680969 0.11954955011606216
v -0.14499357342720032 0.9468478560447693 0.11954955011606216
v -0.20732365548610687 0.9571386575698853 0.11954955011606216
v -0.27019330859184265 0.9633306860923767 0.11954955011606216
v -0.3333333432674408 0.9653976559638977 0.11954955011606216
v -0.39647337794303894 0.9633306860923767 0.11954955011606216
v -0.4593430161476135 0.9571386575698853 0.11954955011606216
v -0.5216730833053589 0.9468478560447693 0.11954955011606216
v -0.5831966400146484 0.9325025677680969 0.11954955011606216
v -0.643650233745575 0.914164125919342 0.11954955011606216
v -0.7027750015258789 0.8919112086296082 0.11954955011606216
v -0.7603178024291992 0.8658389449119568 0.11954955011606216
v -0.8160322308540344 0.8360589742660522 0.11954955011606216
v 0.5932203531265259 0 2.4908070877002895e-17
v 0.5912365913391113 0.06059950962662697 2.4908070877002895e-17
v 0.5852935314178467 0.12093953043222427 2.4908070877002895e-17
v 0.5754169225692749 0.1807616651058197 2.4908070877002895e-17
v 0.5616488456726074 0.23980975151062012 2.4908070877002895e-17
v 0.5440483093261719 0.2978309094905853 2.4908070877002895e-17
v 0.5226907134056091 0.3545767664909363 2.4908070877002895e-17
v 0.49766746163368225 0.40980425477027893 2.4908070877002895e-17
v 0.4690857231616974 0.46327686309814453 2.4908070877002895e-17
v 0.4370679259300232 0.5147656798362732 2.4908070877002895e-17
v 0.4017511308193207 0.5640501379966736 2.4908070877002895e-17
v 0.3632866442203522 0.6109192967414856 2.4908070877002895e-17
v 0.3218390643596649 0.6551724076271057 2.4908070877002895e-17
v 0.2775859534740448 0.696619987487793 2.4908070877002895e-17
v 0.23071682453155518 0.7350844740867615 2.4908070877002895e-17
v 0.1814323365688324 0.7704012393951416 2.4908070877002895e-17
v 0.12994351983070374 0.8024190664291382 2.4908070877002895e-17
v 0.07647091150283813 0.831000804901123 2.4908070877002895e-17
v 0.02124343253672123 0.8560240268707275 2.4908070877002895e-17
v -0.035502415150403976 0.8773816227912903 2.4908070877002895e-17
v -0.09352358430624008 0.8949821591377258 2.4908070877002895e-17
v -0.1525716632604599 0.9087502360343933 2.4908070877002895e-17
v -0.21239380538463593 0.9186269044876099 2.4908070877002895e-17
v -0.2727338373661041 0.9245699048042297 2.4908070877002895e-17
v -0.3333333432674408 0.9265537261962891 2.4908070877002895e-17
v -0.39393284916877747 0.9245699048042297 2.4908070877002895e-17
v -0.4542728662490845 0.9186269044876099 2.4908070877002895e-17
v -0.5140950083732605 0.9087502360343933 2.4908070877002895e-17
v -0.5731430649757385 0.8949821591377258 2.4908070877002895e-17
v -0.6311642527580261 0.8773816227912903 2.4908070877002895e-17
v -0.6879100799560547 0.8560240268707275 2.4908070877002895e-17
v -0.743137538433075 0.831000804901123 2.4908070877002895e-17
v -0.7966101765632629 0.8024190664291382 2.4908070877002895e-17
v 0.6320644021034241 0 -0.11954955011606216
v 0.6299974322319031 0.06314003467559814 -0.11954955011606216
v 0.6238052845001221 0.12600968778133392 -0.11954955011606216
v 0.6135144829750061 0.18833975493907928 -0.11954955011606216
v 0.5991691946983337 0.24986332654953003 -0.11954955011606216
v 0.5808308124542236 0.31031692028045654 -0.11954955011606216
v 0.5585778951644897 0.3694417178630829 -0.11954955011606216
v 0.5325055718421936 0.4269844889640808 -0.11954955011606216
v 0.5027256608009338 0.48269882798194885 -0.11954955011606216
v 0.46936553716659546 0.5363461971282959 -0.11954955011606216
v 0.43256819248199463 0.58769690990448 -0.11954955011606216
v 0.39249110221862793 0.6365309357643127 -0.11954955011606216
v 0.3493059575557709 0.6826393008232117 -0.11954955011606216
v 0.30319762229919434 0.7258244752883911 -0.11954955011606216
v 0.2543635666370392 0.765901505947113 -0.11954955011606216
v 0.2030128836631775 0.8026989102363586 -0.11954955011606216
v 0.14936551451683044 0.8360589742660522 -0.11954955011606216
v 0.09365116059780121 0.8658389449119568 -0.11954955011606216
v 0.03610839322209358 0.8919112086296082 -0.11954955011606216
v -0.023016419261693954 0.914164125919342 -0.11954955011606216
v -0.08347000926733017 0.9325025677680969 -0.11954955011606216
v -0.14499357342720032 0.9468478560447693 -0.11954955011606216
v -0.20732365548610687 0.9571386575698853 -0.11954955011606216
v -0.27019330859184265 0.9633306860923767 -0.11954955011606216
v -0.3333333432674408 0.9653976559638977 -0.11954955011606216
v -0.39647337794303894 0.9633306860923767 -0.11954955011606216
v -0.4593430161476135 0.9571386575698853 -0.11954955011606216
v -0.5216730833053589 0.9468478560447693 -0.11954955011606216
v -0.5831966400146484 0.9325025677680969 -0.11954955011606216
v -0.643650233745575 0.914164125919342 -0.11954955011606216
v -0.7027750015258789 0.8919112086296082 -0.11954955011606216
v -0.7603178024291992 0.8658389449119568 -0.11954955011606216
v -0.8160322308540344 0.8360589742660522 -0.11954955011606216
v 0.733759343624115 0 -0.19343523681163788
v 0.7314745783805847 0.06979119777679443 -0.19343523681163788
v 0.7246301770210266 0.13928353786468506 -0.19343523681163788
v 0.7132554650306702 0.20817944407463074 -0.19343523681163788
v 0.6973990201950073 0.2761839032173157 -0.19343523681163788
v 0.6771288514137268 0.3430056869983673 -0.19343523681163788
v 0.6525317430496216 0.40835869312286377 -0.19343523681163788
v 0.6237130165100098 0.47196298837661743 -0.19343523681163788
v 0.5907959938049316 0.5335463285446167 -0.19343523681163788
v 0.5539217591285706 0.5928449034690857 -0.19343523681163788
v 0.5132482051849365 0.649604856967926 -0.19343523681163788
v 0.46894940733909607 0.7035830616950989 -0.19343523681163788
v 0.42121508717536926 0.7545484304428101 -0.19343523681163788
v 0.37024974822998047 0.8022827506065369 -0.19343523681163788
v 0.31627151370048523 0.8465815186500549 -0.19343523681163788
v 0.2595115900039673 0.8872551321983337 -0.19343523681163788
v 0.2002129852771759 0.92412930727005 -0.19343523681163788
v 0.13862967491149902 0.9570462703704834 -0.19343523681163788
v 0.07502534985542297 0.98586505651474 -0.19343523681163788
v 0.00967235304415226 1.0104621648788452 -0.19343523681163788
v -0.05714944005012512 1.030732274055481 -0.19343523681163788
v -0.12515388429164886 1.0465887784957886 -0.19343523681163788
v -0.19404980540275574 1.057963490486145 -0.19343523681163788
v -0.26354214549064636 1.0648078918457031 -0.19343523681163788
v -0.3333333432674408 1.0670926570892334 -0.19343523681163788
v -0.40312454104423523 1.0648078918457031 -0.19343523681163788
v -0.47261688113212585 1.057963490486145 -0.19343523681163788
v -0.5415127873420715 1.0465887784957886 -0.19343523681163788
v -0.6095172762870789 1.030732274055481 -0.19343523681163788
v -0.6763389706611633 1.0104621648788452 -0.19343523681163788
v -0.7416920065879822 0.98586505651474 -0.19343523681163788
v -0.8052963614463806 0.9570462703704834 -0.19343523681163788
v -0.8668796420097351 0.92412930727005 -0.19343523681163788
v 0.8594611883163452 0 -0.19343523681163788
v 0.8569072484970093 0.07801248878240585 -0.19343523681163788
v 0.849256694316864 0.15569092333316803 -0.19343523681163788
v 0.836542010307312 0.23270265758037567 -0.19343523681163788
v 0.818817675113678 0.3087179362773895 -0.19343523681163788
v 0.7961596846580505 0.3834111988544464 -0.19343523681163788
v 0.7686650156974792 0.45646268129348755 -0.19343523681163788
v 0.7364514470100403 0.5275594592094421 -0.19343523681163788
v 0.6996570229530334 0.5963972210884094 -0.19343523681163788
v 0.6584389805793762 0.6626811027526855 -0.19343523681163788
v 0.6129741668701172 0.7261272668838501 -0.19343523681163788
v 0.5634570717811584 0.7864640355110168 -0.19343523681163788
v 0.5100997090339661 0.8434330224990845 -0.19343523681163788
v 0.45313072204589844 0.8967903852462769 -0.19343523681163788
v 0.3927939236164093 0.9463074803352356 -0.19343523681163788
v 0.32934775948524475 0.9917723536491394 -0.19343523681163788
v 0.263063907623291 1.0329903364181519 -0.19343523681163788
v 0.19422616064548492 1.0697847604751587 -0.19343523681163788
v 0.12312936037778854 1.1019984483718872 -0.19343523681163788
v 0.05007787048816681 1.129492998123169 -0.19343523681163788
v -0.02461540699005127 1.1521509885787964 -0.19343523681163788
v -0.10063067823648453 1.1698752641677856 -0.19343523681163788
v -0.17764240503311157 1.1825900077819824 -0.19343523681163788
v -0.25532084703445435 1.190240502357483 -0.19343523681163788
v -0.3333333432674408 1.1927944421768188 -0.19343523681163788
v -0.41134580969810486 1.190240502357483 -0.19343523681163788
v -0.48902428150177 1.1825900077819824 -0.19343523681163788
v -0.5660359859466553 1.1698752641677856 -0.19343523681163788
v -0.6420512795448303 1.1521509885787964 -0.19343523681163788
v -0.7167445421218872 1.129492998123169 -0.19343523681163788
v -0.7897960543632507 1.1019984483718872 -0.19343523681163788
v -0.8608928322792053 1.0697847604751587 -0.19343523681163788
v -0.9297305345535278 1.0329903364181519 -0.19343523681163788
v 0.9611561298370361 0 -0.11954955011606216
v 0.9583845138549805 0.08466365188360214 -0.11954955011606216
v 0.9500815272331238 0.16896475851535797 -0.11954955011606216
v 0.9362828731536865 0.2525423467159271 -0.11954955011606216
v 0.9170475006103516 0.3350384831428528 -0.11954955011606216
v 0.8924577832221985 0.4160999655723572 -0.11954955011606216
v 0.8626189231872559 0.49537965655326843 -0.11954955011606216
v 0.8276589512825012 0.5725380182266235 -0.11954955011606216
v 0.7877273559570312 0.6472446918487549 -0.11954955011606216
v 0.7429953217506409 0.7191797494888306 -0.11954955011606216
v 0.6936541199684143 0.7880352139472961 -0.11954955011606216
v 0.6399153470993042 0.853516161441803 -0.11954955011606216
v 0.5820088982582092 0.9153422117233276 -0.11954955011606216
v 0.5201828479766846 0.9732486605644226 -0.11954955011606216
v 0.45470187067985535 1.0269874334335327 -0.11954955011606216
v 0.38584643602371216 1.0763286352157593 -0.11954955011606216
v 0.3139113783836365 1.1210607290267944 -0.11954955011606216
v 0.23920466005802155 1.1609922647476196 -0.11954955011606216
v 0.16204631328582764 1.1959521770477295 -0.11954955011606216
v 0.08276664465665817 1.225791096687317 -0.11954955011606216
v 0.001705164322629571 1.2503807544708252 -0.11954955011606216
v -0.08079098165035248 1.2696161270141602 -0.11954955011606216
v -0.16436856985092163 1.2834148406982422 -0.11954955011606216
v -0.24866968393325806 1.2917178869247437 -0.11954955011606216
v -0.3333333432674408 1.2944893836975098 -0.11954955011606216
v -0.41799697279930115 1.2917178869247437 -0.11954955011606216
v -0.50229811668396 1.2834148406982422 -0.11954955011606216
v -0.5858756899833679 1.2696161270141602 -0.11954955011606216
v -0.668371856212616 1.2503807544708252 -0.11954955011606216
v -0.7494332790374756 1.225791096687317 -0.11954955011606216
v -0.8287129998207092 1.1959521770477295 -0.11954955011606216
v -0.9058712720870972 1.1609922647476196 -0.11954955011606216
v -0.9805780649185181 1.1210607290267944 -0.11954955011606216
v 1 0 -4.981614175400579e-17
v 0.9971453547477722 0.08720417320728302 -4.981614175400579e-17
v 0.9885932803153992 0.17403492331504822 -4.981614175400579e-17
v 0.9743804335594177 0.2601204514503479 -4.981614175400579e-17
v 0.9545678496360779 0.3450920879840851 -4.981614175400579e-17
v 0.9292402267456055 0.4285859763622284 -4.981614175400579e-17
v 0.8985061645507812 0.510244607925415 -4.981614175400579e-17
v 0.8624970316886902 0.5897182822227478 -4.981614175400579e-17
v 0.8213672637939453 0.6666666865348816 -4.981614175400579e-17
v 0.7752928137779236 0.7407603859901428 -4.981614175400579e-17
v 0.7244710922241211 0.8116819262504578 -4.981614175400579e-17
v 0.6691197752952576 0.8791278004646301 -4.981614175400579e-17
v 0.6094757914543152 0.9428090453147888 -4.981614175400579e-17
v 0.5457944869995117 1.002453088760376 -4.981614175400579e-17
v 0.47834861278533936 1.0578044652938843 -4.981614175400579e-17
v 0.407427042722702 1.108626127243042 -4.981614175400579e-17
v 0.3333333432674408 1.154700517654419 -4.981614175400579e-17
v 0.256384938955307 1.1958303451538086 -4.981614175400579e-17
v 0.17691127955913544 1.2318395376205444 -4.981614175400579e-17
v 0.0952526405453682 1.262573480606079 -4.981614175400579e-17
v 0.01175875123590231 1.2879011631011963 -4.981614175400579e-17
v -0.0732128918170929 1.3077137470245361 -4.981614175400579e-17
v -0.15929840505123138 1.3219265937805176 -4.981614175400579e-17
v -0.24612915515899658 1.3304786682128906 -4.981614175400579e-17
v -0.3333333432674408 1.3333333730697632 -4.981614175400579e-17
v -0.420537531375885 1.3304786682128906 -4.981614175400579e-17
v -0.507368266582489 1.3219265937805176 -4.981614175400579e-17
v -0.5934537649154663 1.3077137470245361 -4.981614175400579e-17
v -0.6784254312515259 1.2879011631011963 -4.981614175400579e-17
v -0.7619192600250244 1.262573480606079 -4.981614175400579e-17
v -0.8435779213905334 1.2318395376205444 -4.981614175400579e-17
v -0.9230515956878662 1.1958303451538086 -4.981614175400579e-17
v -1 1.154700517654419 -4.981614175400579e-17
vt 0 0
vt 0.03125 0
vt 0.0625 0
vt 0.09375 0
vt 0.125 0
vt 0.15625 0
vt 0.1875 0
vt 0.21875 0
vt 0.25 0
vt 0.28125 0
vt 0.3125 0
vt 0.34375 0
vt 0.375 0
vt 0.40625 0
vt 0.4375 0
vt 0.46875 0
vt 0.5 0
vt 0.53125 0
vt 0.5625 0
vt 0.59375 0
vt 0.625 0
vt 0.65625 0
vt 0.6875 0
vt 0.71875 0
vt 0.75 0
vt 0.78125 0
vt 0.8125 0
vt 0.84375 0
vt 0.875 0
vt 0.90625 0
vt 0.9375 0
vt 0.96875 0
vt 1 0
vt 0 0.10000000149011612
vt 0.03125 0.10000000149011612
vt 0.0625 0.10000000149011612
vt 0.09375 0.10000000149011612
vt 0.125 0.10000000149011612
vt 0.15625 0.10000000149011612
vt 0.1875 0.10000000149011612
vt 0.21875 0.10000000149011612
vt 0.25 0.10000000149011612
vt 0.28125 0.10000000149011612
vt 0.3125 0.10000000149011612
vt 0.34375 0.10000000149011612
vt 0.375 0.10000000149011612
vt 0.40625 0.10000000149011612
vt 0.4375 0.10000000149011612
vt 0.46875 0.10000000149011612
vt 0.5 0.10000000149011612
vt 0.53125 0.10000000149011612
vt 0.5625 0.10000000149011612
vt 0.59375 0.10000000149011612
vt 0.625 0.10000000149011612
vt 0.65625 0.10000000149011612
vt 0.6875 0.10000000149011612
vt 0.71875 0.10000000149011612
vt 0.75 0.10000000149011612
vt 0.78125 0.10000000149011612
vt 0.8125 0.10000000149011612
vt 0.84375 0.10000000149011612
vt 0.875 0.10000000149011612
vt 0.90625 0.10000000149011612
vt 0.9375 0.10000000149011612
vt 0.96875 0.10000000149011612
vt 1 0.10000000149011612
vt 0 0.20000000298023224
vt 0.03125 0.20000000298023224
vt 0.0625 0.20000000298023224
vt 0.09375 0.20000000298023224
vt 0.125 0.20000000298023224
vt 0.15625 0.20000000298023224
vt 0.1875 0.20000000298023224
vt 0.21875 0.20000000298023224
vt 0.25 0.20000000298023224
vt 0.28125 0.20000000298023224
vt 0.3125 0.20000000298023224
vt 0.34375 0.20000000298023224
vt 0.375 0.20000000298023224
vt 0.40625 0.20000000298023224
vt 0.4375 0.20000000298023224
vt 0.46875 0.20000000298023224
vt 0.5 0.20000000298023224
vt 0.53125 0.20000000298023224
vt 0.5625 0.20000000298023224
vt 0.59375 0.20000000298023224
vt 0.625 0.20000000298023224
vt 0.65625 0.20000000298023224
vt 0.6875 0.20000000298023224
vt 0.71875 0.20000000298023224
vt 0.75 0.20000000298023224
vt 0.78125 0.20000000298023224
vt 0.8125 0.20000000298023224
vt 0.84375 0.20000000298023224
vt 0.875 0.20000000298023224
vt 0.90625 0.20000000298023224
vt 0.9375 0.20000000298023224
vt 0.96875 0.20000000298023224
vt 1 0.20000000298023224
vt 0 0.30000001192092896
vt 0.03125 0.30000001192092896
vt 0.0625 0.30000001192092896
vt 0.09375 0.30000001192092896
vt 0.125 0.30000001192092896
vt 0.15625 0.30000001192092896
vt 0.1875 0.30000001192092896
vt 0.21875 0.30000001192092896
vt 0.25 0.30000001192092896
vt 0.28125 0.30000001192092896
vt 0.3125 0.30000001192092896
vt 0.34375 0.30000001192092896
vt 0.375 0.30000001192092896
vt 0.40625 0.30000001192092896
vt 0.4375 0.30000001192092896
vt 0.46875 0.30000001192092896
vt 0.5 0.30000001192092896
vt 0.53125 0.30000001192092896
vt 0.5625 0.30000001192092896
vt 0.59375 0.30000001192092896
vt 0.625 0.30000001192092896
vt 0.65625 0.30000001192092896
vt 0.6875 0.30000001192092896
vt 0.71875 0.30000001192092896
vt 0.75 0.30000001192092896
vt 0.78125 0.30000001192092896
vt 0.8125 0.30000001192092896
vt 0.84375 0.30000001192092896
vt 0.875 0.30000001192092896
vt 0.90625 0.30000001192092896
vt 0.9375 0.30000001192092896
vt 0.96875 0.30000001192092896
vt 1 0.30000001192092896
vt 0 0.4000000059604645
vt 0.03125 0.4000000059604645
vt 0.0625 0.4000000059604645
vt 0.09375 0.4000000059604645
vt 0.125 0.4000000059604645
vt 0.15625 0.4000000059604645
vt 0.1875 0.4000000059604645
vt 0.21875 0.4000000059604645
vt 0.25 0.4000000059604645
vt 0.28125 0.4000000059604645
vt 0.3125 0.4000000059604645
vt 0.34375 0.4000000059604645
vt 0.375 0.4000000059604645
vt 0.40625 0.4000000059604645
vt 0.4375 0.4000000059604645
vt 0.46875 0.4000000059604645
vt 0.5 0.4000000059604645
vt 0.53125 0.4000000059604645
vt 0.5625 0.4000000059604645
vt 0.59375 0.4000000059604645
vt 0.625 0.4000000059604645
vt 0.65625 0.4000000059604645
vt 0.6875 0.4000000059604645
vt 0.71875 0.4000000059604645
vt 0.75 0.4000000059604645
vt 0.78125 0.4000000059604645
vt 0.8125 0.4000000059604645
vt 0.84375 0.4000000059604645
vt 0.875 0.4000000059604645
vt 0.90625 0.4000000059604645
vt 0.9375 0.4000000059604645
vt 0.96875 0.4000000059604645
vt 1 0.4000000059604645
vt 0 0.5
vt 0.03125 0.5
vt 0.0625 0.5
vt 0.09375 0.5
vt 0.125 0.5
vt 0.15625 0.5
vt 0.1875 0.5
vt 0.21875 0.5
vt 0.25 0.5
vt 0.28125 0.5
vt 0.3125 0.5
vt 0.34375 0.5
vt 0.375 0.5
vt 0.40625 0.5
vt 0.4375 0.5
vt 0.46875 0.5
vt 0.5 0.5
vt 0.53125 0.5
vt 0.5625 0.5
vt 0.59375 0.5
vt 0.625 0.5
vt 0.65625 0.5
vt 0.6875 0.5
vt 0.71875 0.5
vt 0.75 0.5
vt 0.78125 0.5
vt 0.8125 0.5
vt 0.84375 0.5
vt 0.875 0.5
vt 0.90625 0.5
vt 0.9375 0.5
vt 0.96875 0.5
vt 1 0.5
vt 0 0.6000000238418579
vt 0.03125 0.6000000238418579
vt 0.0625 0.6000000238418579
vt 0.09375 0.6000000238418579
vt 0.125 0.6000000238418579
vt 0.15625 0.6000000238418579
vt 0.1875 0.6000000238418579
vt 0.21875 0.6000000238418579
vt 0.25 0.6000000238418579
vt 0.28125 0.6000000238418579
vt 0.3125 0.6000000238418579
vt 0.34375 0.6000000238418579
vt 0.375 0.6000000238418579
vt 0.40625 0.6000000238418579
vt 0.4375 0.6000000238418579
vt 0.46875 0.6000000238418579
vt 0.5 0.6000000238418579
vt 0.53125 0.6000000238418579
vt 0.5625 0.6000000238418579
vt 0.59375 0.6000000238418579
vt 0.625 0.6000000238418579
vt 0.65625 0.6000000238418579
vt 0.6875 0.6000000238418579
vt 0.71875 0.6000000238418579
vt 0.75 0.6000000238418579
vt 0.78125 0.6000000238418579
vt 0.8125 0.6000000238418579
vt 0.84375 0.6000000238418579
vt 0.875 0.6000000238418579
vt 0.90625 0.6000000238418579
vt 0.9375 0.6000000238418579
vt 0.96875 0.6000000238418579
vt 1 0.6000000238418579
vt 0 0.699999988079071
vt 0.03125 0.699999988079071
vt 0.0625 0.699999988079071
vt 0.09375 0.699999988079071
vt 0.125 0.699999988079071
vt 0.15625 0.699999988079071
vt 0.1875 0.699999988079071
vt 0.21875 0.699999988079071
vt 0.25 0.699999988079071
vt 0.28125 0.699999988079071
vt 0.3125 0.699999988079071
vt 0.34375 0.699999988079071
vt 0.375 0.699999988079071
vt 0.40625 0.699999988079071
vt 0.4375 0.699999988079071
vt 0.46875 0.699999988079071
vt 0.5 0.699999988079071
vt 0.53125 0.699999988079071
vt 0.5625 0.699999988079071
vt 0.59375 0.699999988079071
vt 0.625 0.699999988079071
vt 0.65625 0.699999988079071
vt 0.6875 0.699999988079071
vt 0.71875 0.699999988079071
vt 0.75 0.699999988079071
vt 0.78125 0.699999988079071
vt 0.8125 0.699999988079071
vt 0.84375 0.699999988079071
vt 0.875 0.699999988079071
vt 0.90625 0.699999988079071
vt 0.9375 0.699999988079071
vt 0.96875 0.699999988079071
vt 1 0.699999988079071
vt 0 0.800000011920929
vt 0.03125 0.800000011920929
vt 0.0625 0.800000011920929
vt 0.09375 0.800000011920929
vt 0.125 0.800000011920929
vt 0.15625 0.800000011920929
vt 0.1875 0.800000011920929
vt 0.21875 0.800000011920929
vt 0.25 0.800000011920929
vt 0.28125 0.800000011920929
vt 0.3125 0.800000011920929
vt 0.34375 0.800000011920929
vt 0.375 0.800000011920929
vt 0.40625 0.800000011920929
vt 0.4375 0.800000011920929
vt 0.46875 0.800000011920929
vt 0.5 0.800000011920929
vt 0.53125 0.800000011920929
vt 0.5625 0.800000011920929
vt 0.59375 0.800000011920929
vt 0.625 0.800000011920929
vt 0.65625 0.800000011920929
vt 0.6875 0.800000011920929
vt 0.71875 0.800000011920929
vt 0.75 0.800000011920929
vt 0.78125 0.800000011920929
vt 0.8125 0.800000011920929
vt 0.84375 0.800000011920929
vt 0.875 0.800000011920929
vt 0.90625 0.800000011920929
vt 0.9375 0.800000011920929
vt 0.96875 0.800000011920929
vt 1 0.800000011920929
vt 0 0.8999999761581421
vt 0.03125 0.8999999761581421
vt 0.0625 0.8999999761581421
vt 0.09375 0.8999999761581421
vt 0.125 0.8999999761581421
vt 0.15625 0.8999999761581421
vt 0.1875 0.8999999761581421
vt 0.21875 0.8999999761581421
vt 0.25 0.8999999761581421
vt 0.28125 0.8999999761581421
vt 0.3125 0.8999999761581421
vt 0.34375 0.8999999761581421
vt 0.375 0.8999999761581421
vt 0.40625 0.8999999761581421
vt 0.4375 0.8999999761581421
vt 0.46875 0.8999999761581421
vt 0.5 0.8999999761581421
vt 0.53125 0.8999999761581421
vt 0.5625 0.8999999761581421
vt 0.59375 0.8999999761581421
vt 0.625 0.8999999761581421
vt 0.65625 0.8999999761581421
vt 0.6875 0.8999999761581421
vt 0.71875 0.8999999761581421
vt 0.75 0.8999999761581421
vt 0.78125 0.8999999761581421
vt 0.8125 0.8999999761581421
vt 0.84375 0.8999999761581421
vt 0.875 0.8999999761581421
vt 0.90625 0.8999999761581421
vt 0.9375 0.8999999761581421
vt 0.96875 0.8999999761581421
vt 1 0.8999999761581421
vt 0 1
vt 0.03125 1
vt 0.0625 1
vt 0.09375 1
vt 0.125 1
vt 0.15625 1
vt 0.1875 1
vt 0.21875 1
vt 0.25 1
vt 0.28125 1
vt 0.3125 1
vt 0.34375 1
vt 0.375 1
vt 0.40625 1
vt 0.4375 1
vt 0.46875 1
vt 0.5 1
vt 0.53125 1
vt 0.5625 1
vt 0.59375 1
vt 0.625 1
vt 0.65625 1
vt 0.6875 1
vt 0.71875 1
vt 0.75 1
vt 0.78125 1
vt 0.8125 1
vt 0.84375 1
vt 0.875 1
vt 0.90625 1
vt 0.9375 1
vt 0.96875 1
vt 1 1
vn 0.9505960568727493 0.03111876434223803 0.3088668955453027
vn 0.948305704549665 0.07235120072826177 0.3090009619268887
vn 0.9415432810275376 0.13421839474907538 0.30900108812572286
vn 0.930749247580524 0.1955110451813857 0.3090004358255352
vn 0.9159694490303607 0.255966131845484 0.309000498043414
vn 0.897267207530611 0.3153253741445398 0.3090007551945878
vn 0.8747226653603849 0.37333429106083804 0.30900123919318734
vn 0.8484326238100764 0.42974488127843996 0.3090006794001089
vn 0.8185095682496892 0.48431464411082337 0.30900066696289447
vn 0.7850813187343955 0.5368107501042613 0.30900087628801787
vn 0.7482913777847376 0.5870080029752562 0.3090010006068273
vn 0.7082969127636225 0.6346920291570245 0.30900082765918274
vn 0.6652696545715051 0.679657857796649 0.30900078161969174
vn 0.6193933323370993 0.7217134642748008 0.30900093097078163
vn 0.5708649832828214 0.7606783613594619 0.30900097317158703
vn 0.5198919105977413 0.7963861714202621 0.30900075609229005
vn 0.46669257147130033 0.8286836825028713 0.3090006441530267
vn 0.4114951879195641 0.8574322649232538 0.30900100547995274
vn 0.354535396543523 0.8825094592228132 0.3090011439784397
vn 0.29605687279772275 0.9038080760888646 0.3090004687144959
vn 0.23631136332067784 0.921235927290694 0.30900049487723763
vn 0.17555367954275422 0.9347189072867774 0.3090007604515119
vn 0.1140449628795565 0.944199132968301 0.30900120346644105
vn 0.05204625674016369 0.9496366747362027 0.3090006038105818
vn -0.010173988266949091 0.951007460936752 0.30900048415071446
vn -0.07235120072826177 0.948305704549665 0.3090009619268887
vn -0.13421839474907538 0.9415432810275376 0.30900108812572286
vn -0.1955110451813857 0.930749247580524 0.3090004358255352
vn -0.255966131845484 0.9159694490303607 0.309000498043414
vn -0.3153253741445398 0.897267207530611 0.3090007551945878
vn -0.37333429106083804 0.8747226653603849 0.30900123919318734
vn -0.42974488127843996 0.8484326238100764 0.3090006794001089
vn -0.4483478789900937 0.8387999767621879 0.308866926667193
vn 0.7446570437510902 0.02437753243783995 0.6670019663420259
vn 0.810910186920105 0.05061125145127504 0.5829778468996368
vn 0.8058638616838425 0.10353912469839428 0.5829777749526094
vn 0.7973666626184822 0.15602329058398806 0.5829778195952297
vn 0.785455050344549 0.20783938527312162 0.5829778330413028
vn 0.7701799433823324 0.25876597108701715 0.582977724290543
vn 0.7516067440345234 0.3085839076895969 0.5829779363207843
vn 0.729815128917907 0.35708064009789126 0.5829779533308433
vn 0.7048984802114188 0.4040482362940161 0.5829778343499236
vn 0.676963148938384 0.44928589359509813 0.5829777704131448
vn 0.6461290656798838 0.49259924428693563 0.5829778855253261
vn 0.6125280795546837 0.533803398014528 0.5829779447159167
vn 0.5763042014220655 0.5727217834315775 0.582977895126589
vn 0.5376123861599733 0.6091877307756959 0.5829778991692034
vn 0.4966185838447826 0.6430449293432089 0.5829778735303683
vn 0.45349824461002064 0.6741484408433155 0.5829778913853909
vn 0.4084357137712951 0.702365358487796 0.5829778477030176
vn 0.36162438194098323 0.7275745112768471 0.582977818554067
vn 0.3132648498500813 0.7496677710049031 0.5829780158504657
vn 0.2635630601786184 0.7685513901670246 0.5829779361018871
vn 0.2127331797920972 0.7841438072041117 0.5829777730231095
vn 0.16099201092680765 0.7963784908303718 0.5829775911306389
vn 0.10856197677776022 0.8052025961728025 0.5829777665697757
vn 0.05566699360701735 0.8105785745299043 0.5829781816979299
vn 0.0025329161102159536 0.812484074871584 0.5829778832992251
vn -0.05061125145127504 0.810910186920105 0.5829778468996368
vn -0.10353912469839428 0.8058638616838425 0.5829777749526094
vn -0.15602329058398806 0.7973666626184822 0.5829778195952297
vn -0.20783938527312162 0.785455050344549 0.5829778330413028
vn -0.25876597108701715 0.7701799433823324 0.582977724290543
vn -0.3085839076895969 0.7516067440345234 0.5829779363207843
vn -0.35708064009789126 0.729815128917907 0.5829779533308433
vn -0.4095354592380648 0.7661872945285799 0.4952148395692949
vn 0.21243800509999036 0.006954617426663803 0.9771497977718591
vn 0.3184067614042369 0.01718983989325583 0.9477983138286908
vn 0.31660082131440903 0.037977966445823706 0.947798287615926
vn 0.31343913558647707 0.05860336214705557 0.9477982666305437
vn 0.3089351017182602 0.07897776260916378 0.947798299185844
vn 0.3031082450149895 0.09901390220796034 0.9477983113371143
vn 0.2959834699170164 0.11862638848872926 0.9477982725717554
vn 0.2875912140867779 0.1377304769121523 0.9477982956882991
vn 0.27796750791809116 0.15624485646344102 0.9477982957204157
vn 0.2671534499016289 0.17409036084505145 0.9477982804724313
vn 0.25519541259212597 0.19119034972205892 0.9477982652258293
vn 0.24214458973317476 0.20747152405900368 0.9477982719796374
vn 0.22805679786145824 0.22286430955439468 0.9477982889180697
vn 0.21299251475880016 0.2373027305663577 0.947798292213313
vn 0.19701610621946114 0.25072518139153815 0.9477982577037702
vn 0.18019612468904314 0.2630737472863043 0.9477982697472034
vn 0.16260437431444588 0.27429583270728647 0.9477982979586025
vn 0.14431649745248573 0.2843434273456192 0.9477982717268445
vn 0.12541056901612432 0.2931733068799029 0.9477982914693159
vn 0.10596760903442042 0.3007478358067797 0.9477982934638923
vn 0.08607081888013395 0.3070345456439581 0.9477982917891924
vn 0.06580562072683244 0.3120064105306942 0.9477983013640129
vn 0.045258231730267856 0.3156424481571328 0.9477982577437147
vn 0.024517562603451757 0.31792662018490037 0.9477982661420056
vn 0.0036716197502058446 0.318849349937271 0.9477982967134883
vn -0.01718983989325583 0.3184067614042369 0.9477983138286908
vn -0.037977966445823706 0.31660082131440903 0.947798287615926
vn -0.05860336214705557 0.31343913558647707 0.9477982666305437
vn -0.07897776260916378 0.3089351017182602 0.947798299185844
vn -0.09901390220796034 0.3031082450149895 0.9477983113371143
vn -0.11862638848872926 0.2959834699170164 0.9477982725717554
vn -0.1377304769121523 0.2875912140867779 0.9477982956882991
vn -0.19572274461215206 0.3661717190344005 0.909731212733123
vn -0.4031690057442568 -0.013198264862569791 0.9150303593935041
vn -0.2972247947110447 -0.022526715318623262 0.9545417583877255
vn -0.29511506042617947 -0.04191802165740569 0.9545417647070147
vn -0.2917415482129202 -0.061129595716457735 0.9545417966615558
vn -0.28711889011875946 -0.080079662100487 0.9545417699895817
vn -0.2812667838209111 -0.09868649572731314 0.9545417601551562
vn -0.27421005921579206 -0.1168710115150041 0.9545417801711624
vn -0.26597929203724135 -0.13455505771745777 0.9545417500822159
vn -0.256609504612961 -0.15166274017990136 0.9545417619902309
vn -0.24614089984139106 -0.16812108632447242 0.9545417527580181
vn -0.23461817585567132 -0.18385957479724255 0.9545417582869461
vn -0.2220908594560284 -0.19881065567174055 0.9545417609185339
vn -0.20861253110817385 -0.21291048792597858 0.9545417413585239
vn -0.1942409004801542 -0.2260984510485217 0.9545417555110505
vn -0.17903735757021305 -0.2383183177437855 0.9545417769914777
vn -0.1630672835688289 -0.24951772747195883 0.954541756397651
vn -0.14639894801297468 -0.25964859370994825 0.9545417517349047
vn -0.12910369235690278 -0.26866758279907377 0.9545417573750858
vn -0.11125545393742532 -0.2765361713919828 0.9545417591080241
vn -0.09293100123628276 -0.2832204068660263 0.9545417906743865
vn -0.07420852231582943 -0.28869206476930137 0.9545417680515289
vn -0.05516834043846148 -0.29292737690677256 0.9545417780651528
vn -0.03589170348744925 -0.29590838509565714 0.9545417818256303
vn -0.01646157873551477 -0.29762225631560474 0.9545417795838708
vn 0.0030390514746295853 -0.29806166189421945 0.9545417800573166
vn 0.022526715318623262 -0.2972247947110447 0.9545417583877255
vn 0.04191802165740569 -0.29511506042617947 0.9545417647070147
vn 0.061129595716457735 -0.2917415482129202 0.9545417966615558
vn 0.080079662100487 -0.28711889011875946 0.9545417699895817
vn 0.09868649572731314 -0.2812667838209111 0.9545417601551562
vn 0.1168710115150041 -0.27421005921579206 0.9545417801711624
vn 0.13455505771745777 -0.26597929203724135 0.9545417500822159
vn 0.09286409572743984 -0.17373642243595092 0.9804039551347605
vn -0.8658048111084888 -0.028343152898347556 0.49957851709733764
vn -0.8025876169201007 -0.05410046053274467 0.5940759693310769
vn -0.797330871631997 -0.10647662188401968 0.5940759296038912
vn -0.7886598291905508 -0.15839653082057714 0.5940759318850892
vn -0.776611588318881 -0.209638318337011 0.5940759348548424
vn -0.7612379246726427 -0.25998196188265577 0.5940759223666054
vn -0.7426044449786483 -0.3092125995916573 0.5940759265882796
vn -0.7207908569536443 -0.3571196168322593 0.594075853578995
vn -0.6958908669720865 -0.40349690465639165 0.5940758783165231
vn -0.6680110137458053 -0.44814619693838265 0.5940759814063904
vn -0.6372705164535708 -0.49087670927397514 0.594076043239712
vn -0.603801207626348 -0.531505301458466 0.5940759347006987
vn -0.5677462845000062 -0.5698578386565162 0.594075921207182
vn -0.5292602178311258 -0.6057700511218508 0.5940759774516889
vn -0.48850772890473976 -0.6390883471182128 0.5940759912486312
vn -0.4456634284868263 -0.669669994998434 0.5940759263832904
vn -0.40091085454668884 -0.6973839405801106 0.594075858899855
vn -0.35444140915847827 -0.7221115925674368 0.5940758666647487
vn -0.3064537641415385 -0.7437472932281038 0.5940757984124174
vn -0.25715446222381183 -0.7621977851264575 0.5940758528224359
vn -0.20675381013445102 -0.777384537830541 0.5940758725422902
vn -0.15546791330868992 -0.7892423310407555 0.5940759806832763
vn -0.10351611407437802 -0.7977206501710854 0.5940759029093514
vn -0.05112063114884611 -0.8027830084968071 0.5940758557118434
vn 0.0014929965784150929 -0.8044075937446112 0.5940759160976158
vn 0.05410046053274467 -0.8025876169201007 0.5940759693310769
vn 0.10647662188401968 -0.797330871631997 0.5940759296038912
vn 0.15839653082057714 -0.7886598291905508 0.5940759318850892
vn 0.209638318337011 -0.776611588318881 0.5940759348548424
vn 0.25998196188265577 -0.7612379246726427 0.5940759223666054
vn 0.3092125995916573 -0.7426044449786483 0.5940759265882796
vn 0.3571196168322593 -0.7207908569536443 0.594075853578995
vn 0.34709465832032665 -0.6493679346477492 0.6766436164014347
vn -0.993338403290029 -0.03251807009961668 -0.11055040328380565
vn -0.9978589283784742 -0.06540305081073039 -1.1061445657697257e-7
vn -0.9914448327777079 -0.13052640942882593 -3.852389011438071e-8
vn -0.9807852954763352 -0.1950902462384699 1.0646058807160265e-7
vn -0.9659258182961655 -0.25881907493243805 1.3273378917103141e-8
vn -0.9469301670742513 -0.32143935459854656 -2.474281038916455e-8
vn -0.9238796726565014 -0.38268309402443534 -3.10114561660612e-8
vn -0.8968726480753173 -0.442288879731751 -2.525764332524119e-8
vn -0.8660253075686525 -0.5000001666505923 -2.6891929806046486e-8
vn -0.8314696016585863 -0.5555702489494075 -7.137664734971507e-8
vn -0.7933533829632173 -0.6087613733975067 -1.4815123428584585e-8
vn -0.7518398715780923 -0.6593457420090294 1.3084194092565207e-8
vn -0.7071067811865476 -0.7071067811865476 3.051426663611962e-10
vn -0.6593457420090294 -0.7518398715780923 -1.5520088230724103e-8
vn -0.6087613733975067 -0.7933533829632173 1.8276358301151847e-8
vn -0.5555702489494078 -0.8314696016585865 6.828862859697764e-8
vn -0.5000001924601669 -0.8660252926674807 2.0195923707248562e-8
vn -0.4422889037041592 -0.8968726362534273 2.4238323256455734e-8
vn -0.38268311946231587 -0.9238796621197973 1.5646260821646834e-8
vn -0.32143930115244645 -0.9469301852167485 3.538480498629703e-8
vn -0.25881907493243805 -0.9659258182961655 -6.2316294706605565e-9
vn -0.19509023190445002 -0.9807852983275474 -1.082399650054548e-7
vn -0.13052640942882593 -0.9914448327777079 3.562141894259733e-8
vn -0.06540305822944062 -0.9978589278922274 1.0563803553819328e-7
vn -1.3296611034441241e-10 -1 -8.260300887741323e-9
vn 0.06540305081073039 -0.9978589283784742 -1.1061445657697257e-7
vn 0.13052640942882593 -0.9914448327777079 -3.852389011438071e-8
vn 0.1950902462384699 -0.9807852954763352 1.0646058807160265e-7
vn 0.25881907493243805 -0.9659258182961655 1.3273378917103141e-8
vn 0.32143935459854656 -0.9469301670742513 -2.474281038916455e-8
vn 0.38268309402443534 -0.9238796726565014 -3.10114561660612e-8
vn 0.442288879731751 -0.8968726480753173 -2.525764332524119e-8
vn 0.468507728073791 -0.876515312331599 0.11055051326599198
vn -0.7359163638766348 -0.024091166974843054 -0.6766437179582641
vn -0.8027830369230967 -0.051120632959011314 -0.5940758171432329
vn -0.7977206784181202 -0.10351611773985074 -0.5940758643407451
vn -0.7892423310407555 -0.15546791330868992 -0.5940759806832763
vn -0.777384537830541 -0.20675381013445102 -0.5940758725422902
vn -0.7621977851264575 -0.25715446222381183 -0.5940758528224359
vn -0.7437472932281038 -0.3064537641415385 -0.5940757984124174
vn -0.7221115849396439 -0.35444143521677324 -0.5940758603894198
vn -0.6973839242183624 -0.40091081533835404 -0.5940759045665239
vn -0.669669994998434 -0.4456634284868263 -0.5940759263832904
vn -0.639088328509666 -0.48850777428534303 -0.5940759739507241
vn -0.605770070231695 -0.5292601749227162 -0.5940759961926276
vn -0.5698578395508312 -0.5677463449956526 -0.5940758625348588
vn -0.5315053445330203 -0.6038011292431731 -0.5940759758292741
vn -0.49087670927397514 -0.6372705164535708 -0.594076043239712
vn -0.44814619693838265 -0.6680110137458053 -0.5940759814063904
vn -0.403496912870228 -0.6958908893441523 -0.5940758465314008
vn -0.3571196168322593 -0.7207908569536443 -0.594075853578995
vn -0.3092125968542003 -0.7426044980090214 -0.5940758617242845
vn -0.2599819870802549 -0.7612379707944679 -0.5940758522398658
vn -0.20963830863292499 -0.77661161197444 -0.5940759073552707
vn -0.1583965088474077 -0.7886598535835072 -0.594075905361086
vn -0.10647662418986956 -0.7973308927112587 -0.5940759008993689
vn -0.054100456818357824 -0.8025876170818541 -0.5940759694508069
vn -0.001492996112754845 -0.8044075937451705 -0.5940759160980288
vn 0.051120632959011314 -0.8027830369230967 -0.5940758171432329
vn 0.10351611773985074 -0.7977206784181202 -0.5940758643407451
vn 0.15546791330868992 -0.7892423310407555 -0.5940759806832763
vn 0.20675381013445102 -0.777384537830541 -0.5940758725422902
vn 0.25715446222381183 -0.7621977851264575 -0.5940758528224359
vn 0.3064537641415385 -0.7437472932281038 -0.5940757984124174
vn 0.35444143521677324 -0.7221115849396439 -0.5940758603894198
vn 0.40835647923131935 -0.7639805515160913 -0.4995785251339072
vn -0.1968921867519839 -0.00644553451920487 -0.98040395851954
vn -0.29762225631560474 -0.01646157873551477 -0.9545417795838708
vn -0.29590838513522216 -0.035891699766958 -0.9545417819532593
vn -0.29292742075780165 -0.05516834680960833 -0.954541764240034
vn -0.28869206476930137 -0.07420852231582943 -0.9545417680515289
vn -0.28322040706212526 -0.09293099385004673 -0.9545417913353016
vn -0.2765361443271618 -0.11125544013760988 -0.9545417685572769
vn -0.26866758279907377 -0.12910369235690278 -0.9545417573750858
vn -0.25964859370994825 -0.14639894801297468 -0.9545417517349047
vn -0.24951772747195883 -0.1630672835688289 -0.954541756397651
vn -0.2383183447219756 -0.17903738154427887 -0.9545417657592286
vn -0.22609846518792806 -0.19424089982573142 -0.9545417522950755
vn -0.2129104459107893 -0.20861251884103954 -0.9545417534109579
vn -0.19881064267544998 -0.22209083178163158 -0.9545417700643161
vn -0.18385960166375165 -0.23461821681284384 -0.954541743045116
vn -0.16812105798113516 -0.24614088707628556 -0.954541761041707
vn -0.15166275357846246 -0.25660953187292224 -0.954541752533098
vn -0.13455505771745777 -0.26597929203724135 -0.9545417500822159
vn -0.1168710115150041 -0.27421005921579206 -0.9545417801711624
vn -0.09868649572731314 -0.2812667838209111 -0.9545417601551562
vn -0.080079662100487 -0.28711889011875946 -0.9545417699895817
vn -0.0611295882937187 -0.29174154834579413 -0.9545417970963026
vn -0.04191802165740569 -0.29511506042617947 -0.9545417647070147
vn -0.022526716980781812 -0.2972248218680818 -0.9545417498923526
vn -0.0030390518533696138 -0.29806170600692605 -0.9545417662816401
vn 0.01646157873551477 -0.29762225631560474 -0.9545417795838708
vn 0.035891699766958 -0.29590838513522216 -0.9545417819532593
vn 0.05516834680960833 -0.29292742075780165 -0.954541764240034
vn 0.07420852231582943 -0.28869206476930137 -0.9545417680515289
vn 0.09293099385004673 -0.28322040706212526 -0.9545417913353016
vn 0.11125544013760988 -0.2765361443271618 -0.9545417685572769
vn 0.12910369235690278 -0.26866758279907377 -0.9545417573750858
vn 0.1901544827739872 -0.35575381823136193 -0.9150303238116017
vn 0.4149753060558368 0.013584946909845505 -0.9097312485461415
vn 0.31792659340943547 0.024517560974228934 -0.9477982751656318
vn 0.31564242137723725 0.0452582284383467 -0.947798266819336
vn 0.3120064374318195 0.06580562011493783 -0.9477982925508954
vn 0.3070345456439581 0.08607081888013395 -0.9477982917891924
vn 0.30074786267605674 0.10596761545155124 -0.9477982842204854
vn 0.2931733068799029 0.12541056901612432 -0.9477982914693159
vn 0.28434342795709494 0.14431648286167442 -0.9477982737650689
vn 0.27429583270728647 0.16260437431444588 -0.9477982979586025
vn 0.2630737750260738 0.18019612327626786 -0.9477982623162668
vn 0.25072515419875324 0.1970160933688357 -0.9477982675684176
vn 0.23730271725747948 0.21299250128680228 -0.9477982985729656
vn 0.22286430955439468 0.22805679786145824 -0.9477982889180697
vn 0.2074715525785023 0.24214458823596233 -0.9477982661192739
vn 0.19119034972205892 0.25519541259212597 -0.9477982652258293
vn 0.17409036084505145 0.2671534499016289 -0.9477982804724313
vn 0.15624485775778543 0.27796748041847325 -0.9477983035720497
vn 0.1377304903501705 0.2875912408339517 -0.9477982856196193
vn 0.11862638744232645 0.29598349710847033 -0.9477982642112314
vn 0.09901390869107198 0.3031082718556285 -0.9477983020761382
vn 0.07897776260916378 0.3089351017182602 -0.947798299185844
vn 0.05860336214705557 0.31343913558647707 -0.9477982666305437
vn 0.037977966445823706 0.31660082131440903 -0.947798287615926
vn 0.01718983989325583 0.3184067614042369 -0.9477983138286908
vn -0.003671620215860847 0.3188493499367258 -0.9477982967118678
vn -0.024517560974228934 0.31792659340943547 -0.9477982751656318
vn -0.0452582284383467 0.31564242137723725 -0.947798266819336
vn -0.06580562011493783 0.3120064374318195 -0.9477982925508954
vn -0.08607081888013395 0.3070345456439581 -0.9477982917891924
vn -0.10596761545155124 0.30074786267605674 -0.9477982842204854
vn -0.12541056901612432 0.2931733068799029 -0.9477982914693159
vn -0.14431648286167442 0.28434342795709494 -0.9477982737650689
vn -0.10019617016445335 0.18745394488446976 -0.9771498073640632
vn 0.8683054522785286 0.02842496173994111 -0.49521476461578046
vn 0.810578651640542 0.055666987358671725 -0.5829780750791664
vn 0.8052025942189385 0.10856199886607074 -0.5829777651551512
vn 0.7963784889198852 0.16099202544175403 -0.5829775897320941
vn 0.7841437545159716 0.21273319656966203 -0.5829778377698842
vn 0.7685514168727957 0.2635630693369582 -0.5829778967546708
vn 0.7496678301601469 0.3132648198599665 -0.5829779558963439
vn 0.7275745191180966 0.36162435603597604 -0.5829778248369624
vn 0.702365397237874 0.4084356718417376 -0.5829778303932938
vn 0.6741484408433155 0.45349824461002064 -0.5829778913853909
vn 0.6430449388605225 0.4966185613926077 -0.5829778821586663
vn 0.6091877307756959 0.5376123861599733 -0.5829778991692034
vn 0.572721763530532 0.5763041813965374 -0.5829779344738053
vn 0.5338033544537875 0.612528157569371 -0.5829779026331582
vn 0.49259924428693563 0.6461290656798838 -0.5829778855253261
vn 0.44928582789336385 0.6769631993562147 -0.5829777625017721
vn 0.4040482333577813 0.7048985346935378 -0.5829777705087554
vn 0.35708064009789126 0.729815128917907 -0.5829779533308433
vn 0.3085839076895969 0.7516067440345234 -0.5829779363207843
vn 0.2587660017811231 0.7701798864319503 -0.5829777859043
vn 0.20783937101564887 0.7854550527771409 -0.5829778348468131
vn 0.1560233125376877 0.7973666390562673 -0.5829778459468932
vn 0.10353912469839428 0.8058638616838425 -0.5829777749526094
vn 0.05061125145127504 0.810910186920105 -0.5829778468996368
vn -0.002532917129546821 0.8124841031020177 -0.5829778439506296
vn -0.055666987358671725 0.810578651640542 -0.5829780750791664
vn -0.10856199886607074 0.8052025942189385 -0.5829777651551512
vn -0.16099202544175403 0.7963784889198852 -0.5829775897320941
vn -0.21273319656966203 0.7841437545159716 -0.5829778377698842
vn -0.2635630693369582 0.7685514168727957 -0.5829778967546708
vn -0.3132648198599665 0.7496678301601469 -0.5829779558963439
vn -0.36162435603597604 0.7275745191180966 -0.5829778248369624
vn -0.35121679473959394 0.657080832285259 -0.6670019062462694
vn 0.9505961387032986 0.031118455782160853 -0.30886667478398017
vn 0.9496366747362027 0.05204625674016369 -0.3090006038105818
vn 0.9441991345728753 0.11404494817220376 -0.30900120399155845
vn 0.9347189158945477 0.1755536811594175 -0.30900073349475865
vn 0.9212359240467332 0.23631137738971264 -0.3090004937891499
vn 0.9038080760888646 0.29605687279772275 -0.3090004687144959
vn 0.8825094685473887 0.35453537048721384 -0.30900114724333894
vn 0.8574322544081222 0.41149521267551026 -0.3090010016905149
vn 0.8286836825028713 0.46669257147130033 -0.3090006441530267
vn 0.7963861787541343 0.5198919153853946 -0.30900072913553717
vn 0.7606783543544151 0.570864978025756 -0.3090010001283359
vn 0.7217134642748008 0.6193933323370993 -0.30900093097078163
vn 0.679657857796649 0.6652696545715051 -0.30900078161969174
vn 0.6346920291570245 0.7082969127636225 -0.30900082765918274
vn 0.587008008380982 0.7482913846757135 -0.3090009736500784
vn 0.5368108127092115 0.7850812635176735 -0.3090009078173866
vn 0.4843146212989537 0.8185095800638116 -0.3090006714229177
vn 0.4297448312901123 0.8484326435620849 -0.3090006946880297
vn 0.3733343167093574 0.8747226556280201 -0.30900123575516875
vn 0.3153253741445398 0.897267207530611 -0.3090007551945878
vn 0.25596609002103515 0.9159694656140729 -0.3090004835303873
vn 0.19551105951295653 0.9307492448689333 -0.3090004349253114
vn 0.13421839474907538 0.9415432810275376 -0.30900108812572286
vn 0.07235120072826177 0.948305704549665 -0.3090009619268887
vn 0.010173988266949091 0.951007460936752 -0.30900048415071446
vn -0.05204625674016369 0.9496366747362027 -0.3090006038105818
vn -0.11404494817220376 0.9441991345728753 -0.30900120399155845
vn -0.1755536811594175 0.9347189158945477 -0.30900073349475865
vn -0.23631137738971264 0.9212359240467332 -0.3090004937891499
vn -0.29605687279772275 0.9038080760888646 -0.3090004687144959
vn -0.35453537048721384 0.8825094685473887 -0.30900114724333894
vn -0.41149521267551026 0.8574322544081222 -0.3090010016905149
vn -0.4483477727585081 0.8388000048901798 -0.3088670044836764
f 34/34/34 1/1/1 35/35/35
f 1/1/1 2/2/2 35/35/35
f 35/35/35 2/2/2 36/36/36
f 2/2/2 3/3/3 36/36/36
f 36/36/36 3/3/3 37/37/37
f 3/3/3 4/4/4 37/37/37
f 37/37/37 4/4/4 38/38/38
f 4/4/4 5/5/5 38/38/38
f 38/38/38 5/5/5 39/39/39
f 5/5/5 6/6/6 39/39/39
f 39/39/39 6/6/6 40/40/40
f 6/6/6 7/7/7 40/40/40
f 40/40/40 7/7/7 41/41/41
f 7/7/7 8/8/8 41/41/41
f 41/41/41 8/8/8 42/42/42
f 8/8/8 9/9/9 42/42/42
f 42/42/42 9/9/9 43/43/43
f 9/9/9 10/10/10 43/43/43
f 43/43/43 10/10/10 44/44/44
f 10/10/10 11/11/11 44/44/44
f 44/44/44 11/11/11 45/45/45
f 11/11/11 12/12/12 45/45/45
f 45/45/45 12/12/12 46/46/46
f 12/12/12 13/13/13 46/46/46
f 46/46/46 13/13/13 47/47/47
f 13/13/13 14/14/14 47/47/47
f 47/47/47 14/14/14 48/48/48
f 14/14/14 15/15/15 48/48/48
f 48/48/48 15/15/15 49/49/49
f 15/15/15 16/16/16 49/49/49
f 49/49/49 16/16/16 50/50/50
f 16/16/16 17/17/17 50/50/50
f 50/50/50 17/17/17 51/51/51
f 17/17/17 18/18/18 51/51/51
f 51/51/51 18/18/18 52/52/52
f 18/18/18 19/19/19 52/52/52
f 52/52/52 19/19/19 53/53/53
f 19/19/19 20/20/20 53/53/53
f 53/53/53 20/20/20 54/54/54
f 20/20/20 21/21/21 54/54/54
f 54/54/54 21/21/21 55/55/55
f 21/21/21 22/22/22 55/55/55
f 55/55/55 22/22/22 56/56/56
f 22/22/22 23/23/23 56/56/56
f 56/56/56 23/23/23 57/57/57
f 23/23/23 24/24/24 57/57/57
f 57/57/57 24/24/24 58/58/58
f 24/24/24 25/25/25 58/58/58
f 58/58/58 25/25/25 59/59/59
f 25/25/25 26/26/26 59/59/59
f 59/59/59 26/26/26 60/60/60
f 26/26/26 27/27/27 60/60/60
f 60/60/60 27/27/27 61/61/61
f 27/27/27 28/28/28 61/61/61
f 61/61/61 28/28/28 62/62/62
f 28/28/28 29/29/29 62/62/62
f 62/62/62 29/29/29 63/63/63
f 29/29/29 30/30/30 63/63/63
f 63/63/63 30/30/30 64/64/64
f 30/30/30 31/31/31 64/64/64
f 64/64/64 31/31/31 65/65/65
f 31/31/31 32/32/32 65/65/65
f 65/65/65 32/32/32 66/66/66
f 32/32/32 33/33/33 66/66/66
f 67/67/67 34/34/34 68/68/68
f 34/34/34 35/35/35 68/68/68
f 68/68/68 35/35/35 69/69/69
f 35/35/35 36/36/36 69/69/69
f 69/69/69 36/36/36 70/70/70
f 36/36/36 37/37/37 70/70/70
f 70/70/70 37/37/37 71/71/71
f 37/37/37 38/38/38 71/71/71
f 71/71/71 38/38/38 72/72/72
f 38/38/38 39/39/39 72/72/72
f 72/72/72 39/39/39 73/73/73
f 39/39/39 40/40/40 73/73/73
f 73/73/73 40/40/40 74/74/74
f 40/40/40 41/41/41 74/74/74
f 74/74/74 41/41/41 75/75/75
f 41/41/41 42/42/42 75/75/75
f 75/75/75 42/42/42 76/76/76
f 42/42/42 43/43/43 76/76/76
f 76/76/76 43/43/43 77/77/77
f 43/43/43 44/44/44 77/77/77
f 77/77/77 44/44/44 78/78/78
f 44/44/44 45/45/45 78/78/78
f 78/78/78 45/45/45 79/79/79
f 45/45/45 46/46/46 79/79/79
f 79/79/79 46/46/46 80/80/80
f 46/46/46 47/47/47 80/80/80
f 80/80/80 47/47/47 81/81/81
f 47/47/47 48/48/48 81/81/81
f 81/81/81 48/48/48 82/82/82
f 48/48/48 49/49/49 82/82/82
f 82/82/82 49/49/49 83/83/83
f 49/49/49 50/50/50 83/83/83
f 83/83/83 50/50/50 84/84/84
f 50/50/50 51/51/51 84/84/84
f 84/84/84 51/51/51 85/85/85
f 51/51/51 52/52/52 85/85/85
f 85/85/85 52/52/52 86/86/86
f 52/52/52 53/53/53 86/86/86
f 86/86/86 53/53/53 87/87/87
f 53/53/53 54/54/54 87/87/87
f 87/87/87 54/54/54 88/88/88
f 54/54/54 55/55/55 88/88/88
f 88/88/88 55/55/55 89/89/89
f 55/55/55 56/56/56 89/89/89
f 89/89/89 56/56/56 90/90/90
f 56/56/56 57/57/57 90/90/90
f 90/90/90 57/57/57 91/91/91
f 57/57/57 58/58/58 91/91/91
f 91/91/91 58/58/58 92/92/92
f 58/58/58 59/59/59 92/92/92
f 92/92/92 59/59/59 93/93/93
f 59/59/59 60/60/60 93/93/93
f 93/93/93 60/60/60 94/94/94
f 60/60/60 61/61/61 94/94/94
f 94/94/94 61/61/61 95/95/95
f 61/61/61 62/62/62 95/95/95
f 95/95/95 62/62/62 96/96/96
f 62/62/62 63/63/63 96/96/96
f 96/96/96 63/63/63 97/97/97
f 63/63/63 64/64/64 97/97/97
f 97/97/97 64/64/64 98/98/98
f 64/64/64 65/65/65 98/98/98
f 98/98/98 65/65/65 99/99/99
f 65/65/65 66/66/66 99/99/99
f 100/100/100 67/67/67 101/101/101
f 67/67/67 68/68/68 101/101/101
f 101/101/101 68/68/68 102/102/102
f 68/68/68 69/69/69 102/102/102
f 102/102/102 69/69/69 103/103/103
f 69/69/69 70/70/70 103/103/103
f 103/103/103 70/70/70 104/104/104
f 70/70/70 71/71/71 104/104/104
f 104/104/104 71/71/71 105/105/105
f 71/71/71 72/72/72 105/105/105
f 105/105/105 72/72/72 106/106/106
f 72/72/72 73/73/73 106/106/106
f 106/106/106 73/73/73 107/107/107
f 73/73/73 74/74/74 107/107/107
f 107/107/107 74/74/74 108/108/108
f 74/74/74 75/75/75 108/108/108
f 108/108/108 75/75/75 109/109/109
f 75/75/75 76/76/76 109/109/109
f 109/109/109 76/76/76 110/110/110
f 76/76/76 77/77/77 110/110/110
f 110/110/110 77/77/77 111/111/111
f 77/77/77 78/78/78 111/111/111
f 111/111/111 78/78/78 112/112/112
f 78/78/78 79/79/79 112/112/112
f 112/112/112 79/79/79 113/113/113
f 79/79/79 80/80/80 113/113/113
f 113/113/113 80/80/80 114/114/114
f 80/80/80 81/81/81 114/114/114
f 114/114/114 81/81/81 115/115/115
f 81/81/81 82/82/82 115/115/115
f 115/115/115 82/82/82 116/116/116
f 82/82/82 83/83/83 116/116/116
f 116/116/116 83/83/83 117/117/117
f 83/83/83 84/84/84 117/117/117
f 117/117/117 84/84/84 118/118/118
f 84/84/84 85/85/85 118/118/118
f 118/118/118 85/85/85 119/119/119
f 85/85/85 86/86/86 119/119/119
f 119/119/119 86/86/86 120/120/120
f 86/86/86 87/87/87 120/120/120
f 120/120/120 87/87/87 121/121/121
f 87/87/87 88/88/88 121/121/121
f 121/121/121 88/88/88 122/122/122
f 88/88/88 89/89/89 122/122/122
f 122/122/122 89/89/89 123/123/123
f 89/89/89 90/90/90 123/123/123
f 123/123/123 90/90/90 124/124/124
f 90/90/90 91/91/91 124/124/124
f 124/124/124 91/91/91 125/125/125
f 91/91/91 92/92/92 125/125/125
f 125/125/125 92/92/92 126/126/126
f 92/92/92 93/93/93 126/126/126
f 126/126/126 93/93/93 127/127/127
f 93/93/93 94/94/94 127/127/127
f 127/127/127 94/94/94 128/128/128
f 94/94/94 95/95/95 128/128/128
f 128/128/128 95/95/95 129/129/129
f 95/95/95 96/96/96 129/129/129
f 129/129/129 96/96/96 130/130/130
f 96/96/96 97/97/97 130/130/130
f 130/130/130 97/97/97 131/131/131
f 97/97/97 98/98/98 131/131/131
f 131/131/131 98/98/98 132/132/132
f 98/98/98 99/99/99 132/132/132
f 133/133/133 100/100/100 134/134/134
f 100/100/100 101/101/101 134/134/134
f 134/134/134 101/101/101 135/135/135
f 101/101/101 102/102/102 135/135/135
f 135/135/135 102/102/102 136/136/136
f 102/102/102 103/103/103 136/136/136
f 136/136/136 103/103/103 137/137/137
f 103/103/103 104/104/104 137/137/137
f 137/137/137 104/104/104 138/138/138
f 104/104/104 105/105/105 138/138/138
f 138/138/138 105/105/105 139/139/139
f 105/105/105 106/106/106 139/139/139
f 139/139/139 106/106/106 140/140/140
f 106/106/106 107/107/107 140/140/140
f 140/140/140 107/107/107 141/141/141
f 107/107/107 108/108/108 141/141/141
f 141/141/141 108/108/108 142/142/142
f 108/108/108 109/109/109 142/142/142
f 142/142/142 109/109/109 143/143/143
f 109/109/109 110/110/110 143/143/143
f 143/143/143 110/110/110 144/144/144
f 110/110/110 111/111/111 144/144/144
f 144/144/144 111/111/111 145/145/145
f 111/111/111 112/112/112 145/145/145
f 145/145/145 112/112/112 146/146/146
f 112/112/112 113/113/113 146/146/146
f 146/146/146 113/113/113 147/147/147
f 113/113/113 114/114/114 147/147/147
f 147/147/147 114/114/114 148/148/148
f 114/114/114 115/115/115 148/148/148
f 148/148/148 115/115/115 149/149/149
f 115/115/115 116/116/116 149/149/149
f 149/149/149 116/116/116 150/150/150
f 116/116/116 117/117/117 150/150/150
f 150/150/150 117/117/117 151/151/151
f 117/117/117 118/118/118 151/151/151
f 151/151/151 118/118/118 152/152/152
f 118/118/118 119/119/119 152/152/152
f 152/152/152 119/119/119 153/153/153
f 119/119/119 120/120/120 153/153/153
f 153/153/153 120/120/120 154/154/154
f 120/120/120 121/121/121 154/154/154
f 154/154/154 121/121/121 155/155/155
f 121/121/121 122/122/122 155/155/155
f 155/155/155 122/122/122 156/156/156
f 122/122/122 123/123/123 156/156/156
f 156/156/156 123/123/123 157/157/157
f 123/123/123 124/124/124 157/157/157
f 157/157/157 124/124/124 158/158/158
f 124/124/124 125/125/125 158/158/158
f 158/158/158 125/125/125 159/159/159
f 125/125/125 126/126/126 159/159/159
f 159/159/159 126/126/126 160/160/160
f 126/126/126 127/127/127 160/160/160
f 160/160/160 127/127/127 161/161/161
f 127/127/127 128/128/128 161/161/161
f 161/161/161 128/128/128 162/162/162
f 128/128/128 129/129/129 162/162/162
f 162/162/162 129/129/129 163/163/163
f 129/129/129 130/130/130 163/163/163
f 163/163/163 130/130/130 164/164/164
f 130/130/130 131/131/131 164/164/164
f 164/164/164 131/131/131 165/165/165
f 131/131/131 132/132/132 165/165/165
f 166/166/166 133/133/133 167/167/167
f 133/133/133 134/134/134 167/167/167
f 167/167/167 134/134/134 168/168/168
f 134/134/134 135/135/135 168/168/168
f 168/168/168 135/135/135 169/169/169
f 135/135/135 136/136/136 169/169/169
f 169/169/169 136/136/136 170/170/170
f 136/136/136 137/137/137 170/170/170
f 170/170/170 137/137/137 171/171/171
f 137/137/137 138/138/138 171/171/171
f 171/171/171 138/138/138 172/172/172
f 138/138/138 139/139/139 172/172/172
f 172/172/172 139/139/139 173/173/173
f 139/139/139 140/140/140 173/173/173
f 173/173/173 140/140/140 174/174/174
f 140/140/140 141/141/141 174/174/174
f 174/174/174 141/141/141 175/175/175
f 141/141/141 142/142/142 175/175/175
f 175/175/175 142/142/142 176/176/176
f 142/142/142 143/143/143 176/176/176
f 176/176/176 143/143/143 177/177/177
f 143/143/143 144/144/144 177/177/177
f 177/177/177 144/144/144 178/178/178
f 144/144/144 145/145/145 178/178/178
f 178/178/178 145/145/145 179/179/179
f 145/145/145 146/146/146 179/179/179
f 179/179/179 146/146/146 180/180/180
f 146/146/146 147/147/147 180/180/180
f 180/180/180 147/147/147 181/181/181
f 147/147/147 148/148/148 181/181/181
f 181/181/181 148/148/148 182/182/182
f 148/148/148 149/149/149 182/182/182
f 182/182/182 149/149/149 183/183/183
f 149/149/149 150/150/150 183/183/183
f 183/183/183 150/150/150 184/184/184
f 150/150/150 151/151/151 184/184/184
f 184/184/184 151/151/151 185/185/185
f 151/151/151 152/152/152 185/185/185
f 185/185/185 152/152/152 186/186/186
f 152/152/152 153/153/153 186/186/186
f 186/186/186 153/153/153 187/187/187
f 153/153/153 154/154/154 187/187/187
f 187/187/187 154/154/154 188/188/188
f 154/154/154 155/155/155 188/188/188
f 188/188/188 155/155/155 189/189/189
f 155/155/155 156/156/156 189/189/189
f 189/189/189 156/156/156 190/190/190
f 156/156/156 157/157/157 190/190/190
f 190/190/190 157/157/157 191/191/191
f 157/157/157 158/158/158 191/191/191
f 191/191/191 158/158/158 192/192/192
f 158/158/158 159/159/159 192/192/192
f 192/192/192 159/159/159 193/193/193
f 159/159/159 160/160/160 193/193/193
f 193/193/193 160/160/160 194/194/194
f 160/160/160 161/161/161 194/194/194
f 194/194/194 161/161/161 195/195/195
f 161/161/161 162/162/162 195/195/195
f 195/195/195 162/162/162 196/196/196
f 162/162/162 163/163/163 196/196/196
f 196/196/196 163/163/163 197/197/197
f 163/163/163 164/164/164 197/197/197
f 197/197/197 164/164/164 198/198/198
f 164/164/164 165/165/165 198/198/198
f 199/199/199 166/166/166 200/200/200
f 166/166/166 167/167/167 200/200/200
f 200/200/200 167/167/167 201/201/201
f 167/167/167 168/168/168 201/201/201
f 201/201/201 168/168/168 202/202/202
f 168/168/168 169/169/169 202/202/202
f 202/202/202 169/169/169 203/203/203
f 169/169/169 170/170/170 203/203/203
f 203/203/203 170/170/170 204/204/204
f 170/170/170 171/171/171 204/204/204
f 204/204/204 171/171/171 205/205/205
f 171/171/171 172/172/172 205/205/205
f 205/205/205 172/172/172 206/206/206
f 172/172/172 173/173/173 206/206/206
f 206/206/206 173/173/173 207/207/207
f 173/173/173 174/174/174 207/207/207
f 207/207/207 174/174/174 208/208/208
f 174/174/174 175/175/175 208/208/208
f 208/208/208 175/175/175 209/209/209
f 175/175/175 176/176/176 209/209/209
f 209/209/209 176/176/176 210/210/210
f 176/176/176 177/177/177 210/210/210
f 210/210/210 177/177/177 211/211/211
f 177/177/177 178/178/178 211/211/211
f 211/211/211 178/178/178 212/212/212
f 178/178/178 179/179/179 212/212/212
f 212/212/212 179/179/179 213/213/213
f 179/179/179 180/180/180 213/213/213
f 213/213/213 180/180/180 214/214/214
f 180/180/180 181/181/181 214/214/214
f 214/214/214 181/181/181 215/215/215
f 181/181/181 182/182/182 215/215/215
f 215/215/215 182/182/182 216/216/216
f 182/182/182 183/183/183 216/216/216
f 216/216/216 183/183/183 217/217/217
f 183/183/183 184/184/184 217/217/217
f 217/217/217 184/184/184 218/218/218
f 184/184/184 185/185/185 218/218/218
f 218/218/218 185/185/185 219/219/219
f 185/185/185 186/186/186 219/219/219
f 219/219/219 186/186/186 220/220/220
f 186/186/186 187/187/187 220/220/220
f 220/220/220 187/187/187 221/221/221
f 187/187/187 188/188/188 221/221/221
f 221/221/221 188/188/188 222/222/222
f 188/188/188 189/189/189 222/222/222
f 222/222/222 189/189/189 223/223/223
f 189/189/189 190/190/190 223/223/223
f 223/223/223 190/190/190 224/224/224
f 190/190/190 191/191/191 224/224/224
f 224/224/224 191/191/191 225/225/225
f 191/191/191 192/192/192 225/225/225
f 225/225/225 192/192/192 226/226/226
f 192/192/192 193/193/193 226/226/226
f 226/226/226 193/193/193 227/227/227
f 193/193/193 194/194/194 227/227/227
f 227/227/227 194/194/194 228/228/228
f 194/194/194 195/195/195 228/228/228
f 228/228/228 195/195/195 229/229/229
f 195/195/195 196/196/196 229/229/229
f 229/229/229 196/196/196 230/230/230
f 196/196/196 197/197/197 230/230/230
f 230/230/230 197/197/197 231/231/231
f 197/197/197 198/198/198 231/231/231
f 232/232/232 199/199/199 233/233/233
f 199/199/199 200/200/200 233/233/233
f 233/233/233 200/200/200 234/234/234
f 200/200/200 201/201/201 234/234/234
f 234/234/234 201/201/201 235/235/235
f 201/201/201 202/202/202 235/235/235
f 235/235/235 202/202/202 236/236/236
f 202/202/202 203/203/203 236/236/236
f 236/236/236 203/203/203 237/237/237
f 203/203/203 204/204/204 237/237/237
f 237/237/237 204/204/204 238/238/238
f 204/204/204 205/205/205 238/238/238
f 238/238/238 205/205/205 239/239/239
f 205/205/205 206/206/206 239/239/239
f 239/239/239 206/206/206 240/240/240
f 206/206/206 207/207/207 240/240/240
f 240/240/240 207/207/207 241/241/241
f 207/207/207 208/208/208 241/241/241
f 241/241/241 208/208/208 242/242/242
f 208/208/208 209/209/209 242/242/242
f 242/242/242 209/209/209 243/243/243
f 209/209/209 210/210/210 243/243/243
f 243/243/243 210/210/210 244/244/244
f 210/210/210 211/211/211 244/244/244
f 244/244/244 211/211/211 245/245/245
f 211/211/211 212/212/212 245/245/245
f 245/245/245 212/212/212 246/246/246
f 212/212/212 213/213/213 246/246/246
f 246/246/246 213/213/213 247/247/247
f 213/213/213 214/214/214 247/247/247
f 247/247/247 214/214/214 248/248/248
f 214/214/214 215/215/215 248/248/248
f 248/248/248 215/215/215 249/249/249
f 215/215/215 216/216/216 249/249/249
f 249/249/249 216/216/216 250/250/250
f 216/216/216 217/217/217 250/250/250
f 250/250/250 217/217/217 251/251/251
f 217/217/217 218/218/218 251/251/251
f 251/251/251 218/218/218 252/252/252
f 218/218/218 219/219/219 252/252/252
f 252/252/252 219/219/219 253/253/253
f 219/219/219 220/220/220 253/253/253
f 253/253/253 220/220/220 254/254/254
f 220/220/220 221/221/221 254/254/254
f 254/254/254 221/221/221 255/255/255
f 221/221/221 222/222/222 255/255/255
f 255/255/255 222/222/222 256/256/256
f 222/222/222 223/223/223 256/256/256
f 256/256/256 223/223/223 257/257/257
f 223/223/223 224/224/224 257/257/257
f 257/257/257 224/224/224 258/258/258
f 224/224/224 225/225/225 258/258/258
f 258/258/258 225/225/225 259/259/259
f 225/225/225 226/226/226 259/259/259
f 259/259/259 226/226/226 260/260/260
f 226/226/226 227/227/227 260/260/260
f 260/260/260 227/227/227 261/261/261
f 227/227/227 228/228/228 261/261/261
f 261/261/261 228/228/228 262/262/262
f 228/228/228 229/229/229 262/262/262
f 262/262/262 229/229/229 263/263/263
f 229/229/229 230/230/230 263/263/263
f 263/263/263 230/230/230 264/264/264
f 230/230/230 231/231/231 264/264/264
f 265/265/265 232/232/232 266/266/266
f 232/232/232 233/233/233 266/266/266
f 266/266/266 233/233/233 267/267/267
f 233/233/233 234/234/234 267/267/267
f 267/267/267 234/234/234 268/268/268
f 234/234/234 235/235/235 268/268/268
f 268/268/268 235/235/235 269/269/269
f 235/235/235 236/236/236 269/269/269
f 269/269/269 236/236/236 270/270/270
f 236/236/236 237/237/237 270/270/270
f 270/270/270 237/237/237 271/271/271
f 237/237/237 238/238/238 271/271/271
f 271/271/271 238/238/238 272/272/272
f 238/238/238 239/239/239 272/272/272
f 272/272/272 239/239/239 273/273/273
f 239/239/239 240/240/240 273/273/273
f 273/273/273 240/240/240 274/274/274
f 240/240/240 241/241/241 274/274/274
f 274/274/274 241/241/241 275/275/275
f 241/241/241 242/242/242 275/275/275
f 275/275/275 242/242/242 276/276/276
f 242/242/242 243/243/243 276/276/276
f 276/276/276 243/243/243 277/277/277
f 243/243/243 244/244/244 277/277/277
f 277/277/277 244/244/244 278/278/278
f 244/244/244 245/245/245 278/278/278
f 278/278/278 245/245/245 279/279/279
f 245/245/245 246/246/246 279/279/279
f 279/279/279 246/246/246 280/280/280
f 246/246/246 247/247/247 280/280/280
f 280/280/280 247/247/247 281/281/281
f 247/247/247 248/248/248 281/281/281
f 281/281/281 248/248/248 282/282/282
f 248/248/248 249/249/249 282/282/282
f 282/282/282 249/249/249 283/283/283
f 249/249/249 250/250/250 283/283/283
f 283/283/283 250/250/250 284/284/284
f 250/250/250 251/251/251 284/284/284
f 284/284/284 251/251/251 285/285/285
f 251/251/251 252/252/252 285/285/285
f 285/285/285 252/252/252 286/286/286
f 252/252/252 253/253/253 286/286/286
f 286/286/286 253/253/253 287/287/287
f 253/253/253 254/254/254 287/287/287
f 287/287/287 254/254/254 288/288/288
f 254/254/254 255/255/255 288/288/288
f 288/288/288 255/255/255 289/289/289
f 255/255/255 256/256/256 289/289/289
f 289/289/289 256/256/256 290/290/290
f 256/256/256 257/257/257 290/290/290
f 290/290/290 257/257/257 291/291/291
f 257/257/257 258/258/258 291/291/291
f 291/291/291 258/258/258 292/292/292
f 258/258/258 259/259/259 292/292/292
f 292/292/292 259/259/259 293/293/293
f 259/259/259 260/260/260 293/293/293
f 293/293/293 260/260/260 294/294/294
f 260/260/260 261/261/261 294/294/294
f 294/294/294 261/261/261 295/295/295
f 261/261/261 262/262/262 295/295/295
f 295/295/295 262/262/262 296/296/296
f 262/262/262 263/263/263 296/296/296
f 296/296/296 263/263/263 297/297/297
f 263/263/263 264/264/264 297/297/297
f 298/298/298 265/265/265 299/299/299
f 265/265/265 266/266/266 299/299/299
f 299/299/299 266/266/266 300/300/300
f 266/266/266 267/267/267 300/300/300
f 300/300/300 267/267/267 301/301/301
f 267/267/267 268/268/268 301/301/301
f 301/301/301 268/268/268 302/302/302
f 268/268/268 269/269/269 302/302/302
f 302/302/302 269/269/269 303/303/303
f 269/269/269 270/270/270 303/303/303
f 303/303/303 270/270/270 304/304/304
f 270/270/270 271/271/271 304/304/304
f 304/304/304 271/271/271 305/305/305
f 271/271/271 272/272/272 305/305/305
f 305/305/305 272/272/272 306/306/306
f 272/272/272 273/273/273 306/306/306
f 306/306/306 273/273/273 307/307/307
f 273/273/273 274/274/274 307/307/307
f 307/307/307 274/274/274 308/308/308
f 274/274/274 275/275/275 308/308/308
f 308/308/308 275/275/275 309/309/309
f 275/275/275 276/276/276 309/309/309
f 309/309/309 276/276/276 310/310/310
f 276/276/276 277/277/277 310/310/310
f 310/310/310 277/277/277 311/311/311
f 277/277/277 278/278/278 311/311/311
f 311/311/311 278/278/278 312/312/312
f 278/278/278 279/279/279 312/312/312
f 312/312/312 279/279/279 313/313/313
f 279/279/279 280/280/280 313/313/313
f 313/313/313 280/280/280 314/314/314
f 280/280/280 281/281/281 314/314/314
f 314/314/314 281/281/281 315/315/315
f 281/281/281 282/282/282 315/315/315
f 315/315/315 282/282/282 316/316/316
f 282/282/282 283/283/283 316/316/316
f 316/316/316 283/283/283 317/317/317
f 283/283/283 284/284/284 317/317/317
f 317/317/317 284/284/284 318/318/318
f 284/284/284 285/285/285 318/318/318
f 318/318/318 285/285/285 319/319/319
f 285/285/285 286/286/286 319/319/319
f 319/319/319 286/286/286 320/320/320
f 286/286/286 287/287/287 320/320/320
f 320/320/320 287/287/287 321/321/321
f 287/287/287 288/288/288 321/321/321
f 321/321/321 288/288/288 322/322/322
f 288/288/288 289/289/289 322/322/322
f 322/322/322 289/289/289 323/323/323
f 289/289/289 290/290/290 323/323/323
f 323/323/323 290/290/290 324/324/324
f 290/290/290 291/291/291 324/324/324
f 324/324/324 291/291/291 325/325/325
f 291/291/291 292/292/292 325/325/325
f 325/325/325 292/292/292 326/326/326
f 292/292/292 293/293/293 326/326/326
f 326/326/326 293/293/293 327/327/327
f 293/293/293 294/294/294 327/327/327
f 327/327/327 294/294/294 328/328/328
f 294/294/294 295/295/295 328/328/328
f 328/328/328 295/295/295 329/329/329
f 295/295/295 296/296/296 329/329/329
f 329/329/329 296/296/296 330/330/330
f 296/296/296 297/297/297 330/330/330
f 331/331/331 298/298/298 332/332/332
f 298/298/298 299/299/299 332/332/332
f 332/332/332 299/299/299 333/333/333
f 299/299/299 300/300/300 333/333/333
f 333/333/333 300/300/300 334/334/334
f 300/300/300 301/301/301 334/334/334
f 334/334/334 301/301/301 335/335/335
f 301/301/301 302/302/302 335/335/335
f 335/335/335 302/302/302 336/336/336
f 302/302/302 303/303/303 336/336/336
f 336/336/336 303/303/303 337/337/337
f 303/303/303 304/304/304 337/337/337
f 337/337/337 304/304/304 338/338/338
f 304/304/304 305/305/305 338/338/338
f 338/338/338 305/305/305 339/339/339
f 305/305/305 306/306/306 339/339/339
f 339/339/339 306/306/306 340/340/340
f 306/306/306 307/307/307 340/340/340
f 340/340/340 307/307/307 341/341/341
f 307/307/307 308/308/308 341/341/341
f 341/341/341 308/308/308 342/342/342
f 308/308/308 309/309/309 342/342/342
f 342/342/342 309/309/309 343/343/343
f 309/309/309 310/310/310 343/343/343
f 343/343/343 310/310/310 344/344/344
f 310/310/310 311/311/311 344/344/344
f 344/344/344 311/311/311 345/345/345
f 311/311/311 312/312/312 345/345/345
f 345/345/345 312/312/312 346/346/346
f 312/312/312 313/313/313 346/346/346
f 346/346/346 313/313/313 347/347/347
f 313/313/313 314/314/314 347/347/347
f 347/347/347 314/314/314 348/348/348
f 314/314/314 315/315/315 348/348/348
f 348/348/348 315/315/315 349/349/349
f 315/315/315 316/316/316 349/349/349
f 349/349/349 316/316/316 350/350/350
f 316/316/316 317/317/317 350/350/350
f 350/350/350 317/317/317 351/351/351
f 317/317/317 318/318/318 351/351/351
f 351/351/351 318/318/318 352/352/352
f 318/318/318 319/319/319 352/352/352
f 352/352/352 319/319/319 353/353/353
f 319/319/319 320/320/320 353/353/353
f 353/353/353 320/320/320 354/354/354
f 320/320/320 321/321/321 354/354/354
f 354/354/354 321/321/321 355/355/355
f 321/321/321 322/322/322 355/355/355
f 355/355/355 322/322/322 356/356/356
f 322/322/322 323/323/323 356/356/356
f 356/356/356 323/323/323 357/357/357
f 323/323/323 324/324/324 357/357/357
f 357/357/357 324/324/324 358/358/358
f 324/324/324 325/325/325 358/358/358
f 358/358/358 325/325/325 359/359/359
f 325/325/325 326/326/326 359/359/359
f 359/359/359 326/326/326 360/360/360
f 326/326/326 327/327/327 360/360/360
f 360/360/360 327/327/327 361/361/361
f 327/327/327 328/328/328 361/361/361
f 361/361/361 328/328/328 362/362/362
f 328/328/328 329/329/329 362/362/362
f 362/362/362 329/329/329 363/363/363
f 329/329/329 330/330/330 363/363/363
