o shape_095
v 1 0 0
v 0.9964151978492737 0.08758838474750519 0
v 0.9856843948364258 0.1745908558368683 0
v 0.967879593372345 0.2604253888130188 0
v 0.9431198239326477 0.3445177972316742 0
v 0.9115708470344543 0.42630553245544434 0
v 0.873443603515625 0.5052415132522583 0
v 0.8289932012557983 0.5807976722717285 0
v 0.7785168290138245 0.6524685621261597 0
v 0.7223523259162903 0.7197747826576233 0
v 0.6608752608299255 0.7822659611701965 0
v 0.5944970846176147 0.8395242691040039 0
v 0.5236616730690002 0.8911664485931396 0
v 0.4488429129123688 0.9368472099304199 0
v 0.3705413043498993 0.9762609601020813 0
v 0.2892807126045227 1.0091439485549927 0
v 0.2056046724319458 1.035276174545288 0
v 0.12007293105125427 1.0544829368591309 0
v 0.03325770050287247 1.0666358470916748 0
v -0.05426030606031418 1.0716532468795776 0
v -0.1418956220149994 1.0695019960403442 0
v -0.2290620058774948 1.0601962804794312 0
v -0.3151763677597046 1.0437982082366943 0
v -0.3996626138687134 1.0204176902770996 0
v -0.4819556474685669 0.9902111887931824 0
v -0.5615049004554749 0.9533804655075073 0
v -0.6377782225608826 0.9101722240447998 0
v -0.7102653980255127 0.8608753085136414 0
v -0.7784814834594727 0.8058195114135742 0
v -0.8419702649116516 0.7453731894493103 0
v -0.9003068804740906 0.6799407005310059 0
v -0.9531011581420898 0.6099597215652466 0
v -1 0.5358983874320984 0
v 0.9687754511833191 0 0.0960996150970459
v 0.9652949571609497 0.08503667265176773 0.0960996150970459
v 0.9548768997192383 0.16950449347496033 0.0960996150970459
v 0.9375907182693481 0.2528384029865265 0.0960996150970459
v 0.9135523438453674 0.3344809412956238 0.0960996150970459
v 0.8829224705696106 0.4138859808444977 0.0960996150970459
v 0.8459060192108154 0.4905223250389099 0.0960996150970459
v 0.8027504086494446 0.563877284526825 0.0960996150970459
v 0.7537446022033691 0.6334601640701294 0.0960996150970459
v 0.6992163062095642 0.698805570602417 0.0960996150970459
v 0.6395303606987 0.7594761848449707 0.0960996150970459
v 0.5750858783721924 0.815066397190094 0.0960996150970459
v 0.5063141584396362 0.8652041554450989 0.0960996150970459
v 0.4336751103401184 0.9095540642738342 0.0960996150970459
v 0.3576546907424927 0.9478195309638977 0.0960996150970459
v 0.27876144647598267 0.979744553565979 0.0960996150970459
v 0.1975231170654297 1.0051155090332031 0.0960996150970459
v 0.11448320001363754 1.0237627029418945 0.0960996150970459
v 0.03019714541733265 1.035561442375183 0.0960996150970459
v -0.054771196097135544 1.0404328107833862 0.0960996150970459
v -0.13985343277454376 1.0383442640304565 0.0960996150970459
v -0.22448040544986725 1.0293095111846924 0.0960996150970459
v -0.30808600783348083 1.013389229774475 0.0960996150970459
v -0.39011093974113464 0.9906898736953735 0.0960996150970459
v -0.47000646591186523 0.9613633155822754 0.0960996150970459
v -0.5472381711006165 0.9256056547164917 0.0960996150970459
v -0.6212894320487976 0.8836561441421509 0.0960996150970459
v -0.6916648745536804 0.8357953429222107 0.0960996150970459
v -0.7578936815261841 0.7823435664176941 0.0960996150970459
v -0.8195327520370483 0.7236582636833191 0.0960996150970459
v -0.8761698603630066 0.6601319909095764 0.0960996150970459
v -0.9274262189865112 0.5921897888183594 0.0960996150970459
v -0.9729586839675903 0.5202860832214355 0.0960996150970459
v 0.887028157711029 0 0.15549243986606598
v 0.8838210701942444 0.07835620641708374 0.15549243986606598
v 0.8742214441299438 0.1561882346868515 0.15549243986606598
v 0.8582934141159058 0.23297545313835144 0.15549243986606598
v 0.8361434936523438 0.30820417404174805 0.15549243986606598
v 0.8079198002815247 0.3813711702823639 0.15549243986606598
v 0.7738113403320312 0.45198696851730347 0.15549243986606598
v 0.7340461611747742 0.5195791125297546 0.15549243986606598
v 0.6888902187347412 0.583695650100708 0.15549243986606598
v 0.6386456489562988 0.6439074873924255 0.15549243986606598
v 0.5836485624313354 0.6998118758201599 0.15549243986606598
v 0.5242668986320496 0.7510348558425903 0.15549243986606598
v 0.460897833108902 0.7972338199615479 0.15549243986606598
v 0.39396530389785767 0.8380996584892273 0.15549243986606598
v 0.323917031288147 0.8733589053153992 0.15549243986606598
v 0.251221626996994 0.9027759432792664 0.15549243986606598
v 0.17636539041996002 0.9261537790298462 0.15549243986606598
v 0.09984906762838364 0.9433360695838928 0.15549243986606598
v 0.022184520959854126 0.9542079567909241 0.15549243986606598
v -0.05610872432589531 0.9586966037750244 0.15549243986606598
v -0.13450689613819122 0.956771969795227 0.15549243986606598
v -0.21248559653759003 0.9484471082687378 0.15549243986606598
v -0.2895231246948242 0.9337775111198425 0.15549243986606598
v -0.36510422825813293 0.9128614068031311 0.15549243986606598
v -0.4387231767177582 0.8858387470245361 0.15549243986606598
v -0.5098875761032104 0.8528901934623718 0.15549243986606598
v -0.5781213641166687 0.8142362236976624 0.15549243986606598
v -0.6429681181907654 0.7701354622840881 0.15549243986606598
v -0.7039939761161804 0.720882773399353 0.15549243986606598
v -0.7607907056808472 0.6668077111244202 0.15549243986606598
v -0.8129784464836121 0.6082720756530762 0.15549243986606598
v -0.8602080345153809 0.5456674098968506 0.15549243986606598
v -0.9021635055541992 0.4794124662876129 0.15549243986606598
v 0.7859830856323242 0 0.15549243986606598
v 0.783113956451416 0.07009869068861008 0.15549243986606598
v 0.7745260000228882 0.13972845673561096 0.15549243986606598
v 0.7602764964103699 0.20842349529266357 0.15549243986606598
v 0.7404608130455017 0.27572429180145264 0.15549243986606598
v 0.7152115106582642 0.34118059277534485 0.15549243986606598
v 0.6846975088119507 0.40435460209846497 0.15549243986606598
v 0.649122953414917 0.4648236632347107 0.15549243986606598
v 0.6087257266044617 0.5221832990646362 0.15549243986606598
v 0.5637761354446411 0.5760497450828552 0.15549243986606598
v 0.5145748853683472 0.6260626912117004 0.15549243986606598
v 0.46145114302635193 0.6718875765800476 0.15549243986606598
v 0.4047601819038391 0.7132178544998169 0.15549243986606598
v 0.3448812663555145 0.7497770190238953 0.15549243986606598
v 0.28221502900123596 0.7813206315040588 0.15549243986606598
v 0.2171805500984192 0.8076375126838684 0.15549243986606598
v 0.15021298825740814 0.8285516500473022 0.15549243986606598
v 0.08176029473543167 0.8439232707023621 0.15549243986606598
v 0.012280365452170372 0.853649377822876 0.15549243986606598
v -0.05776199698448181 0.8576650023460388 0.15549243986606598
v -0.12789824604988098 0.8559432625770569 0.15549243986606598
v -0.1976591944694519 0.848495602607727 0.15549243986606598
v -0.26657819747924805 0.8353720307350159 0.15549243986606598
v -0.33419421315193176 0.8166601657867432 0.15549243986606598
v -0.4000549018383026 0.792485237121582 0.15549243986606598
v -0.4637197256088257 0.7630089521408081 0.15549243986606598
v -0.5247626900672913 0.7284284830093384 0.15549243986606598
v -0.5827755928039551 0.6889752149581909 0.15549243986606598
v -0.6373702883720398 0.6449130177497864 0.15549243986606598
v -0.6881815791130066 0.5965366363525391 0.15549243986606598
v -0.7348695397377014 0.5441697239875793 0.15549243986606598
v -0.7771218419075012 0.488162636756897 0.15549243986606598
v -0.8146558403968811 0.4288899004459381 0.15549243986606598
v 0.704235851764679 0 0.0960996150970459
v 0.7016401886940002 0.06341821700334549 0.0960996150970459
v 0.6938706040382385 0.12641219794750214 0.0960996150970459
v 0.6809790730476379 0.18856054544448853 0.0960996150970459
v 0.6630519032478333 0.24944749474525452 0.0960996150970459
v 0.640208899974823 0.30866578221321106 0.0960996150970459
v 0.6126028895378113 0.36581921577453613 0.0960996150970459
v 0.580418586730957 0.42052555084228516 0.0960996150970459
v 0.5438713431358337 0.47241872549057007 0.0960996150970459
v 0.5032054781913757 0.5211516618728638 0.0960996150970459
v 0.45869317650794983 0.5663983225822449 0.0960996150970459
v 0.41063210368156433 0.607856035232544 0.0960996150970459
v 0.35934385657310486 0.6452475190162659 0.0960996150970459
v 0.30517148971557617 0.6783226132392883 0.0960996150970459
v 0.24847735464572906 0.7068600654602051 0.0960996150970459
v 0.18964074552059174 0.7306689023971558 0.0960996150970459
v 0.12905526161193848 0.7495899200439453 0.0960996150970459
v 0.06712615489959717 0.7634965777397156 0.0960996150970459
v 0.004267740063369274 0.7722957730293274 0.0960996150970459
v -0.05909952521324158 0.7759287357330322 0.0960996150970459
v -0.12255171686410904 0.7743710279464722 0.0960996150970459
v -0.18566440045833588 0.7676332592964172 0.0960996150970459
v -0.24801532924175262 0.7557602524757385 0.0960996150970459
v -0.30918747186660767 0.7388316988945007 0.0960996150970459
v -0.36877158284187317 0.7169606685638428 0.0960996150970459
v -0.4263690710067749 0.6902934908866882 0.0960996150970459
v -0.48159459233283997 0.6590086221694946 0.0960996150970459
v -0.53407883644104 0.6233152151107788 0.0960996150970459
v -0.5834706425666809 0.5834522247314453 0.0960996150970459
v -0.6294395327568054 0.5396861433982849 0.0960996150970459
v -0.6716780662536621 0.49230989813804626 0.0960996150970459
v -0.7099037170410156 0.44164028763771057 0.0960996150970459
v -0.7438607215881348 0.3880162835121155 0.0960996150970459
v 0.6730111837387085 0 2.0022292193011485e-17
v 0.6705199480056763 0.06086650490760803 2.0022292193011485e-17
v 0.6630630493164062 0.12132585048675537 2.0022292193011485e-17
v 0.6506902575492859 0.1809735745191574 2.0022292193011485e-17
v 0.6334843039512634 0.2394106537103653 2.0022292193011485e-17
v 0.6115604639053345 0.2962462306022644 2.0022292193011485e-17
v 0.5850652456283569 0.35110005736351013 2.0022292193011485e-17
v 0.554175853729248 0.4036051630973816 2.0022292193011485e-17
v 0.5190991163253784 0.4534103572368622 2.0022292193011485e-17
v 0.4800695478916168 0.5001824498176575 2.0022292193011485e-17
v 0.43734821677207947 0.5436086058616638 2.0022292193011485e-17
v 0.39122098684310913 0.583398163318634 2.0022292193011485e-17
v 0.34199637174606323 0.6192851662635803 2.0022292193011485e-17
v 0.2900036871433258 0.6510294079780579 2.0022292193011485e-17
v 0.23559071123600006 0.6784185767173767 2.0022292193011485e-17
v 0.1791214793920517 0.7012695074081421 2.0022292193011485e-17
v 0.12097372859716415 0.7194292545318604 2.0022292193011485e-17
v 0.06153642386198044 0.7327763438224792 2.0022292193011485e-17
v 0.0012071855599060655 0.7412214875221252 2.0022292193011485e-17
v -0.059610411524772644 0.7447082996368408 2.0022292193011485e-17
v -0.12050952762365341 0.7432132959365845 2.0022292193011485e-17
v -0.18108277022838593 0.7367465496063232 2.0022292193011485e-17
v -0.24092495441436768 0.7253512740135193 2.0022292193011485e-17
v -0.29963576793670654 0.7091038227081299 2.0022292193011485e-17
v -0.3568224310874939 0.6881128549575806 2.0022292193011485e-17
v -0.4121024012565613 0.6625186800956726 2.0022292193011485e-17
v -0.46510589122772217 0.6324925422668457 2.0022292193011485e-17
v -0.5154783129692078 0.5982353687286377 2.0022292193011485e-17
v -0.5628827214241028 0.5599762797355652 2.0022292193011485e-17
v -0.6070020794868469 0.5179712176322937 2.0022292193011485e-17
v -0.6475411057472229 0.4725011885166168 2.0022292193011485e-17
v -0.6842286586761475 0.4238702952861786 2.0022292193011485e-17
v -0.7168193459510803 0.37240397930145264 2.0022292193011485e-17
v 0.704235851764679 0 -0.0960996150970459
v 0.7016401886940002 0.06341821700334549 -0.0960996150970459
v 0.6938706040382385 0.12641219794750214 -0.0960996150970459
v 0.6809790730476379 0.18856054544448853 -0.0960996150970459
v 0.6630519032478333 0.24944749474525452 -0.0960996150970459
v 0.640208899974823 0.30866578221321106 -0.0960996150970459
v 0.6126028895378113 0.36581921577453613 -0.0960996150970459
v 0.580418586730957 0.42052555084228516 -0.0960996150970459
v 0.5438713431358337 0.47241872549057007 -0.0960996150970459
v 0.5032054781913757 0.5211516618728638 -0.0960996150970459
v 0.45869317650794983 0.5663983225822449 -0.0960996150970459
v 0.41063210368156433 0.607856035232544 -0.0960996150970459
v 0.35934385657310486 0.6452475190162659 -0.0960996150970459
v 0.30517148971557617 0.6783226132392883 -0.0960996150970459
v 0.24847735464572906 0.7068600654602051 -0.0960996150970459
v 0.18964074552059174 0.7306689023971558 -0.0960996150970459
v 0.12905526161193848 0.7495899200439453 -0.0960996150970459
v 0.06712615489959717 0.7634965777397156 -0.0960996150970459
v 0.004267740063369274 0.7722957730293274 -0.0960996150970459
v -0.05909952521324158 0.7759287357330322 -0.0960996150970459
v -0.12255171686410904 0.7743710279464722 -0.0960996150970459
v -0.18566440045833588 0.7676332592964172 -0.0960996150970459
v -0.24801532924175262 0.7557602524757385 -0.0960996150970459
v -0.30918747186660767 0.7388316988945007 -0.0960996150970459
v -0.36877158284187317 0.7169606685638428 -0.0960996150970459
v -0.4263690710067749 0.6902934908866882 -0.0960996150970459
v -0.48159459233283997 0.6590086221694946 -0.0960996150970459
v -0.53407883644104 0.6233152151107788 -0.0960996150970459
v -0.5834706425666809 0.5834522247314453 -0.0960996150970459
v -0.6294395327568054 0.5396861433982849 -0.0960996150970459
v -0.6716780662536621 0.49230989813804626 -0.0960996150970459
v -0.7099037170410156 0.44164028763771057 -0.0960996150970459
v -0.7438607215881348 0.3880162835121155 -0.0960996150970459
v 0.7859830856323242 0 -0.15549243986606598
v 0.783113956451416 0.07009869068861008 -0.15549243986606598
v 0.7745260000228882 0.13972845673561096 -0.15549243986606598
v 0.7602764964103699 0.20842349529266357 -0.15549243986606598
v 0.7404608130455017 0.27572429180145264 -0.15549243986606598
v 0.7152115106582642 0.34118059277534485 -0.15549243986606598
v 0.6846975088119507 0.40435460209846497 -0.15549243986606598
v 0.649122953414917 0.4648236632347107 -0.15549243986606598
v 0.6087257266044617 0.5221832990646362 -0.15549243986606598
v 0.5637761354446411 0.5760497450828552 -0.15549243986606598
v 0.5145748853683472 0.6260626912117004 -0.15549243986606598
v 0.46145114302635193 0.6718875765800476 -0.15549243986606598
v 0.4047601819038391 0.7132178544998169 -0.15549243986606598
v 0.3448812663555145 0.7497770190238953 -0.15549243986606598
v 0.28221502900123596 0.7813206315040588 -0.15549243986606598
v 0.2171805500984192 0.8076375126838684 -0.15549243986606598
v 0.15021298825740814 0.8285516500473022 -0.15549243986606598
v 0.08176029473543167 0.8439232707023621 -0.15549243986606598
v 0.012280365452170372 0.853649377822876 -0.15549243986606598
v -0.05776199698448181 0.8576650023460388 -0.15549243986606598
v -0.12789824604988098 0.8559432625770569 -0.15549243986606598
v -0.1976591944694519 0.848495602607727 -0.15549243986606598
v -0.26657819747924805 0.8353720307350159 -0.15549243986606598
v -0.33419421315193176 0.8166601657867432 -0.15549243986606598
v -0.4000549018383026 0.792485237121582 -0.15549243986606598
v -0.4637197256088257 0.7630089521408081 -0.15549243986606598
v -0.5247626900672913 0.7284284830093384 -0.15549243986606598
v -0.5827755928039551 0.6889752149581909 -0.15549243986606598
v -0.6373702883720398 0.6449130177497864 -0.15549243986606598
v -0.6881815791130066 0.5965366363525391 -0.15549243986606598
v -0.7348695397377014 0.5441697239875793 -0.15549243986606598
v -0.7771218419075012 0.488162636756897 -0.15549243986606598
v -0.8146558403968811 0.4288899004459381 -0.15549243986606598
v 0.887028157711029 0 -0.15549243986606598
v 0.8838210701942444 0.07835620641708374 -0.15549243986606598
v 0.8742214441299438 0.1561882346868515 -0.15549243986606598
v 0.8582934141159058 0.23297545313835144 -0.15549243986606598
v 0.8361434936523438 0.30820417404174805 -0.15549243986606598
v 0.8079198002815247 0.3813711702823639 -0.15549243986606598
v 0.7738113403320312 0.45198696851730347 -0.15549243986606598
v 0.7340461611747742 0.5195791125297546 -0.15549243986606598
v 0.6888902187347412 0.583695650100708 -0.15549243986606598
v 0.6386456489562988 0.6439074873924255 -0.15549243986606598
v 0.5836485624313354 0.6998118758201599 -0.15549243986606598
v 0.5242668986320496 0.7510348558425903 -0.15549243986606598
v 0.460897833108902 0.7972338199615479 -0.15549243986606598
v 0.39396530389785767 0.8380996584892273 -0.15549243986606598
v 0.323917031288147 0.8733589053153992 -0.15549243986606598
v 0.251221626996994 0.9027759432792664 -0.15549243986606598
v 0.17636539041996002 0.9261537790298462 -0.15549243986606598
v 0.09984906762838364 0.9433360695838928 -0.15549243986606598
v 0.022184520959854126 0.9542079567909241 -0.15549243986606598
v -0.05610872432589531 0.9586966037750244 -0.15549243986606598
v -0.13450689613819122 0.956771969795227 -0.15549243986606598
v -0.21248559653759003 0.9484471082687378 -0.15549243986606598
v -0.2895231246948242 0.9337775111198425 -0.15549243986606598
v -0.36510422825813293 0.9128614068031311 -0.15549243986606598
v -0.4387231767177582 0.8858387470245361 -0.15549243986606598
v -0.5098875761032104 0.8528901934623718 -0.15549243986606598
v -0.5781213641166687 0.8142362236976624 -0.15549243986606598
v -0.6429681181907654 0.7701354622840881 -0.15549243986606598
v -0.7039939761161804 0.720882773399353 -0.15549243986606598
v -0.7607907056808472 0.6668077111244202 -0.15549243986606598
v -0.8129784464836121 0.6082720756530762 -0.15549243986606598
v -0.8602080345153809 0.5456674098968506 -0.15549243986606598
v -0.9021635055541992 0.4794124662876129 -0.15549243986606598
v 0.9687754511833191 0 -0.0960996150970459
v 0.9652949571609497 0.08503667265176773 -0.0960996150970459
v 0.9548768997192383 0.16950449347496033 -0.0960996150970459
v 0.9375907182693481 0.2528384029865265 -0.0960996150970459
v 0.9135523438453674 0.3344809412956238 -0.0960996150970459
v 0.8829224705696106 0.4138859808444977 -0.0960996150970459
v 0.8459060192108154 0.4905223250389099 -0.0960996150970459
v 0.8027504086494446 0.563877284526825 -0.0960996150970459
v 0.7537446022033691 0.6334601640701294 -0.0960996150970459
v 0.6992163062095642 0.698805570602417 -0.0960996150970459
v 0.6395303606987 0.7594761848449707 -0.0960996150970459
v 0.5750858783721924 0.815066397190094 -0.0960996150970459
v 0.5063141584396362 0.8652041554450989 -0.0960996150970459
v 0.4336751103401184 0.9095540642738342 -0.0960996150970459
v 0.3576546907424927 0.9478195309638977 -0.0960996150970459
v 0.27876144647598267 0.979744553565979 -0.0960996150970459
v 0.1975231170654297 1.0051155090332031 -0.0960996150970459
v 0.11448320001363754 1.0237627029418945 -0.0960996150970459
v 0.03019714541733265 1.035561442375183 -0.0960996150970459
v -0.054771196097135544 1.0404328107833862 -0.0960996150970459
v -0.13985343277454376 1.0383442640304565 -0.0960996150970459
v -0.22448040544986725 1.0293095111846924 -0.0960996150970459
v -0.30808600783348083 1.013389229774475 -0.0960996150970459
v -0.39011093974113464 0.9906898736953735 -0.0960996150970459
v -0.47000646591186523 0.9613633155822754 -0.0960996150970459
v -0.5472381711006165 0.9256056547164917 -0.0960996150970459
v -0.6212894320487976 0.8836561441421509 -0.0960996150970459
v -0.6916648745536804 0.8357953429222107 -0.0960996150970459
v -0.7578936815261841 0.7823435664176941 -0.0960996150970459
v -0.8195327520370483 0.7236582636833191 -0.0960996150970459
v -0.8761698603630066 0.6601319909095764 -0.0960996150970459
v -0.9274262189865112 0.5921897888183594 -0.0960996150970459
v -0.9729586839675903 0.5202860832214355 -0.0960996150970459
v 1 0 -4.004458438602297e-17
v 0.9964151978492737 0.08758838474750519 -4.004458438602297e-17
v 0.9856843948364258 0.1745908558368683 -4.004458438602297e-17
v 0.967879593372345 0.2604253888130188 -4.004458438602297e-17
v 0.9431198239326477 0.3445177972316742 -4.004458438602297e-17
v 0.9115708470344543 0.42630553245544434 -4.004458438602297e-17
v 0.873443603515625 0.5052415132522583 -4.004458438602297e-17
v 0.8289932012557983 0.5807976722717285 -4.004458438602297e-17
v 0.7785168290138245 0.6524685621261597 -4.004458438602297e-17
v 0.7223523259162903 0.7197747826576233 -4.004458438602297e-17
v 0.6608752608299255 0.7822659611701965 -4.004458438602297e-17
v 0.5944970846176147 0.8395242691040039 -4.004458438602297e-17
v 0.5236616730690002 0.8911664485931396 -4.004458438602297e-17
v 0.4488429129123688 0.9368472099304199 -4.004458438602297e-17
v 0.3705413043498993 0.9762609601020813 -4.004458438602297e-17
v 0.2892807126045227 1.0091439485549927 -4.004458438602297e-17
v 0.2056046724319458 1.035276174545288 -4.004458438602297e-17
v 0.12007293105125427 1.0544829368591309 -4.004458438602297e-17
v 0.03325770050287247 1.0666358470916748 -4.004458438602297e-17
v -0.05426030606031418 1.0716532468795776 -4.004458438602297e-17
v -0.1418956220149994 1.0695019960403442 -4.004458438602297e-17
v -0.2290620058774948 1.0601962804794312 -4.004458438602297e-17
v -0.3151763677597046 1.0437982082366943 -4.004458438602297e-17
v -0.3996626138687134 1.0204176902770996 -4.004458438602297e-17
v -0.4819556474685669 0.9902111887931824 -4.004458438602297e-17
v -0.5615049004554749 0.9533804655075073 -4.004458438602297e-17
v -0.6377782225608826 0.9101722240447998 -4.004458438602297e-17
v -0.7102653980255127 0.8608753085136414 -4.004458438602297e-17
v -0.7784814834594727 0.8058195114135742 -4.004458438602297e-17
v -0.8419702649116516 0.7453731894493103 -4.004458438602297e-17
v -0.9003068804740906 0.6799407005310059 -4.004458438602297e-17
v -0.9531011581420898 0.6099597215652466 -4.004458438602297e-17
v -1 0.5358983874320984 -4.004458438602297e-17
vt 0 0
vt 0.03125 0
vt 0.0625 0
vt 0.09375 0
vt 0.125 0
vt 0.15625 0
vt 0.1875 0
vt 0.21875 0
vt 0.25 0
vt 0.28125 0
vt 0.3125 0
vt 0.34375 0
vt 0.375 0
vt 0.40625 0
vt 0.4375 0
vt 0.46875 0
vt 0.5 0
vt 0.53125 0
vt 0.5625 0
vt 0.59375 0
vt 0.625 0
vt 0.65625 0
vt 0.6875 0
vt 0.71875 0
vt 0.75 0
vt 0.78125 0
vt 0.8125 0
vt 0.84375 0
vt 0.875 0
vt 0.90625 0
vt 0.9375 0
vt 0.96875 0
vt 1 0
vt 0 0.10000000149011612
vt 0.03125 0.10000000149011612
vt 0.0625 0.10000000149011612
vt 0.09375 0.10000000149011612
vt 0.125 0.10000000149011612
vt 0.15625 0.10000000149011612
vt 0.1875 0.10000000149011612
vt 0.21875 0.10000000149011612
vt 0.25 0.10000000149011612
vt 0.28125 0.10000000149011612
vt 0.3125 0.10000000149011612
vt 0.34375 0.10000000149011612
vt 0.375 0.10000000149011612
vt 0.40625 0.10000000149011612
vt 0.4375 0.10000000149011612
vt 0.46875 0.10000000149011612
vt 0.5 0.10000000149011612
vt 0.53125 0.10000000149011612
vt 0.5625 0.10000000149011612
vt 0.59375 0.10000000149011612
vt 0.625 0.10000000149011612
vt 0.65625 0.10000000149011612
vt 0.6875 0.10000000149011612
vt 0.71875 0.10000000149011612
vt 0.75 0.10000000149011612
vt 0.78125 0.10000000149011612
vt 0.8125 0.10000000149011612
vt 0.84375 0.10000000149011612
vt 0.875 0.10000000149011612
vt 0.90625 0.10000000149011612
vt 0.9375 0.10000000149011612
vt 0.96875 0.10000000149011612
vt 1 0.10000000149011612
vt 0 0.20000000298023224
vt 0.03125 0.20000000298023224
vt 0.0625 0.20000000298023224
vt 0.09375 0.20000000298023224
vt 0.125 0.20000000298023224
vt 0.15625 0.20000000298023224
vt 0.1875 0.20000000298023224
vt 0.21875 0.20000000298023224
vt 0.25 0.20000000298023224
vt 0.28125 0.20000000298023224
vt 0.3125 0.20000000298023224
vt 0.34375 0.20000000298023224
vt 0.375 0.20000000298023224
vt 0.40625 0.20000000298023224
vt 0.4375 0.20000000298023224
vt 0.46875 0.20000000298023224
vt 0.5 0.20000000298023224
vt 0.53125 0.20000000298023224
vt 0.5625 0.20000000298023224
vt 0.59375 0.20000000298023224
vt 0.625 0.20000000298023224
vt 0.65625 0.20000000298023224
vt 0.6875 0.20000000298023224
vt 0.71875 0.20000000298023224
vt 0.75 0.20000000298023224
vt 0.78125 0.20000000298023224
vt 0.8125 0.20000000298023224
vt 0.84375 0.20000000298023224
vt 0.875 0.20000000298023224
vt 0.90625 0.20000000298023224
vt 0.9375 0.20000000298023224
vt 0.96875 0.20000000298023224
vt 1 0.20000000298023224
vt 0 0.30000001192092896
vt 0.03125 0.30000001192092896
vt 0.0625 0.30000001192092896
vt 0.09375 0.30000001192092896
vt 0.125 0.30000001192092896
vt 0.15625 0.30000001192092896
vt 0.1875 0.30000001192092896
vt 0.21875 0.30000001192092896
vt 0.25 0.30000001192092896
vt 0.28125 0.30000001192092896
vt 0.3125 0.30000001192092896
vt 0.34375 0.30000001192092896
vt 0.375 0.30000001192092896
vt 0.40625 0.30000001192092896
vt 0.4375 0.30000001192092896
vt 0.46875 0.30000001192092896
vt 0.5 0.30000001192092896
vt 0.53125 0.30000001192092896
vt 0.5625 0.30000001192092896
vt 0.59375 0.30000001192092896
vt 0.625 0.30000001192092896
vt 0.65625 0.30000001192092896
vt 0.6875 0.30000001192092896
vt 0.71875 0.30000001192092896
vt 0.75 0.30000001192092896
vt 0.78125 0.30000001192092896
vt 0.8125 0.30000001192092896
vt 0.84375 0.30000001192092896
vt 0.875 0.30000001192092896
vt 0.90625 0.30000001192092896
vt 0.9375 0.30000001192092896
vt 0.96875 0.30000001192092896
vt 1 0.30000001192092896
vt 0 0.4000000059604645
vt 0.03125 0.4000000059604645
vt 0.0625 0.4000000059604645
vt 0.09375 0.4000000059604645
vt 0.125 0.4000000059604645
vt 0.15625 0.4000000059604645
vt 0.1875 0.4000000059604645
vt 0.21875 0.4000000059604645
vt 0.25 0.4000000059604645
vt 0.28125 0.4000000059604645
vt 0.3125 0.4000000059604645
vt 0.34375 0.4000000059604645
vt 0.375 0.4000000059604645
vt 0.40625 0.4000000059604645
vt 0.4375 0.4000000059604645
vt 0.46875 0.4000000059604645
vt 0.5 0.4000000059604645
vt 0.53125 0.4000000059604645
vt 0.5625 0.4000000059604645
vt 0.59375 0.4000000059604645
vt 0.625 0.4000000059604645
vt 0.65625 0.4000000059604645
vt 0.6875 0.4000000059604645
vt 0.71875 0.4000000059604645
vt 0.75 0.4000000059604645
vt 0.78125 0.4000000059604645
vt 0.8125 0.4000000059604645
vt 0.84375 0.4000000059604645
vt 0.875 0.4000000059604645
vt 0.90625 0.4000000059604645
vt 0.9375 0.4000000059604645
vt 0.96875 0.4000000059604645
vt 1 0.4000000059604645
vt 0 0.5
vt 0.03125 0.5
vt 0.0625 0.5
vt 0.09375 0.5
vt 0.125 0.5
vt 0.15625 0.5
vt 0.1875 0.5
vt 0.21875 0.5
vt 0.25 0.5
vt 0.28125 0.5
vt 0.3125 0.5
vt 0.34375 0.5
vt 0.375 0.5
vt 0.40625 0.5
vt 0.4375 0.5
vt 0.46875 0.5
vt 0.5 0.5
vt 0.53125 0.5
vt 0.5625 0.5
vt 0.59375 0.5
vt 0.625 0.5
vt 0.65625 0.5
vt 0.6875 0.5
vt 0.71875 0.5
vt 0.75 0.5
vt 0.78125 0.5
vt 0.8125 0.5
vt 0.84375 0.5
vt 0.875 0.5
vt 0.90625 0.5
vt 0.9375 0.5
vt 0.96875 0.5
vt 1 0.5
vt 0 0.6000000238418579
vt 0.03125 0.6000000238418579
vt 0.0625 0.6000000238418579
vt 0.09375 0.6000000238418579
vt 0.125 0.6000000238418579
vt 0.15625 0.6000000238418579
vt 0.1875 0.6000000238418579
vt 0.21875 0.6000000238418579
vt 0.25 0.6000000238418579
vt 0.28125 0.6000000238418579
vt 0.3125 0.6000000238418579
vt 0.34375 0.6000000238418579
vt 0.375 0.6000000238418579
vt 0.40625 0.6000000238418579
vt 0.4375 0.6000000238418579
vt 0.46875 0.6000000238418579
vt 0.5 0.6000000238418579
vt 0.53125 0.6000000238418579
vt 0.5625 0.6000000238418579
vt 0.59375 0.6000000238418579
vt 0.625 0.6000000238418579
vt 0.65625 0.6000000238418579
vt 0.6875 0.6000000238418579
vt 0.71875 0.6000000238418579
vt 0.75 0.6000000238418579
vt 0.78125 0.6000000238418579
vt 0.8125 0.6000000238418579
vt 0.84375 0.6000000238418579
vt 0.875 0.6000000238418579
vt 0.90625 0.6000000238418579
vt 0.9375 0.6000000238418579
vt 0.96875 0.6000000238418579
vt 1 0.6000000238418579
vt 0 0.699999988079071
vt 0.03125 0.699999988079071
vt 0.0625 0.699999988079071
vt 0.09375 0.699999988079071
vt 0.125 0.699999988079071
vt 0.15625 0.699999988079071
vt 0.1875 0.699999988079071
vt 0.21875 0.699999988079071
vt 0.25 0.699999988079071
vt 0.28125 0.699999988079071
vt 0.3125 0.699999988079071
vt 0.34375 0.699999988079071
vt 0.375 0.699999988079071
vt 0.40625 0.699999988079071
vt 0.4375 0.699999988079071
vt 0.46875 0.699999988079071
vt 0.5 0.699999988079071
vt 0.53125 0.699999988079071
vt 0.5625 0.699999988079071
vt 0.59375 0.699999988079071
vt 0.625 0.699999988079071
vt 0.65625 0.699999988079071
vt 0.6875 0.699999988079071
vt 0.71875 0.699999988079071
vt 0.75 0.699999988079071
vt 0.78125 0.699999988079071
vt 0.8125 0.699999988079071
vt 0.84375 0.699999988079071
vt 0.875 0.699999988079071
vt 0.90625 0.699999988079071
vt 0.9375 0.699999988079071
vt 0.96875 0.699999988079071
vt 1 0.699999988079071
vt 0 0.800000011920929
vt 0.03125 0.800000011920929
vt 0.0625 0.800000011920929
vt 0.09375 0.800000011920929
vt 0.125 0.800000011920929
vt 0.15625 0.800000011920929
vt 0.1875 0.800000011920929
vt 0.21875 0.800000011920929
vt 0.25 0.800000011920929
vt 0.28125 0.800000011920929
vt 0.3125 0.800000011920929
vt 0.34375 0.800000011920929
vt 0.375 0.800000011920929
vt 0.40625 0.800000011920929
vt 0.4375 0.800000011920929
vt 0.46875 0.800000011920929
vt 0.5 0.800000011920929
vt 0.53125 0.800000011920929
vt 0.5625 0.800000011920929
vt 0.59375 0.800000011920929
vt 0.625 0.800000011920929
vt 0.65625 0.800000011920929
vt 0.6875 0.800000011920929
vt 0.71875 0.800000011920929
vt 0.75 0.800000011920929
vt 0.78125 0.800000011920929
vt 0.8125 0.800000011920929
vt 0.84375 0.800000011920929
vt 0.875 0.800000011920929
vt 0.90625 0.800000011920929
vt 0.9375 0.800000011920929
vt 0.96875 0.800000011920929
vt 1 0.800000011920929
vt 0 0.8999999761581421
vt 0.03125 0.8999999761581421
vt 0.0625 0.8999999761581421
vt 0.09375 0.8999999761581421
vt 0.125 0.8999999761581421
vt 0.15625 0.8999999761581421
vt 0.1875 0.8999999761581421
vt 0.21875 0.8999999761581421
vt 0.25 0.8999999761581421
vt 0.28125 0.8999999761581421
vt 0.3125 0.8999999761581421
vt 0.34375 0.8999999761581421
vt 0.375 0.8999999761581421
vt 0.40625 0.8999999761581421
vt 0.4375 0.8999999761581421
vt 0.46875 0.8999999761581421
vt 0.5 0.8999999761581421
vt 0.53125 0.8999999761581421
vt 0.5625 0.8999999761581421
vt 0.59375 0.8999999761581421
vt 0.625 0.8999999761581421
vt 0.65625 0.8999999761581421
vt 0.6875 0.8999999761581421
vt 0.71875 0.8999999761581421
vt 0.75 0.8999999761581421
vt 0.78125 0.8999999761581421
vt 0.8125 0.8999999761581421
vt 0.84375 0.8999999761581421
vt 0.875 0.8999999761581421
vt 0.90625 0.8999999761581421
vt 0.9375 0.8999999761581421
vt 0.96875 0.8999999761581421
vt 1 0.8999999761581421
vt 0 1
vt 0.03125 1
vt 0.0625 1
vt 0.09375 1
vt 0.125 1
vt 0.15625 1
vt 0.1875 1
vt 0.21875 1
vt 0.25 1
vt 0.28125 1
vt 0.3125 1
vt 0.34375 1
vt 0.375 1
vt 0.40625 1
vt 0.4375 1
vt 0.46875 1
vt 0.5 1
vt 0.53125 1
vt 0.5625 1
vt 0.59375 1
vt 0.625 1
vt 0.65625 1
vt 0.6875 1
vt 0.71875 1
vt 0.75 1
vt 0.78125 1
vt 0.8125 1
vt 0.84375 1
vt 0.875 1
vt 0.90625 1
vt 0.9375 1
vt 0.96875 1
vt 1 1
vn 0.9503369339130804 0.038896288754559166 0.30878275658107557
vn 0.9467593742643322 0.09039188649466193 0.3089918997296636
vn 0.9362057127368415 0.16746007399683302 0.3089918883334603
vn 0.919389362787296 0.24340800826717068 0.30899149034395595
vn 0.8964227070483964 0.31772718643615555 0.3089915294751447
vn 0.8674594054622753 0.38992097482648913 0.3089916071115783
vn 0.8326930648696207 0.4595067338236461 0.3089916200947245
vn 0.7923565519854213 0.5260179051392698 0.3089923267634141
vn 0.7467195006468158 0.5890109109311212 0.30899212636871676
vn 0.6960872263283676 0.6480635862430303 0.30899217065858203
vn 0.640798637699034 0.7027809126607274 0.30899206255633327
vn 0.5812232600338272 0.7527970808923656 0.3089920338707506
vn 0.5177597275394755 0.7977775137883499 0.30899175236877624
vn 0.45083299091650375 0.8374208773105561 0.30899172892764964
vn 0.3808902406554868 0.8714623828767394 0.3089918118724191
vn 0.3083990210181143 0.8996745330257226 0.30899155079065943
vn 0.23384517189967297 0.9218680167443166 0.3089915780132407
vn 0.15772706408899845 0.9378945909948767 0.3089917627323061
vn 0.08055363526121782 0.9476471461711155 0.30899190636640217
vn 0.0028420226402375397 0.9510604372455558 0.3089918568726444
vn -0.07488937034699181 0.9481115472604483 0.3089920325193348
vn -0.15211975174796308 0.9388202182141223 0.30899219893150365
vn -0.22833283617557223 0.9232487232894583 0.3089917650494984
vn -0.30301722322084845 0.9015011620187167 0.30899226092319887
vn -0.3756754966853599 0.8737228448715947 0.3089924134015192
vn -0.44582060499294046 0.8400998213500549 0.30899235966498345
vn -0.5129832750133831 0.8008569077690616 0.30899251258747423
vn -0.5767143959745835 0.7562567585082226 0.30899226638591964
vn -0.636587696216333 0.7065975256810932 0.3089919768009173
vn -0.6922022795855265 0.652211496295797 0.30899218151305724
vn -0.7431864610681672 0.5934625165943175 0.3089921123305791
vn -0.789199318061028 0.530743437206629 0.30899165075144225
vn -0.8035678409942474 0.5088535637470477 0.30878273200063056
vn 0.7445325242340809 0.03047324711702249 0.6668903219928842
vn 0.8100238390713435 0.06324037124080471 0.5829768739679537
vn 0.8021464172379144 0.12922472969155524 0.5829769245420632
vn 0.788903073538015 0.19434512054770522 0.5829767702761159
vn 0.7703822748454874 0.2581651772406481 0.582976750706404
vn 0.7467080554931197 0.32025785112892186 0.58297683371809
vn 0.7180386224301065 0.38020885195374393 0.5829766424091885
vn 0.6845659018869211 0.43761584171063045 0.5829767585913205
vn 0.6465137586057943 0.4920954394965335 0.5829768763511313
vn 0.604136765876721 0.5432832844960088 0.5829768785322833
vn 0.5577182143799796 0.5908368794206064 0.5829769937701889
vn 0.5075691321841364 0.6344379160990626 0.5829769349380141
vn 0.4540244105703251 0.6737951133510637 0.5829768261522031
vn 0.3974425187087998 0.7086448652388628 0.5829767570778438
vn 0.33820220597214895 0.738753790581382 0.582976933314871
vn 0.2766990090702196 0.7639212081664056 0.5829768829834828
vn 0.21334494805316906 0.7839782890993584 0.5829768223188925
vn 0.14856390518881812 0.7987909243807354 0.5829766935324415
vn 0.08278889831717094 0.8082600116467425 0.582976630653611
vn 0.016460260351849526 0.812322078927015 0.5829767576128931
vn -0.04997836198767549 0.8109501240139154 0.5829768946492168
vn -0.11608320881660446 0.804153299757414 0.5829769799229669
vn -0.1814114176252022 0.7919771771123673 0.5829768850377692
vn -0.24552580892508083 0.7745031770677968 0.5829767627132093
vn -0.30799752884845777 0.7518479924398299 0.5829769450736803
vn -0.36840937282821956 0.724163248804512 0.582976949023898
vn -0.42635637066597426 0.6916343495921815 0.5829769906752224
vn -0.48145144581469596 0.6544787802688573 0.5829768704680551
vn -0.533325844464535 0.612944893520245 0.5829769301899055
vn -0.5816325471087919 0.5673107432449238 0.5829769298545449
vn -0.626048304384776 0.517881613563334 0.5829769763120878
vn -0.6662762227290623 0.46498811679199603 0.5829768831335645
vn -0.7340381810667495 0.46482450207821685 0.495102141990878
vn 0.21243506840106746 0.008694883505589354 0.9771365005536626
vn 0.3181568419930466 0.021481530982303487 0.9477946864799719
vn 0.3153371880329529 0.047409606278508105 0.9477946966912122
vn 0.31040806315135977 0.07302084738513075 0.9477946983275328
vn 0.3034024591096605 0.09814360914053173 0.9477946928481301
vn 0.294367260472841 0.12260965536637637 0.9477946973752559
vn 0.28336290334704545 0.14625548244196077 0.9477947029090226
vn 0.27046292932850946 0.1689232433344129 0.9477946727643201
vn 0.2557538160533054 0.19046057826189947 0.9477946790852516
vn 0.2393337170019995 0.2107240837969057 0.9477946678547846
vn 0.2213125245291126 0.2295778857802386 0.9477946828544812
vn 0.20181107188863273 0.24689587544300173 0.9477946602257237
vn 0.18095942204356685 0.26256219078926085 0.9477946948266813
vn 0.1588972086080203 0.2764722448984245 0.9477946902665181
vn 0.13577214039882357 0.28853276704500513 0.9477946867507092
vn 0.11173886407702499 0.2986630592108144 0.9477947052593264
vn 0.08695798626992098 0.3067955466352852 0.9477947041362053
vn 0.06159552648148231 0.3128757223936124 0.9477946895051398
vn 0.03582097972410618 0.3168629118627318 0.9477946784496504
vn 0.009806644943129716 0.3187304683288857 0.9477946603952823
vn -0.016272952912375665 0.31846574207673073 0.9477946835296287
vn -0.04224400487099396 0.316070608184803 0.9477947112609081
vn -0.06793229415806262 0.31156126278841345 0.9477946945093708
vn -0.09316624719532296 0.30496770204096374 0.9477946777099955
vn -0.11777686997596706 0.29633405615533825 0.9477946697788445
vn -0.1415997136334037 0.285718021511824 0.947794668312872
vn -0.16447524587718262 0.2731907046649786 0.947794667835968
vn -0.18625052388071964 0.25883582393920235 0.9477946816689108
vn -0.20677997012324512 0.24274948052017598 0.9477946685137107
vn -0.2259260455698249 0.22503920294580218 0.9477946924680994
vn -0.2435608370838389 0.20582361634664656 0.9477946811377493
vn -0.2595663071400395 0.18523116414928661 0.947794676090546
vn -0.35086870501759715 0.22218519644449106 0.9096839507874134
vn -0.4031492452831556 -0.016500577253382942 0.9149854736431214
vn -0.2967535177958541 -0.028144716463626505 0.9545392734775074
vn -0.29346090058259733 -0.0523015996897992 0.9545392828475625
vn -0.2882051183622592 -0.07610865718675061 0.9545393035653513
vn -0.2810214757183526 -0.09940652546664101 0.954539298761308
vn -0.27195793477270774 -0.12203934827743132 0.9545393020647098
vn -0.2610751651390499 -0.1438558677263487 0.9545392854504821
vn -0.24844586517357792 -0.1647100575619309 0.9545392862612297
vn -0.23415461625513326 -0.18446252098915494 0.9545392574623304
vn -0.21829685542918703 -0.20298081612354565 0.954539297879112
vn -0.20097896002555427 -0.22014137605066067 0.9545392774409905
vn -0.18231662734712012 -0.23582919949402897 0.9545392794740177
vn -0.16243448565837518 -0.24993958626634016 0.9545392821072949
vn -0.1414658990316294 -0.2623779116518556 0.954539276765699
vn -0.11955087442909723 -0.2730610625483417 0.9545392839182728
vn -0.09683620725382064 -0.28191756607268725 0.9545392788693124
vn -0.0734737281221581 -0.28888815220280734 0.954539285096574
vn -0.049619744806231963 -0.29392623512247074 0.9545392863743716
vn -0.02543377116297851 -0.2969980818485257 0.9545392934095095
vn -0.0010776541783516236 -0.29808318308522774 0.9545392891983286
vn 0.02328559893442884 -0.2971742686551229 0.9545392788835657
vn 0.047493196310043 -0.29427733575071546 0.9545392846644483
vn 0.0713828572249158 -0.2894118700539987 0.9545392905303871
vn 0.09479517271617624 -0.2826104099115632 0.954539277054291
vn 0.1175733476889702 -0.273918383333714 0.9545392748258466
vn 0.1395650172443915 -0.26339396163410095 0.9545392746955289
vn 0.16062311482615127 -0.2511075085029208 0.9545392784778428
vn 0.18060648457263956 -0.23714135608157247 0.9545392998541788
vn 0.19938190130172415 -0.22158880363726594 0.9545392917716456
vn 0.2168235726382024 -0.20455392700553812 0.9545392759310739
vn 0.23281466584377564 -0.18615071174445674 0.954539283573538
vn 0.2472484330323121 -0.1665022569031079 0.9545392662479831
vn 0.16648244381717583 -0.10542374547851421 0.9803924876241873
vn -0.8656090294842914 -0.035428508284791646 0.49946554323194076
vn -0.8015640299417613 -0.06759742581140801 0.5940754951411431
vn -0.7933588187815086 -0.13287587731599265 0.5940755725403247
vn -0.7798464369577932 -0.19726588012405763 0.5940755063989052
vn -0.7611172914587957 -0.2603357177052756 0.5940755698808914
vn -0.7372967012487683 -0.3216643336799475 0.594075441981841
vn -0.7085437688266362 -0.3808412207421173 0.5940754937216314
vn -0.6750510798086287 -0.43747015926077853 0.5940756680807198
vn -0.6370428047890152 -0.49117271884495767 0.5940756055663257
vn -0.5947727690132337 -0.5415900467205454 0.5940753946542204
vn -0.548524002246348 -0.5883840705551938 0.594075419855551
vn -0.4986060377699922 -0.6312418726879284 0.5940755147830502
vn -0.44535257702494224 -0.6698770416296662 0.5940756107051773
vn -0.3891197944072626 -0.7040312714387498 0.5940755460686687
vn -0.33028415323579163 -0.7334756957372722 0.5940755691694789
vn -0.2692389846220309 -0.7580136229573198 0.5940755141990081
vn -0.20639289669998653 -0.7774807718279947 0.5940754342922575
vn -0.14216588324050677 -0.7917469080653694 0.5940754962219652
vn -0.07698813143249494 -0.8007165854567743 0.5940755653896035
vn -0.011294983656942297 -0.8043300148085596 0.5940754586938026
vn 0.05447347916448739 -0.8025627256662338 0.5940755098797642
vn 0.11987770523814022 -0.7954267379548272 0.594075450034236
vn 0.18447964010409643 -0.7829696585719707 0.5940755643373618
vn 0.247847511196964 -0.7652750575258875 0.5940754981668748
vn 0.309557860669048 -0.742460919792566 0.5940755115966143
vn 0.36919718118222655 -0.7146801781574473 0.5940754870855532
vn 0.426366900961857 -0.6821184842756621 0.5940754490581607
vn 0.4806840936638559 -0.6449938310239121 0.5940755507842876
vn 0.5317856666758166 -0.6035546061348991 0.5940756198763792
vn 0.5793303334289386 -0.5580776413786116 0.5940755094787198
vn 0.6229994348654585 -0.5088675064294306 0.5940753866788394
vn 0.6625007263202398 -0.4562532515745167 0.5940755491120936
vn 0.6221604990758826 -0.39397886696139617 0.6765330485478614
vn -0.9930427579517792 -0.04064426533901296 -0.11051753062105528
vn -0.9966552415852639 -0.08172104637495402 -4.501609467863108e-8
vn -0.9866433599479386 -0.16289530463042243 6.551343907545245e-8
vn -0.970031249634941 -0.24298019411399063 4.8132398813528643e-8
vn -0.9469301246306976 -0.32143947963324143 -5.1840967850759614e-8
vn -0.9174945788420651 -0.39774828446571636 3.491276539475019e-8
vn -0.8819212168472469 -0.47139682569430696 -4.9495613881705296e-8
vn -0.8404483255666129 -0.5418916977148333 -1.1196672109307924e-7
vn -0.7933535135015164 -0.6087612032766205 -1.8569938839083924e-8
vn -0.74095125545176 -0.6715588113072797 1.1822380475884564e-7
vn -0.6835921327537214 -0.7298642312356576 -2.8598461933620808e-8
vn -0.6216605175552903 -0.7832867935264115 -3.161347384316907e-8
vn -0.555570248949409 -0.8314696016585884 9.66331111260413e-9
vn -0.4857633172730033 -0.8740903841090569 -9.511099223558356e-8
vn -0.4127069370992136 -0.9108638669253407 3.4134625439685086e-8
vn -0.3368899441141739 -0.9415440327221776 8.657011605049502e-8
vn -0.2588192566692683 -0.9659257695999032 4.8678512718743506e-8
vn -0.1790168579313906 -0.9838460065357649 1.6070096328110334e-8
vn -0.09801718618188524 -0.9951847221561348 -4.820425671198711e-8
vn -0.016361782476363957 -0.9998661370774564 3.2640113132148654e-8
vn 0.06540325853461212 -0.9978589147635321 -2.98165359945807e-8
vn 0.14673072407879842 -0.9891764729366089 -4.1751481372073296e-8
vn 0.22707632459148094 -0.9738769649242272 -1.4704218021483267e-9
vn 0.3059026891851488 -0.9520627840375298 -4.7431182458029144e-8
vn 0.38268331423641344 -0.9238795814417767 4.374217693834964e-8
vn 0.4569039066753438 -0.889516059475493 1.4488834639940825e-9
vn 0.5280680008536889 -0.849202088124132 4.756696323417987e-8
vn 0.5956993822997703 -0.8032074737747841 -4.197314228014146e-8
vn 0.6593457420090282 -0.751839871578091 -6.229200939173043e-8
vn 0.7185815379740872 -0.6954427174705228 1.0063779583613674e-7
vn 0.7730104496547073 -0.6343932886818922 2.226775435087277e-8
vn 0.8222682774912353 -0.5691000613526527 -6.381843089821159e-8
vn 0.8396781860337673 -0.5317202322744325 0.11051759357254172
vn -0.7357961383009429 -0.03011547339153325 -0.6765331485772326
vn -0.8018691174573012 -0.06387642209845348 -0.5940755180683256
vn -0.7939669027544172 -0.1291925034825596 -0.5940756301805914
vn -0.7807535608371836 -0.19364425736491273 -0.5940755665987698
vn -0.7623174108794836 -0.2568005891925445 -0.594075434991519
vn -0.7387817494282264 -0.31823885407487507 -0.5940753811334717
vn -0.710303713086694 -0.37754859950273867 -0.5940754919947264
vn -0.677074265622472 -0.4343325871127704 -0.5940754519450521
vn -0.6393154351906353 -0.4882110126775276 -0.5940755687851433
vn -0.5972800254950104 -0.5388236641999616 -0.5940754413732373
vn -0.5512488525560075 -0.5858319445501777 -0.5940754457981262
vn -0.5015303361275659 -0.6289209558858985 -0.594075545020445
vn -0.4484567655226187 -0.6678029318162075 -0.5940755622937781
vn -0.39238324577442124 -0.7022176948052451 -0.5940754981801032
vn -0.3336845890282401 -0.7319348953769889 -0.5940756719261703
vn -0.2727541088300697 -0.756755845184629 -0.5940755733871005
vn -0.2099990803417474 -0.7765144553023615 -0.5940754892790115
vn -0.1458390336813701 -0.7910785575802811 -0.59407549351205
vn -0.08070338431578067 -0.8003507171369423 -0.5940754946455555
vn -0.015027984051780043 -0.8042688969187326 -0.5940755012155144
vn 0.050748161521937 -0.8028069067397695 -0.5940754957015704
vn 0.11618464086451279 -0.7959745284025973 -0.594075482881971
vn 0.18084386370074043 -0.7838174864994288 -0.5940754538099565
vn 0.24429315383651798 -0.7664170878516136 -0.5940755023039238
vn 0.3061085713120917 -0.7438897068786112 -0.5940754552826801
vn 0.365876289356378 -0.7163859051535656 -0.5940755640355142
vn 0.4231965022240737 -0.6840899114207318 -0.5940755116966906
vn 0.47768536760664004 -0.6472178772187607 -0.5940755078127278
vn 0.5289789418483862 -0.6060160971887628 -0.594075558350166
vn 0.576734000223347 -0.5607603132226195 -0.5940755542023639
vn 0.6206308761882493 -0.5117534529805852 -0.5940755161460989
vn 0.6603760802019232 -0.45932311394982384 -0.5940755084066168
vn 0.7319251325146794 -0.46348652409792224 -0.4994655567434006
vn -0.19688985813485996 -0.008058586913867374 -0.9803924943310135
vn -0.2973745107627834 -0.020570938994277737 -0.9545392798714408
vn -0.2946987713415811 -0.04480382002242879 -0.9545392877619864
vn -0.29005155305861496 -0.06873719474438306 -0.954539310152787
vn -0.28346413596685344 -0.09221060646511237 -0.9545393065117337
vn -0.27498057101499507 -0.1150671004118018 -0.9545392857117445
vn -0.2646574053805546 -0.13715393705568404 -0.9545392895671495
vn -0.25256377256835316 -0.1583233463038932 -0.9545392913867814
vn -0.23878066240757528 -0.1784335225747036 -0.9545392989719084
vn -0.2234002447037243 -0.1973501992440037 -0.9545392760513672
vn -0.2065253804154192 -0.21494659264776225 -0.9545392760664084
vn -0.18826895476847533 -0.23110511315456383 -0.9545392749092108
vn -0.16875302695596756 -0.24571762839248976 -0.9545392935811332
vn -0.14810825805000458 -0.2586864517182334 -0.9545392938977544
vn -0.12647281960933773 -0.269924827447496 -0.9545392676194643
vn -0.1039911421853482 -0.2793574598438173 -0.9545392878119772
vn -0.08081404007284879 -0.286921318353494 -0.9545392857297162
vn -0.05709620064002867 -0.2925658756141274 -0.954539277504395
vn -0.032996371762800895 -0.2962531779045678 -0.9545393098411065
vn -0.008675920605568953 -0.29795887477464306 -0.9545392801475875
vn 0.015702707345673986 -0.29767128166809154 -0.9545392778990773
vn 0.03997615694079601 -0.2953923619933896 -0.9545392916754193
vn 0.06398223968284908 -0.29113748135946443 -0.9545392815137752
vn 0.087560198558647 -0.2849349954679253 -0.9545392920074394
vn 0.11055258135215071 -0.2768265361728832 -0.9545392582952781
vn 0.1328053895888273 -0.2668660529724529 -0.9545392806307468
vn 0.15416978206233567 -0.2551203950687515 -0.9545392932293653
vn 0.17450281959256178 -0.24166814957412713 -0.9545392980048875
vn 0.19366848069269849 -0.22659939060069123 -0.954539279320436
vn 0.21153875636464375 -0.21001459113148385 -0.9545392742404974
vn 0.2279937538524753 -0.19202498865889125 -0.9545392877900886
vn 0.24292370192831256 -0.1727507974049691 -0.9545392799866288
vn 0.34088734583926167 -0.2158644547523402 -0.9149854395678317
vn 0.4149537774026028 0.01698382608787084 -0.909683962852335
vn 0.3174065422012444 0.03063167513423753 -0.9477946968865779
vn 0.3138417024612536 0.05646793206081565 -0.9477946815872081
vn 0.30817729739529515 0.08192665264106382 -0.9477946913531233
vn 0.3004512454797754 0.10683730123578741 -0.9477947246921694
vn 0.29071558320309154 0.13103302183038845 -0.9477947018594708
vn 0.2790350062011658 0.15435248846128763 -0.947794690120241
vn 0.26548793771404133 0.17663922812422136 -0.9477946708100993
vn 0.2501648904050574 0.19774433508452463 -0.947794653683278
vn 0.23316811535571919 0.21752664923019205 -0.9477946965752378
vn 0.21461170984109718 0.23585389633979642 -0.9477946790209457
vn 0.19461973204870983 0.25260323537047163 -0.9477946852444671
vn 0.1733257908744596 0.267662910938549 -0.9477946699183561
vn 0.15087224852178788 0.2809319851731088 -0.9477946952440048
vn 0.1274095648791724 0.292321776914139 -0.9477946937597088
vn 0.1030945530606782 0.3017560174035496 -0.9477947135798804
vn 0.07808990255805244 0.3091717451217892 -0.9477947030537898
vn 0.05256292201772207 0.3145193146321518 -0.9477946718315525
vn 0.02668426335571414 0.3177628473638817 -0.9477946628486369
vn 0.0006270799879784665 0.3188805925928485 -0.9477946900243335
vn -0.02543437700527438 0.31786525666101834 -0.9477946882496115
vn -0.051325463672659354 0.3147235568786445 -0.9477946927074666
vn -0.07687350566176465 0.3094764433824798 -0.9477947009340164
vn -0.10190697063659837 0.30215925124516263 -0.9477946804148218
vn -0.12625895479171742 0.2928206333527912 -0.9477946787241283
vn -0.1497662947466402 0.2815232250568797 -0.9477946669566335
vn -0.1722716976541441 0.2683425529194243 -0.947794669999808
vn -0.19362468846299016 0.25336682572446506 -0.9477946674464458
vn -0.21368252787418676 0.23669591054650274 -0.9477947157543449
vn -0.2323108768246305 0.21844199353819732 -0.947794678170346
vn -0.24938511879733022 0.1987267288078267 -0.947794677015957
vn -0.2647911652161162 0.17768191096006247 -0.9477946915556511
vn -0.17962679339385312 0.11374744818793142 -0.9771364966706422
vn 0.8681079657450111 0.035530808953527886 -0.49510213231732947
vn 0.8095061454807698 0.06955334777741765 -0.5829769568703557
vn 0.8011146033972568 0.13547433652650578 -0.5829769261011611
vn 0.7873641377867912 0.20048925599754566 -0.582976648551907
vn 0.7683462956593897 0.26416298265647503 -0.5829767478558031
vn 0.7441886687638375 0.32606950508299687 -0.5829767603759493
vn 0.715052782229106 0.38579469851216985 -0.5829768170573499
vn 0.6811332679656107 0.44293945878313323 -0.5829769353271127
vn 0.6426578739941102 0.4971205278502122 -0.5829768758564071
vn 0.5998830269843375 0.5479766194940129 -0.5829768249459171
vn 0.5530952942300529 0.5951668165091599 -0.5829768915033625
vn 0.502607660099027 0.6383756012612483 -0.5829769564263416
vn 0.4487578200207613 0.6773141512949542 -0.5829768086517765
vn 0.3919062111574398 0.7117216756286153 -0.582976653131681
vn 0.33243257516368313 0.7413680115515234 -0.5829768901235985
vn 0.27073526644492846 0.7660551145314002 -0.5829768237273902
vn 0.20722675437739857 0.7856176538866735 -0.582976821298933
vn 0.14233208908191058 0.7999247152618383 -0.5829768660340184
vn 0.07648529730578828 0.8088807329527556 -0.5829768084185323
vn 0.010127313474206052 0.8124257953561828 -0.5829766415231995
vn -0.05629906918850303 0.810535805161801 -0.582976949252043
vn -0.12234881591865386 0.803223912647715 -0.5829769407053758
vn -0.18757996427380108 0.7905388670132512 -0.5829768921187568
vn -0.25155607247798417 0.7725654361714753 -0.5829770057494802
vn -0.313849544059629 0.7494240534386168 -0.5829768878962494
vn -0.3740435245764939 0.7212692505161735 -0.5829769377790438
vn -0.43173539271596706 0.6882894576704267 -0.5829769919440557
vn -0.48653900644144404 0.6507056358261266 -0.5829768183342189
vn -0.5380880791781656 0.608768637322537 -0.5829768136545515
vn -0.5860375882880092 0.5627590533954099 -0.5829770089249455
vn -0.6300666426106992 0.5129853563435088 -0.5829768863740693
vn -0.6698809871936985 0.45977982945949314 -0.5829768189375932
vn -0.6295475373215502 0.398656637077092 -0.6668903837713924
vn 0.9503370447563022 0.03889596803718176 -0.308782455839558
vn 0.9488383668422603 0.06503766868935885 -0.30899167506514685
vn 0.9403496627344643 0.14236028859912486 -0.30899200640979874
vn 0.925570599166679 0.21873083521172923 -0.3089917275362142
vn 0.9046000304660947 0.29363766515242506 -0.30899143432233306
vn 0.8775778435642431 0.36658051705331063 -0.3089916714121277
vn 0.8446854386510636 0.43707072908482175 -0.3089914036152504
vn 0.8061418582343378 0.5046377212691788 -0.30899203011524307
vn 0.7622061194642966 0.56882833112376 -0.3089921700660657
vn 0.7131714092383777 0.6292140963061419 -0.30899217151020447
vn 0.659365953492594 0.6853907123666821 -0.30899208853350013
vn 0.6011497355835099 0.7369822832162706 -0.3089920866837996
vn 0.5389118837480127 0.7836440273704922 -0.3089919415158324
vn 0.4730693907845842 0.825063332450083 -0.30899166485370816
vn 0.40406208863801574 0.8609633367621162 -0.3089918466188505
vn 0.3323516024494293 0.8911041216702188 -0.30899167738248906
vn 0.2584178756930709 0.915283803132715 -0.30899152293419646
vn 0.18275561638603122 0.9333405346511191 -0.3089916359005937
vn 0.10587065730926232 0.9451536593363267 -0.3089918512907026
vn 0.028277760128168246 0.9506441868972427 -0.30899190636748725
vn -0.04950389267434271 0.9497754576546744 -0.30899181970877626
vn -0.1269558943705433 0.9425529074854796 -0.30899226118989553
vn -0.203557538240065 0.9290254814067499 -0.3089918826160348
vn -0.27879754376234767 0.9092831829300703 -0.3089919462261797
vn -0.35217241168520924 0.883458155467593 -0.30899236234189004
vn -0.4231917760354557 0.851723234049753 -0.30899231912102
vn -0.4913799860115546 0.8142907184819312 -0.30899245159301997
vn -0.5562813238964013 0.7714108765032768 -0.3089924728800258
vn -0.6174610748483284 0.7233710762375297 -0.3089920826010032
vn -0.6745106007511802 0.6704918767711859 -0.30899205921533757
vn -0.7270478549990029 0.6131274056695575 -0.3089922344627236
vn -0.7747215264732025 0.5516616271345287 -0.3089919182864096
vn -0.8035678262046724 0.5088535543816556 -0.3087827859221641
f 34/34/34 1/1/1 35/35/35
f 1/1/1 2/2/2 35/35/35
f 35/35/35 2/2/2 36/36/36
f 2/2/2 3/3/3 36/36/36
f 36/36/36 3/3/3 37/37/37
f 3/3/3 4/4/4 37/37/37
f 37/37/37 4/4/4 38/38/38
f 4/4/4 5/5/5 38/38/38
f 38/38/38 5/5/5 39/39/39
f 5/5/5 6/6/6 39/39/39
f 39/39/39 6/6/6 40/40/40
f 6/6/6 7/7/7 40/40/40
f 40/40/40 7/7/7 41/41/41
f 7/7/7 8/8/8 41/41/41
f 41/41/41 8/8/8 42/42/42
f 8/8/8 9/9/9 42/42/42
f 42/42/42 9/9/9 43/43/43
f 9/9/9 10/10/10 43/43/43
f 43/43/43 10/10/10 44/44/44
f 10/10/10 11/11/11 44/44/44
f 44/44/44 11/11/11 45/45/45
f 11/11/11 12/12/12 45/45/45
f 45/45/45 12/12/12 46/46/46
f 12/12/12 13/13/13 46/46/46
f 46/46/46 13/13/13 47/47/47
f 13/13/13 14/14/14 47/47/47
f 47/47/47 14/14/14 48/48/48
f 14/14/14 15/15/15 48/48/48
f 48/48/48 15/15/15 49/49/49
f 15/15/15 16/16/16 49/49/49
f 49/49/49 16/16/16 50/50/50
f 16/16/16 17/17/17 50/50/50
f 50/50/50 17/17/17 51/51/51
f 17/17/17 18/18/18 51/51/51
f 51/51/51 18/18/18 52/52/52
f 18/18/18 19/19/19 52/52/52
f 52/52/52 19/19/19 53/53/53
f 19/19/19 20/20/20 53/53/53
f 53/53/53 20/20/20 54/54/54
f 20/20/20 21/21/21 54/54/54
f 54/54/54 21/21/21 55/55/55
f 21/21/21 22/22/22 55/55/55
f 55/55/55 22/22/22 56/56/56
f 22/22/22 23/23/23 56/56/56
f 56/56/56 23/23/23 57/57/57
f 23/23/23 24/24/24 57/57/57
f 57/57/57 24/24/24 58/58/58
f 24/24/24 25/25/25 58/58/58
f 58/58/58 25/25/25 59/59/59
f 25/25/25 26/26/26 59/59/59
f 59/59/59 26/26/26 60/60/60
f 26/26/26 27/27/27 60/60/60
f 60/60/60 27/27/27 61/61/61
f 27/27/27 28/28/28 61/61/61
f 61/61/61 28/28/28 62/62/62
f 28/28/28 29/29/29 62/62/62
f 62/62/62 29/29/29 63/63/63
f 29/29/29 30/30/30 63/63/63
f 63/63/63 30/30/30 64/64/64
f 30/30/30 31/31/31 64/64/64
f 64/64/64 31/31/31 65/65/65
f 31/31/31 32/32/32 65/65/65
f 65/65/65 32/32/32 66/66/66
f 32/32/32 33/33/33 66/66/66
f 67/67/67 34/34/34 68/68/68
f 34/34/34 35/35/35 68/68/68
f 68/68/68 35/35/35 69/69/69
f 35/35/35 36/36/36 69/69/69
f 69/69/69 36/36/36 70/70/70
f 36/36/36 37/37/37 70/70/70
f 70/70/70 37/37/37 71/71/71
f 37/37/37 38/38/38 71/71/71
f 71/71/71 38/38/38 72/72/72
f 38/38/38 39/39/39 72/72/72
f 72/72/72 39/39/39 73/73/73
f 39/39/39 40/40/40 73/73/73
f 73/73/73 40/40/40 74/74/74
f 40/40/40 41/41/41 74/74/74
f 74/74/74 41/41/41 75/75/75
f 41/41/41 42/42/42 75/75/75
f 75/75/75 42/42/42 76/76/76
f 42/42/42 43/43/43 76/76/76
f 76/76/76 43/43/43 77/77/77
f 43/43/43 44/44/44 77/77/77
f 77/77/77 44/44/44 78/78/78
f 44/44/44 45/45/45 78/78/78
f 78/78/78 45/45/45 79/79/79
f 45/45/45 46/46/46 79/79/79
f 79/79/79 46/46/46 80/80/80
f 46/46/46 47/47/47 80/80/80
f 80/80/80 47/47/47 81/81/81
f 47/47/47 48/48/48 81/81/81
f 81/81/81 48/48/48 82/82/82
f 48/48/48 49/49/49 82/82/82
f 82/82/82 49/49/49 83/83/83
f 49/49/49 50/50/50 83/83/83
f 83/83/83 50/50/50 84/84/84
f 50/50/50 51/51/51 84/84/84
f 84/84/84 51/51/51 85/85/85
f 51/51/51 52/52/52 85/85/85
f 85/85/85 52/52/52 86/86/86
f 52/52/52 53/53/53 86/86/86
f 86/86/86 53/53/53 87/87/87
f 53/53/53 54/54/54 87/87/87
f 87/87/87 54/54/54 88/88/88
f 54/54/54 55/55/55 88/88/88
f 88/88/88 55/55/55 89/89/89
f 55/55/55 56/56/56 89/89/89
f 89/89/89 56/56/56 90/90/90
f 56/56/56 57/57/57 90/90/90
f 90/90/90 57/57/57 91/91/91
f 57/57/57 58/58/58 91/91/91
f 91/91/91 58/58/58 92/92/92
f 58/58/58 59/59/59 92/92/92
f 92/92/92 59/59/59 93/93/93
f 59/59/59 60/60/60 93/93/93
f 93/93/93 60/60/60 94/94/94
f 60/60/60 61/61/61 94/94/94
f 94/94/94 61/61/61 95/95/95
f 61/61/61 62/62/62 95/95/95
f 95/95/95 62/62/62 96/96/96
f 62/62/62 63/63/63 96/96/96
f 96/96/96 63/63/63 97/97/97
f 63/63/63 64/64/64 97/97/97
f 97/97/97 64/64/64 98/98/98
f 64/64/64 65/65/65 98/98/98
f 98/98/98 65/65/65 99/99/99
f 65/65/65 66/66/66 99/99/99
f 100/100/100 67/67/67 101/101/101
f 67/67/67 68/68/68 101/101/101
f 101/101/101 68/68/68 102/102/102
f 68/68/68 69/69/69 102/102/102
f 102/102/102 69/69/69 103/103/103
f 69/69/69 70/70/70 103/103/103
f 103/103/103 70/70/70 104/104/104
f 70/70/70 71/71/71 104/104/104
f 104/104/104 71/71/71 105/105/105
f 71/71/71 72/72/72 105/105/105
f 105/105/105 72/72/72 106/106/106
f 72/72/72 73/73/73 106/106/106
f 106/106/106 73/73/73 107/107/107
f 73/73/73 74/74/74 107/107/107
f 107/107/107 74/74/74 108/108/108
f 74/74/74 75/75/75 108/108/108
f 108/108/108 75/75/75 109/109/109
f 75/75/75 76/76/76 109/109/109
f 109/109/109 76/76/76 110/110/110
f 76/76/76 77/77/77 110/110/110
f 110/110/110 77/77/77 111/111/111
f 77/77/77 78/78/78 111/111/111
f 111/111/111 78/78/78 112/112/112
f 78/78/78 79/79/79 112/112/112
f 112/112/112 79/79/79 113/113/113
f 79/79/79 80/80/80 113/113/113
f 113/113/113 80/80/80 114/114/114
f 80/80/80 81/81/81 114/114/114
f 114/114/114 81/81/81 115/115/115
f 81/81/81 82/82/82 115/115/115
f 115/115/115 82/82/82 116/116/116
f 82/82/82 83/83/83 116/116/116
f 116/116/116 83/83/83 117/117/117
f 83/83/83 84/84/84 117/117/117
f 117/117/117 84/84/84 118/118/118
f 84/84/84 85/85/85 118/118/118
f 118/118/118 85/85/85 119/119/119
f 85/85/85 86/86/86 119/119/119
f 119/119/119 86/86/86 120/120/120
f 86/86/86 87/87/87 120/120/120
f 120/120/120 87/87/87 121/121/121
f 87/87/87 88/88/88 121/121/121
f 121/121/121 88/88/88 122/122/122
f 88/88/88 89/89/89 122/122/122
f 122/122/122 89/89/89 123/123/123
f 89/89/89 90/90/90 123/123/123
f 123/123/123 90/90/90 124/124/124
f 90/90/90 91/91/91 124/124/124
f 124/124/124 91/91/91 125/125/125
f 91/91/91 92/92/92 125/125/125
f 125/125/125 92/92/92 126/126/126
f 92/92/92 93/93/93 126/126/126
f 126/126/126 93/93/93 127/127/127
f 93/93/93 94/94/94 127/127/127
f 127/127/127 94/94/94 128/128/128
f 94/94/94 95/95/95 128/128/128
f 128/128/128 95/95/95 129/129/129
f 95/95/95 96/96/96 129/129/129
f 129/129/129 96/96/96 130/130/130
f 96/96/96 97/97/97 130/130/130
f 130/130/130 97/97/97 131/131/131
f 97/97/97 98/98/98 131/131/131
f 131/131/131 98/98/98 132/132/132
f 98/98/98 99/99/99 132/132/132
f 133/133/133 100/100/100 134/134/134
f 100/100/100 101/101/101 134/134/134
f 134/134/134 101/101/101 135/135/135
f 101/101/101 102/102/102 135/135/135
f 135/135/135 102/102/102 136/136/136
f 102/102/102 103/103/103 136/136/136
f 136/136/136 103/103/103 137/137/137
f 103/103/103 104/104/104 137/137/137
f 137/137/137 104/104/104 138/138/138
f 104/104/104 105/105/105 138/138/138
f 138/138/138 105/105/105 139/139/139
f 105/105/105 106/106/106 139/139/139
f 139/139/139 106/106/106 140/140/140
f 106/106/106 107/107/107 140/140/140
f 140/140/140 107/107/107 141/141/141
f 107/107/107 108/108/108 141/141/141
f 141/141/141 108/108/108 142/142/142
f 108/108/108 109/109/109 142/142/142
f 142/142/142 109/109/109 143/143/143
f 109/109/109 110/110/110 143/143/143
f 143/143/143 110/110/110 144/144/144
f 110/110/110 111/111/111 144/144/144
f 144/144/144 111/111/111 145/145/145
f 111/111/111 112/112/112 145/145/145
f 145/145/145 112/112/112 146/146/146
f 112/112/112 113/113/113 146/146/146
f 146/146/146 113/113/113 147/147/147
f 113/113/113 114/114/114 147/147/147
f 147/147/147 114/114/114 148/148/148
f 114/114/114 115/115/115 148/148/148
f 148/148/148 115/115/115 149/149/149
f 115/115/115 116/116/116 149/149/149
f 149/149/149 116/116/116 150/150/150
f 116/116/116 117/117/117 150/150/150
f 150/150/150 117/117/117 151/151/151
f 117/117/117 118/118/118 151/151/151
f 151/151/151 118/118/118 152/152/152
f 118/118/118 119/119/119 152/152/152
f 152/152/152 119/119/119 153/153/153
f 119/119/119 120/120/120 153/153/153
f 153/153/153 120/120/120 154/154/154
f 120/120/120 121/121/121 154/154/154
f 154/154/154 121/121/121 155/155/155
f 121/121/121 122/122/122 155/155/155
f 155/155/155 122/122/122 156/156/156
f 122/122/122 123/123/123 156/156/156
f 156/156/156 123/123/123 157/157/157
f 123/123/123 124/124/124 157/157/157
f 157/157/157 124/124/124 158/158/158
f 124/124/124 125/125/125 158/158/158
f 158/158/158 125/125/125 159/159/159
f 125/125/125 126/126/126 159/159/159
f 159/159/159 126/126/126 160/160/160
f 126/126/126 127/127/127 160/160/160
f 160/160/160 127/127/127 161/161/161
f 127/127/127 128/128/128 161/161/161
f 161/161/161 128/128/128 162/162/162
f 128/128/128 129/129/129 162/162/162
f 162/162/162 129/129/129 163/163/163
f 129/129/129 130/130/130 163/163/163
f 163/163/163 130/130/130 164/164/164
f 130/130/130 131/131/131 164/164/164
f 164/164/164 131/131/131 165/165/165
f 131/131/131 132/132/132 165/165/165
f 166/166/166 133/133/133 167/167/167
f 133/133/133 134/134/134 167/167/167
f 167/167/167 134/134/134 168/168/168
f 134/134/134 135/135/135 168/168/168
f 168/168/168 135/135/135 169/169/169
f 135/135/135 136/136/136 169/169/169
f 169/169/169 136/136/136 170/170/170
f 136/136/136 137/137/137 170/170/170
f 170/170/170 137/137/137 171/171/171
f 137/137/137 138/138/138 171/171/171
f 171/171/171 138/138/138 172/172/172
f 138/138/138 139/139/139 172/172/172
f 172/172/172 139/139/139 173/173/173
f 139/139/139 140/140/140 173/173/173
f 173/173/173 140/140/140 174/174/174
f 140/140/140 141/141/141 174/174/174
f 174/174/174 141/141/141 175/175/175
f 141/141/141 142/142/142 175/175/175
f 175/175/175 142/142/142 176/176/176
f 142/142/142 143/143/143 176/176/176
f 176/176/176 143/143/143 177/177/177
f 143/143/143 144/144/144 177/177/177
f 177/177/177 144/144/144 178/178/178
f 144/144/144 145/145/145 178/178/178
f 178/178/178 145/145/145 179/179/179
f 145/145/145 146/146/146 179/179/179
f 179/179/179 146/146/146 180/180/180
f 146/146/146 147/147/147 180/180/180
f 180/180/180 147/147/147 181/181/181
f 147/147/147 148/148/148 181/181/181
f 181/181/181 148/148/148 182/182/182
f 148/148/148 149/149/149 182/182/182
f 182/182/182 149/149/149 183/183/183
f 149/149/149 150/150/150 183/183/183
f 183/183/183 150/150/150 184/184/184
f 150/150/150 151/151/151 184/184/184
f 184/184/184 151/151/151 185/185/185
f 151/151/151 152/152/152 185/185/185
f 185/185/185 152/152/152 186/186/186
f 152/152/152 153/153/153 186/186/186
f 186/186/186 153/153/153 187/187/187
f 153/153/153 154/154/154 187/187/187
f 187/187/187 154/154/154 188/188/188
f 154/154/154 155/155/155 188/188/188
f 188/188/188 155/155/155 189/189/189
f 155/155/155 156/156/156 189/189/189
f 189/189/189 156/156/156 190/190/190
f 156/156/156 157/157/157 190/190/190
f 190/190/190 157/157/157 191/191/191
f 157/157/157 158/158/158 191/191/191
f 191/191/191 158/158/158 192/192/192
f 158/158/158 159/159/159 192/192/192
f 192/192/192 159/159/159 193/193/193
f 159/159/159 160/160/160 193/193/193
f 193/193/193 160/160/160 194/194/194
f 160/160/160 161/161/161 194/194/194
f 194/194/194 161/161/161 195/195/195
f 161/161/161 162/162/162 195/195/195
f 195/195/195 162/162/162 196/196/196
f 162/162/162 163/163/163 196/196/196
f 196/196/196 163/163/163 197/197/197
f 163/163/163 164/164/164 197/197/197
f 197/197/197 164/164/164 198/198/198
f 164/164/164 165/165/165 198/198/198
f 199/199/199 166/166/166 200/200/200
f 166/166/166 167/167/167 200/200/200
f 200/200/200 167/167/167 201/201/201
f 167/167/167 168/168/168 201/201/201
f 201/201/201 168/168/168 202/202/202
f 168/168/168 169/169/169 202/202/202
f 202/202/202 169/169/169 203/203/203
f 169/169/169 170/170/170 203/203/203
f 203/203/203 170/170/170 204/204/204
f 170/170/170 171/171/171 204/204/204
f 204/204/204 171/171/171 205/205/205
f 171/171/171 172/172/172 205/205/205
f 205/205/205 172/172/172 206/206/206
f 172/172/172 173/173/173 206/206/206
f 206/206/206 173/173/173 207/207/207
f 173/173/173 174/174/174 207/207/207
f 207/207/207 174/174/174 208/208/208
f 174/174/174 175/175/175 208/208/208
f 208/208/208 175/175/175 209/209/209
f 175/175/175 176/176/176 209/209/209
f 209/209/209 176/176/176 210/210/210
f 176/176/176 177/177/177 210/210/210
f 210/210/210 177/177/177 211/211/211
f 177/177/177 178/178/178 211/211/211
f 211/211/211 178/178/178 212/212/212
f 178/178/178 179/179/179 212/212/212
f 212/212/212 179/179/179 213/213/213
f 179/179/179 180/180/180 213/213/213
f 213/213/213 180/180/180 214/214/214
f 180/180/180 181/181/181 214/214/214
f 214/214/214 181/181/181 215/215/215
f 181/181/181 182/182/182 215/215/215
f 215/215/215 182/182/182 216/216/216
f 182/182/182 183/183/183 216/216/216
f 216/216/216 183/183/183 217/217/217
f 183/183/183 184/184/184 217/217/217
f 217/217/217 184/184/184 218/218/218
f 184/184/184 185/185/185 218/218/218
f 218/218/218 185/185/185 219/219/219
f 185/185/185 186/186/186 219/219/219
f 219/219/219 186/186/186 220/220/220
f 186/186/186 187/187/187 220/220/220
f 220/220/220 187/187/187 221/221/221
f 187/187/187 188/188/188 221/221/221
f 221/221/221 188/188/188 222/222/222
f 188/188/188 189/189/189 222/222/222
f 222/222/222 189/189/189 223/223/223
f 189/189/189 190/190/190 223/223/223
f 223/223/223 190/190/190 224/224/224
f 190/190/190 191/191/191 224/224/224
f 224/224/224 191/191/191 225/225/225
f 191/191/191 192/192/192 225/225/225
f 225/225/225 192/192/192 226/226/226
f 192/192/192 193/193/193 226/226/226
f 226/226/226 193/193/193 227/227/227
f 193/193/193 194/194/194 227/227/227
f 227/227/227 194/194/194 228/228/228
f 194/194/194 195/195/195 228/228/228
f 228/228/228 195/195/195 229/229/229
f 195/195/195 196/196/196 229/229/229
f 229/229/229 196/196/196 230/230/230
f 196/196/196 197/197/197 230/230/230
f 230/230/230 197/197/197 231/231/231
f 197/197/197 198/198/198 231/231/231
f 232/232/232 199/199/199 233/233/233
f 199/199/199 200/200/200 233/233/233
f 233/233/233 200/200/200 234/234/234
f 200/200/200 201/201/201 234/234/234
f 234/234/234 201/201/201 235/235/235
f 201/201/201 202/202/202 235/235/235
f 235/235/235 202/202/202 236/236/236
f 202/202/202 203/203/203 236/236/236
f 236/236/236 203/203/203 237/237/237
f 203/203/203 204/204/204 237/237/237
f 237/237/237 204/204/204 238/238/238
f 204/204/204 205/205/205 238/238/238
f 238/238/238 205/205/205 239/239/239
f 205/205/205 206/206/206 239/239/239
f 239/239/239 206/206/206 240/240/240
f 206/206/206 207/207/207 240/240/240
f 240/240/240 207/207/207 241/241/241
f 207/207/207 208/208/208 241/241/241
f 241/241/241 208/208/208 242/242/242
f 208/208/208 209/209/209 242/242/242
f 242/242/242 209/209/209 243/243/243
f 209/209/209 210/210/210 243/243/243
f 243/243/243 210/210/210 244/244/244
f 210/210/210 211/211/211 244/244/244
f 244/244/244 211/211/211 245/245/245
f 211/211/211 212/212/212 245/245/245
f 245/245/245 212/212/212 246/246/246
f 212/212/212 213/213/213 246/246/246
f 246/246/246 213/213/213 247/247/247
f 213/213/213 214/214/214 247/247/247
f 247/247/247 214/214/214 248/248/248
f 214/214/214 215/215/215 248/248/248
f 248/248/248 215/215/215 249/249/249
f 215/215/215 216/216/216 249/249/249
f 249/249/249 216/216/216 250/250/250
f 216/216/216 217/217/217 250/250/250
f 250/250/250 217/217/217 251/251/251
f 217/217/217 218/218/218 251/251/251
f 251/251/251 218/218/218 252/252/252
f 218/218/218 219/219/219 252/252/252
f 252/252/252 219/219/219 253/253/253
f 219/219/219 220/220/220 253/253/253
f 253/253/253 220/220/220 254/254/254
f 220/220/220 221/221/221 254/254/254
f 254/254/254 221/221/221 255/255/255
f 221/221/221 222/222/222 255/255/255
f 255/255/255 222/222/222 256/256/256
f 222/222/222 223/223/223 256/256/256
f 256/256/256 223/223/223 257/257/257
f 223/223/223 224/224/224 257/257/257
f 257/257/257 224/224/224 258/258/258
f 224/224/224 225/225/225 258/258/258
f 258/258/258 225/225/225 259/259/259
f 225/225/225 226/226/226 259/259/259
f 259/259/259 226/226/226 260/260/260
f 226/226/226 227/227/227 260/260/260
f 260/260/260 227/227/227 261/261/261
f 227/227/227 228/228/228 261/261/261
f 261/261/261 228/228/228 262/262/262
f 228/228/228 229/229/229 262/262/262
f 262/262/262 229/229/229 263/263/263
f 229/229/229 230/230/230 263/263/263
f 263/263/263 230/230/230 264/264/264
f 230/230/230 231/231/231 264/264/264
f 265/265/265 232/232/232 266/266/266
f 232/232/232 233/233/233 266/266/266
f 266/266/266 233/233/233 267/267/267
f 233/233/233 234/234/234 267/267/267
f 267/267/267 234/234/234 268/268/268
f 234/234/234 235/235/235 268/268/268
f 268/268/268 235/235/235 269/269/269
f 235/235/235 236/236/236 269/269/269
f 269/269/269 236/236/236 270/270/270
f 236/236/236 237/237/237 270/270/270
f 270/270/270 237/237/237 271/271/271
f 237/237/237 238/238/238 271/271/271
f 271/271/271 238/238/238 272/272/272
f 238/238/238 239/239/239 272/272/272
f 272/272/272 239/239/239 273/273/273
f 239/239/239 240/240/240 273/273/273
f 273/273/273 240/240/240 274/274/274
f 240/240/240 241/241/241 274/274/274
f 274/274/274 241/241/241 275/275/275
f 241/241/241 242/242/242 275/275/275
f 275/275/275 242/242/242 276/276/276
f 242/242/242 243/243/243 276/276/276
f 276/276/276 243/243/243 277/277/277
f 243/243/243 244/244/244 277/277/277
f 277/277/277 244/244/244 278/278/278
f 244/244/244 245/245/245 278/278/278
f 278/278/278 245/245/245 279/279/279
f 245/245/245 246/246/246 279/279/279
f 279/279/279 246/246/246 280/280/280
f 246/246/246 247/247/247 280/280/280
f 280/280/280 247/247/247 281/281/281
f 247/247/247 248/248/248 281/281/281
f 281/281/281 248/248/248 282/282/282
f 248/248/248 249/249/249 282/282/282
f 282/282/282 249/249/249 283/283/283
f 249/249/249 250/250/250 283/283/283
f 283/283/283 250/250/250 284/284/284
f 250/250/250 251/251/251 284/284/284
f 284/284/284 251/251/251 285/285/285
f 251/251/251 252/252/252 285/285/285
f 285/285/285 252/252/252 286/286/286
f 252/252/252 253/253/253 286/286/286
f 286/286/286 253/253/253 287/287/287
f 253/253/253 254/254/254 287/287/287
f 287/287/287 254/254/254 288/288/288
f 254/254/254 255/255/255 288/288/288
f 288/288/288 255/255/255 289/289/289
f 255/255/255 256/256/256 289/289/289
f 289/289/289 256/256/256 290/290/290
f 256/256/256 257/257/257 290/290/290
f 290/290/290 257/257/257 291/291/291
f 257/257/257 258/258/258 291/291/291
f 291/291/291 258/258/258 292/292/292
f 258/258/258 259/259/259 292/292/292
f 292/292/292 259/259/259 293/293/293
f 259/259/259 260/260/260 293/293/293
f 293/293/293 260/260/260 294/294/294
f 260/260/260 261/261/261 294/294/294
f 294/294/294 261/261/261 295/295/295
f 261/261/261 262/262/262 295/295/295
f 295/295/295 262/262/262 296/296/296
f 262/262/262 263/263/263 296/296/296
f 296/296/296 263/263/263 297/297/297
f 263/263/263 264/264/264 297/297/297
f 298/298/298 265/265/265 299/299/299
f 265/265/265 266/266/266 299/299/299
f 299/299/299 266/266/266 300/300/300
f 266/266/266 267/267/267 300/300/300
f 300/300/300 267/267/267 301/301/301
f 267/267/267 268/268/268 301/301/301
f 301/301/301 268/268/268 302/302/302
f 268/268/268 269/269/269 302/302/302
f 302/302/302 269/269/269 303/303/303
f 269/269/269 270/270/270 303/303/303
f 303/303/303 270/270/270 304/304/304
f 270/270/270 271/271/271 304/304/304
f 304/304/304 271/271/271 305/305/305
f 271/271/271 272/272/272 305/305/305
f 305/305/305 272/272/272 306/306/306
f 272/272/272 273/273/273 306/306/306
f 306/306/306 273/273/273 307/307/307
f 273/273/273 274/274/274 307/307/307
f 307/307/307 274/274/274 308/308/308
f 274/274/274 275/275/275 308/308/308
f 308/308/308 275/275/275 309/309/309
f 275/275/275 276/276/276 309/309/309
f 309/309/309 276/276/276 310/310/310
f 276/276/276 277/277/277 310/310/310
f 310/310/310 277/277/277 311/311/311
f 277/277/277 278/278/278 311/311/311
f 311/311/311 278/278/278 312/312/312
f 278/278/278 279/279/279 312/312/312
f 312/312/312 279/279/279 313/313/313
f 279/279/279 280/280/280 313/313/313
f 313/313/313 280/280/280 314/314/314
f 280/280/280 281/281/281 314/314/314
f 314/314/314 281/281/281 315/315/315
f 281/281/281 282/282/282 315/315/315
f 315/315/315 282/282/282 316/316/316
f 282/282/282 283/283/283 316/316/316
f 316/316/316 283/283/283 317/317/317
f 283/283/283 284/284/284 317/317/317
f 317/317/317 284/284/284 318/318/318
f 284/284/284 285/285/285 318/318/318
f 318/318/318 285/285/285 319/319/319
f 285/285/285 286/286/286 319/319/319
f 319/319/319 286/286/286 320/320/320
f 286/286/286 287/287/287 320/320/320
f 320/320/320 287/287/287 321/321/321
f 287/287/287 288/288/288 321/321/321
f 321/321/321 288/288/288 322/322/322
f 288/288/288 289/289/289 322/322/322
f 322/322/322 289/289/289 323/323/323
f 289/289/289 290/290/290 323/323/323
f 323/323/323 290/290/290 324/324/324
f 290/290/290 291/291/291 324/324/324
f 324/324/324 291/291/291 325/325/325
f 291/291/291 292/292/292 325/325/325
f 325/325/325 292/292/292 326/326/326
f 292/292/292 293/293/293 326/326/326
f 326/326/326 293/293/293 327/327/327
f 293/293/293 294/294/294 327/327/327
f 327/327/327 294/294/294 328/328/328
f 294/294/294 295/295/295 328/328/328
f 328/328/328 295/295/295 329/329/329
f 295/295/295 296/296/296 329/329/329
f 329/329/329 296/296/296 330/330/330
f 296/296/296 297/297/297 330/330/330
f 331/331/331 298/298/298 332/332/332
f 298/298/298 299/299/299 332/332/332
f 332/332/332 299/299/299 333/333/333
f 299/299/299 300/300/300 333/333/333
f 333/333/333 300/300/300 334/334/334
f 300/300/300 301/301/301 334/334/334
f 334/334/334 301/301/301 335/335/335
f 301/301/301 302/302/302 335/335/335
f 335/335/335 302/302/302 336/336/336
f 302/302/302 303/303/303 336/336/336
f 336/336/336 303/303/303 337/337/337
f 303/303/303 304/304/304 337/337/337
f 337/337/337 304/304/304 338/338/338
f 304/304/304 305/305/305 338/338/338
f 338/338/338 305/305/305 339/339/339
f 305/305/305 306/306/306 339/339/339
f 339/339/339 306/306/306 340/340/340
f 306/306/306 307/307/307 340/340/340
f 340/340/340 307/307/307 341/341/341
f 307/307/307 308/308/308 341/341/341
f 341/341/341 308/308/308 342/342/342
f 308/308/308 309/309/309 342/342/342
f 342/342/342 309/309/309 343/343/343
f 309/309/309 310/310/310 343/343/343
f 343/343/343 310/310/310 344/344/344
f 310/310/310 311/311/311 344/344/344
f 344/344/344 311/311/311 345/345/345
f 311/311/311 312/312/312 345/345/345
f 345/345/345 312/312/312 346/346/346
f 312/312/312 313/313/313 346/346/346
f 346/346/346 313/313/313 347/347/347
f 313/313/313 314/314/314 347/347/347
f 347/347/347 314/314/314 348/348/348
f 314/314/314 315/315/315 348/348/348
f 348/348/348 315/315/315 349/349/349
f 315/315/315 316/316/316 349/349/349
f 349/349/349 316/316/316 350/350/350
f 316/316/316 317/317/317 350/350/350
f 350/350/350 317/317/317 351/351/351
f 317/317/317 318/318/318 351/351/351
f 351/351/351 318/318/318 352/352/352
f 318/318/318 319/319/319 352/352/352
f 352/352/352 319/319/319 353/353/353
f 319/319/319 320/320/320 353/353/353
f 353/353/353 320/320/320 354/354/354
f 320/320/320 321/321/321 354/354/354
f 354/354/354 321/321/321 355/355/355
f 321/321/321 322/322/322 355/355/355
f 355/355/355 322/322/322 356/356/356
f 322/322/322 323/323/323 356/356/356
f 356/356/356 323/323/323 357/357/357
f 323/323/323 324/324/324 357/357/357
f 357/357/357 324/324/324 358/358/358
f 324/324/324 325/325/325 358/358/358
f 358/358/358 325/325/325 359/359/359
f 325/325/325 326/326/326 359/359/359
f 359/359/359 326/326/326 360/360/360
f 326/326/326 327/327/327 360/360/360
f 360/360/360 327/327/327 361/361/361
f 327/327/327 328/328/328 361/361/361
f 361/361/361 328/328/328 362/362/362
f 328/328/328 329/329/329 362/362/362
f 362/362/362 329/329/329 363/363/363
f 329/329/329 330/330/330 363/363/363
