o shape_096
v 1 0 0
v 0.9951847791671753 0.0980171486735344 0
v 0.9807852506637573 0.19509032368659973 0
v 0.9569404125213623 0.2902846932411194 0
v 0.9238796234130859 0.3826834559440613 0
v 0.8819212913513184 0.4713967442512512 0
v 0.8314696550369263 0.5555702447891235 0
v 0.7730104923248291 0.6343933343887329 0
v 0.7071068286895752 0.7071068286895752 0
v 0.6343933343887329 0.7730104923248291 0
v 0.5555702447891235 0.8314696550369263 0
v 0.4713967442512512 0.8819212913513184 0
v 0.3826834559440613 0.9238796234130859 0
v 0.2902846932411194 0.9569404125213623 0
v 0.19509032368659973 0.9807852506637573 0
v 0.0980171486735344 0.9951847791671753 0
v 6.123234262925839e-17 1 0
v -0.0980171486735344 0.9951847791671753 0
v -0.19509032368659973 0.9807852506637573 0
v -0.2902846932411194 0.9569404125213623 0
v -0.3826834559440613 0.9238796234130859 0
v -0.4713967442512512 0.8819212913513184 0
v -0.5555702447891235 0.8314696550369263 0
v -0.6343933343887329 0.7730104923248291 0
v -0.7071068286895752 0.7071068286895752 0
v -0.7730104923248291 0.6343933343887329 0
v -0.8314696550369263 0.5555702447891235 0
v -0.8819212913513184 0.4713967442512512 0
v -0.9238796234130859 0.3826834559440613 0
v -0.9569404125213623 0.2902846932411194 0
v -0.9807852506637573 0.19509032368659973 0
v -0.9951847791671753 0.0980171486735344 0
v -1 1.2246468525851679e-16 0
v 0.9708670377731323 0 0.08966215699911118
v 0.9661920666694641 0.09516160935163498 0.08966215699911118
v 0.9522121548652649 0.18940676748752594 0.08966215699911118
v 0.9290618896484375 0.28182780742645264 0.08966215699911118
v 0.8969641923904419 0.3715347349643707 0.08966215699911118
v 0.8562283515930176 0.45766356587409973 0.08966215699911118
v 0.8072464466094971 0.5393848419189453 0.08966215699911118
v 0.7504903674125671 0.6159115433692932 0.08966215699911118
v 0.6865066885948181 0.6865066885948181 0.08966215699911118
v 0.6159115433692932 0.7504903674125671 0.08966215699911118
v 0.5393848419189453 0.8072464466094971 0.08966215699911118
v 0.45766356587409973 0.8562283515930176 0.08966215699911118
v 0.3715347349643707 0.8969641923904419 0.08966215699911118
v 0.28182780742645264 0.9290618896484375 0.08966215699911118
v 0.18940676748752594 0.9522121548652649 0.08966215699911118
v 0.09516160935163498 0.9661920666694641 0.08966215699911118
v 5.944845815511633e-17 0.9708670377731323 0.08966215699911118
v -0.09516160935163498 0.9661920666694641 0.08966215699911118
v -0.18940676748752594 0.9522121548652649 0.08966215699911118
v -0.28182780742645264 0.9290618896484375 0.08966215699911118
v -0.3715347349643707 0.8969641923904419 0.08966215699911118
v -0.45766356587409973 0.8562283515930176 0.08966215699911118
v -0.5393848419189453 0.8072464466094971 0.08966215699911118
v -0.6159115433692932 0.7504903674125671 0.08966215699911118
v -0.6865066885948181 0.6865066885948181 0.08966215699911118
v -0.7504903674125671 0.6159115433692932 0.08966215699911118
v -0.8072464466094971 0.5393848419189453 0.08966215699911118
v -0.8562283515930176 0.45766356587409973 0.08966215699911118
v -0.8969641923904419 0.3715347349643707 0.08966215699911118
v -0.9290618896484375 0.28182780742645264 0.08966215699911118
v -0.9522121548652649 0.18940676748752594 0.08966215699911118
v -0.9661920666694641 0.09516160935163498 0.08966215699911118
v -0.9708670377731323 1.1889691631023267e-16 0.08966215699911118
v 0.8945958614349365 0 0.1450764238834381
v 0.8902881741523743 0.087685726583004 0.1450764238834381
v 0.8774064779281616 0.17452698945999146 0.1450764238834381
v 0.856074869632721 0.25968748331069946 0.1450764238834381
v 0.826498806476593 0.34234702587127686 0.1450764238834381
v 0.7889631390571594 0.4217095673084259 0.1450764238834381
v 0.7438292503356934 0.49701082706451416 0.1450764238834381
v 0.6915319561958313 0.5675256252288818 0.1450764238834381
v 0.6325747966766357 0.6325747966766357 0.1450764238834381
v 0.5675256252288818 0.6915319561958313 0.1450764238834381
v 0.49701082706451416 0.7438292503356934 0.1450764238834381
v 0.4217095673084259 0.7889631390571594 0.1450764238834381
v 0.34234702587127686 0.826498806476593 0.1450764238834381
v 0.25968748331069946 0.856074869632721 0.1450764238834381
v 0.17452698945999146 0.8774064779281616 0.1450764238834381
v 0.087685726583004 0.8902881741523743 0.1450764238834381
v 5.477819641664194e-17 0.8945958614349365 0.1450764238834381
v -0.087685726583004 0.8902881741523743 0.1450764238834381
v -0.17452698945999146 0.8774064779281616 0.1450764238834381
v -0.25968748331069946 0.856074869632721 0.1450764238834381
v -0.34234702587127686 0.826498806476593 0.1450764238834381
v -0.4217095673084259 0.7889631390571594 0.1450764238834381
v -0.49701082706451416 0.7438292503356934 0.1450764238834381
v -0.5675256252288818 0.6915319561958313 0.1450764238834381
v -0.6325747966766357 0.6325747966766357 0.1450764238834381
v -0.6915319561958313 0.5675256252288818 0.1450764238834381
v -0.7438292503356934 0.49701082706451416 0.1450764238834381
v -0.7889631390571594 0.4217095673084259 0.1450764238834381
v -0.826498806476593 0.34234702587127686 0.1450764238834381
v -0.856074869632721 0.25968748331069946 0.1450764238834381
v -0.8774064779281616 0.17452698945999146 0.1450764238834381
v -0.8902881741523743 0.087685726583004 0.1450764238834381
v -0.8945958614349365 1.0955639283328388e-16 0.1450764238834381
v 0.800319492816925 0 0.1450764238834381
v 0.7964657545089722 0.07844502478837967 0.1450764238834381
v 0.784941554069519 0.15613459050655365 0.1450764238834381
v 0.765857994556427 0.23232047259807587 0.1450764238834381
v 0.7393987774848938 0.3062690198421478 0.1450764238834381
v 0.705818772315979 0.377267986536026 0.1450764238834381
v 0.6654413342475891 0.44463369250297546 0.1450764238834381
v 0.6186553239822388 0.5077173113822937 0.1450764238834381
v 0.5659113526344299 0.5659113526344299 0.1450764238834381
v 0.5077173113822937 0.6186553239822388 0.1450764238834381
v 0.44463369250297546 0.6654413342475891 0.1450764238834381
v 0.377267986536026 0.705818772315979 0.1450764238834381
v 0.3062690198421478 0.7393987774848938 0.1450764238834381
v 0.23232047259807587 0.765857994556427 0.1450764238834381
v 0.15613459050655365 0.784941554069519 0.1450764238834381
v 0.07844502478837967 0.7964657545089722 0.1450764238834381
v 4.900543527053237e-17 0.800319492816925 0.1450764238834381
v -0.07844502478837967 0.7964657545089722 0.1450764238834381
v -0.15613459050655365 0.784941554069519 0.1450764238834381
v -0.23232047259807587 0.765857994556427 0.1450764238834381
v -0.3062690198421478 0.7393987774848938 0.1450764238834381
v -0.377267986536026 0.705818772315979 0.1450764238834381
v -0.44463369250297546 0.6654413342475891 0.1450764238834381
v -0.5077173113822937 0.6186553239822388 0.1450764238834381
v -0.5659113526344299 0.5659113526344299 0.1450764238834381
v -0.6186553239822388 0.5077173113822937 0.1450764238834381
v -0.6654413342475891 0.44463369250297546 0.1450764238834381
v -0.705818772315979 0.377267986536026 0.1450764238834381
v -0.7393987774848938 0.3062690198421478 0.1450764238834381
v -0.765857994556427 0.23232047259807587 0.1450764238834381
v -0.784941554069519 0.15613459050655365 0.1450764238834381
v -0.7964657545089722 0.07844502478837967 0.1450764238834381
v -0.800319492816925 9.801087054106474e-17 0.1450764238834381
v 0.7240482568740845 0 0.08966215699911118
v 0.7205618023872375 0.07096914201974869 0.08966215699911118
v 0.7101358771324158 0.14125481247901917 0.08966215699911118
v 0.6928709745407104 0.2101801186800003 0.08966215699911118
v 0.6689333915710449 0.27708128094673157 0.08966215699911118
v 0.6385535597801208 0.3413139879703522 0.08966215699911118
v 0.6020241379737854 0.4022596776485443 0.08966215699911118
v 0.5596969127655029 0.4593313932418823 0.08966215699911118
v 0.5119794607162476 0.5119794607162476 0.08966215699911118
v 0.4593313932418823 0.5596969127655029 0.08966215699911118
v 0.4022596776485443 0.6020241379737854 0.08966215699911118
v 0.3413139879703522 0.6385535597801208 0.08966215699911118
v 0.27708128094673157 0.6689333915710449 0.08966215699911118
v 0.2101801186800003 0.6928709745407104 0.08966215699911118
v 0.14125481247901917 0.7101358771324158 0.08966215699911118
v 0.07096914201974869 0.7205618023872375 0.08966215699911118
v 4.4335170223335524e-17 0.7240482568740845 0.08966215699911118
v -0.07096914201974869 0.7205618023872375 0.08966215699911118
v -0.14125481247901917 0.7101358771324158 0.08966215699911118
v -0.2101801186800003 0.6928709745407104 0.08966215699911118
v -0.27708128094673157 0.6689333915710449 0.08966215699911118
v -0.3413139879703522 0.6385535597801208 0.08966215699911118
v -0.4022596776485443 0.6020241379737854 0.08966215699911118
v -0.4593313932418823 0.5596969127655029 0.08966215699911118
v -0.5119794607162476 0.5119794607162476 0.08966215699911118
v -0.5596969127655029 0.4593313932418823 0.08966215699911118
v -0.6020241379737854 0.4022596776485443 0.08966215699911118
v -0.6385535597801208 0.3413139879703522 0.08966215699911118
v -0.6689333915710449 0.27708128094673157 0.08966215699911118
v -0.6928709745407104 0.2101801186800003 0.08966215699911118
v -0.7101358771324158 0.14125481247901917 0.08966215699911118
v -0.7205618023872375 0.07096914201974869 0.08966215699911118
v -0.7240482568740845 8.867034044667105e-17 0.08966215699911118
v 0.6949152946472168 0 1.8681053571342477e-17
v 0.6915690898895264 0.06811361014842987 1.8681053571342477e-17
v 0.6815626621246338 0.13557125627994537 1.8681053571342477e-17
v 0.6649925112724304 0.20172324776649475 1.8681053571342477e-17
v 0.6420180201530457 0.265932559967041 1.8681053571342477e-17
v 0.6128606200218201 0.3275808095932007 1.8681053571342477e-17
v 0.5778009295463562 0.3860742449760437 1.8681053571342477e-17
v 0.537176787853241 0.4408496022224426 1.8681053571342477e-17
v 0.4913792908191681 0.4913792908191681 1.8681053571342477e-17
v 0.4408496022224426 0.537176787853241 1.8681053571342477e-17
v 0.3860742449760437 0.5778009295463562 1.8681053571342477e-17
v 0.3275808095932007 0.6128606200218201 1.8681053571342477e-17
v 0.265932559967041 0.6420180201530457 1.8681053571342477e-17
v 0.20172324776649475 0.6649925112724304 1.8681053571342477e-17
v 0.13557125627994537 0.6815626621246338 1.8681053571342477e-17
v 0.06811361014842987 0.6915690898895264 1.8681053571342477e-17
v 4.2551289057915915e-17 0.6949152946472168 1.8681053571342477e-17
v -0.06811361014842987 0.6915690898895264 1.8681053571342477e-17
v -0.13557125627994537 0.6815626621246338 1.8681053571342477e-17
v -0.20172324776649475 0.6649925112724304 1.8681053571342477e-17
v -0.265932559967041 0.6420180201530457 1.8681053571342477e-17
v -0.3275808095932007 0.6128606200218201 1.8681053571342477e-17
v -0.3860742449760437 0.5778009295463562 1.8681053571342477e-17
v -0.4408496022224426 0.537176787853241 1.8681053571342477e-17
v -0.4913792908191681 0.4913792908191681 1.8681053571342477e-17
v -0.537176787853241 0.4408496022224426 1.8681053571342477e-17
v -0.5778009295463562 0.3860742449760437 1.8681053571342477e-17
v -0.6128606200218201 0.3275808095932007 1.8681053571342477e-17
v -0.6420180201530457 0.265932559967041 1.8681053571342477e-17
v -0.6649925112724304 0.20172324776649475 1.8681053571342477e-17
v -0.6815626621246338 0.13557125627994537 1.8681053571342477e-17
v -0.6915690898895264 0.06811361014842987 1.8681053571342477e-17
v -0.6949152946472168 8.510257811583183e-17 1.8681053571342477e-17
v 0.7240482568740845 0 -0.08966215699911118
v 0.7205618023872375 0.07096914201974869 -0.08966215699911118
v 0.7101358771324158 0.14125481247901917 -0.08966215699911118
v 0.6928709745407104 0.2101801186800003 -0.08966215699911118
v 0.6689333915710449 0.27708128094673157 -0.08966215699911118
v 0.6385535597801208 0.3413139879703522 -0.08966215699911118
v 0.6020241379737854 0.4022596776485443 -0.08966215699911118
v 0.5596969127655029 0.4593313932418823 -0.08966215699911118
v 0.5119794607162476 0.5119794607162476 -0.08966215699911118
v 0.4593313932418823 0.5596969127655029 -0.08966215699911118
v 0.4022596776485443 0.6020241379737854 -0.08966215699911118
v 0.3413139879703522 0.6385535597801208 -0.08966215699911118
v 0.27708128094673157 0.6689333915710449 -0.08966215699911118
v 0.2101801186800003 0.6928709745407104 -0.08966215699911118
v 0.14125481247901917 0.7101358771324158 -0.08966215699911118
v 0.07096914201974869 0.7205618023872375 -0.08966215699911118
v 4.4335170223335524e-17 0.7240482568740845 -0.08966215699911118
v -0.07096914201974869 0.7205618023872375 -0.08966215699911118
v -0.14125481247901917 0.7101358771324158 -0.08966215699911118
v -0.2101801186800003 0.6928709745407104 -0.08966215699911118
v -0.27708128094673157 0.6689333915710449 -0.08966215699911118
v -0.3413139879703522 0.6385535597801208 -0.08966215699911118
v -0.4022596776485443 0.6020241379737854 -0.08966215699911118
v -0.4593313932418823 0.5596969127655029 -0.08966215699911118
v -0.5119794607162476 0.5119794607162476 -0.08966215699911118
v -0.5596969127655029 0.4593313932418823 -0.08966215699911118
v -0.6020241379737854 0.4022596776485443 -0.08966215699911118
v -0.6385535597801208 0.3413139879703522 -0.08966215699911118
v -0.6689333915710449 0.27708128094673157 -0.08966215699911118
v -0.6928709745407104 0.2101801186800003 -0.08966215699911118
v -0.7101358771324158 0.14125481247901917 -0.08966215699911118
v -0.7205618023872375 0.07096914201974869 -0.08966215699911118
v -0.7240482568740845 8.867034044667105e-17 -0.08966215699911118
v 0.800319492816925 0 -0.1450764238834381
v 0.7964657545089722 0.07844502478837967 -0.1450764238834381
v 0.784941554069519 0.15613459050655365 -0.1450764238834381
v 0.765857994556427 0.23232047259807587 -0.1450764238834381
v 0.7393987774848938 0.3062690198421478 -0.1450764238834381
v 0.705818772315979 0.377267986536026 -0.1450764238834381
v 0.6654413342475891 0.44463369250297546 -0.1450764238834381
v 0.6186553239822388 0.5077173113822937 -0.1450764238834381
v 0.5659113526344299 0.5659113526344299 -0.1450764238834381
v 0.5077173113822937 0.6186553239822388 -0.1450764238834381
v 0.44463369250297546 0.6654413342475891 -0.1450764238834381
v 0.377267986536026 0.705818772315979 -0.1450764238834381
v 0.3062690198421478 0.7393987774848938 -0.1450764238834381
v 0.23232047259807587 0.765857994556427 -0.1450764238834381
v 0.15613459050655365 0.784941554069519 -0.1450764238834381
v 0.07844502478837967 0.7964657545089722 -0.1450764238834381
v 4.900543527053237e-17 0.800319492816925 -0.1450764238834381
v -0.07844502478837967 0.7964657545089722 -0.1450764238834381
v -0.15613459050655365 0.784941554069519 -0.1450764238834381
v -0.23232047259807587 0.765857994556427 -0.1450764238834381
v -0.3062690198421478 0.7393987774848938 -0.1450764238834381
v -0.377267986536026 0.705818772315979 -0.1450764238834381
v -0.44463369250297546 0.6654413342475891 -0.1450764238834381
v -0.5077173113822937 0.6186553239822388 -0.1450764238834381
v -0.5659113526344299 0.5659113526344299 -0.1450764238834381
v -0.6186553239822388 0.5077173113822937 -0.1450764238834381
v -0.6654413342475891 0.44463369250297546 -0.1450764238834381
v -0.705818772315979 0.377267986536026 -0.1450764238834381
v -0.7393987774848938 0.3062690198421478 -0.1450764238834381
v -0.765857994556427 0.23232047259807587 -0.1450764238834381
v -0.784941554069519 0.15613459050655365 -0.1450764238834381
v -0.7964657545089722 0.07844502478837967 -0.1450764238834381
v -0.800319492816925 9.801087054106474e-17 -0.1450764238834381
v 0.8945958614349365 0 -0.1450764238834381
v 0.8902881741523743 0.087685726583004 -0.1450764238834381
v 0.8774064779281616 0.17452698945999146 -0.1450764238834381
v 0.856074869632721 0.25968748331069946 -0.1450764238834381
v 0.826498806476593 0.34234702587127686 -0.1450764238834381
v 0.7889631390571594 0.4217095673084259 -0.1450764238834381
v 0.7438292503356934 0.49701082706451416 -0.1450764238834381
v 0.6915319561958313 0.5675256252288818 -0.1450764238834381
v 0.6325747966766357 0.6325747966766357 -0.1450764238834381
v 0.5675256252288818 0.6915319561958313 -0.1450764238834381
v 0.49701082706451416 0.7438292503356934 -0.1450764238834381
v 0.4217095673084259 0.7889631390571594 -0.1450764238834381
v 0.34234702587127686 0.826498806476593 -0.1450764238834381
v 0.25968748331069946 0.856074869632721 -0.1450764238834381
v 0.17452698945999146 0.8774064779281616 -0.1450764238834381
v 0.087685726583004 0.8902881741523743 -0.1450764238834381
v 5.477819641664194e-17 0.8945958614349365 -0.1450764238834381
v -0.087685726583004 0.8902881741523743 -0.1450764238834381
v -0.17452698945999146 0.8774064779281616 -0.1450764238834381
v -0.25968748331069946 0.856074869632721 -0.1450764238834381
v -0.34234702587127686 0.826498806476593 -0.1450764238834381
v -0.4217095673084259 0.7889631390571594 -0.1450764238834381
v -0.49701082706451416 0.7438292503356934 -0.1450764238834381
v -0.5675256252288818 0.6915319561958313 -0.1450764238834381
v -0.6325747966766357 0.6325747966766357 -0.1450764238834381
v -0.6915319561958313 0.5675256252288818 -0.1450764238834381
v -0.7438292503356934 0.49701082706451416 -0.1450764238834381
v -0.7889631390571594 0.4217095673084259 -0.1450764238834381
v -0.826498806476593 0.34234702587127686 -0.1450764238834381
v -0.856074869632721 0.25968748331069946 -0.1450764238834381
v -0.8774064779281616 0.17452698945999146 -0.1450764238834381
v -0.8902881741523743 0.087685726583004 -0.1450764238834381
v -0.8945958614349365 1.0955639283328388e-16 -0.1450764238834381
v 0.9708670377731323 0 -0.08966215699911118
v 0.9661920666694641 0.09516160935163498 -0.08966215699911118
v 0.9522121548652649 0.18940676748752594 -0.08966215699911118
v 0.9290618896484375 0.28182780742645264 -0.08966215699911118
v 0.8969641923904419 0.3715347349643707 -0.08966215699911118
v 0.8562283515930176 0.45766356587409973 -0.08966215699911118
v 0.8072464466094971 0.5393848419189453 -0.08966215699911118
v 0.7504903674125671 0.6159115433692932 -0.08966215699911118
v 0.6865066885948181 0.6865066885948181 -0.08966215699911118
v 0.6159115433692932 0.7504903674125671 -0.08966215699911118
v 0.5393848419189453 0.8072464466094971 -0.08966215699911118
v 0.45766356587409973 0.8562283515930176 -0.08966215699911118
v 0.3715347349643707 0.8969641923904419 -0.08966215699911118
v 0.28182780742645264 0.9290618896484375 -0.08966215699911118
v 0.18940676748752594 0.9522121548652649 -0.08966215699911118
v 0.09516160935163498 0.9661920666694641 -0.08966215699911118
v 5.944845815511633e-17 0.9708670377731323 -0.08966215699911118
v -0.09516160935163498 0.9661920666694641 -0.08966215699911118
v -0.18940676748752594 0.9522121548652649 -0.08966215699911118
v -0.28182780742645264 0.9290618896484375 -0.08966215699911118
v -0.3715347349643707 0.8969641923904419 -0.08966215699911118
v -0.45766356587409973 0.8562283515930176 -0.08966215699911118
v -0.5393848419189453 0.8072464466094971 -0.08966215699911118
v -0.6159115433692932 0.7504903674125671 -0.08966215699911118
v -0.6865066885948181 0.6865066885948181 -0.08966215699911118
v -0.7504903674125671 0.6159115433692932 -0.08966215699911118
v -0.8072464466094971 0.5393848419189453 -0.08966215699911118
v -0.8562283515930176 0.45766356587409973 -0.08966215699911118
v -0.8969641923904419 0.3715347349643707 -0.08966215699911118
v -0.9290618896484375 0.28182780742645264 -0.08966215699911118
v -0.9522121548652649 0.18940676748752594 -0.08966215699911118
v -0.9661920666694641 0.09516160935163498 -0.08966215699911118
v -0.9708670377731323 1.1889691631023267e-16 -0.08966215699911118
v 1 0 -3.7362107142684955e-17
v 0.9951847791671753 0.0980171486735344 -3.7362107142684955e-17
v 0.9807852506637573 0.19509032368659973 -3.7362107142684955e-17
v 0.9569404125213623 0.2902846932411194 -3.7362107142684955e-17
v 0.9238796234130859 0.3826834559440613 -3.7362107142684955e-17
v 0.8819212913513184 0.4713967442512512 -3.7362107142684955e-17
v 0.8314696550369263 0.5555702447891235 -3.7362107142684955e-17
v 0.7730104923248291 0.6343933343887329 -3.7362107142684955e-17
v 0.7071068286895752 0.7071068286895752 -3.7362107142684955e-17
v 0.6343933343887329 0.7730104923248291 -3.7362107142684955e-17
v 0.5555702447891235 0.8314696550369263 -3.7362107142684955e-17
v 0.4713967442512512 0.8819212913513184 -3.7362107142684955e-17
v 0.3826834559440613 0.9238796234130859 -3.7362107142684955e-17
v 0.2902846932411194 0.9569404125213623 -3.7362107142684955e-17
v 0.19509032368659973 0.9807852506637573 -3.7362107142684955e-17
v 0.0980171486735344 0.9951847791671753 -3.7362107142684955e-17
v 6.123234262925839e-17 1 -3.7362107142684955e-17
v -0.0980171486735344 0.9951847791671753 -3.7362107142684955e-17
v -0.19509032368659973 0.9807852506637573 -3.7362107142684955e-17
v -0.2902846932411194 0.9569404125213623 -3.7362107142684955e-17
v -0.3826834559440613 0.9238796234130859 -3.7362107142684955e-17
v -0.4713967442512512 0.8819212913513184 -3.7362107142684955e-17
v -0.5555702447891235 0.8314696550369263 -3.7362107142684955e-17
v -0.6343933343887329 0.7730104923248291 -3.7362107142684955e-17
v -0.7071068286895752 0.7071068286895752 -3.7362107142684955e-17
v -0.7730104923248291 0.6343933343887329 -3.7362107142684955e-17
v -0.8314696550369263 0.5555702447891235 -3.7362107142684955e-17
v -0.8819212913513184 0.4713967442512512 -3.7362107142684955e-17
v -0.9238796234130859 0.3826834559440613 -3.7362107142684955e-17
v -0.9569404125213623 0.2902846932411194 -3.7362107142684955e-17
v -0.9807852506637573 0.19509032368659973 -3.7362107142684955e-17
v -0.9951847791671753 0.0980171486735344 -3.7362107142684955e-17
v -1 1.2246468525851679e-16 -3.7362107142684955e-17
vt 0 0
vt 0.03125 0
vt 0.0625 0
vt 0.09375 0
vt 0.125 0
vt 0.15625 0
vt 0.1875 0
vt 0.21875 0
vt 0.25 0
vt 0.28125 0
vt 0.3125 0
vt 0.34375 0
vt 0.375 0
vt 0.40625 0
vt 0.4375 0
vt 0.46875 0
vt 0.5 0
vt 0.53125 0
vt 0.5625 0
vt 0.59375 0
vt 0.625 0
vt 0.65625 0
vt 0.6875 0
vt 0.71875 0
vt 0.75 0
vt 0.78125 0
vt 0.8125 0
vt 0.84375 0
vt 0.875 0
vt 0.90625 0
vt 0.9375 0
vt 0.96875 0
vt 1 0
vt 0 0.10000000149011612
vt 0.03125 0.10000000149011612
vt 0.0625 0.10000000149011612
vt 0.09375 0.10000000149011612
vt 0.125 0.10000000149011612
vt 0.15625 0.10000000149011612
vt 0.1875 0.10000000149011612
vt 0.21875 0.10000000149011612
vt 0.25 0.10000000149011612
vt 0.28125 0.10000000149011612
vt 0.3125 0.10000000149011612
vt 0.34375 0.10000000149011612
vt 0.375 0.10000000149011612
vt 0.40625 0.10000000149011612
vt 0.4375 0.10000000149011612
vt 0.46875 0.10000000149011612
vt 0.5 0.10000000149011612
vt 0.53125 0.10000000149011612
vt 0.5625 0.10000000149011612
vt 0.59375 0.10000000149011612
vt 0.625 0.10000000149011612
vt 0.65625 0.10000000149011612
vt 0.6875 0.10000000149011612
vt 0.71875 0.10000000149011612
vt 0.75 0.10000000149011612
vt 0.78125 0.10000000149011612
vt 0.8125 0.10000000149011612
vt 0.84375 0.10000000149011612
vt 0.875 0.10000000149011612
vt 0.90625 0.10000000149011612
vt 0.9375 0.10000000149011612
vt 0.96875 0.10000000149011612
vt 1 0.10000000149011612
vt 0 0.20000000298023224
vt 0.03125 0.20000000298023224
vt 0.0625 0.20000000298023224
vt 0.09375 0.20000000298023224
vt 0.125 0.20000000298023224
vt 0.15625 0.20000000298023224
vt 0.1875 0.20000000298023224
vt 0.21875 0.20000000298023224
vt 0.25 0.20000000298023224
vt 0.28125 0.20000000298023224
vt 0.3125 0.20000000298023224
vt 0.34375 0.20000000298023224
vt 0.375 0.20000000298023224
vt 0.40625 0.20000000298023224
vt 0.4375 0.20000000298023224
vt 0.46875 0.20000000298023224
vt 0.5 0.20000000298023224
vt 0.53125 0.20000000298023224
vt 0.5625 0.20000000298023224
vt 0.59375 0.20000000298023224
vt 0.625 0.20000000298023224
vt 0.65625 0.20000000298023224
vt 0.6875 0.20000000298023224
vt 0.71875 0.20000000298023224
vt 0.75 0.20000000298023224
vt 0.78125 0.20000000298023224
vt 0.8125 0.20000000298023224
vt 0.84375 0.20000000298023224
vt 0.875 0.20000000298023224
vt 0.90625 0.20000000298023224
vt 0.9375 0.20000000298023224
vt 0.96875 0.20000000298023224
vt 1 0.20000000298023224
vt 0 0.30000001192092896
vt 0.03125 0.30000001192092896
vt 0.0625 0.30000001192092896
vt 0.09375 0.30000001192092896
vt 0.125 0.30000001192092896
vt 0.15625 0.30000001192092896
vt 0.1875 0.30000001192092896
vt 0.21875 0.30000001192092896
vt 0.25 0.30000001192092896
vt 0.28125 0.30000001192092896
vt 0.3125 0.30000001192092896
vt 0.34375 0.30000001192092896
vt 0.375 0.30000001192092896
vt 0.40625 0.30000001192092896
vt 0.4375 0.30000001192092896
vt 0.46875 0.30000001192092896
vt 0.5 0.30000001192092896
vt 0.53125 0.30000001192092896
vt 0.5625 0.30000001192092896
vt 0.59375 0.30000001192092896
vt 0.625 0.30000001192092896
vt 0.65625 0.30000001192092896
vt 0.6875 0.30000001192092896
vt 0.71875 0.30000001192092896
vt 0.75 0.30000001192092896
vt 0.78125 0.30000001192092896
vt 0.8125 0.30000001192092896
vt 0.84375 0.30000001192092896
vt 0.875 0.30000001192092896
vt 0.90625 0.30000001192092896
vt 0.9375 0.30000001192092896
vt 0.96875 0.30000001192092896
vt 1 0.30000001192092896
vt 0 0.4000000059604645
vt 0.03125 0.4000000059604645
vt 0.0625 0.4000000059604645
vt 0.09375 0.4000000059604645
vt 0.125 0.4000000059604645
vt 0.15625 0.4000000059604645
vt 0.1875 0.4000000059604645
vt 0.21875 0.4000000059604645
vt 0.25 0.4000000059604645
vt 0.28125 0.4000000059604645
vt 0.3125 0.4000000059604645
vt 0.34375 0.4000000059604645
vt 0.375 0.4000000059604645
vt 0.40625 0.4000000059604645
vt 0.4375 0.4000000059604645
vt 0.46875 0.4000000059604645
vt 0.5 0.4000000059604645
vt 0.53125 0.4000000059604645
vt 0.5625 0.4000000059604645
vt 0.59375 0.4000000059604645
vt 0.625 0.4000000059604645
vt 0.65625 0.4000000059604645
vt 0.6875 0.4000000059604645
vt 0.71875 0.4000000059604645
vt 0.75 0.4000000059604645
vt 0.78125 0.4000000059604645
vt 0.8125 0.4000000059604645
vt 0.84375 0.4000000059604645
vt 0.875 0.4000000059604645
vt 0.90625 0.4000000059604645
vt 0.9375 0.4000000059604645
vt 0.96875 0.4000000059604645
vt 1 0.4000000059604645
vt 0 0.5
vt 0.03125 0.5
vt 0.0625 0.5
vt 0.09375 0.5
vt 0.125 0.5
vt 0.15625 0.5
vt 0.1875 0.5
vt 0.21875 0.5
vt 0.25 0.5
vt 0.28125 0.5
vt 0.3125 0.5
vt 0.34375 0.5
vt 0.375 0.5
vt 0.40625 0.5
vt 0.4375 0.5
vt 0.46875 0.5
vt 0.5 0.5
vt 0.53125 0.5
vt 0.5625 0.5
vt 0.59375 0.5
vt 0.625 0.5
vt 0.65625 0.5
vt 0.6875 0.5
vt 0.71875 0.5
vt 0.75 0.5
vt 0.78125 0.5
vt 0.8125 0.5
vt 0.84375 0.5
vt 0.875 0.5
vt 0.90625 0.5
vt 0.9375 0.5
vt 0.96875 0.5
vt 1 0.5
vt 0 0.6000000238418579
vt 0.03125 0.6000000238418579
vt 0.0625 0.6000000238418579
vt 0.09375 0.6000000238418579
vt 0.125 0.6000000238418579
vt 0.15625 0.6000000238418579
vt 0.1875 0.6000000238418579
vt 0.21875 0.6000000238418579
vt 0.25 0.6000000238418579
vt 0.28125 0.6000000238418579
vt 0.3125 0.6000000238418579
vt 0.34375 0.6000000238418579
vt 0.375 0.6000000238418579
vt 0.40625 0.6000000238418579
vt 0.4375 0.6000000238418579
vt 0.46875 0.6000000238418579
vt 0.5 0.6000000238418579
vt 0.53125 0.6000000238418579
vt 0.5625 0.6000000238418579
vt 0.59375 0.6000000238418579
vt 0.625 0.6000000238418579
vt 0.65625 0.6000000238418579
vt 0.6875 0.6000000238418579
vt 0.71875 0.6000000238418579
vt 0.75 0.6000000238418579
vt 0.78125 0.6000000238418579
vt 0.8125 0.6000000238418579
vt 0.84375 0.6000000238418579
vt 0.875 0.6000000238418579
vt 0.90625 0.6000000238418579
vt 0.9375 0.6000000238418579
vt 0.96875 0.6000000238418579
vt 1 0.6000000238418579
vt 0 0.699999988079071
vt 0.03125 0.699999988079071
vt 0.0625 0.699999988079071
vt 0.09375 0.699999988079071
vt 0.125 0.699999988079071
vt 0.15625 0.699999988079071
vt 0.1875 0.699999988079071
vt 0.21875 0.699999988079071
vt 0.25 0.699999988079071
vt 0.28125 0.699999988079071
vt 0.3125 0.699999988079071
vt 0.34375 0.699999988079071
vt 0.375 0.699999988079071
vt 0.40625 0.699999988079071
vt 0.4375 0.699999988079071
vt 0.46875 0.699999988079071
vt 0.5 0.699999988079071
vt 0.53125 0.699999988079071
vt 0.5625 0.699999988079071
vt 0.59375 0.699999988079071
vt 0.625 0.699999988079071
vt 0.65625 0.699999988079071
vt 0.6875 0.699999988079071
vt 0.71875 0.699999988079071
vt 0.75 0.699999988079071
vt 0.78125 0.699999988079071
vt 0.8125 0.699999988079071
vt 0.84375 0.699999988079071
vt 0.875 0.699999988079071
vt 0.90625 0.699999988079071
vt 0.9375 0.699999988079071
vt 0.96875 0.699999988079071
vt 1 0.699999988079071
vt 0 0.800000011920929
vt 0.03125 0.800000011920929
vt 0.0625 0.800000011920929
vt 0.09375 0.800000011920929
vt 0.125 0.800000011920929
vt 0.15625 0.800000011920929
vt 0.1875 0.800000011920929
vt 0.21875 0.800000011920929
vt 0.25 0.800000011920929
vt 0.28125 0.800000011920929
vt 0.3125 0.800000011920929
vt 0.34375 0.800000011920929
vt 0.375 0.800000011920929
vt 0.40625 0.800000011920929
vt 0.4375 0.800000011920929
vt 0.46875 0.800000011920929
vt 0.5 0.800000011920929
vt 0.53125 0.800000011920929
vt 0.5625 0.800000011920929
vt 0.59375 0.800000011920929
vt 0.625 0.800000011920929
vt 0.65625 0.800000011920929
vt 0.6875 0.800000011920929
vt 0.71875 0.800000011920929
vt 0.75 0.800000011920929
vt 0.78125 0.800000011920929
vt 0.8125 0.800000011920929
vt 0.84375 0.800000011920929
vt 0.875 0.800000011920929
vt 0.90625 0.800000011920929
vt 0.9375 0.800000011920929
vt 0.96875 0.800000011920929
vt 1 0.800000011920929
vt 0 0.8999999761581421
vt 0.03125 0.8999999761581421
vt 0.0625 0.8999999761581421
vt 0.09375 0.8999999761581421
vt 0.125 0.8999999761581421
vt 0.15625 0.8999999761581421
vt 0.1875 0.8999999761581421
vt 0.21875 0.8999999761581421
vt 0.25 0.8999999761581421
vt 0.28125 0.8999999761581421
vt 0.3125 0.8999999761581421
vt 0.34375 0.8999999761581421
vt 0.375 0.8999999761581421
vt 0.40625 0.8999999761581421
vt 0.4375 0.8999999761581421
vt 0.46875 0.8999999761581421
vt 0.5 0.8999999761581421
vt 0.53125 0.8999999761581421
vt 0.5625 0.8999999761581421
vt 0.59375 0.8999999761581421
vt 0.625 0.8999999761581421
vt 0.65625 0.8999999761581421
vt 0.6875 0.8999999761581421
vt 0.71875 0.8999999761581421
vt 0.75 0.8999999761581421
vt 0.78125 0.8999999761581421
vt 0.8125 0.8999999761581421
vt 0.84375 0.8999999761581421
vt 0.875 0.8999999761581421
vt 0.90625 0.8999999761581421
vt 0.9375 0.8999999761581421
vt 0.96875 0.8999999761581421
vt 1 0.8999999761581421
vt 0 1
vt 0.03125 1
vt 0.0625 1
vt 0.09375 1
vt 0.125 1
vt 0.15625 1
vt 0.1875 1
vt 0.21875 1
vt 0.25 1
vt 0.28125 1
vt 0.3125 1
vt 0.34375 1
vt 0.375 1
vt 0.40625 1
vt 0.4375 1
vt 0.46875 1
vt 0.5 1
vt 0.53125 1
vt 0.5625 1
vt 0.59375 1
vt 0.625 1
vt 0.65625 1
vt 0.6875 1
vt 0.71875 1
vt 0.75 1
vt 0.78125 1
vt 0.8125 1
vt 0.84375 1
vt 0.875 1
vt 0.90625 1
vt 0.9375 1
vt 0.96875 1
vt 1 1
vn 0.9500202618124721 0.046671543670938904 0.30867988136114977
vn 0.9448702848971785 0.1084022736032848 0.308980730460596
vn 0.9296953156310911 0.20049370985363524 0.308980407797537
vn 0.9055665664793664 0.29065441871387176 0.30898090969649317
vn 0.8727168652341656 0.37801588497842376 0.3089810088659663
vn 0.8314624521824218 0.4617372802923514 0.3089803789871075
vn 0.7822006542878418 0.5410109895381797 0.3089809793993662
vn 0.7254057618285638 0.6150749403502742 0.30898106488752286
vn 0.6616247341852319 0.6832155632293432 0.308980914095891
vn 0.5914721011469811 0.7447760850473698 0.3089811267800808
vn 0.5156231965877858 0.7991643907344002 0.30898057499252063
vn 0.4348084642456008 0.8458561328221232 0.3089805851304974
vn 0.3498066695708165 0.8844014487022764 0.3089811830145778
vn 0.26143514571242 0.9144302418133946 0.30898057777702215
vn 0.17054657307381005 0.9356521186602604 0.308980548351098
vn 0.0780156931802915 0.9478631098349815 0.308980705921189
vn -0.01526702439865346 0.9509458324253631 0.3089804876668493
vn -0.1084022736032848 0.9448702848971785 0.308980730460596
vn -0.20049370985363524 0.9296953156310911 0.308980407797537
vn -0.29065441871387176 0.9055665664793664 0.30898090969649317
vn -0.37801588497842376 0.8727168652341656 0.3089810088659663
vn -0.4617372802923514 0.8314624521824218 0.3089803789871075
vn -0.5410109895381797 0.7822006542878418 0.3089809793993662
vn -0.6150749403502742 0.7254057618285638 0.30898106488752286
vn -0.6832155632293432 0.6616247341852319 0.308980914095891
vn -0.7447760850473698 0.5914721011469811 0.3089811267800808
vn -0.7991643907344002 0.5156231965877858 0.30898057499252063
vn -0.8458561328221232 0.4348084642456008 0.3089805851304974
vn -0.8844014487022764 0.3498066695708165 0.3089811830145778
vn -0.9144302418133946 0.26143514571242 0.30898057777702215
vn -0.9356521186602604 0.17054657307381005 0.308980548351098
vn -0.9478631098349815 0.0780156931802915 0.308980705921189
vn -0.9500203651359099 0.04667124859258523 0.30867960797863153
vn 0.744380351877586 0.03656920775916009 0.6667537662304343
vn 0.8089412479369471 0.0758539515433329 0.5829753300281895
vn 0.7976109530461984 0.1547787217615796 0.5829753981692423
vn 0.7785991980533331 0.23221309346468016 0.5829754437489374
vn 0.7520890862833375 0.3074108374822319 0.5829756283859278
vn 0.718336065602464 0.37964839792855043 0.5829754632958899
vn 0.6776650413014991 0.44822963179516795 0.5829753759624894
vn 0.630467712422675 0.5124937888249305 0.5829756255697032
vn 0.5771985743914556 0.5718227121824625 0.5829756354709553
vn 0.5183709135323388 0.6256445491220062 0.5829755519381323
vn 0.45455099131401483 0.6734410669447938 0.5829755789462404
vn 0.3863532770554777 0.7147523034045359 0.5829753769126135
vn 0.3144350653377086 0.74917960296802 0.582975567397769
vn 0.2394884644509979 0.7763921517213844 0.5829755587847076
vn 0.16223523257770112 0.7961278078045285 0.5829753364858712
vn 0.08342013469990808 0.8081960045150944 0.5829753849113071
vn 0.0038013472056330692 0.8124809229771901 0.5829753850357281
vn -0.0758539515433329 0.8089412479369471 0.5829753300281895
vn -0.1547787217615796 0.7976109530461984 0.5829753981692423
vn -0.23221309346468016 0.7785991980533331 0.5829754437489374
vn -0.3074108374822319 0.7520890862833375 0.5829756283859278
vn -0.37964839792855043 0.718336065602464 0.5829754632958899
vn -0.44822963179516795 0.6776650413014991 0.5829753759624894
vn -0.5124937888249305 0.630467712422675 0.5829756255697032
vn -0.5718227121824625 0.5771985743914556 0.5829756354709553
vn -0.6256445491220062 0.5183709135323388 0.5829755519381323
vn -0.6734410669447938 0.45455099131401483 0.5829755789462404
vn -0.7147523034045359 0.3863532770554777 0.5829753769126135
vn -0.74917960296802 0.3144350653377086 0.582975567397769
vn -0.7763921517213844 0.2394884644509979 0.5829755587847076
vn -0.7961278078045285 0.16223523257770112 0.5829753364858712
vn -0.8081960045150944 0.08342013469990808 0.5829753849113071
vn -0.8678665631220823 0.04263565254916742 0.494964473216383
vn 0.21243153581686194 0.010436031070078598 0.9771202238445348
vn 0.31785145725926545 0.025769094267880037 0.9477902747437189
vn 0.31379509467060346 0.056799855979028785 0.9477902800310988
vn 0.3067166443892939 0.08728366164886035 0.9477903051117049
vn 0.2966844773225943 0.11692695460335568 0.9477902764868418
vn 0.2837950211001583 0.14544392721178848 0.9477902985555258
vn 0.26817244676997554 0.17256050060020686 0.9477902787146588
vn 0.24996725014048687 0.19801506629264834 0.9477902760517863
vn 0.2293547323900308 0.22156254290373395 0.9477902965911438
vn 0.20653340608258558 0.24297640183828584 0.9477902828799448
vn 0.18172307537798413 0.26205021467863276 0.9477902768345169
vn 0.15516260654399744 0.2786003122872376 0.9477902887896279
vn 0.12710774243266465 0.2924674221990721 0.9477902873346512
vn 0.09782901647899643 0.3035177961446828 0.9477902884911973
vn 0.06760788074284249 0.31164524468138266 0.9477902805626057
vn 0.036735721057611574 0.31677135933054695 0.9477902683116423
vn 0.0055099228937554555 0.3188466812907107 0.9477902904016293
vn -0.025769094267880037 0.31785145725926545 0.9477902747437189
vn -0.056799855979028785 0.31379509467060346 0.9477902800310988
vn -0.08728366164886035 0.3067166443892939 0.9477903051117049
vn -0.11692695460335568 0.2966844773225943 0.9477902764868418
vn -0.14544392721178848 0.2837950211001583 0.9477902985555258
vn -0.17256050060020686 0.26817244676997554 0.9477902787146588
vn -0.19801506629264834 0.24996725014048687 0.9477902760517863
vn -0.22156254290373395 0.2293547323900308 0.9477902965911438
vn -0.24297640183828584 0.20653340608258558 0.9477902828799448
vn -0.26205021467863276 0.18172307537798413 0.9477902768345169
vn -0.2786003122872376 0.15516260654399744 0.9477902887896279
vn -0.2924674221990721 0.12710774243266465 0.9477902873346512
vn -0.3035177961446828 0.09782901647899643 0.9477902884911973
vn -0.31164524468138266 0.06760788074284249 0.9477902805626057
vn -0.31677135933054695 0.036735721057611574 0.9477902683116423
vn -0.41492750371162557 0.020384104495222103 0.9096261072262422
vn -0.4031250519213481 -0.019804164975445807 0.9149305916642178
vn -0.29617768513345044 -0.03375365956166741 0.9545362587640063
vn -0.2914430240862179 -0.06262163158360132 0.9545362722124748
vn -0.28390172041776024 -0.09088645849160432 0.9545362564128667
vn -0.2736262073417303 -0.11827609646390337 0.9545362558127595
vn -0.26071554489985904 -0.14452657141016373 0.9545362616495994
vn -0.24529405966031276 -0.16938532569648715 0.9545362411841981
vn -0.22751022671460164 -0.19261267608676957 0.9545362506217163
vn -0.20753535448028326 -0.213985098529592 0.9545362508820837
vn -0.18556187720472553 -0.23329670316813245 0.954536242381157
vn -0.1618012321903249 -0.2503615591488334 0.9545362491609514
vn -0.13648237369925886 -0.2650152460747822 0.9545362649042406
vn -0.10984905757369239 -0.2771168040083873 0.9545362546736236
vn -0.08215798684317742 -0.28654936816515797 0.954536287839297
vn -0.05367563371515853 -0.2932224912956634 0.9545362732466695
vn -0.024676255693487796 -0.2970717526655207 0.9545362518905112
vn 0.004560607916876138 -0.2980599679014948 0.9545362520040759
vn 0.03375365956166741 -0.29617768513345044 0.9545362587640063
vn 0.06262163158360132 -0.2914430240862179 0.9545362722124748
vn 0.09088645849160432 -0.28390172041776024 0.9545362564128667
vn 0.11827609646390337 -0.2736262073417303 0.9545362558127595
vn 0.14452657141016373 -0.26071554489985904 0.9545362616495994
vn 0.16938532569648715 -0.24529405966031276 0.9545362411841981
vn 0.19261267608676957 -0.22751022671460164 0.9545362506217163
vn 0.213985098529592 -0.20753535448028326 0.9545362508820837
vn 0.23329670316813245 -0.18556187720472553 0.954536242381157
vn 0.2503615591488334 -0.1618012321903249 0.9545362491609514
vn 0.2650152460747822 -0.13648237369925886 0.9545362649042406
vn 0.2771168040083873 -0.10984905757369239 0.9545362546736236
vn 0.28654936816515797 -0.08215798684317742 0.954536287839297
vn 0.2932224912956634 -0.05367563371515853 0.9545362732466695
vn 0.2970717526655207 -0.024676255693487796 0.9545362518905112
vn 0.19688702064760627 -0.009672405411977404 0.9803784706296111
vn -0.8653696917401765 -0.042512652230315674 0.4993275187868742
vn -0.8003134191965655 -0.08107540072729726 0.5940750882260679
vn -0.7885128736211137 -0.1591294532741096 0.5940751343344178
vn -0.7691186247374256 -0.23565084284245202 0.5940750973990181
vn -0.7423173246302012 -0.3099029684079248 0.5940750287007669
vn -0.7083669903791414 -0.38117066041323977 0.5940750243709393
vn -0.667594720443468 -0.4487671484107209 0.594075193677802
vn -0.6203931961918684 -0.5120420883458202 0.5940750641806883
vn -0.5672169849878106 -0.570385567862786 0.5940750759922393
vn -0.508578050885924 -0.6232361656616225 0.5940749514736949
vn -0.4450413843979128 -0.6700843514267047 0.5940750189548805
vn -0.3772185732564182 -0.7104793767619995 0.5940750821119103
vn -0.3057629142962939 -0.7440321980505513 0.5940750192569137
vn -0.23136261269430466 -0.7704195434785991 0.5940749687316341
vn -0.1547344907322459 -0.7893870392829112 0.5940751969153333
vn -0.07661577150469265 -0.8007526226645653 0.5940751306464201
vn 0.002240566088225239 -0.8044064702399593 0.5940750882672102
vn 0.08107540072729726 -0.8003134191965655 0.5940750882260679
vn 0.1591294532741096 -0.7885128736211137 0.5940751343344178
vn 0.23565084284245202 -0.7691186247374256 0.5940750973990181
vn 0.3099029684079248 -0.7423173246302012 0.5940750287007669
vn 0.38117066041323977 -0.7083669903791414 0.5940750243709393
vn 0.4487671484107209 -0.667594720443468 0.594075193677802
vn 0.5120420883458202 -0.6203931961918684 0.5940750641806883
vn 0.570385567862786 -0.5672169849878106 0.5940750759922393
vn 0.6232361656616225 -0.508578050885924 0.5940749514736949
vn 0.6700843514267047 -0.4450413843979128 0.5940750189548805
vn 0.7104793767619995 -0.3772185732564182 0.5940750821119103
vn 0.7440321980505513 -0.3057629142962939 0.5940750192569137
vn 0.7704195434785991 -0.23136261269430466 0.5940749687316341
vn 0.7893870392829112 -0.1547344907322459 0.5940751969153333
vn 0.8007526226645653 -0.07661577150469265 0.5940751306464201
vn 0.73564916139546 -0.036139920005292064 0.6763979727351108
vn -0.9926814821066126 -0.048767088802791944 -0.1104773557446037
vn -0.9951847272435136 -0.09801713452888396 -1.6993411253869797e-8
vn -0.9807852840714856 -0.19509030357454837 7.622435812112084e-8
vn -0.9569403957124751 -0.29028447952594627 -4.7697038369340834e-8
vn -0.9238795709050677 -0.38268333967428986 1.4042136450458092e-8
vn -0.8819212044573833 -0.47139684887410677 -2.806820289270784e-8
vn -0.8314695741248291 -0.5555702901565817 -8.326414544300761e-8
vn -0.7730104204250279 -0.6343933242983577 -1.3703484351343682e-8
vn -0.7071068109888685 -0.7071067513842252 -1.0416194756882039e-8
vn -0.6343933242983577 -0.7730104204250279 1.670768030663607e-8
vn -0.5555702489494068 -0.8314696016585851 9.017943437355924e-8
vn -0.47139682569430763 -0.8819212168472481 3.98021964213339e-9
vn -0.38268333967428986 -0.9238795709050677 -2.9019438186647813e-9
vn -0.29028447952594627 -0.9569403957124751 4.7511249210771395e-8
vn -0.19509032931342277 -0.9807852789517059 -6.864661570665709e-8
vn -0.09801712714988368 -0.9951847279702816 9.723615772553897e-9
vn -5.979891581908703e-10 -1 3.684640925705196e-10
vn 0.09801713452888396 -0.9951847272435136 -1.6993411253869797e-8
vn 0.19509030357454837 -0.9807852840714856 7.622435812112084e-8
vn 0.29028447952594627 -0.9569403957124751 -4.7697038369340834e-8
vn 0.38268333967428986 -0.9238795709050677 1.4042136450458092e-8
vn 0.47139684887410677 -0.8819212044573833 -2.806820289270784e-8
vn 0.5555702901565817 -0.8314695741248291 -8.326414544300761e-8
vn 0.6343933242983577 -0.7730104204250279 -1.3703484351343682e-8
vn 0.7071067513842252 -0.7071068109888685 -1.0416194756882039e-8
vn 0.7730104204250279 -0.6343933242983577 1.670768030663607e-8
vn 0.8314696016585851 -0.5555702489494068 9.017943437355924e-8
vn 0.8819212168472481 -0.47139682569430763 3.98021964213339e-9
vn 0.9238795709050677 -0.38268333967428986 -2.9019438186647813e-9
vn 0.9569403957124751 -0.29028447952594627 4.7511249210771395e-8
vn 0.9807852789517059 -0.19509032931342277 -6.864661570665709e-8
vn 0.9951847279702816 -0.09801712714988368 9.723615772553897e-9
vn 0.9926814821066126 -0.048767088802791944 0.1104773557446037
vn -0.7356491043888653 -0.036139920132925336 -0.6763980347285511
vn -0.8007526003645109 -0.07661578997514643 -0.594075158322546
vn -0.7893870356426942 -0.15473451982101785 -0.5940751941757867
vn -0.7704195434785991 -0.23136261269430466 -0.5940749687316341
vn -0.7440322243964563 -0.3057629251232456 -0.5940749806882442
vn -0.7104793687747976 -0.37721859881805286 -0.5940750754333243
vn -0.6700842948578812 -0.44504138641417534 -0.5940750812509853
vn -0.6232361656616225 -0.508578050885924 -0.5940749514736949
vn -0.570385567862786 -0.5672169849878106 -0.5940750759922393
vn -0.5120420883458202 -0.6203931961918684 -0.5940750641806883
vn -0.4487671484107209 -0.667594720443468 -0.594075193677802
vn -0.38117070197932484 -0.7083669526362522 -0.5940750427053961
vn -0.3099029953480365 -0.7423173177742857 -0.5940750232139919
vn -0.23565085691613236 -0.7691186220366877 -0.5940750953129404
vn -0.1591294532741096 -0.7885128736211137 -0.5940751343344178
vn -0.08107540072729726 -0.8003134191965655 -0.5940750882260679
vn -0.0022405653103992076 -0.804406441757479 -0.5940751268368012
vn 0.07661578997514643 -0.8007526003645109 -0.594075158322546
vn 0.15473451982101785 -0.7893870356426942 -0.5940751941757867
vn 0.23136261269430466 -0.7704195434785991 -0.5940749687316341
vn 0.3057629251232456 -0.7440322243964563 -0.5940749806882442
vn 0.37721859881805286 -0.7104793687747976 -0.5940750754333243
vn 0.44504138641417534 -0.6700842948578812 -0.5940750812509853
vn 0.508578050885924 -0.6232361656616225 -0.5940749514736949
vn 0.5672169849878106 -0.570385567862786 -0.5940750759922393
vn 0.6203931961918684 -0.5120420883458202 -0.5940750641806883
vn 0.667594720443468 -0.4487671484107209 -0.594075193677802
vn 0.7083669526362522 -0.38117070197932484 -0.5940750427053961
vn 0.7423173177742857 -0.3099029953480365 -0.5940750232139919
vn 0.7691186220366877 -0.23565085691613236 -0.5940750953129404
vn 0.7885128736211137 -0.1591294532741096 -0.5940751343344178
vn 0.8003134191965655 -0.08107540072729726 -0.5940750882260679
vn 0.8653696917401765 -0.042512652230315674 -0.4993275187868742
vn -0.19688702064760627 -0.009672405411977404 -0.9803784706296111
vn -0.2970717526655207 -0.024676255693487796 -0.9545362518905112
vn -0.2932224912370315 -0.05367563742971605 -0.9545362730558031
vn -0.28654939552039604 -0.08215798614156158 -0.9545362796877125
vn -0.2771168312952746 -0.10984906402715498 -0.9545362460091414
vn -0.2650153014932082 -0.13648237154336404 -0.9545362498262511
vn -0.25036153181817583 -0.1618012188865272 -0.9545362585844974
vn -0.23329670316813245 -0.18556187720472553 -0.954536242381157
vn -0.21398512564377112 -0.20753538167548594 -0.9545362388909234
vn -0.19261267608676957 -0.22751022671460164 -0.9545362506217163
vn -0.16938534078924458 -0.2452940450366108 -0.9545362422639009
vn -0.14452657141016373 -0.26071554489985904 -0.9545362616495994
vn -0.11827608911755072 -0.2736262075828567 -0.9545362566539213
vn -0.09088646588064048 -0.2839017202255142 -0.9545362557664958
vn -0.06262162361832649 -0.29144305149313765 -0.9545362643670343
vn -0.033753663282713446 -0.29617768509620834 -0.9545362586439807
vn -0.004560607916876138 -0.2980599679014948 -0.9545362520040759
vn 0.024676255693487796 -0.2970717526655207 -0.9545362518905112
vn 0.05367563742971605 -0.2932224912370315 -0.9545362730558031
vn 0.08215798614156158 -0.28654939552039604 -0.9545362796877125
vn 0.10984906402715498 -0.2771168312952746 -0.9545362460091414
vn 0.13648237154336404 -0.2650153014932082 -0.9545362498262511
vn 0.1618012188865272 -0.25036153181817583 -0.9545362585844974
vn 0.18556187720472553 -0.23329670316813245 -0.954536242381157
vn 0.20753538167548594 -0.21398512564377112 -0.9545362388909234
vn 0.22751022671460164 -0.19261267608676957 -0.9545362506217163
vn 0.2452940450366108 -0.16938534078924458 -0.9545362422639009
vn 0.26071554489985904 -0.14452657141016373 -0.9545362616495994
vn 0.2736262075828567 -0.11827608911755072 -0.9545362566539213
vn 0.2839017202255142 -0.09088646588064048 -0.9545362557664958
vn 0.29144305149313765 -0.06262162361832649 -0.9545362643670343
vn 0.29617768509620834 -0.033753663282713446 -0.9545362586439807
vn 0.4031250519213481 -0.019804164975445807 -0.9149305916642178
vn 0.41492750372737963 0.020384102633350942 -0.9096261072607791
vn 0.31677135933054695 0.036735721057611574 -0.9477902683116423
vn 0.3116452177735432 0.0676078813707677 -0.9477902893654465
vn 0.3035177959234539 0.0978290238582713 -0.9477902878003691
vn 0.29246742164512335 0.12710775709307737 -0.9477902855394863
vn 0.2786003122872376 0.15516260654399744 -0.9477902887896279
vn 0.2620502139690309 0.18172308978706023 -0.9477902742680097
vn 0.24297640258606698 0.2065333918170487 -0.9477902857968523
vn 0.2215625160788539 0.22935470566986518 -0.9477903093279109
vn 0.1980150806095356 0.24996724940291987 -0.9477902732551846
vn 0.17256048614275915 0.2681724474595412 -0.947790281151761
vn 0.14544393419818072 0.2837950645345619 -0.9477902844779424
vn 0.11692696195207267 0.29668447706413054 -0.9477902756611518
vn 0.08728366164886035 0.3067166443892939 -0.9477903051117049
vn 0.05679985544784659 0.31379512153836986 -0.9477902711675318
vn 0.025769094267880037 0.31785145725926545 -0.9477902747437189
vn -0.0055099223757509586 0.3188467080640518 -0.947790281397805
vn -0.036735721057611574 0.31677135933054695 -0.9477902683116423
vn -0.0676078813707677 0.3116452177735432 -0.9477902893654465
vn -0.0978290238582713 0.3035177959234539 -0.9477902878003691
vn -0.12710775709307737 0.29246742164512335 -0.9477902855394863
vn -0.15516260654399744 0.2786003122872376 -0.9477902887896279
vn -0.18172308978706023 0.2620502139690309 -0.9477902742680097
vn -0.2065333918170487 0.24297640258606698 -0.9477902857968523
vn -0.22935470566986518 0.2215625160788539 -0.9477903093279109
vn -0.24996724940291987 0.1980150806095356 -0.9477902732551846
vn -0.2681724474595412 0.17256048614275915 -0.947790281151761
vn -0.2837950645345619 0.14544393419818072 -0.9477902844779424
vn -0.29668447706413054 0.11692696195207267 -0.9477902756611518
vn -0.3067166443892939 0.08728366164886035 -0.9477903051117049
vn -0.31379512153836986 0.05679985544784659 -0.9477902711675318
vn -0.31785145725926545 0.025769094267880037 -0.9477902747437189
vn -0.21243153581686194 0.010436031070078598 -0.9771202238445348
vn 0.8678665631220823 0.04263565254916742 -0.494964473216383
vn 0.8081960045150944 0.08342013469990808 -0.5829753849113071
vn 0.796127805879895 0.1622352470866599 -0.5829753350765322
vn 0.7763921066087479 0.23948843911892773 -0.5829756292710788
vn 0.74917960296802 0.3144350653377086 -0.582975567397769
vn 0.7147523034045359 0.3863532770554777 -0.5829753769126135
vn 0.6734410435440279 0.4545509755192529 -0.5829756182936181
vn 0.6256445491220062 0.5183709135323388 -0.5829755519381323
vn 0.5718227121824625 0.5771985743914556 -0.5829756354709553
vn 0.5124937888249305 0.630467712422675 -0.5829756255697032
vn 0.4482296079804242 0.6776650503539408 -0.5829753837500397
vn 0.37964839792855043 0.718336065602464 -0.5829754632958899
vn 0.3074108374822319 0.7520890862833375 -0.5829756283859278
vn 0.23221309346468016 0.7785991980533331 -0.5829754437489374
vn 0.1547787217615796 0.7976109530461984 -0.5829753981692423
vn 0.07585394515726916 0.8089411996847975 -0.5829753978141776
vn -0.0038013465591521063 0.8124808744891101 -0.5829754526167871
vn -0.08342013469990808 0.8081960045150944 -0.5829753849113071
vn -0.1622352470866599 0.796127805879895 -0.5829753350765322
vn -0.23948843911892773 0.7763921066087479 -0.5829756292710788
vn -0.3144350653377086 0.74917960296802 -0.582975567397769
vn -0.3863532770554777 0.7147523034045359 -0.5829753769126135
vn -0.4545509755192529 0.6734410435440279 -0.5829756182936181
vn -0.5183709135323388 0.6256445491220062 -0.5829755519381323
vn -0.5771985743914556 0.5718227121824625 -0.5829756354709553
vn -0.630467712422675 0.5124937888249305 -0.5829756255697032
vn -0.6776650503539408 0.4482296079804242 -0.5829753837500397
vn -0.718336065602464 0.37964839792855043 -0.5829754632958899
vn -0.7520890862833375 0.3074108374822319 -0.5829756283859278
vn -0.7785991980533331 0.23221309346468016 -0.5829754437489374
vn -0.7976109530461984 0.1547787217615796 -0.5829753981692423
vn -0.8089411996847975 0.07585394515726916 -0.5829753978141776
vn -0.744380351877586 0.03656920775916009 -0.6667537662304343
vn 0.9500203651359099 0.04667124859258523 -0.30867960797863153
vn 0.9478631092840245 0.07801570058552458 -0.3089807057415902
vn 0.9356521100444595 0.17054657150335956 -0.3089805753082222
vn 0.9144302418133946 0.26143514571242 -0.30898057777702215
vn 0.8844014487022764 0.3498066695708165 -0.3089811830145778
vn 0.845856086152316 0.43480853049934115 -0.3089806196577539
vn 0.7991644152955478 0.5156231528300651 -0.3089805844885863
vn 0.7447760781892068 0.5914720957004956 -0.30898115373719537
vn 0.6832155425774041 0.6616247737905744 -0.30898087495383036
vn 0.6150749346864466 0.7254057551487709 -0.3089810918446384
vn 0.5410110316969677 0.7822006290643981 -0.30898096943572795
vn 0.46173723821250456 0.8314624896786039 -0.3089803409690437
vn 0.3780158814975204 0.8727168571978814 -0.3089810358230832
vn 0.29065441871387176 0.9055665664793664 -0.30898090969649317
vn 0.2004937347655452 0.929695292954105 -0.30898045986557787
vn 0.10840228932754695 0.9448702920716003 -0.3089807030043714
vn 0.015267026054522076 0.9509458179509268 -0.3089805321328407
vn -0.07801570058552458 0.9478631092840245 -0.3089807057415902
vn -0.17054657150335956 0.9356521100444595 -0.3089805753082222
vn -0.26143514571242 0.9144302418133946 -0.30898057777702215
vn -0.3498066695708165 0.8844014487022764 -0.3089811830145778
vn -0.43480853049934115 0.845856086152316 -0.3089806196577539
vn -0.5156231528300651 0.7991644152955478 -0.3089805844885863
vn -0.5914720957004956 0.7447760781892068 -0.30898115373719537
vn -0.6616247737905744 0.6832155425774041 -0.30898087495383036
vn -0.7254057551487709 0.6150749346864466 -0.3089810918446384
vn -0.7822006290643981 0.5410110316969677 -0.30898096943572795
vn -0.8314624896786039 0.46173723821250456 -0.3089803409690437
vn -0.8727168571978814 0.3780158814975204 -0.3089810358230832
vn -0.9055665664793664 0.29065441871387176 -0.30898090969649317
vn -0.929695292954105 0.2004937347655452 -0.30898045986557787
vn -0.9448702920716003 0.10840228932754695 -0.3089807030043714
vn -0.9500202618124721 0.046671543670938904 -0.30867988136114977
f 34/34/34 1/1/1 35/35/35
f 1/1/1 2/2/2 35/35/35
f 35/35/35 2/2/2 36/36/36
f 2/2/2 3/3/3 36/36/36
f 36/36/36 3/3/3 37/37/37
f 3/3/3 4/4/4 37/37/37
f 37/37/37 4/4/4 38/38/38
f 4/4/4 5/5/5 38/38/38
f 38/38/38 5/5/5 39/39/39
f 5/5/5 6/6/6 39/39/39
f 39/39/39 6/6/6 40/40/40
f 6/6/6 7/7/7 40/40/40
f 40/40/40 7/7/7 41/41/41
f 7/7/7 8/8/8 41/41/41
f 41/41/41 8/8/8 42/42/42
f 8/8/8 9/9/9 42/42/42
f 42/42/42 9/9/9 43/43/43
f 9/9/9 10/10/10 43/43/43
f 43/43/43 10/10/10 44/44/44
f 10/10/10 11/11/11 44/44/44
f 44/44/44 11/11/11 45/45/45
f 11/11/11 12/12/12 45/45/45
f 45/45/45 12/12/12 46/46/46
f 12/12/12 13/13/13 46/46/46
f 46/46/46 13/13/13 47/47/47
f 13/13/13 14/14/14 47/47/47
f 47/47/47 14/14/14 48/48/48
f 14/14/14 15/15/15 48/48/48
f 48/48/48 15/15/15 49/49/49
f 15/15/15 16/16/16 49/49/49
f 49/49/49 16/16/16 50/50/50
f 16/16/16 17/17/17 50/50/50
f 50/50/50 17/17/17 51/51/51
f 17/17/17 18/18/18 51/51/51
f 51/51/51 18/18/18 52/52/52
f 18/18/18 19/19/19 52/52/52
f 52/52/52 19/19/19 53/53/53
f 19/19/19 20/20/20 53/53/53
f 53/53/53 20/20/20 54/54/54
f 20/20/20 21/21/21 54/54/54
f 54/54/54 21/21/21 55/55/55
f 21/21/21 22/22/22 55/55/55
f 55/55/55 22/22/22 56/56/56
f 22/22/22 23/23/23 56/56/56
f 56/56/56 23/23/23 57/57/57
f 23/23/23 24/24/24 57/57/57
f 57/57/57 24/24/24 58/58/58
f 24/24/24 25/25/25 58/58/58
f 58/58/58 25/25/25 59/59/59
f 25/25/25 26/26/26 59/59/59
f 59/59/59 26/26/26 60/60/60
f 26/26/26 27/27/27 60/60/60
f 60/60/60 27/27/27 61/61/61
f 27/27/27 28/28/28 61/61/61
f 61/61/61 28/28/28 62/62/62
f 28/28/28 29/29/29 62/62/62
f 62/62/62 29/29/29 63/63/63
f 29/29/29 30/30/30 63/63/63
f 63/63/63 30/30/30 64/64/64
f 30/30/30 31/31/31 64/64/64
f 64/64/64 31/31/31 65/65/65
f 31/31/31 32/32/32 65/65/65
f 65/65/65 32/32/32 66/66/66
f 32/32/32 33/33/33 66/66/66
f 67/67/67 34/34/34 68/68/68
f 34/34/34 35/35/35 68/68/68
f 68/68/68 35/35/35 69/69/69
f 35/35/35 36/36/36 69/69/69
f 69/69/69 36/36/36 70/70/70
f 36/36/36 37/37/37 70/70/70
f 70/70/70 37/37/37 71/71/71
f 37/37/37 38/38/38 71/71/71
f 71/71/71 38/38/38 72/72/72
f 38/38/38 39/39/39 72/72/72
f 72/72/72 39/39/39 73/73/73
f 39/39/39 40/40/40 73/73/73
f 73/73/73 40/40/40 74/74/74
f 40/40/40 41/41/41 74/74/74
f 74/74/74 41/41/41 75/75/75
f 41/41/41 42/42/42 75/75/75
f 75/75/75 42/42/42 76/76/76
f 42/42/42 43/43/43 76/76/76
f 76/76/76 43/43/43 77/77/77
f 43/43/43 44/44/44 77/77/77
f 77/77/77 44/44/44 78/78/78
f 44/44/44 45/45/45 78/78/78
f 78/78/78 45/45/45 79/79/79
f 45/45/45 46/46/46 79/79/79
f 79/79/79 46/46/46 80/80/80
f 46/46/46 47/47/47 80/80/80
f 80/80/80 47/47/47 81/81/81
f 47/47/47 48/48/48 81/81/81
f 81/81/81 48/48/48 82/82/82
f 48/48/48 49/49/49 82/82/82
f 82/82/82 49/49/49 83/83/83
f 49/49/49 50/50/50 83/83/83
f 83/83/83 50/50/50 84/84/84
f 50/50/50 51/51/51 84/84/84
f 84/84/84 51/51/51 85/85/85
f 51/51/51 52/52/52 85/85/85
f 85/85/85 52/52/52 86/86/86
f 52/52/52 53/53/53 86/86/86
f 86/86/86 53/53/53 87/87/87
f 53/53/53 54/54/54 87/87/87
f 87/87/87 54/54/54 88/88/88
f 54/54/54 55/55/55 88/88/88
f 88/88/88 55/55/55 89/89/89
f 55/55/55 56/56/56 89/89/89
f 89/89/89 56/56/56 90/90/90
f 56/56/56 57/57/57 90/90/90
f 90/90/90 57/57/57 91/91/91
f 57/57/57 58/58/58 91/91/91
f 91/91/91 58/58/58 92/92/92
f 58/58/58 59/59/59 92/92/92
f 92/92/92 59/59/59 93/93/93
f 59/59/59 60/60/60 93/93/93
f 93/93/93 60/60/60 94/94/94
f 60/60/60 61/61/61 94/94/94
f 94/94/94 61/61/61 95/95/95
f 61/61/61 62/62/62 95/95/95
f 95/95/95 62/62/62 96/96/96
f 62/62/62 63/63/63 96/96/96
f 96/96/96 63/63/63 97/97/97
f 63/63/63 64/64/64 97/97/97
f 97/97/97 64/64/64 98/98/98
f 64/64/64 65/65/65 98/98/98
f 98/98/98 65/65/65 99/99/99
f 65/65/65 66/66/66 99/99/99
f 100/100/100 67/67/67 101/101/101
f 67/67/67 68/68/68 101/101/101
f 101/101/101 68/68/68 102/102/102
f 68/68/68 69/69/69 102/102/102
f 102/102/102 69/69/69 103/103/103
f 69/69/69 70/70/70 103/103/103
f 103/103/103 70/70/70 104/104/104
f 70/70/70 71/71/71 104/104/104
f 104/104/104 71/71/71 105/105/105
f 71/71/71 72/72/72 105/105/105
f 105/105/105 72/72/72 106/106/106
f 72/72/72 73/73/73 106/106/106
f 106/106/106 73/73/73 107/107/107
f 73/73/73 74/74/74 107/107/107
f 107/107/107 74/74/74 108/108/108
f 74/74/74 75/75/75 108/108/108
f 108/108/108 75/75/75 109/109/109
f 75/75/75 76/76/76 109/109/109
f 109/109/109 76/76/76 110/110/110
f 76/76/76 77/77/77 110/110/110
f 110/110/110 77/77/77 111/111/111
f 77/77/77 78/78/78 111/111/111
f 111/111/111 78/78/78 112/112/112
f 78/78/78 79/79/79 112/112/112
f 112/112/112 79/79/79 113/113/113
f 79/79/79 80/80/80 113/113/113
f 113/113/113 80/80/80 114/114/114
f 80/80/80 81/81/81 114/114/114
f 114/114/114 81/81/81 115/115/115
f 81/81/81 82/82/82 115/115/115
f 115/115/115 82/82/82 116/116/116
f 82/82/82 83/83/83 116/116/116
f 116/116/116 83/83/83 117/117/117
f 83/83/83 84/84/84 117/117/117
f 117/117/117 84/84/84 118/118/118
f 84/84/84 85/85/85 118/118/118
f 118/118/118 85/85/85 119/119/119
f 85/85/85 86/86/86 119/119/119
f 119/119/119 86/86/86 120/120/120
f 86/86/86 87/87/87 120/120/120
f 120/120/120 87/87/87 121/121/121
f 87/87/87 88/88/88 121/121/121
f 121/121/121 88/88/88 122/122/122
f 88/88/88 89/89/89 122/122/122
f 122/122/122 89/89/89 123/123/123
f 89/89/89 90/90/90 123/123/123
f 123/123/123 90/90/90 124/124/124
f 90/90/90 91/91/91 124/124/124
f 124/124/124 91/91/91 125/125/125
f 91/91/91 92/92/92 125/125/125
f 125/125/125 92/92/92 126/126/126
f 92/92/92 93/93/93 126/126/126
f 126/126/126 93/93/93 127/127/127
f 93/93/93 94/94/94 127/127/127
f 127/127/127 94/94/94 128/128/128
f 94/94/94 95/95/95 128/128/128
f 128/128/128 95/95/95 129/129/129
f 95/95/95 96/96/96 129/129/129
f 129/129/129 96/96/96 130/130/130
f 96/96/96 97/97/97 130/130/130
f 130/130/130 97/97/97 131/131/131
f 97/97/97 98/98/98 131/131/131
f 131/131/131 98/98/98 132/132/132
f 98/98/98 99/99/99 132/132/132
f 133/133/133 100/100/100 134/134/134
f 100/100/100 101/101/101 134/134/134
f 134/134/134 101/101/101 135/135/135
f 101/101/101 102/102/102 135/135/135
f 135/135/135 102/102/102 136/136/136
f 102/102/102 103/103/103 136/136/136
f 136/136/136 103/103/103 137/137/137
f 103/103/103 104/104/104 137/137/137
f 137/137/137 104/104/104 138/138/138
f 104/104/104 105/105/105 138/138/138
f 138/138/138 105/105/105 139/139/139
f 105/105/105 106/106/106 139/139/139
f 139/139/139 106/106/106 140/140/140
f 106/106/106 107/107/107 140/140/140
f 140/140/140 107/107/107 141/141/141
f 107/107/107 108/108/108 141/141/141
f 141/141/141 108/108/108 142/142/142
f 108/108/108 109/109/109 142/142/142
f 142/142/142 109/109/109 143/143/143
f 109/109/109 110/110/110 143/143/143
f 143/143/143 110/110/110 144/144/144
f 110/110/110 111/111/111 144/144/144
f 144/144/144 111/111/111 145/145/145
f 111/111/111 112/112/112 145/145/145
f 145/145/145 112/112/112 146/146/146
f 112/112/112 113/113/113 146/146/146
f 146/146/146 113/113/113 147/147/147
f 113/113/113 114/114/114 147/147/147
f 147/147/147 114/114/114 148/148/148
f 114/114/114 115/115/115 148/148/148
f 148/148/148 115/115/115 149/149/149
f 115/115/115 116/116/116 149/149/149
f 149/149/149 116/116/116 150/150/150
f 116/116/116 117/117/117 150/150/150
f 150/150/150 117/117/117 151/151/151
f 117/117/117 118/118/118 151/151/151
f 151/151/151 118/118/118 152/152/152
f 118/118/118 119/119/119 152/152/152
f 152/152/152 119/119/119 153/153/153
f 119/119/119 120/120/120 153/153/153
f 153/153/153 120/120/120 154/154/154
f 120/120/120 121/121/121 154/154/154
f 154/154/154 121/121/121 155/155/155
f 121/121/121 122/122/122 155/155/155
f 155/155/155 122/122/122 156/156/156
f 122/122/122 123/123/123 156/156/156
f 156/156/156 123/123/123 157/157/157
f 123/123/123 124/124/124 157/157/157
f 157/157/157 124/124/124 158/158/158
f 124/124/124 125/125/125 158/158/158
f 158/158/158 125/125/125 159/159/159
f 125/125/125 126/126/126 159/159/159
f 159/159/159 126/126/126 160/160/160
f 126/126/126 127/127/127 160/160/160
f 160/160/160 127/127/127 161/161/161
f 127/127/127 128/128/128 161/161/161
f 161/161/161 128/128/128 162/162/162
f 128/128/128 129/129/129 162/162/162
f 162/162/162 129/129/129 163/163/163
f 129/129/129 130/130/130 163/163/163
f 163/163/163 130/130/130 164/164/164
f 130/130/130 131/131/131 164/164/164
f 164/164/164 131/131/131 165/165/165
f 131/131/131 132/132/132 165/165/165
f 166/166/166 133/133/133 167/167/167
f 133/133/133 134/134/134 167/167/167
f 167/167/167 134/134/134 168/168/168
f 134/134/134 135/135/135 168/168/168
f 168/168/168 135/135/135 169/169/169
f 135/135/135 136/136/136 169/169/169
f 169/169/169 136/136/136 170/170/170
f 136/136/136 137/137/137 170/170/170
f 170/170/170 137/137/137 171/171/171
f 137/137/137 138/138/138 171/171/171
f 171/171/171 138/138/138 172/172/172
f 138/138/138 139/139/139 172/172/172
f 172/172/172 139/139/139 173/173/173
f 139/139/139 140/140/140 173/173/173
f 173/173/173 140/140/140 174/174/174
f 140/140/140 141/141/141 174/174/174
f 174/174/174 141/141/141 175/175/175
f 141/141/141 142/142/142 175/175/175
f 175/175/175 142/142/142 176/176/176
f 142/142/142 143/143/143 176/176/176
f 176/176/176 143/143/143 177/177/177
f 143/143/143 144/144/144 177/177/177
f 177/177/177 144/144/144 178/178/178
f 144/144/144 145/145/145 178/178/178
f 178/178/178 145/145/145 179/179/179
f 145/145/145 146/146/146 179/179/179
f 179/179/179 146/146/146 180/180/180
f 146/146/146 147/147/147 180/180/180
f 180/180/180 147/147/147 181/181/181
f 147/147/147 148/148/148 181/181/181
f 181/181/181 148/148/148 182/182/182
f 148/148/148 149/149/149 182/182/182
f 182/182/182 149/149/149 183/183/183
f 149/149/149 150/150/150 183/183/183
f 183/183/183 150/150/150 184/184/184
f 150/150/150 151/151/151 184/184/184
f 184/184/184 151/151/151 185/185/185
f 151/151/151 152/152/152 185/185/185
f 185/185/185 152/152/152 186/186/186
f 152/152/152 153/153/153 186/186/186
f 186/186/186 153/153/153 187/187/187
f 153/153/153 154/154/154 187/187/187
f 187/187/187 154/154/154 188/188/188
f 154/154/154 155/155/155 188/188/188
f 188/188/188 155/155/155 189/189/189
f 155/155/155 156/156/156 189/189/189
f 189/189/189 156/156/156 190/190/190
f 156/156/156 157/157/157 190/190/190
f 190/190/190 157/157/157 191/191/191
f 157/157/157 158/158/158 191/191/191
f 191/191/191 158/158/158 192/192/192
f 158/158/158 159/159/159 192/192/192
f 192/192/192 159/159/159 193/193/193
f 159/159/159 160/160/160 193/193/193
f 193/193/193 160/160/160 194/194/194
f 160/160/160 161/161/161 194/194/194
f 194/194/194 161/161/161 195/195/195
f 161/161/161 162/162/162 195/195/195
f 195/195/195 162/162/162 196/196/196
f 162/162/162 163/163/163 196/196/196
f 196/196/196 163/163/163 197/197/197
f 163/163/163 164/164/164 197/197/197
f 197/197/197 164/164/164 198/198/198
f 164/164/164 165/165/165 198/198/198
f 199/199/199 166/166/166 200/200/200
f 166/166/166 167/167/167 200/200/200
f 200/200/200 167/167/167 201/201/201
f 167/167/167 168/168/168 201/201/201
f 201/201/201 168/168/168 202/202/202
f 168/168/168 169/169/169 202/202/202
f 202/202/202 169/169/169 203/203/203
f 169/169/169 170/170/170 203/203/203
f 203/203/203 170/170/170 204/204/204
f 170/170/170 171/171/171 204/204/204
f 204/204/204 171/171/171 205/205/205
f 171/171/171 172/172/172 205/205/205
f 205/205/205 172/172/172 206/206/206
f 172/172/172 173/173/173 206/206/206
f 206/206/206 173/173/173 207/207/207
f 173/173/173 174/174/174 207/207/207
f 207/207/207 174/174/174 208/208/208
f 174/174/174 175/175/175 208/208/208
f 208/208/208 175/175/175 209/209/209
f 175/175/175 176/176/176 209/209/209
f 209/209/209 176/176/176 210/210/210
f 176/176/176 177/177/177 210/210/210
f 210/210/210 177/177/177 211/211/211
f 177/177/177 178/178/178 211/211/211
f 211/211/211 178/178/178 212/212/212
f 178/178/178 179/179/179 212/212/212
f 212/212/212 179/179/179 213/213/213
f 179/179/179 180/180/180 213/213/213
f 213/213/213 180/180/180 214/214/214
f 180/180/180 181/181/181 214/214/214
f 214/214/214 181/181/181 215/215/215
f 181/181/181 182/182/182 215/215/215
f 215/215/215 182/182/182 216/216/216
f 182/182/182 183/183/183 216/216/216
f 216/216/216 183/183/183 217/217/217
f 183/183/183 184/184/184 217/217/217
f 217/217/217 184/184/184 218/218/218
f 184/184/184 185/185/185 218/218/218
f 218/218/218 185/185/185 219/219/219
f 185/185/185 186/186/186 219/219/219
f 219/219/219 186/186/186 220/220/220
f 186/186/186 187/187/187 220/220/220
f 220/220/220 187/187/187 221/221/221
f 187/187/187 188/188/188 221/221/221
f 221/221/221 188/188/188 222/222/222
f 188/188/188 189/189/189 222/222/222
f 222/222/222 189/189/189 223/223/223
f 189/189/189 190/190/190 223/223/223
f 223/223/223 190/190/190 224/224/224
f 190/190/190 191/191/191 224/224/224
f 224/224/224 191/191/191 225/225/225
f 191/191/191 192/192/192 225/225/225
f 225/225/225 192/192/192 226/226/226
f 192/192/192 193/193/193 226/226/226
f 226/226/226 193/193/193 227/227/227
f 193/193/193 194/194/194 227/227/227
f 227/227/227 194/194/194 228/228/228
f 194/194/194 195/195/195 228/228/228
f 228/228/228 195/195/195 229/229/229
f 195/195/195 196/196/196 229/229/229
f 229/229/229 196/196/196 230/230/230
f 196/196/196 197/197/197 230/230/230
f 230/230/230 197/197/197 231/231/231
f 197/197/197 198/198/198 231/231/231
f 232/232/232 199/199/199 233/233/233
f 199/199/199 200/200/200 233/233/233
f 233/233/233 200/200/200 234/234/234
f 200/200/200 201/201/201 234/234/234
f 234/234/234 201/201/201 235/235/235
f 201/201/201 202/202/202 235/235/235
f 235/235/235 202/202/202 236/236/236
f 202/202/202 203/203/203 236/236/236
f 236/236/236 203/203/203 237/237/237
f 203/203/203 204/204/204 237/237/237
f 237/237/237 204/204/204 238/238/238
f 204/204/204 205/205/205 238/238/238
f 238/238/238 205/205/205 239/239/239
f 205/205/205 206/206/206 239/239/239
f 239/239/239 206/206/206 240/240/240
f 206/206/206 207/207/207 240/240/240
f 240/240/240 207/207/207 241/241/241
f 207/207/207 208/208/208 241/241/241
f 241/241/241 208/208/208 242/242/242
f 208/208/208 209/209/209 242/242/242
f 242/242/242 209/209/209 243/243/243
f 209/209/209 210/210/210 243/243/243
f 243/243/243 210/210/210 244/244/244
f 210/210/210 211/211/211 244/244/244
f 244/244/244 211/211/211 245/245/245
f 211/211/211 212/212/212 245/245/245
f 245/245/245 212/212/212 246/246/246
f 212/212/212 213/213/213 246/246/246
f 246/246/246 213/213/213 247/247/247
f 213/213/213 214/214/214 247/247/247
f 247/247/247 214/214/214 248/248/248
f 214/214/214 215/215/215 248/248/248
f 248/248/248 215/215/215 249/249/249
f 215/215/215 216/216/216 249/249/249
f 249/249/249 216/216/216 250/250/250
f 216/216/216 217/217/217 250/250/250
f 250/250/250 217/217/217 251/251/251
f 217/217/217 218/218/218 251/251/251
f 251/251/251 218/218/218 252/252/252
f 218/218/218 219/219/219 252/252/252
f 252/252/252 219/219/219 253/253/253
f 219/219/219 220/220/220 253/253/253
f 253/253/253 220/220/220 254/254/254
f 220/220/220 221/221/221 254/254/254
f 254/254/254 221/221/221 255/255/255
f 221/221/221 222/222/222 255/255/255
f 255/255/255 222/222/222 256/256/256
f 222/222/222 223/223/223 256/256/256
f 256/256/256 223/223/223 257/257/257
f 223/223/223 224/224/224 257/257/257
f 257/257/257 224/224/224 258/258/258
f 224/224/224 225/225/225 258/258/258
f 258/258/258 225/225/225 259/259/259
f 225/225/225 226/226/226 259/259/259
f 259/259/259 226/226/226 260/260/260
f 226/226/226 227/227/227 260/260/260
f 260/260/260 227/227/227 261/261/261
f 227/227/227 228/228/228 261/261/261
f 261/261/261 228/228/228 262/262/262
f 228/228/228 229/229/229 262/262/262
f 262/262/262 229/229/229 263/263/263
f 229/229/229 230/230/230 263/263/263
f 263/263/263 230/230/230 264/264/264
f 230/230/230 231/231/231 264/264/264
f 265/265/265 232/232/232 266/266/266
f 232/232/232 233/233/233 266/266/266
f 266/266/266 233/233/233 267/267/267
f 233/233/233 234/234/234 267/267/267
f 267/267/267 234/234/234 268/268/268
f 234/234/234 235/235/235 268/268/268
f 268/268/268 235/235/235 269/269/269
f 235/235/235 236/236/236 269/269/269
f 269/269/269 236/236/236 270/270/270
f 236/236/236 237/237/237 270/270/270
f 270/270/270 237/237/237 271/271/271
f 237/237/237 238/238/238 271/271/271
f 271/271/271 238/238/238 272/272/272
f 238/238/238 239/239/239 272/272/272
f 272/272/272 239/239/239 273/273/273
f 239/239/239 240/240/240 273/273/273
f 273/273/273 240/240/240 274/274/274
f 240/240/240 241/241/241 274/274/274
f 274/274/274 241/241/241 275/275/275
f 241/241/241 242/242/242 275/275/275
f 275/275/275 242/242/242 276/276/276
f 242/242/242 243/243/243 276/276/276
f 276/276/276 243/243/243 277/277/277
f 243/243/243 244/244/244 277/277/277
f 277/277/277 244/244/244 278/278/278
f 244/244/244 245/245/245 278/278/278
f 278/278/278 245/245/245 279/279/279
f 245/245/245 246/246/246 279/279/279
f 279/279/279 246/246/246 280/280/280
f 246/246/246 247/247/247 280/280/280
f 280/280/280 247/247/247 281/281/281
f 247/247/247 248/248/248 281/281/281
f 281/281/281 248/248/248 282/282/282
f 248/248/248 249/249/249 282/282/282
f 282/282/282 249/249/249 283/283/283
f 249/249/249 250/250/250 283/283/283
f 283/283/283 250/250/250 284/284/284
f 250/250/250 251/251/251 284/284/284
f 284/284/284 251/251/251 285/285/285
f 251/251/251 252/252/252 285/285/285
f 285/285/285 252/252/252 286/286/286
f 252/252/252 253/253/253 286/286/286
f 286/286/286 253/253/253 287/287/287
f 253/253/253 254/254/254 287/287/287
f 287/287/287 254/254/254 288/288/288
f 254/254/254 255/255/255 288/288/288
f 288/288/288 255/255/255 289/289/289
f 255/255/255 256/256/256 289/289/289
f 289/289/289 256/256/256 290/290/290
f 256/256/256 257/257/257 290/290/290
f 290/290/290 257/257/257 291/291/291
f 257/257/257 258/258/258 291/291/291
f 291/291/291 258/258/258 292/292/292
f 258/258/258 259/259/259 292/292/292
f 292/292/292 259/259/259 293/293/293
f 259/259/259 260/260/260 293/293/293
f 293/293/293 260/260/260 294/294/294
f 260/260/260 261/261/261 294/294/294
f 294/294/294 261/261/261 295/295/295
f 261/261/261 262/262/262 295/295/295
f 295/295/295 262/262/262 296/296/296
f 262/262/262 263/263/263 296/296/296
f 296/296/296 263/263/263 297/297/297
f 263/263/263 264/264/264 297/297/297
f 298/298/298 265/265/265 299/299/299
f 265/265/265 266/266/266 299/299/299
f 299/299/299 266/266/266 300/300/300
f 266/266/266 267/267/267 300/300/300
f 300/300/300 267/267/267 301/301/301
f 267/267/267 268/268/268 301/301/301
f 301/301/301 268/268/268 302/302/302
f 268/268/268 269/269/269 302/302/302
f 302/302/302 269/269/269 303/303/303
f 269/269/269 270/270/270 303/303/303
f 303/303/303 270/270/270 304/304/304
f 270/270/270 271/271/271 304/304/304
f 304/304/304 271/271/271 305/305/305
f 271/271/271 272/272/272 305/305/305
f 305/305/305 272/272/272 306/306/306
f 272/272/272 273/273/273 306/306/306
f 306/306/306 273/273/273 307/307/307
f 273/273/273 274/274/274 307/307/307
f 307/307/307 274/274/274 308/308/308
f 274/274/274 275/275/275 308/308/308
f 308/308/308 275/275/275 309/309/309
f 275/275/275 276/276/276 309/309/309
f 309/309/309 276/276/276 310/310/310
f 276/276/276 277/277/277 310/310/310
f 310/310/310 277/277/277 311/311/311
f 277/277/277 278/278/278 311/311/311
f 311/311/311 278/278/278 312/312/312
f 278/278/278 279/279/279 312/312/312
f 312/312/312 279/279/279 313/313/313
f 279/279/279 280/280/280 313/313/313
f 313/313/313 280/280/280 314/314/314
f 280/280/280 281/281/281 314/314/314
f 314/314/314 281/281/281 315/315/315
f 281/281/281 282/282/282 315/315/315
f 315/315/315 282/282/282 316/316/316
f 282/282/282 283/283/283 316/316/316
f 316/316/316 283/283/283 317/317/317
f 283/283/283 284/284/284 317/317/317
f 317/317/317 284/284/284 318/318/318
f 284/284/284 285/285/285 318/318/318
f 318/318/318 285/285/285 319/319/319
f 285/285/285 286/286/286 319/319/319
f 319/319/319 286/286/286 320/320/320
f 286/286/286 287/287/287 320/320/320
f 320/320/320 287/287/287 321/321/321
f 287/287/287 288/288/288 321/321/321
f 321/321/321 288/288/288 322/322/322
f 288/288/288 289/289/289 322/322/322
f 322/322/322 289/289/289 323/323/323
f 289/289/289 290/290/290 323/323/323
f 323/323/323 290/290/290 324/324/324
f 290/290/290 291/291/291 324/324/324
f 324/324/324 291/291/291 325/325/325
f 291/291/291 292/292/292 325/325/325
f 325/325/325 292/292/292 326/326/326
f 292/292/292 293/293/293 326/326/326
f 326/326/326 293/293/293 327/327/327
f 293/293/293 294/294/294 327/327/327
f 327/327/327 294/294/294 328/328/328
f 294/294/294 295/295/295 328/328/328
f 328/328/328 295/295/295 329/329/329
f 295/295/295 296/296/296 329/329/329
f 329/329/329 296/296/296 330/330/330
f 296/296/296 297/297/297 330/330/330
f 331/331/331 298/298/298 332/332/332
f 298/298/298 299/299/299 332/332/332
f 332/332/332 299/299/299 333/333/333
f 299/299/299 300/300/300 333/333/333
f 333/333/333 300/300/300 334/334/334
f 300/300/300 301/301/301 334/334/334
f 334/334/334 301/301/301 335/335/335
f 301/301/301 302/302/302 335/335/335
f 335/335/335 302/302/302 336/336/336
f 302/302/302 303/303/303 336/336/336
f 336/336/336 303/303/303 337/337/337
f 303/303/303 304/304/304 337/337/337
f 337/337/337 304/304/304 338/338/338
f 304/304/304 305/305/305 338/338/338
f 338/338/338 305/305/305 339/339/339
f 305/305/305 306/306/306 339/339/339
f 339/339/339 306/306/306 340/340/340
f 306/306/306 307/307/307 340/340/340
f 340/340/340 307/307/307 341/341/341
f 307/307/307 308/308/308 341/341/341
f 341/341/341 308/308/308 342/342/342
f 308/308/308 309/309/309 342/342/342
f 342/342/342 309/309/309 343/343/343
f 309/309/309 310/310/310 343/343/343
f 343/343/343 310/310/310 344/344/344
f 310/310/310 311/311/311 344/344/344
f 344/344/344 311/311/311 345/345/345
f 311/311/311 312/312/312 345/345/345
f 345/345/345 312/312/312 346/346/346
f 312/312/312 313/313/313 346/346/346
f 346/346/346 313/313/313 347/347/347
f 313/313/313 314/314/314 347/347/347
f 347/347/347 314/314/314 348/348/348
f 314/314/314 315/315/315 348/348/348
f 348/348/348 315/315/315 349/349/349
f 315/315/315 316/316/316 349/349/349
f 349/349/349 316/316/316 350/350/350
f 316/316/316 317/317/317 350/350/350
f 350/350/350 317/317/317 351/351/351
f 317/317/317 318/318/318 351/351/351
f 351/351/351 318/318/318 352/352/352
f 318/318/318 319/319/319 352/352/352
f 352/352/352 319/319/319 353/353/353
f 319/319/319 320/320/320 353/353/353
f 353/353/353 320/320/320 354/354/354
f 320/320/320 321/321/321 354/354/354
f 354/354/354 321/321/321 355/355/355
f 321/321/321 322/322/322 355/355/355
f 355/355/355 322/322/322 356/356/356
f 322/322/322 323/323/323 356/356/356
f 356/356/356 323/323/323 357/357/357
f 323/323/323 324/324/324 357/357/357
f 357/357/357 324/324/324 358/358/358
f 324/324/324 325/325/325 358/358/358
f 358/358/358 325/325/325 359/359/359
f 325/325/325 326/326/326 359/359/359
f 359/359/359 326/326/326 360/360/360
f 326/326/326 327/327/327 360/360/360
f 360/360/360 327/327/327 361/361/361
f 327/327/327 328/328/328 361/361/361
f 361/361/361 328/328/328 362/362/362
f 328/328/328 329/329/329 362/362/362
f 362/362/362 329/329/329 363/363/363
f 329/329/329 330/330/330 363/363/363
