o shape_097
v 1 0.5003013014793396 0
v 0.9934438467025757 0.6146571636199951 0
v 0.9738613367080688 0.7275144457817078 0
v 0.9415088295936584 0.8373941779136658 0
v 0.8968105316162109 0.94285649061203 0
v 0.8403522968292236 1.0425195693969727 0
v 0.7728736996650696 1.135076880455017 0
v 0.695259153842926 1.219316005706787 0
v 0.6085256934165955 1.2941327095031738 0
v 0.5138099789619446 1.3585468530654907 0
v 0.41235312819480896 1.4117140769958496 0
v 0.30548474192619324 1.4529378414154053 0
v 0.1946052759885788 1.4816776514053345 0
v 0.08116770535707474 1.497557282447815 0
v -0.0333414226770401 1.5003682374954224 0
v -0.14742152392864227 1.4900740385055542 0
v -0.2595776617527008 1.4668091535568237 0
v -0.36834004521369934 1.4308791160583496 0
v -0.47228342294692993 1.3827539682388306 0
v -0.5700457692146301 1.323065161705017 0
v -0.6603457927703857 1.252594232559204 0
v -0.7420003414154053 1.1722650527954102 0
v -0.8139391541481018 1.083130121231079 0
v -0.8752196431159973 0.9863575100898743 0
v -0.9250389337539673 0.8832153081893921 0
v -0.962743878364563 0.775055468082428 0
v -0.9878406524658203 0.6632949709892273 0
v -1 0.5493985414505005 0
v -0.9990630149841309 0.4348587691783905 0
v -0.985041618347168 0.32117658853530884 0
v -0.9581196308135986 0.20984169840812683 0
v -0.9186500906944275 0.10231313854455948 0
v -0.8671500086784363 0 0
v 0.9708495736122131 0.5003013014793396 0.08971618860960007
v 0.9644843935966492 0.6113256216049194 0.08971618860960007
v 0.9454721808433533 0.7208950519561768 0.08971618860960007
v 0.9140624403953552 0.8275736570358276 0.08971618860960007
v 0.8706663250923157 0.9299636483192444 0.08971618860960007
v 0.815852701663971 1.026723027229309 0.08971618860960007
v 0.7503399848937988 1.116584062576294 0.08971618860960007
v 0.6749866008758545 1.1983689069747925 0.08971618860960007
v 0.5907799601554871 1.2710061073303223 0.08971618860960007
v 0.4988235831260681 1.3335435390472412 0.08971618860960007
v 0.40032249689102173 1.3851618766784668 0.08971618860960007
v 0.29656752943992615 1.4251844882965088 0.08971618860960007
v 0.18891827762126923 1.4530872106552124 0.08971618860960007
v 0.0787854865193367 1.4685041904449463 0.08971618860960007
v -0.03238764405250549 1.4712332487106323 0.08971618860960007
v -0.14314424991607666 1.461238980293274 0.08971618860960007
v -0.25203293561935425 1.4386519193649292 0.08971618860960007
v -0.357626736164093 1.403768539428711 0.08971618860960007
v -0.45854198932647705 1.3570456504821777 0.08971618860960007
v -0.55345618724823 1.2990955114364624 0.08971618860960007
v -0.641125500202179 1.230677604675293 0.08971618860960007
v -0.7204011082649231 1.15268874168396 0.08971618860960007
v -0.7902442216873169 1.0661505460739136 0.08971618860960007
v -0.8497396111488342 0.9721972346305847 0.08971618860960007
v -0.8981072902679443 0.8720599412918091 0.08971618860960007
v -0.9347138404846191 0.7670509815216064 0.08971618860960007
v -0.9590793251991272 0.658546507358551 0.08971618860960007
v -0.9708845615386963 0.5479682087898254 0.08971618860960007
v -0.9699747562408447 0.43676531314849854 0.08971618860960007
v -0.9563619494438171 0.3263950049877167 0.08971618860960007
v -0.9302244186401367 0.2183036506175995 0.08971618860960007
v -0.8919046521186829 0.11390771716833115 0.08971618860960007
v -0.8419048190116882 0.01457524485886097 0.08971618860960007
v 0.8945322632789612 0.5003013014793396 0.14516384899616241
v 0.8886672854423523 0.602603554725647 0.14516384899616241
v 0.8711487054824829 0.7035651803016663 0.14516384899616241
v 0.8422063589096069 0.8018631935119629 0.14516384899616241
v 0.8022195100784302 0.8962094187736511 0.14516384899616241
v 0.7517121434211731 0.9853674173355103 0.14516384899616241
v 0.6913460493087769 1.0681688785552979 0.14516384899616241
v 0.6219123601913452 1.1435288190841675 0.14516384899616241
v 0.5443210005760193 1.2104597091674805 0.14516384899616241
v 0.4595887362957001 1.268084168434143 0.14516384899616241
v 0.36882585287094116 1.3156473636627197 0.14516384899616241
v 0.273221880197525 1.3525259494781494 0.14516384899616241
v 0.17402954399585724 1.3782365322113037 0.14516384899616241
v 0.0725487694144249 1.392442226409912 0.14516384899616241
v -0.029890617355704308 1.3949570655822754 0.14516384899616241
v -0.13194620609283447 1.3857477903366089 0.14516384899616241
v -0.23228059709072113 1.3649351596832275 0.14516384899616241
v -0.3295789659023285 1.3327921628952026 0.14516384899616241
v -0.42256632447242737 1.2897398471832275 0.14516384899616241
v -0.5100240111351013 1.2363423109054565 0.14516384899616241
v -0.5908061265945435 1.1732993125915527 0.14516384899616241
v -0.6638538837432861 1.1014372110366821 0.14516384899616241
v -0.7282100915908813 1.0216975212097168 0.14516384899616241
v -0.7830314636230469 0.9351250529289246 0.14516384899616241
v -0.8275994658470154 0.8428546190261841 0.14516384899616241
v -0.8613302707672119 0.7460951805114746 0.14516384899616241
v -0.8837816119194031 0.6461147665977478 0.14516384899616241
v -0.8946594595909119 0.5442234873771667 0.14516384899616241
v -0.8938210606575012 0.4417566657066345 0.14516384899616241
v -0.8812775015830994 0.3400570750236511 0.14516384899616241
v -0.8571934700012207 0.24045734107494354 0.14516384899616241
v -0.8218839764595032 0.14426274597644806 0.14516384899616241
v -0.7758122086524963 0.05273383483290672 0.14516384899616241
v 0.8001991510391235 0.5003013014793396 0.14516384899616241
v 0.7949520945549011 0.5918225646018982 0.14516384899616241
v 0.7792797684669495 0.6821444034576416 0.14516384899616241
v 0.7533875107765198 0.7700833082199097 0.14516384899616241
v 0.7176146507263184 0.854486882686615 0.14516384899616241
v 0.6724299788475037 0.9342490434646606 0.14516384899616241
v 0.6184255480766296 1.0083245038986206 0.14516384899616241
v 0.5563090443611145 1.0757427215576172 0.14516384899616241
v 0.4868946075439453 1.1356201171875 0.14516384899616241
v 0.41109177470207214 1.1871719360351562 0.14516384899616241
v 0.32989391684532166 1.2297226190567017 0.14516384899616241
v 0.24436506628990173 1.2627147436141968 0.14516384899616241
v 0.1556260585784912 1.285715937614441 0.14516384899616241
v 0.06483975797891617 1.2984246015548706 0.14516384899616241
v -0.026804119348526 1.300674319267273 0.14516384899616241
v -0.11810464411973953 1.2924355268478394 0.14516384899616241
v -0.207865372300148 1.2738163471221924 0.14516384899616241
v -0.2949100434780121 1.245060682296753 0.14516384899616241
v -0.3780979812145233 1.2065454721450806 0.14516384899616241
v -0.456339031457901 1.1587752103805542 0.14516384899616241
v -0.528607964515686 1.1023759841918945 0.14516384899616241
v -0.5939575433731079 1.0380868911743164 0.14516384899616241
v -0.6515316963195801 0.9667505621910095 0.14516384899616241
v -0.7005757093429565 0.8893014788627625 0.14516384899616241
v -0.7404469847679138 0.8067548871040344 0.14516384899616241
v -0.770622968673706 0.7201923727989197 0.14516384899616241
v -0.7907083630561829 0.6307483315467834 0.14516384899616241
v -0.8004397749900818 0.5395947694778442 0.14516384899616241
v -0.7996898293495178 0.4479263722896576 0.14516384899616241
v -0.7884682416915894 0.3569442927837372 0.14516384899616241
v -0.766922116279602 0.26784083247184753 0.14516384899616241
v -0.7353338003158569 0.18178363144397736 0.14516384899616241
v -0.6941173076629639 0.09990042448043823 0.14516384899616241
v 0.7238819599151611 0.5003013014793396 0.08971618860960007
v 0.719135046005249 0.583100438117981 0.08971618860960007
v 0.7049562335014343 0.6648145318031311 0.08971618860960007
v 0.681531548500061 0.7443727850914001 0.08971618860960007
v 0.6491678953170776 0.8207326531410217 0.08971618860960007
v 0.6082893013954163 0.8928934931755066 0.08971618860960007
v 0.5594315528869629 0.9599094390869141 0.08971618860960007
v 0.50323486328125 1.0209026336669922 0.08971618860960007
v 0.4404356777667999 1.0750735998153687 0.08971618860960007
v 0.3718568980693817 1.1217124462127686 0.08971618860960007
v 0.2983972728252411 1.1602081060409546 0.08971618860960007
v 0.22101940214633942 1.1900560855865479 0.08971618860960007
v 0.14073732495307922 1.2108651399612427 0.08971618860960007
v 0.058603037148714066 1.222362756729126 0.08971618860960007
v -0.024307094514369965 1.2243980169296265 0.08971618860960007
v -0.10690660029649734 1.2169445753097534 0.08971618860960007
v -0.1881130486726761 1.2000997066497803 0.08971618860960007
v -0.26686227321624756 1.1740845441818237 0.08971618860960007
v -0.34212228655815125 1.13923978805542 0.08971618860960007
v -0.4129069447517395 1.0960220098495483 0.08971618860960007
v -0.47828853130340576 1.0449976921081543 0.08971618860960007
v -0.537410318851471 0.9868354797363281 0.08971618860960007
v -0.5894975066184998 0.922297477722168 0.08971618860960007
v -0.633867621421814 0.8522294163703918 0.08971618860960007
v -0.6699391603469849 0.7775495648384094 0.08971618860960007
v -0.697239339351654 0.6992365121841431 0.08971618860960007
v -0.7154105305671692 0.6183165907859802 0.08971618860960007
v -0.7242145538330078 0.5358500480651855 0.08971618860960007
v -0.7235360741615295 0.45291775465011597 0.08971618860960007
v -0.7133839130401611 0.37060636281967163 0.08971618860960007
v -0.693891167640686 0.2899945080280304 0.08971618860960007
v -0.6653132438659668 0.21213866770267487 0.08971618860960007
v -0.628024697303772 0.13805902004241943 0.08971618860960007
v 0.6947314143180847 0.5003013014793396 1.8692311499479324e-17
v 0.690175473690033 0.57976895570755 1.8692311499479324e-17
v 0.6765671968460083 0.6581951379776001 1.8692311499479324e-17
v 0.6540850400924683 0.7345523238182068 1.8692311499479324e-17
v 0.6230235695838928 0.8078396916389465 1.8692311499479324e-17
v 0.5837897658348083 0.8770970106124878 1.8692311499479324e-17
v 0.5368978977203369 0.9414166212081909 1.8692311499479324e-17
v 0.48296234011650085 0.9999555945396423 1.8692311499479324e-17
v 0.42268994450569153 1.0519468784332275 1.8692311499479324e-17
v 0.35687053203582764 1.096709132194519 1.8692311499479324e-17
v 0.28636664152145386 1.1336560249328613 1.8692311499479324e-17
v 0.21210217475891113 1.162302851676941 1.8692311499479324e-17
v 0.13505032658576965 1.1822748184204102 1.8692311499479324e-17
v 0.056220825761556625 1.1933096647262573 1.8692311499479324e-17
v -0.023353315889835358 1.1952630281448364 1.8692311499479324e-17
v -0.10262931883335114 1.1881093978881836 1.8692311499479324e-17
v -0.18056832253932953 1.1719423532485962 1.8692311499479324e-17
v -0.2561489939689636 1.146973967552185 1.8692311499479324e-17
v -0.328380823135376 1.113531231880188 1.8692311499479324e-17
v -0.39631733298301697 1.0720524787902832 1.8692311499479324e-17
v -0.4590682089328766 1.0230811834335327 1.8692311499479324e-17
v -0.5158112049102783 0.9672592282295227 1.8692311499479324e-17
v -0.5658026337623596 0.9053179025650024 1.8692311499479324e-17
v -0.6083874106407166 0.8380691409111023 1.8692311499479324e-17
v -0.6430075168609619 0.7663941383361816 1.8692311499479324e-17
v -0.6692093014717102 0.6912321448326111 1.8692311499479324e-17
v -0.6866493225097656 0.613568127155304 1.8692311499479324e-17
v -0.6950991153717041 0.5344197750091553 1.8692311499479324e-17
v -0.694447934627533 0.4548242688179016 1.8692311499479324e-17
v -0.6847043037414551 0.37582477927207947 1.8692311499479324e-17
v -0.6659958362579346 0.2984565198421478 1.8692311499479324e-17
v -0.6385678052902222 0.22373324632644653 1.8692311499479324e-17
v -0.6027795672416687 0.15263429284095764 1.8692311499479324e-17
v 0.7238819599151611 0.5003013014793396 -0.08971618860960007
v 0.719135046005249 0.583100438117981 -0.08971618860960007
v 0.7049562335014343 0.6648145318031311 -0.08971618860960007
v 0.681531548500061 0.7443727850914001 -0.08971618860960007
v 0.6491678953170776 0.8207326531410217 -0.08971618860960007
v 0.6082893013954163 0.8928934931755066 -0.08971618860960007
v 0.5594315528869629 0.9599094390869141 -0.08971618860960007
v 0.50323486328125 1.0209026336669922 -0.08971618860960007
v 0.4404356777667999 1.0750735998153687 -0.08971618860960007
v 0.3718568980693817 1.1217124462127686 -0.08971618860960007
v 0.2983972728252411 1.1602081060409546 -0.08971618860960007
v 0.22101940214633942 1.1900560855865479 -0.08971618860960007
v 0.14073732495307922 1.2108651399612427 -0.08971618860960007
v 0.058603037148714066 1.222362756729126 -0.08971618860960007
v -0.024307094514369965 1.2243980169296265 -0.08971618860960007
v -0.10690660029649734 1.2169445753097534 -0.08971618860960007
v -0.1881130486726761 1.2000997066497803 -0.08971618860960007
v -0.26686227321624756 1.1740845441818237 -0.08971618860960007
v -0.34212228655815125 1.13923978805542 -0.08971618860960007
v -0.4129069447517395 1.0960220098495483 -0.08971618860960007
v -0.47828853130340576 1.0449976921081543 -0.08971618860960007
v -0.537410318851471 0.9868354797363281 -0.08971618860960007
v -0.5894975066184998 0.922297477722168 -0.08971618860960007
v -0.633867621421814 0.8522294163703918 -0.08971618860960007
v -0.6699391603469849 0.7775495648384094 -0.08971618860960007
v -0.697239339351654 0.6992365121841431 -0.08971618860960007
v -0.7154105305671692 0.6183165907859802 -0.08971618860960007
v -0.7242145538330078 0.5358500480651855 -0.08971618860960007
v -0.7235360741615295 0.45291775465011597 -0.08971618860960007
v -0.7133839130401611 0.37060636281967163 -0.08971618860960007
v -0.693891167640686 0.2899945080280304 -0.08971618860960007
v -0.6653132438659668 0.21213866770267487 -0.08971618860960007
v -0.628024697303772 0.13805902004241943 -0.08971618860960007
v 0.8001991510391235 0.5003013014793396 -0.14516384899616241
v 0.7949520945549011 0.5918225646018982 -0.14516384899616241
v 0.7792797684669495 0.6821444034576416 -0.14516384899616241
v 0.7533875107765198 0.7700833082199097 -0.14516384899616241
v 0.7176146507263184 0.854486882686615 -0.14516384899616241
v 0.6724299788475037 0.9342490434646606 -0.14516384899616241
v 0.6184255480766296 1.0083245038986206 -0.14516384899616241
v 0.5563090443611145 1.0757427215576172 -0.14516384899616241
v 0.4868946075439453 1.1356201171875 -0.14516384899616241
v 0.41109177470207214 1.1871719360351562 -0.14516384899616241
v 0.32989391684532166 1.2297226190567017 -0.14516384899616241
v 0.24436506628990173 1.2627147436141968 -0.14516384899616241
v 0.1556260585784912 1.285715937614441 -0.14516384899616241
v 0.06483975797891617 1.2984246015548706 -0.14516384899616241
v -0.026804119348526 1.300674319267273 -0.14516384899616241
v -0.11810464411973953 1.2924355268478394 -0.14516384899616241
v -0.207865372300148 1.2738163471221924 -0.14516384899616241
v -0.2949100434780121 1.245060682296753 -0.14516384899616241
v -0.3780979812145233 1.2065454721450806 -0.14516384899616241
v -0.456339031457901 1.1587752103805542 -0.14516384899616241
v -0.528607964515686 1.1023759841918945 -0.14516384899616241
v -0.5939575433731079 1.0380868911743164 -0.14516384899616241
v -0.6515316963195801 0.9667505621910095 -0.14516384899616241
v -0.7005757093429565 0.8893014788627625 -0.14516384899616241
v -0.7404469847679138 0.8067548871040344 -0.14516384899616241
v -0.770622968673706 0.7201923727989197 -0.14516384899616241
v -0.7907083630561829 0.6307483315467834 -0.14516384899616241
v -0.8004397749900818 0.5395947694778442 -0.14516384899616241
v -0.7996898293495178 0.4479263722896576 -0.14516384899616241
v -0.7884682416915894 0.3569442927837372 -0.14516384899616241
v -0.766922116279602 0.26784083247184753 -0.14516384899616241
v -0.7353338003158569 0.18178363144397736 -0.14516384899616241
v -0.6941173076629639 0.09990042448043823 -0.14516384899616241
v 0.8945322632789612 0.5003013014793396 -0.14516384899616241
v 0.8886672854423523 0.602603554725647 -0.14516384899616241
v 0.8711487054824829 0.7035651803016663 -0.14516384899616241
v 0.8422063589096069 0.8018631935119629 -0.14516384899616241
v 0.8022195100784302 0.8962094187736511 -0.14516384899616241
v 0.7517121434211731 0.9853674173355103 -0.14516384899616241
v 0.6913460493087769 1.0681688785552979 -0.14516384899616241
v 0.6219123601913452 1.1435288190841675 -0.14516384899616241
v 0.5443210005760193 1.2104597091674805 -0.14516384899616241
v 0.4595887362957001 1.268084168434143 -0.14516384899616241
v 0.36882585287094116 1.3156473636627197 -0.14516384899616241
v 0.273221880197525 1.3525259494781494 -0.14516384899616241
v 0.17402954399585724 1.3782365322113037 -0.14516384899616241
v 0.0725487694144249 1.392442226409912 -0.14516384899616241
v -0.029890617355704308 1.3949570655822754 -0.14516384899616241
v -0.13194620609283447 1.3857477903366089 -0.14516384899616241
v -0.23228059709072113 1.3649351596832275 -0.14516384899616241
v -0.3295789659023285 1.3327921628952026 -0.14516384899616241
v -0.42256632447242737 1.2897398471832275 -0.14516384899616241
v -0.5100240111351013 1.2363423109054565 -0.14516384899616241
v -0.5908061265945435 1.1732993125915527 -0.14516384899616241
v -0.6638538837432861 1.1014372110366821 -0.14516384899616241
v -0.7282100915908813 1.0216975212097168 -0.14516384899616241
v -0.7830314636230469 0.9351250529289246 -0.14516384899616241
v -0.8275994658470154 0.8428546190261841 -0.14516384899616241
v -0.8613302707672119 0.7460951805114746 -0.14516384899616241
v -0.8837816119194031 0.6461147665977478 -0.14516384899616241
v -0.8946594595909119 0.5442234873771667 -0.14516384899616241
v -0.8938210606575012 0.4417566657066345 -0.14516384899616241
v -0.8812775015830994 0.3400570750236511 -0.14516384899616241
v -0.8571934700012207 0.24045734107494354 -0.14516384899616241
v -0.8218839764595032 0.14426274597644806 -0.14516384899616241
v -0.7758122086524963 0.05273383483290672 -0.14516384899616241
v 0.9708495736122131 0.5003013014793396 -0.08971618860960007
v 0.9644843935966492 0.6113256216049194 -0.08971618860960007
v 0.9454721808433533 0.7208950519561768 -0.08971618860960007
v 0.9140624403953552 0.8275736570358276 -0.08971618860960007
v 0.8706663250923157 0.9299636483192444 -0.08971618860960007
v 0.815852701663971 1.026723027229309 -0.08971618860960007
v 0.7503399848937988 1.116584062576294 -0.08971618860960007
v 0.6749866008758545 1.1983689069747925 -0.08971618860960007
v 0.5907799601554871 1.2710061073303223 -0.08971618860960007
v 0.4988235831260681 1.3335435390472412 -0.08971618860960007
v 0.40032249689102173 1.3851618766784668 -0.08971618860960007
v 0.29656752943992615 1.4251844882965088 -0.08971618860960007
v 0.18891827762126923 1.4530872106552124 -0.08971618860960007
v 0.0787854865193367 1.4685041904449463 -0.08971618860960007
v -0.03238764405250549 1.4712332487106323 -0.08971618860960007
v -0.14314424991607666 1.461238980293274 -0.08971618860960007
v -0.25203293561935425 1.4386519193649292 -0.08971618860960007
v -0.357626736164093 1.403768539428711 -0.08971618860960007
v -0.45854198932647705 1.3570456504821777 -0.08971618860960007
v -0.55345618724823 1.2990955114364624 -0.08971618860960007
v -0.641125500202179 1.230677604675293 -0.08971618860960007
v -0.7204011082649231 1.15268874168396 -0.08971618860960007
v -0.7902442216873169 1.0661505460739136 -0.08971618860960007
v -0.8497396111488342 0.9721972346305847 -0.08971618860960007
v -0.8981072902679443 0.8720599412918091 -0.08971618860960007
v -0.9347138404846191 0.7670509815216064 -0.08971618860960007
v -0.9590793251991272 0.658546507358551 -0.08971618860960007
v -0.9708845615386963 0.5479682087898254 -0.08971618860960007
v -0.9699747562408447 0.43676531314849854 -0.08971618860960007
v -0.9563619494438171 0.3263950049877167 -0.08971618860960007
v -0.9302244186401367 0.2183036506175995 -0.08971618860960007
v -0.8919046521186829 0.11390771716833115 -0.08971618860960007
v -0.8419048190116882 0.01457524485886097 -0.08971618860960007
v 1 0.5003013014793396 -3.738462299895865e-17
v 0.9934438467025757 0.6146571636199951 -3.738462299895865e-17
v 0.9738613367080688 0.7275144457817078 -3.738462299895865e-17
v 0.9415088295936584 0.8373941779136658 -3.738462299895865e-17
v 0.8968105316162109 0.94285649061203 -3.738462299895865e-17
v 0.8403522968292236 1.0425195693969727 -3.738462299895865e-17
v 0.7728736996650696 1.135076880455017 -3.738462299895865e-17
v 0.695259153842926 1.219316005706787 -3.738462299895865e-17
v 0.6085256934165955 1.2941327095031738 -3.738462299895865e-17
v 0.5138099789619446 1.3585468530654907 -3.738462299895865e-17
v 0.41235312819480896 1.4117140769958496 -3.738462299895865e-17
v 0.30548474192619324 1.4529378414154053 -3.738462299895865e-17
v 0.1946052759885788 1.4816776514053345 -3.738462299895865e-17
v 0.08116770535707474 1.497557282447815 -3.738462299895865e-17
v -0.0333414226770401 1.5003682374954224 -3.738462299895865e-17
v -0.14742152392864227 1.4900740385055542 -3.738462299895865e-17
v -0.2595776617527008 1.4668091535568237 -3.738462299895865e-17
v -0.36834004521369934 1.4308791160583496 -3.738462299895865e-17
v -0.47228342294692993 1.3827539682388306 -3.738462299895865e-17
v -0.5700457692146301 1.323065161705017 -3.738462299895865e-17
v -0.6603457927703857 1.252594232559204 -3.738462299895865e-17
v -0.7420003414154053 1.1722650527954102 -3.738462299895865e-17
v -0.8139391541481018 1.083130121231079 -3.738462299895865e-17
v -0.8752196431159973 0.9863575100898743 -3.738462299895865e-17
v -0.9250389337539673 0.8832153081893921 -3.738462299895865e-17
v -0.962743878364563 0.775055468082428 -3.738462299895865e-17
v -0.9878406524658203 0.6632949709892273 -3.738462299895865e-17
v -1 0.5493985414505005 -3.738462299895865e-17
v -0.9990630149841309 0.4348587691783905 -3.738462299895865e-17
v -0.985041618347168 0.32117658853530884 -3.738462299895865e-17
v -0.9581196308135986 0.20984169840812683 -3.738462299895865e-17
v -0.9186500906944275 0.10231313854455948 -3.738462299895865e-17
v -0.8671500086784363 0 -3.738462299895865e-17
vt 0 0
vt 0.03125 0
vt 0.0625 0
vt 0.09375 0
vt 0.125 0
vt 0.15625 0
vt 0.1875 0
vt 0.21875 0
vt 0.25 0
vt 0.28125 0
vt 0.3125 0
vt 0.34375 0
vt 0.375 0
vt 0.40625 0
vt 0.4375 0
vt 0.46875 0
vt 0.5 0
vt 0.53125 0
vt 0.5625 0
vt 0.59375 0
vt 0.625 0
vt 0.65625 0
vt 0.6875 0
vt 0.71875 0
vt 0.75 0
vt 0.78125 0
vt 0.8125 0
vt 0.84375 0
vt 0.875 0
vt 0.90625 0
vt 0.9375 0
vt 0.96875 0
vt 1 0
vt 0 0.10000000149011612
vt 0.03125 0.10000000149011612
vt 0.0625 0.10000000149011612
vt 0.09375 0.10000000149011612
vt 0.125 0.10000000149011612
vt 0.15625 0.10000000149011612
vt 0.1875 0.10000000149011612
vt 0.21875 0.10000000149011612
vt 0.25 0.10000000149011612
vt 0.28125 0.10000000149011612
vt 0.3125 0.10000000149011612
vt 0.34375 0.10000000149011612
vt 0.375 0.10000000149011612
vt 0.40625 0.10000000149011612
vt 0.4375 0.10000000149011612
vt 0.46875 0.10000000149011612
vt 0.5 0.10000000149011612
vt 0.53125 0.10000000149011612
vt 0.5625 0.10000000149011612
vt 0.59375 0.10000000149011612
vt 0.625 0.10000000149011612
vt 0.65625 0.10000000149011612
vt 0.6875 0.10000000149011612
vt 0.71875 0.10000000149011612
vt 0.75 0.10000000149011612
vt 0.78125 0.10000000149011612
vt 0.8125 0.10000000149011612
vt 0.84375 0.10000000149011612
vt 0.875 0.10000000149011612
vt 0.90625 0.10000000149011612
vt 0.9375 0.10000000149011612
vt 0.96875 0.10000000149011612
vt 1 0.10000000149011612
vt 0 0.20000000298023224
vt 0.03125 0.20000000298023224
vt 0.0625 0.20000000298023224
vt 0.09375 0.20000000298023224
vt 0.125 0.20000000298023224
vt 0.15625 0.20000000298023224
vt 0.1875 0.20000000298023224
vt 0.21875 0.20000000298023224
vt 0.25 0.20000000298023224
vt 0.28125 0.20000000298023224
vt 0.3125 0.20000000298023224
vt 0.34375 0.20000000298023224
vt 0.375 0.20000000298023224
vt 0.40625 0.20000000298023224
vt 0.4375 0.20000000298023224
vt 0.46875 0.20000000298023224
vt 0.5 0.20000000298023224
vt 0.53125 0.20000000298023224
vt 0.5625 0.20000000298023224
vt 0.59375 0.20000000298023224
vt 0.625 0.20000000298023224
vt 0.65625 0.20000000298023224
vt 0.6875 0.20000000298023224
vt 0.71875 0.20000000298023224
vt 0.75 0.20000000298023224
vt 0.78125 0.20000000298023224
vt 0.8125 0.20000000298023224
vt 0.84375 0.20000000298023224
vt 0.875 0.20000000298023224
vt 0.90625 0.20000000298023224
vt 0.9375 0.20000000298023224
vt 0.96875 0.20000000298023224
vt 1 0.20000000298023224
vt 0 0.30000001192092896
vt 0.03125 0.30000001192092896
vt 0.0625 0.30000001192092896
vt 0.09375 0.30000001192092896
vt 0.125 0.30000001192092896
vt 0.15625 0.30000001192092896
vt 0.1875 0.30000001192092896
vt 0.21875 0.30000001192092896
vt 0.25 0.30000001192092896
vt 0.28125 0.30000001192092896
vt 0.3125 0.30000001192092896
vt 0.34375 0.30000001192092896
vt 0.375 0.30000001192092896
vt 0.40625 0.30000001192092896
vt 0.4375 0.30000001192092896
vt 0.46875 0.30000001192092896
vt 0.5 0.30000001192092896
vt 0.53125 0.30000001192092896
vt 0.5625 0.30000001192092896
vt 0.59375 0.30000001192092896
vt 0.625 0.30000001192092896
vt 0.65625 0.30000001192092896
vt 0.6875 0.30000001192092896
vt 0.71875 0.30000001192092896
vt 0.75 0.30000001192092896
vt 0.78125 0.30000001192092896
vt 0.8125 0.30000001192092896
vt 0.84375 0.30000001192092896
vt 0.875 0.30000001192092896
vt 0.90625 0.30000001192092896
vt 0.9375 0.30000001192092896
vt 0.96875 0.30000001192092896
vt 1 0.30000001192092896
vt 0 0.4000000059604645
vt 0.03125 0.4000000059604645
vt 0.0625 0.4000000059604645
vt 0.09375 0.4000000059604645
vt 0.125 0.4000000059604645
vt 0.15625 0.4000000059604645
vt 0.1875 0.4000000059604645
vt 0.21875 0.4000000059604645
vt 0.25 0.4000000059604645
vt 0.28125 0.4000000059604645
vt 0.3125 0.4000000059604645
vt 0.34375 0.4000000059604645
vt 0.375 0.4000000059604645
vt 0.40625 0.4000000059604645
vt 0.4375 0.4000000059604645
vt 0.46875 0.4000000059604645
vt 0.5 0.4000000059604645
vt 0.53125 0.4000000059604645
vt 0.5625 0.4000000059604645
vt 0.59375 0.4000000059604645
vt 0.625 0.4000000059604645
vt 0.65625 0.4000000059604645
vt 0.6875 0.4000000059604645
vt 0.71875 0.4000000059604645
vt 0.75 0.4000000059604645
vt 0.78125 0.4000000059604645
vt 0.8125 0.4000000059604645
vt 0.84375 0.4000000059604645
vt 0.875 0.4000000059604645
vt 0.90625 0.4000000059604645
vt 0.9375 0.4000000059604645
vt 0.96875 0.4000000059604645
vt 1 0.4000000059604645
vt 0 0.5
vt 0.03125 0.5
vt 0.0625 0.5
vt 0.09375 0.5
vt 0.125 0.5
vt 0.15625 0.5
vt 0.1875 0.5
vt 0.21875 0.5
vt 0.25 0.5
vt 0.28125 0.5
vt 0.3125 0.5
vt 0.34375 0.5
vt 0.375 0.5
vt 0.40625 0.5
vt 0.4375 0.5
vt 0.46875 0.5
vt 0.5 0.5
vt 0.53125 0.5
vt 0.5625 0.5
vt 0.59375 0.5
vt 0.625 0.5
vt 0.65625 0.5
vt 0.6875 0.5
vt 0.71875 0.5
vt 0.75 0.5
vt 0.78125 0.5
vt 0.8125 0.5
vt 0.84375 0.5
vt 0.875 0.5
vt 0.90625 0.5
vt 0.9375 0.5
vt 0.96875 0.5
vt 1 0.5
vt 0 0.6000000238418579
vt 0.03125 0.6000000238418579
vt 0.0625 0.6000000238418579
vt 0.09375 0.6000000238418579
vt 0.125 0.6000000238418579
vt 0.15625 0.6000000238418579
vt 0.1875 0.6000000238418579
vt 0.21875 0.6000000238418579
vt 0.25 0.6000000238418579
vt 0.28125 0.6000000238418579
vt 0.3125 0.6000000238418579
vt 0.34375 0.6000000238418579
vt 0.375 0.6000000238418579
vt 0.40625 0.6000000238418579
vt 0.4375 0.6000000238418579
vt 0.46875 0.6000000238418579
vt 0.5 0.6000000238418579
vt 0.53125 0.6000000238418579
vt 0.5625 0.6000000238418579
vt 0.59375 0.6000000238418579
vt 0.625 0.6000000238418579
vt 0.65625 0.6000000238418579
vt 0.6875 0.6000000238418579
vt 0.71875 0.6000000238418579
vt 0.75 0.6000000238418579
vt 0.78125 0.6000000238418579
vt 0.8125 0.6000000238418579
vt 0.84375 0.6000000238418579
vt 0.875 0.6000000238418579
vt 0.90625 0.6000000238418579
vt 0.9375 0.6000000238418579
vt 0.96875 0.6000000238418579
vt 1 0.6000000238418579
vt 0 0.699999988079071
vt 0.03125 0.699999988079071
vt 0.0625 0.699999988079071
vt 0.09375 0.699999988079071
vt 0.125 0.699999988079071
vt 0.15625 0.699999988079071
vt 0.1875 0.699999988079071
vt 0.21875 0.699999988079071
vt 0.25 0.699999988079071
vt 0.28125 0.699999988079071
vt 0.3125 0.699999988079071
vt 0.34375 0.699999988079071
vt 0.375 0.699999988079071
vt 0.40625 0.699999988079071
vt 0.4375 0.699999988079071
vt 0.46875 0.699999988079071
vt 0.5 0.699999988079071
vt 0.53125 0.699999988079071
vt 0.5625 0.699999988079071
vt 0.59375 0.699999988079071
vt 0.625 0.699999988079071
vt 0.65625 0.699999988079071
vt 0.6875 0.699999988079071
vt 0.71875 0.699999988079071
vt 0.75 0.699999988079071
vt 0.78125 0.699999988079071
vt 0.8125 0.699999988079071
vt 0.84375 0.699999988079071
vt 0.875 0.699999988079071
vt 0.90625 0.699999988079071
vt 0.9375 0.699999988079071
vt 0.96875 0.699999988079071
vt 1 0.699999988079071
vt 0 0.800000011920929
vt 0.03125 0.800000011920929
vt 0.0625 0.800000011920929
vt 0.09375 0.800000011920929
vt 0.125 0.800000011920929
vt 0.15625 0.800000011920929
vt 0.1875 0.800000011920929
vt 0.21875 0.800000011920929
vt 0.25 0.800000011920929
vt 0.28125 0.800000011920929
vt 0.3125 0.800000011920929
vt 0.34375 0.800000011920929
vt 0.375 0.800000011920929
vt 0.40625 0.800000011920929
vt 0.4375 0.800000011920929
vt 0.46875 0.800000011920929
vt 0.5 0.800000011920929
vt 0.53125 0.800000011920929
vt 0.5625 0.800000011920929
vt 0.59375 0.800000011920929
vt 0.625 0.800000011920929
vt 0.65625 0.800000011920929
vt 0.6875 0.800000011920929
vt 0.71875 0.800000011920929
vt 0.75 0.800000011920929
vt 0.78125 0.800000011920929
vt 0.8125 0.800000011920929
vt 0.84375 0.800000011920929
vt 0.875 0.800000011920929
vt 0.90625 0.800000011920929
vt 0.9375 0.800000011920929
vt 0.96875 0.800000011920929
vt 1 0.800000011920929
vt 0 0.8999999761581421
vt 0.03125 0.8999999761581421
vt 0.0625 0.8999999761581421
vt 0.09375 0.8999999761581421
vt 0.125 0.8999999761581421
vt 0.15625 0.8999999761581421
vt 0.1875 0.8999999761581421
vt 0.21875 0.8999999761581421
vt 0.25 0.8999999761581421
vt 0.28125 0.8999999761581421
vt 0.3125 0.8999999761581421
vt 0.34375 0.8999999761581421
vt 0.375 0.8999999761581421
vt 0.40625 0.8999999761581421
vt 0.4375 0.8999999761581421
vt 0.46875 0.8999999761581421
vt 0.5 0.8999999761581421
vt 0.53125 0.8999999761581421
vt 0.5625 0.8999999761581421
vt 0.59375 0.8999999761581421
vt 0.625 0.8999999761581421
vt 0.65625 0.8999999761581421
vt 0.6875 0.8999999761581421
vt 0.71875 0.8999999761581421
vt 0.75 0.8999999761581421
vt 0.78125 0.8999999761581421
vt 0.8125 0.8999999761581421
vt 0.84375 0.8999999761581421
vt 0.875 0.8999999761581421
vt 0.90625 0.8999999761581421
vt 0.9375 0.8999999761581421
vt 0.96875 0.8999999761581421
vt 1 0.8999999761581421
vt 0 1
vt 0.03125 1
vt 0.0625 1
vt 0.09375 1
vt 0.125 1
vt 0.15625 1
vt 0.1875 1
vt 0.21875 1
vt 0.25 1
vt 0.28125 1
vt 0.3125 1
vt 0.34375 1
vt 0.375 1
vt 0.40625 1
vt 0.4375 1
vt 0.46875 1
vt 0.5 1
vt 0.53125 1
vt 0.5625 1
vt 0.59375 1
vt 0.625 1
vt 0.65625 1
vt 0.6875 1
vt 0.71875 1
vt 0.75 1
vt 0.78125 1
vt 0.8125 1
vt 0.84375 1
vt 0.875 1
vt 0.90625 1
vt 0.9375 1
vt 0.96875 1
vt 1 1
vn 0.9496460561000064 0.054444201313632264 0.3085582555645276
vn 0.942639005310098 0.12637514037467754 0.3089676836875815
vn 0.9220196440919245 0.2332785088101988 0.3089674954358322
vn 0.8893175785620652 0.3371250355834523 0.308967562768911
vn 0.8449615796199111 0.4365532675609653 0.3089679166969747
vn 0.7895327886145135 0.5302608066662099 0.3089683683102367
vn 0.7237576296200942 0.6170198959963347 0.3089681885103624
vn 0.6484980460064023 0.6956931816574218 0.30896809110529805
vn 0.564740370960614 0.7652496846978066 0.3089680136796943
vn 0.47358211027180896 0.8247780056171998 0.30896800203356745
vn 0.3762174553474717 0.8734982625435137 0.3089679783170675
vn 0.273923124615043 0.9107716538986773 0.3089678239813975
vn 0.16803895154767692 0.9361100318130825 0.30896750492837816
vn 0.059952925255536284 0.9491808909948415 0.30896809369827005
vn -0.04891876368600431 0.9498133396808576 0.3089685652679393
vn -0.15714989877874005 0.9379992649372886 0.3089681023842716
vn -0.2633215537008587 0.9138931209545513 0.3089678346179679
vn -0.36604175189482263 0.8778110198777916 0.3089680392061293
vn -0.4639661352175295 0.8302256536663472 0.3089672949773092
vn -0.5558098448112642 0.7717605681362071 0.3089677036211995
vn -0.6403702614580805 0.7031818756895434 0.30896792380738425
vn -0.7165389151189936 0.6253883917393075 0.3089681902685423
vn -0.7833178066901652 0.5393996850962164 0.3089679488882489
vn -0.8398316430435485 0.44634255383491783 0.3089678558991165
vn -0.885339795823291 0.34743639798526094 0.30896827553423784
vn -0.9192464990220014 0.24397680276234335 0.30896794938902333
vn -0.9411067996642363 0.13732019116415187 0.30896788947134896
vn -0.9506344378735403 0.028864393555923042 0.3089676557724235
vn -0.947704479613491 -0.07996996370754422 0.3089676750489225
vn -0.9323554262137351 -0.18775608094858715 0.308967657331042
vn -0.9047883161448026 -0.2930820289022865 0.30896768002878894
vn -0.8653644363876138 -0.39456731265794465 0.30896768118596984
vn -0.849639726960528 -0.4276729292537182 0.30855826022646626
vn 0.7442002398407689 0.04266589565915452 0.6665925474895021
vn 0.8076621923992694 0.08844854719835431 0.5829739595104623
vn 0.7922616553505994 0.18017427515284268 0.5829740131723504
vn 0.7664789689760688 0.26953900325639624 0.5829740267292626
vn 0.7306520188278232 0.3553716465167865 0.5829739447306153
vn 0.685250408455144 0.4365468665582364 0.5829740225861212
vn 0.6308687507077674 0.5120016480728431 0.5829742119091664
vn 0.5682200023272622 0.580747050539985 0.5829741780253344
vn 0.49812513263479374 0.6418821173572424 0.5829740128466725
vn 0.4215026191165571 0.6946055278825185 0.5829740154697551
vn 0.33935641589654103 0.738226518735755 0.582974124661757
vn 0.25276321319599193 0.7721735879947687 0.5829740200541725
vn 0.16285765112127853 0.7960017294693992 0.5829739549525221
vn 0.07081796342750706 0.8093986045323623 0.5829740260397925
vn -0.02214965635608289 0.8121888183817458 0.5829740268819621
vn -0.11482704544170544 0.8043356021172778 0.5829742608398457
vn -0.20600010435581048 0.7859423153275902 0.5829739565219892
vn -0.294472955767186 0.757249576117909 0.5829740627086114
vn -0.3790873846033017 0.7186334655031879 0.5829740106501377
vn -0.45873406225508345 0.670600052205428 0.5829739531994773
vn -0.5323691410494651 0.6137788344619984 0.5829739617038873
vn -0.5990279242080273 0.5489142468554591 0.5829740093847459
vn -0.6578365749250746 0.4768566325231107 0.5829740926572688
vn -0.7080249175810123 0.3985500625543002 0.5829738962615428
vn -0.7489346774960454 0.3150207661801758 0.5829740695083696
vn -0.7800302459869545 0.22736309335762533 0.5829741324659123
vn -0.8009040144156744 0.13672601815561103 0.5829740608742114
vn -0.8112823676774684 0.04429717578082706 0.582973996086861
vn -0.8110291565271687 -0.048711878538271546 0.5829741505007763
vn -0.8001480678442564 -0.1410828378225187 0.5829740151988322
vn -0.7787814037220042 -0.23160490087026064 0.5829740089486506
vn -0.747209129426159 -0.31909206411731766 0.5829740744832064
vn -0.7762170945844576 -0.3907149689730164 0.4948018139571416
vn 0.2124273051420483 0.01217867631451956 0.9771009773167322
vn 0.3174906135845796 0.030051937902714952 0.947785097642909
vn 0.31197583808103035 0.0661400931907045 0.9477850835112165
vn 0.30237268559660735 0.10136142835924707 0.9477851126948917
vn 0.28880724409153685 0.13525462196599775 0.9477850827044528
vn 0.27145713252527803 0.16737529441079393 0.9477850684738885
vn 0.25054964264636576 0.19730263823591193 0.9477850734818137
vn 0.22635890156135302 0.22464443358837016 0.9477850632615489
vn 0.1992018231520693 0.24904230345922834 0.947785083624243
vn 0.1694342894247727 0.2701768204452333 0.9477850533012359
vn 0.1374464457991932 0.2877706536904586 0.9477850628764601
vn 0.1036574174276336 0.30159339433351595 0.9477850833952925
vn 0.06851005438679135 0.31146403621964613 0.947785063497883
vn 0.03246483573930973 0.3172530228634799 0.9477850779181978
vn -0.004005693369538762 0.31888461149996367 0.9477850805795303
vn -0.04042383993187837 0.31633743367935346 0.9477850712151582
vn -0.07631219909443465 0.3096447879334404 0.9477850777338849
vn -0.11120062117503968 0.2988944594884864 0.9477850620986654
vn -0.144631623402253 0.2842272801982917 0.9477850741086349
vn -0.17616751810904668 0.2658353749084799 0.9477850806013812
vn -0.20539467201737766 0.24395995038049403 0.9477850870937042
vn -0.23193043261373555 0.21888749104178357 0.947785070938047
vn -0.2554267877305668 0.19094670818597106 0.9477850551378121
vn -0.2755757882247084 0.16050364158381786 0.9477850842794817
vn -0.2921136879604439 0.12795725306779343 0.947785067773012
vn -0.30482346137427657 0.09373410143872518 0.9477850893653474
vn -0.31353876539398423 0.05828254026101876 0.9477850959452457
vn -0.31814536587300835 0.02206720793670916 0.9477850835012165
vn -0.31858283095316015 -0.014437223700331219 0.947785073945405
vn -0.3148453593579126 -0.05075242466972464 0.9477850975199659
vn -0.3069820766496051 -0.08640260430691891 0.9477850993684581
vn -0.29509595456247056 -0.12092061512804679 0.9477850929603816
vn -0.3712039557806945 -0.1868483855076367 0.9095577519025133
vn -0.40309653255801775 -0.02310999701795194 0.91486562591319
vn -0.2954976630856248 -0.03935171759871904 0.9545326466040674
vn -0.28906410152895207 -0.07286529791522718 0.9545326571506002
vn -0.2788425755039952 -0.10542410880786099 0.9545326476178627
vn -0.26496693791038495 -0.1366015092057263 0.9545326340660711
vn -0.24761902474941624 -0.16598867335152134 0.9545326494683929
vn -0.22702617529422014 -0.19320068901243082 0.9545326654946913
vn -0.20345841658053193 -0.21788096759766032 0.9545326378292416
vn -0.17722429840314163 -0.23970600155830338 0.95453265050099
vn -0.14866784621081847 -0.2583898078452751 0.9545326493654988
vn -0.11816311164952846 -0.2736876076300242 0.954532646102298
vn -0.086109960643466 -0.28539884771320717 0.9545326460640068
vn -0.052928362078574445 -0.2933699788706268 0.954532683560457
vn -0.019053247116545113 -0.2974969194011895 0.9545326378501251
vn 0.015071626255023417 -0.29772514961636093 0.9545326507605408
vn 0.04899900311010904 -0.2940518500661194 0.9545326642744647
vn 0.08228416951535573 -0.28652528661835436 0.9545326477263301
vn 0.11449118235002603 -0.27524388501075836 0.9545326463397037
vn 0.14519777710069467 -0.2603554990685839 0.9545326708027155
vn 0.17400166854567542 -0.2420554523397833 0.9545326486484912
vn 0.20052539267872052 -0.22058330977578966 0.954532644983608
vn 0.2244212875198566 -0.19622049786505255 0.9545326615289396
vn 0.2453761967385443 -0.16928644288919384 0.9545326722161221
vn 0.2631157415617574 -0.14013395123490593 0.9545326512245139
vn 0.27740726448175035 -0.10914505498656732 0.9545326430168491
vn 0.2880634301945349 -0.07672586862571909 0.9545326611846172
vn 0.2949447007943409 -0.043301246651486686 0.9545326738838037
vn 0.2979608791152072 -0.009309211798867964 0.9545326883310895
vn 0.29707258259471225 0.024804831845782332 0.9545326610376463
vn 0.2922912882893226 0.0585938962248622 0.9545326385804511
vn 0.2836795391946318 0.09161502682851119 0.9545326636116402
vn 0.271350435845546 0.1234356056229157 0.9545326564507557
vn 0.17615011123380345 0.08866649759876088 0.9803618671265664
vn -0.865086758040331 -0.049596236517407626 0.4991644161862693
vn -0.7988362983063729 -0.09453076212588427 0.5940744932414375
vn -0.7827985110415411 -0.1852080184233068 0.5940744743067644
vn -0.7565026310281913 -0.2734578559628188 0.5940745494124812
vn -0.72029316679731 -0.3581247342360878 0.5940744301797831
vn -0.6746446389578459 -0.43809830488442975 0.5940744788179569
vn -0.6201552930589421 -0.5123308451253293 0.5940745051120637
vn -0.5575391101431564 -0.5798495461042863 0.5940746119330722
vn -0.4876167145842883 -0.6397697287127905 0.5940746029589105
vn -0.4113043706548545 -0.6913060313721417 0.5940746465459653
vn -0.3296022350119779 -0.7337831710020715 0.5940745951724025
vn -0.24358062122848984 -0.7666445868789917 0.5940745394065321
vn -0.1543671607730984 -0.7894594515699525 0.5940745357290801
vn -0.06313091499806633 -0.8019288757106751 0.5940745457204168
vn 0.02893260511968825 -0.8038894584385781 0.5940746106107532
vn 0.12061735343534905 -0.7953156299383958 0.5940744926572294
vn 0.21072116573204241 -0.7763196259048532 0.5940744303094334
vn 0.29806368989684373 -0.7471502880615423 0.5940744766564481
vn 0.38150036997653425 -0.7081899169909702 0.5940744980051662
vn 0.4599373826092091 -0.6599492272046492 0.594074592614914
vn 0.5323472867644452 -0.6030603332793903 0.5940745750320278
vn 0.5977815256451374 -0.5382684349300344 0.5940743552412805
vn 0.6553816682438348 -0.4664229670276739 0.5940744774512954
vn 0.704393376988454 -0.3884654586816675 0.5940745389814677
vn 0.7441746519382582 -0.30541708765266834 0.5940744818474655
vn 0.7742039767272341 -0.2183662711072393 0.5940743842840357
vn 0.7940875087098269 -0.1284541901611464 0.5940745319747891
vn 0.8035651722115964 -0.03685869775984491 0.594074448539908
vn 0.8025124779787247 0.05521970690970382 0.5940744958818323
vn 0.7909433205335191 0.14657479449886016 0.5940744846574608
vn 0.7690093292250461 0.2360088458133873 0.5940744703003804
vn 0.7369979138050204 0.3223501791798857 0.594074437280164
vn 0.6580232993070219 0.3312209852241824 0.6762381211645965
vn -0.9922545454956917 -0.05688705239542989 -0.11042997877794715
vn -0.993447772930822 -0.1142870178926212 -4.1991529928421175e-8
vn -0.9738769517429903 -0.22707638112269138 5.889143386808607e-8
vn -0.9415441340189481 -0.3368896610086294 4.880649313879832e-9
vn -0.8968727541481761 -0.4422886646373215 1.2815605176283064e-9
vn -0.8404483702151772 -0.5418916284670318 3.168743454753929e-8
vn -0.7730104736428844 -0.6343932594522134 -1.7046287524779684e-8
vn -0.6954425357791465 -0.7185817138148298 -1.1105059993758589e-7
vn -0.6087613733975067 -0.7933533829632173 -1.5189673599221015e-8
vn -0.5141026876523024 -0.8577286438895925 6.460337031978338e-9
vn -0.4127070831366828 -0.9108638007566282 2.7860689266415705e-8
vn -0.3059030210522681 -0.952062677406839 1.3032534846315464e-7
vn -0.1950902605724906 -0.9807852926251275 2.836448180821931e-8
vn -0.08172109818071664 -0.9966552373374331 -5.321985758437392e-8
vn 0.032718968292895154 -0.9994645912256457 -3.581225342652861e-8
vn 0.1467304092404637 -0.9891765196384931 6.341213826772104e-8
vn 0.2588190193205467 -0.965925833197327 -4.11090281648187e-9
vn 0.36751586891678617 -0.9300172504283656 4.857883431621914e-8
vn 0.47139680251450683 -0.8819212292371115 3.7446660776676745e-8
vn 0.5691001977373749 -0.8222681830979938 -7.072765797503918e-8
vn 0.6593456787693572 -0.7518399270377805 -2.0203776194725928e-8
vn 0.7409511127129556 -0.67155896879531 1.1392912443739913e-7
vn 0.8128467771681274 -0.5824775676774067 -3.47729595092555e-8
vn 0.8740903067738917 -0.4857634564311289 -8.310658404647893e-8
vn 0.9238794989558978 -0.38268351337495476 1.8234187389673633e-8
vn 0.9615618425437737 -0.2745884610900888 9.87269804909843e-9
vn 0.9866433527632144 -0.16289534814770354 4.5133495969877103e-8
vn 0.998795450809749 -0.049067784153632284 5.502357331254315e-8
vn 0.9978589303234693 0.06540302113588989 -5.992620998591284e-9
vn 0.9838459986623619 0.1790169012022594 1.4372678010965699e-8
vn 0.9569403194381689 0.290284730968708 -1.2497688558857865e-8
vn 0.9174944947277823 0.39774847849389106 -7.726210941307194e-8
vn 0.8877612211116349 0.4468615878052153 0.11042977693801878
vn -0.7354754703299565 -0.04216552467129043 -0.6762380505947029
vn -0.7994340152014056 -0.08933544259366748 -0.594074434760117
vn -0.7839859611847522 -0.18011511604512837 -0.5940745387889219
vn -0.7582644319298159 -0.26853406766191606 -0.5940744951393714
vn -0.7226061261239992 -0.35343441544709037 -0.5940744906706905
vn -0.6774783911749203 -0.43370325533509224 -0.5940745035791265
vn -0.6234729257873366 -0.5082883212594111 -0.5940744846241655
vn -0.5612969886535562 -0.5762127526983523 -0.5940745358591271
vn -0.4917655237100458 -0.636586182529258 -0.5940746602094812
vn -0.4157898816146703 -0.6886175427328224 -0.5940746200499293
vn -0.3343655781939206 -0.731624964593432 -0.5940745502903693
vn -0.24855950166533908 -0.765044798901466 -0.5940745995291277
vn -0.15949613221723508 -0.7884391727081806 -0.5940746205208415
vn -0.06834305184337168 -0.8015015846274189 -0.5940744373430579
vn 0.023706002386587613 -0.8040606456055437 -0.5940744933417383
vn 0.11544436225936058 -0.7960829741409601 -0.594074488179229
vn 0.20566980922962302 -0.7776730801144003 -0.594074498726239
vn 0.2932001698431548 -0.7490721467829666 -0.5940745570363227
vn 0.37688824935828547 -0.7106551007620282 -0.5940745536181116
vn 0.45563737874912824 -0.6629253817478507 -0.5940745048570003
vn 0.528415608824378 -0.6065083610116215 -0.5940745343589123
vn 0.5942693898230113 -0.5421433402706841 -0.5940744826362525
vn 0.6523355904499936 -0.4706737444458424 -0.5940744934110433
vn 0.7018531464695836 -0.39303656873799475 -0.5940744199386206
vn 0.7421733816206384 -0.3102485570642797 -0.5940744940269013
vn 0.7727678957640766 -0.22339491382633117 -0.5940744833376429
vn 0.7932356118827208 -0.13361367783518951 -0.5940746157987227
vn 0.8033085418452637 -0.04208198910183353 -0.5940744842119289
vn 0.8028545188212916 0.050001415163180546 -0.5940744735215542
vn 0.7918795123240092 0.14142970340778127 -0.5940744708834711
vn 0.7705273758374123 0.23100459965811407 -0.5940744381152128
vn 0.7390780295965649 0.3175520831196053 -0.5940743561828423
vn 0.7739854948939443 0.3895915397272193 -0.49916418728385403
vn -0.1968836490541679 -0.011287651980172751 -0.980361880964315
vn -0.29671415114181277 -0.02877681274329656 -0.9545326644806507
vn -0.29148126173538363 -0.062498898439852804 -0.9545326404848362
vn -0.28242859957045474 -0.09540184082925422 -0.9545326473783186
vn -0.2696749032945177 -0.1270546196831319 -0.9545326448845357
vn -0.25338718920561665 -0.15704253703571489 -0.9545326468528267
vn -0.23377904949475845 -0.18497236590127297 -0.9545326499760042
vn -0.21110736291564955 -0.21047829548104477 -0.9545326439961046
vn -0.18566920282249572 -0.23322602142736237 -0.9545326448332829
vn -0.1577979156545 -0.25291737582442586 -0.954532670379166
vn -0.12785886473822572 -0.26929453532897374 -0.9545326416366305
vn -0.09624424338195811 -0.28214260236427957 -0.9545326592353697
vn -0.06336834204500634 -0.2912933790967141 -0.9545326712694987
vn -0.029662139182195055 -0.29662694995497624 -0.9545326657896754
vn 0.004432750754257678 -0.2980734034862169 -0.9545326588728609
vn 0.03846966772819325 -0.29561373015420495 -0.9545326642966177
vn 0.07200237445411262 -0.2892803284621502 -0.954532634139766
vn 0.10459152336427155 -0.27915590273717494 -0.9545326580098421
vn 0.13581016369714724 -0.2653733137204024 -0.9545326625116644
vn 0.16524902462627278 -0.2481132370252853 -0.9545326508155182
vn 0.19252234371775995 -0.22760170313278835 -0.9545326667539854
vn 0.21727282753807772 -0.20410762215132044 -0.9545326589453828
vn 0.2391760863308692 -0.1779388090150017 -0.95453265003025
vn 0.25794496723054516 -0.14943821491135872 -0.9545326677513659
vn 0.2733337209827 -0.11897933909082051 -0.9545326572953191
vn 0.2851405665623913 -0.08696126711694391 -0.9545326580698505
vn 0.29321079754486185 -0.053803610277394026 -0.9545326603758639
vn 0.29743861924219506 -0.019940888356378875 -0.9545326755825884
vn 0.2977688364141924 0.014183072619102061 -0.9545326398356523
vn 0.2941967502584665 0.04812127279209826 -0.95453266850445
vn 0.2867694468789208 0.08142886230402628 -0.9545326734693945
vn 0.2755842461305093 0.11366930415976932 -0.9545326671081052
vn 0.3606468797139436 0.18153432313689494 -0.914865628207676
vn 0.41489627172204274 0.023786481019739937 -0.9095577425495571
vn 0.3160208816298712 0.04282772987579127 -0.947785095856421
vn 0.3090555300197404 0.07866415949192197 -0.9477851177221801
vn 0.298040277638729 0.11346979699418418 -0.9477851012097246
vn 0.2831194088286026 0.14678846224583894 -0.9477850746324531
vn 0.26448846495398104 0.17818351515764733 -0.9477850425240691
vn 0.24239130233584452 0.20724359082385352 -0.9477850761720025
vn 0.21711783280643518 0.2335878330828695 -0.947785086880505
vn 0.18899932025240443 0.2568710679352948 -0.947785055485636
vn 0.15840384269525895 0.2767881436506872 -0.947785073818839
vn 0.12573259984874963 0.29307809276240065 -0.9477850731458202
vn 0.0914139625385224 0.30552739799911516 -0.94778504763733
vn 0.0558970205813429 0.31397283514139845 -0.9477850926678479
vn 0.01964777883512727 0.3183039707321555 -0.9477850742668346
vn -0.01685879900096387 0.3184639143294105 -0.9477850579990356
vn -0.05314469397128792 0.31445041651898953 -0.9477850901199766
vn -0.08873415768974921 0.30631631718517055 -0.9477850827509392
vn -0.12316052998556726 0.29416828482631696 -0.9477850516103412
vn -0.15597327243376535 0.27816498618116436 -0.9477850910143794
vn -0.18674191832046821 0.2585167288711604 -0.9477850794540641
vn -0.2150634216294917 0.23548073925520496 -0.9477850737993492
vn -0.24056672651943972 0.20935883771726282 -0.9477850637994871
vn -0.26291739809801695 0.18049347310842176 -0.9477850747625373
vn -0.28182277000912104 0.14926277057353174 -0.9477850767052093
vn -0.29703497743177776 0.11607615593630675 -0.9477850749010314
vn -0.30835463749624964 0.08136828020194471 -0.9477851130459553
vn -0.31563362817938795 0.045594260585854425 -0.9477850896505734
vn -0.31877634419373274 0.00922268270725 -0.9477850940514735
vn -0.31774166819422445 -0.027269797908605627 -0.9477850971687493
vn -0.3125432717656154 -0.0634046790536437 -0.9477850758205412
vn -0.3032490052912695 -0.09870897356796428 -0.9477850913192372
vn -0.289980865947765 -0.13271960954037637 -0.9477851036113799
vn -0.19005683118331235 -0.09566657272275271 -0.9771009711304356
vn 0.8675812309772524 0.049739385894178575 -0.4948017796520799
vn 0.8066481901611124 0.09726287368752191 -0.5829739537164992
vn 0.7902468945873812 0.18881493584418765 -0.5829740694037391
vn 0.7634898976778688 0.27789279660509414 -0.5829740729559395
vn 0.7267277277254411 0.3633289057383842 -0.5829741984084419
vn 0.6804423497026272 0.44400377156901094 -0.582974149996088
vn 0.6252402565615996 0.5188601532038308 -0.5829740671694431
vn 0.5618444036460326 0.5869173952768696 -0.5829741308266163
vn 0.49108620065726577 0.647283237438187 -0.5829740595048388
vn 0.4138925766727553 0.699166850427604 -0.5829739704638034
vn 0.3312747811520891 0.7418882925242736 -0.5829740824325327
vn 0.2443161147918678 0.7748877368583315 -0.5829739542377346
vn 0.15415594306649638 0.797732727651732 -0.5829737905348805
vn 0.061975124734819594 0.8101235564262259 -0.5829741908844911
vn -0.031017306965319538 0.81189840438449 -0.5829741912182204
vn -0.12360353091730983 0.8030339524220892 -0.5829739603122349
vn -0.21457008614876372 0.7836459132027338 -0.5829740653328975
vn -0.302724596502787 0.7539888537300844 -0.5829739506384638
vn -0.3869121077511285 0.7144512539376078 -0.582973778674958
vn -0.4660295160563462 0.6655506962791631 -0.5829740653293327
vn -0.5390396762610599 0.6079288179623755 -0.5829740815055506
vn -0.604986254849192 0.5423401634041917 -0.5829740805578436
vn -0.6630046299677714 0.4696447205081868 -0.5829740106900868
vn -0.7123346824145217 0.390794927321217 -0.5829739488256804
vn -0.7523299952035929 0.3068236369976138 -0.5829741281536586
vn -0.7824665261571966 0.21883182097770365 -0.5829740728120519
vn -0.8023492861516711 0.12797200947120368 -0.5829740884497406
vn -0.8117177658507275 0.035435703402991015 -0.5829739098164162
vn -0.8104488753848867 -0.057565487240842525 -0.5829741289852377
vn -0.7985597294285386 -0.14981181997316514 -0.5829740792962818
vn -0.7762058849281012 -0.240095253922568 -0.5829740073509634
vn -0.7436801233205279 -0.32723248172386854 -0.5829740792546461
vn -0.6658292430198591 -0.33515030233434345 -0.6665925997074971
vn 0.9496461478728969 0.05444400230029482 -0.30855800823134305
vn 0.9467112545902894 0.09097696214783256 -0.3089676241783792
vn 0.9301106955025509 0.19857774728793368 -0.3089675911706773
vn 0.9013215903074644 0.30357611191501216 -0.3089675308510383
vn 0.8607210962062315 0.40459635144372025 -0.30896761471709777
vn 0.8088412786957715 0.5003143490858339 -0.3089681827900851
vn 0.7463620876825503 0.5894762258425018 -0.30896830458256525
vn 0.6741023622081704 0.670913334916552 -0.3089681250493567
vn 0.593008814962287 0.7435585244342509 -0.3089680665023228
vn 0.504144329571266 0.8064596950841906 -0.3089680487782724
vn 0.4086732355462967 0.8587927405347341 -0.30896798434944983
vn 0.3078464039498749 0.899871846015154 -0.30896804417999174
vn 0.20298613724458658 0.9291585737184331 -0.3089675921064362
vn 0.09546543057275184 0.9462691688770325 -0.30896765461505765
vn -0.01330639786411755 0.9509792270298346 -0.30896836332158645
vn -0.12190390060682399 0.9432273857458032 -0.30896850615552973
vn -0.2289037672250936 0.9231153596654788 -0.3089677945997509
vn -0.3329041224805361 0.8909060151869358 -0.30896814939278056
vn -0.43254151787218964 0.8470223516042156 -0.30896758923823525
vn -0.52651119342054 0.7920385615665201 -0.3089674419651955
vn -0.6135809358399864 0.7266755625334147 -0.30896773616426626
vn -0.6926101954494933 0.6517897165733859 -0.30896809305913725
vn -0.7625631894549588 0.5683626088946617 -0.30896816486287776
vn -0.8225230741607747 0.4774879314093966 -0.30896774561672946
vn -0.8717042667103782 0.3803555607770499 -0.30896815173233944
vn -0.9094623730003921 0.27823894624617135 -0.3089680904046822
vn -0.9353025489578128 0.17247588810745904 -0.30896797558090283
vn -0.9488860452523069 0.06445299890930277 -0.3089677718744048
vn -0.9500349098362558 -0.044414460352127275 -0.30896767760406024
vn -0.938734042090756 -0.1527002135488726 -0.3089677054355026
vn -0.9151316857581988 -0.2589845352647167 -0.3089676491399641
vn -0.8795368539775796 -0.36187552864137845 -0.3089676751146385
vn -0.8496397173666282 -0.42767286481990724 -0.3085583759516007
f 34/34/34 1/1/1 35/35/35
f 1/1/1 2/2/2 35/35/35
f 35/35/35 2/2/2 36/36/36
f 2/2/2 3/3/3 36/36/36
f 36/36/36 3/3/3 37/37/37
f 3/3/3 4/4/4 37/37/37
f 37/37/37 4/4/4 38/38/38
f 4/4/4 5/5/5 38/38/38
f 38/38/38 5/5/5 39/39/39
f 5/5/5 6/6/6 39/39/39
f 39/39/39 6/6/6 40/40/40
f 6/6/6 7/7/7 40/40/40
f 40/40/40 7/7/7 41/41/41
f 7/7/7 8/8/8 41/41/41
f 41/41/41 8/8/8 42/42/42
f 8/8/8 9/9/9 42/42/42
f 42/42/42 9/9/9 43/43/43
f 9/9/9 10/10/10 43/43/43
f 43/43/43 10/10/10 44/44/44
f 10/10/10 11/11/11 44/44/44
f 44/44/44 11/11/11 45/45/45
f 11/11/11 12/12/12 45/45/45
f 45/45/45 12/12/12 46/46/46
f 12/12/12 13/13/13 46/46/46
f 46/46/46 13/13/13 47/47/47
f 13/13/13 14/14/14 47/47/47
f 47/47/47 14/14/14 48/48/48
f 14/14/14 15/15/15 48/48/48
f 48/48/48 15/15/15 49/49/49
f 15/15/15 16/16/16 49/49/49
f 49/49/49 16/16/16 50/50/50
f 16/16/16 17/17/17 50/50/50
f 50/50/50 17/17/17 51/51/51
f 17/17/17 18/18/18 51/51/51
f 51/51/51 18/18/18 52/52/52
f 18/18/18 19/19/19 52/52/52
f 52/52/52 19/19/19 53/53/53
f 19/19/19 20/20/20 53/53/53
f 53/53/53 20/20/20 54/54/54
f 20/20/20 21/21/21 54/54/54
f 54/54/54 21/21/21 55/55/55
f 21/21/21 22/22/22 55/55/55
f 55/55/55 22/22/22 56/56/56
f 22/22/22 23/23/23 56/56/56
f 56/56/56 23/23/23 57/57/57
f 23/23/23 24/24/24 57/57/57
f 57/57/57 24/24/24 58/58/58
f 24/24/24 25/25/25 58/58/58
f 58/58/58 25/25/25 59/59/59
f 25/25/25 26/26/26 59/59/59
f 59/59/59 26/26/26 60/60/60
f 26/26/26 27/27/27 60/60/60
f 60/60/60 27/27/27 61/61/61
f 27/27/27 28/28/28 61/61/61
f 61/61/61 28/28/28 62/62/62
f 28/28/28 29/29/29 62/62/62
f 62/62/62 29/29/29 63/63/63
f 29/29/29 30/30/30 63/63/63
f 63/63/63 30/30/30 64/64/64
f 30/30/30 31/31/31 64/64/64
f 64/64/64 31/31/31 65/65/65
f 31/31/31 32/32/32 65/65/65
f 65/65/65 32/32/32 66/66/66
f 32/32/32 33/33/33 66/66/66
f 67/67/67 34/34/34 68/68/68
f 34/34/34 35/35/35 68/68/68
f 68/68/68 35/35/35 69/69/69
f 35/35/35 36/36/36 69/69/69
f 69/69/69 36/36/36 70/70/70
f 36/36/36 37/37/37 70/70/70
f 70/70/70 37/37/37 71/71/71
f 37/37/37 38/38/38 71/71/71
f 71/71/71 38/38/38 72/72/72
f 38/38/38 39/39/39 72/72/72
f 72/72/72 39/39/39 73/73/73
f 39/39/39 40/40/40 73/73/73
f 73/73/73 40/40/40 74/74/74
f 40/40/40 41/41/41 74/74/74
f 74/74/74 41/41/41 75/75/75
f 41/41/41 42/42/42 75/75/75
f 75/75/75 42/42/42 76/76/76
f 42/42/42 43/43/43 76/76/76
f 76/76/76 43/43/43 77/77/77
f 43/43/43 44/44/44 77/77/77
f 77/77/77 44/44/44 78/78/78
f 44/44/44 45/45/45 78/78/78
f 78/78/78 45/45/45 79/79/79
f 45/45/45 46/46/46 79/79/79
f 79/79/79 46/46/46 80/80/80
f 46/46/46 47/47/47 80/80/80
f 80/80/80 47/47/47 81/81/81
f 47/47/47 48/48/48 81/81/81
f 81/81/81 48/48/48 82/82/82
f 48/48/48 49/49/49 82/82/82
f 82/82/82 49/49/49 83/83/83
f 49/49/49 50/50/50 83/83/83
f 83/83/83 50/50/50 84/84/84
f 50/50/50 51/51/51 84/84/84
f 84/84/84 51/51/51 85/85/85
f 51/51/51 52/52/52 85/85/85
f 85/85/85 52/52/52 86/86/86
f 52/52/52 53/53/53 86/86/86
f 86/86/86 53/53/53 87/87/87
f 53/53/53 54/54/54 87/87/87
f 87/87/87 54/54/54 88/88/88
f 54/54/54 55/55/55 88/88/88
f 88/88/88 55/55/55 89/89/89
f 55/55/55 56/56/56 89/89/89
f 89/89/89 56/56/56 90/90/90
f 56/56/56 57/57/57 90/90/90
f 90/90/90 57/57/57 91/91/91
f 57/57/57 58/58/58 91/91/91
f 91/91/91 58/58/58 92/92/92
f 58/58/58 59/59/59 92/92/92
f 92/92/92 59/59/59 93/93/93
f 59/59/59 60/60/60 93/93/93
f 93/93/93 60/60/60 94/94/94
f 60/60/60 61/61/61 94/94/94
f 94/94/94 61/61/61 95/95/95
f 61/61/61 62/62/62 95/95/95
f 95/95/95 62/62/62 96/96/96
f 62/62/62 63/63/63 96/96/96
f 96/96/96 63/63/63 97/97/97
f 63/63/63 64/64/64 97/97/97
f 97/97/97 64/64/64 98/98/98
f 64/64/64 65/65/65 98/98/98
f 98/98/98 65/65/65 99/99/99
f 65/65/65 66/66/66 99/99/99
f 100/100/100 67/67/67 101/101/101
f 67/67/67 68/68/68 101/101/101
f 101/101/101 68/68/68 102/102/102
f 68/68/68 69/69/69 102/102/102
f 102/102/102 69/69/69 103/103/103
f 69/69/69 70/70/70 103/103/103
f 103/103/103 70/70/70 104/104/104
f 70/70/70 71/71/71 104/104/104
f 104/104/104 71/71/71 105/105/105
f 71/71/71 72/72/72 105/105/105
f 105/105/105 72/72/72 106/106/106
f 72/72/72 73/73/73 106/106/106
f 106/106/106 73/73/73 107/107/107
f 73/73/73 74/74/74 107/107/107
f 107/107/107 74/74/74 108/108/108
f 74/74/74 75/75/75 108/108/108
f 108/108/108 75/75/75 109/109/109
f 75/75/75 76/76/76 109/109/109
f 109/109/109 76/76/76 110/110/110
f 76/76/76 77/77/77 110/110/110
f 110/110/110 77/77/77 111/111/111
f 77/77/77 78/78/78 111/111/111
f 111/111/111 78/78/78 112/112/112
f 78/78/78 79/79/79 112/112/112
f 112/112/112 79/79/79 113/113/113
f 79/79/79 80/80/80 113/113/113
f 113/113/113 80/80/80 114/114/114
f 80/80/80 81/81/81 114/114/114
f 114/114/114 81/81/81 115/115/115
f 81/81/81 82/82/82 115/115/115
f 115/115/115 82/82/82 116/116/116
f 82/82/82 83/83/83 116/116/116
f 116/116/116 83/83/83 117/117/117
f 83/83/83 84/84/84 117/117/117
f 117/117/117 84/84/84 118/118/118
f 84/84/84 85/85/85 118/118/118
f 118/118/118 85/85/85 119/119/119
f 85/85/85 86/86/86 119/119/119
f 119/119/119 86/86/86 120/120/120
f 86/86/86 87/87/87 120/120/120
f 120/120/120 87/87/87 121/121/121
f 87/87/87 88/88/88 121/121/121
f 121/121/121 88/88/88 122/122/122
f 88/88/88 89/89/89 122/122/122
f 122/122/122 89/89/89 123/123/123
f 89/89/89 90/90/90 123/123/123
f 123/123/123 90/90/90 124/124/124
f 90/90/90 91/91/91 124/124/124
f 124/124/124 91/91/91 125/125/125
f 91/91/91 92/92/92 125/125/125
f 125/125/125 92/92/92 126/126/126
f 92/92/92 93/93/93 126/126/126
f 126/126/126 93/93/93 127/127/127
f 93/93/93 94/94/94 127/127/127
f 127/127/127 94/94/94 128/128/128
f 94/94/94 95/95/95 128/128/128
f 128/128/128 95/95/95 129/129/129
f 95/95/95 96/96/96 129/129/129
f 129/129/129 96/96/96 130/130/130
f 96/96/96 97/97/97 130/130/130
f 130/130/130 97/97/97 131/131/131
f 97/97/97 98/98/98 131/131/131
f 131/131/131 98/98/98 132/132/132
f 98/98/98 99/99/99 132/132/132
f 133/133/133 100/100/100 134/134/134
f 100/100/100 101/101/101 134/134/134
f 134/134/134 101/101/101 135/135/135
f 101/101/101 102/102/102 135/135/135
f 135/135/135 102/102/102 136/136/136
f 102/102/102 103/103/103 136/136/136
f 136/136/136 103/103/103 137/137/137
f 103/103/103 104/104/104 137/137/137
f 137/137/137 104/104/104 138/138/138
f 104/104/104 105/105/105 138/138/138
f 138/138/138 105/105/105 139/139/139
f 105/105/105 106/106/106 139/139/139
f 139/139/139 106/106/106 140/140/140
f 106/106/106 107/107/107 140/140/140
f 140/140/140 107/107/107 141/141/141
f 107/107/107 108/108/108 141/141/141
f 141/141/141 108/108/108 142/142/142
f 108/108/108 109/109/109 142/142/142
f 142/142/142 109/109/109 143/143/143
f 109/109/109 110/110/110 143/143/143
f 143/143/143 110/110/110 144/144/144
f 110/110/110 111/111/111 144/144/144
f 144/144/144 111/111/111 145/145/145
f 111/111/111 112/112/112 145/145/145
f 145/145/145 112/112/112 146/146/146
f 112/112/112 113/113/113 146/146/146
f 146/146/146 113/113/113 147/147/147
f 113/113/113 114/114/114 147/147/147
f 147/147/147 114/114/114 148/148/148
f 114/114/114 115/115/115 148/148/148
f 148/148/148 115/115/115 149/149/149
f 115/115/115 116/116/116 149/149/149
f 149/149/149 116/116/116 150/150/150
f 116/116/116 117/117/117 150/150/150
f 150/150/150 117/117/117 151/151/151
f 117/117/117 118/118/118 151/151/151
f 151/151/151 118/118/118 152/152/152
f 118/118/118 119/119/119 152/152/152
f 152/152/152 119/119/119 153/153/153
f 119/119/119 120/120/120 153/153/153
f 153/153/153 120/120/120 154/154/154
f 120/120/120 121/121/121 154/154/154
f 154/154/154 121/121/121 155/155/155
f 121/121/121 122/122/122 155/155/155
f 155/155/155 122/122/122 156/156/156
f 122/122/122 123/123/123 156/156/156
f 156/156/156 123/123/123 157/157/157
f 123/123/123 124/124/124 157/157/157
f 157/157/157 124/124/124 158/158/158
f 124/124/124 125/125/125 158/158/158
f 158/158/158 125/125/125 159/159/159
f 125/125/125 126/126/126 159/159/159
f 159/159/159 126/126/126 160/160/160
f 126/126/126 127/127/127 160/160/160
f 160/160/160 127/127/127 161/161/161
f 127/127/127 128/128/128 161/161/161
f 161/161/161 128/128/128 162/162/162
f 128/128/128 129/129/129 162/162/162
f 162/162/162 129/129/129 163/163/163
f 129/129/129 130/130/130 163/163/163
f 163/163/163 130/130/130 164/164/164
f 130/130/130 131/131/131 164/164/164
f 164/164/164 131/131/131 165/165/165
f 131/131/131 132/132/132 165/165/165
f 166/166/166 133/133/133 167/167/167
f 133/133/133 134/134/134 167/167/167
f 167/167/167 134/134/134 168/168/168
f 134/134/134 135/135/135 168/168/168
f 168/168/168 135/135/135 169/169/169
f 135/135/135 136/136/136 169/169/169
f 169/169/169 136/136/136 170/170/170
f 136/136/136 137/137/137 170/170/170
f 170/170/170 137/137/137 171/171/171
f 137/137/137 138/138/138 171/171/171
f 171/171/171 138/138/138 172/172/172
f 138/138/138 139/139/139 172/172/172
f 172/172/172 139/139/139 173/173/173
f 139/139/139 140/140/140 173/173/173
f 173/173/173 140/140/140 174/174/174
f 140/140/140 141/141/141 174/174/174
f 174/174/174 141/141/141 175/175/175
f 141/141/141 142/142/142 175/175/175
f 175/175/175 142/142/142 176/176/176
f 142/142/142 143/143/143 176/176/176
f 176/176/176 143/143/143 177/177/177
f 143/143/143 144/144/144 177/177/177
f 177/177/177 144/144/144 178/178/178
f 144/144/144 145/145/145 178/178/178
f 178/178/178 145/145/145 179/179/179
f 145/145/145 146/146/146 179/179/179
f 179/179/179 146/146/146 180/180/180
f 146/146/146 147/147/147 180/180/180
f 180/180/180 147/147/147 181/181/181
f 147/147/147 148/148/148 181/181/181
f 181/181/181 148/148/148 182/182/182
f 148/148/148 149/149/149 182/182/182
f 182/182/182 149/149/149 183/183/183
f 149/149/149 150/150/150 183/183/183
f 183/183/183 150/150/150 184/184/184
f 150/150/150 151/151/151 184/184/184
f 184/184/184 151/151/151 185/185/185
f 151/151/151 152/152/152 185/185/185
f 185/185/185 152/152/152 186/186/186
f 152/152/152 153/153/153 186/186/186
f 186/186/186 153/153/153 187/187/187
f 153/153/153 154/154/154 187/187/187
f 187/187/187 154/154/154 188/188/188
f 154/154/154 155/155/155 188/188/188
f 188/188/188 155/155/155 189/189/189
f 155/155/155 156/156/156 189/189/189
f 189/189/189 156/156/156 190/190/190
f 156/156/156 157/157/157 190/190/190
f 190/190/190 157/157/157 191/191/191
f 157/157/157 158/158/158 191/191/191
f 191/191/191 158/158/158 192/192/192
f 158/158/158 159/159/159 192/192/192
f 192/192/192 159/159/159 193/193/193
f 159/159/159 160/160/160 193/193/193
f 193/193/193 160/160/160 194/194/194
f 160/160/160 161/161/161 194/194/194
f 194/194/194 161/161/161 195/195/195
f 161/161/161 162/162/162 195/195/195
f 195/195/195 162/162/162 196/196/196
f 162/162/162 163/163/163 196/196/196
f 196/196/196 163/163/163 197/197/197
f 163/163/163 164/164/164 197/197/197
f 197/197/197 164/164/164 198/198/198
f 164/164/164 165/165/165 198/198/198
f 199/199/199 166/166/166 200/200/200
f 166/166/166 167/167/167 200/200/200
f 200/200/200 167/167/167 201/201/201
f 167/167/167 168/168/168 201/201/201
f 201/201/201 168/168/168 202/202/202
f 168/168/168 169/169/169 202/202/202
f 202/202/202 169/169/169 203/203/203
f 169/169/169 170/170/170 203/203/203
f 203/203/203 170/170/170 204/204/204
f 170/170/170 171/171/171 204/204/204
f 204/204/204 171/171/171 205/205/205
f 171/171/171 172/172/172 205/205/205
f 205/205/205 172/172/172 206/206/206
f 172/172/172 173/173/173 206/206/206
f 206/206/206 173/173/173 207/207/207
f 173/173/173 174/174/174 207/207/207
f 207/207/207 174/174/174 208/208/208
f 174/174/174 175/175/175 208/208/208
f 208/208/208 175/175/175 209/209/209
f 175/175/175 176/176/176 209/209/209
f 209/209/209 176/176/176 210/210/210
f 176/176/176 177/177/177 210/210/210
f 210/210/210 177/177/177 211/211/211
f 177/177/177 178/178/178 211/211/211
f 211/211/211 178/178/178 212/212/212
f 178/178/178 179/179/179 212/212/212
f 212/212/212 179/179/179 213/213/213
f 179/179/179 180/180/180 213/213/213
f 213/213/213 180/180/180 214/214/214
f 180/180/180 181/181/181 214/214/214
f 214/214/214 181/181/181 215/215/215
f 181/181/181 182/182/182 215/215/215
f 215/215/215 182/182/182 216/216/216
f 182/182/182 183/183/183 216/216/216
f 216/216/216 183/183/183 217/217/217
f 183/183/183 184/184/184 217/217/217
f 217/217/217 184/184/184 218/218/218
f 184/184/184 185/185/185 218/218/218
f 218/218/218 185/185/185 219/219/219
f 185/185/185 186/186/186 219/219/219
f 219/219/219 186/186/186 220/220/220
f 186/186/186 187/187/187 220/220/220
f 220/220/220 187/187/187 221/221/221
f 187/187/187 188/188/188 221/221/221
f 221/221/221 188/188/188 222/222/222
f 188/188/188 189/189/189 222/222/222
f 222/222/222 189/189/189 223/223/223
f 189/189/189 190/190/190 223/223/223
f 223/223/223 190/190/190 224/224/224
f 190/190/190 191/191/191 224/224/224
f 224/224/224 191/191/191 225/225/225
f 191/191/191 192/192/192 225/225/225
f 225/225/225 192/192/192 226/226/226
f 192/192/192 193/193/193 226/226/226
f 226/226/226 193/193/193 227/227/227
f 193/193/193 194/194/194 227/227/227
f 227/227/227 194/194/194 228/228/228
f 194/194/194 195/195/195 228/228/228
f 228/228/228 195/195/195 229/229/229
f 195/195/195 196/196/196 229/229/229
f 229/229/229 196/196/196 230/230/230
f 196/196/196 197/197/197 230/230/230
f 230/230/230 197/197/197 231/231/231
f 197/197/197 198/198/198 231/231/231
f 232/232/232 199/199/199 233/233/233
f 199/199/199 200/200/200 233/233/233
f 233/233/233 200/200/200 234/234/234
f 200/200/200 201/201/201 234/234/234
f 234/234/234 201/201/201 235/235/235
f 201/201/201 202/202/202 235/235/235
f 235/235/235 202/202/202 236/236/236
f 202/202/202 203/203/203 236/236/236
f 236/236/236 203/203/203 237/237/237
f 203/203/203 204/204/204 237/237/237
f 237/237/237 204/204/204 238/238/238
f 204/204/204 205/205/205 238/238/238
f 238/238/238 205/205/205 239/239/239
f 205/205/205 206/206/206 239/239/239
f 239/239/239 206/206/206 240/240/240
f 206/206/206 207/207/207 240/240/240
f 240/240/240 207/207/207 241/241/241
f 207/207/207 208/208/208 241/241/241
f 241/241/241 208/208/208 242/242/242
f 208/208/208 209/209/209 242/242/242
f 242/242/242 209/209/209 243/243/243
f 209/209/209 210/210/210 243/243/243
f 243/243/243 210/210/210 244/244/244
f 210/210/210 211/211/211 244/244/244
f 244/244/244 211/211/211 245/245/245
f 211/211/211 212/212/212 245/245/245
f 245/245/245 212/212/212 246/246/246
f 212/212/212 213/213/213 246/246/246
f 246/246/246 213/213/213 247/247/247
f 213/213/213 214/214/214 247/247/247
f 247/247/247 214/214/214 248/248/248
f 214/214/214 215/215/215 248/248/248
f 248/248/248 215/215/215 249/249/249
f 215/215/215 216/216/216 249/249/249
f 249/249/249 216/216/216 250/250/250
f 216/216/216 217/217/217 250/250/250
f 250/250/250 217/217/217 251/251/251
f 217/217/217 218/218/218 251/251/251
f 251/251/251 218/218/218 252/252/252
f 218/218/218 219/219/219 252/252/252
f 252/252/252 219/219/219 253/253/253
f 219/219/219 220/220/220 253/253/253
f 253/253/253 220/220/220 254/254/254
f 220/220/220 221/221/221 254/254/254
f 254/254/254 221/221/221 255/255/255
f 221/221/221 222/222/222 255/255/255
f 255/255/255 222/222/222 256/256/256
f 222/222/222 223/223/223 256/256/256
f 256/256/256 223/223/223 257/257/257
f 223/223/223 224/224/224 257/257/257
f 257/257/257 224/224/224 258/258/258
f 224/224/224 225/225/225 258/258/258
f 258/258/258 225/225/225 259/259/259
f 225/225/225 226/226/226 259/259/259
f 259/259/259 226/226/226 260/260/260
f 226/226/226 227/227/227 260/260/260
f 260/260/260 227/227/227 261/261/261
f 227/227/227 228/228/228 261/261/261
f 261/261/261 228/228/228 262/262/262
f 228/228/228 229/229/229 262/262/262
f 262/262/262 229/229/229 263/263/263
f 229/229/229 230/230/230 263/263/263
f 263/263/263 230/230/230 264/264/264
f 230/230/230 231/231/231 264/264/264
f 265/265/265 232/232/232 266/266/266
f 232/232/232 233/233/233 266/266/266
f 266/266/266 233/233/233 267/267/267
f 233/233/233 234/234/234 267/267/267
f 267/267/267 234/234/234 268/268/268
f 234/234/234 235/235/235 268/268/268
f 268/268/268 235/235/235 269/269/269
f 235/235/235 236/236/236 269/269/269
f 269/269/269 236/236/236 270/270/270
f 236/236/236 237/237/237 270/270/270
f 270/270/270 237/237/237 271/271/271
f 237/237/237 238/238/238 271/271/271
f 271/271/271 238/238/238 272/272/272
f 238/238/238 239/239/239 272/272/272
f 272/272/272 239/239/239 273/273/273
f 239/239/239 240/240/240 273/273/273
f 273/273/273 240/240/240 274/274/274
f 240/240/240 241/241/241 274/274/274
f 274/274/274 241/241/241 275/275/275
f 241/241/241 242/242/242 275/275/275
f 275/275/275 242/242/242 276/276/276
f 242/242/242 243/243/243 276/276/276
f 276/276/276 243/243/243 277/277/277
f 243/243/243 244/244/244 277/277/277
f 277/277/277 244/244/244 278/278/278
f 244/244/244 245/245/245 278/278/278
f 278/278/278 245/245/245 279/279/279
f 245/245/245 246/246/246 279/279/279
f 279/279/279 246/246/246 280/280/280
f 246/246/246 247/247/247 280/280/280
f 280/280/280 247/247/247 281/281/281
f 247/247/247 248/248/248 281/281/281
f 281/281/281 248/248/248 282/282/282
f 248/248/248 249/249/249 282/282/282
f 282/282/282 249/249/249 283/283/283
f 249/249/249 250/250/250 283/283/283
f 283/283/283 250/250/250 284/284/284
f 250/250/250 251/251/251 284/284/284
f 284/284/284 251/251/251 285/285/285
f 251/251/251 252/252/252 285/285/285
f 285/285/285 252/252/252 286/286/286
f 252/252/252 253/253/253 286/286/286
f 286/286/286 253/253/253 287/287/287
f 253/253/253 254/254/254 287/287/287
f 287/287/287 254/254/254 288/288/288
f 254/254/254 255/255/255 288/288/288
f 288/288/288 255/255/255 289/289/289
f 255/255/255 256/256/256 289/289/289
f 289/289/289 256/256/256 290/290/290
f 256/256/256 257/257/257 290/290/290
f 290/290/290 257/257/257 291/291/291
f 257/257/257 258/258/258 291/291/291
f 291/291/291 258/258/258 292/292/292
f 258/258/258 259/259/259 292/292/292
f 292/292/292 259/259/259 293/293/293
f 259/259/259 260/260/260 293/293/293
f 293/293/293 260/260/260 294/294/294
f 260/260/260 261/261/261 294/294/294
f 294/294/294 261/261/261 295/295/295
f 261/261/261 262/262/262 295/295/295
f 295/295/295 262/262/262 296/296/296
f 262/262/262 263/263/263 296/296/296
f 296/296/296 263/263/263 297/297/297
f 263/263/263 264/264/264 297/297/297
f 298/298/298 265/265/265 299/299/299
f 265/265/265 266/266/266 299/299/299
f 299/299/299 266/266/266 300/300/300
f 266/266/266 267/267/267 300/300/300
f 300/300/300 267/267/267 301/301/301
f 267/267/267 268/268/268 301/301/301
f 301/301/301 268/268/268 302/302/302
f 268/268/268 269/269/269 302/302/302
f 302/302/302 269/269/269 303/303/303
f 269/269/269 270/270/270 303/303/303
f 303/303/303 270/270/270 304/304/304
f 270/270/270 271/271/271 304/304/304
f 304/304/304 271/271/271 305/305/305
f 271/271/271 272/272/272 305/305/305
f 305/305/305 272/272/272 306/306/306
f 272/272/272 273/273/273 306/306/306
f 306/306/306 273/273/273 307/307/307
f 273/273/273 274/274/274 307/307/307
f 307/307/307 274/274/274 308/308/308
f 274/274/274 275/275/275 308/308/308
f 308/308/308 275/275/275 309/309/309
f 275/275/275 276/276/276 309/309/309
f 309/309/309 276/276/276 310/310/310
f 276/276/276 277/277/277 310/310/310
f 310/310/310 277/277/277 311/311/311
f 277/277/277 278/278/278 311/311/311
f 311/311/311 278/278/278 312/312/312
f 278/278/278 279/279/279 312/312/312
f 312/312/312 279/279/279 313/313/313
f 279/279/279 280/280/280 313/313/313
f 313/313/313 280/280/280 314/314/314
f 280/280/280 281/281/281 314/314/314
f 314/314/314 281/281/281 315/315/315
f 281/281/281 282/282/282 315/315/315
f 315/315/315 282/282/282 316/316/316
f 282/282/282 283/283/283 316/316/316
f 316/316/316 283/283/283 317/317/317
f 283/283/283 284/284/284 317/317/317
f 317/317/317 284/284/284 318/318/318
f 284/284/284 285/285/285 318/318/318
f 318/318/318 285/285/285 319/319/319
f 285/285/285 286/286/286 319/319/319
f 319/319/319 286/286/286 320/320/320
f 286/286/286 287/287/287 320/320/320
f 320/320/320 287/287/287 321/321/321
f 287/287/287 288/288/288 321/321/321
f 321/321/321 288/288/288 322/322/322
f 288/288/288 289/289/289 322/322/322
f 322/322/322 289/289/289 323/323/323
f 289/289/289 290/290/290 323/323/323
f 323/323/323 290/290/290 324/324/324
f 290/290/290 291/291/291 324/324/324
f 324/324/324 291/291/291 325/325/325
f 291/291/291 292/292/292 325/325/325
f 325/325/325 292/292/292 326/326/326
f 292/292/292 293/293/293 326/326/326
f 326/326/326 293/293/293 327/327/327
f 293/293/293 294/294/294 327/327/327
f 327/327/327 294/294/294 328/328/328
f 294/294/294 295/295/295 328/328/328
f 328/328/328 295/295/295 329/329/329
f 295/295/295 296/296/296 329/329/329
f 329/329/329 296/296/296 330/330/330
f 296/296/296 297/297/297 330/330/330
f 331/331/331 298/298/298 332/332/332
f 298/298/298 299/299/299 332/332/332
f 332/332/332 299/299/299 333/333/333
f 299/299/299 300/300/300 333/333/333
f 333/333/333 300/300/300 334/334/334
f 300/300/300 301/301/301 334/334/334
f 334/334/334 301/301/301 335/335/335
f 301/301/301 302/302/302 335/335/335
f 335/335/335 302/302/302 336/336/336
f 302/302/302 303/303/303 336/336/336
f 336/336/336 303/303/303 337/337/337
f 303/303/303 304/304/304 337/337/337
f 337/337/337 304/304/304 338/338/338
f 304/304/304 305/305/305 338/338/338
f 338/338/338 305/305/305 339/339/339
f 305/305/305 306/306/306 339/339/339
f 339/339/339 306/306/306 340/340/340
f 306/306/306 307/307/307 340/340/340
f 340/340/340 307/307/307 341/341/341
f 307/307/307 308/308/308 341/341/341
f 341/341/341 308/308/308 342/342/342
f 308/308/308 309/309/309 342/342/342
f 342/342/342 309/309/309 343/343/343
f 309/309/309 310/310/310 343/343/343
f 343/343/343 310/310/310 344/344/344
f 310/310/310 311/311/311 344/344/344
f 344/344/344 311/311/311 345/345/345
f 311/311/311 312/312/312 345/345/345
f 345/345/345 312/312/312 346/346/346
f 312/312/312 313/313/313 346/346/346
f 346/346/346 313/313/313 347/347/347
f 313/313/313 314/314/314 347/347/347
f 347/347/347 314/314/314 348/348/348
f 314/314/314 315/315/315 348/348/348
f 348/348/348 315/315/315 349/349/349
f 315/315/315 316/316/316 349/349/349
f 349/349/349 316/316/316 350/350/350
f 316/316/316 317/317/317 350/350/350
f 350/350/350 317/317/317 351/351/351
f 317/317/317 318/318/318 351/351/351
f 351/351/351 318/318/318 352/352/352
f 318/318/318 319/319/319 352/352/352
f 352/352/352 319/319/319 353/353/353
f 319/319/319 320/320/320 353/353/353
f 353/353/353 320/320/320 354/354/354
f 320/320/320 321/321/321 354/354/354
f 354/354/354 321/321/321 355/355/355
f 321/321/321 322/322/322 355/355/355
f 355/355/355 322/322/322 356/356/356
f 322/322/322 323/323/323 356/356/356
f 356/356/356 323/323/323 357/357/357
f 323/323/323 324/324/324 357/357/357
f 357/357/357 324/324/324 358/358/358
f 324/324/324 325/325/325 358/358/358
f 358/358/358 325/325/325 359/359/359
f 325/325/325 326/326/326 359/359/359
f 359/359/359 326/326/326 360/360/360
f 326/326/326 327/327/327 360/360/360
f 360/360/360 327/327/327 361/361/361
f 327/327/327 328/328/328 361/361/361
f 361/361/361 328/328/328 362/362/362
f 328/328/328 329/329/329 362/362/362
f 362/362/362 329/329/329 363/363/363
f 329/329/329 330/330/330 363/363/363
