o shape_098
v 1 0.866025447845459 0
v 0.9914448857307434 0.9965516328811646 0
v 0.9659258127212524 1.1248444318771362 0
v 0.9238796234130859 1.2487088441848755 0
v 0.866025447845459 1.3660253286361694 0
v 0.7933533787727356 1.4747868776321411 0
v 0.7071068286895752 1.5731322765350342 0
v 0.6087614297866821 1.6593788862228394 0
v 0.5 1.732050895690918 0
v 0.3826834559440613 1.7899049520492554 0
v 0.2588190734386444 1.8319512605667114 0
v 0.13052619993686676 1.8574703931808472 0
v 6.123234262925839e-17 1.8660255670547485 0
v -0.13052619993686676 1.8574703931808472 0
v -0.2588190734386444 1.8319512605667114 0
v -0.3826834559440613 1.7899049520492554 0
v -0.5 1.732050895690918 0
v -0.6087614297866821 1.6593788862228394 0
v -0.7071068286895752 1.5731322765350342 0
v -0.7933533787727356 1.4747868776321411 0
v -0.866025447845459 1.3660253286361694 0
v -0.9238796234130859 1.2487088441848755 0
v -0.9659258127212524 1.1248444318771362 0
v -0.9914448857307434 0.9965516328811646 0
v -1 0.866025447845459 0
v -0.9914448857307434 0.7354992032051086 0
v -0.9659258127212524 0.607206404209137 0
v -0.9238796234130859 0.4833419620990753 0
v -0.866025447845459 0.3660254180431366 0
v -0.7933533787727356 0.2572639584541321 0
v -0.7071068286895752 0.1589186191558838 0
v -0.6087614297866821 0.0726720541715622 0
v -0.5 0 0
v 0.9708670377731323 0.866025447845459 0.08966215699911118
v 0.9625611305236816 0.9927489161491394 0.08966215699911118
v 0.9377855658531189 1.1173043251037598 0.08966215699911118
v 0.8969641923904419 1.2375601530075073 0.08966215699911118
v 0.8407955169677734 1.35145902633667 0.08966215699911118
v 0.7702406048774719 1.4570517539978027 0.08966215699911118
v 0.6865066885948181 1.5525321960449219 0.08966215699911118
v 0.5910264253616333 1.6362659931182861 0.08966215699911118
v 0.48543351888656616 1.7068208456039429 0.08966215699911118
v 0.3715347349643707 1.7629895210266113 0.08966215699911118
v 0.2512788772583008 1.803810954093933 0.08966215699911118
v 0.12672357261180878 1.8285865783691406 0.08966215699911118
v 5.944845815511633e-17 1.8368923664093018 0.08966215699911118
v -0.12672357261180878 1.8285865783691406 0.08966215699911118
v -0.2512788772583008 1.803810954093933 0.08966215699911118
v -0.3715347349643707 1.7629895210266113 0.08966215699911118
v -0.48543351888656616 1.7068208456039429 0.08966215699911118
v -0.5910264253616333 1.6362659931182861 0.08966215699911118
v -0.6865066885948181 1.5525321960449219 0.08966215699911118
v -0.7702406048774719 1.4570517539978027 0.08966215699911118
v -0.8407955169677734 1.35145902633667 0.08966215699911118
v -0.8969641923904419 1.2375601530075073 0.08966215699911118
v -0.9377855658531189 1.1173043251037598 0.08966215699911118
v -0.9625611305236816 0.9927489161491394 0.08966215699911118
v -0.9708670377731323 0.866025447845459 0.08966215699911118
v -0.9625611305236816 0.739301860332489 0.08966215699911118
v -0.9377855658531189 0.6147465705871582 0.08966215699911118
v -0.8969641923904419 0.4944906532764435 0.08966215699911118
v -0.8407955169677734 0.38059189915657043 0.08966215699911118
v -0.7702406048774719 0.2749990224838257 0.08966215699911118
v -0.6865066885948181 0.17951874434947968 0.08966215699911118
v -0.5910264253616333 0.09578482061624527 0.08966215699911118
v -0.48543351888656616 0.025229889899492264 0.08966215699911118
v 0.8945958614349365 0.866025447845459 0.1450764238834381
v 0.8869425058364868 0.9827936291694641 0.1450764238834381
v 0.8641132116317749 1.0975638628005981 0.1450764238834381
v 0.826498806476593 1.2083724737167358 0.1450764238834381
v 0.7747427225112915 1.3133233785629272 0.1450764238834381
v 0.7097306251525879 1.4106208086013794 0.1450764238834381
v 0.6325747966766357 1.4986002445220947 0.1450764238834381
v 0.5445954203605652 1.5757560729980469 0.1450764238834381
v 0.44729793071746826 1.6407681703567505 0.1450764238834381
v 0.34234702587127686 1.6925243139266968 0.1450764238834381
v 0.23153844475746155 1.7301386594772339 0.1450764238834381
v 0.11676819622516632 1.7529678344726562 0.1450764238834381
v 5.477819641664194e-17 1.7606213092803955 0.1450764238834381
v -0.11676819622516632 1.7529678344726562 0.1450764238834381
v -0.23153844475746155 1.7301386594772339 0.1450764238834381
v -0.34234702587127686 1.6925243139266968 0.1450764238834381
v -0.44729793071746826 1.6407681703567505 0.1450764238834381
v -0.5445954203605652 1.5757560729980469 0.1450764238834381
v -0.6325747966766357 1.4986002445220947 0.1450764238834381
v -0.7097306251525879 1.4106208086013794 0.1450764238834381
v -0.7747427225112915 1.3133233785629272 0.1450764238834381
v -0.826498806476593 1.2083724737167358 0.1450764238834381
v -0.8641132116317749 1.0975638628005981 0.1450764238834381
v -0.8869425058364868 0.9827936291694641 0.1450764238834381
v -0.8945958614349365 0.866025447845459 0.1450764238834381
v -0.8869425058364868 0.7492572665214539 0.1450764238834381
v -0.8641132116317749 0.634486973285675 0.1450764238834381
v -0.826498806476593 0.5236784219741821 0.1450764238834381
v -0.7747427225112915 0.41872748732566833 0.1450764238834381
v -0.7097306251525879 0.321429967880249 0.1450764238834381
v -0.6325747966766357 0.23345063626766205 0.1450764238834381
v -0.5445954203605652 0.1562948077917099 0.1450764238834381
v -0.44729793071746826 0.09128269553184509 0.1450764238834381
v 0.800319492816925 0.866025447845459 0.1450764238834381
v 0.7934726476669312 0.9704881310462952 0.1450764238834381
v 0.7730492353439331 1.0731632709503174 0.1450764238834381
v 0.7393987774848938 1.1722943782806396 0.1450764238834381
v 0.6930969953536987 1.2661851644515991 0.1450764238834381
v 0.6349361538887024 1.35322904586792 0.1450764238834381
v 0.5659113526344299 1.4319367408752441 0.1450764238834381
v 0.4872036278247833 1.5009616613388062 0.1450764238834381
v 0.4001597464084625 1.5591224431991577 0.1450764238834381
v 0.3062690198421478 1.605424165725708 0.1450764238834381
v 0.20713791251182556 1.639074683189392 0.1450764238834381
v 0.1044626533985138 1.6594980955123901 0.1450764238834381
v 4.900543527053237e-17 1.6663448810577393 0.1450764238834381
v -0.1044626533985138 1.6594980955123901 0.1450764238834381
v -0.20713791251182556 1.639074683189392 0.1450764238834381
v -0.3062690198421478 1.605424165725708 0.1450764238834381
v -0.4001597464084625 1.5591224431991577 0.1450764238834381
v -0.4872036278247833 1.5009616613388062 0.1450764238834381
v -0.5659113526344299 1.4319367408752441 0.1450764238834381
v -0.6349361538887024 1.35322904586792 0.1450764238834381
v -0.6930969953536987 1.2661851644515991 0.1450764238834381
v -0.7393987774848938 1.1722943782806396 0.1450764238834381
v -0.7730492353439331 1.0731632709503174 0.1450764238834381
v -0.7934726476669312 0.9704881310462952 0.1450764238834381
v -0.800319492816925 0.866025447845459 0.1450764238834381
v -0.7934726476669312 0.7615627646446228 0.1450764238834381
v -0.7730492353439331 0.658887505531311 0.1450764238834381
v -0.7393987774848938 0.5597564578056335 0.1450764238834381
v -0.6930969953536987 0.4658656716346741 0.1450764238834381
v -0.6349361538887024 0.37882179021835327 0.1450764238834381
v -0.5659113526344299 0.30011409521102905 0.1450764238834381
v -0.4872036278247833 0.2310892939567566 0.1450764238834381
v -0.4001597464084625 0.17292843759059906 0.1450764238834381
v 0.7240482568740845 0.866025447845459 0.08966215699911118
v 0.7178539633750916 0.9605327248573303 0.08966215699911118
v 0.6993769407272339 1.0534229278564453 0.08966215699911118
v 0.6689333915710449 1.1431066989898682 0.08966215699911118
v 0.6270442008972168 1.2280495166778564 0.08966215699911118
v 0.5744261741638184 1.3067981004714966 0.08966215699911118
v 0.5119794607162476 1.3780049085617065 0.08966215699911118
v 0.44077268242836 1.4404516220092773 0.08966215699911118
v 0.36202412843704224 1.4930696487426758 0.08966215699911118
v 0.27708128094673157 1.534958839416504 0.08966215699911118
v 0.18739749491214752 1.5654022693634033 0.08966215699911118
v 0.09450726956129074 1.5838793516159058 0.08966215699911118
v 4.4335170223335524e-17 1.5900737047195435 0.08966215699911118
v -0.09450726956129074 1.5838793516159058 0.08966215699911118
v -0.18739749491214752 1.5654022693634033 0.08966215699911118
v -0.27708128094673157 1.534958839416504 0.08966215699911118
v -0.36202412843704224 1.4930696487426758 0.08966215699911118
v -0.44077268242836 1.4404516220092773 0.08966215699911118
v -0.5119794607162476 1.3780049085617065 0.08966215699911118
v -0.5744261741638184 1.3067981004714966 0.08966215699911118
v -0.6270442008972168 1.2280495166778564 0.08966215699911118
v -0.6689333915710449 1.1431066989898682 0.08966215699911118
v -0.6993769407272339 1.0534229278564453 0.08966215699911118
v -0.7178539633750916 0.9605327248573303 0.08966215699911118
v -0.7240482568740845 0.866025447845459 0.08966215699911118
v -0.7178539633750916 0.7715181708335876 0.08966215699911118
v -0.6993769407272339 0.6786279082298279 0.08966215699911118
v -0.6689333915710449 0.588944137096405 0.08966215699911118
v -0.6270442008972168 0.5040013194084167 0.08966215699911118
v -0.5744261741638184 0.4252527356147766 0.08966215699911118
v -0.5119794607162476 0.35404595732688904 0.08966215699911118
v -0.44077268242836 0.2915992736816406 0.08966215699911118
v -0.36202412843704224 0.2389812022447586 0.08966215699911118
v 0.6949152946472168 0.866025447845459 1.8681053571342477e-17
v 0.688970148563385 0.95673006772995 1.8681053571342477e-17
v 0.6712366342544556 1.0458827018737793 1.8681053571342477e-17
v 0.6420180201530457 1.1319580078125 1.8681053571342477e-17
v 0.6018142700195312 1.2134830951690674 1.8681053571342477e-17
v 0.5513133406639099 1.2890630960464478 1.8681053571342477e-17
v 0.4913792908191681 1.3574047088623047 1.8681053571342477e-17
v 0.4230376183986664 1.4173387289047241 1.8681053571342477e-17
v 0.3474576473236084 1.4678397178649902 1.8681053571342477e-17
v 0.265932559967041 1.5080434083938599 1.8681053571342477e-17
v 0.1798573136329651 1.5372620820999146 1.8681053571342477e-17
v 0.09070464968681335 1.5549955368041992 1.8681053571342477e-17
v 4.2551289057915915e-17 1.5609406232833862 1.8681053571342477e-17
v -0.09070464968681335 1.5549955368041992 1.8681053571342477e-17
v -0.1798573136329651 1.5372620820999146 1.8681053571342477e-17
v -0.265932559967041 1.5080434083938599 1.8681053571342477e-17
v -0.3474576473236084 1.4678397178649902 1.8681053571342477e-17
v -0.4230376183986664 1.4173387289047241 1.8681053571342477e-17
v -0.4913792908191681 1.3574047088623047 1.8681053571342477e-17
v -0.5513133406639099 1.2890630960464478 1.8681053571342477e-17
v -0.6018142700195312 1.2134830951690674 1.8681053571342477e-17
v -0.6420180201530457 1.1319580078125 1.8681053571342477e-17
v -0.6712366342544556 1.0458827018737793 1.8681053571342477e-17
v -0.688970148563385 0.95673006772995 1.8681053571342477e-17
v -0.6949152946472168 0.866025447845459 1.8681053571342477e-17
v -0.688970148563385 0.7753207683563232 1.8681053571342477e-17
v -0.6712366342544556 0.6861680746078491 1.8681053571342477e-17
v -0.6420180201530457 0.6000928282737732 1.8681053571342477e-17
v -0.6018142700195312 0.5185678005218506 1.8681053571342477e-17
v -0.5513133406639099 0.4429877996444702 1.8681053571342477e-17
v -0.4913792908191681 0.3746461272239685 1.8681053571342477e-17
v -0.4230376183986664 0.3147120773792267 1.8681053571342477e-17
v -0.3474576473236084 0.26421114802360535 1.8681053571342477e-17
v 0.7240482568740845 0.866025447845459 -0.08966215699911118
v 0.7178539633750916 0.9605327248573303 -0.08966215699911118
v 0.6993769407272339 1.0534229278564453 -0.08966215699911118
v 0.6689333915710449 1.1431066989898682 -0.08966215699911118
v 0.6270442008972168 1.2280495166778564 -0.08966215699911118
v 0.5744261741638184 1.3067981004714966 -0.08966215699911118
v 0.5119794607162476 1.3780049085617065 -0.08966215699911118
v 0.44077268242836 1.4404516220092773 -0.08966215699911118
v 0.36202412843704224 1.4930696487426758 -0.08966215699911118
v 0.27708128094673157 1.534958839416504 -0.08966215699911118
v 0.18739749491214752 1.5654022693634033 -0.08966215699911118
v 0.09450726956129074 1.5838793516159058 -0.08966215699911118
v 4.4335170223335524e-17 1.5900737047195435 -0.08966215699911118
v -0.09450726956129074 1.5838793516159058 -0.08966215699911118
v -0.18739749491214752 1.5654022693634033 -0.08966215699911118
v -0.27708128094673157 1.534958839416504 -0.08966215699911118
v -0.36202412843704224 1.4930696487426758 -0.08966215699911118
v -0.44077268242836 1.4404516220092773 -0.08966215699911118
v -0.5119794607162476 1.3780049085617065 -0.08966215699911118
v -0.5744261741638184 1.3067981004714966 -0.08966215699911118
v -0.6270442008972168 1.2280495166778564 -0.08966215699911118
v -0.6689333915710449 1.1431066989898682 -0.08966215699911118
v -0.6993769407272339 1.0534229278564453 -0.08966215699911118
v -0.7178539633750916 0.9605327248573303 -0.08966215699911118
v -0.7240482568740845 0.866025447845459 -0.08966215699911118
v -0.7178539633750916 0.7715181708335876 -0.08966215699911118
v -0.6993769407272339 0.6786279082298279 -0.08966215699911118
v -0.6689333915710449 0.588944137096405 -0.08966215699911118
v -0.6270442008972168 0.5040013194084167 -0.08966215699911118
v -0.5744261741638184 0.4252527356147766 -0.08966215699911118
v -0.5119794607162476 0.35404595732688904 -0.08966215699911118
v -0.44077268242836 0.2915992736816406 -0.08966215699911118
v -0.36202412843704224 0.2389812022447586 -0.08966215699911118
v 0.800319492816925 0.866025447845459 -0.1450764238834381
v 0.7934726476669312 0.9704881310462952 -0.1450764238834381
v 0.7730492353439331 1.0731632709503174 -0.1450764238834381
v 0.7393987774848938 1.1722943782806396 -0.1450764238834381
v 0.6930969953536987 1.2661851644515991 -0.1450764238834381
v 0.6349361538887024 1.35322904586792 -0.1450764238834381
v 0.5659113526344299 1.4319367408752441 -0.1450764238834381
v 0.4872036278247833 1.5009616613388062 -0.1450764238834381
v 0.4001597464084625 1.5591224431991577 -0.1450764238834381
v 0.3062690198421478 1.605424165725708 -0.1450764238834381
v 0.20713791251182556 1.639074683189392 -0.1450764238834381
v 0.1044626533985138 1.6594980955123901 -0.1450764238834381
v 4.900543527053237e-17 1.6663448810577393 -0.1450764238834381
v -0.1044626533985138 1.6594980955123901 -0.1450764238834381
v -0.20713791251182556 1.639074683189392 -0.1450764238834381
v -0.3062690198421478 1.605424165725708 -0.1450764238834381
v -0.4001597464084625 1.5591224431991577 -0.1450764238834381
v -0.4872036278247833 1.5009616613388062 -0.1450764238834381
v -0.5659113526344299 1.4319367408752441 -0.1450764238834381
v -0.6349361538887024 1.35322904586792 -0.1450764238834381
v -0.6930969953536987 1.2661851644515991 -0.1450764238834381
v -0.7393987774848938 1.1722943782806396 -0.1450764238834381
v -0.7730492353439331 1.0731632709503174 -0.1450764238834381
v -0.7934726476669312 0.9704881310462952 -0.1450764238834381
v -0.800319492816925 0.866025447845459 -0.1450764238834381
v -0.7934726476669312 0.7615627646446228 -0.1450764238834381
v -0.7730492353439331 0.658887505531311 -0.1450764238834381
v -0.7393987774848938 0.5597564578056335 -0.1450764238834381
v -0.6930969953536987 0.4658656716346741 -0.1450764238834381
v -0.6349361538887024 0.37882179021835327 -0.1450764238834381
v -0.5659113526344299 0.30011409521102905 -0.1450764238834381
v -0.4872036278247833 0.2310892939567566 -0.1450764238834381
v -0.4001597464084625 0.17292843759059906 -0.1450764238834381
v 0.8945958614349365 0.866025447845459 -0.1450764238834381
v 0.8869425058364868 0.9827936291694641 -0.1450764238834381
v 0.8641132116317749 1.0975638628005981 -0.1450764238834381
v 0.826498806476593 1.2083724737167358 -0.1450764238834381
v 0.7747427225112915 1.3133233785629272 -0.1450764238834381
v 0.7097306251525879 1.4106208086013794 -0.1450764238834381
v 0.6325747966766357 1.4986002445220947 -0.1450764238834381
v 0.5445954203605652 1.5757560729980469 -0.1450764238834381
v 0.44729793071746826 1.6407681703567505 -0.1450764238834381
v 0.34234702587127686 1.6925243139266968 -0.1450764238834381
v 0.23153844475746155 1.7301386594772339 -0.1450764238834381
v 0.11676819622516632 1.7529678344726562 -0.1450764238834381
v 5.477819641664194e-17 1.7606213092803955 -0.1450764238834381
v -0.11676819622516632 1.7529678344726562 -0.1450764238834381
v -0.23153844475746155 1.7301386594772339 -0.1450764238834381
v -0.34234702587127686 1.6925243139266968 -0.1450764238834381
v -0.44729793071746826 1.6407681703567505 -0.1450764238834381
v -0.5445954203605652 1.5757560729980469 -0.1450764238834381
v -0.6325747966766357 1.4986002445220947 -0.1450764238834381
v -0.7097306251525879 1.4106208086013794 -0.1450764238834381
v -0.7747427225112915 1.3133233785629272 -0.1450764238834381
v -0.826498806476593 1.2083724737167358 -0.1450764238834381
v -0.8641132116317749 1.0975638628005981 -0.1450764238834381
v -0.8869425058364868 0.9827936291694641 -0.1450764238834381
v -0.8945958614349365 0.866025447845459 -0.1450764238834381
v -0.8869425058364868 0.7492572665214539 -0.1450764238834381
v -0.8641132116317749 0.634486973285675 -0.1450764238834381
v -0.826498806476593 0.5236784219741821 -0.1450764238834381
v -0.7747427225112915 0.41872748732566833 -0.1450764238834381
v -0.7097306251525879 0.321429967880249 -0.1450764238834381
v -0.6325747966766357 0.23345063626766205 -0.1450764238834381
v -0.5445954203605652 0.1562948077917099 -0.1450764238834381
v -0.44729793071746826 0.09128269553184509 -0.1450764238834381
v 0.9708670377731323 0.866025447845459 -0.08966215699911118
v 0.9625611305236816 0.9927489161491394 -0.08966215699911118
v 0.9377855658531189 1.1173043251037598 -0.08966215699911118
v 0.8969641923904419 1.2375601530075073 -0.08966215699911118
v 0.8407955169677734 1.35145902633667 -0.08966215699911118
v 0.7702406048774719 1.4570517539978027 -0.08966215699911118
v 0.6865066885948181 1.5525321960449219 -0.08966215699911118
v 0.5910264253616333 1.6362659931182861 -0.08966215699911118
v 0.48543351888656616 1.7068208456039429 -0.08966215699911118
v 0.3715347349643707 1.7629895210266113 -0.08966215699911118
v 0.2512788772583008 1.803810954093933 -0.08966215699911118
v 0.12672357261180878 1.8285865783691406 -0.08966215699911118
v 5.944845815511633e-17 1.8368923664093018 -0.08966215699911118
v -0.12672357261180878 1.8285865783691406 -0.08966215699911118
v -0.2512788772583008 1.803810954093933 -0.08966215699911118
v -0.3715347349643707 1.7629895210266113 -0.08966215699911118
v -0.48543351888656616 1.7068208456039429 -0.08966215699911118
v -0.5910264253616333 1.6362659931182861 -0.08966215699911118
v -0.6865066885948181 1.5525321960449219 -0.08966215699911118
v -0.7702406048774719 1.4570517539978027 -0.08966215699911118
v -0.8407955169677734 1.35145902633667 -0.08966215699911118
v -0.8969641923904419 1.2375601530075073 -0.08966215699911118
v -0.9377855658531189 1.1173043251037598 -0.08966215699911118
v -0.9625611305236816 0.9927489161491394 -0.08966215699911118
v -0.9708670377731323 0.866025447845459 -0.08966215699911118
v -0.9625611305236816 0.739301860332489 -0.08966215699911118
v -0.9377855658531189 0.6147465705871582 -0.08966215699911118
v -0.8969641923904419 0.4944906532764435 -0.08966215699911118
v -0.8407955169677734 0.38059189915657043 -0.08966215699911118
v -0.7702406048774719 0.2749990224838257 -0.08966215699911118
v -0.6865066885948181 0.17951874434947968 -0.08966215699911118
v -0.5910264253616333 0.09578482061624527 -0.08966215699911118
v -0.48543351888656616 0.025229889899492264 -0.08966215699911118
v 1 0.866025447845459 -3.7362107142684955e-17
v 0.9914448857307434 0.9965516328811646 -3.7362107142684955e-17
v 0.9659258127212524 1.1248444318771362 -3.7362107142684955e-17
v 0.9238796234130859 1.2487088441848755 -3.7362107142684955e-17
v 0.866025447845459 1.3660253286361694 -3.7362107142684955e-17
v 0.7933533787727356 1.4747868776321411 -3.7362107142684955e-17
v 0.7071068286895752 1.5731322765350342 -3.7362107142684955e-17
v 0.6087614297866821 1.6593788862228394 -3.7362107142684955e-17
v 0.5 1.732050895690918 -3.7362107142684955e-17
v 0.3826834559440613 1.7899049520492554 -3.7362107142684955e-17
v 0.2588190734386444 1.8319512605667114 -3.7362107142684955e-17
v 0.13052619993686676 1.8574703931808472 -3.7362107142684955e-17
v 6.123234262925839e-17 1.8660255670547485 -3.7362107142684955e-17
v -0.13052619993686676 1.8574703931808472 -3.7362107142684955e-17
v -0.2588190734386444 1.8319512605667114 -3.7362107142684955e-17
v -0.3826834559440613 1.7899049520492554 -3.7362107142684955e-17
v -0.5 1.732050895690918 -3.7362107142684955e-17
v -0.6087614297866821 1.6593788862228394 -3.7362107142684955e-17
v -0.7071068286895752 1.5731322765350342 -3.7362107142684955e-17
v -0.7933533787727356 1.4747868776321411 -3.7362107142684955e-17
v -0.866025447845459 1.3660253286361694 -3.7362107142684955e-17
v -0.9238796234130859 1.2487088441848755 -3.7362107142684955e-17
v -0.9659258127212524 1.1248444318771362 -3.7362107142684955e-17
v -0.9914448857307434 0.9965516328811646 -3.7362107142684955e-17
v -1 0.866025447845459 -3.7362107142684955e-17
v -0.9914448857307434 0.7354992032051086 -3.7362107142684955e-17
v -0.9659258127212524 0.607206404209137 -3.7362107142684955e-17
v -0.9238796234130859 0.4833419620990753 -3.7362107142684955e-17
v -0.866025447845459 0.3660254180431366 -3.7362107142684955e-17
v -0.7933533787727356 0.2572639584541321 -3.7362107142684955e-17
v -0.7071068286895752 0.1589186191558838 -3.7362107142684955e-17
v -0.6087614297866821 0.0726720541715622 -3.7362107142684955e-17
v -0.5 0 -3.7362107142684955e-17
vt 0 0
vt 0.03125 0
vt 0.0625 0
vt 0.09375 0
vt 0.125 0
vt 0.15625 0
vt 0.1875 0
vt 0.21875 0
vt 0.25 0
vt 0.28125 0
vt 0.3125 0
vt 0.34375 0
vt 0.375 0
vt 0.40625 0
vt 0.4375 0
vt 0.46875 0
vt 0.5 0
vt 0.53125 0
vt 0.5625 0
vt 0.59375 0
vt 0.625 0
vt 0.65625 0
vt 0.6875 0
vt 0.71875 0
vt 0.75 0
vt 0.78125 0
vt 0.8125 0
vt 0.84375 0
vt 0.875 0
vt 0.90625 0
vt 0.9375 0
vt 0.96875 0
vt 1 0
vt 0 0.10000000149011612
vt 0.03125 0.10000000149011612
vt 0.0625 0.10000000149011612
vt 0.09375 0.10000000149011612
vt 0.125 0.10000000149011612
vt 0.15625 0.10000000149011612
vt 0.1875 0.10000000149011612
vt 0.21875 0.10000000149011612
vt 0.25 0.10000000149011612
vt 0.28125 0.10000000149011612
vt 0.3125 0.10000000149011612
vt 0.34375 0.10000000149011612
vt 0.375 0.10000000149011612
vt 0.40625 0.10000000149011612
vt 0.4375 0.10000000149011612
vt 0.46875 0.10000000149011612
vt 0.5 0.10000000149011612
vt 0.53125 0.10000000149011612
vt 0.5625 0.10000000149011612
vt 0.59375 0.10000000149011612
vt 0.625 0.10000000149011612
vt 0.65625 0.10000000149011612
vt 0.6875 0.10000000149011612
vt 0.71875 0.10000000149011612
vt 0.75 0.10000000149011612
vt 0.78125 0.10000000149011612
vt 0.8125 0.10000000149011612
vt 0.84375 0.10000000149011612
vt 0.875 0.10000000149011612
vt 0.90625 0.10000000149011612
vt 0.9375 0.10000000149011612
vt 0.96875 0.10000000149011612
vt 1 0.10000000149011612
vt 0 0.20000000298023224
vt 0.03125 0.20000000298023224
vt 0.0625 0.20000000298023224
vt 0.09375 0.20000000298023224
vt 0.125 0.20000000298023224
vt 0.15625 0.20000000298023224
vt 0.1875 0.20000000298023224
vt 0.21875 0.20000000298023224
vt 0.25 0.20000000298023224
vt 0.28125 0.20000000298023224
vt 0.3125 0.20000000298023224
vt 0.34375 0.20000000298023224
vt 0.375 0.20000000298023224
vt 0.40625 0.20000000298023224
vt 0.4375 0.20000000298023224
vt 0.46875 0.20000000298023224
vt 0.5 0.20000000298023224
vt 0.53125 0.20000000298023224
vt 0.5625 0.20000000298023224
vt 0.59375 0.20000000298023224
vt 0.625 0.20000000298023224
vt 0.65625 0.20000000298023224
vt 0.6875 0.20000000298023224
vt 0.71875 0.20000000298023224
vt 0.75 0.20000000298023224
vt 0.78125 0.20000000298023224
vt 0.8125 0.20000000298023224
vt 0.84375 0.20000000298023224
vt 0.875 0.20000000298023224
vt 0.90625 0.20000000298023224
vt 0.9375 0.20000000298023224
vt 0.96875 0.20000000298023224
vt 1 0.20000000298023224
vt 0 0.30000001192092896
vt 0.03125 0.30000001192092896
vt 0.0625 0.30000001192092896
vt 0.09375 0.30000001192092896
vt 0.125 0.30000001192092896
vt 0.15625 0.30000001192092896
vt 0.1875 0.30000001192092896
vt 0.21875 0.30000001192092896
vt 0.25 0.30000001192092896
vt 0.28125 0.30000001192092896
vt 0.3125 0.30000001192092896
vt 0.34375 0.30000001192092896
vt 0.375 0.30000001192092896
vt 0.40625 0.30000001192092896
vt 0.4375 0.30000001192092896
vt 0.46875 0.30000001192092896
vt 0.5 0.30000001192092896
vt 0.53125 0.30000001192092896
vt 0.5625 0.30000001192092896
vt 0.59375 0.30000001192092896
vt 0.625 0.30000001192092896
vt 0.65625 0.30000001192092896
vt 0.6875 0.30000001192092896
vt 0.71875 0.30000001192092896
vt 0.75 0.30000001192092896
vt 0.78125 0.30000001192092896
vt 0.8125 0.30000001192092896
vt 0.84375 0.30000001192092896
vt 0.875 0.30000001192092896
vt 0.90625 0.30000001192092896
vt 0.9375 0.30000001192092896
vt 0.96875 0.30000001192092896
vt 1 0.30000001192092896
vt 0 0.4000000059604645
vt 0.03125 0.4000000059604645
vt 0.0625 0.4000000059604645
vt 0.09375 0.4000000059604645
vt 0.125 0.4000000059604645
vt 0.15625 0.4000000059604645
vt 0.1875 0.4000000059604645
vt 0.21875 0.4000000059604645
vt 0.25 0.4000000059604645
vt 0.28125 0.4000000059604645
vt 0.3125 0.4000000059604645
vt 0.34375 0.4000000059604645
vt 0.375 0.4000000059604645
vt 0.40625 0.4000000059604645
vt 0.4375 0.4000000059604645
vt 0.46875 0.4000000059604645
vt 0.5 0.4000000059604645
vt 0.53125 0.4000000059604645
vt 0.5625 0.4000000059604645
vt 0.59375 0.4000000059604645
vt 0.625 0.4000000059604645
vt 0.65625 0.4000000059604645
vt 0.6875 0.4000000059604645
vt 0.71875 0.4000000059604645
vt 0.75 0.4000000059604645
vt 0.78125 0.4000000059604645
vt 0.8125 0.4000000059604645
vt 0.84375 0.4000000059604645
vt 0.875 0.4000000059604645
vt 0.90625 0.4000000059604645
vt 0.9375 0.4000000059604645
vt 0.96875 0.4000000059604645
vt 1 0.4000000059604645
vt 0 0.5
vt 0.03125 0.5
vt 0.0625 0.5
vt 0.09375 0.5
vt 0.125 0.5
vt 0.15625 0.5
vt 0.1875 0.5
vt 0.21875 0.5
vt 0.25 0.5
vt 0.28125 0.5
vt 0.3125 0.5
vt 0.34375 0.5
vt 0.375 0.5
vt 0.40625 0.5
vt 0.4375 0.5
vt 0.46875 0.5
vt 0.5 0.5
vt 0.53125 0.5
vt 0.5625 0.5
vt 0.59375 0.5
vt 0.625 0.5
vt 0.65625 0.5
vt 0.6875 0.5
vt 0.71875 0.5
vt 0.75 0.5
vt 0.78125 0.5
vt 0.8125 0.5
vt 0.84375 0.5
vt 0.875 0.5
vt 0.90625 0.5
vt 0.9375 0.5
vt 0.96875 0.5
vt 1 0.5
vt 0 0.6000000238418579
vt 0.03125 0.6000000238418579
vt 0.0625 0.6000000238418579
vt 0.09375 0.6000000238418579
vt 0.125 0.6000000238418579
vt 0.15625 0.6000000238418579
vt 0.1875 0.6000000238418579
vt 0.21875 0.6000000238418579
vt 0.25 0.6000000238418579
vt 0.28125 0.6000000238418579
vt 0.3125 0.6000000238418579
vt 0.34375 0.6000000238418579
vt 0.375 0.6000000238418579
vt 0.40625 0.6000000238418579
vt 0.4375 0.6000000238418579
vt 0.46875 0.6000000238418579
vt 0.5 0.6000000238418579
vt 0.53125 0.6000000238418579
vt 0.5625 0.6000000238418579
vt 0.59375 0.6000000238418579
vt 0.625 0.6000000238418579
vt 0.65625 0.6000000238418579
vt 0.6875 0.6000000238418579
vt 0.71875 0.6000000238418579
vt 0.75 0.6000000238418579
vt 0.78125 0.6000000238418579
vt 0.8125 0.6000000238418579
vt 0.84375 0.6000000238418579
vt 0.875 0.6000000238418579
vt 0.90625 0.6000000238418579
vt 0.9375 0.6000000238418579
vt 0.96875 0.6000000238418579
vt 1 0.6000000238418579
vt 0 0.699999988079071
vt 0.03125 0.699999988079071
vt 0.0625 0.699999988079071
vt 0.09375 0.699999988079071
vt 0.125 0.699999988079071
vt 0.15625 0.699999988079071
vt 0.1875 0.699999988079071
vt 0.21875 0.699999988079071
vt 0.25 0.699999988079071
vt 0.28125 0.699999988079071
vt 0.3125 0.699999988079071
vt 0.34375 0.699999988079071
vt 0.375 0.699999988079071
vt 0.40625 0.699999988079071
vt 0.4375 0.699999988079071
vt 0.46875 0.699999988079071
vt 0.5 0.699999988079071
vt 0.53125 0.699999988079071
vt 0.5625 0.699999988079071
vt 0.59375 0.699999988079071
vt 0.625 0.699999988079071
vt 0.65625 0.699999988079071
vt 0.6875 0.699999988079071
vt 0.71875 0.699999988079071
vt 0.75 0.699999988079071
vt 0.78125 0.699999988079071
vt 0.8125 0.699999988079071
vt 0.84375 0.699999988079071
vt 0.875 0.699999988079071
vt 0.90625 0.699999988079071
vt 0.9375 0.699999988079071
vt 0.96875 0.699999988079071
vt 1 0.699999988079071
vt 0 0.800000011920929
vt 0.03125 0.800000011920929
vt 0.0625 0.800000011920929
vt 0.09375 0.800000011920929
vt 0.125 0.800000011920929
vt 0.15625 0.800000011920929
vt 0.1875 0.800000011920929
vt 0.21875 0.800000011920929
vt 0.25 0.800000011920929
vt 0.28125 0.800000011920929
vt 0.3125 0.800000011920929
vt 0.34375 0.800000011920929
vt 0.375 0.800000011920929
vt 0.40625 0.800000011920929
vt 0.4375 0.800000011920929
vt 0.46875 0.800000011920929
vt 0.5 0.800000011920929
vt 0.53125 0.800000011920929
vt 0.5625 0.800000011920929
vt 0.59375 0.800000011920929
vt 0.625 0.800000011920929
vt 0.65625 0.800000011920929
vt 0.6875 0.800000011920929
vt 0.71875 0.800000011920929
vt 0.75 0.800000011920929
vt 0.78125 0.800000011920929
vt 0.8125 0.800000011920929
vt 0.84375 0.800000011920929
vt 0.875 0.800000011920929
vt 0.90625 0.800000011920929
vt 0.9375 0.800000011920929
vt 0.96875 0.800000011920929
vt 1 0.800000011920929
vt 0 0.8999999761581421
vt 0.03125 0.8999999761581421
vt 0.0625 0.8999999761581421
vt 0.09375 0.8999999761581421
vt 0.125 0.8999999761581421
vt 0.15625 0.8999999761581421
vt 0.1875 0.8999999761581421
vt 0.21875 0.8999999761581421
vt 0.25 0.8999999761581421
vt 0.28125 0.8999999761581421
vt 0.3125 0.8999999761581421
vt 0.34375 0.8999999761581421
vt 0.375 0.8999999761581421
vt 0.40625 0.8999999761581421
vt 0.4375 0.8999999761581421
vt 0.46875 0.8999999761581421
vt 0.5 0.8999999761581421
vt 0.53125 0.8999999761581421
vt 0.5625 0.8999999761581421
vt 0.59375 0.8999999761581421
vt 0.625 0.8999999761581421
vt 0.65625 0.8999999761581421
vt 0.6875 0.8999999761581421
vt 0.71875 0.8999999761581421
vt 0.75 0.8999999761581421
vt 0.78125 0.8999999761581421
vt 0.8125 0.8999999761581421
vt 0.84375 0.8999999761581421
vt 0.875 0.8999999761581421
vt 0.90625 0.8999999761581421
vt 0.9375 0.8999999761581421
vt 0.96875 0.8999999761581421
vt 1 0.8999999761581421
vt 0 1
vt 0.03125 1
vt 0.0625 1
vt 0.09375 1
vt 0.125 1
vt 0.15625 1
vt 0.1875 1
vt 0.21875 1
vt 0.25 1
vt 0.28125 1
vt 0.3125 1
vt 0.34375 1
vt 0.375 1
vt 0.40625 1
vt 0.4375 1
vt 0.46875 1
vt 0.5 1
vt 0.53125 1
vt 0.5625 1
vt 0.59375 1
vt 0.625 1
vt 0.65625 1
vt 0.6875 1
vt 0.71875 1
vt 0.75 1
vt 0.78125 1
vt 0.8125 1
vt 0.84375 1
vt 0.875 1
vt 0.90625 1
vt 0.9375 1
vt 0.96875 1
vt 1 1
vn 0.9492141526248197 0.06221479498765179 0.3084182415833896
vn 0.94006611179458 0.144304381759234 0.30895299134416165
vn 0.91318824141342 0.2657733028588791 0.3089527265323091
vn 0.8706853277341918 0.3826944480607624 0.308953102415029
vn 0.8132848596183846 0.49306794131399206 0.30895265391947424
vn 0.7419689179657097 0.5950044298896892 0.30895283326818673
vn 0.6579575026337386 0.6867606131230417 0.3089527229056861
vn 0.5626884101789488 0.7667658923650356 0.30895277852114855
vn 0.4577915596586415 0.8336516487794596 0.3089527737253659
vn 0.3450616900813853 0.8862733256868391 0.30895310682070826
vn 0.22642749903223014 0.9237309243177052 0.3089526940183037
vn 0.10391959504716802 0.9453828891482141 0.3089529263027106
vn -0.020366906724483214 0.9508593493937788 0.30895256396559617
vn -0.144304381759234 0.94006611179458 0.30895299134416165
vn -0.2657733028588791 0.91318824141342 0.3089527265323091
vn -0.3826944480607624 0.8706853277341918 0.308953102415029
vn -0.49306794131399206 0.8132848596183846 0.30895265391947424
vn -0.5950044298896892 0.7419689179657097 0.30895283326818673
vn -0.6867606131230417 0.6579575026337386 0.3089527229056861
vn -0.7667658923650356 0.5626884101789488 0.30895277852114855
vn -0.8336516487794596 0.4577915596586415 0.3089527737253659
vn -0.8862733256868391 0.3450616900813853 0.30895310682070826
vn -0.9237309243177052 0.22642749903223014 0.3089526940183037
vn -0.9453828891482141 0.10391959504716802 0.3089529263027106
vn -0.9508593493937788 -0.020366906724483214 0.30895256396559617
vn -0.94006611179458 -0.144304381759234 0.30895299134416165
vn -0.91318824141342 -0.2657733028588791 0.3089527265323091
vn -0.8706853277341918 -0.3826944480607624 0.308953102415029
vn -0.8132848596183846 -0.49306794131399206 0.30895265391947424
vn -0.7419689179657097 -0.5950044298896892 0.30895283326818673
vn -0.6579575026337386 -0.6867606131230417 0.3089527229056861
vn -0.5626884101789488 -0.7667658923650356 0.30895277852114855
vn -0.5284865567494696 -0.7909363611418359 0.3084179501241797
vn 0.7439924993703682 0.048764004773307223 0.6664062069932285
vn 0.8061874371314873 0.10102117634321804 0.5829721589763931
vn 0.7861043887153466 0.20538547834451057 0.5829722937907662
vn 0.7525709308809421 0.3062355831574299 0.5829723506318469
vn 0.706160850125975 0.4018460252570059 0.5829722341025393
vn 0.6476681136179404 0.4905806110892374 0.5829722794660899
vn 0.5780936423565297 0.5709212367062557 0.5829722824841334
vn 0.4986277734458008 0.6414933096298066 0.5829722782848946
vn 0.41063025984549195 0.7010892696345182 0.5829722340751413
vn 0.3156068324347487 0.7486892340918186 0.582972347607938
vn 0.2151830833579709 0.7834791690935866 0.5829722396761101
vn 0.11107767353195964 0.8048635110575945 0.5829721082614235
vn 0.0050716041599347264 0.8124763371491324 0.5829721094563395
vn -0.10102117634321804 0.8061874371314873 0.5829721589763931
vn -0.20538547834451057 0.7861043887153466 0.5829722937907662
vn -0.3062355831574299 0.7525709308809421 0.5829723506318469
vn -0.4018460252570059 0.706160850125975 0.5829722341025393
vn -0.4905806110892374 0.6476681136179404 0.5829722794660899
vn -0.5709212367062557 0.5780936423565297 0.5829722824841334
vn -0.6414933096298066 0.4986277734458008 0.5829722782848946
vn -0.7010892696345182 0.41063025984549195 0.5829722340751413
vn -0.7486892340918186 0.3156068324347487 0.582972347607938
vn -0.7834791690935866 0.2151830833579709 0.5829722396761101
vn -0.8048635110575945 0.11107767353195964 0.5829721082614235
vn -0.8124763371491324 0.0050716041599347264 0.5829721094563395
vn -0.8061874371314873 -0.10102117634321804 0.5829721589763931
vn -0.7861043887153466 -0.20538547834451057 0.5829722937907662
vn -0.7525709308809421 -0.3062355831574299 0.5829723506318469
vn -0.706160850125975 -0.4018460252570059 0.5829722341025393
vn -0.6476681136179404 -0.4905806110892374 0.5829722794660899
vn -0.5780936423565297 -0.5709212367062557 0.5829722824841334
vn -0.4986277734458008 -0.6414933096298066 0.5829722782848946
vn -0.48285317310418463 -0.7226408107426402 0.4946140635611163
vn 0.21242247431489783 0.01392280583864884 0.9770787316708495
vn 0.3170747127563073 0.03432928734674569 0.947779049441783
vn 0.3098812105205089 0.07542207096752943 0.9477790600014927
vn 0.29738557254683823 0.11522448030338314 0.9477790567320026
vn 0.27980160661675607 0.15305528016518377 0.9477790576649386
vn 0.2574301334694566 0.18826736309830672 0.9477790493432043
vn 0.23065397159611772 0.22025802747029483 0.9477790600777336
vn 0.19993123390439457 0.2484800961897845 0.9477790583817423
vn 0.16578765330451936 0.2724505384116123 0.9477790660966315
vn 0.12880735034045776 0.2917593702790905 0.9477790546074646
vn 0.08962322203047461 0.3060759664273673 0.9477790780811896
vn 0.048905443556508194 0.31515568595560345 0.9477790624403951
vn 0.007351069748501912 0.3188429193008848 0.9477790642260686
vn -0.03432928734674569 0.3170747127563073 0.947779049441783
vn -0.07542207096752943 0.3098812105205089 0.9477790600014927
vn -0.11522448030338314 0.29738557254683823 0.9477790567320026
vn -0.15305528016518377 0.27980160661675607 0.9477790576649386
vn -0.18826736309830672 0.2574301334694566 0.9477790493432043
vn -0.22025802747029483 0.23065397159611772 0.9477790600777336
vn -0.2484800961897845 0.19993123390439457 0.9477790583817423
vn -0.2724505384116123 0.16578765330451936 0.9477790660966315
vn -0.2917593702790905 0.12880735034045776 0.9477790546074646
vn -0.3060759664273673 0.08962322203047461 0.9477790780811896
vn -0.31515568595560345 0.048905443556508194 0.9477790624403951
vn -0.3188429193008848 0.007351069748501912 0.9477790642260686
vn -0.3170747127563073 -0.03432928734674569 0.947779049441783
vn -0.3098812105205089 -0.07542207096752943 0.9477790600014927
vn -0.29738557254683823 -0.11522448030338314 0.9477790567320026
vn -0.27980160661675607 -0.15305528016518377 0.9477790576649386
vn -0.2574301334694566 -0.18826736309830672 0.9477790493432043
vn -0.23065397159611772 -0.22025802747029483 0.9477790600777336
vn -0.19993123390439457 -0.2484800961897845 0.9477790583817423
vn -0.2309785815280148 -0.3456838476849496 0.909478736598627
vn -0.4030634552622543 -0.02641810721895213 0.9147906507190707
vn -0.29471343564100394 -0.04493690252888582 0.954528504364215
vn -0.28632667663882844 -0.08302021772588425 0.9545285106761927
vn -0.27304079913285895 -0.11968316043380542 0.9545285030408814
vn -0.255083168692819 -0.1542981982873997 0.9545284925317279
vn -0.23276090291397508 -0.18627321455591117 0.9545284970149809
vn -0.20645609012571492 -0.2150610336756706 0.9545284881261296
vn -0.17661870667121873 -0.24016908826835895 0.9545284917141716
vn -0.14375939650559794 -0.2611677589467523 0.9545284896759642
vn -0.10844024829561642 -0.2776977968199114 0.954528494174455
vn -0.07126571200440586 -0.2894763037190539 0.9545285055343603
vn -0.03287172732741651 -0.2963017859808191 0.95452852297199
vn 0.006084559986342007 -0.29805752808237973 0.9545285161183997
vn 0.04493690252888582 -0.29471343564100394 0.954528504364215
vn 0.08302021772588425 -0.28632667663882844 0.9545285106761927
vn 0.11968316043380542 -0.27304079913285895 0.9545285030408814
vn 0.1542981982873997 -0.255083168692819 0.9545284925317279
vn 0.18627321455591117 -0.23276090291397508 0.9545284970149809
vn 0.2150610336756706 -0.20645609012571492 0.9545284881261296
vn 0.24016908826835895 -0.17661870667121873 0.9545284917141716
vn 0.2611677589467523 -0.14375939650559794 0.9545284896759642
vn 0.2776977968199114 -0.10844024829561642 0.954528494174455
vn 0.2894763037190539 -0.07126571200440586 0.9545285055343603
vn 0.2963017859808191 -0.03287172732741651 0.95452852297199
vn 0.29805752808237973 0.006084559986342007 0.9545285161183997
vn 0.29471343564100394 0.04493690252888582 0.954528504364215
vn 0.28632667663882844 0.08302021772588425 0.9545285106761927
vn 0.27304079913285895 0.11968316043380542 0.9545285030408814
vn 0.255083168692819 0.1542981982873997 0.9545284925317279
vn 0.23276090291397508 0.18627321455591117 0.9545284970149809
vn 0.20645609012571492 0.2150610336756706 0.9545284881261296
vn 0.17661870667121873 0.24016908826835895 0.9545284917141716
vn 0.10961526719371206 0.16405089329840902 0.9803426939627006
vn -0.8647602805302914 -0.056679155734896465 0.49897608211451516
vn -0.7971329112827693 -0.10795953151643034 0.5940739527235726
vn -0.7762218851534849 -0.2110827453647416 0.5940737829748537
vn -0.7420293004484148 -0.31059416759198527 0.5940738845748715
vn -0.6951404096404997 -0.4047912588838589 0.594073941202658
vn -0.6363575403157894 -0.4920621471506628 0.5940740056800313
vn -0.5666863862052457 -0.5709139051986207 0.5940739453472937
vn -0.48731906026690475 -0.6399971352407527 0.5940739014501568
vn -0.39961368044105566 -0.6981297766089998 0.594073834987051
vn -0.3050706587622023 -0.7443172695088303 0.5940738131523011
vn -0.20530782299672476 -0.7777691950624989 0.594073881792642
vn -0.10203214720801239 -0.7979133118178242 0.5940738908250675
vn 0.002989304197128773 -0.8044048400173179 0.5940739999504527
vn 0.10795953151643034 -0.7971329112827693 0.5940739527235726
vn 0.2110827453647416 -0.7762218851534849 0.5940737829748537
vn 0.31059416759198527 -0.7420293004484148 0.5940738845748715
vn 0.4047912588838589 -0.6951404096404997 0.594073941202658
vn 0.4920621471506628 -0.6363575403157894 0.5940740056800313
vn 0.5709139051986207 -0.5666863862052457 0.5940739453472937
vn 0.6399971352407527 -0.48731906026690475 0.5940739014501568
vn 0.6981297766089998 -0.39961368044105566 0.594073834987051
vn 0.7443172695088303 -0.3050706587622023 0.5940738131523011
vn 0.7777691950624989 -0.20530782299672476 0.594073881792642
vn 0.7979133118178242 -0.10203214720801239 0.5940738908250675
vn 0.8044048400173179 0.002989304197128773 0.5940739999504527
vn 0.7971329112827693 0.10795953151643034 0.5940739527235726
vn 0.7762218851534849 0.2110827453647416 0.5940737829748537
vn 0.7420293004484148 0.31059416759198527 0.5940738845748715
vn 0.6951404096404997 0.4047912588838589 0.594073941202658
vn 0.6363575403157894 0.4920621471506628 0.5940740056800313
vn 0.5666863862052457 0.5709139051986207 0.5940739453472937
vn 0.48731906026690475 0.6399971352407527 0.5940739014501568
vn 0.40937317358918546 0.6126704952914116 0.6760535991656983
vn -0.9917620007117943 -0.06500343353100238 -0.11037521267621428
vn -0.9914448723602609 -0.13052610876964332 -3.303331252840219e-8
vn -0.9659258669923884 -0.2588188931956016 8.217524748588761e-8
vn -0.9238795305660374 -0.38268343706133684 -1.3080245704544918e-8
vn -0.8660253740889591 -0.5000000514340662 -9.805206797252142e-8
vn -0.7933533829632158 -0.6087613733975055 -6.451595203287347e-8
vn -0.7071067811865476 -0.7071067811865476 -5.2095426642595025e-9
vn -0.6087613733975056 -0.7933533829632159 5.9446599068671526e-8
vn -0.5000001219471155 -0.8660253333782215 1.0047413267548898e-7
vn -0.38268346249921026 -0.9238795200293245 2.011535505980893e-8
vn -0.2588189210015489 -0.9659258595418119 -7.635845987699576e-8
vn -0.13052610876964332 -0.9914448723602609 3.554649859817952e-8
vn 1.2277281413730634e-9 -1 7.442173544092157e-9
vn 0.13052610876964332 -0.9914448723602609 -3.303331252840219e-8
vn 0.2588188931956016 -0.9659258669923884 8.217524748588761e-8
vn 0.38268343706133684 -0.9238795305660374 -1.3080245704544918e-8
vn 0.5000000514340662 -0.8660253740889591 -9.805206797252142e-8
vn 0.6087613733975055 -0.7933533829632158 -6.451595203287347e-8
vn 0.7071067811865476 -0.7071067811865476 -5.2095426642595025e-9
vn 0.7933533829632159 -0.6087613733975056 5.9446599068671526e-8
vn 0.8660253333782215 -0.5000001219471155 1.0047413267548898e-7
vn 0.9238795200293245 -0.38268346249921026 2.011535505980893e-8
vn 0.9659258595418119 -0.2588189210015489 -7.635845987699576e-8
vn 0.9914448723602609 -0.13052610876964332 3.554649859817952e-8
vn 1 1.2277281413730634e-9 7.442173544092157e-9
vn 0.9914448723602609 0.13052610876964332 -3.303331252840219e-8
vn 0.9659258669923884 0.2588188931956016 8.217524748588761e-8
vn 0.9238795305660374 0.38268343706133684 -1.3080245704544918e-8
vn 0.8660253740889591 0.5000000514340662 -9.805206797252142e-8
vn 0.7933533829632158 0.6087613733975055 -6.451595203287347e-8
vn 0.7071067811865476 0.7071067811865476 -5.2095426642595025e-9
vn 0.6087613733975056 0.7933533829632159 5.9446599068671526e-8
vn 0.5521757026852929 0.8263893157684407 0.11037523339849173
vn -0.7352748072126902 -0.04819222641223479 -0.6760535978691136
vn -0.7979133406781588 -0.10203214344790999 -0.5940738527079318
vn -0.7777691974419475 -0.2053078087236671 -0.5940738836101069
vn -0.7443172429256464 -0.30507067229659074 -0.594073839508247
vn -0.6981297766089998 -0.39961368044105566 -0.594073834987051
vn -0.6399971259459206 -0.48731908299177545 -0.5940738928222788
vn -0.5709139051986207 -0.5666863862052457 -0.5940739453472937
vn -0.4920621471506628 -0.6363575403157894 -0.5940740056800313
vn -0.40479127321734165 -0.6951404342551198 -0.5940739026339125
vn -0.3105942214466431 -0.7420292867113331 -0.5940738735768673
vn -0.21108274018209194 -0.7762218064905035 -0.5940738875980317
vn -0.10795954624391463 -0.7971329100004038 -0.5940739517678724
vn -0.0029893060222812157 -0.8044048895329012 -0.5940739328947756
vn 0.10203214344790999 -0.7979133406781588 -0.5940738527079318
vn 0.2053078087236671 -0.7777691974419475 -0.5940738836101069
vn 0.30507067229659074 -0.7443172429256464 -0.594073839508247
vn 0.39961368044105566 -0.6981297766089998 -0.594073834987051
vn 0.48731908299177545 -0.6399971259459206 -0.5940738928222788
vn 0.5666863862052457 -0.5709139051986207 -0.5940739453472937
vn 0.6363575403157894 -0.4920621471506628 -0.5940740056800313
vn 0.6951404342551198 -0.40479127321734165 -0.5940739026339125
vn 0.7420292867113331 -0.3105942214466431 -0.5940738735768673
vn 0.7762218064905035 -0.21108274018209194 -0.5940738875980317
vn 0.7971329100004038 -0.10795954624391463 -0.5940739517678724
vn 0.8044048895329012 -0.0029893060222812157 -0.5940739328947756
vn 0.7979133406781588 0.10203214344790999 -0.5940738527079318
vn 0.7777691974419475 0.2053078087236671 -0.5940738836101069
vn 0.7443172429256464 0.30507067229659074 -0.594073839508247
vn 0.6981297766089998 0.39961368044105566 -0.594073834987051
vn 0.6399971259459206 0.48731908299177545 -0.5940738928222788
vn 0.5709139051986207 0.5666863862052457 -0.5940739453472937
vn 0.4920621471506628 0.6363575403157894 -0.5940740056800313
vn 0.4814659037049144 0.7205647197225148 -0.4989760197252206
vn -0.1968798082511864 -0.012904207491994635 -0.9803427066755683
vn -0.29630181316665405 -0.03287172703714331 -0.9545285145430432
vn -0.2894763037190539 -0.07126571200440586 -0.9545285055343603
vn -0.27769776998891865 -0.108440227104171 -0.9545285043877827
vn -0.2611677317366736 -0.14375938303133334 -0.9545284991502199
vn -0.24016908826835895 -0.17661870667121873 -0.9545284917141716
vn -0.21506101946370695 -0.2064560907873363 -0.9545284911850678
vn -0.1862732276478929 -0.23276093045560584 -0.9545284877441201
vn -0.15429818491399025 -0.25508314141615 -0.9545285019827938
vn -0.11968315945991358 -0.2730408267133795 -0.954528495273644
vn -0.08302021772588425 -0.28632667663882844 -0.9545285106761927
vn -0.04493690292357313 -0.2947134084271922 -0.9545285127479768
vn -0.006084560917630108 -0.2980575280806908 -0.9545285161129908
vn 0.03287172703714331 -0.29630181316665405 -0.9545285145430432
vn 0.07126571200440586 -0.2894763037190539 -0.9545285055343603
vn 0.108440227104171 -0.27769776998891865 -0.9545285043877827
vn 0.14375938303133334 -0.2611677317366736 -0.9545284991502199
vn 0.17661870667121873 -0.24016908826835895 -0.9545284917141716
vn 0.2064560907873363 -0.21506101946370695 -0.9545284911850678
vn 0.23276093045560584 -0.1862732276478929 -0.9545284877441201
vn 0.25508314141615 -0.15429818491399025 -0.9545285019827938
vn 0.2730408267133795 -0.11968315945991358 -0.954528495273644
vn 0.28632667663882844 -0.08302021772588425 -0.9545285106761927
vn 0.2947134084271922 -0.04493690292357313 -0.9545285127479768
vn 0.2980575280806908 -0.006084560917630108 -0.9545285161129908
vn 0.29630181316665405 0.03287172703714331 -0.9545285145430432
vn 0.2894763037190539 0.07126571200440586 -0.9545285055343603
vn 0.27769776998891865 0.108440227104171 -0.9545285043877827
vn 0.2611677317366736 0.14375938303133334 -0.9545284991502199
vn 0.24016908826835895 0.17661870667121873 -0.9545284917141716
vn 0.21506101946370695 0.2064560907873363 -0.9545284911850678
vn 0.1862732276478929 0.23276093045560584 -0.9545284877441201
vn 0.22441050218922065 0.3358541996451906 -0.9147906225404097
vn 0.41486035827069834 0.027191388729140665 -0.9094787031670882
vn 0.3151557127978663 0.048905443097170084 -0.9477790535385018
vn 0.30607596683612864 0.08962320724900401 -0.947779079346939
vn 0.2917593702790905 0.12880735034045776 -0.9477790546074646
vn 0.2724505384116123 0.16578765330451936 -0.9477790660966315
vn 0.2484800961897845 0.19993123390439457 -0.9477790583817423
vn 0.22025801404907192 0.23065395824474633 -0.9477790664459674
vn 0.18826736454269682 0.25743010564214225 -0.9477790566145798
vn 0.15305526688938362 0.2798015797857694 -0.9477790677298202
vn 0.11522448030338314 0.29738557254683823 -0.9477790567320026
vn 0.07542206425586764 0.3098811837541288 -0.9477790692869955
vn 0.034329283950242394 0.31707468599075184 -0.9477790585190885
vn -0.0073510692828657855 0.3188429193019762 -0.9477790642293128
vn -0.048905443097170084 0.3151557127978663 -0.9477790535385018
vn -0.08962320724900401 0.30607596683612864 -0.947779079346939
vn -0.12880735034045776 0.2917593702790905 -0.9477790546074646
vn -0.16578765330451936 0.2724505384116123 -0.9477790660966315
vn -0.19993123390439457 0.2484800961897845 -0.9477790583817423
vn -0.23065395824474633 0.22025801404907192 -0.9477790664459674
vn -0.25743010564214225 0.18826736454269682 -0.9477790566145798
vn -0.2798015797857694 0.15305526688938362 -0.9477790677298202
vn -0.29738557254683823 0.11522448030338314 -0.9477790567320026
vn -0.3098811837541288 0.07542206425586764 -0.9477790692869955
vn -0.31707468599075184 0.034329283950242394 -0.9477790585190885
vn -0.3188429193019762 -0.0073510692828657855 -0.9477790642293128
vn -0.3151557127978663 -0.048905443097170084 -0.9477790535385018
vn -0.30607596683612864 -0.08962320724900401 -0.947779079346939
vn -0.2917593702790905 -0.12880735034045776 -0.9477790546074646
vn -0.2724505384116123 -0.16578765330451936 -0.9477790660966315
vn -0.2484800961897845 -0.19993123390439457 -0.9477790583817423
vn -0.22025801404907192 -0.23065395824474633 -0.9477790664459674
vn -0.18826736454269682 -0.25743010564214225 -0.9477790566145798
vn -0.11826880891391886 -0.17700184687323905 -0.9770787250992345
vn 0.8672518659084991 0.05684278858804248 -0.49461409044199495
vn 0.8048634614317771 0.1110776823596993 -0.5829721750938515
vn 0.7834791946227467 0.21518305909795554 -0.5829722143211784
vn 0.7486892340918186 0.3156068324347487 -0.582972347607938
vn 0.7010893157235194 0.4106302817316581 -0.5829721632319217
vn 0.6414933319203229 0.4986277907720463 -0.5829722389372849
vn 0.5709212367062557 0.5780936423565297 -0.5829722824841334
vn 0.49058062813586145 0.6476681361230183 -0.5829722401184804
vn 0.4018460252570059 0.706160850125975 -0.5829722341025393
vn 0.3062355530542813 0.7525709897463099 -0.5829722904545275
vn 0.20538550440294623 0.786104433990421 -0.5829722235593625
vn 0.10102117634321804 0.8061874371314873 -0.5829721589763931
vn -0.005071605091233347 0.812476337145295 -0.582972109453586
vn -0.1110776823596993 0.8048634614317771 -0.5829721750938515
vn -0.21518305909795554 0.7834791946227467 -0.5829722143211784
vn -0.3156068324347487 0.7486892340918186 -0.582972347607938
vn -0.4106302817316581 0.7010893157235194 -0.5829721632319217
vn -0.4986277907720463 0.6414933319203229 -0.5829722389372849
vn -0.5780936423565297 0.5709212367062557 -0.5829722824841334
vn -0.6476681361230183 0.49058062813586145 -0.5829722401184804
vn -0.706160850125975 0.4018460252570059 -0.5829722341025393
vn -0.7525709897463099 0.3062355530542813 -0.5829722904545275
vn -0.786104433990421 0.20538550440294623 -0.5829722235593625
vn -0.8061874371314873 0.10102117634321804 -0.5829721589763931
vn -0.812476337145295 -0.005071605091233347 -0.582972109453586
vn -0.8048634614317771 -0.1110776823596993 -0.5829721750938515
vn -0.7834791946227467 -0.21518305909795554 -0.5829722143211784
vn -0.7486892340918186 -0.3156068324347487 -0.582972347607938
vn -0.7010893157235194 -0.4106302817316581 -0.5829721632319217
vn -0.6414933319203229 -0.4986277907720463 -0.5829722389372849
vn -0.5709212367062557 -0.5780936423565297 -0.5829722824841334
vn -0.49058062813586145 -0.6476681361230183 -0.5829722401184804
vn -0.4142269722825909 -0.6199343103706906 -0.6664063822164475
vn 0.9492143504715844 0.062214405079643556 -0.30841771132571844
vn 0.9453828891482141 0.10391959504716802 -0.3089529263027106
vn 0.9237309158124449 0.22642749694739703 -0.3089527209759418
vn 0.8862733247331022 0.34506171951237974 -0.3089530766859151
vn 0.8336516601531785 0.4577915361020844 -0.30895277794048615
vn 0.7667658923650356 0.5626884101789488 -0.30895277852114855
vn 0.6867606131230417 0.6579575026337386 -0.3089527229056861
vn 0.5950043913868915 0.7419689442796576 -0.3089528442252074
vn 0.49306792329701676 0.8132848790575808 -0.3089526315017614
vn 0.3826944480607624 0.8706853277341918 -0.308953102415029
vn 0.2657733028588791 0.91318824141342 -0.3089527265323091
vn 0.1443043671683707 0.9400661138160068 -0.3089529920085041
vn 0.020366906724483214 0.9508593493937788 -0.30895256396559617
vn -0.10391959504716802 0.9453828891482141 -0.3089529263027106
vn -0.22642749694739703 0.9237309158124449 -0.3089527209759418
vn -0.34506171951237974 0.8862733247331022 -0.3089530766859151
vn -0.4577915361020844 0.8336516601531785 -0.30895277794048615
vn -0.5626884101789488 0.7667658923650356 -0.30895277852114855
vn -0.6579575026337386 0.6867606131230417 -0.3089527229056861
vn -0.7419689442796576 0.5950043913868915 -0.3089528442252074
vn -0.8132848790575808 0.49306792329701676 -0.3089526315017614
vn -0.8706853277341918 0.3826944480607624 -0.308953102415029
vn -0.91318824141342 0.2657733028588791 -0.3089527265323091
vn -0.9400661138160068 0.1443043671683707 -0.3089529920085041
vn -0.9508593493937788 0.020366906724483214 -0.30895256396559617
vn -0.9453828891482141 -0.10391959504716802 -0.3089529263027106
vn -0.9237309158124449 -0.22642749694739703 -0.3089527209759418
vn -0.8862733247331022 -0.34506171951237974 -0.3089530766859151
vn -0.8336516601531785 -0.4577915361020844 -0.30895277794048615
vn -0.7667658923650356 -0.5626884101789488 -0.30895277852114855
vn -0.6867606131230417 -0.6579575026337386 -0.3089527229056861
vn -0.5950043913868915 -0.7419689442796576 -0.3089528442252074
vn -0.5284866584898565 -0.7909362157884808 -0.308418148545807
f 34/34/34 1/1/1 35/35/35
f 1/1/1 2/2/2 35/35/35
f 35/35/35 2/2/2 36/36/36
f 2/2/2 3/3/3 36/36/36
f 36/36/36 3/3/3 37/37/37
f 3/3/3 4/4/4 37/37/37
f 37/37/37 4/4/4 38/38/38
f 4/4/4 5/5/5 38/38/38
f 38/38/38 5/5/5 39/39/39
f 5/5/5 6/6/6 39/39/39
f 39/39/39 6/6/6 40/40/40
f 6/6/6 7/7/7 40/40/40
f 40/40/40 7/7/7 41/41/41
f 7/7/7 8/8/8 41/41/41
f 41/41/41 8/8/8 42/42/42
f 8/8/8 9/9/9 42/42/42
f 42/42/42 9/9/9 43/43/43
f 9/9/9 10/10/10 43/43/43
f 43/43/43 10/10/10 44/44/44
f 10/10/10 11/11/11 44/44/44
f 44/44/44 11/11/11 45/45/45
f 11/11/11 12/12/12 45/45/45
f 45/45/45 12/12/12 46/46/46
f 12/12/12 13/13/13 46/46/46
f 46/46/46 13/13/13 47/47/47
f 13/13/13 14/14/14 47/47/47
f 47/47/47 14/14/14 48/48/48
f 14/14/14 15/15/15 48/48/48
f 48/48/48 15/15/15 49/49/49
f 15/15/15 16/16/16 49/49/49
f 49/49/49 16/16/16 50/50/50
f 16/16/16 17/17/17 50/50/50
f 50/50/50 17/17/17 51/51/51
f 17/17/17 18/18/18 51/51/51
f 51/51/51 18/18/18 52/52/52
f 18/18/18 19/19/19 52/52/52
f 52/52/52 19/19/19 53/53/53
f 19/19/19 20/20/20 53/53/53
f 53/53/53 20/20/20 54/54/54
f 20/20/20 21/21/21 54/54/54
f 54/54/54 21/21/21 55/55/55
f 21/21/21 22/22/22 55/55/55
f 55/55/55 22/22/22 56/56/56
f 22/22/22 23/23/23 56/56/56
f 56/56/56 23/23/23 57/57/57
f 23/23/23 24/24/24 57/57/57
f 57/57/57 24/24/24 58/58/58
f 24/24/24 25/25/25 58/58/58
f 58/58/58 25/25/25 59/59/59
f 25/25/25 26/26/26 59/59/59
f 59/59/59 26/26/26 60/60/60
f 26/26/26 27/27/27 60/60/60
f 60/60/60 27/27/27 61/61/61
f 27/27/27 28/28/28 61/61/61
f 61/61/61 28/28/28 62/62/62
f 28/28/28 29/29/29 62/62/62
f 62/62/62 29/29/29 63/63/63
f 29/29/29 30/30/30 63/63/63
f 63/63/63 30/30/30 64/64/64
f 30/30/30 31/31/31 64/64/64
f 64/64/64 31/31/31 65/65/65
f 31/31/31 32/32/32 65/65/65
f 65/65/65 32/32/32 66/66/66
f 32/32/32 33/33/33 66/66/66
f 67/67/67 34/34/34 68/68/68
f 34/34/34 35/35/35 68/68/68
f 68/68/68 35/35/35 69/69/69
f 35/35/35 36/36/36 69/69/69
f 69/69/69 36/36/36 70/70/70
f 36/36/36 37/37/37 70/70/70
f 70/70/70 37/37/37 71/71/71
f 37/37/37 38/38/38 71/71/71
f 71/71/71 38/38/38 72/72/72
f 38/38/38 39/39/39 72/72/72
f 72/72/72 39/39/39 73/73/73
f 39/39/39 40/40/40 73/73/73
f 73/73/73 40/40/40 74/74/74
f 40/40/40 41/41/41 74/74/74
f 74/74/74 41/41/41 75/75/75
f 41/41/41 42/42/42 75/75/75
f 75/75/75 42/42/42 76/76/76
f 42/42/42 43/43/43 76/76/76
f 76/76/76 43/43/43 77/77/77
f 43/43/43 44/44/44 77/77/77
f 77/77/77 44/44/44 78/78/78
f 44/44/44 45/45/45 78/78/78
f 78/78/78 45/45/45 79/79/79
f 45/45/45 46/46/46 79/79/79
f 79/79/79 46/46/46 80/80/80
f 46/46/46 47/47/47 80/80/80
f 80/80/80 47/47/47 81/81/81
f 47/47/47 48/48/48 81/81/81
f 81/81/81 48/48/48 82/82/82
f 48/48/48 49/49/49 82/82/82
f 82/82/82 49/49/49 83/83/83
f 49/49/49 50/50/50 83/83/83
f 83/83/83 50/50/50 84/84/84
f 50/50/50 51/51/51 84/84/84
f 84/84/84 51/51/51 85/85/85
f 51/51/51 52/52/52 85/85/85
f 85/85/85 52/52/52 86/86/86
f 52/52/52 53/53/53 86/86/86
f 86/86/86 53/53/53 87/87/87
f 53/53/53 54/54/54 87/87/87
f 87/87/87 54/54/54 88/88/88
f 54/54/54 55/55/55 88/88/88
f 88/88/88 55/55/55 89/89/89
f 55/55/55 56/56/56 89/89/89
f 89/89/89 56/56/56 90/90/90
f 56/56/56 57/57/57 90/90/90
f 90/90/90 57/57/57 91/91/91
f 57/57/57 58/58/58 91/91/91
f 91/91/91 58/58/58 92/92/92
f 58/58/58 59/59/59 92/92/92
f 92/92/92 59/59/59 93/93/93
f 59/59/59 60/60/60 93/93/93
f 93/93/93 60/60/60 94/94/94
f 60/60/60 61/61/61 94/94/94
f 94/94/94 61/61/61 95/95/95
f 61/61/61 62/62/62 95/95/95
f 95/95/95 62/62/62 96/96/96
f 62/62/62 63/63/63 96/96/96
f 96/96/96 63/63/63 97/97/97
f 63/63/63 64/64/64 97/97/97
f 97/97/97 64/64/64 98/98/98
f 64/64/64 65/65/65 98/98/98
f 98/98/98 65/65/65 99/99/99
f 65/65/65 66/66/66 99/99/99
f 100/100/100 67/67/67 101/101/101
f 67/67/67 68/68/68 101/101/101
f 101/101/101 68/68/68 102/102/102
f 68/68/68 69/69/69 102/102/102
f 102/102/102 69/69/69 103/103/103
f 69/69/69 70/70/70 103/103/103
f 103/103/103 70/70/70 104/104/104
f 70/70/70 71/71/71 104/104/104
f 104/104/104 71/71/71 105/105/105
f 71/71/71 72/72/72 105/105/105
f 105/105/105 72/72/72 106/106/106
f 72/72/72 73/73/73 106/106/106
f 106/106/106 73/73/73 107/107/107
f 73/73/73 74/74/74 107/107/107
f 107/107/107 74/74/74 108/108/108
f 74/74/74 75/75/75 108/108/108
f 108/108/108 75/75/75 109/109/109
f 75/75/75 76/76/76 109/109/109
f 109/109/109 76/76/76 110/110/110
f 76/76/76 77/77/77 110/110/110
f 110/110/110 77/77/77 111/111/111
f 77/77/77 78/78/78 111/111/111
f 111/111/111 78/78/78 112/112/112
f 78/78/78 79/79/79 112/112/112
f 112/112/112 79/79/79 113/113/113
f 79/79/79 80/80/80 113/113/113
f 113/113/113 80/80/80 114/114/114
f 80/80/80 81/81/81 114/114/114
f 114/114/114 81/81/81 115/115/115
f 81/81/81 82/82/82 115/115/115
f 115/115/115 82/82/82 116/116/116
f 82/82/82 83/83/83 116/116/116
f 116/116/116 83/83/83 117/117/117
f 83/83/83 84/84/84 117/117/117
f 117/117/117 84/84/84 118/118/118
f 84/84/84 85/85/85 118/118/118
f 118/118/118 85/85/85 119/119/119
f 85/85/85 86/86/86 119/119/119
f 119/119/119 86/86/86 120/120/120
f 86/86/86 87/87/87 120/120/120
f 120/120/120 87/87/87 121/121/121
f 87/87/87 88/88/88 121/121/121
f 121/121/121 88/88/88 122/122/122
f 88/88/88 89/89/89 122/122/122
f 122/122/122 89/89/89 123/123/123
f 89/89/89 90/90/90 123/123/123
f 123/123/123 90/90/90 124/124/124
f 90/90/90 91/91/91 124/124/124
f 124/124/124 91/91/91 125/125/125
f 91/91/91 92/92/92 125/125/125
f 125/125/125 92/92/92 126/126/126
f 92/92/92 93/93/93 126/126/126
f 126/126/126 93/93/93 127/127/127
f 93/93/93 94/94/94 127/127/127
f 127/127/127 94/94/94 128/128/128
f 94/94/94 95/95/95 128/128/128
f 128/128/128 95/95/95 129/129/129
f 95/95/95 96/96/96 129/129/129
f 129/129/129 96/96/96 130/130/130
f 96/96/96 97/97/97 130/130/130
f 130/130/130 97/97/97 131/131/131
f 97/97/97 98/98/98 131/131/131
f 131/131/131 98/98/98 132/132/132
f 98/98/98 99/99/99 132/132/132
f 133/133/133 100/100/100 134/134/134
f 100/100/100 101/101/101 134/134/134
f 134/134/134 101/101/101 135/135/135
f 101/101/101 102/102/102 135/135/135
f 135/135/135 102/102/102 136/136/136
f 102/102/102 103/103/103 136/136/136
f 136/136/136 103/103/103 137/137/137
f 103/103/103 104/104/104 137/137/137
f 137/137/137 104/104/104 138/138/138
f 104/104/104 105/105/105 138/138/138
f 138/138/138 105/105/105 139/139/139
f 105/105/105 106/106/106 139/139/139
f 139/139/139 106/106/106 140/140/140
f 106/106/106 107/107/107 140/140/140
f 140/140/140 107/107/107 141/141/141
f 107/107/107 108/108/108 141/141/141
f 141/141/141 108/108/108 142/142/142
f 108/108/108 109/109/109 142/142/142
f 142/142/142 109/109/109 143/143/143
f 109/109/109 110/110/110 143/143/143
f 143/143/143 110/110/110 144/144/144
f 110/110/110 111/111/111 144/144/144
f 144/144/144 111/111/111 145/145/145
f 111/111/111 112/112/112 145/145/145
f 145/145/145 112/112/112 146/146/146
f 112/112/112 113/113/113 146/146/146
f 146/146/146 113/113/113 147/147/147
f 113/113/113 114/114/114 147/147/147
f 147/147/147 114/114/114 148/148/148
f 114/114/114 115/115/115 148/148/148
f 148/148/148 115/115/115 149/149/149
f 115/115/115 116/116/116 149/149/149
f 149/149/149 116/116/116 150/150/150
f 116/116/116 117/117/117 150/150/150
f 150/150/150 117/117/117 151/151/151
f 117/117/117 118/118/118 151/151/151
f 151/151/151 118/118/118 152/152/152
f 118/118/118 119/119/119 152/152/152
f 152/152/152 119/119/119 153/153/153
f 119/119/119 120/120/120 153/153/153
f 153/153/153 120/120/120 154/154/154
f 120/120/120 121/121/121 154/154/154
f 154/154/154 121/121/121 155/155/155
f 121/121/121 122/122/122 155/155/155
f 155/155/155 122/122/122 156/156/156
f 122/122/122 123/123/123 156/156/156
f 156/156/156 123/123/123 157/157/157
f 123/123/123 124/124/124 157/157/157
f 157/157/157 124/124/124 158/158/158
f 124/124/124 125/125/125 158/158/158
f 158/158/158 125/125/125 159/159/159
f 125/125/125 126/126/126 159/159/159
f 159/159/159 126/126/126 160/160/160
f 126/126/126 127/127/127 160/160/160
f 160/160/160 127/127/127 161/161/161
f 127/127/127 128/128/128 161/161/161
f 161/161/161 128/128/128 162/162/162
f 128/128/128 129/129/129 162/162/162
f 162/162/162 129/129/129 163/163/163
f 129/129/129 130/130/130 163/163/163
f 163/163/163 130/130/130 164/164/164
f 130/130/130 131/131/131 164/164/164
f 164/164/164 131/131/131 165/165/165
f 131/131/131 132/132/132 165/165/165
f 166/166/166 133/133/133 167/167/167
f 133/133/133 134/134/134 167/167/167
f 167/167/167 134/134/134 168/168/168
f 134/134/134 135/135/135 168/168/168
f 168/168/168 135/135/135 169/169/169
f 135/135/135 136/136/136 169/169/169
f 169/169/169 136/136/136 170/170/170
f 136/136/136 137/137/137 170/170/170
f 170/170/170 137/137/137 171/171/171
f 137/137/137 138/138/138 171/171/171
f 171/171/171 138/138/138 172/172/172
f 138/138/138 139/139/139 172/172/172
f 172/172/172 139/139/139 173/173/173
f 139/139/139 140/140/140 173/173/173
f 173/173/173 140/140/140 174/174/174
f 140/140/140 141/141/141 174/174/174
f 174/174/174 141/141/141 175/175/175
f 141/141/141 142/142/142 175/175/175
f 175/175/175 142/142/142 176/176/176
f 142/142/142 143/143/143 176/176/176
f 176/176/176 143/143/143 177/177/177
f 143/143/143 144/144/144 177/177/177
f 177/177/177 144/144/144 178/178/178
f 144/144/144 145/145/145 178/178/178
f 178/178/178 145/145/145 179/179/179
f 145/145/145 146/146/146 179/179/179
f 179/179/179 146/146/146 180/180/180
f 146/146/146 147/147/147 180/180/180
f 180/180/180 147/147/147 181/181/181
f 147/147/147 148/148/148 181/181/181
f 181/181/181 148/148/148 182/182/182
f 148/148/148 149/149/149 182/182/182
f 182/182/182 149/149/149 183/183/183
f 149/149/149 150/150/150 183/183/183
f 183/183/183 150/150/150 184/184/184
f 150/150/150 151/151/151 184/184/184
f 184/184/184 151/151/151 185/185/185
f 151/151/151 152/152/152 185/185/185
f 185/185/185 152/152/152 186/186/186
f 152/152/152 153/153/153 186/186/186
f 186/186/186 153/153/153 187/187/187
f 153/153/153 154/154/154 187/187/187
f 187/187/187 154/154/154 188/188/188
f 154/154/154 155/155/155 188/188/188
f 188/188/188 155/155/155 189/189/189
f 155/155/155 156/156/156 189/189/189
f 189/189/189 156/156/156 190/190/190
f 156/156/156 157/157/157 190/190/190
f 190/190/190 157/157/157 191/191/191
f 157/157/157 158/158/158 191/191/191
f 191/191/191 158/158/158 192/192/192
f 158/158/158 159/159/159 192/192/192
f 192/192/192 159/159/159 193/193/193
f 159/159/159 160/160/160 193/193/193
f 193/193/193 160/160/160 194/194/194
f 160/160/160 161/161/161 194/194/194
f 194/194/194 161/161/161 195/195/195
f 161/161/161 162/162/162 195/195/195
f 195/195/195 162/162/162 196/196/196
f 162/162/162 163/163/163 196/196/196
f 196/196/196 163/163/163 197/197/197
f 163/163/163 164/164/164 197/197/197
f 197/197/197 164/164/164 198/198/198
f 164/164/164 165/165/165 198/198/198
f 199/199/199 166/166/166 200/200/200
f 166/166/166 167/167/167 200/200/200
f 200/200/200 167/167/167 201/201/201
f 167/167/167 168/168/168 201/201/201
f 201/201/201 168/168/168 202/202/202
f 168/168/168 169/169/169 202/202/202
f 202/202/202 169/169/169 203/203/203
f 169/169/169 170/170/170 203/203/203
f 203/203/203 170/170/170 204/204/204
f 170/170/170 171/171/171 204/204/204
f 204/204/204 171/171/171 205/205/205
f 171/171/171 172/172/172 205/205/205
f 205/205/205 172/172/172 206/206/206
f 172/172/172 173/173/173 206/206/206
f 206/206/206 173/173/173 207/207/207
f 173/173/173 174/174/174 207/207/207
f 207/207/207 174/174/174 208/208/208
f 174/174/174 175/175/175 208/208/208
f 208/208/208 175/175/175 209/209/209
f 175/175/175 176/176/176 209/209/209
f 209/209/209 176/176/176 210/210/210
f 176/176/176 177/177/177 210/210/210
f 210/210/210 177/177/177 211/211/211
f 177/177/177 178/178/178 211/211/211
f 211/211/211 178/178/178 212/212/212
f 178/178/178 179/179/179 212/212/212
f 212/212/212 179/179/179 213/213/213
f 179/179/179 180/180/180 213/213/213
f 213/213/213 180/180/180 214/214/214
f 180/180/180 181/181/181 214/214/214
f 214/214/214 181/181/181 215/215/215
f 181/181/181 182/182/182 215/215/215
f 215/215/215 182/182/182 216/216/216
f 182/182/182 183/183/183 216/216/216
f 216/216/216 183/183/183 217/217/217
f 183/183/183 184/184/184 217/217/217
f 217/217/217 184/184/184 218/218/218
f 184/184/184 185/185/185 218/218/218
f 218/218/218 185/185/185 219/219/219
f 185/185/185 186/186/186 219/219/219
f 219/219/219 186/186/186 220/220/220
f 186/186/186 187/187/187 220/220/220
f 220/220/220 187/187/187 221/221/221
f 187/187/187 188/188/188 221/221/221
f 221/221/221 188/188/188 222/222/222
f 188/188/188 189/189/189 222/222/222
f 222/222/222 189/189/189 223/223/223
f 189/189/189 190/190/190 223/223/223
f 223/223/223 190/190/190 224/224/224
f 190/190/190 191/191/191 224/224/224
f 224/224/224 191/191/191 225/225/225
f 191/191/191 192/192/192 225/225/225
f 225/225/225 192/192/192 226/226/226
f 192/192/192 193/193/193 226/226/226
f 226/226/226 193/193/193 227/227/227
f 193/193/193 194/194/194 227/227/227
f 227/227/227 194/194/194 228/228/228
f 194/194/194 195/195/195 228/228/228
f 228/228/228 195/195/195 229/229/229
f 195/195/195 196/196/196 229/229/229
f 229/229/229 196/196/196 230/230/230
f 196/196/196 197/197/197 230/230/230
f 230/230/230 197/197/197 231/231/231
f 197/197/197 198/198/198 231/231/231
f 232/232/232 199/199/199 233/233/233
f 199/199/199 200/200/200 233/233/233
f 233/233/233 200/200/200 234/234/234
f 200/200/200 201/201/201 234/234/234
f 234/234/234 201/201/201 235/235/235
f 201/201/201 202/202/202 235/235/235
f 235/235/235 202/202/202 236/236/236
f 202/202/202 203/203/203 236/236/236
f 236/236/236 203/203/203 237/237/237
f 203/203/203 204/204/204 237/237/237
f 237/237/237 204/204/204 238/238/238
f 204/204/204 205/205/205 238/238/238
f 238/238/238 205/205/205 239/239/239
f 205/205/205 206/206/206 239/239/239
f 239/239/239 206/206/206 240/240/240
f 206/206/206 207/207/207 240/240/240
f 240/240/240 207/207/207 241/241/241
f 207/207/207 208/208/208 241/241/241
f 241/241/241 208/208/208 242/242/242
f 208/208/208 209/209/209 242/242/242
f 242/242/242 209/209/209 243/243/243
f 209/209/209 210/210/210 243/243/243
f 243/243/243 210/210/210 244/244/244
f 210/210/210 211/211/211 244/244/244
f 244/244/244 211/211/211 245/245/245
f 211/211/211 212/212/212 245/245/245
f 245/245/245 212/212/212 246/246/246
f 212/212/212 213/213/213 246/246/246
f 246/246/246 213/213/213 247/247/247
f 213/213/213 214/214/214 247/247/247
f 247/247/247 214/214/214 248/248/248
f 214/214/214 215/215/215 248/248/248
f 248/248/248 215/215/215 249/249/249
f 215/215/215 216/216/216 249/249/249
f 249/249/249 216/216/216 250/250/250
f 216/216/216 217/217/217 250/250/250
f 250/250/250 217/217/217 251/251/251
f 217/217/217 218/218/218 251/251/251
f 251/251/251 218/218/218 252/252/252
f 218/218/218 219/219/219 252/252/252
f 252/252/252 219/219/219 253/253/253
f 219/219/219 220/220/220 253/253/253
f 253/253/253 220/220/220 254/254/254
f 220/220/220 221/221/221 254/254/254
f 254/254/254 221/221/221 255/255/255
f 221/221/221 222/222/222 255/255/255
f 255/255/255 222/222/222 256/256/256
f 222/222/222 223/223/223 256/256/256
f 256/256/256 223/223/223 257/257/257
f 223/223/223 224/224/224 257/257/257
f 257/257/257 224/224/224 258/258/258
f 224/224/224 225/225/225 258/258/258
f 258/258/258 225/225/225 259/259/259
f 225/225/225 226/226/226 259/259/259
f 259/259/259 226/226/226 260/260/260
f 226/226/226 227/227/227 260/260/260
f 260/260/260 227/227/227 261/261/261
f 227/227/227 228/228/228 261/261/261
f 261/261/261 228/228/228 262/262/262
f 228/228/228 229/229/229 262/262/262
f 262/262/262 229/229/229 263/263/263
f 229/229/229 230/230/230 263/263/263
f 263/263/263 230/230/230 264/264/264
f 230/230/230 231/231/231 264/264/264
f 265/265/265 232/232/232 266/266/266
f 232/232/232 233/233/233 266/266/266
f 266/266/266 233/233/233 267/267/267
f 233/233/233 234/234/234 267/267/267
f 267/267/267 234/234/234 268/268/268
f 234/234/234 235/235/235 268/268/268
f 268/268/268 235/235/235 269/269/269
f 235/235/235 236/236/236 269/269/269
f 269/269/269 236/236/236 270/270/270
f 236/236/236 237/237/237 270/270/270
f 270/270/270 237/237/237 271/271/271
f 237/237/237 238/238/238 271/271/271
f 271/271/271 238/238/238 272/272/272
f 238/238/238 239/239/239 272/272/272
f 272/272/272 239/239/239 273/273/273
f 239/239/239 240/240/240 273/273/273
f 273/273/273 240/240/240 274/274/274
f 240/240/240 241/241/241 274/274/274
f 274/274/274 241/241/241 275/275/275
f 241/241/241 242/242/242 275/275/275
f 275/275/275 242/242/242 276/276/276
f 242/242/242 243/243/243 276/276/276
f 276/276/276 243/243/243 277/277/277
f 243/243/243 244/244/244 277/277/277
f 277/277/277 244/244/244 278/278/278
f 244/244/244 245/245/245 278/278/278
f 278/278/278 245/245/245 279/279/279
f 245/245/245 246/246/246 279/279/279
f 279/279/279 246/246/246 280/280/280
f 246/246/246 247/247/247 280/280/280
f 280/280/280 247/247/247 281/281/281
f 247/247/247 248/248/248 281/281/281
f 281/281/281 248/248/248 282/282/282
f 248/248/248 249/249/249 282/282/282
f 282/282/282 249/249/249 283/283/283
f 249/249/249 250/250/250 283/283/283
f 283/283/283 250/250/250 284/284/284
f 250/250/250 251/251/251 284/284/284
f 284/284/284 251/251/251 285/285/285
f 251/251/251 252/252/252 285/285/285
f 285/285/285 252/252/252 286/286/286
f 252/252/252 253/253/253 286/286/286
f 286/286/286 253/253/253 287/287/287
f 253/253/253 254/254/254 287/287/287
f 287/287/287 254/254/254 288/288/288
f 254/254/254 255/255/255 288/288/288
f 288/288/288 255/255/255 289/289/289
f 255/255/255 256/256/256 289/289/289
f 289/289/289 256/256/256 290/290/290
f 256/256/256 257/257/257 290/290/290
f 290/290/290 257/257/257 291/291/291
f 257/257/257 258/258/258 291/291/291
f 291/291/291 258/258/258 292/292/292
f 258/258/258 259/259/259 292/292/292
f 292/292/292 259/259/259 293/293/293
f 259/259/259 260/260/260 293/293/293
f 293/293/293 260/260/260 294/294/294
f 260/260/260 261/261/261 294/294/294
f 294/294/294 261/261/261 295/295/295
f 261/261/261 262/262/262 295/295/295
f 295/295/295 262/262/262 296/296/296
f 262/262/262 263/263/263 296/296/296
f 296/296/296 263/263/263 297/297/297
f 263/263/263 264/264/264 297/297/297
f 298/298/298 265/265/265 299/299/299
f 265/265/265 266/266/266 299/299/299
f 299/299/299 266/266/266 300/300/300
f 266/266/266 267/267/267 300/300/300
f 300/300/300 267/267/267 301/301/301
f 267/267/267 268/268/268 301/301/301
f 301/301/301 268/268/268 302/302/302
f 268/268/268 269/269/269 302/302/302
f 302/302/302 269/269/269 303/303/303
f 269/269/269 270/270/270 303/303/303
f 303/303/303 270/270/270 304/304/304
f 270/270/270 271/271/271 304/304/304
f 304/304/304 271/271/271 305/305/305
f 271/271/271 272/272/272 305/305/305
f 305/305/305 272/272/272 306/306/306
f 272/272/272 273/273/273 306/306/306
f 306/306/306 273/273/273 307/307/307
f 273/273/273 274/274/274 307/307/307
f 307/307/307 274/274/274 308/308/308
f 274/274/274 275/275/275 308/308/308
f 308/308/308 275/275/275 309/309/309
f 275/275/275 276/276/276 309/309/309
f 309/309/309 276/276/276 310/310/310
f 276/276/276 277/277/277 310/310/310
f 310/310/310 277/277/277 311/311/311
f 277/277/277 278/278/278 311/311/311
f 311/311/311 278/278/278 312/312/312
f 278/278/278 279/279/279 312/312/312
f 312/312/312 279/279/279 313/313/313
f 279/279/279 280/280/280 313/313/313
f 313/313/313 280/280/280 314/314/314
f 280/280/280 281/281/281 314/314/314
f 314/314/314 281/281/281 315/315/315
f 281/281/281 282/282/282 315/315/315
f 315/315/315 282/282/282 316/316/316
f 282/282/282 283/283/283 316/316/316
f 316/316/316 283/283/283 317/317/317
f 283/283/283 284/284/284 317/317/317
f 317/317/317 284/284/284 318/318/318
f 284/284/284 285/285/285 318/318/318
f 318/318/318 285/285/285 319/319/319
f 285/285/285 286/286/286 319/319/319
f 319/319/319 286/286/286 320/320/320
f 286/286/286 287/287/287 320/320/320
f 320/320/320 287/287/287 321/321/321
f 287/287/287 288/288/288 321/321/321
f 321/321/321 288/288/288 322/322/322
f 288/288/288 289/289/289 322/322/322
f 322/322/322 289/289/289 323/323/323
f 289/289/289 290/290/290 323/323/323
f 323/323/323 290/290/290 324/324/324
f 290/290/290 291/291/291 324/324/324
f 324/324/324 291/291/291 325/325/325
f 291/291/291 292/292/292 325/325/325
f 325/325/325 292/292/292 326/326/326
f 292/292/292 293/293/293 326/326/326
f 326/326/326 293/293/293 327/327/327
f 293/293/293 294/294/294 327/327/327
f 327/327/327 294/294/294 328/328/328
f 294/294/294 295/295/295 328/328/328
f 328/328/328 295/295/295 329/329/329
f 295/295/295 296/296/296 329/329/329
f 329/329/329 296/296/296 330/330/330
f 296/296/296 297/297/297 330/330/330
f 331/331/331 298/298/298 332/332/332
f 298/298/298 299/299/299 332/332/332
f 332/332/332 299/299/299 333/333/333
f 299/299/299 300/300/300 333/333/333
f 333/333/333 300/300/300 334/334/334
f 300/300/300 301/301/301 334/334/334
f 334/334/334 301/301/301 335/335/335
f 301/301/301 302/302/302 335/335/335
f 335/335/335 302/302/302 336/336/336
f 302/302/302 303/303/303 336/336/336
f 336/336/336 303/303/303 337/337/337
f 303/303/303 304/304/304 337/337/337
f 337/337/337 304/304/304 338/338/338
f 304/304/304 305/305/305 338/338/338
f 338/338/338 305/305/305 339/339/339
f 305/305/305 306/306/306 339/339/339
f 339/339/339 306/306/306 340/340/340
f 306/306/306 307/307/307 340/340/340
f 340/340/340 307/307/307 341/341/341
f 307/307/307 308/308/308 341/341/341
f 341/341/341 308/308/308 342/342/342
f 308/308/308 309/309/309 342/342/342
f 342/342/342 309/309/309 343/343/343
f 309/309/309 310/310/310 343/343/343
f 343/343/343 310/310/310 344/344/344
f 310/310/310 311/311/311 344/344/344
f 344/344/344 311/311/311 345/345/345
f 311/311/311 312/312/312 345/345/345
f 345/345/345 312/312/312 346/346/346
f 312/312/312 313/313/313 346/346/346
f 346/346/346 313/313/313 347/347/347
f 313/313/313 314/314/314 347/347/347
f 347/347/347 314/314/314 348/348/348
f 314/314/314 315/315/315 348/348/348
f 348/348/348 315/315/315 349/349/349
f 315/315/315 316/316/316 349/349/349
f 349/349/349 316/316/316 350/350/350
f 316/316/316 317/317/317 350/350/350
f 350/350/350 317/317/317 351/351/351
f 317/317/317 318/318/318 351/351/351
f 351/351/351 318/318/318 352/352/352
f 318/318/318 319/319/319 352/352/352
f 352/352/352 319/319/319 353/353/353
f 319/319/319 320/320/320 353/353/353
f 353/353/353 320/320/320 354/354/354
f 320/320/320 321/321/321 354/354/354
f 354/354/354 321/321/321 355/355/355
f 321/321/321 322/322/322 355/355/355
f 355/355/355 322/322/322 356/356/356
f 322/322/322 323/323/323 356/356/356
f 356/356/356 323/323/323 357/357/357
f 323/323/323 324/324/324 357/357/357
f 357/357/357 324/324/324 358/358/358
f 324/324/324 325/325/325 358/358/358
f 358/358/358 325/325/325 359/359/359
f 325/325/325 326/326/326 359/359/359
f 359/359/359 326/326/326 360/360/360
f 326/326/326 327/327/327 360/360/360
f 360/360/360 327/327/327 361/361/361
f 327/327/327 328/328/328 361/361/361
f 361/361/361 328/328/328 362/362/362
f 328/328/328 329/329/329 362/362/362
f 362/362/362 329/329/329 363/363/363
f 329/329/329 330/330/330 363/363/363
