o shape_099
v 1 1.0006026029586792 0
v 0.9891701340675354 1.1474214792251587 0
v 0.956914484500885 1.2910622358322144 0
v 0.9039314389228821 1.4284154176712036 0
v 0.831368088722229 1.5565077066421509 0
v 0.7407950758934021 1.672566294670105 0
v 0.6341729760169983 1.7740789651870728 0
v 0.5138099789619446 1.8588480949401855 0
v 0.3823114335536957 1.9250389337539673 0
v 0.24252399802207947 1.9712185859680176 0
v 0.09747359156608582 1.9963871240615845 0
v -0.04969986900687218 2 0
v -0.19581051170825958 1.9819788932800293 0
v -0.33769550919532776 1.942713975906372 0
v -0.47228342294692993 1.8830552101135254 0
v -0.5966609716415405 1.8042941093444824 0
v -0.7081355452537537 1.7081354856491089 0
v -0.804294228553772 1.5966609716415405 0
v -0.8830553889274597 1.4722833633422852 0
v -0.9427141547203064 1.3376954793930054 0
v -0.9819788932800293 1.1958105564117432 0
v -1 1.0496999025344849 0
v -0.9963870644569397 0.9025264382362366 0
v -0.9712185263633728 0.7574760317802429 0
v -0.9250389337539673 0.6176885366439819 0
v -0.8588482141494751 0.4861900508403778 0
v -0.7740789651870728 0.3658269941806793 0
v -0.672566294670105 0.2592049241065979 0
v -0.5565077066421509 0.1686319261789322 0
v -0.4284153878688812 0.09606851637363434 0
v -0.29106223583221436 0.04308555647730827 0
v -0.14742152392864227 0.010829918086528778 0
v -0.0006026224582456052 0 0
v 0.9708495736122131 1.0006026029586792 0.08971618860960007
v 0.9603350162506104 1.1431442499160767 0.08971618860960007
v 0.9290190935134888 1.2826002836227417 0.08971618860960007
v 0.8775796294212341 1.4159519672393799 0.08971618860960007
v 0.8071302771568298 1.54031240940094 0.08971618860960007
v 0.7191959023475647 1.6529901027679443 0.08971618860960007
v 0.6156800985336304 1.7515451908111572 0.08971618860960007
v 0.4988235831260681 1.8338449001312256 0.08971618860960007
v 0.3711560070514679 1.8981072902679443 0.08971618860960007
v 0.23544099926948547 1.942941665649414 0.08971618860960007
v 0.09461633116006851 1.967376947402954 0.08971618860960007
v -0.048269517719745636 1.9708845615386963 0.08971618860960007
v -0.1901235282421112 1.9533886909484863 0.08971618860960007
v -0.3278749883174896 1.9152675867080688 0.08971618860960007
v -0.45854198932647705 1.8573468923568726 0.08971618860960007
v -0.5792959332466125 1.7808802127838135 0.08971618860960007
v -0.6875230073928833 1.6875230073928833 0.08971618860960007
v -0.7808802723884583 1.5792959928512573 0.08971618860960007
v -0.8573468923568726 1.458541989326477 0.08971618860960007
v -0.9152675867080688 1.327875018119812 0.08971618860960007
v -0.9533886313438416 1.1901235580444336 0.08971618860960007
v -0.9708845615386963 1.048269510269165 0.08971618860960007
v -0.9673768877983093 0.9053836464881897 0.08971618860960007
v -0.9429416060447693 0.7645590305328369 0.08971618860960007
v -0.8981072902679443 0.6288439631462097 0.08971618860960007
v -0.8338448405265808 0.5011764168739319 0.08971618860960007
v -0.751545250415802 0.384319931268692 0.08971618860960007
v -0.6529899835586548 0.2808040976524353 0.08971618860960007
v -0.5403125286102295 0.19286970794200897 0.08971618860960007
v -0.4159519076347351 0.12242034822702408 0.08971618860960007
v -0.2826002836227417 0.07098086923360825 0.08971618860960007
v -0.14314424991607666 0.03966502100229263 0.08971618860960007
v -0.0006026224582456052 0.02915048971772194 0.08971618860960007
v 0.8945322632789612 1.0006026029586792 0.14516384899616241
v 0.8848438262939453 1.1319462060928345 0.14516384899616241
v 0.855988085269928 1.260446548461914 0.14516384899616241
v 0.8085898160934448 1.3833221197128296 0.14516384899616241
v 0.7436748743057251 1.4979130029678345 0.14516384899616241
v 0.662648618221283 1.6017385721206665 0.14516384899616241
v 0.567264974117279 1.6925513744354248 0.14516384899616241
v 0.4595887362957001 1.768385410308838 0.14516384899616241
v 0.3419507145881653 1.8275994062423706 0.14516384899616241
v 0.21689742803573608 1.8689115047454834 0.14516384899616241
v 0.08713594824075699 1.8914271593093872 0.14516384899616241
v -0.04452481493353844 1.8946595191955566 0.14516384899616241
v -0.17523479461669922 1.878537893295288 0.14516384899616241
v -0.3021644949913025 1.8434116840362549 0.14516384899616241
v -0.42256632447242737 1.790041208267212 0.14516384899616241
v -0.533833920955658 1.7195818424224854 0.14516384899616241
v -0.6335586309432983 1.6335585117340088 0.14516384899616241
v -0.7195817828178406 1.5338338613510132 0.14516384899616241
v -0.7900412082672119 1.422566294670105 0.14516384899616241
v -0.8434116244316101 1.3021645545959473 0.14516384899616241
v -0.8785378932952881 1.1752347946166992 0.14516384899616241
v -0.8946594595909119 1.0445247888565063 0.14516384899616241
v -0.8914273381233215 0.912864089012146 0.14516384899616241
v -0.8689115047454834 0.7831025719642639 0.14516384899616241
v -0.8275994658470154 0.6580492854118347 0.14516384899616241
v -0.7683855295181274 0.5404112339019775 0.14516384899616241
v -0.69255131483078 0.43273502588272095 0.14516384899616241
v -0.6017385721206665 0.33735135197639465 0.14516384899616241
v -0.4979129731655121 0.2563250958919525 0.14516384899616241
v -0.3833221197128296 0.19141018390655518 0.14516384899616241
v -0.26044657826423645 0.14401185512542725 0.14516384899616241
v -0.13194620609283447 0.1151561290025711 0.14516384899616241
v -0.0006026224582456052 0.10546766966581345 0.14516384899616241
v 0.8001991510391235 1.0006026029586792 0.14516384899616241
v 0.7915316820144653 1.1181046962738037 0.14516384899616241
v 0.7657169103622437 1.2330631017684937 0.14516384899616241
v 0.7233136296272278 1.3429895639419556 0.14516384899616241
v 0.6652397513389587 1.4455043077468872 0.14516384899616241
v 0.5927523374557495 1.5383881330490112 0.14516384899616241
v 0.5074205994606018 1.6196308135986328 0.14516384899616241
v 0.41109177470207214 1.687473177909851 0.14516384899616241
v 0.30585095286369324 1.740446925163269 0.14516384899616241
v 0.19397632777690887 1.7774053812026978 0.14516384899616241
v 0.07788967341184616 1.7975482940673828 0.14516384899616241
v -0.039896100759506226 1.800439715385437 0.14516384899616241
v -0.156831294298172 1.7860171794891357 0.14516384899616241
v -0.27038460969924927 1.7545926570892334 0.14516384899616241
v -0.3780979812145233 1.7068467140197754 0.14516384899616241
v -0.47763967514038086 1.643812656402588 0.14516384899616241
v -0.5668549537658691 1.5668549537658691 0.14516384899616241
v -0.6438126564025879 1.4776396751403809 0.14516384899616241
v -0.7068467736244202 1.3780980110168457 0.14516384899616241
v -0.754592776298523 1.2703845500946045 0.14516384899616241
v -0.7860172390937805 1.1568312644958496 0.14516384899616241
v -0.8004397749900818 1.0398961305618286 0.14516384899616241
v -0.7975483536720276 0.9221102595329285 0.14516384899616241
v -0.7774053812026978 0.8060236573219299 0.14516384899616241
v -0.7404469847679138 0.6941490769386292 0.14516384899616241
v -0.6874732375144958 0.5889082551002502 0.14516384899616241
v -0.619630753993988 0.4925793707370758 0.14516384899616241
v -0.5383882522583008 0.4072476625442505 0.14516384899616241
v -0.4455042779445648 0.33476027846336365 0.14516384899616241
v -0.3429894745349884 0.2766864001750946 0.14516384899616241
v -0.23306310176849365 0.23428310453891754 0.14516384899616241
v -0.11810464411973953 0.20846834778785706 0.14516384899616241
v -0.0006026224582456052 0.19980084896087646 0.14516384899616241
v 0.7238819599151611 1.0006026029586792 0.08971618860960007
v 0.7160405516624451 1.106906533241272 0.08971618860960007
v 0.6926859021186829 1.210909366607666 0.08971618860960007
v 0.6543237566947937 1.3103595972061157 0.08971618860960007
v 0.601784348487854 1.4031046628952026 0.08971618860960007
v 0.5362051129341125 1.487136721611023 0.08971618860960007
v 0.45900556445121765 1.5606367588043213 0.08971618860960007
v 0.3718568980693817 1.622013807296753 0.08971618860960007
v 0.2766456604003906 1.6699390411376953 0.08971618860960007
v 0.17543277144432068 1.7033754587173462 0.08971618860960007
v 0.07040929049253464 1.721598744392395 0.08971618860960007
v -0.036151397973299026 1.7242144346237183 0.08971618860960007
v -0.14194256067276 1.711166501045227 0.08971618860960007
v -0.24467413127422333 1.6827367544174194 0.08971618860960007
v -0.34212228655815125 1.6395410299301147 0.08971618860960007
v -0.4321775734424591 1.5825141668319702 0.08971618860960007
v -0.512890636920929 1.5128905773162842 0.08971618860960007
v -0.5825141072273254 1.4321776628494263 0.08971618860960007
v -0.6395410299301147 1.3421223163604736 0.08971618860960007
v -0.6827368140220642 1.2446742057800293 0.08971618860960007
v -0.7111664414405823 1.1419426202774048 0.08971618860960007
v -0.7242145538330078 1.03615140914917 0.08971618860960007
v -0.7215986251831055 0.9295907020568848 0.08971618860960007
v -0.7033753395080566 0.8245671987533569 0.08971618860960007
v -0.6699391603469849 0.7233543395996094 0.08971618860960007
v -0.6220138072967529 0.6281430721282959 0.08971618860960007
v -0.5606368184089661 0.54099440574646 0.08971618860960007
v -0.4871367812156677 0.46379491686820984 0.08971618860960007
v -0.403104692697525 0.398215651512146 0.08971618860960007
v -0.3103597164154053 0.3456762731075287 0.08971618860960007
v -0.2109093964099884 0.30731409788131714 0.08971618860960007
v -0.10690660029649734 0.28395944833755493 0.08971618860960007
v -0.0006026224582456052 0.27611804008483887 0.08971618860960007
v 0.6947314143180847 1.0006026029586792 1.8692311499479324e-17
v 0.6872054934501648 1.10262930393219 1.8692311499479324e-17
v 0.6647905707359314 1.2024474143981934 1.8692311499479324e-17
v 0.627971887588501 1.297896146774292 1.8692311499479324e-17
v 0.5775465369224548 1.3869094848632812 1.8692311499479324e-17
v 0.5146059393882751 1.4675604104995728 1.8692311499479324e-17
v 0.44051265716552734 1.5381031036376953 1.8692311499479324e-17
v 0.35687053203582764 1.5970104932785034 1.8692311499479324e-17
v 0.26549020409584045 1.643007516860962 1.8692311499479324e-17
v 0.16834977269172668 1.6750984191894531 1.8692311499479324e-17
v 0.06755203008651733 1.692588448524475 1.8692311499479324e-17
v -0.034721046686172485 1.695099115371704 1.8692311499479324e-17
v -0.13625557720661163 1.682576060295105 1.8692311499479324e-17
v -0.2348536103963852 1.6552902460098267 1.8692311499479324e-17
v -0.328380823135376 1.6138324737548828 1.8692311499479324e-17
v -0.4148126244544983 1.5591002702713013 1.8692311499479324e-17
v -0.4922780394554138 1.492277979850769 1.8692311499479324e-17
v -0.5591002106666565 1.4148125648498535 1.8692311499479324e-17
v -0.6138325333595276 1.328380823135376 1.8692311499479324e-17
v -0.6552902460098267 1.2348536252975464 1.8692311499479324e-17
v -0.6825760006904602 1.1362556219100952 1.8692311499479324e-17
v -0.6950991153717041 1.03472101688385 1.8692311499479324e-17
v -0.6925884485244751 0.9324480295181274 1.8692311499479324e-17
v -0.6750984191894531 0.8316501975059509 1.8692311499479324e-17
v -0.6430075168609619 0.7345097661018372 1.8692311499479324e-17
v -0.5970104932785034 0.6431295275688171 1.8692311499479324e-17
v -0.5381031036376953 0.5594873428344727 1.8692311499479324e-17
v -0.46756047010421753 0.48539406061172485 1.8692311499479324e-17
v -0.386909544467926 0.42245349287986755 1.8692311499479324e-17
v -0.29789623618125916 0.372028112411499 1.8692311499479324e-17
v -0.20244744420051575 0.3352093994617462 1.8692311499479324e-17
v -0.10262931883335114 0.3127945065498352 1.8692311499479324e-17
v -0.0006026224582456052 0.3052685856819153 1.8692311499479324e-17
v 0.7238819599151611 1.0006026029586792 -0.08971618860960007
v 0.7160405516624451 1.106906533241272 -0.08971618860960007
v 0.6926859021186829 1.210909366607666 -0.08971618860960007
v 0.6543237566947937 1.3103595972061157 -0.08971618860960007
v 0.601784348487854 1.4031046628952026 -0.08971618860960007
v 0.5362051129341125 1.487136721611023 -0.08971618860960007
v 0.45900556445121765 1.5606367588043213 -0.08971618860960007
v 0.3718568980693817 1.622013807296753 -0.08971618860960007
v 0.2766456604003906 1.6699390411376953 -0.08971618860960007
v 0.17543277144432068 1.7033754587173462 -0.08971618860960007
v 0.07040929049253464 1.721598744392395 -0.08971618860960007
v -0.036151397973299026 1.7242144346237183 -0.08971618860960007
v -0.14194256067276 1.711166501045227 -0.08971618860960007
v -0.24467413127422333 1.6827367544174194 -0.08971618860960007
v -0.34212228655815125 1.6395410299301147 -0.08971618860960007
v -0.4321775734424591 1.5825141668319702 -0.08971618860960007
v -0.512890636920929 1.5128905773162842 -0.08971618860960007
v -0.5825141072273254 1.4321776628494263 -0.08971618860960007
v -0.6395410299301147 1.3421223163604736 -0.08971618860960007
v -0.6827368140220642 1.2446742057800293 -0.08971618860960007
v -0.7111664414405823 1.1419426202774048 -0.08971618860960007
v -0.7242145538330078 1.03615140914917 -0.08971618860960007
v -0.7215986251831055 0.9295907020568848 -0.08971618860960007
v -0.7033753395080566 0.8245671987533569 -0.08971618860960007
v -0.6699391603469849 0.7233543395996094 -0.08971618860960007
v -0.6220138072967529 0.6281430721282959 -0.08971618860960007
v -0.5606368184089661 0.54099440574646 -0.08971618860960007
v -0.4871367812156677 0.46379491686820984 -0.08971618860960007
v -0.403104692697525 0.398215651512146 -0.08971618860960007
v -0.3103597164154053 0.3456762731075287 -0.08971618860960007
v -0.2109093964099884 0.30731409788131714 -0.08971618860960007
v -0.10690660029649734 0.28395944833755493 -0.08971618860960007
v -0.0006026224582456052 0.27611804008483887 -0.08971618860960007
v 0.8001991510391235 1.0006026029586792 -0.14516384899616241
v 0.7915316820144653 1.1181046962738037 -0.14516384899616241
v 0.7657169103622437 1.2330631017684937 -0.14516384899616241
v 0.7233136296272278 1.3429895639419556 -0.14516384899616241
v 0.6652397513389587 1.4455043077468872 -0.14516384899616241
v 0.5927523374557495 1.5383881330490112 -0.14516384899616241
v 0.5074205994606018 1.6196308135986328 -0.14516384899616241
v 0.41109177470207214 1.687473177909851 -0.14516384899616241
v 0.30585095286369324 1.740446925163269 -0.14516384899616241
v 0.19397632777690887 1.7774053812026978 -0.14516384899616241
v 0.07788967341184616 1.7975482940673828 -0.14516384899616241
v -0.039896100759506226 1.800439715385437 -0.14516384899616241
v -0.156831294298172 1.7860171794891357 -0.14516384899616241
v -0.27038460969924927 1.7545926570892334 -0.14516384899616241
v -0.3780979812145233 1.7068467140197754 -0.14516384899616241
v -0.47763967514038086 1.643812656402588 -0.14516384899616241
v -0.5668549537658691 1.5668549537658691 -0.14516384899616241
v -0.6438126564025879 1.4776396751403809 -0.14516384899616241
v -0.7068467736244202 1.3780980110168457 -0.14516384899616241
v -0.754592776298523 1.2703845500946045 -0.14516384899616241
v -0.7860172390937805 1.1568312644958496 -0.14516384899616241
v -0.8004397749900818 1.0398961305618286 -0.14516384899616241
v -0.7975483536720276 0.9221102595329285 -0.14516384899616241
v -0.7774053812026978 0.8060236573219299 -0.14516384899616241
v -0.7404469847679138 0.6941490769386292 -0.14516384899616241
v -0.6874732375144958 0.5889082551002502 -0.14516384899616241
v -0.619630753993988 0.4925793707370758 -0.14516384899616241
v -0.5383882522583008 0.4072476625442505 -0.14516384899616241
v -0.4455042779445648 0.33476027846336365 -0.14516384899616241
v -0.3429894745349884 0.2766864001750946 -0.14516384899616241
v -0.23306310176849365 0.23428310453891754 -0.14516384899616241
v -0.11810464411973953 0.20846834778785706 -0.14516384899616241
v -0.0006026224582456052 0.19980084896087646 -0.14516384899616241
v 0.8945322632789612 1.0006026029586792 -0.14516384899616241
v 0.8848438262939453 1.1319462060928345 -0.14516384899616241
v 0.855988085269928 1.260446548461914 -0.14516384899616241
v 0.8085898160934448 1.3833221197128296 -0.14516384899616241
v 0.7436748743057251 1.4979130029678345 -0.14516384899616241
v 0.662648618221283 1.6017385721206665 -0.14516384899616241
v 0.567264974117279 1.6925513744354248 -0.14516384899616241
v 0.4595887362957001 1.768385410308838 -0.14516384899616241
v 0.3419507145881653 1.8275994062423706 -0.14516384899616241
v 0.21689742803573608 1.8689115047454834 -0.14516384899616241
v 0.08713594824075699 1.8914271593093872 -0.14516384899616241
v -0.04452481493353844 1.8946595191955566 -0.14516384899616241
v -0.17523479461669922 1.878537893295288 -0.14516384899616241
v -0.3021644949913025 1.8434116840362549 -0.14516384899616241
v -0.42256632447242737 1.790041208267212 -0.14516384899616241
v -0.533833920955658 1.7195818424224854 -0.14516384899616241
v -0.6335586309432983 1.6335585117340088 -0.14516384899616241
v -0.7195817828178406 1.5338338613510132 -0.14516384899616241
v -0.7900412082672119 1.422566294670105 -0.14516384899616241
v -0.8434116244316101 1.3021645545959473 -0.14516384899616241
v -0.8785378932952881 1.1752347946166992 -0.14516384899616241
v -0.8946594595909119 1.0445247888565063 -0.14516384899616241
v -0.8914273381233215 0.912864089012146 -0.14516384899616241
v -0.8689115047454834 0.7831025719642639 -0.14516384899616241
v -0.8275994658470154 0.6580492854118347 -0.14516384899616241
v -0.7683855295181274 0.5404112339019775 -0.14516384899616241
v -0.69255131483078 0.43273502588272095 -0.14516384899616241
v -0.6017385721206665 0.33735135197639465 -0.14516384899616241
v -0.4979129731655121 0.2563250958919525 -0.14516384899616241
v -0.3833221197128296 0.19141018390655518 -0.14516384899616241
v -0.26044657826423645 0.14401185512542725 -0.14516384899616241
v -0.13194620609283447 0.1151561290025711 -0.14516384899616241
v -0.0006026224582456052 0.10546766966581345 -0.14516384899616241
v 0.9708495736122131 1.0006026029586792 -0.08971618860960007
v 0.9603350162506104 1.1431442499160767 -0.08971618860960007
v 0.9290190935134888 1.2826002836227417 -0.08971618860960007
v 0.8775796294212341 1.4159519672393799 -0.08971618860960007
v 0.8071302771568298 1.54031240940094 -0.08971618860960007
v 0.7191959023475647 1.6529901027679443 -0.08971618860960007
v 0.6156800985336304 1.7515451908111572 -0.08971618860960007
v 0.4988235831260681 1.8338449001312256 -0.08971618860960007
v 0.3711560070514679 1.8981072902679443 -0.08971618860960007
v 0.23544099926948547 1.942941665649414 -0.08971618860960007
v 0.09461633116006851 1.967376947402954 -0.08971618860960007
v -0.048269517719745636 1.9708845615386963 -0.08971618860960007
v -0.1901235282421112 1.9533886909484863 -0.08971618860960007
v -0.3278749883174896 1.9152675867080688 -0.08971618860960007
v -0.45854198932647705 1.8573468923568726 -0.08971618860960007
v -0.5792959332466125 1.7808802127838135 -0.08971618860960007
v -0.6875230073928833 1.6875230073928833 -0.08971618860960007
v -0.7808802723884583 1.5792959928512573 -0.08971618860960007
v -0.8573468923568726 1.458541989326477 -0.08971618860960007
v -0.9152675867080688 1.327875018119812 -0.08971618860960007
v -0.9533886313438416 1.1901235580444336 -0.08971618860960007
v -0.9708845615386963 1.048269510269165 -0.08971618860960007
v -0.9673768877983093 0.9053836464881897 -0.08971618860960007
v -0.9429416060447693 0.7645590305328369 -0.08971618860960007
v -0.8981072902679443 0.6288439631462097 -0.08971618860960007
v -0.8338448405265808 0.5011764168739319 -0.08971618860960007
v -0.751545250415802 0.384319931268692 -0.08971618860960007
v -0.6529899835586548 0.2808040976524353 -0.08971618860960007
v -0.5403125286102295 0.19286970794200897 -0.08971618860960007
v -0.4159519076347351 0.12242034822702408 -0.08971618860960007
v -0.2826002836227417 0.07098086923360825 -0.08971618860960007
v -0.14314424991607666 0.03966502100229263 -0.08971618860960007
v -0.0006026224582456052 0.02915048971772194 -0.08971618860960007
v 1 1.0006026029586792 -3.738462299895865e-17
v 0.9891701340675354 1.1474214792251587 -3.738462299895865e-17
v 0.956914484500885 1.2910622358322144 -3.738462299895865e-17
v 0.9039314389228821 1.4284154176712036 -3.738462299895865e-17
v 0.831368088722229 1.5565077066421509 -3.738462299895865e-17
v 0.7407950758934021 1.672566294670105 -3.738462299895865e-17
v 0.6341729760169983 1.7740789651870728 -3.738462299895865e-17
v 0.5138099789619446 1.8588480949401855 -3.738462299895865e-17
v 0.3823114335536957 1.9250389337539673 -3.738462299895865e-17
v 0.24252399802207947 1.9712185859680176 -3.738462299895865e-17
v 0.09747359156608582 1.9963871240615845 -3.738462299895865e-17
v -0.04969986900687218 2 -3.738462299895865e-17
v -0.19581051170825958 1.9819788932800293 -3.738462299895865e-17
v -0.33769550919532776 1.942713975906372 -3.738462299895865e-17
v -0.47228342294692993 1.8830552101135254 -3.738462299895865e-17
v -0.5966609716415405 1.8042941093444824 -3.738462299895865e-17
v -0.7081355452537537 1.7081354856491089 -3.738462299895865e-17
v -0.804294228553772 1.5966609716415405 -3.738462299895865e-17
v -0.8830553889274597 1.4722833633422852 -3.738462299895865e-17
v -0.9427141547203064 1.3376954793930054 -3.738462299895865e-17
v -0.9819788932800293 1.1958105564117432 -3.738462299895865e-17
v -1 1.0496999025344849 -3.738462299895865e-17
v -0.9963870644569397 0.9025264382362366 -3.738462299895865e-17
v -0.9712185263633728 0.7574760317802429 -3.738462299895865e-17
v -0.9250389337539673 0.6176885366439819 -3.738462299895865e-17
v -0.8588482141494751 0.4861900508403778 -3.738462299895865e-17
v -0.7740789651870728 0.3658269941806793 -3.738462299895865e-17
v -0.672566294670105 0.2592049241065979 -3.738462299895865e-17
v -0.5565077066421509 0.1686319261789322 -3.738462299895865e-17
v -0.4284153878688812 0.09606851637363434 -3.738462299895865e-17
v -0.29106223583221436 0.04308555647730827 -3.738462299895865e-17
v -0.14742152392864227 0.010829918086528778 -3.738462299895865e-17
v -0.0006026224582456052 0 -3.738462299895865e-17
vt 0 0
vt 0.03125 0
vt 0.0625 0
vt 0.09375 0
vt 0.125 0
vt 0.15625 0
vt 0.1875 0
vt 0.21875 0
vt 0.25 0
vt 0.28125 0
vt 0.3125 0
vt 0.34375 0
vt 0.375 0
vt 0.40625 0
vt 0.4375 0
vt 0.46875 0
vt 0.5 0
vt 0.53125 0
vt 0.5625 0
vt 0.59375 0
vt 0.625 0
vt 0.65625 0
vt 0.6875 0
vt 0.71875 0
vt 0.75 0
vt 0.78125 0
vt 0.8125 0
vt 0.84375 0
vt 0.875 0
vt 0.90625 0
vt 0.9375 0
vt 0.96875 0
vt 1 0
vt 0 0.10000000149011612
vt 0.03125 0.10000000149011612
vt 0.0625 0.10000000149011612
vt 0.09375 0.10000000149011612
vt 0.125 0.10000000149011612
vt 0.15625 0.10000000149011612
vt 0.1875 0.10000000149011612
vt 0.21875 0.10000000149011612
vt 0.25 0.10000000149011612
vt 0.28125 0.10000000149011612
vt 0.3125 0.10000000149011612
vt 0.34375 0.10000000149011612
vt 0.375 0.10000000149011612
vt 0.40625 0.10000000149011612
vt 0.4375 0.10000000149011612
vt 0.46875 0.10000000149011612
vt 0.5 0.10000000149011612
vt 0.53125 0.10000000149011612
vt 0.5625 0.10000000149011612
vt 0.59375 0.10000000149011612
vt 0.625 0.10000000149011612
vt 0.65625 0.10000000149011612
vt 0.6875 0.10000000149011612
vt 0.71875 0.10000000149011612
vt 0.75 0.10000000149011612
vt 0.78125 0.10000000149011612
vt 0.8125 0.10000000149011612
vt 0.84375 0.10000000149011612
vt 0.875 0.10000000149011612
vt 0.90625 0.10000000149011612
vt 0.9375 0.10000000149011612
vt 0.96875 0.10000000149011612
vt 1 0.10000000149011612
vt 0 0.20000000298023224
vt 0.03125 0.20000000298023224
vt 0.0625 0.20000000298023224
vt 0.09375 0.20000000298023224
vt 0.125 0.20000000298023224
vt 0.15625 0.20000000298023224
vt 0.1875 0.20000000298023224
vt 0.21875 0.20000000298023224
vt 0.25 0.20000000298023224
vt 0.28125 0.20000000298023224
vt 0.3125 0.20000000298023224
vt 0.34375 0.20000000298023224
vt 0.375 0.20000000298023224
vt 0.40625 0.20000000298023224
vt 0.4375 0.20000000298023224
vt 0.46875 0.20000000298023224
vt 0.5 0.20000000298023224
vt 0.53125 0.20000000298023224
vt 0.5625 0.20000000298023224
vt 0.59375 0.20000000298023224
vt 0.625 0.20000000298023224
vt 0.65625 0.20000000298023224
vt 0.6875 0.20000000298023224
vt 0.71875 0.20000000298023224
vt 0.75 0.20000000298023224
vt 0.78125 0.20000000298023224
vt 0.8125 0.20000000298023224
vt 0.84375 0.20000000298023224
vt 0.875 0.20000000298023224
vt 0.90625 0.20000000298023224
vt 0.9375 0.20000000298023224
vt 0.96875 0.20000000298023224
vt 1 0.20000000298023224
vt 0 0.30000001192092896
vt 0.03125 0.30000001192092896
vt 0.0625 0.30000001192092896
vt 0.09375 0.30000001192092896
vt 0.125 0.30000001192092896
vt 0.15625 0.30000001192092896
vt 0.1875 0.30000001192092896
vt 0.21875 0.30000001192092896
vt 0.25 0.30000001192092896
vt 0.28125 0.30000001192092896
vt 0.3125 0.30000001192092896
vt 0.34375 0.30000001192092896
vt 0.375 0.30000001192092896
vt 0.40625 0.30000001192092896
vt 0.4375 0.30000001192092896
vt 0.46875 0.30000001192092896
vt 0.5 0.30000001192092896
vt 0.53125 0.30000001192092896
vt 0.5625 0.30000001192092896
vt 0.59375 0.30000001192092896
vt 0.625 0.30000001192092896
vt 0.65625 0.30000001192092896
vt 0.6875 0.30000001192092896
vt 0.71875 0.30000001192092896
vt 0.75 0.30000001192092896
vt 0.78125 0.30000001192092896
vt 0.8125 0.30000001192092896
vt 0.84375 0.30000001192092896
vt 0.875 0.30000001192092896
vt 0.90625 0.30000001192092896
vt 0.9375 0.30000001192092896
vt 0.96875 0.30000001192092896
vt 1 0.30000001192092896
vt 0 0.4000000059604645
vt 0.03125 0.4000000059604645
vt 0.0625 0.4000000059604645
vt 0.09375 0.4000000059604645
vt 0.125 0.4000000059604645
vt 0.15625 0.4000000059604645
vt 0.1875 0.4000000059604645
vt 0.21875 0.4000000059604645
vt 0.25 0.4000000059604645
vt 0.28125 0.4000000059604645
vt 0.3125 0.4000000059604645
vt 0.34375 0.4000000059604645
vt 0.375 0.4000000059604645
vt 0.40625 0.4000000059604645
vt 0.4375 0.4000000059604645
vt 0.46875 0.4000000059604645
vt 0.5 0.4000000059604645
vt 0.53125 0.4000000059604645
vt 0.5625 0.4000000059604645
vt 0.59375 0.4000000059604645
vt 0.625 0.4000000059604645
vt 0.65625 0.4000000059604645
vt 0.6875 0.4000000059604645
vt 0.71875 0.4000000059604645
vt 0.75 0.4000000059604645
vt 0.78125 0.4000000059604645
vt 0.8125 0.4000000059604645
vt 0.84375 0.4000000059604645
vt 0.875 0.4000000059604645
vt 0.90625 0.4000000059604645
vt 0.9375 0.4000000059604645
vt 0.96875 0.4000000059604645
vt 1 0.4000000059604645
vt 0 0.5
vt 0.03125 0.5
vt 0.0625 0.5
vt 0.09375 0.5
vt 0.125 0.5
vt 0.15625 0.5
vt 0.1875 0.5
vt 0.21875 0.5
vt 0.25 0.5
vt 0.28125 0.5
vt 0.3125 0.5
vt 0.34375 0.5
vt 0.375 0.5
vt 0.40625 0.5
vt 0.4375 0.5
vt 0.46875 0.5
vt 0.5 0.5
vt 0.53125 0.5
vt 0.5625 0.5
vt 0.59375 0.5
vt 0.625 0.5
vt 0.65625 0.5
vt 0.6875 0.5
vt 0.71875 0.5
vt 0.75 0.5
vt 0.78125 0.5
vt 0.8125 0.5
vt 0.84375 0.5
vt 0.875 0.5
vt 0.90625 0.5
vt 0.9375 0.5
vt 0.96875 0.5
vt 1 0.5
vt 0 0.6000000238418579
vt 0.03125 0.6000000238418579
vt 0.0625 0.6000000238418579
vt 0.09375 0.6000000238418579
vt 0.125 0.6000000238418579
vt 0.15625 0.6000000238418579
vt 0.1875 0.6000000238418579
vt 0.21875 0.6000000238418579
vt 0.25 0.6000000238418579
vt 0.28125 0.6000000238418579
vt 0.3125 0.6000000238418579
vt 0.34375 0.6000000238418579
vt 0.375 0.6000000238418579
vt 0.40625 0.6000000238418579
vt 0.4375 0.6000000238418579
vt 0.46875 0.6000000238418579
vt 0.5 0.6000000238418579
vt 0.53125 0.6000000238418579
vt 0.5625 0.6000000238418579
vt 0.59375 0.6000000238418579
vt 0.625 0.6000000238418579
vt 0.65625 0.6000000238418579
vt 0.6875 0.6000000238418579
vt 0.71875 0.6000000238418579
vt 0.75 0.6000000238418579
vt 0.78125 0.6000000238418579
vt 0.8125 0.6000000238418579
vt 0.84375 0.6000000238418579
vt 0.875 0.6000000238418579
vt 0.90625 0.6000000238418579
vt 0.9375 0.6000000238418579
vt 0.96875 0.6000000238418579
vt 1 0.6000000238418579
vt 0 0.699999988079071
vt 0.03125 0.699999988079071
vt 0.0625 0.699999988079071
vt 0.09375 0.699999988079071
vt 0.125 0.699999988079071
vt 0.15625 0.699999988079071
vt 0.1875 0.699999988079071
vt 0.21875 0.699999988079071
vt 0.25 0.699999988079071
vt 0.28125 0.699999988079071
vt 0.3125 0.699999988079071
vt 0.34375 0.699999988079071
vt 0.375 0.699999988079071
vt 0.40625 0.699999988079071
vt 0.4375 0.699999988079071
vt 0.46875 0.699999988079071
vt 0.5 0.699999988079071
vt 0.53125 0.699999988079071
vt 0.5625 0.699999988079071
vt 0.59375 0.699999988079071
vt 0.625 0.699999988079071
vt 0.65625 0.699999988079071
vt 0.6875 0.699999988079071
vt 0.71875 0.699999988079071
vt 0.75 0.699999988079071
vt 0.78125 0.699999988079071
vt 0.8125 0.699999988079071
vt 0.84375 0.699999988079071
vt 0.875 0.699999988079071
vt 0.90625 0.699999988079071
vt 0.9375 0.699999988079071
vt 0.96875 0.699999988079071
vt 1 0.699999988079071
vt 0 0.800000011920929
vt 0.03125 0.800000011920929
vt 0.0625 0.800000011920929
vt 0.09375 0.800000011920929
vt 0.125 0.800000011920929
vt 0.15625 0.800000011920929
vt 0.1875 0.800000011920929
vt 0.21875 0.800000011920929
vt 0.25 0.800000011920929
vt 0.28125 0.800000011920929
vt 0.3125 0.800000011920929
vt 0.34375 0.800000011920929
vt 0.375 0.800000011920929
vt 0.40625 0.800000011920929
vt 0.4375 0.800000011920929
vt 0.46875 0.800000011920929
vt 0.5 0.800000011920929
vt 0.53125 0.800000011920929
vt 0.5625 0.800000011920929
vt 0.59375 0.800000011920929
vt 0.625 0.800000011920929
vt 0.65625 0.800000011920929
vt 0.6875 0.800000011920929
vt 0.71875 0.800000011920929
vt 0.75 0.800000011920929
vt 0.78125 0.800000011920929
vt 0.8125 0.800000011920929
vt 0.84375 0.800000011920929
vt 0.875 0.800000011920929
vt 0.90625 0.800000011920929
vt 0.9375 0.800000011920929
vt 0.96875 0.800000011920929
vt 1 0.800000011920929
vt 0 0.8999999761581421
vt 0.03125 0.8999999761581421
vt 0.0625 0.8999999761581421
vt 0.09375 0.8999999761581421
vt 0.125 0.8999999761581421
vt 0.15625 0.8999999761581421
vt 0.1875 0.8999999761581421
vt 0.21875 0.8999999761581421
vt 0.25 0.8999999761581421
vt 0.28125 0.8999999761581421
vt 0.3125 0.8999999761581421
vt 0.34375 0.8999999761581421
vt 0.375 0.8999999761581421
vt 0.40625 0.8999999761581421
vt 0.4375 0.8999999761581421
vt 0.46875 0.8999999761581421
vt 0.5 0.8999999761581421
vt 0.53125 0.8999999761581421
vt 0.5625 0.8999999761581421
vt 0.59375 0.8999999761581421
vt 0.625 0.8999999761581421
vt 0.65625 0.8999999761581421
vt 0.6875 0.8999999761581421
vt 0.71875 0.8999999761581421
vt 0.75 0.8999999761581421
vt 0.78125 0.8999999761581421
vt 0.8125 0.8999999761581421
vt 0.84375 0.8999999761581421
vt 0.875 0.8999999761581421
vt 0.90625 0.8999999761581421
vt 0.9375 0.8999999761581421
vt 0.96875 0.8999999761581421
vt 1 0.8999999761581421
vt 0 1
vt 0.03125 1
vt 0.0625 1
vt 0.09375 1
vt 0.125 1
vt 0.15625 1
vt 0.1875 1
vt 0.21875 1
vt 0.25 1
vt 0.28125 1
vt 0.3125 1
vt 0.34375 1
vt 0.375 1
vt 0.40625 1
vt 0.4375 1
vt 0.46875 1
vt 0.5 1
vt 0.53125 1
vt 0.5625 1
vt 0.59375 1
vt 0.625 1
vt 0.65625 1
vt 0.6875 1
vt 0.71875 1
vt 0.75 1
vt 0.78125 1
vt 0.8125 1
vt 0.84375 1
vt 0.875 1
vt 0.90625 1
vt 0.9375 1
vt 0.96875 1
vt 1 1
vn 0.9487247924877613 0.06998192417000121 0.30825930384745603
vn 0.9371525163924898 0.16218406160517207 0.30893606325658074
vn 0.903211884375263 0.2979379868348627 0.30893566955609975
vn 0.8497194400843425 0.4272416705897836 0.3089359610896769
vn 0.7778331806035268 0.5472971915656508 0.30893579795250753
vn 0.6891090736241975 0.655505286853806 0.30893608328505384
vn 0.5854678789137586 0.7495237638938069 0.3089360615381201
vn 0.4691531440076809 0.8273172519486206 0.30893606473814417
vn 0.34268263809668825 0.8872018670646267 0.3089360073285967
vn 0.2087937722947381 0.9278814705866824 0.3089354903419627
vn 0.07038568769964357 0.9484748927442368 0.30893564507977483
vn -0.06954637914253742 0.9485368727761709 0.30893543359764436
vn -0.20797278234339003 0.928065907071445 0.30893525848631326
vn -0.3418974087463288 0.8875050221588949 0.3089352643116112
vn -0.468421004929226 0.8277322522127102 0.3089353990528902
vn -0.5848042868930665 0.7500416513336082 0.3089360246009617
vn -0.6885288523423859 0.6561148324545488 0.30893582849066936
vn -0.7773484989010503 0.5479853612019313 0.30893584312065947
vn -0.8493412803539158 0.42799353954610786 0.30893513816586976
vn -0.9029480884260848 0.2987368427801855 0.30893534659116945
vn -0.9370088436257169 0.16301350050219646 0.308935309767623
vn -0.9507860977119996 0.023761426629430617 0.3089355774301856
vn -0.9439818069012446 -0.11600491166077932 0.3089356060897419
vn -0.9167431016248629 -0.2532603746038837 0.30893570249928504
vn -0.8696595987827149 -0.38503324814635465 0.3089362071155709
vn -0.8037507368038405 -0.508471538056448 0.30893599349022743
vn -0.7204431316008554 -0.6209027188900508 0.3089360901612099
vn -0.6215400141809129 -0.7198934603763322 0.3089359423559856
vn -0.5091823901220247 -0.8033006733205624 0.3089357891736616
vn -0.3858029196417384 -0.8693185336179307 0.30893590646650493
vn -0.2540714721433121 -0.9165186216278867 0.30893575910251797
vn -0.11684026744059246 -0.9438786647968699 0.3089359448909906
vn -0.06998155445155399 -0.9487250094040889 0.3082587201812068
vn 0.7437567253114947 0.054862861610271714 0.6661951665764727
vn 0.8045171328988517 0.11356848983024903 0.5829703088407573
vn 0.7791454944913091 0.23038669382614413 0.5829702134086714
vn 0.7369076963484613 0.34221749373172994 0.5829701828107311
vn 0.6787181020804636 0.4466402013743393 0.5829702122961199
vn 0.6058361521823432 0.5413947097829246 0.5829702607577469
vn 0.5198398056802719 0.6244295028449696 0.5829703014794848
vn 0.4225904919054029 0.6939473711251332 0.5829702584692176
vn 0.3161934815212919 0.7484431633247423 0.5829704225052053
vn 0.20295156947783607 0.7867378155107938 0.582970213726042
vn 0.0853165447659468 0.8080018021106921 0.5829701321466431
vn -0.0341652820700577 0.8117749754601843 0.5829700873266919
vn -0.15290765498262993 0.7979756015378895 0.5829701436591385
vn -0.268339875606607 0.7669024560248169 0.5829702686265694
vn -0.37796375861388587 0.7192283407076692 0.5829699744389564
vn -0.4794054591549722 0.6559848736320041 0.5829701976074027
vn -0.570469480815635 0.5785414395822134 0.5829703029692678
vn -0.6491846387942821 0.48857444116257037 0.5829702566994474
vn -0.7138469757922015 0.38803115175453773 0.5829702568917003
vn -0.7630567533094705 0.2790881686938979 0.582970141022588
vn -0.7957486536871563 0.1641037171603143 0.5829700251035603
vn -0.8112148821378684 0.04556700687728697 0.5829700360072457
vn -0.8091207107782864 -0.07395601237062245 0.5829701395645208
vn -0.7895115686243824 -0.1918783205439151 0.5829701477035624
vn -0.7528118373332515 -0.3056468915779068 0.5829702524483539
vn -0.699816043118409 -0.4127992063911084 0.5829702573862273
vn -0.6316714299154462 -0.5110155354000632 0.5829702627135986
vn -0.5498529648246909 -0.5981699797815456 0.5829703185940451
vn -0.456131836350041 -0.6723759632380617 0.5829702496076692
vn -0.3525369486378445 -0.7320269389899499 0.5829702054463178
vn -0.24131060182368583 -0.7758317165964932 0.5829702745170023
vn -0.12486053109359006 -0.8028420710240124 0.5829703738346411
vn -0.06394468996781619 -0.8668785696457689 0.4944012764079656
vn 0.21241699591288674 0.01566877620506442 0.9770534833362913
vn 0.3166035345990847 0.038600194373230645 0.947772244198845
vn 0.3075129359350414 0.08463773792723436 0.9477722551072973
vn 0.29176566669329734 0.1288433253310398 0.9477722264640674
vn 0.2697025598754154 0.17025961368592923 0.9477722264047234
vn 0.24180111935533244 0.20799042840597193 0.9477722302167375
vn 0.2086654659921886 0.241218826738846 0.9477722305116336
vn 0.17101283679990345 0.26922560223896747 0.9477722219756783
vn 0.12965828427150194 0.2914044316454846 0.9477722229191688
vn 0.08549704955607836 0.30727516914296044 0.9477722431815413
vn 0.03948495987305192 0.31649447110505446 0.9477722235346188
vn -0.007381725761484678 0.31886253498715506 0.9477722268068144
vn -0.054088738972405785 0.31432820038703807 0.9477722251458001
vn -0.09962476029907577 0.30298951222620024 0.9477722630549392
vn -0.1430042525701976 0.2850921433376192 0.9477722582741075
vn -0.18328830999388518 0.2610233781025381 0.9477722255391982
vn -0.2196044566830919 0.23130426700342593 0.9477722398714429
vn -0.2511670054053891 0.19657807526844012 0.9477722277633192
vn -0.2772924252471952 0.1575965703045736 0.9477722468656508
vn -0.2974153454465309 0.11520351451672348 0.9477722630125425
vn -0.3111001523519343 0.07031675365696705 0.9477722560624724
vn -0.318050588914819 0.02390776915397113 0.9477722518965288
vn -0.3181162538601414 -0.023018723802819472 0.947772223366184
vn -0.31129553187454617 -0.0694468750240827 0.9477722423580114
vn -0.2977362647771628 -0.11437184650265919 0.9477722286309698
vn -0.27773193045158867 -0.1568208813240744 0.9477722226296647
vn -0.2517154872901998 -0.19587526192955557 0.9477722275010412
vn -0.22025013999061438 -0.23068950587431725 0.9477722446419172
vn -0.18401713997147306 -0.2605100916545249 0.9477722217615739
vn -0.1438006325826622 -0.2846914259833581 0.9477722142162579
vn -0.10047134531107935 -0.30270990048615914 0.9477722431676513
vn -0.05496700365613955 -0.314175748214387 0.9477722446574367
vn -0.030598921323447804 -0.4148193844591004 0.9093891269917485
vn -0.40302595096645805 -0.029728965539070885 0.9147055654447276
vn -0.2938252700426191 -0.05050756804591692 0.9545238060176755
vn -0.28323403569755373 -0.09307392873560281 0.9545238209768245
vn -0.2665117086315511 -0.13362567133446976 0.9545238022819041
vn -0.24402019087095386 -0.17128479274076103 0.9545237902865793
vn -0.21624629061217876 -0.20523612069967737 0.9545237956995207
vn -0.18379138416991223 -0.23474462339154026 0.9545238021619323
vn -0.14735795505394153 -0.25917166379839973 0.9545237984284572
vn -0.10773459815417676 -0.2779884336696083 0.9545238012257609
vn -0.06577920317001232 -0.2907874947807461 0.9545238233325849
vn -0.022399785153339957 -0.29729202597072796 0.954523808461216
vn 0.02146440967849943 -0.2973609916227217 0.9545238183399641
vn 0.06486401101547455 -0.29099301130325417 0.9545238223573305
vn 0.10685950657674395 -0.27832594878588734 0.95452381431089
vn 0.1465418335050319 -0.2596339874819845 0.9545237993770445
vn 0.18305194395488042 -0.23532168589791938 0.9545238027207601
vn 0.21559965023071007 -0.20591540073585138 0.9545237757961764
vn 0.24348004280765584 -0.17205165410299134 0.9545238064473859
vn 0.2660899777865641 -0.1344634602400561 0.9545238088082542
vn 0.2829398796153915 -0.09396459858442667 0.9545237968411764
vn 0.29366490528753075 -0.05143167873272403 0.9545238110310288
vn 0.29803300356155077 -0.007785430296195451 0.9545238162891401
vn 0.2959495846822063 0.03602937314306222 0.9545238224357461
vn 0.28745982230114253 0.07906422068297887 0.9545238077546252
vn 0.272747367936138 0.12038763626442088 0.954523802908327
vn 0.25213077548412316 0.1591049723459995 0.9545237974134293
vn 0.22605630527720558 0.19437818033403528 0.9545237921887795
vn 0.1950884004372618 0.2254436451566896 0.9545237969130446
vn 0.1598974016530539 0.25162896470529017 0.9545238001568876
vn 0.12124506389809801 0.2723672987305536 0.9545238022504036
vn 0.0799682150331393 0.28720963359725404 0.9545238137172611
vn 0.03696024110975874 0.2958347849923106 0.9545238187523986
vn 0.014522442839580181 0.19687544142106736 0.980320947047053
vn -0.8643902779064933 -0.06376106468201084 0.49876244254289215
vn -0.795203871226274 -0.12135838818737915 0.5940731813533654
vn -0.7687900578286674 -0.2367255512795037 0.5940731102778591
vn -0.7257341041556563 -0.3469681093602765 0.5940733466099469
vn -0.6669683946282721 -0.4497000801494388 0.5940732265306811
vn -0.5937647479562392 -0.5426974530634378 0.594073142401608
vn -0.5077078336797403 -0.6239470236522288 0.5940731161193463
vn -0.41066078115771054 -0.6916897425622446 0.594073247043759
vn -0.3047238870099912 -0.7444598635058648 0.59407311361006
vn -0.192190749323757 -0.7811144504637408 0.5940731698630237
vn -0.07549734469580516 -0.8008602916947444 0.594073180787091
vn 0.04283050852272972 -0.8032699883472202 0.5940731212235926
vn 0.16023096525664204 -0.7882911603970535 0.5940732986869479
vn 0.2741630685949647 -0.756248417975783 0.5940731791014622
vn 0.3821603944886038 -0.7078350765812995 0.5940731749923241
vn 0.481885016547134 -0.6440991767087751 0.5940732963115296
vn 0.571178378686578 -0.566420557109913 0.594073238081188
vn 0.6481074795859192 -0.47648073014981085 0.5940730668029738
vn 0.7110068171219349 -0.3762263937388388 0.5940732334152109
vn 0.7585151273666927 -0.267827901023044 0.5940732421086479
vn 0.7896038665285636 -0.15363184670709013 0.5940732190904681
vn 0.8036001128076952 -0.036110068719403324 0.5940731618517534
vn 0.8002008041402361 0.08219335810674369 0.5940731646324854
vn 0.7794795637113803 0.19871756446553746 0.5940731767460986
vn 0.7418848314272665 0.31094020764916747 0.5940732986469169
vn 0.688230748157647 0.41643187114010927 0.5940731722516283
vn 0.6196784366215684 0.5129090538554262 0.5940731753406986
vn 0.5377119760043971 0.5982834078979014 0.5940730550155595
vn 0.44410563418090326 0.670706464574109 0.594073248065655
vn 0.3408857318165301 0.7286109397070661 0.5940732415982852
vn 0.23028673163820465 0.7707432485783021 0.5940731150307673
vn 0.11470271596423712 0.7961911524014504 0.5940731737657222
vn 0.05422022849049376 0.7350472686309162 0.6758444197451574
vn -0.9912039049030302 -0.07311543082770988 -0.1103129760266814
vn -0.9891765218012828 -0.14673039466012178 3.23782852705983e-8
vn -0.9569403244607666 -0.29028471441142223 -4.2719455146439724e-8
vn -0.9039892891663487 -0.4275551017968422 -1.0688634382606446e-7
vn -0.831469721054773 -0.555570070260352 7.277113723343551e-8
vn -0.7409511692529572 -0.6715589064130362 5.055097952614652e-8
vn -0.6343930941434321 -0.7730106093082507 -9.810293704677321e-8
vn -0.5141028016376811 -0.8577285755693851 -2.6479925037897073e-8
vn -0.38268353881282186 -0.9238794884191746 1.4118894612030994e-7
vn -0.24298010998555342 -0.9700312707080159 2.183116464026413e-8
vn -0.09801709763388243 -0.9951847308773526 -3.783573319922972e-8
vn 0.04906773955777881 -0.9987954530006081 3.2343721140567964e-9
vn 0.19509040098352068 -0.980785264695634 -6.513687460449868e-8
vn 0.3368897402683825 -0.9415441056593689 2.956843983039351e-8
vn 0.4713966850155706 -0.8819212920416017 5.20210506190496e-8
vn 0.5956993822997634 -0.8032074737747747 -1.576832919288123e-7
vn 0.7071067811865476 -0.7071067811865476 -3.543088105814371e-9
vn 0.8032074949259452 -0.5956993537807186 1.4873414097365963e-7
vn 0.8819212920416017 -0.4713966850155706 -5.111379767889788e-8
vn 0.9415441056593686 -0.33688974026838236 -4.045473247225345e-8
vn 0.9807852732492781 -0.19509035798146238 6.170215414137677e-8
vn 0.9987954524528938 -0.04906775070674222 -1.7112924457455874e-8
vn 0.9951847308773526 0.09801709763388243 3.5033395250094654e-8
vn 0.9700312707080159 0.24298010998555342 -2.4367708084239518e-8
vn 0.9238794989558884 0.3826835133749508 -1.4309445280677791e-7
vn 0.8577286018526878 0.514102757786644 2.3292651399928376e-8
vn 0.7730105560904079 0.6343931589895878 9.867188363976394e-8
vn 0.6715589064130364 0.7409511692529573 -4.7520774152052856e-8
vn 0.5555701114675384 0.8314696935210215 -7.457840022615016e-8
vn 0.42755507744248505 0.9039893006851022 1.0181054060311995e-7
vn 0.2902847144114222 0.9569403244607664 4.501986915948014e-8
vn 0.1467303800797795 0.9891765239640707 -3.882214064805365e-8
vn 0.0731154309478964 0.9912039065323626 0.11031296130685168
vn -0.7350472686309162 -0.05422022849049376 -0.6758444197451574
vn -0.7961911524014504 -0.11470271596423712 -0.5940731737657222
vn -0.7707431944450225 -0.23028674817412928 -0.5940731788526287
vn -0.7286109397070661 -0.3408857318165301 -0.5940732415982852
vn -0.670706464574109 -0.44410563418090326 -0.594073248065655
vn -0.5982834078979014 -0.5377119760043971 -0.5940730550155595
vn -0.51290907201729 -0.6196784585640848 -0.5940731367718982
vn -0.4164318734772188 -0.6882306924155084 -0.5940732351903455
vn -0.3109402049097042 -0.7418848844957148 -0.5940732338083337
vn -0.1987175809743151 -0.7794795104126901 -0.5940732411567696
vn -0.08219335911658454 -0.8002007543669879 -0.5940732315360084
vn 0.03611006672858138 -0.8036000918022288 -0.5940731903867629
vn 0.15363184670709013 -0.7896038665285636 -0.5940732190904681
vn 0.267827901023044 -0.7585151273666927 -0.5940732421086479
vn 0.3762263937388388 -0.7110068171219349 -0.5940732334152109
vn 0.4764807132778595 -0.6481074566367478 -0.5940731053717785
vn 0.566420636931871 -0.5711783394690632 -0.5940731996808618
vn 0.6440991767087751 -0.481885016547134 -0.5940732963115296
vn 0.7078350685195764 -0.3821604199383988 -0.5940731682262658
vn 0.756248417975783 -0.2741630685949647 -0.5940731791014622
vn 0.788291162279199 -0.16023095073805257 -0.5940733001053735
vn 0.803269938886796 -0.04283050533833118 -0.5940731883305848
vn 0.8008602419610771 0.07549734562634534 -0.5940732477139676
vn 0.7811144504637408 0.192190749323757 -0.5940731698630237
vn 0.7444598635058648 0.3047238870099912 -0.59407311361006
vn 0.6916897736499575 0.4106607642270201 -0.5940732225513538
vn 0.6239470236522288 0.5077078336797403 -0.5940731161193463
vn 0.5426974338567572 0.5937647865468741 -0.5940731213766833
vn 0.44970009802700206 0.6669683615385638 -0.5940732501477142
vn 0.3469681328519241 0.72573415056061 -0.5940732762002675
vn 0.23672552561251825 0.7687900116539459 -0.5940731802603134
vn 0.12135840141419406 0.7952039198597232 -0.594073113552467
vn 0.06376106234469614 0.8643903058248394 -0.4987623944572369
vn -0.19687544142106736 -0.014522442839580181 -0.980320947047053
vn -0.29583481214565405 -0.03696024450409777 -0.9545238102053519
vn -0.28720966094120154 -0.0799682143486502 -0.9545238055470007
vn -0.2723672989765955 -0.12124505655704365 -0.9545238031126689
vn -0.2516289653048356 -0.15989738713287333 -0.9545238024311902
vn -0.225443631668252 -0.1950883867586056 -0.9545238028944875
vn -0.19437815165773042 -0.22605630658673184 -0.9545237977182601
vn -0.15910495782205217 -0.2521307760818871 -0.954523799676461
vn -0.12038763626442088 -0.272747367936138 -0.954523802908327
vn -0.07906422068297887 -0.28745982230114253 -0.9545238077546252
vn -0.03602937282528367 -0.295949611874258 -0.9545238140168599
vn 0.007785430830979304 -0.2980329764052988 -0.9545238247638321
vn 0.05143167546741258 -0.29366487811159814 -0.9545238195678069
vn 0.09396459937676109 -0.2829398521988931 -0.9545238048899741
vn 0.1344634602400561 -0.2660899777865641 -0.9545238088082542
vn 0.17205164026715744 -0.24348002941409969 -0.9545238123577063
vn 0.2059153735202647 -0.2155996231367782 -0.9545237877870247
vn 0.23532167246381291 -0.1830519301949112 -0.9545238086715027
vn 0.2596339596886307 -0.14654183463892795 -0.9545238067628589
vn 0.2783259762795629 -0.10685950569036999 -0.9545238063933439
vn 0.29099301130325417 -0.06486401101547455 -0.9545238223573305
vn 0.2973609916108331 -0.021464411540286454 -0.9545238183018019
vn 0.29729202597072796 0.022399785153339957 -0.954523808461216
vn 0.2907874947807461 0.06577920317001232 -0.9545238233325849
vn 0.2779884336696083 0.10773459815417676 -0.9545238012257609
vn 0.25917166379839973 0.14735795505394153 -0.9545237984284572
vn 0.2347446221057476 0.18379141296553358 -0.9545237969336136
vn 0.20523609215268432 0.21624629193485195 -0.9545238015378776
vn 0.1712847933635841 0.24402017685709518 -0.9545237937574037
vn 0.13362568490821397 0.26651173578638687 -0.9545237927998117
vn 0.093073936121641 0.28323403550114373 -0.9545238203149053
vn 0.05050756804591692 0.2938252700426191 -0.9545238060176755
vn 0.029728965181993028 0.403025975927991 -0.914705554458099
vn 0.4148193844591004 0.030598921323447804 -0.9093891269917485
vn 0.31417574815005384 0.05496700737017429 -0.9477722444633633
vn 0.30270990025955963 0.10047135268644994 -0.9477722424581775
vn 0.2846914259833581 0.1438006325826622 -0.9477722142162579
vn 0.2605100923688615 0.1840171255748993 -0.947772224360431
vn 0.23068951922535427 0.220250153411799 -0.9477722382733386
vn 0.19587527625900242 0.2517154865555004 -0.9477722247347128
vn 0.1568208813240744 0.27773193045158867 -0.9477722226296647
vn 0.11437184650265919 0.2977362647771628 -0.9477722286309698
vn 0.06944686760943544 0.31129553203561655 -0.9477722428484071
vn 0.023018721941161228 0.3181162538737809 -0.9477722234068204
vn -0.02390776915397113 0.318050588914819 -0.9477722518965288
vn -0.07031674624322551 0.31110015251491985 -0.947772256559011
vn -0.11520352186842106 0.29741534519124946 -0.9477722621990381
vn -0.1575965924361552 0.27729246777150024 -0.9477722307441298
vn -0.1965780895937769 0.2511670046696602 -0.947772224987065
vn -0.23130425365641302 0.2196044432574672 -0.9477722462395844
vn -0.2610233773896288 0.18328832439444803 -0.9477722229506343
vn -0.2850921433376192 0.1430042525701976 -0.9477722582741075
vn -0.3029895390676925 0.09962476677611777 -0.9477722537932578
vn -0.31432820032370207 0.054088742686797475 -0.9477722249548274
vn -0.318862490202967 0.007381724948990466 -0.9477722418800522
vn -0.31649447110505446 -0.03948495987305192 -0.9477722235346188
vn -0.30727521348988157 -0.08549705360300547 -0.9477722284388547
vn -0.2914044316454846 -0.12965828427150194 -0.9477722229191688
vn -0.26922557459678886 -0.17101283817203317 -0.9477722295801744
vn -0.241218826738846 -0.2086654659921886 -0.9477722305116336
vn -0.20799042840597193 -0.24180111935533244 -0.9477722302167375
vn -0.1702596267866243 -0.26970258682567966 -0.9477722163821939
vn -0.1288433253310398 -0.29176566669329734 -0.9477722264640674
vn -0.08463774454877121 -0.3075129627252124 -0.9477722458236782
vn -0.038600194373230645 -0.3166035345990847 -0.947772244198845
vn -0.015668776254660163 -0.21241698168408016 -0.9770534864289193
vn 0.8668785692327662 0.06394469738793193 -0.4944012761724204
vn 0.8028420989209613 0.12486053543221155 -0.582970334486899
vn 0.7758317138067511 0.24131061585714064 -0.582970272420753
vn 0.7320269312989672 0.35253697473626544 -0.5829701993213879
vn 0.6723759815183334 0.45613178914651425 -0.5829702654572164
vn 0.5981699797815456 0.5498529648246909 -0.5829703185940451
vn 0.5110155176434306 0.6316714079662945 -0.5829703020613449
vn 0.41279918166719637 0.6998160517278081 -0.5829702645581459
vn 0.3056468676538864 0.7528117922069328 -0.5829703232648755
vn 0.19187829183883295 0.7895115731391406 -0.5829701510372302
vn 0.07395601237062245 0.8091207107782864 -0.5829701395645208
vn -0.04556700625737261 0.8112149307063761 -0.5829699684716099
vn -0.1641037171603143 0.7957486536871563 -0.5829700251035603
vn -0.2790881315152053 0.7630567331416869 -0.5829701852191824
vn -0.3880311264394964 0.7138469840472914 -0.5829702636333021
vn -0.48857444116257037 0.6491846387942821 -0.5829702566994474
vn -0.5785414592541437 0.5704694406084526 -0.5829703227917911
vn -0.6559848736320041 0.4794054591549722 -0.5829701976074027
vn -0.7192282788427978 0.377963787228431 -0.582970032211578
vn -0.7669024867066561 0.2683398356841696 -0.5829702466405468
vn -0.7979756015378895 0.15290765498262993 -0.5829701436591385
vn -0.8117749268230688 0.034165286256940014 -0.5829701548075875
vn -0.8080018307005307 -0.0853165403341542 -0.5829700931694537
vn -0.7867378655601157 -0.202951567012888 -0.5829701470409325
vn -0.7484431963842584 -0.3161934656855654 -0.5829703886509721
vn -0.6939473711251332 -0.4225904919054029 -0.5829702584692176
vn -0.6244295028449696 -0.5198398056802719 -0.5829703014794848
vn -0.5413946480987761 -0.6058362094599632 -0.5829702585185508
vn -0.4466402097117369 -0.6787180694621896 -0.582970243884003
vn -0.34221753507507857 -0.7369076615954713 -0.5829702024709597
vn -0.23038671404120203 -0.7791454620681111 -0.5829702487537141
vn -0.11356848983024903 -0.8045171328988517 -0.5829703088407573
vn -0.05486286532434921 -0.7437567251594857 -0.6661951664403157
vn 0.9487250094040889 0.06998155445155399 -0.3082587201812068
vn 0.9438786552848977 0.11684027371371097 -0.3089359715799997
vn 0.9165186216278867 0.2540714721433121 -0.30893575910251797
vn 0.8693185336179307 0.3858029196417384 -0.30893590646650493
vn 0.8033006277984307 0.5091824586530513 -0.30893579458955706
vn 0.7198934603763322 0.6215400141809129 -0.3089359423559856
vn 0.6209027188900508 0.7204431316008554 -0.3089360901612099
vn 0.5084714938621838 0.8037507611633264 -0.30893600285323225
vn 0.38503322276224416 0.8696596087619585 -0.30893621066057825
vn 0.2532603490448746 0.9167431169846629 -0.30893567787310205
vn 0.11600491901109625 0.9439818060853574 -0.30893560582272767
vn -0.023761428491024077 0.9507860976699187 -0.30893557741651245
vn -0.16301350200306003 0.9370088522527473 -0.30893528280966487
vn -0.2987368699228382 0.902948080387091 -0.308935343840702
vn -0.4279934974764209 0.8493413156143143 -0.30893509950869436
vn -0.5479853865920556 0.7773484753137442 -0.3089358574347635
vn -0.6561148724410396 0.6885288317550372 -0.3089357894510151
vn -0.7500416513336082 0.5848042868930665 -0.3089360246009617
vn -0.8277322445917854 0.4684210006164772 -0.30893542601084584
vn -0.8875050438581235 0.34189736434153917 -0.3089352511169597
vn -0.928065895650643 0.207972794685233 -0.3089352844868707
vn -0.948536882000838 0.06954637236830598 -0.3089354067997663
vn -0.9484748845090223 -0.0703856796379332 -0.30893567219973705
vn -0.9278814591567924 -0.20879378462392195 -0.30893551633873517
vn -0.8872018670646267 -0.34268263809668825 -0.3089360073285967
vn -0.8273172519486206 -0.4691531440076809 -0.30893606473814417
vn -0.7495237638938069 -0.5854678789137586 -0.3089360615381201
vn -0.655505286853806 -0.6891090736241975 -0.30893608328505384
vn -0.5472971915656508 -0.7778331806035268 -0.30893579795250753
vn -0.4272416745234013 -0.8497194479077167 -0.30893593413173115
vn -0.29793801124860503 -0.903211868039552 -0.3089356937709353
vn -0.16218406309840264 -0.9371525250208641 -0.30893603629863575
vn -0.0699819315840927 -0.9487247919930908 -0.3082593036867278
f 34/34/34 1/1/1 35/35/35
f 1/1/1 2/2/2 35/35/35
f 35/35/35 2/2/2 36/36/36
f 2/2/2 3/3/3 36/36/36
f 36/36/36 3/3/3 37/37/37
f 3/3/3 4/4/4 37/37/37
f 37/37/37 4/4/4 38/38/38
f 4/4/4 5/5/5 38/38/38
f 38/38/38 5/5/5 39/39/39
f 5/5/5 6/6/6 39/39/39
f 39/39/39 6/6/6 40/40/40
f 6/6/6 7/7/7 40/40/40
f 40/40/40 7/7/7 41/41/41
f 7/7/7 8/8/8 41/41/41
f 41/41/41 8/8/8 42/42/42
f 8/8/8 9/9/9 42/42/42
f 42/42/42 9/9/9 43/43/43
f 9/9/9 10/10/10 43/43/43
f 43/43/43 10/10/10 44/44/44
f 10/10/10 11/11/11 44/44/44
f 44/44/44 11/11/11 45/45/45
f 11/11/11 12/12/12 45/45/45
f 45/45/45 12/12/12 46/46/46
f 12/12/12 13/13/13 46/46/46
f 46/46/46 13/13/13 47/47/47
f 13/13/13 14/14/14 47/47/47
f 47/47/47 14/14/14 48/48/48
f 14/14/14 15/15/15 48/48/48
f 48/48/48 15/15/15 49/49/49
f 15/15/15 16/16/16 49/49/49
f 49/49/49 16/16/16 50/50/50
f 16/16/16 17/17/17 50/50/50
f 50/50/50 17/17/17 51/51/51
f 17/17/17 18/18/18 51/51/51
f 51/51/51 18/18/18 52/52/52
f 18/18/18 19/19/19 52/52/52
f 52/52/52 19/19/19 53/53/53
f 19/19/19 20/20/20 53/53/53
f 53/53/53 20/20/20 54/54/54
f 20/20/20 21/21/21 54/54/54
f 54/54/54 21/21/21 55/55/55
f 21/21/21 22/22/22 55/55/55
f 55/55/55 22/22/22 56/56/56
f 22/22/22 23/23/23 56/56/56
f 56/56/56 23/23/23 57/57/57
f 23/23/23 24/24/24 57/57/57
f 57/57/57 24/24/24 58/58/58
f 24/24/24 25/25/25 58/58/58
f 58/58/58 25/25/25 59/59/59
f 25/25/25 26/26/26 59/59/59
f 59/59/59 26/26/26 60/60/60
f 26/26/26 27/27/27 60/60/60
f 60/60/60 27/27/27 61/61/61
f 27/27/27 28/28/28 61/61/61
f 61/61/61 28/28/28 62/62/62
f 28/28/28 29/29/29 62/62/62
f 62/62/62 29/29/29 63/63/63
f 29/29/29 30/30/30 63/63/63
f 63/63/63 30/30/30 64/64/64
f 30/30/30 31/31/31 64/64/64
f 64/64/64 31/31/31 65/65/65
f 31/31/31 32/32/32 65/65/65
f 65/65/65 32/32/32 66/66/66
f 32/32/32 33/33/33 66/66/66
f 67/67/67 34/34/34 68/68/68
f 34/34/34 35/35/35 68/68/68
f 68/68/68 35/35/35 69/69/69
f 35/35/35 36/36/36 69/69/69
f 69/69/69 36/36/36 70/70/70
f 36/36/36 37/37/37 70/70/70
f 70/70/70 37/37/37 71/71/71
f 37/37/37 38/38/38 71/71/71
f 71/71/71 38/38/38 72/72/72
f 38/38/38 39/39/39 72/72/72
f 72/72/72 39/39/39 73/73/73
f 39/39/39 40/40/40 73/73/73
f 73/73/73 40/40/40 74/74/74
f 40/40/40 41/41/41 74/74/74
f 74/74/74 41/41/41 75/75/75
f 41/41/41 42/42/42 75/75/75
f 75/75/75 42/42/42 76/76/76
f 42/42/42 43/43/43 76/76/76
f 76/76/76 43/43/43 77/77/77
f 43/43/43 44/44/44 77/77/77
f 77/77/77 44/44/44 78/78/78
f 44/44/44 45/45/45 78/78/78
f 78/78/78 45/45/45 79/79/79
f 45/45/45 46/46/46 79/79/79
f 79/79/79 46/46/46 80/80/80
f 46/46/46 47/47/47 80/80/80
f 80/80/80 47/47/47 81/81/81
f 47/47/47 48/48/48 81/81/81
f 81/81/81 48/48/48 82/82/82
f 48/48/48 49/49/49 82/82/82
f 82/82/82 49/49/49 83/83/83
f 49/49/49 50/50/50 83/83/83
f 83/83/83 50/50/50 84/84/84
f 50/50/50 51/51/51 84/84/84
f 84/84/84 51/51/51 85/85/85
f 51/51/51 52/52/52 85/85/85
f 85/85/85 52/52/52 86/86/86
f 52/52/52 53/53/53 86/86/86
f 86/86/86 53/53/53 87/87/87
f 53/53/53 54/54/54 87/87/87
f 87/87/87 54/54/54 88/88/88
f 54/54/54 55/55/55 88/88/88
f 88/88/88 55/55/55 89/89/89
f 55/55/55 56/56/56 89/89/89
f 89/89/89 56/56/56 90/90/90
f 56/56/56 57/57/57 90/90/90
f 90/90/90 57/57/57 91/91/91
f 57/57/57 58/58/58 91/91/91
f 91/91/91 58/58/58 92/92/92
f 58/58/58 59/59/59 92/92/92
f 92/92/92 59/59/59 93/93/93
f 59/59/59 60/60/60 93/93/93
f 93/93/93 60/60/60 94/94/94
f 60/60/60 61/61/61 94/94/94
f 94/94/94 61/61/61 95/95/95
f 61/61/61 62/62/62 95/95/95
f 95/95/95 62/62/62 96/96/96
f 62/62/62 63/63/63 96/96/96
f 96/96/96 63/63/63 97/97/97
f 63/63/63 64/64/64 97/97/97
f 97/97/97 64/64/64 98/98/98
f 64/64/64 65/65/65 98/98/98
f 98/98/98 65/65/65 99/99/99
f 65/65/65 66/66/66 99/99/99
f 100/100/100 67/67/67 101/101/101
f 67/67/67 68/68/68 101/101/101
f 101/101/101 68/68/68 102/102/102
f 68/68/68 69/69/69 102/102/102
f 102/102/102 69/69/69 103/103/103
f 69/69/69 70/70/70 103/103/103
f 103/103/103 70/70/70 104/104/104
f 70/70/70 71/71/71 104/104/104
f 104/104/104 71/71/71 105/105/105
f 71/71/71 72/72/72 105/105/105
f 105/105/105 72/72/72 106/106/106
f 72/72/72 73/73/73 106/106/106
f 106/106/106 73/73/73 107/107/107
f 73/73/73 74/74/74 107/107/107
f 107/107/107 74/74/74 108/108/108
f 74/74/74 75/75/75 108/108/108
f 108/108/108 75/75/75 109/109/109
f 75/75/75 76/76/76 109/109/109
f 109/109/109 76/76/76 110/110/110
f 76/76/76 77/77/77 110/110/110
f 110/110/110 77/77/77 111/111/111
f 77/77/77 78/78/78 111/111/111
f 111/111/111 78/78/78 112/112/112
f 78/78/78 79/79/79 112/112/112
f 112/112/112 79/79/79 113/113/113
f 79/79/79 80/80/80 113/113/113
f 113/113/113 80/80/80 114/114/114
f 80/80/80 81/81/81 114/114/114
f 114/114/114 81/81/81 115/115/115
f 81/81/81 82/82/82 115/115/115
f 115/115/115 82/82/82 116/116/116
f 82/82/82 83/83/83 116/116/116
f 116/116/116 83/83/83 117/117/117
f 83/83/83 84/84/84 117/117/117
f 117/117/117 84/84/84 118/118/118
f 84/84/84 85/85/85 118/118/118
f 118/118/118 85/85/85 119/119/119
f 85/85/85 86/86/86 119/119/119
f 119/119/119 86/86/86 120/120/120
f 86/86/86 87/87/87 120/120/120
f 120/120/120 87/87/87 121/121/121
f 87/87/87 88/88/88 121/121/121
f 121/121/121 88/88/88 122/122/122
f 88/88/88 89/89/89 122/122/122
f 122/122/122 89/89/89 123/123/123
f 89/89/89 90/90/90 123/123/123
f 123/123/123 90/90/90 124/124/124
f 90/90/90 91/91/91 124/124/124
f 124/124/124 91/91/91 125/125/125
f 91/91/91 92/92/92 125/125/125
f 125/125/125 92/92/92 126/126/126
f 92/92/92 93/93/93 126/126/126
f 126/126/126 93/93/93 127/127/127
f 93/93/93 94/94/94 127/127/127
f 127/127/127 94/94/94 128/128/128
f 94/94/94 95/95/95 128/128/128
f 128/128/128 95/95/95 129/129/129
f 95/95/95 96/96/96 129/129/129
f 129/129/129 96/96/96 130/130/130
f 96/96/96 97/97/97 130/130/130
f 130/130/130 97/97/97 131/131/131
f 97/97/97 98/98/98 131/131/131
f 131/131/131 98/98/98 132/132/132
f 98/98/98 99/99/99 132/132/132
f 133/133/133 100/100/100 134/134/134
f 100/100/100 101/101/101 134/134/134
f 134/134/134 101/101/101 135/135/135
f 101/101/101 102/102/102 135/135/135
f 135/135/135 102/102/102 136/136/136
f 102/102/102 103/103/103 136/136/136
f 136/136/136 103/103/103 137/137/137
f 103/103/103 104/104/104 137/137/137
f 137/137/137 104/104/104 138/138/138
f 104/104/104 105/105/105 138/138/138
f 138/138/138 105/105/105 139/139/139
f 105/105/105 106/106/106 139/139/139
f 139/139/139 106/106/106 140/140/140
f 106/106/106 107/107/107 140/140/140
f 140/140/140 107/107/107 141/141/141
f 107/107/107 108/108/108 141/141/141
f 141/141/141 108/108/108 142/142/142
f 108/108/108 109/109/109 142/142/142
f 142/142/142 109/109/109 143/143/143
f 109/109/109 110/110/110 143/143/143
f 143/143/143 110/110/110 144/144/144
f 110/110/110 111/111/111 144/144/144
f 144/144/144 111/111/111 145/145/145
f 111/111/111 112/112/112 145/145/145
f 145/145/145 112/112/112 146/146/146
f 112/112/112 113/113/113 146/146/146
f 146/146/146 113/113/113 147/147/147
f 113/113/113 114/114/114 147/147/147
f 147/147/147 114/114/114 148/148/148
f 114/114/114 115/115/115 148/148/148
f 148/148/148 115/115/115 149/149/149
f 115/115/115 116/116/116 149/149/149
f 149/149/149 116/116/116 150/150/150
f 116/116/116 117/117/117 150/150/150
f 150/150/150 117/117/117 151/151/151
f 117/117/117 118/118/118 151/151/151
f 151/151/151 118/118/118 152/152/152
f 118/118/118 119/119/119 152/152/152
f 152/152/152 119/119/119 153/153/153
f 119/119/119 120/120/120 153/153/153
f 153/153/153 120/120/120 154/154/154
f 120/120/120 121/121/121 154/154/154
f 154/154/154 121/121/121 155/155/155
f 121/121/121 122/122/122 155/155/155
f 155/155/155 122/122/122 156/156/156
f 122/122/122 123/123/123 156/156/156
f 156/156/156 123/123/123 157/157/157
f 123/123/123 124/124/124 157/157/157
f 157/157/157 124/124/124 158/158/158
f 124/124/124 125/125/125 158/158/158
f 158/158/158 125/125/125 159/159/159
f 125/125/125 126/126/126 159/159/159
f 159/159/159 126/126/126 160/160/160
f 126/126/126 127/127/127 160/160/160
f 160/160/160 127/127/127 161/161/161
f 127/127/127 128/128/128 161/161/161
f 161/161/161 128/128/128 162/162/162
f 128/128/128 129/129/129 162/162/162
f 162/162/162 129/129/129 163/163/163
f 129/129/129 130/130/130 163/163/163
f 163/163/163 130/130/130 164/164/164
f 130/130/130 131/131/131 164/164/164
f 164/164/164 131/131/131 165/165/165
f 131/131/131 132/132/132 165/165/165
f 166/166/166 133/133/133 167/167/167
f 133/133/133 134/134/134 167/167/167
f 167/167/167 134/134/134 168/168/168
f 134/134/134 135/135/135 168/168/168
f 168/168/168 135/135/135 169/169/169
f 135/135/135 136/136/136 169/169/169
f 169/169/169 136/136/136 170/170/170
f 136/136/136 137/137/137 170/170/170
f 170/170/170 137/137/137 171/171/171
f 137/137/137 138/138/138 171/171/171
f 171/171/171 138/138/138 172/172/172
f 138/138/138 139/139/139 172/172/172
f 172/172/172 139/139/139 173/173/173
f 139/139/139 140/140/140 173/173/173
f 173/173/173 140/140/140 174/174/174
f 140/140/140 141/141/141 174/174/174
f 174/174/174 141/141/141 175/175/175
f 141/141/141 142/142/142 175/175/175
f 175/175/175 142/142/142 176/176/176
f 142/142/142 143/143/143 176/176/176
f 176/176/176 143/143/143 177/177/177
f 143/143/143 144/144/144 177/177/177
f 177/177/177 144/144/144 178/178/178
f 144/144/144 145/145/145 178/178/178
f 178/178/178 145/145/145 179/179/179
f 145/145/145 146/146/146 179/179/179
f 179/179/179 146/146/146 180/180/180
f 146/146/146 147/147/147 180/180/180
f 180/180/180 147/147/147 181/181/181
f 147/147/147 148/148/148 181/181/181
f 181/181/181 148/148/148 182/182/182
f 148/148/148 149/149/149 182/182/182
f 182/182/182 149/149/149 183/183/183
f 149/149/149 150/150/150 183/183/183
f 183/183/183 150/150/150 184/184/184
f 150/150/150 151/151/151 184/184/184
f 184/184/184 151/151/151 185/185/185
f 151/151/151 152/152/152 185/185/185
f 185/185/185 152/152/152 186/186/186
f 152/152/152 153/153/153 186/186/186
f 186/186/186 153/153/153 187/187/187
f 153/153/153 154/154/154 187/187/187
f 187/187/187 154/154/154 188/188/188
f 154/154/154 155/155/155 188/188/188
f 188/188/188 155/155/155 189/189/189
f 155/155/155 156/156/156 189/189/189
f 189/189/189 156/156/156 190/190/190
f 156/156/156 157/157/157 190/190/190
f 190/190/190 157/157/157 191/191/191
f 157/157/157 158/158/158 191/191/191
f 191/191/191 158/158/158 192/192/192
f 158/158/158 159/159/159 192/192/192
f 192/192/192 159/159/159 193/193/193
f 159/159/159 160/160/160 193/193/193
f 193/193/193 160/160/160 194/194/194
f 160/160/160 161/161/161 194/194/194
f 194/194/194 161/161/161 195/195/195
f 161/161/161 162/162/162 195/195/195
f 195/195/195 162/162/162 196/196/196
f 162/162/162 163/163/163 196/196/196
f 196/196/196 163/163/163 197/197/197
f 163/163/163 164/164/164 197/197/197
f 197/197/197 164/164/164 198/198/198
f 164/164/164 165/165/165 198/198/198
f 199/199/199 166/166/166 200/200/200
f 166/166/166 167/167/167 200/200/200
f 200/200/200 167/167/167 201/201/201
f 167/167/167 168/168/168 201/201/201
f 201/201/201 168/168/168 202/202/202
f 168/168/168 169/169/169 202/202/202
f 202/202/202 169/169/169 203/203/203
f 169/169/169 170/170/170 203/203/203
f 203/203/203 170/170/170 204/204/204
f 170/170/170 171/171/171 204/204/204
f 204/204/204 171/171/171 205/205/205
f 171/171/171 172/172/172 205/205/205
f 205/205/205 172/172/172 206/206/206
f 172/172/172 173/173/173 206/206/206
f 206/206/206 173/173/173 207/207/207
f 173/173/173 174/174/174 207/207/207
f 207/207/207 174/174/174 208/208/208
f 174/174/174 175/175/175 208/208/208
f 208/208/208 175/175/175 209/209/209
f 175/175/175 176/176/176 209/209/209
f 209/209/209 176/176/176 210/210/210
f 176/176/176 177/177/177 210/210/210
f 210/210/210 177/177/177 211/211/211
f 177/177/177 178/178/178 211/211/211
f 211/211/211 178/178/178 212/212/212
f 178/178/178 179/179/179 212/212/212
f 212/212/212 179/179/179 213/213/213
f 179/179/179 180/180/180 213/213/213
f 213/213/213 180/180/180 214/214/214
f 180/180/180 181/181/181 214/214/214
f 214/214/214 181/181/181 215/215/215
f 181/181/181 182/182/182 215/215/215
f 215/215/215 182/182/182 216/216/216
f 182/182/182 183/183/183 216/216/216
f 216/216/216 183/183/183 217/217/217
f 183/183/183 184/184/184 217/217/217
f 217/217/217 184/184/184 218/218/218
f 184/184/184 185/185/185 218/218/218
f 218/218/218 185/185/185 219/219/219
f 185/185/185 186/186/186 219/219/219
f 219/219/219 186/186/186 220/220/220
f 186/186/186 187/187/187 220/220/220
f 220/220/220 187/187/187 221/221/221
f 187/187/187 188/188/188 221/221/221
f 221/221/221 188/188/188 222/222/222
f 188/188/188 189/189/189 222/222/222
f 222/222/222 189/189/189 223/223/223
f 189/189/189 190/190/190 223/223/223
f 223/223/223 190/190/190 224/224/224
f 190/190/190 191/191/191 224/224/224
f 224/224/224 191/191/191 225/225/225
f 191/191/191 192/192/192 225/225/225
f 225/225/225 192/192/192 226/226/226
f 192/192/192 193/193/193 226/226/226
f 226/226/226 193/193/193 227/227/227
f 193/193/193 194/194/194 227/227/227
f 227/227/227 194/194/194 228/228/228
f 194/194/194 195/195/195 228/228/228
f 228/228/228 195/195/195 229/229/229
f 195/195/195 196/196/196 229/229/229
f 229/229/229 196/196/196 230/230/230
f 196/196/196 197/197/197 230/230/230
f 230/230/230 197/197/197 231/231/231
f 197/197/197 198/198/198 231/231/231
f 232/232/232 199/199/199 233/233/233
f 199/199/199 200/200/200 233/233/233
f 233/233/233 200/200/200 234/234/234
f 200/200/200 201/201/201 234/234/234
f 234/234/234 201/201/201 235/235/235
f 201/201/201 202/202/202 235/235/235
f 235/235/235 202/202/202 236/236/236
f 202/202/202 203/203/203 236/236/236
f 236/236/236 203/203/203 237/237/237
f 203/203/203 204/204/204 237/237/237
f 237/237/237 204/204/204 238/238/238
f 204/204/204 205/205/205 238/238/238
f 238/238/238 205/205/205 239/239/239
f 205/205/205 206/206/206 239/239/239
f 239/239/239 206/206/206 240/240/240
f 206/206/206 207/207/207 240/240/240
f 240/240/240 207/207/207 241/241/241
f 207/207/207 208/208/208 241/241/241
f 241/241/241 208/208/208 242/242/242
f 208/208/208 209/209/209 242/242/242
f 242/242/242 209/209/209 243/243/243
f 209/209/209 210/210/210 243/243/243
f 243/243/243 210/210/210 244/244/244
f 210/210/210 211/211/211 244/244/244
f 244/244/244 211/211/211 245/245/245
f 211/211/211 212/212/212 245/245/245
f 245/245/245 212/212/212 246/246/246
f 212/212/212 213/213/213 246/246/246
f 246/246/246 213/213/213 247/247/247
f 213/213/213 214/214/214 247/247/247
f 247/247/247 214/214/214 248/248/248
f 214/214/214 215/215/215 248/248/248
f 248/248/248 215/215/215 249/249/249
f 215/215/215 216/216/216 249/249/249
f 249/249/249 216/216/216 250/250/250
f 216/216/216 217/217/217 250/250/250
f 250/250/250 217/217/217 251/251/251
f 217/217/217 218/218/218 251/251/251
f 251/251/251 218/218/218 252/252/252
f 218/218/218 219/219/219 252/252/252
f 252/252/252 219/219/219 253/253/253
f 219/219/219 220/220/220 253/253/253
f 253/253/253 220/220/220 254/254/254
f 220/220/220 221/221/221 254/254/254
f 254/254/254 221/221/221 255/255/255
f 221/221/221 222/222/222 255/255/255
f 255/255/255 222/222/222 256/256/256
f 222/222/222 223/223/223 256/256/256
f 256/256/256 223/223/223 257/257/257
f 223/223/223 224/224/224 257/257/257
f 257/257/257 224/224/224 258/258/258
f 224/224/224 225/225/225 258/258/258
f 258/258/258 225/225/225 259/259/259
f 225/225/225 226/226/226 259/259/259
f 259/259/259 226/226/226 260/260/260
f 226/226/226 227/227/227 260/260/260
f 260/260/260 227/227/227 261/261/261
f 227/227/227 228/228/228 261/261/261
f 261/261/261 228/228/228 262/262/262
f 228/228/228 229/229/229 262/262/262
f 262/262/262 229/229/229 263/263/263
f 229/229/229 230/230/230 263/263/263
f 263/263/263 230/230/230 264/264/264
f 230/230/230 231/231/231 264/264/264
f 265/265/265 232/232/232 266/266/266
f 232/232/232 233/233/233 266/266/266
f 266/266/266 233/233/233 267/267/267
f 233/233/233 234/234/234 267/267/267
f 267/267/267 234/234/234 268/268/268
f 234/234/234 235/235/235 268/268/268
f 268/268/268 235/235/235 269/269/269
f 235/235/235 236/236/236 269/269/269
f 269/269/269 236/236/236 270/270/270
f 236/236/236 237/237/237 270/270/270
f 270/270/270 237/237/237 271/271/271
f 237/237/237 238/238/238 271/271/271
f 271/271/271 238/238/238 272/272/272
f 238/238/238 239/239/239 272/272/272
f 272/272/272 239/239/239 273/273/273
f 239/239/239 240/240/240 273/273/273
f 273/273/273 240/240/240 274/274/274
f 240/240/240 241/241/241 274/274/274
f 274/274/274 241/241/241 275/275/275
f 241/241/241 242/242/242 275/275/275
f 275/275/275 242/242/242 276/276/276
f 242/242/242 243/243/243 276/276/276
f 276/276/276 243/243/243 277/277/277
f 243/243/243 244/244/244 277/277/277
f 277/277/277 244/244/244 278/278/278
f 244/244/244 245/245/245 278/278/278
f 278/278/278 245/245/245 279/279/279
f 245/245/245 246/246/246 279/279/279
f 279/279/279 246/246/246 280/280/280
f 246/246/246 247/247/247 280/280/280
f 280/280/280 247/247/247 281/281/281
f 247/247/247 248/248/248 281/281/281
f 281/281/281 248/248/248 282/282/282
f 248/248/248 249/249/249 282/282/282
f 282/282/282 249/249/249 283/283/283
f 249/249/249 250/250/250 283/283/283
f 283/283/283 250/250/250 284/284/284
f 250/250/250 251/251/251 284/284/284
f 284/284/284 251/251/251 285/285/285
f 251/251/251 252/252/252 285/285/285
f 285/285/285 252/252/252 286/286/286
f 252/252/252 253/253/253 286/286/286
f 286/286/286 253/253/253 287/287/287
f 253/253/253 254/254/254 287/287/287
f 287/287/287 254/254/254 288/288/288
f 254/254/254 255/255/255 288/288/288
f 288/288/288 255/255/255 289/289/289
f 255/255/255 256/256/256 289/289/289
f 289/289/289 256/256/256 290/290/290
f 256/256/256 257/257/257 290/290/290
f 290/290/290 257/257/257 291/291/291
f 257/257/257 258/258/258 291/291/291
f 291/291/291 258/258/258 292/292/292
f 258/258/258 259/259/259 292/292/292
f 292/292/292 259/259/259 293/293/293
f 259/259/259 260/260/260 293/293/293
f 293/293/293 260/260/260 294/294/294
f 260/260/260 261/261/261 294/294/294
f 294/294/294 261/261/261 295/295/295
f 261/261/261 262/262/262 295/295/295
f 295/295/295 262/262/262 296/296/296
f 262/262/262 263/263/263 296/296/296
f 296/296/296 263/263/263 297/297/297
f 263/263/263 264/264/264 297/297/297
f 298/298/298 265/265/265 299/299/299
f 265/265/265 266/266/266 299/299/299
f 299/299/299 266/266/266 300/300/300
f 266/266/266 267/267/267 300/300/300
f 300/300/300 267/267/267 301/301/301
f 267/267/267 268/268/268 301/301/301
f 301/301/301 268/268/268 302/302/302
f 268/268/268 269/269/269 302/302/302
f 302/302/302 269/269/269 303/303/303
f 269/269/269 270/270/270 303/303/303
f 303/303/303 270/270/270 304/304/304
f 270/270/270 271/271/271 304/304/304
f 304/304/304 271/271/271 305/305/305
f 271/271/271 272/272/272 305/305/305
f 305/305/305 272/272/272 306/306/306
f 272/272/272 273/273/273 306/306/306
f 306/306/306 273/273/273 307/307/307
f 273/273/273 274/274/274 307/307/307
f 307/307/307 274/274/274 308/308/308
f 274/274/274 275/275/275 308/308/308
f 308/308/308 275/275/275 309/309/309
f 275/275/275 276/276/276 309/309/309
f 309/309/309 276/276/276 310/310/310
f 276/276/276 277/277/277 310/310/310
f 310/310/310 277/277/277 311/311/311
f 277/277/277 278/278/278 311/311/311
f 311/311/311 278/278/278 312/312/312
f 278/278/278 279/279/279 312/312/312
f 312/312/312 279/279/279 313/313/313
f 279/279/279 280/280/280 313/313/313
f 313/313/313 280/280/280 314/314/314
f 280/280/280 281/281/281 314/314/314
f 314/314/314 281/281/281 315/315/315
f 281/281/281 282/282/282 315/315/315
f 315/315/315 282/282/282 316/316/316
f 282/282/282 283/283/283 316/316/316
f 316/316/316 283/283/283 317/317/317
f 283/283/283 284/284/284 317/317/317
f 317/317/317 284/284/284 318/318/318
f 284/284/284 285/285/285 318/318/318
f 318/318/318 285/285/285 319/319/319
f 285/285/285 286/286/286 319/319/319
f 319/319/319 286/286/286 320/320/320
f 286/286/286 287/287/287 320/320/320
f 320/320/320 287/287/287 321/321/321
f 287/287/287 288/288/288 321/321/321
f 321/321/321 288/288/288 322/322/322
f 288/288/288 289/289/289 322/322/322
f 322/322/322 289/289/289 323/323/323
f 289/289/289 290/290/290 323/323/323
f 323/323/323 290/290/290 324/324/324
f 290/290/290 291/291/291 324/324/324
f 324/324/324 291/291/291 325/325/325
f 291/291/291 292/292/292 325/325/325
f 325/325/325 292/292/292 326/326/326
f 292/292/292 293/293/293 326/326/326
f 326/326/326 293/293/293 327/327/327
f 293/293/293 294/294/294 327/327/327
f 327/327/327 294/294/294 328/328/328
f 294/294/294 295/295/295 328/328/328
f 328/328/328 295/295/295 329/329/329
f 295/295/295 296/296/296 329/329/329
f 329/329/329 296/296/296 330/330/330
f 296/296/296 297/297/297 330/330/330
f 331/331/331 298/298/298 332/332/332
f 298/298/298 299/299/299 332/332/332
f 332/332/332 299/299/299 333/333/333
f 299/299/299 300/300/300 333/333/333
f 333/333/333 300/300/300 334/334/334
f 300/300/300 301/301/301 334/334/334
f 334/334/334 301/301/301 335/335/335
f 301/301/301 302/302/302 335/335/335
f 335/335/335 302/302/302 336/336/336
f 302/302/302 303/303/303 336/336/336
f 336/336/336 303/303/303 337/337/337
f 303/303/303 304/304/304 337/337/337
f 337/337/337 304/304/304 338/338/338
f 304/304/304 305/305/305 338/338/338
f 338/338/338 305/305/305 339/339/339
f 305/305/305 306/306/306 339/339/339
f 339/339/339 306/306/306 340/340/340
f 306/306/306 307/307/307 340/340/340
f 340/340/340 307/307/307 341/341/341
f 307/307/307 308/308/308 341/341/341
f 341/341/341 308/308/308 342/342/342
f 308/308/308 309/309/309 342/342/342
f 342/342/342 309/309/309 343/343/343
f 309/309/309 310/310/310 343/343/343
f 343/343/343 310/310/310 344/344/344
f 310/310/310 311/311/311 344/344/344
f 344/344/344 311/311/311 345/345/345
f 311/311/311 312/312/312 345/345/345
f 345/345/345 312/312/312 346/346/346
f 312/312/312 313/313/313 346/346/346
f 346/346/346 313/313/313 347/347/347
f 313/313/313 314/314/314 347/347/347
f 347/347/347 314/314/314 348/348/348
f 314/314/314 315/315/315 348/348/348
f 348/348/348 315/315/315 349/349/349
f 315/315/315 316/316/316 349/349/349
f 349/349/349 316/316/316 350/350/350
f 316/316/316 317/317/317 350/350/350
f 350/350/350 317/317/317 351/351/351
f 317/317/317 318/318/318 351/351/351
f 351/351/351 318/318/318 352/352/352
f 318/318/318 319/319/319 352/352/352
f 352/352/352 319/319/319 353/353/353
f 319/319/319 320/320/320 353/353/353
f 353/353/353 320/320/320 354/354/354
f 320/320/320 321/321/321 354/354/354
f 354/354/354 321/321/321 355/355/355
f 321/321/321 322/322/322 355/355/355
f 355/355/355 322/322/322 356/356/356
f 322/322/322 323/323/323 356/356/356
f 356/356/356 323/323/323 357/357/357
f 323/323/323 324/324/324 357/357/357
f 357/357/357 324/324/324 358/358/358
f 324/324/324 325/325/325 358/358/358
f 358/358/358 325/325/325 359/359/359
f 325/325/325 326/326/326 359/359/359
f 359/359/359 326/326/326 360/360/360
f 326/326/326 327/327/327 360/360/360
f 360/360/360 327/327/327 361/361/361
f 327/327/327 328/328/328 361/361/361
f 361/361/361 328/328/328 362/362/362
f 328/328/328 329/329/329 362/362/362
f 362/362/362 329/329/329 363/363/363
f 329/329/329 330/330/330 363/363/363
