o shape_100
v 1 0.999732255935669 0
v 0.9866397976875305 1.1626713275909424 0
v 0.946915864944458 1.3212578296661377 0
v 0.8818895816802979 1.4712553024291992 0
v 0.793298065662384 1.6086567640304565 0
v 0.6835076212882996 1.7297918796539307 0
v 0.5554512739181519 1.831424593925476 0
v 0.41254982352256775 1.9108400344848633 0
v 0.25862061977386475 1.9659167528152466 0
v 0.0977756530046463 1.9951835870742798 0
v -0.06568837910890579 1.9978584051132202 0
v -0.22740481793880463 1.9738701581954956 0
v -0.38305366039276123 1.9238591194152832 0
v -0.5284770131111145 1.849161982536316 0
v -0.6597900986671448 1.751773476600647 0
v -0.7734851837158203 1.6342953443527222 0
v -0.8665250539779663 1.4998661279678345 0
v -0.9364242553710938 1.3520766496658325 0
v -0.981315553188324 1.194874882698059 0
v -1 1.03246009349823 0
v -0.9919781684875488 0.869171142578125 0
v -0.9574642777442932 0.7093698382377625 0
v -0.8973806500434875 0.5573251247406006 0
v -0.8133320808410645 0.4170985817909241 0
v -0.7075638771057129 0.2924361526966095 0
v -0.5829014182090759 0.18666791915893555 0
v -0.4426748752593994 0.10261938720941544 0
v -0.29063013195991516 0.04253566265106201 0
v -0.1308288872241974 0.008021902292966843 0
v 0.032460108399391174 0 0
v 0.1948748230934143 0.01868439093232155 0
v 0.35207661986351013 0.06357567757368088 0
v 0.4998661279678345 0.13347497582435608 0
v 0.9708592891693115 0.999732255935669 0.08968616276979446
v 0.9578883051872253 1.1579244136810303 0.08968616276979446
v 0.9193216562271118 1.3118908405303955 0.08968616276979446
v 0.8561899065971375 1.4575183391571045 0.08968616276979446
v 0.7701790928840637 1.5909168720245361 0.08968616276979446
v 0.663587212562561 1.7085227966308594 0.08968616276979446
v 0.539261519908905 1.807194709777832 0.08968616276979446
v 0.40052318572998047 1.8842967748641968 0.08968616276979446
v 0.25107842683792114 1.9377689361572266 0.08968616276979446
v 0.094919353723526 1.9661829471588135 0.08968616276979446
v -0.0637824758887291 1.9687799215316772 0.08968616276979446
v -0.2207876294851303 1.9454904794692993 0.08968616276979446
v -0.3719019591808319 1.8969365358352661 0.08968616276979446
v -0.5130886435508728 1.8244154453277588 0.08968616276979446
v -0.6405762434005737 1.729864239692688 0.08968616276979446
v -0.750959038734436 1.6158087253570557 0.08968616276979446
v -0.8412883877754211 1.4852957725524902 0.08968616276979446
v -0.9091511964797974 1.3418117761611938 0.08968616276979446
v -0.9527348279953003 1.1891897916793823 0.08968616276979446
v -0.9708746671676636 1.0315066576004028 0.08968616276979446
v -0.9630866050720215 0.8729748129844666 0.08968616276979446
v -0.929578423500061 0.7178289890289307 0.08968616276979446
v -0.8712450265884399 0.570213794708252 0.08968616276979446
v -0.7896450757980347 0.43407246470451355 0.08968616276979446
v -0.6869581937789917 0.3130417764186859 0.08968616276979446
v -0.5659275054931641 0.21035493910312653 0.08968616276979446
v -0.42978620529174805 0.12875494360923767 0.08968616276979446
v -0.28217101097106934 0.07042163610458374 0.08968616276979446
v -0.12702523171901703 0.0369134396314621 0.08968616276979446
v 0.03150664642453194 0.0291252713650465 0.08968616276979446
v 0.18918973207473755 0.0472651943564415 0.08968616276979446
v 0.34181177616119385 0.09084876626729965 0.08968616276979446
v 0.48529577255249023 0.15871161222457886 0.08968616276979446
v 0.8945675492286682 0.999732255935669 0.14511527121067047
v 0.8826155662536621 1.1454968452453613 0.14511527121067047
v 0.8470788598060608 1.287367582321167 0.14511527121067047
v 0.7889066338539124 1.421554684638977 0.14511527121067047
v 0.7096529006958008 1.5444735288619995 0.14511527121067047
v 0.611434817314148 1.6528403759002686 0.14511527121067047
v 0.49687615036964417 1.743760585784912 0.14511527121067047
v 0.36903709173202515 1.8148053884506226 0.14511527121067047
v 0.2313327044248581 1.864076852798462 0.14511527121067047
v 0.08744146674871445 1.8902587890625 0.14511527121067047
v -0.05879276990890503 1.8926516771316528 0.14511527121067047
v -0.2034635990858078 1.8711917400360107 0.14511527121067047
v -0.3427064120769501 1.826452374458313 0.14511527121067047
v -0.4728015065193176 1.759628415107727 0.14511527121067047
v -0.5902736783027649 1.6725051403045654 0.14511527121067047
v -0.6919848322868347 1.5674097537994385 0.14511527121067047
v -0.7752178907394409 1.4471499919891357 0.14511527121067047
v -0.8377494215965271 1.3149380683898926 0.14511527121067047
v -0.8779091835021973 1.1743059158325195 0.14511527121067047
v -0.8946239352226257 1.0290104150772095 0.14511527121067047
v -0.8874476552009583 0.8829327821731567 0.14511527121067047
v -0.8565718531608582 0.7399752736091614 0.14511527121067047
v -0.802821159362793 0.6039567589759827 0.14511527121067047
v -0.727631688117981 0.47851064801216125 0.14511527121067047
v -0.6330118775367737 0.3669881224632263 0.14511527121067047
v -0.5214893817901611 0.27236831188201904 0.14511527121067047
v -0.3960433006286621 0.19717884063720703 0.14511527121067047
v -0.2600247263908386 0.14342817664146423 0.14511527121067047
v -0.11706719547510147 0.11255228519439697 0.14511527121067047
v 0.029010456055402756 0.1053759828209877 0.14511527121067047
v 0.1743059754371643 0.12209087610244751 0.14511527121067047
v 0.3149380683898926 0.1622505635023117 0.14511527121067047
v 0.44714993238449097 0.22478210926055908 0.14511527121067047
v 0.8002660274505615 0.999732255935669 0.14511527121067047
v 0.7895735502243042 1.1301355361938477 0.14511527121067047
v 0.7577818036079407 1.257055401802063 0.14511527121067047
v 0.7057400345802307 1.3771013021469116 0.14511527121067047
v 0.6348384022712708 1.487066388130188 0.14511527121067047
v 0.5469709634780884 1.5840131044387817 0.14511527121067047
v 0.44448500871658325 1.6653517484664917 0.14511527121067047
v 0.33011817932128906 1.7289094924926758 0.14511527121067047
v 0.2069256454706192 1.7729884386062622 0.14511527121067047
v 0.07819829136133194 1.7964112758636475 0.14511527121067047
v -0.0526251494884491 1.7985520362854004 0.14511527121067047
v -0.182049959897995 1.7793537378311157 0.14511527121067047
v -0.30661875009536743 1.7393290996551514 0.14511527121067047
v -0.4230038821697235 1.6795471906661987 0.14511527121067047
v -0.5280963182449341 1.6016054153442383 0.14511527121067047
v -0.6190887093544006 1.5075854063034058 0.14511527121067047
v -0.6935502886772156 1.3999991416931152 0.14511527121067047
v -0.7494919896125793 1.2817203998565674 0.14511527121067047
v -0.7854194641113281 1.1559085845947266 0.14511527121067047
v -0.8003728985786438 1.0259250402450562 0.14511527121067047
v -0.7939528226852417 0.8952416181564331 0.14511527121067047
v -0.7663307785987854 0.7673496007919312 0.14511527121067047
v -0.7182446122169495 0.6456652283668518 0.14511527121067047
v -0.6509789824485779 0.5334392189979553 0.14511527121067047
v -0.5663305521011353 0.43366941809654236 0.14511527121067047
v -0.46656081080436707 0.3490210473537445 0.14511527121067047
v -0.3543347716331482 0.28175535798072815 0.14511527121067047
v -0.23265041410923004 0.2336692214012146 0.14511527121067047
v -0.1047583594918251 0.2060471922159195 0.14511527121067047
v 0.025924991816282272 0.1996271163225174 0.14511527121067047
v 0.15590865910053253 0.21458052098751068 0.14511527121067047
v 0.2817203104496002 0.25050801038742065 0.14511527121067047
v 0.39999914169311523 0.3064497113227844 0.14511527121067047
v 0.7239744067192078 0.999732255935669 0.08968616276979446
v 0.7143009305000305 1.1177079677581787 0.08968616276979446
v 0.6855389475822449 1.232532262802124 0.08968616276979446
v 0.6384568214416504 1.3411376476287842 0.08968616276979446
v 0.5743122100830078 1.4406230449676514 0.08968616276979446
v 0.49481862783432007 1.5283305644989014 0.08968616276979446
v 0.4020996391773224 1.6019175052642822 0.08968616276979446
v 0.29863208532333374 1.6594183444976807 0.08968616276979446
v 0.18717992305755615 1.6992963552474976 0.08968616276979446
v 0.07072041183710098 1.7204869985580444 0.08968616276979446
v -0.04763543978333473 1.722423791885376 0.08968616276979446
v -0.16472592949867249 1.7050549983978271 0.08968616276979446
v -0.2774232029914856 1.6688448190689087 0.08968616276979446
v -0.38271671533584595 1.6147602796554565 0.08968616276979446
v -0.47779378294944763 1.5442463159561157 0.08968616276979446
v -0.5601144433021545 1.4591866731643677 0.08968616276979446
v -0.6274798512458801 1.3618532419204712 0.08968616276979446
v -0.6780902743339539 1.2548465728759766 0.08968616276979446
v -0.7105937600135803 1.1410249471664429 0.08968616276979446
v -0.7241221070289612 1.0234287977218628 0.08968616276979446
v -0.7183139324188232 0.9051996469497681 0.08968616276979446
v -0.6933242082595825 0.7894958853721619 0.08968616276979446
v -0.6498208045959473 0.6794081330299377 0.08968616276979446
v -0.5889655351638794 0.5778773427009583 0.08968616276979446
v -0.512384295463562 0.487615704536438 0.08968616276979446
v -0.42212262749671936 0.4110344648361206 0.08968616276979446
v -0.32059183716773987 0.35017919540405273 0.08968616276979446
v -0.21050412952899933 0.3066757619380951 0.08968616276979446
v -0.09480030834674835 0.28168609738349915 0.08968616276979446
v 0.02342880144715309 0.2758778929710388 0.08968616276979446
v 0.1410249024629593 0.2894062399864197 0.08968616276979446
v 0.25484657287597656 0.32190972566604614 0.08968616276979446
v 0.36185333132743835 0.3725201487541199 0.08968616276979446
v 0.6948335766792297 0.999732255935669 1.8686054705325973e-17
v 0.6855493783950806 1.1129610538482666 1.8686054705325973e-17
v 0.6579446792602539 1.2231652736663818 1.8686054705325973e-17
v 0.6127569675445557 1.327400803565979 1.8686054705325973e-17
v 0.5511932373046875 1.422883152961731 1.8686054705325973e-17
v 0.47489818930625916 1.5070618391036987 1.8686054705325973e-17
v 0.38590988516807556 1.5776879787445068 1.8686054705325973e-17
v 0.28660547733306885 1.632874846458435 1.8686054705325973e-17
v 0.17963773012161255 1.671148657798767 1.8686054705325973e-17
v 0.06786410510540009 1.6914864778518677 1.8686054705325973e-17
v -0.045729536563158035 1.693345308303833 1.8686054705325973e-17
v -0.15810875594615936 1.6766754388809204 1.8686054705325973e-17
v -0.2662715017795563 1.6419222354888916 1.8686054705325973e-17
v -0.367328405380249 1.590013861656189 1.8686054705325973e-17
v -0.4585798680782318 1.5223371982574463 1.8686054705325973e-17
v -0.537588357925415 1.4406999349594116 1.8686054705325973e-17
v -0.6022431254386902 1.347282886505127 1.8686054705325973e-17
v -0.6508172154426575 1.2445818185806274 1.8686054705325973e-17
v -0.6820129156112671 1.1353398561477661 1.8686054705325973e-17
v -0.6949968934059143 1.022475242614746 1.8686054705325973e-17
v -0.6894223690032959 0.9090033173561096 1.8686054705325973e-17
v -0.6654382348060608 0.7979550361633301 1.8686054705325973e-17
v -0.6236851811408997 0.6922968029975891 1.8686054705325973e-17
v -0.5652785897254944 0.5948512554168701 1.8686054705325973e-17
v -0.49177858233451843 0.5082213878631592 1.8686054705325973e-17
v -0.40514877438545227 0.4347214102745056 1.8686054705325973e-17
v -0.3077031970024109 0.37631481885910034 1.8686054705325973e-17
v -0.2020449936389923 0.3345617353916168 1.8686054705325973e-17
v -0.09099666774272919 0.3105776309967041 1.8686054705325973e-17
v 0.022475341334939003 0.3050031065940857 1.8686054705325973e-17
v 0.13533981144428253 0.3179871141910553 1.8686054705325973e-17
v 0.24458174407482147 0.34918278455734253 1.8686054705325973e-17
v 0.34728291630744934 0.3977568447589874 1.8686054705325973e-17
v 0.7239744067192078 0.999732255935669 -0.08968616276979446
v 0.7143009305000305 1.1177079677581787 -0.08968616276979446
v 0.6855389475822449 1.232532262802124 -0.08968616276979446
v 0.6384568214416504 1.3411376476287842 -0.08968616276979446
v 0.5743122100830078 1.4406230449676514 -0.08968616276979446
v 0.49481862783432007 1.5283305644989014 -0.08968616276979446
v 0.4020996391773224 1.6019175052642822 -0.08968616276979446
v 0.29863208532333374 1.6594183444976807 -0.08968616276979446
v 0.18717992305755615 1.6992963552474976 -0.08968616276979446
v 0.07072041183710098 1.7204869985580444 -0.08968616276979446
v -0.04763543978333473 1.722423791885376 -0.08968616276979446
v -0.16472592949867249 1.7050549983978271 -0.08968616276979446
v -0.2774232029914856 1.6688448190689087 -0.08968616276979446
v -0.38271671533584595 1.6147602796554565 -0.08968616276979446
v -0.47779378294944763 1.5442463159561157 -0.08968616276979446
v -0.5601144433021545 1.4591866731643677 -0.08968616276979446
v -0.6274798512458801 1.3618532419204712 -0.08968616276979446
v -0.6780902743339539 1.2548465728759766 -0.08968616276979446
v -0.7105937600135803 1.1410249471664429 -0.08968616276979446
v -0.7241221070289612 1.0234287977218628 -0.08968616276979446
v -0.7183139324188232 0.9051996469497681 -0.08968616276979446
v -0.6933242082595825 0.7894958853721619 -0.08968616276979446
v -0.6498208045959473 0.6794081330299377 -0.08968616276979446
v -0.5889655351638794 0.5778773427009583 -0.08968616276979446
v -0.512384295463562 0.487615704536438 -0.08968616276979446
v -0.42212262749671936 0.4110344648361206 -0.08968616276979446
v -0.32059183716773987 0.35017919540405273 -0.08968616276979446
v -0.21050412952899933 0.3066757619380951 -0.08968616276979446
v -0.09480030834674835 0.28168609738349915 -0.08968616276979446
v 0.02342880144715309 0.2758778929710388 -0.08968616276979446
v 0.1410249024629593 0.2894062399864197 -0.08968616276979446
v 0.25484657287597656 0.32190972566604614 -0.08968616276979446
v 0.36185333132743835 0.3725201487541199 -0.08968616276979446
v 0.8002660274505615 0.999732255935669 -0.14511527121067047
v 0.7895735502243042 1.1301355361938477 -0.14511527121067047
v 0.7577818036079407 1.257055401802063 -0.14511527121067047
v 0.7057400345802307 1.3771013021469116 -0.14511527121067047
v 0.6348384022712708 1.487066388130188 -0.14511527121067047
v 0.5469709634780884 1.5840131044387817 -0.14511527121067047
v 0.44448500871658325 1.6653517484664917 -0.14511527121067047
v 0.33011817932128906 1.7289094924926758 -0.14511527121067047
v 0.2069256454706192 1.7729884386062622 -0.14511527121067047
v 0.07819829136133194 1.7964112758636475 -0.14511527121067047
v -0.0526251494884491 1.7985520362854004 -0.14511527121067047
v -0.182049959897995 1.7793537378311157 -0.14511527121067047
v -0.30661875009536743 1.7393290996551514 -0.14511527121067047
v -0.4230038821697235 1.6795471906661987 -0.14511527121067047
v -0.5280963182449341 1.6016054153442383 -0.14511527121067047
v -0.6190887093544006 1.5075854063034058 -0.14511527121067047
v -0.6935502886772156 1.3999991416931152 -0.14511527121067047
v -0.7494919896125793 1.2817203998565674 -0.14511527121067047
v -0.7854194641113281 1.1559085845947266 -0.14511527121067047
v -0.8003728985786438 1.0259250402450562 -0.14511527121067047
v -0.7939528226852417 0.8952416181564331 -0.14511527121067047
v -0.7663307785987854 0.7673496007919312 -0.14511527121067047
v -0.7182446122169495 0.6456652283668518 -0.14511527121067047
v -0.6509789824485779 0.5334392189979553 -0.14511527121067047
v -0.5663305521011353 0.43366941809654236 -0.14511527121067047
v -0.46656081080436707 0.3490210473537445 -0.14511527121067047
v -0.3543347716331482 0.28175535798072815 -0.14511527121067047
v -0.23265041410923004 0.2336692214012146 -0.14511527121067047
v -0.1047583594918251 0.2060471922159195 -0.14511527121067047
v 0.025924991816282272 0.1996271163225174 -0.14511527121067047
v 0.15590865910053253 0.21458052098751068 -0.14511527121067047
v 0.2817203104496002 0.25050801038742065 -0.14511527121067047
v 0.39999914169311523 0.3064497113227844 -0.14511527121067047
v 0.8945675492286682 0.999732255935669 -0.14511527121067047
v 0.8826155662536621 1.1454968452453613 -0.14511527121067047
v 0.8470788598060608 1.287367582321167 -0.14511527121067047
v 0.7889066338539124 1.421554684638977 -0.14511527121067047
v 0.7096529006958008 1.5444735288619995 -0.14511527121067047
v 0.611434817314148 1.6528403759002686 -0.14511527121067047
v 0.49687615036964417 1.743760585784912 -0.14511527121067047
v 0.36903709173202515 1.8148053884506226 -0.14511527121067047
v 0.2313327044248581 1.864076852798462 -0.14511527121067047
v 0.08744146674871445 1.8902587890625 -0.14511527121067047
v -0.05879276990890503 1.8926516771316528 -0.14511527121067047
v -0.2034635990858078 1.8711917400360107 -0.14511527121067047
v -0.3427064120769501 1.826452374458313 -0.14511527121067047
v -0.4728015065193176 1.759628415107727 -0.14511527121067047
v -0.5902736783027649 1.6725051403045654 -0.14511527121067047
v -0.6919848322868347 1.5674097537994385 -0.14511527121067047
v -0.7752178907394409 1.4471499919891357 -0.14511527121067047
v -0.8377494215965271 1.3149380683898926 -0.14511527121067047
v -0.8779091835021973 1.1743059158325195 -0.14511527121067047
v -0.8946239352226257 1.0290104150772095 -0.14511527121067047
v -0.8874476552009583 0.8829327821731567 -0.14511527121067047
v -0.8565718531608582 0.7399752736091614 -0.14511527121067047
v -0.802821159362793 0.6039567589759827 -0.14511527121067047
v -0.727631688117981 0.47851064801216125 -0.14511527121067047
v -0.6330118775367737 0.3669881224632263 -0.14511527121067047
v -0.5214893817901611 0.27236831188201904 -0.14511527121067047
v -0.3960433006286621 0.19717884063720703 -0.14511527121067047
v -0.2600247263908386 0.14342817664146423 -0.14511527121067047
v -0.11706719547510147 0.11255228519439697 -0.14511527121067047
v 0.029010456055402756 0.1053759828209877 -0.14511527121067047
v 0.1743059754371643 0.12209087610244751 -0.14511527121067047
v 0.3149380683898926 0.1622505635023117 -0.14511527121067047
v 0.44714993238449097 0.22478210926055908 -0.14511527121067047
v 0.9708592891693115 0.999732255935669 -0.08968616276979446
v 0.9578883051872253 1.1579244136810303 -0.08968616276979446
v 0.9193216562271118 1.3118908405303955 -0.08968616276979446
v 0.8561899065971375 1.4575183391571045 -0.08968616276979446
v 0.7701790928840637 1.5909168720245361 -0.08968616276979446
v 0.663587212562561 1.7085227966308594 -0.08968616276979446
v 0.539261519908905 1.807194709777832 -0.08968616276979446
v 0.40052318572998047 1.8842967748641968 -0.08968616276979446
v 0.25107842683792114 1.9377689361572266 -0.08968616276979446
v 0.094919353723526 1.9661829471588135 -0.08968616276979446
v -0.0637824758887291 1.9687799215316772 -0.08968616276979446
v -0.2207876294851303 1.9454904794692993 -0.08968616276979446
v -0.3719019591808319 1.8969365358352661 -0.08968616276979446
v -0.5130886435508728 1.8244154453277588 -0.08968616276979446
v -0.6405762434005737 1.729864239692688 -0.08968616276979446
v -0.750959038734436 1.6158087253570557 -0.08968616276979446
v -0.8412883877754211 1.4852957725524902 -0.08968616276979446
v -0.9091511964797974 1.3418117761611938 -0.08968616276979446
v -0.9527348279953003 1.1891897916793823 -0.08968616276979446
v -0.9708746671676636 1.0315066576004028 -0.08968616276979446
v -0.9630866050720215 0.8729748129844666 -0.08968616276979446
v -0.929578423500061 0.7178289890289307 -0.08968616276979446
v -0.8712450265884399 0.570213794708252 -0.08968616276979446
v -0.7896450757980347 0.43407246470451355 -0.08968616276979446
v -0.6869581937789917 0.3130417764186859 -0.08968616276979446
v -0.5659275054931641 0.21035493910312653 -0.08968616276979446
v -0.42978620529174805 0.12875494360923767 -0.08968616276979446
v -0.28217101097106934 0.07042163610458374 -0.08968616276979446
v -0.12702523171901703 0.0369134396314621 -0.08968616276979446
v 0.03150664642453194 0.0291252713650465 -0.08968616276979446
v 0.18918973207473755 0.0472651943564415 -0.08968616276979446
v 0.34181177616119385 0.09084876626729965 -0.08968616276979446
v 0.48529577255249023 0.15871161222457886 -0.08968616276979446
v 1 0.999732255935669 -3.7372109410651946e-17
v 0.9866397976875305 1.1626713275909424 -3.7372109410651946e-17
v 0.946915864944458 1.3212578296661377 -3.7372109410651946e-17
v 0.8818895816802979 1.4712553024291992 -3.7372109410651946e-17
v 0.793298065662384 1.6086567640304565 -3.7372109410651946e-17
v 0.6835076212882996 1.7297918796539307 -3.7372109410651946e-17
v 0.5554512739181519 1.831424593925476 -3.7372109410651946e-17
v 0.41254982352256775 1.9108400344848633 -3.7372109410651946e-17
v 0.25862061977386475 1.9659167528152466 -3.7372109410651946e-17
v 0.0977756530046463 1.9951835870742798 -3.7372109410651946e-17
v -0.06568837910890579 1.9978584051132202 -3.7372109410651946e-17
v -0.22740481793880463 1.9738701581954956 -3.7372109410651946e-17
v -0.38305366039276123 1.9238591194152832 -3.7372109410651946e-17
v -0.5284770131111145 1.849161982536316 -3.7372109410651946e-17
v -0.6597900986671448 1.751773476600647 -3.7372109410651946e-17
v -0.7734851837158203 1.6342953443527222 -3.7372109410651946e-17
v -0.8665250539779663 1.4998661279678345 -3.7372109410651946e-17
v -0.9364242553710938 1.3520766496658325 -3.7372109410651946e-17
v -0.981315553188324 1.194874882698059 -3.7372109410651946e-17
v -1 1.03246009349823 -3.7372109410651946e-17
v -0.9919781684875488 0.869171142578125 -3.7372109410651946e-17
v -0.9574642777442932 0.7093698382377625 -3.7372109410651946e-17
v -0.8973806500434875 0.5573251247406006 -3.7372109410651946e-17
v -0.8133320808410645 0.4170985817909241 -3.7372109410651946e-17
v -0.7075638771057129 0.2924361526966095 -3.7372109410651946e-17
v -0.5829014182090759 0.18666791915893555 -3.7372109410651946e-17
v -0.4426748752593994 0.10261938720941544 -3.7372109410651946e-17
v -0.29063013195991516 0.04253566265106201 -3.7372109410651946e-17
v -0.1308288872241974 0.008021902292966843 -3.7372109410651946e-17
v 0.032460108399391174 0 -3.7372109410651946e-17
v 0.1948748230934143 0.01868439093232155 -3.7372109410651946e-17
v 0.35207661986351013 0.06357567757368088 -3.7372109410651946e-17
v 0.4998661279678345 0.13347497582435608 -3.7372109410651946e-17
vt 0 0
vt 0.03125 0
vt 0.0625 0
vt 0.09375 0
vt 0.125 0
vt 0.15625 0
vt 0.1875 0
vt 0.21875 0
vt 0.25 0
vt 0.28125 0
vt 0.3125 0
vt 0.34375 0
vt 0.375 0
vt 0.40625 0
vt 0.4375 0
vt 0.46875 0
vt 0.5 0
vt 0.53125 0
vt 0.5625 0
vt 0.59375 0
vt 0.625 0
vt 0.65625 0
vt 0.6875 0
vt 0.71875 0
vt 0.75 0
vt 0.78125 0
vt 0.8125 0
vt 0.84375 0
vt 0.875 0
vt 0.90625 0
vt 0.9375 0
vt 0.96875 0
vt 1 0
vt 0 0.10000000149011612
vt 0.03125 0.10000000149011612
vt 0.0625 0.10000000149011612
vt 0.09375 0.10000000149011612
vt 0.125 0.10000000149011612
vt 0.15625 0.10000000149011612
vt 0.1875 0.10000000149011612
vt 0.21875 0.10000000149011612
vt 0.25 0.10000000149011612
vt 0.28125 0.10000000149011612
vt 0.3125 0.10000000149011612
vt 0.34375 0.10000000149011612
vt 0.375 0.10000000149011612
vt 0.40625 0.10000000149011612
vt 0.4375 0.10000000149011612
vt 0.46875 0.10000000149011612
vt 0.5 0.10000000149011612
vt 0.53125 0.10000000149011612
vt 0.5625 0.10000000149011612
vt 0.59375 0.10000000149011612
vt 0.625 0.10000000149011612
vt 0.65625 0.10000000149011612
vt 0.6875 0.10000000149011612
vt 0.71875 0.10000000149011612
vt 0.75 0.10000000149011612
vt 0.78125 0.10000000149011612
vt 0.8125 0.10000000149011612
vt 0.84375 0.10000000149011612
vt 0.875 0.10000000149011612
vt 0.90625 0.10000000149011612
vt 0.9375 0.10000000149011612
vt 0.96875 0.10000000149011612
vt 1 0.10000000149011612
vt 0 0.20000000298023224
vt 0.03125 0.20000000298023224
vt 0.0625 0.20000000298023224
vt 0.09375 0.20000000298023224
vt 0.125 0.20000000298023224
vt 0.15625 0.20000000298023224
vt 0.1875 0.20000000298023224
vt 0.21875 0.20000000298023224
vt 0.25 0.20000000298023224
vt 0.28125 0.20000000298023224
vt 0.3125 0.20000000298023224
vt 0.34375 0.20000000298023224
vt 0.375 0.20000000298023224
vt 0.40625 0.20000000298023224
vt 0.4375 0.20000000298023224
vt 0.46875 0.20000000298023224
vt 0.5 0.20000000298023224
vt 0.53125 0.20000000298023224
vt 0.5625 0.20000000298023224
vt 0.59375 0.20000000298023224
vt 0.625 0.20000000298023224
vt 0.65625 0.20000000298023224
vt 0.6875 0.20000000298023224
vt 0.71875 0.20000000298023224
vt 0.75 0.20000000298023224
vt 0.78125 0.20000000298023224
vt 0.8125 0.20000000298023224
vt 0.84375 0.20000000298023224
vt 0.875 0.20000000298023224
vt 0.90625 0.20000000298023224
vt 0.9375 0.20000000298023224
vt 0.96875 0.20000000298023224
vt 1 0.20000000298023224
vt 0 0.30000001192092896
vt 0.03125 0.30000001192092896
vt 0.0625 0.30000001192092896
vt 0.09375 0.30000001192092896
vt 0.125 0.30000001192092896
vt 0.15625 0.30000001192092896
vt 0.1875 0.30000001192092896
vt 0.21875 0.30000001192092896
vt 0.25 0.30000001192092896
vt 0.28125 0.30000001192092896
vt 0.3125 0.30000001192092896
vt 0.34375 0.30000001192092896
vt 0.375 0.30000001192092896
vt 0.40625 0.30000001192092896
vt 0.4375 0.30000001192092896
vt 0.46875 0.30000001192092896
vt 0.5 0.30000001192092896
vt 0.53125 0.30000001192092896
vt 0.5625 0.30000001192092896
vt 0.59375 0.30000001192092896
vt 0.625 0.30000001192092896
vt 0.65625 0.30000001192092896
vt 0.6875 0.30000001192092896
vt 0.71875 0.30000001192092896
vt 0.75 0.30000001192092896
vt 0.78125 0.30000001192092896
vt 0.8125 0.30000001192092896
vt 0.84375 0.30000001192092896
vt 0.875 0.30000001192092896
vt 0.90625 0.30000001192092896
vt 0.9375 0.30000001192092896
vt 0.96875 0.30000001192092896
vt 1 0.30000001192092896
vt 0 0.4000000059604645
vt 0.03125 0.4000000059604645
vt 0.0625 0.4000000059604645
vt 0.09375 0.4000000059604645
vt 0.125 0.4000000059604645
vt 0.15625 0.4000000059604645
vt 0.1875 0.4000000059604645
vt 0.21875 0.4000000059604645
vt 0.25 0.4000000059604645
vt 0.28125 0.4000000059604645
vt 0.3125 0.4000000059604645
vt 0.34375 0.4000000059604645
vt 0.375 0.4000000059604645
vt 0.40625 0.4000000059604645
vt 0.4375 0.4000000059604645
vt 0.46875 0.4000000059604645
vt 0.5 0.4000000059604645
vt 0.53125 0.4000000059604645
vt 0.5625 0.4000000059604645
vt 0.59375 0.4000000059604645
vt 0.625 0.4000000059604645
vt 0.65625 0.4000000059604645
vt 0.6875 0.4000000059604645
vt 0.71875 0.4000000059604645
vt 0.75 0.4000000059604645
vt 0.78125 0.4000000059604645
vt 0.8125 0.4000000059604645
vt 0.84375 0.4000000059604645
vt 0.875 0.4000000059604645
vt 0.90625 0.4000000059604645
vt 0.9375 0.4000000059604645
vt 0.96875 0.4000000059604645
vt 1 0.4000000059604645
vt 0 0.5
vt 0.03125 0.5
vt 0.0625 0.5
vt 0.09375 0.5
vt 0.125 0.5
vt 0.15625 0.5
vt 0.1875 0.5
vt 0.21875 0.5
vt 0.25 0.5
vt 0.28125 0.5
vt 0.3125 0.5
vt 0.34375 0.5
vt 0.375 0.5
vt 0.40625 0.5
vt 0.4375 0.5
vt 0.46875 0.5
vt 0.5 0.5
vt 0.53125 0.5
vt 0.5625 0.5
vt 0.59375 0.5
vt 0.625 0.5
vt 0.65625 0.5
vt 0.6875 0.5
vt 0.71875 0.5
vt 0.75 0.5
vt 0.78125 0.5
vt 0.8125 0.5
vt 0.84375 0.5
vt 0.875 0.5
vt 0.90625 0.5
vt 0.9375 0.5
vt 0.96875 0.5
vt 1 0.5
vt 0 0.6000000238418579
vt 0.03125 0.6000000238418579
vt 0.0625 0.6000000238418579
vt 0.09375 0.6000000238418579
vt 0.125 0.6000000238418579
vt 0.15625 0.6000000238418579
vt 0.1875 0.6000000238418579
vt 0.21875 0.6000000238418579
vt 0.25 0.6000000238418579
vt 0.28125 0.6000000238418579
vt 0.3125 0.6000000238418579
vt 0.34375 0.6000000238418579
vt 0.375 0.6000000238418579
vt 0.40625 0.6000000238418579
vt 0.4375 0.6000000238418579
vt 0.46875 0.6000000238418579
vt 0.5 0.6000000238418579
vt 0.53125 0.6000000238418579
vt 0.5625 0.6000000238418579
vt 0.59375 0.6000000238418579
vt 0.625 0.6000000238418579
vt 0.65625 0.6000000238418579
vt 0.6875 0.6000000238418579
vt 0.71875 0.6000000238418579
vt 0.75 0.6000000238418579
vt 0.78125 0.6000000238418579
vt 0.8125 0.6000000238418579
vt 0.84375 0.6000000238418579
vt 0.875 0.6000000238418579
vt 0.90625 0.6000000238418579
vt 0.9375 0.6000000238418579
vt 0.96875 0.6000000238418579
vt 1 0.6000000238418579
vt 0 0.699999988079071
vt 0.03125 0.699999988079071
vt 0.0625 0.699999988079071
vt 0.09375 0.699999988079071
vt 0.125 0.699999988079071
vt 0.15625 0.699999988079071
vt 0.1875 0.699999988079071
vt 0.21875 0.699999988079071
vt 0.25 0.699999988079071
vt 0.28125 0.699999988079071
vt 0.3125 0.699999988079071
vt 0.34375 0.699999988079071
vt 0.375 0.699999988079071
vt 0.40625 0.699999988079071
vt 0.4375 0.699999988079071
vt 0.46875 0.699999988079071
vt 0.5 0.699999988079071
vt 0.53125 0.699999988079071
vt 0.5625 0.699999988079071
vt 0.59375 0.699999988079071
vt 0.625 0.699999988079071
vt 0.65625 0.699999988079071
vt 0.6875 0.699999988079071
vt 0.71875 0.699999988079071
vt 0.75 0.699999988079071
vt 0.78125 0.699999988079071
vt 0.8125 0.699999988079071
vt 0.84375 0.699999988079071
vt 0.875 0.699999988079071
vt 0.90625 0.699999988079071
vt 0.9375 0.699999988079071
vt 0.96875 0.699999988079071
vt 1 0.699999988079071
vt 0 0.800000011920929
vt 0.03125 0.800000011920929
vt 0.0625 0.800000011920929
vt 0.09375 0.800000011920929
vt 0.125 0.800000011920929
vt 0.15625 0.800000011920929
vt 0.1875 0.800000011920929
vt 0.21875 0.800000011920929
vt 0.25 0.800000011920929
vt 0.28125 0.800000011920929
vt 0.3125 0.800000011920929
vt 0.34375 0.800000011920929
vt 0.375 0.800000011920929
vt 0.40625 0.800000011920929
vt 0.4375 0.800000011920929
vt 0.46875 0.800000011920929
vt 0.5 0.800000011920929
vt 0.53125 0.800000011920929
vt 0.5625 0.800000011920929
vt 0.59375 0.800000011920929
vt 0.625 0.800000011920929
vt 0.65625 0.800000011920929
vt 0.6875 0.800000011920929
vt 0.71875 0.800000011920929
vt 0.75 0.800000011920929
vt 0.78125 0.800000011920929
vt 0.8125 0.800000011920929
vt 0.84375 0.800000011920929
vt 0.875 0.800000011920929
vt 0.90625 0.800000011920929
vt 0.9375 0.800000011920929
vt 0.96875 0.800000011920929
vt 1 0.800000011920929
vt 0 0.8999999761581421
vt 0.03125 0.8999999761581421
vt 0.0625 0.8999999761581421
vt 0.09375 0.8999999761581421
vt 0.125 0.8999999761581421
vt 0.15625 0.8999999761581421
vt 0.1875 0.8999999761581421
vt 0.21875 0.8999999761581421
vt 0.25 0.8999999761581421
vt 0.28125 0.8999999761581421
vt 0.3125 0.8999999761581421
vt 0.34375 0.8999999761581421
vt 0.375 0.8999999761581421
vt 0.40625 0.8999999761581421
vt 0.4375 0.8999999761581421
vt 0.46875 0.8999999761581421
vt 0.5 0.8999999761581421
vt 0.53125 0.8999999761581421
vt 0.5625 0.8999999761581421
vt 0.59375 0.8999999761581421
vt 0.625 0.8999999761581421
vt 0.65625 0.8999999761581421
vt 0.6875 0.8999999761581421
vt 0.71875 0.8999999761581421
vt 0.75 0.8999999761581421
vt 0.78125 0.8999999761581421
vt 0.8125 0.8999999761581421
vt 0.84375 0.8999999761581421
vt 0.875 0.8999999761581421
vt 0.90625 0.8999999761581421
vt 0.9375 0.8999999761581421
vt 0.96875 0.8999999761581421
vt 1 0.8999999761581421
vt 0 1
vt 0.03125 1
vt 0.0625 1
vt 0.09375 1
vt 0.125 1
vt 0.15625 1
vt 0.1875 1
vt 0.21875 1
vt 0.25 1
vt 0.28125 1
vt 0.3125 1
vt 0.34375 1
vt 0.375 1
vt 0.40625 1
vt 0.4375 1
vt 0.46875 1
vt 0.5 1
vt 0.53125 1
vt 0.5625 1
vt 0.59375 1
vt 0.625 1
vt 0.65625 1
vt 0.6875 1
vt 0.71875 1
vt 0.75 1
vt 0.78125 1
vt 0.8125 1
vt 0.84375 1
vt 0.875 1
vt 0.90625 1
vt 0.9375 1
vt 0.96875 1
vt 1 1
vn 0.9481779642714222 0.07774593443096824 0.3080813492400296
vn 0.9338991551993194 0.18000817125405197 0.3089165359765793
vn 0.8921029593979717 0.32973203160075776 0.30891600342134723
vn 0.8264755255755489 0.4706474384198849 0.30891616068671585
vn 0.7387702230663469 0.5989900041316364 0.30891670796653625
vn 0.6313299521395517 0.7113318426048826 0.30891665741396007
vn 0.5070247121806253 0.8046716559097793 0.3089166026835847
vn 0.36917519460716497 0.8765159819548658 0.30891650824204786
vn 0.22146363226935378 0.9249456983300312 0.308916355544402
vn 0.06783645771409764 0.9486668349491216 0.3089165765581696
vn -0.0876033677059885 0.9470460993733552 0.30891638938114396
vn -0.24070278358703714 0.920126459112284 0.3089166055992171
vn -0.387372037646357 0.8686271106634263 0.3089172171799702
vn -0.5236935757960065 0.7939239956282437 0.3089170241920585
vn -0.6460255353484424 0.6980125274584562 0.3089166864849102
vn -0.7510997684341035 0.5834548497698062 0.3089167786610642
vn -0.8361098192900304 0.45331108692736205 0.308916539789514
vn -0.8987844138399037 0.3110578707442817 0.30891678246170845
vn -0.9374496732049838 0.16049512870249852 0.30891653220673926
vn -0.9510721452029517 0.005645360731006515 0.30891731016774115
vn -0.9392887449934504 -0.14935541305662275 0.3089168401355197
vn -0.9024137074563583 -0.30036672337463277 0.30891638364459906
vn -0.8414320792706012 -0.4433538237046291 0.30891656313774685
vn -0.7579730804515361 -0.5744974059121789 0.3089167200249707
vn -0.6542659499616096 -0.690294574080673 0.3089166031724665
vn -0.5330813457847895 -0.7876514094062113 0.3089167137541875
vn -0.3976564426563165 -0.8639676016592307 0.3089163914348355
vn -0.25160845510301 -0.9172042984179494 0.30891659114446035
vn -0.09883949078524028 -0.9459391753824318 0.3089171920403902
vn 0.05656993527211872 -0.9494051568983569 0.30891696372668576
vn 0.21046822169076773 -0.9275094445229681 0.30891642555717386
vn 0.3587440259643294 -0.8808366078277191 0.30891680780666736
vn 0.4067591423321806 -0.860019146246974 0.3080812688525787
vn 0.7434930278026967 0.0609629420935211 0.6659591859116296
vn 0.8026519352984096 0.12608775394722727 0.5829680514970449
vn 0.7713920518767393 0.25515213756644745 0.5829679999765566
vn 0.7195257523087212 0.3774006057466039 0.5829678160470484
vn 0.648438441556635 0.4895672110622508 0.5829678664937992
vn 0.5600291441014883 0.5886557646177593 0.5829680510450257
vn 0.45665963351257505 0.6720195245910007 0.5829680417386927
vn 0.3410913038950962 0.7374312853389546 0.5829681138882987
vn 0.21641115899504426 0.7831439991919279 0.5829679980857402
vn 0.0859500622036175 0.8079361964913444 0.5829680001563501
vn -0.046806980457018574 0.8111456128861285 0.5829681820443405
vn -0.17831397486269843 0.7926868391319014 0.5829680106453012
vn -0.30505728728599396 0.7530526520544956 0.5829680563353377
vn -0.4236515090938805 0.6933018444999752 0.5829682249105951
vn -0.5309287954586059 0.6150308308018846 0.5829680019658173
vn -0.6240230786092469 0.5203301300008917 0.5829680550221366
vn -0.7004476540716343 0.41172970881709736 0.5829680358158005
vn -0.7581607642562099 0.29213073630695313 0.5829681710412645
vn -0.795621290996708 0.16472766115866416 0.5829678884483503
vn -0.8118277863608032 0.03292451084455624 0.5829679424103563
vn -0.8063476597046146 -0.09975822910232611 0.5829680500810133
vn -0.7793273470314362 -0.22977623757951338 0.582968066717849
vn -0.7314885746254925 -0.35365631651992724 0.5829679879529596
vn -0.6641093629958554 -0.4680885769449501 0.5829681278722626
vn -0.5789895569639294 -0.5700169718929728 0.5829680477356185
vn -0.47840299165201167 -0.6567181802471863 0.5829681031679428
vn -0.365036778166208 -0.7258762569374833 0.5829681039306212
vn -0.24191913727424885 -0.7756439677844612 0.582967894707814
vn -0.11233883040825446 -0.8046915308915343 0.582967861287348
vn 0.02024194964755152 -0.8122428035615015 0.5829681736913417
vn 0.15228249049212883 -0.7980967120319886 0.5829679934037922
vn 0.28025466574783425 -0.7626305919540008 0.5829681831304859
vn 0.37170323074951916 -0.7859003405458026 0.4941632958652042
vn 0.2124108693132127 0.01741668971702506 0.9770252205121964
vn 0.31607740170838344 0.04286404570711054 0.9477646067008917
vn 0.3048732812403176 0.09377908508649024 0.9477646150738606
vn 0.2855249883332669 0.1421890080885798 0.9477646158282517
vn 0.25854942385799545 0.18680067492784996 0.9477645821981313
vn 0.22466710676103427 0.22642209105706126 0.9477645951505963
vn 0.184783191685801 0.2599951343689001 0.9477645816208295
vn 0.13996303441086108 0.28662277004356923 0.9477645998300712
vn 0.09140406393938659 0.30559372383572886 0.9477646190102144
vn 0.04040331437574365 0.3164014254768128 0.9477645858248217
vn -0.011676658269578595 0.318756827634162 0.9477646018333142
vn -0.06344470332144077 0.31259715312751274 0.9477646276776891
vn -0.11351803145545393 0.2980871253186779 0.9477645922135546
vn -0.16055885035871179 0.2756141437664224 0.9477645801186023
vn -0.2033105679971611 0.2457785354743618 0.9477645933673349
vn -0.24063128565439174 0.20937733641483566 0.947764588576796
vn -0.27152383852546386 0.16738303329374152 0.9477645938089184
vn -0.29516308615572495 0.12091733898109874 0.9477646066955434
vn -0.31091759374227307 0.07122159179542982 0.9477645988132496
vn -0.3183665266723096 0.019623178934142428 0.9477645728466157
vn -0.3173107219851504 -0.03249935074085066 0.9477645793733198
vn -0.30777848210091496 -0.08375374348371493 0.947764589129664
vn -0.2900244360468502 -0.13277083932306336 0.9477645966806081
vn -0.2645229712470003 -0.17824111981579244 0.9477645809426891
vn -0.23195514520128038 -0.21894996280911563 0.947764593346122
vn -0.19319102441861397 -0.2538099920955238 0.9477645889125403
vn -0.14926617068231798 -0.28188986002990885 0.947764589495807
vn -0.10135390500919464 -0.30243941817520925 0.9477646249323869
vn -0.05073401772253139 -0.314910058416648 0.9477645881513792
vn 0.0012409923219540828 -0.3189683221059272 0.9477645643465397
vn 0.05318286700099341 -0.31450575931157854 0.9477645857581947
vn 0.10370414094548701 -0.3016417363962063 0.9477645878669663
vn 0.17793368113660907 -0.3762092655995319 0.9092888394752441
vn -0.4029839272473729 -0.03304274699932519 0.9146103712789522
vn -0.2928334860555333 -0.0560618730339357 0.9545185256643742
vn -0.27978994982302235 -0.10301426628707985 0.9545185408986907
vn -0.25927235971497253 -0.14721487062381158 0.9545185306504239
vn -0.23182872240090002 -0.18748295551664354 0.9545185094385078
vn -0.1981921940743605 -0.22274266180023336 0.9545184968465189
vn -0.15926121533387463 -0.25205210418003265 0.9545185184525208
vn -0.11607583700236701 -0.27462852209471267 0.9545185042293699
vn -0.06978974592816288 -0.2898685974299753 0.9545185108667412
vn -0.021639303771035175 -0.297365271621902 0.9545185361036931
vn 0.027089242260086882 -0.29691848562178363 0.9545185099566382
vn 0.07509405183284634 -0.28853997654914854 0.9545184991985973
vn 0.12109288138195015 -0.27245349389399254 0.9545185214251073
vn 0.16385694002303178 -0.24908899005172588 0.9545185059710993
vn 0.20224380011347254 -0.2190703399443091 0.9545185338548154
vn 0.23522812515831243 -0.18319972161452577 0.9545185127250626
vn 0.26192865275488425 -0.1424351957798777 0.9545185152050009
vn 0.2816321908014925 -0.09786577724968704 0.9545185167128326
vn 0.2938123572629398 -0.05068202567215176 0.9545185336039116
vn 0.2981439295105901 -0.0021443262678535954 0.9545185169292637
vn 0.294510954475093 0.046450625142367356 0.9545185368121736
vn 0.2830106320869766 0.09380461285099473 0.9545185575637622
vn 0.26395029349432714 0.1386529681572574 0.9545185157897363
vn 0.2378388987165754 0.1797972803227015 0.9545185154023187
vn 0.2053739750936723 0.2161387230795781 0.9545185083274986
vn 0.16742287847413603 0.24670628112852813 0.9545185124528315
vn 0.12499927092990758 0.2706835889509009 0.9545185052892643
vn 0.0792366204869207 0.2874299335404641 0.9545185128004255
vn 0.03135721363344903 0.2964979985289096 0.9545185498572026
vn -0.01735979480172422 0.29764574342474065 0.9545185430077173
vn -0.06561307467924711 0.2908423778429286 0.9545185360598331
vn -0.11211365654265174 0.27626967905496214 0.9545185134147501
vn -0.0844555146951417 0.17856619233741775 0.9802965780781321
vn -0.8639765815672396 -0.07084196672968278 0.4985237027998344
vn -0.7930494980221412 -0.1347232284321965 0.5940725085438948
vn -0.760511274937799 -0.26210796689377686 0.5940723982674958
vn -0.7076571625295315 -0.382490845780122 0.5940724646161099
vn -0.6358991740656862 -0.4926561619718082 0.5940725094580506
vn -0.5471541794866119 -0.5896612312346686 0.5940723325060234
vn -0.4437929131088129 -0.6709141191529893 0.5940724661146668
vn -0.3285764139950723 -0.7342448194734105 0.5940724579061022
vn -0.2045825515617209 -0.7779614715459408 0.5940723258884985
vn -0.07512367537114281 -0.8008960507162346 0.5940723435288583
vn 0.05634217383378701 -0.802436000785803 0.5940724064376075
vn 0.1863026301327304 -0.7825402535097881 0.594072454876056
vn 0.3112865392264369 -0.7417403468772774 0.5940723426576969
vn 0.42795499169143447 -0.6811259231337795 0.5940723877790828
vn 0.5331912120048133 -0.6023163885094551 0.5940724699679031
vn 0.6241842959012568 -0.5074169517613671 0.5940723876897954
vn 0.6985031578476555 -0.39896286745514586 0.5940723599603173
vn 0.7541627814092654 -0.2798509571870428 0.5940723364191742
vn 0.7896759679599321 -0.15326346786091505 0.5940725334887911
vn 0.804094423383204 -0.022581778174597233 0.5940725726529597
vn 0.7970329698171014 0.10870331764591508 0.5940724145735962
vn 0.7686800732161966 0.23708441160898958 0.5940723245635686
vn 0.7197930708696543 0.3591322846905742 0.5940723333239489
vn 0.6516779619980994 0.4715864926566314 0.5940723977679998
vn 0.5661544281455422 0.5714430291397521 0.5940724096764455
vn 0.46550703789439746 0.656034480043579 0.5940723513720656
vn 0.35242429351247345 0.7231010789632981 0.5940723415076216
vn 0.2299272104142823 0.7708511299380068 0.594072397426782
vn 0.10128807389424724 0.7980091660786806 0.5940724677522116
vn -0.03005701907628738 0.8038498284516439 0.5940724104875688
vn -0.16059892851802 0.7882169230921093 0.5940724419715759
vn -0.2868508983363899 0.7515281409443954 0.594072399200861
vn -0.31521878078655124 0.6664740534612561 0.6756104323516348
vn -0.9905802335228785 -0.08122291937708488 -0.11024354095194397
vn -0.9866433296274223 -0.1628954882791837 -7.676017274000958e-9
vn -0.9469301670742498 -0.32143935459854606 5.9272661258833256e-8
vn -0.8819212920415945 -0.4713966850155667 -1.3884343285961798e-7
vn -0.7933533320874716 -0.6087614397000719 -4.102536333067297e-8
vn -0.6835923172237401 -0.7298640584606672 3.8418132547851424e-8
vn -0.5555701390012916 -0.831469675123562 -6.518683350713403e-8
vn -0.41270703368432543 -0.9108638231632012 3.646309235846186e-8
vn -0.2588191305443259 -0.9659258033949978 8.547571812194721e-8
vn -0.09801717880288516 -0.9951847228829039 3.4753380733710556e-8
vn 0.06540322885977247 -0.9978589167085276 -1.4365771325639569e-8
vn 0.22707622661343158 -0.9738769877695043 -4.840961285441297e-8
vn 0.3826833142364138 -0.9238795814417775 1.2716392626245695e-8
vn 0.5280678881577027 -0.8492021582030169 -4.783543528883588e-8
vn 0.6593458052486968 -0.7518398161183972 4.876659784169774e-8
vn 0.7730104736428844 -0.6343932594522134 -8.944696322830445e-9
vn 0.8660253740889629 -0.5000000514340684 2.6409022092822452e-8
vn 0.9359059401548072 -0.35225001232497055 6.741143514457239e-8
vn 0.9807853011787624 -0.19509021757043063 -8.112898011477118e-8
vn 0.9994645867182048 -0.03271910598108048 -8.355369501580439e-8
vn 0.9914448685035533 0.13052613806422034 1.102999983279233e-7
vn 0.9569403658539682 0.29028457795630047 7.637740498951579e-8
vn 0.8968727659700614 0.44228864066490714 -2.800945719788899e-9
vn 0.812846603617221 0.5824778098674183 -6.548079077764424e-8
vn 0.7071067811865476 0.7071067811865476 2.078308449823782e-9
vn 0.5824777422647403 0.8128466520606252 5.999293443291033e-8
vn 0.4422886646373215 0.8968727541481761 9.655041160194849e-9
vn 0.2902845779563005 0.9569403658539685 -7.47479031007126e-8
vn 0.13052613806422042 0.991444868503554 -1.0308780494416499e-7
vn -0.032719113423685046 0.9994645864745589 8.299870426705995e-8
vn -0.19509024623847038 0.9807852954763375 7.891961809382462e-8
vn -0.3522500123249708 0.9359059401548078 -5.690998646895828e-8
vn -0.4249490922527532 0.8984790708680885 0.1102434950714894
vn -0.7347927057598547 -0.06024946987988989 -0.6756105986004837
vn -0.7942678732384764 -0.12734391971118034 -0.594072446469132
vn -0.762915363417762 -0.2550256220763925 -0.5940724537846312
vn -0.7111829579472169 -0.37589472850460254 -0.5940723469476575
vn -0.6404522116391577 -0.4867226523269023 -0.5940724066293407
vn -0.5526130761555158 -0.5845483505604551 -0.5940723978767144
vn -0.4500116430663698 -0.6667588982973884 -0.5940724641371277
vn -0.33538889477219225 -0.7311581284328432 -0.5940724539061452
vn -0.21180699609430498 -0.7760255875559892 -0.5940724567457146
vn -0.08256685880685471 -0.8001628660457271 -0.5940724716970621
vn 0.04887890459542186 -0.8029251721514699 -0.5940724035091043
vn 0.17901887516817674 -0.7842386591514354 -0.5940723590825273
vn 0.3043765694661075 -0.7446025538918638 -0.5940723362501891
vn 0.42160361601715673 -0.6850754553075936 -0.5940723958377052
vn 0.5275681090651337 -0.6072477184949067 -0.5940724692158101
vn 0.6194394710180009 -0.5131986044512722 -0.5940723307259865
vn 0.6947636071651364 -0.40544006598361715 -0.5940722877344877
vn 0.751528147369076 -0.2868508709863048 -0.5940724042794805
vn 0.7882169005189902 -0.16059893606318082 -0.5940724698819249
vn 0.8038498284516439 -0.03005701907628738 -0.5940724104875688
vn 0.7980091384238135 0.10128806293354646 -0.5940725067693782
vn 0.770851186702471 0.22992717976479973 -0.5940723356332943
vn 0.7231010637737457 0.35242434571404785 -0.5940723290284631
vn 0.6560345139955015 0.4655070196918143 -0.5940723281422313
vn 0.5714430291397521 0.5661544281455422 -0.5940724096764455
vn 0.47158651583110084 0.6516779528391744 -0.594072389418685
vn 0.3591322846905742 0.7197930708696543 -0.5940723333239489
vn 0.2370844084078812 0.7686800515457092 -0.594072353880881
vn 0.10870328303159577 0.7970329941392823 -0.5940723882756406
vn -0.02258178189798782 0.8040944233155607 -0.5940725726029841
vn -0.1532634515228974 0.7896760201613074 -0.594072468314672
vn -0.279850967096417 0.7541628081137701 -0.5940722978503147
vn -0.37063735579395246 0.7836466997196755 -0.4985236208130241
vn -0.1968705896019322 -0.016142449812648577 -0.9802965838274832
vn -0.2953133215390333 -0.04104156695359469 -0.9545185340807046
vn -0.2846834020474179 -0.08859860763066828 -0.954518542158619
vn -0.2664487008654834 -0.13378883620938628 -0.9545185368094399
vn -0.24109626326040814 -0.17540522290547134 -0.9545185171694419
vn -0.20930332341217545 -0.21233587368524293 -0.9545185150404066
vn -0.171919199989539 -0.2435943230851191 -0.954518514454099
vn -0.12994249254298598 -0.26834562605136464 -0.9545185035455401
vn -0.084494614514528 -0.2859284329225169 -0.9545185128453587
vn -0.03678961936458973 -0.2958731428242623 -0.954518521173006
vn 0.011898218739358646 -0.2979141793141866 -0.9545185038302741
vn 0.060268150404993476 -0.29199681473363376 -0.9545185227286964
vn 0.10702806857102415 -0.2782793679026698 -0.954518510002633
vn 0.15092900663289252 -0.2571280644280144 -0.954518513932711
vn 0.19079809431695965 -0.2291079973557163 -0.954518524048994
vn 0.22557032964623921 -0.19496769655300608 -0.9545185297751437
vn 0.25431686891410676 -0.15561925028754572 -0.9545185064343525
vn 0.27626967905496214 -0.11211365654265174 -0.9545185134147501
vn 0.29084235070374354 -0.06561306782946145 -0.9545185448000091
vn 0.29764574343436506 -0.017359792939640427 -0.9545185430385817
vn 0.2964980257112776 0.03135721335636637 -0.9545185414227624
vn 0.2874298625071525 0.07923661733634751 -0.954518534451905
vn 0.2706835889509009 0.12499927092990758 -0.9545185052892643
vn 0.2467062671343108 0.16742287908961773 -0.9545185159618421
vn 0.21613873728461752 0.20537397443222064 -0.9545185052532636
vn 0.17979728095991668 0.23783888465833292 -0.9545185187852044
vn 0.1386529681572574 0.26395029349432714 -0.9545185157897363
vn 0.09380461205981148 0.28301065950228105 -0.9545185495129952
vn 0.046450625142367356 0.294510954475093 -0.9545185368121736
vn -0.0021443260540771718 0.2981439023575382 -0.9545185254110012
vn -0.05068202240021708 0.2938123300887974 -0.9545185421421709
vn -0.09786576987046579 0.28163219100684656 -0.9545185174088264
vn -0.1728761158024954 0.36551584987694746 -0.9146103061270274
vn 0.41477362153785446 0.03400948339403003 -0.9092888418515008
vn 0.313081450101154 0.06101045889876149 -0.9477645960403465
vn 0.2989613630956229 0.11119509187529199 -0.9477646094462764
vn 0.2768550141596279 0.1584094272536423 -0.9477646092210055
vn 0.2473530503356824 0.20139204226464025 -0.9477645877548448
vn 0.21124339555740632 0.23899476741571848 -0.9477645957627263
vn 0.16949071349670142 0.2702131924736074 -0.9477645955887994
vn 0.12321035793391497 0.2942133302641543 -0.9477645931309484
vn 0.07363866797111063 0.3103539852013617 -0.9477646070882124
vn 0.022099858739475554 0.3182041133895447 -0.9477646007662816
vn -0.030029389225939337 0.3175538993705679 -0.9477646104266947
vn -0.08135636235738443 0.3084208699464333 -0.9477645853720528
vn -0.1305100787228056 0.29104879909341913 -0.9477645888605702
vn -0.17617741472170495 0.265901867273039 -0.9477645886625473
vn -0.2171384881973177 0.23365177652845556 -0.9477645932764529
vn -0.25229907382356487 0.19516009360380285 -0.947764588498814
vn -0.2807198397138636 0.1514549814874627 -0.9477646122184848
vn -0.30164170953859426 0.1037041345072951 -0.9477645971193095
vn -0.3145057592492681 0.053182870715747066 -0.947764585570422
vn -0.3189683221061576 0.0012409917398783768 -0.9477645643472242
vn -0.3149100852040057 -0.050734020962091654 -0.9477645790774331
vn -0.3024394450231387 -0.10135391146969513 -0.9477646156741077
vn -0.28188985940291833 -0.14926618525147567 -0.9477645873877516
vn -0.25381001997799524 -0.1931910229572924 -0.947764581743528
vn -0.21894994862230213 -0.23195514595805922 -0.9477645964383068
vn -0.1782411342435453 -0.2645229705444273 -0.9477645784254265
vn -0.13277085166636188 -0.2900244900641034 -0.9477645784216912
vn -0.08375374348371493 -0.30777848210091496 -0.947764589129664
vn -0.032499350433517406 -0.3173107487867931 -0.9477645704106923
vn 0.01962317912032836 -0.31836649989066823 -0.9477645818390645
vn 0.07122159113548579 -0.3109176206636127 -0.9477645900311995
vn 0.12091735315350698 -0.2951631025639204 -0.9477645997773869
vn 0.09112212902077976 -0.19266155563281395 -0.9770252210582203
vn 0.8664613576101856 0.07104561650068708 -0.4941631675310812
vn 0.8005848792868742 0.13860762579678135 -0.5829680755652066
vn 0.7673133515905302 0.26716789269762303 -0.5829678701115685
vn 0.7135440732049456 0.388591350477827 -0.5829679390223048
vn 0.6407136246620554 0.49963417068722793 -0.5829680494281797
vn 0.55076777952388 0.5973299743627749 -0.5829680563856834
vn 0.4461090604297537 0.6790692270430707 -0.5829680017682005
vn 0.32953310350946935 0.7426682786851792 -0.5829680621836929
vn 0.2041543719205467 0.7864281523795472 -0.582968055360342
vn 0.07332204473244336 0.8091799827557178 -0.5829679521755118
vn -0.05946912594297488 0.810315784768114 -0.5829680540263028
vn -0.19067156891459666 0.7898053169676903 -0.5829681930407631
vn -0.3167805362198765 0.7481965395539808 -0.5829682925097178
vn -0.4344272559105229 0.6866011533558198 -0.5829681085038106
vn -0.5404689948284177 0.6066642448789644 -0.5829680605441395
vn -0.6320730610788395 0.5105212462487735 -0.5829680116327349
vn -0.7067921738368321 0.40074065218047605 -0.5829680546076019
vn -0.7626306433918503 0.2802546627466662 -0.5829681172829994
vn -0.7980967138430183 0.15228247593652494 -0.5829679947266548
vn -0.8122428520967926 0.020241947509046426 -0.5829681061419303
vn -0.8046915588526267 -0.11233883431175821 -0.5829678219394318
vn -0.7756439915295462 -0.2419191260898474 -0.5829678677560521
vn -0.725876220841539 -0.3650368197908496 -0.5829681228110059
vn -0.6567182124297444 -0.478402985293888 -0.5829680721317224
vn -0.5700169718929728 -0.5789895569639294 -0.5829680477356185
vn -0.4680886212259411 -0.6641094008597821 -0.5829680491831936
vn -0.35365629044506447 -0.7314885823352206 -0.5829679940973135
vn -0.22977625169393637 -0.7793273443630717 -0.5829680647218054
vn -0.09975824864978257 -0.8063476376560561 -0.5829680772330728
vn 0.03292450712330421 -0.8118277864603767 -0.5829679424818593
vn 0.16472765907071893 -0.7956213405167465 -0.582967821454509
vn 0.29213073630695313 -0.7581607642562099 -0.5829681710412645
vn 0.31895098554502377 -0.6743653514808077 -0.6659591890964675
vn 0.9481780868989352 0.07774573354557535 -0.30808102252514014
vn 0.9421990002060395 0.12973678228114788 -0.3089165119155552
vn 0.908480863778124 0.2814840019897767 -0.3089162941199009
vn 0.8504942656823056 0.42571169144260096 -0.30891594295308816
vn 0.7697877789882837 0.5585672787149133 -0.30891644577345095
vn 0.6685178872583176 0.6765015121894791 -0.3089167176133777
vn 0.5493897858623868 0.7763642161630034 -0.3089166020978575
vn 0.41558549328876115 0.8554877149973218 -0.30891660242952
vn 0.2706795305114698 0.9117583532423226 -0.3089163269478294
vn 0.11854290910513357 0.9436727125014858 -0.30891647800170874
vn -0.03676036029056156 0.9503784850202937 -0.30891651157204175
vn -0.1910817794609182 0.9316965451076631 -0.3089163339684284
vn -0.34029867790276686 0.8881256461644625 -0.30891689245262194
vn -0.4804250742985062 0.8208300123052493 -0.3089172039305012
vn -0.6077176970921281 0.7316075614475785 -0.3089167795277038
vn -0.7187762779394818 0.6228411130862743 -0.3089168336638769
vn -0.810633785368267 0.4974368852357757 -0.3089165117413503
vn -0.8808366078277191 0.3587440259643294 -0.30891680780666736
vn -0.9275094330750452 0.21046823399419376 -0.3089164515466496
vn -0.9494051570984341 0.05656993155874984 -0.30891696379178674
vn -0.9459391753824318 -0.09883949078524028 -0.3089171920403902
vn -0.9172042820788573 -0.25160849677398567 -0.30891660571640195
vn -0.8639676016592307 -0.3976564426563165 -0.3089163914348355
vn -0.7876514094062113 -0.5330813457847895 -0.3089167137541875
vn -0.6902945471610554 -0.654265984051654 -0.3089165911255562
vn -0.5744974059121789 -0.7579730804515361 -0.3089167200249707
vn -0.4433538237046291 -0.8414320792706012 -0.30891656313774685
vn -0.30036672337463277 -0.9024137074563583 -0.30891638364459906
vn -0.14935542762538329 -0.9392887429029985 -0.3089168394480039
vn 0.005645363524885161 -0.9510721451879502 -0.30891731016286855
vn 0.1604951301800856 -0.9374496818355481 -0.30891650524843556
vn 0.3110578707442817 -0.8987844138399037 -0.30891678246170845
vn 0.4067588985445458 -0.8600191348950627 -0.30808162241389175
f 34/34/34 1/1/1 35/35/35
f 1/1/1 2/2/2 35/35/35
f 35/35/35 2/2/2 36/36/36
f 2/2/2 3/3/3 36/36/36
f 36/36/36 3/3/3 37/37/37
f 3/3/3 4/4/4 37/37/37
f 37/37/37 4/4/4 38/38/38
f 4/4/4 5/5/5 38/38/38
f 38/38/38 5/5/5 39/39/39
f 5/5/5 6/6/6 39/39/39
f 39/39/39 6/6/6 40/40/40
f 6/6/6 7/7/7 40/40/40
f 40/40/40 7/7/7 41/41/41
f 7/7/7 8/8/8 41/41/41
f 41/41/41 8/8/8 42/42/42
f 8/8/8 9/9/9 42/42/42
f 42/42/42 9/9/9 43/43/43
f 9/9/9 10/10/10 43/43/43
f 43/43/43 10/10/10 44/44/44
f 10/10/10 11/11/11 44/44/44
f 44/44/44 11/11/11 45/45/45
f 11/11/11 12/12/12 45/45/45
f 45/45/45 12/12/12 46/46/46
f 12/12/12 13/13/13 46/46/46
f 46/46/46 13/13/13 47/47/47
f 13/13/13 14/14/14 47/47/47
f 47/47/47 14/14/14 48/48/48
f 14/14/14 15/15/15 48/48/48
f 48/48/48 15/15/15 49/49/49
f 15/15/15 16/16/16 49/49/49
f 49/49/49 16/16/16 50/50/50
f 16/16/16 17/17/17 50/50/50
f 50/50/50 17/17/17 51/51/51
f 17/17/17 18/18/18 51/51/51
f 51/51/51 18/18/18 52/52/52
f 18/18/18 19/19/19 52/52/52
f 52/52/52 19/19/19 53/53/53
f 19/19/19 20/20/20 53/53/53
f 53/53/53 20/20/20 54/54/54
f 20/20/20 21/21/21 54/54/54
f 54/54/54 21/21/21 55/55/55
f 21/21/21 22/22/22 55/55/55
f 55/55/55 22/22/22 56/56/56
f 22/22/22 23/23/23 56/56/56
f 56/56/56 23/23/23 57/57/57
f 23/23/23 24/24/24 57/57/57
f 57/57/57 24/24/24 58/58/58
f 24/24/24 25/25/25 58/58/58
f 58/58/58 25/25/25 59/59/59
f 25/25/25 26/26/26 59/59/59
f 59/59/59 26/26/26 60/60/60
f 26/26/26 27/27/27 60/60/60
f 60/60/60 27/27/27 61/61/61
f 27/27/27 28/28/28 61/61/61
f 61/61/61 28/28/28 62/62/62
f 28/28/28 29/29/29 62/62/62
f 62/62/62 29/29/29 63/63/63
f 29/29/29 30/30/30 63/63/63
f 63/63/63 30/30/30 64/64/64
f 30/30/30 31/31/31 64/64/64
f 64/64/64 31/31/31 65/65/65
f 31/31/31 32/32/32 65/65/65
f 65/65/65 32/32/32 66/66/66
f 32/32/32 33/33/33 66/66/66
f 67/67/67 34/34/34 68/68/68
f 34/34/34 35/35/35 68/68/68
f 68/68/68 35/35/35 69/69/69
f 35/35/35 36/36/36 69/69/69
f 69/69/69 36/36/36 70/70/70
f 36/36/36 37/37/37 70/70/70
f 70/70/70 37/37/37 71/71/71
f 37/37/37 38/38/38 71/71/71
f 71/71/71 38/38/38 72/72/72
f 38/38/38 39/39/39 72/72/72
f 72/72/72 39/39/39 73/73/73
f 39/39/39 40/40/40 73/73/73
f 73/73/73 40/40/40 74/74/74
f 40/40/40 41/41/41 74/74/74
f 74/74/74 41/41/41 75/75/75
f 41/41/41 42/42/42 75/75/75
f 75/75/75 42/42/42 76/76/76
f 42/42/42 43/43/43 76/76/76
f 76/76/76 43/43/43 77/77/77
f 43/43/43 44/44/44 77/77/77
f 77/77/77 44/44/44 78/78/78
f 44/44/44 45/45/45 78/78/78
f 78/78/78 45/45/45 79/79/79
f 45/45/45 46/46/46 79/79/79
f 79/79/79 46/46/46 80/80/80
f 46/46/46 47/47/47 80/80/80
f 80/80/80 47/47/47 81/81/81
f 47/47/47 48/48/48 81/81/81
f 81/81/81 48/48/48 82/82/82
f 48/48/48 49/49/49 82/82/82
f 82/82/82 49/49/49 83/83/83
f 49/49/49 50/50/50 83/83/83
f 83/83/83 50/50/50 84/84/84
f 50/50/50 51/51/51 84/84/84
f 84/84/84 51/51/51 85/85/85
f 51/51/51 52/52/52 85/85/85
f 85/85/85 52/52/52 86/86/86
f 52/52/52 53/53/53 86/86/86
f 86/86/86 53/53/53 87/87/87
f 53/53/53 54/54/54 87/87/87
f 87/87/87 54/54/54 88/88/88
f 54/54/54 55/55/55 88/88/88
f 88/88/88 55/55/55 89/89/89
f 55/55/55 56/56/56 89/89/89
f 89/89/89 56/56/56 90/90/90
f 56/56/56 57/57/57 90/90/90
f 90/90/90 57/57/57 91/91/91
f 57/57/57 58/58/58 91/91/91
f 91/91/91 58/58/58 92/92/92
f 58/58/58 59/59/59 92/92/92
f 92/92/92 59/59/59 93/93/93
f 59/59/59 60/60/60 93/93/93
f 93/93/93 60/60/60 94/94/94
f 60/60/60 61/61/61 94/94/94
f 94/94/94 61/61/61 95/95/95
f 61/61/61 62/62/62 95/95/95
f 95/95/95 62/62/62 96/96/96
f 62/62/62 63/63/63 96/96/96
f 96/96/96 63/63/63 97/97/97
f 63/63/63 64/64/64 97/97/97
f 97/97/97 64/64/64 98/98/98
f 64/64/64 65/65/65 98/98/98
f 98/98/98 65/65/65 99/99/99
f 65/65/65 66/66/66 99/99/99
f 100/100/100 67/67/67 101/101/101
f 67/67/67 68/68/68 101/101/101
f 101/101/101 68/68/68 102/102/102
f 68/68/68 69/69/69 102/102/102
f 102/102/102 69/69/69 103/103/103
f 69/69/69 70/70/70 103/103/103
f 103/103/103 70/70/70 104/104/104
f 70/70/70 71/71/71 104/104/104
f 104/104/104 71/71/71 105/105/105
f 71/71/71 72/72/72 105/105/105
f 105/105/105 72/72/72 106/106/106
f 72/72/72 73/73/73 106/106/106
f 106/106/106 73/73/73 107/107/107
f 73/73/73 74/74/74 107/107/107
f 107/107/107 74/74/74 108/108/108
f 74/74/74 75/75/75 108/108/108
f 108/108/108 75/75/75 109/109/109
f 75/75/75 76/76/76 109/109/109
f 109/109/109 76/76/76 110/110/110
f 76/76/76 77/77/77 110/110/110
f 110/110/110 77/77/77 111/111/111
f 77/77/77 78/78/78 111/111/111
f 111/111/111 78/78/78 112/112/112
f 78/78/78 79/79/79 112/112/112
f 112/112/112 79/79/79 113/113/113
f 79/79/79 80/80/80 113/113/113
f 113/113/113 80/80/80 114/114/114
f 80/80/80 81/81/81 114/114/114
f 114/114/114 81/81/81 115/115/115
f 81/81/81 82/82/82 115/115/115
f 115/115/115 82/82/82 116/116/116
f 82/82/82 83/83/83 116/116/116
f 116/116/116 83/83/83 117/117/117
f 83/83/83 84/84/84 117/117/117
f 117/117/117 84/84/84 118/118/118
f 84/84/84 85/85/85 118/118/118
f 118/118/118 85/85/85 119/119/119
f 85/85/85 86/86/86 119/119/119
f 119/119/119 86/86/86 120/120/120
f 86/86/86 87/87/87 120/120/120
f 120/120/120 87/87/87 121/121/121
f 87/87/87 88/88/88 121/121/121
f 121/121/121 88/88/88 122/122/122
f 88/88/88 89/89/89 122/122/122
f 122/122/122 89/89/89 123/123/123
f 89/89/89 90/90/90 123/123/123
f 123/123/123 90/90/90 124/124/124
f 90/90/90 91/91/91 124/124/124
f 124/124/124 91/91/91 125/125/125
f 91/91/91 92/92/92 125/125/125
f 125/125/125 92/92/92 126/126/126
f 92/92/92 93/93/93 126/126/126
f 126/126/126 93/93/93 127/127/127
f 93/93/93 94/94/94 127/127/127
f 127/127/127 94/94/94 128/128/128
f 94/94/94 95/95/95 128/128/128
f 128/128/128 95/95/95 129/129/129
f 95/95/95 96/96/96 129/129/129
f 129/129/129 96/96/96 130/130/130
f 96/96/96 97/97/97 130/130/130
f 130/130/130 97/97/97 131/131/131
f 97/97/97 98/98/98 131/131/131
f 131/131/131 98/98/98 132/132/132
f 98/98/98 99/99/99 132/132/132
f 133/133/133 100/100/100 134/134/134
f 100/100/100 101/101/101 134/134/134
f 134/134/134 101/101/101 135/135/135
f 101/101/101 102/102/102 135/135/135
f 135/135/135 102/102/102 136/136/136
f 102/102/102 103/103/103 136/136/136
f 136/136/136 103/103/103 137/137/137
f 103/103/103 104/104/104 137/137/137
f 137/137/137 104/104/104 138/138/138
f 104/104/104 105/105/105 138/138/138
f 138/138/138 105/105/105 139/139/139
f 105/105/105 106/106/106 139/139/139
f 139/139/139 106/106/106 140/140/140
f 106/106/106 107/107/107 140/140/140
f 140/140/140 107/107/107 141/141/141
f 107/107/107 108/108/108 141/141/141
f 141/141/141 108/108/108 142/142/142
f 108/108/108 109/109/109 142/142/142
f 142/142/142 109/109/109 143/143/143
f 109/109/109 110/110/110 143/143/143
f 143/143/143 110/110/110 144/144/144
f 110/110/110 111/111/111 144/144/144
f 144/144/144 111/111/111 145/145/145
f 111/111/111 112/112/112 145/145/145
f 145/145/145 112/112/112 146/146/146
f 112/112/112 113/113/113 146/146/146
f 146/146/146 113/113/113 147/147/147
f 113/113/113 114/114/114 147/147/147
f 147/147/147 114/114/114 148/148/148
f 114/114/114 115/115/115 148/148/148
f 148/148/148 115/115/115 149/149/149
f 115/115/115 116/116/116 149/149/149
f 149/149/149 116/116/116 150/150/150
f 116/116/116 117/117/117 150/150/150
f 150/150/150 117/117/117 151/151/151
f 117/117/117 118/118/118 151/151/151
f 151/151/151 118/118/118 152/152/152
f 118/118/118 119/119/119 152/152/152
f 152/152/152 119/119/119 153/153/153
f 119/119/119 120/120/120 153/153/153
f 153/153/153 120/120/120 154/154/154
f 120/120/120 121/121/121 154/154/154
f 154/154/154 121/121/121 155/155/155
f 121/121/121 122/122/122 155/155/155
f 155/155/155 122/122/122 156/156/156
f 122/122/122 123/123/123 156/156/156
f 156/156/156 123/123/123 157/157/157
f 123/123/123 124/124/124 157/157/157
f 157/157/157 124/124/124 158/158/158
f 124/124/124 125/125/125 158/158/158
f 158/158/158 125/125/125 159/159/159
f 125/125/125 126/126/126 159/159/159
f 159/159/159 126/126/126 160/160/160
f 126/126/126 127/127/127 160/160/160
f 160/160/160 127/127/127 161/161/161
f 127/127/127 128/128/128 161/161/161
f 161/161/161 128/128/128 162/162/162
f 128/128/128 129/129/129 162/162/162
f 162/162/162 129/129/129 163/163/163
f 129/129/129 130/130/130 163/163/163
f 163/163/163 130/130/130 164/164/164
f 130/130/130 131/131/131 164/164/164
f 164/164/164 131/131/131 165/165/165
f 131/131/131 132/132/132 165/165/165
f 166/166/166 133/133/133 167/167/167
f 133/133/133 134/134/134 167/167/167
f 167/167/167 134/134/134 168/168/168
f 134/134/134 135/135/135 168/168/168
f 168/168/168 135/135/135 169/169/169
f 135/135/135 136/136/136 169/169/169
f 169/169/169 136/136/136 170/170/170
f 136/136/136 137/137/137 170/170/170
f 170/170/170 137/137/137 171/171/171
f 137/137/137 138/138/138 171/171/171
f 171/171/171 138/138/138 172/172/172
f 138/138/138 139/139/139 172/172/172
f 172/172/172 139/139/139 173/173/173
f 139/139/139 140/140/140 173/173/173
f 173/173/173 140/140/140 174/174/174
f 140/140/140 141/141/141 174/174/174
f 174/174/174 141/141/141 175/175/175
f 141/141/141 142/142/142 175/175/175
f 175/175/175 142/142/142 176/176/176
f 142/142/142 143/143/143 176/176/176
f 176/176/176 143/143/143 177/177/177
f 143/143/143 144/144/144 177/177/177
f 177/177/177 144/144/144 178/178/178
f 144/144/144 145/145/145 178/178/178
f 178/178/178 145/145/145 179/179/179
f 145/145/145 146/146/146 179/179/179
f 179/179/179 146/146/146 180/180/180
f 146/146/146 147/147/147 180/180/180
f 180/180/180 147/147/147 181/181/181
f 147/147/147 148/148/148 181/181/181
f 181/181/181 148/148/148 182/182/182
f 148/148/148 149/149/149 182/182/182
f 182/182/182 149/149/149 183/183/183
f 149/149/149 150/150/150 183/183/183
f 183/183/183 150/150/150 184/184/184
f 150/150/150 151/151/151 184/184/184
f 184/184/184 151/151/151 185/185/185
f 151/151/151 152/152/152 185/185/185
f 185/185/185 152/152/152 186/186/186
f 152/152/152 153/153/153 186/186/186
f 186/186/186 153/153/153 187/187/187
f 153/153/153 154/154/154 187/187/187
f 187/187/187 154/154/154 188/188/188
f 154/154/154 155/155/155 188/188/188
f 188/188/188 155/155/155 189/189/189
f 155/155/155 156/156/156 189/189/189
f 189/189/189 156/156/156 190/190/190
f 156/156/156 157/157/157 190/190/190
f 190/190/190 157/157/157 191/191/191
f 157/157/157 158/158/158 191/191/191
f 191/191/191 158/158/158 192/192/192
f 158/158/158 159/159/159 192/192/192
f 192/192/192 159/159/159 193/193/193
f 159/159/159 160/160/160 193/193/193
f 193/193/193 160/160/160 194/194/194
f 160/160/160 161/161/161 194/194/194
f 194/194/194 161/161/161 195/195/195
f 161/161/161 162/162/162 195/195/195
f 195/195/195 162/162/162 196/196/196
f 162/162/162 163/163/163 196/196/196
f 196/196/196 163/163/163 197/197/197
f 163/163/163 164/164/164 197/197/197
f 197/197/197 164/164/164 198/198/198
f 164/164/164 165/165/165 198/198/198
f 199/199/199 166/166/166 200/200/200
f 166/166/166 167/167/167 200/200/200
f 200/200/200 167/167/167 201/201/201
f 167/167/167 168/168/168 201/201/201
f 201/201/201 168/168/168 202/202/202
f 168/168/168 169/169/169 202/202/202
f 202/202/202 169/169/169 203/203/203
f 169/169/169 170/170/170 203/203/203
f 203/203/203 170/170/170 204/204/204
f 170/170/170 171/171/171 204/204/204
f 204/204/204 171/171/171 205/205/205
f 171/171/171 172/172/172 205/205/205
f 205/205/205 172/172/172 206/206/206
f 172/172/172 173/173/173 206/206/206
f 206/206/206 173/173/173 207/207/207
f 173/173/173 174/174/174 207/207/207
f 207/207/207 174/174/174 208/208/208
f 174/174/174 175/175/175 208/208/208
f 208/208/208 175/175/175 209/209/209
f 175/175/175 176/176/176 209/209/209
f 209/209/209 176/176/176 210/210/210
f 176/176/176 177/177/177 210/210/210
f 210/210/210 177/177/177 211/211/211
f 177/177/177 178/178/178 211/211/211
f 211/211/211 178/178/178 212/212/212
f 178/178/178 179/179/179 212/212/212
f 212/212/212 179/179/179 213/213/213
f 179/179/179 180/180/180 213/213/213
f 213/213/213 180/180/180 214/214/214
f 180/180/180 181/181/181 214/214/214
f 214/214/214 181/181/181 215/215/215
f 181/181/181 182/182/182 215/215/215
f 215/215/215 182/182/182 216/216/216
f 182/182/182 183/183/183 216/216/216
f 216/216/216 183/183/183 217/217/217
f 183/183/183 184/184/184 217/217/217
f 217/217/217 184/184/184 218/218/218
f 184/184/184 185/185/185 218/218/218
f 218/218/218 185/185/185 219/219/219
f 185/185/185 186/186/186 219/219/219
f 219/219/219 186/186/186 220/220/220
f 186/186/186 187/187/187 220/220/220
f 220/220/220 187/187/187 221/221/221
f 187/187/187 188/188/188 221/221/221
f 221/221/221 188/188/188 222/222/222
f 188/188/188 189/189/189 222/222/222
f 222/222/222 189/189/189 223/223/223
f 189/189/189 190/190/190 223/223/223
f 223/223/223 190/190/190 224/224/224
f 190/190/190 191/191/191 224/224/224
f 224/224/224 191/191/191 225/225/225
f 191/191/191 192/192/192 225/225/225
f 225/225/225 192/192/192 226/226/226
f 192/192/192 193/193/193 226/226/226
f 226/226/226 193/193/193 227/227/227
f 193/193/193 194/194/194 227/227/227
f 227/227/227 194/194/194 228/228/228
f 194/194/194 195/195/195 228/228/228
f 228/228/228 195/195/195 229/229/229
f 195/195/195 196/196/196 229/229/229
f 229/229/229 196/196/196 230/230/230
f 196/196/196 197/197/197 230/230/230
f 230/230/230 197/197/197 231/231/231
f 197/197/197 198/198/198 231/231/231
f 232/232/232 199/199/199 233/233/233
f 199/199/199 200/200/200 233/233/233
f 233/233/233 200/200/200 234/234/234
f 200/200/200 201/201/201 234/234/234
f 234/234/234 201/201/201 235/235/235
f 201/201/201 202/202/202 235/235/235
f 235/235/235 202/202/202 236/236/236
f 202/202/202 203/203/203 236/236/236
f 236/236/236 203/203/203 237/237/237
f 203/203/203 204/204/204 237/237/237
f 237/237/237 204/204/204 238/238/238
f 204/204/204 205/205/205 238/238/238
f 238/238/238 205/205/205 239/239/239
f 205/205/205 206/206/206 239/239/239
f 239/239/239 206/206/206 240/240/240
f 206/206/206 207/207/207 240/240/240
f 240/240/240 207/207/207 241/241/241
f 207/207/207 208/208/208 241/241/241
f 241/241/241 208/208/208 242/242/242
f 208/208/208 209/209/209 242/242/242
f 242/242/242 209/209/209 243/243/243
f 209/209/209 210/210/210 243/243/243
f 243/243/243 210/210/210 244/244/244
f 210/210/210 211/211/211 244/244/244
f 244/244/244 211/211/211 245/245/245
f 211/211/211 212/212/212 245/245/245
f 245/245/245 212/212/212 246/246/246
f 212/212/212 213/213/213 246/246/246
f 246/246/246 213/213/213 247/247/247
f 213/213/213 214/214/214 247/247/247
f 247/247/247 214/214/214 248/248/248
f 214/214/214 215/215/215 248/248/248
f 248/248/248 215/215/215 249/249/249
f 215/215/215 216/216/216 249/249/249
f 249/249/249 216/216/216 250/250/250
f 216/216/216 217/217/217 250/250/250
f 250/250/250 217/217/217 251/251/251
f 217/217/217 218/218/218 251/251/251
f 251/251/251 218/218/218 252/252/252
f 218/218/218 219/219/219 252/252/252
f 252/252/252 219/219/219 253/253/253
f 219/219/219 220/220/220 253/253/253
f 253/253/253 220/220/220 254/254/254
f 220/220/220 221/221/221 254/254/254
f 254/254/254 221/221/221 255/255/255
f 221/221/221 222/222/222 255/255/255
f 255/255/255 222/222/222 256/256/256
f 222/222/222 223/223/223 256/256/256
f 256/256/256 223/223/223 257/257/257
f 223/223/223 224/224/224 257/257/257
f 257/257/257 224/224/224 258/258/258
f 224/224/224 225/225/225 258/258/258
f 258/258/258 225/225/225 259/259/259
f 225/225/225 226/226/226 259/259/259
f 259/259/259 226/226/226 260/260/260
f 226/226/226 227/227/227 260/260/260
f 260/260/260 227/227/227 261/261/261
f 227/227/227 228/228/228 261/261/261
f 261/261/261 228/228/228 262/262/262
f 228/228/228 229/229/229 262/262/262
f 262/262/262 229/229/229 263/263/263
f 229/229/229 230/230/230 263/263/263
f 263/263/263 230/230/230 264/264/264
f 230/230/230 231/231/231 264/264/264
f 265/265/265 232/232/232 266/266/266
f 232/232/232 233/233/233 266/266/266
f 266/266/266 233/233/233 267/267/267
f 233/233/233 234/234/234 267/267/267
f 267/267/267 234/234/234 268/268/268
f 234/234/234 235/235/235 268/268/268
f 268/268/268 235/235/235 269/269/269
f 235/235/235 236/236/236 269/269/269
f 269/269/269 236/236/236 270/270/270
f 236/236/236 237/237/237 270/270/270
f 270/270/270 237/237/237 271/271/271
f 237/237/237 238/238/238 271/271/271
f 271/271/271 238/238/238 272/272/272
f 238/238/238 239/239/239 272/272/272
f 272/272/272 239/239/239 273/273/273
f 239/239/239 240/240/240 273/273/273
f 273/273/273 240/240/240 274/274/274
f 240/240/240 241/241/241 274/274/274
f 274/274/274 241/241/241 275/275/275
f 241/241/241 242/242/242 275/275/275
f 275/275/275 242/242/242 276/276/276
f 242/242/242 243/243/243 276/276/276
f 276/276/276 243/243/243 277/277/277
f 243/243/243 244/244/244 277/277/277
f 277/277/277 244/244/244 278/278/278
f 244/244/244 245/245/245 278/278/278
f 278/278/278 245/245/245 279/279/279
f 245/245/245 246/246/246 279/279/279
f 279/279/279 246/246/246 280/280/280
f 246/246/246 247/247/247 280/280/280
f 280/280/280 247/247/247 281/281/281
f 247/247/247 248/248/248 281/281/281
f 281/281/281 248/248/248 282/282/282
f 248/248/248 249/249/249 282/282/282
f 282/282/282 249/249/249 283/283/283
f 249/249/249 250/250/250 283/283/283
f 283/283/283 250/250/250 284/284/284
f 250/250/250 251/251/251 284/284/284
f 284/284/284 251/251/251 285/285/285
f 251/251/251 252/252/252 285/285/285
f 285/285/285 252/252/252 286/286/286
f 252/252/252 253/253/253 286/286/286
f 286/286/286 253/253/253 287/287/287
f 253/253/253 254/254/254 287/287/287
f 287/287/287 254/254/254 288/288/288
f 254/254/254 255/255/255 288/288/288
f 288/288/288 255/255/255 289/289/289
f 255/255/255 256/256/256 289/289/289
f 289/289/289 256/256/256 290/290/290
f 256/256/256 257/257/257 290/290/290
f 290/290/290 257/257/257 291/291/291
f 257/257/257 258/258/258 291/291/291
f 291/291/291 258/258/258 292/292/292
f 258/258/258 259/259/259 292/292/292
f 292/292/292 259/259/259 293/293/293
f 259/259/259 260/260/260 293/293/293
f 293/293/293 260/260/260 294/294/294
f 260/260/260 261/261/261 294/294/294
f 294/294/294 261/261/261 295/295/295
f 261/261/261 262/262/262 295/295/295
f 295/295/295 262/262/262 296/296/296
f 262/262/262 263/263/263 296/296/296
f 296/296/296 263/263/263 297/297/297
f 263/263/263 264/264/264 297/297/297
f 298/298/298 265/265/265 299/299/299
f 265/265/265 266/266/266 299/299/299
f 299/299/299 266/266/266 300/300/300
f 266/266/266 267/267/267 300/300/300
f 300/300/300 267/267/267 301/301/301
f 267/267/267 268/268/268 301/301/301
f 301/301/301 268/268/268 302/302/302
f 268/268/268 269/269/269 302/302/302
f 302/302/302 269/269/269 303/303/303
f 269/269/269 270/270/270 303/303/303
f 303/303/303 270/270/270 304/304/304
f 270/270/270 271/271/271 304/304/304
f 304/304/304 271/271/271 305/305/305
f 271/271/271 272/272/272 305/305/305
f 305/305/305 272/272/272 306/306/306
f 272/272/272 273/273/273 306/306/306
f 306/306/306 273/273/273 307/307/307
f 273/273/273 274/274/274 307/307/307
f 307/307/307 274/274/274 308/308/308
f 274/274/274 275/275/275 308/308/308
f 308/308/308 275/275/275 309/309/309
f 275/275/275 276/276/276 309/309/309
f 309/309/309 276/276/276 310/310/310
f 276/276/276 277/277/277 310/310/310
f 310/310/310 277/277/277 311/311/311
f 277/277/277 278/278/278 311/311/311
f 311/311/311 278/278/278 312/312/312
f 278/278/278 279/279/279 312/312/312
f 312/312/312 279/279/279 313/313/313
f 279/279/279 280/280/280 313/313/313
f 313/313/313 280/280/280 314/314/314
f 280/280/280 281/281/281 314/314/314
f 314/314/314 281/281/281 315/315/315
f 281/281/281 282/282/282 315/315/315
f 315/315/315 282/282/282 316/316/316
f 282/282/282 283/283/283 316/316/316
f 316/316/316 283/283/283 317/317/317
f 283/283/283 284/284/284 317/317/317
f 317/317/317 284/284/284 318/318/318
f 284/284/284 285/285/285 318/318/318
f 318/318/318 285/285/285 319/319/319
f 285/285/285 286/286/286 319/319/319
f 319/319/319 286/286/286 320/320/320
f 286/286/286 287/287/287 320/320/320
f 320/320/320 287/287/287 321/321/321
f 287/287/287 288/288/288 321/321/321
f 321/321/321 288/288/288 322/322/322
f 288/288/288 289/289/289 322/322/322
f 322/322/322 289/289/289 323/323/323
f 289/289/289 290/290/290 323/323/323
f 323/323/323 290/290/290 324/324/324
f 290/290/290 291/291/291 324/324/324
f 324/324/324 291/291/291 325/325/325
f 291/291/291 292/292/292 325/325/325
f 325/325/325 292/292/292 326/326/326
f 292/292/292 293/293/293 326/326/326
f 326/326/326 293/293/293 327/327/327
f 293/293/293 294/294/294 327/327/327
f 327/327/327 294/294/294 328/328/328
f 294/294/294 295/295/295 328/328/328
f 328/328/328 295/295/295 329/329/329
f 295/295/295 296/296/296 329/329/329
f 329/329/329 296/296/296 330/330/330
f 296/296/296 297/297/297 330/330/330
f 331/331/331 298/298/298 332/332/332
f 298/298/298 299/299/299 332/332/332
f 332/332/332 299/299/299 333/333/333
f 299/299/299 300/300/300 333/333/333
f 333/333/333 300/300/300 334/334/334
f 300/300/300 301/301/301 334/334/334
f 334/334/334 301/301/301 335/335/335
f 301/301/301 302/302/302 335/335/335
f 335/335/335 302/302/302 336/336/336
f 302/302/302 303/303/303 336/336/336
f 336/336/336 303/303/303 337/337/337
f 303/303/303 304/304/304 337/337/337
f 337/337/337 304/304/304 338/338/338
f 304/304/304 305/305/305 338/338/338
f 338/338/338 305/305/305 339/339/339
f 305/305/305 306/306/306 339/339/339
f 339/339/339 306/306/306 340/340/340
f 306/306/306 307/307/307 340/340/340
f 340/340/340 307/307/307 341/341/341
f 307/307/307 308/308/308 341/341/341
f 341/341/341 308/308/308 342/342/342
f 308/308/308 309/309/309 342/342/342
f 342/342/342 309/309/309 343/343/343
f 309/309/309 310/310/310 343/343/343
f 343/343/343 310/310/310 344/344/344
f 310/310/310 311/311/311 344/344/344
f 344/344/344 311/311/311 345/345/345
f 311/311/311 312/312/312 345/345/345
f 345/345/345 312/312/312 346/346/346
f 312/312/312 313/313/313 346/346/346
f 346/346/346 313/313/313 347/347/347
f 313/313/313 314/314/314 347/347/347
f 347/347/347 314/314/314 348/348/348
f 314/314/314 315/315/315 348/348/348
f 348/348/348 315/315/315 349/349/349
f 315/315/315 316/316/316 349/349/349
f 349/349/349 316/316/316 350/350/350
f 316/316/316 317/317/317 350/350/350
f 350/350/350 317/317/317 351/351/351
f 317/317/317 318/318/318 351/351/351
f 351/351/351 318/318/318 352/352/352
f 318/318/318 319/319/319 352/352/352
f 352/352/352 319/319/319 353/353/353
f 319/319/319 320/320/320 353/353/353
f 353/353/353 320/320/320 354/354/354
f 320/320/320 321/321/321 354/354/354
f 354/354/354 321/321/321 355/355/355
f 321/321/321 322/322/322 355/355/355
f 355/355/355 322/322/322 356/356/356
f 322/322/322 323/323/323 356/356/356
f 356/356/356 323/323/323 357/357/357
f 323/323/323 324/324/324 357/357/357
f 357/357/357 324/324/324 358/358/358
f 324/324/324 325/325/325 358/358/358
f 358/358/358 325/325/325 359/359/359
f 325/325/325 326/326/326 359/359/359
f 359/359/359 326/326/326 360/360/360
f 326/326/326 327/327/327 360/360/360
f 360/360/360 327/327/327 361/361/361
f 327/327/327 328/328/328 361/361/361
f 361/361/361 328/328/328 362/362/362
f 328/328/328 329/329/329 362/362/362
f 362/362/362 329/329/329 363/363/363
f 329/329/329 330/330/330 363/363/363
